M48
; DRILL file {KiCad 5.1.7-a382d34a8~87~ubuntu20.04.1} date Thu Oct 22 20:00:54 2020
; FORMAT={-:-/ absolute / inch / decimal}
; #@! TF.CreationDate,2020-10-22T20:00:54+02:00
; #@! TF.GenerationSoftware,Kicad,Pcbnew,5.1.7-a382d34a8~87~ubuntu20.04.1
; #@! TF.FileFunction,Plated,1,2,PTH
FMAT,2
INCH
T1C0.0157
T2C0.0236
T3C0.0276
T4C0.0295
T5C0.0315
T6C0.0354
T7C0.0394
T8C0.0400
T9C0.0433
T10C0.0472
T11C0.0512
T12C0.0630
%
G90
G05
T1
X2.4798Y-2.4598
X2.56Y-3.04
X2.78Y-2.48
X2.82Y-3.06
X2.9002Y-3.9198
X3.4Y-2.32
X3.4Y-3.28
X3.58Y-2.32
X3.58Y-2.48
X3.62Y-3.3
X3.66Y-3.3915
X3.74Y-3.46
X3.7715Y-2.8167
X3.8Y-2.7
X3.8Y-2.88
X3.82Y-2.92
X3.8285Y-2.18
X3.8285Y-2.4
X3.8396Y-3.2596
X3.8798Y-3.2598
X3.92Y-3.26
X4.08Y-2.22
T2
X4.8609Y-3.64
X4.92Y-3.64
X4.0409Y-3.64
X4.1Y-3.64
T3
X2.56Y-4.0
X2.6387Y-4.0
X2.38Y-4.0
X2.4587Y-4.0
X2.74Y-4.0
X2.8187Y-4.0
T4
X2.96Y-3.4
X2.96Y-3.45
X2.96Y-3.5
T5
X5.25Y-3.975
X5.55Y-3.975
X4.14Y-2.02
X4.14Y-2.32
X2.64Y-3.0
X2.64Y-3.1
X2.64Y-3.2
X3.575Y-2.65
X3.575Y-2.7484
X2.76Y-3.52
X2.76Y-3.82
X4.125Y-2.75
X4.125Y-2.8484
X5.25Y-2.05
X5.55Y-2.05
X2.9Y-3.22
X3.2Y-3.22
X2.86Y-2.02
X2.86Y-2.12
X2.86Y-2.22
X3.48Y-2.02
X3.48Y-2.12
X3.48Y-2.22
X2.64Y-2.52
X2.64Y-2.82
X2.9Y-3.0
X3.2Y-3.0
X3.9Y-3.5416
X3.9Y-3.64
X3.7Y-2.05
X3.7Y-2.15
X3.7Y-2.25
X3.7Y-2.35
X3.7Y-2.45
X3.7Y-2.55
X3.7Y-2.65
X3.7Y-2.75
X3.7Y-2.85
X3.7Y-2.95
X3.7Y-3.05
X3.7Y-3.15
X3.7Y-3.25
X3.7Y-3.35
X4.0Y-2.05
X4.0Y-2.15
X4.0Y-2.25
X4.0Y-2.35
X4.0Y-2.45
X4.0Y-2.55
X4.0Y-2.65
X4.0Y-2.75
X4.0Y-2.85
X4.0Y-2.95
X4.0Y-3.05
X4.0Y-3.15
X4.0Y-3.25
X4.0Y-3.35
X4.72Y-3.5416
X4.72Y-3.64
T6
X5.3662Y-2.8106
X5.3662Y-3.2044
X6.4488Y-2.6138
X6.4488Y-3.4012
X2.5Y-3.72
X2.6Y-3.72
T7
X5.7563Y-1.975
X5.9051Y-1.975
X2.98Y-2.66
X3.1769Y-2.66
X5.7563Y-3.925
X5.9051Y-3.925
T8
X2.275Y-2.69
X2.275Y-2.79
X2.275Y-2.89
X2.275Y-2.99
X2.275Y-3.09
X2.375Y-2.69
X2.375Y-2.79
X2.375Y-2.89
X2.375Y-2.99
X2.375Y-3.09
X3.16Y-3.78
X3.16Y-3.88
X3.26Y-3.78
X3.26Y-3.88
X3.36Y-3.78
X3.36Y-3.88
T9
X3.16Y-3.42
X3.56Y-3.42
X4.72Y-3.8
X4.82Y-3.8
X4.92Y-3.8
X3.9Y-3.8
X4.0Y-3.8
X4.1Y-3.8
T10
X2.5Y-2.1
X2.6Y-2.1
X4.6Y-2.14
X4.6Y-2.4353
X4.54Y-2.9
X4.54Y-3.1953
X3.12Y-2.1
X3.22Y-2.1
X2.26Y-3.44
X2.26Y-3.54
X2.26Y-3.64
X2.26Y-3.74
X3.44Y-2.9
X3.44Y-3.0
X3.44Y-3.1
X3.44Y-3.2
T11
X7.575Y-2.4
X7.575Y-2.6
X6.975Y-2.2736
X6.975Y-3.75
X6.3516Y-3.925
X6.55Y-3.925
X6.7484Y-3.925
X6.3516Y-1.975
X6.55Y-1.975
X6.7484Y-1.975
X7.575Y-2.9
X7.575Y-3.1
X7.575Y-3.4
X7.575Y-3.6
T12
X5.05Y-2.6
X5.05Y-2.8
X5.05Y-3.0
X5.05Y-3.2
T0
M30
