G04 #@! TF.GenerationSoftware,KiCad,Pcbnew,5.1.8-db9833491~87~ubuntu20.04.1*
G04 #@! TF.CreationDate,2020-11-20T22:45:01+01:00*
G04 #@! TF.ProjectId,reflow_ofen_steuerung,7265666c-6f77-45f6-9f66-656e5f737465,1.0.1*
G04 #@! TF.SameCoordinates,Original*
G04 #@! TF.FileFunction,Legend,Bot*
G04 #@! TF.FilePolarity,Positive*
%FSLAX46Y46*%
G04 Gerber Fmt 4.6, Leading zero omitted, Abs format (unit mm)*
G04 Created by KiCad (PCBNEW 5.1.8-db9833491~87~ubuntu20.04.1) date 2020-11-20 22:45:01*
%MOMM*%
%LPD*%
G01*
G04 APERTURE LIST*
%ADD10C,1.000000*%
%ADD11C,1.270000*%
%ADD12C,0.381000*%
G04 APERTURE END LIST*
D10*
X165862000Y-89154000D02*
X165862000Y-105029000D01*
X171577000Y-111379000D02*
X171577000Y-124079000D01*
X165862000Y-111379000D02*
X171577000Y-111379000D01*
X165862000Y-105029000D02*
X165862000Y-111379000D01*
X165862000Y-82804000D02*
X165862000Y-89154000D01*
X171577000Y-82804000D02*
X165862000Y-82804000D01*
X171577000Y-69469000D02*
X171577000Y-82804000D01*
D11*
X172847000Y-96774000D02*
X198247000Y-114554000D01*
X198247000Y-114554000D02*
X198247000Y-78994000D01*
X198247000Y-78994000D02*
X172847000Y-96774000D01*
D12*
X187071000Y-94488000D02*
X187706000Y-94742000D01*
X182499000Y-96012000D02*
X183134000Y-95885000D01*
X182626000Y-98552000D02*
X184912000Y-95631000D01*
X194564000Y-93980000D02*
X195326000Y-93218000D01*
X195326000Y-93218000D02*
X194437000Y-93599000D01*
X194437000Y-93599000D02*
X194056000Y-93726000D01*
X194056000Y-93726000D02*
X194183000Y-93599000D01*
X194183000Y-93599000D02*
X194310000Y-93726000D01*
X183007000Y-96012000D02*
X188341000Y-92710000D01*
X188341000Y-92710000D02*
X183769000Y-95885000D01*
X183769000Y-95885000D02*
X188214000Y-93091000D01*
X188214000Y-93091000D02*
X184531000Y-95758000D01*
X184531000Y-95758000D02*
X188214000Y-93472000D01*
X188214000Y-93472000D02*
X182880000Y-98171000D01*
X182880000Y-98171000D02*
X186563000Y-94488000D01*
X186563000Y-94488000D02*
X183642000Y-97028000D01*
X183642000Y-97028000D02*
X188341000Y-93853000D01*
X188341000Y-93853000D02*
X188214000Y-97536000D01*
X188214000Y-97536000D02*
X187706000Y-97917000D01*
X187706000Y-97917000D02*
X187706000Y-94488000D01*
X187706000Y-94488000D02*
X188087000Y-94361000D01*
X188087000Y-94361000D02*
X187960000Y-97409000D01*
X187960000Y-97409000D02*
X193548000Y-94107000D01*
X193548000Y-94107000D02*
X188214000Y-96901000D01*
X188214000Y-96901000D02*
X188214000Y-97536000D01*
X188214000Y-97536000D02*
X190246000Y-96266000D01*
X181737000Y-96393000D02*
X188468000Y-92329000D01*
X188468000Y-92329000D02*
X188468000Y-96393000D01*
X188468000Y-96393000D02*
X194564000Y-93345000D01*
X194564000Y-93345000D02*
X193294000Y-93218000D01*
X193294000Y-93218000D02*
X195961000Y-93091000D01*
X195961000Y-93091000D02*
X194056000Y-94615000D01*
X194056000Y-94615000D02*
X194437000Y-93599000D01*
X194437000Y-93599000D02*
X187579000Y-98298000D01*
X187579000Y-98298000D02*
X187325000Y-94742000D01*
X187325000Y-94742000D02*
X181229000Y-99822000D01*
X181229000Y-99822000D02*
X184404000Y-95885000D01*
X184404000Y-95885000D02*
X181737000Y-96393000D01*
M02*
