G04 #@! TF.GenerationSoftware,KiCad,Pcbnew,5.1.7-a382d34a8~87~ubuntu20.04.1*
G04 #@! TF.CreationDate,2020-10-22T20:00:58+02:00*
G04 #@! TF.ProjectId,reflow_ofen_steuerung,7265666c-6f77-45f6-9f66-656e5f737465,rev?*
G04 #@! TF.SameCoordinates,Original*
G04 #@! TF.FileFunction,Copper,L2,Bot*
G04 #@! TF.FilePolarity,Positive*
%FSLAX46Y46*%
G04 Gerber Fmt 4.6, Leading zero omitted, Abs format (unit mm)*
G04 Created by KiCad (PCBNEW 5.1.7-a382d34a8~87~ubuntu20.04.1) date 2020-10-22 20:00:58*
%MOMM*%
%LPD*%
G01*
G04 APERTURE LIST*
G04 #@! TA.AperFunction,ComponentPad*
%ADD10O,1.600000X1.600000*%
G04 #@! TD*
G04 #@! TA.AperFunction,ComponentPad*
%ADD11C,1.600000*%
G04 #@! TD*
G04 #@! TA.AperFunction,ComponentPad*
%ADD12C,1.200000*%
G04 #@! TD*
G04 #@! TA.AperFunction,ComponentPad*
%ADD13R,1.200000X1.200000*%
G04 #@! TD*
G04 #@! TA.AperFunction,ComponentPad*
%ADD14C,1.800000*%
G04 #@! TD*
G04 #@! TA.AperFunction,ComponentPad*
%ADD15R,1.800000X1.800000*%
G04 #@! TD*
G04 #@! TA.AperFunction,ComponentPad*
%ADD16C,2.400000*%
G04 #@! TD*
G04 #@! TA.AperFunction,ComponentPad*
%ADD17R,2.400000X2.400000*%
G04 #@! TD*
G04 #@! TA.AperFunction,ComponentPad*
%ADD18O,1.727200X1.727200*%
G04 #@! TD*
G04 #@! TA.AperFunction,ComponentPad*
%ADD19R,1.727200X1.727200*%
G04 #@! TD*
G04 #@! TA.AperFunction,ComponentPad*
%ADD20C,1.400000*%
G04 #@! TD*
G04 #@! TA.AperFunction,ComponentPad*
%ADD21C,2.000000*%
G04 #@! TD*
G04 #@! TA.AperFunction,ComponentPad*
%ADD22R,2.000000X2.000000*%
G04 #@! TD*
G04 #@! TA.AperFunction,ComponentPad*
%ADD23O,1.740000X2.200000*%
G04 #@! TD*
G04 #@! TA.AperFunction,ComponentPad*
%ADD24C,1.440000*%
G04 #@! TD*
G04 #@! TA.AperFunction,ComponentPad*
%ADD25R,1.500000X1.050000*%
G04 #@! TD*
G04 #@! TA.AperFunction,ComponentPad*
%ADD26O,1.500000X1.050000*%
G04 #@! TD*
G04 #@! TA.AperFunction,ComponentPad*
%ADD27O,2.200000X1.740000*%
G04 #@! TD*
G04 #@! TA.AperFunction,ComponentPad*
%ADD28O,2.200000X2.200000*%
G04 #@! TD*
G04 #@! TA.AperFunction,ComponentPad*
%ADD29R,2.200000X2.200000*%
G04 #@! TD*
G04 #@! TA.AperFunction,ComponentPad*
%ADD30R,1.600000X1.600000*%
G04 #@! TD*
G04 #@! TA.AperFunction,ComponentPad*
%ADD31O,1.905000X2.000000*%
G04 #@! TD*
G04 #@! TA.AperFunction,ComponentPad*
%ADD32R,1.905000X2.000000*%
G04 #@! TD*
G04 #@! TA.AperFunction,ComponentPad*
%ADD33C,2.500000*%
G04 #@! TD*
G04 #@! TA.AperFunction,ComponentPad*
%ADD34R,2.500000X2.500000*%
G04 #@! TD*
G04 #@! TA.AperFunction,ComponentPad*
%ADD35O,6.000000X3.250000*%
G04 #@! TD*
G04 #@! TA.AperFunction,ComponentPad*
%ADD36R,3.200000X3.200000*%
G04 #@! TD*
G04 #@! TA.AperFunction,ComponentPad*
%ADD37C,3.200000*%
G04 #@! TD*
G04 #@! TA.AperFunction,ViaPad*
%ADD38C,0.800000*%
G04 #@! TD*
G04 #@! TA.AperFunction,Conductor*
%ADD39C,0.250000*%
G04 #@! TD*
G04 #@! TA.AperFunction,Conductor*
%ADD40C,1.000000*%
G04 #@! TD*
G04 #@! TA.AperFunction,Conductor*
%ADD41C,2.000000*%
G04 #@! TD*
G04 #@! TA.AperFunction,Conductor*
%ADD42C,3.000000*%
G04 #@! TD*
G04 #@! TA.AperFunction,Conductor*
%ADD43C,0.350000*%
G04 #@! TD*
G04 #@! TA.AperFunction,Conductor*
%ADD44C,0.254000*%
G04 #@! TD*
G04 #@! TA.AperFunction,Conductor*
%ADD45C,0.100000*%
G04 #@! TD*
G04 APERTURE END LIST*
D10*
X81280000Y-76200000D03*
D11*
X73660000Y-76200000D03*
D12*
X102640000Y-92456000D03*
D13*
X104140000Y-92456000D03*
D12*
X123468000Y-92456000D03*
D13*
X124968000Y-92456000D03*
D14*
X63500000Y-94488000D03*
D15*
X66040000Y-94488000D03*
D10*
X70104000Y-89408000D03*
D11*
X70104000Y-97028000D03*
D16*
X116840000Y-61856000D03*
D17*
X116840000Y-54356000D03*
D18*
X80264000Y-98552000D03*
X80264000Y-96012000D03*
X82804000Y-98552000D03*
X82804000Y-96012000D03*
X85344000Y-98552000D03*
D19*
X85344000Y-96012000D03*
D20*
X71596000Y-101600000D03*
X69596000Y-101600000D03*
X67024000Y-101600000D03*
X65024000Y-101600000D03*
X62452000Y-101600000D03*
X60452000Y-101600000D03*
D21*
X80692000Y-67564000D03*
D22*
X75692000Y-67564000D03*
D23*
X81788000Y-53340000D03*
G04 #@! TA.AperFunction,ComponentPad*
G36*
G01*
X78378000Y-54190001D02*
X78378000Y-52489999D01*
G75*
G02*
X78627999Y-52240000I249999J0D01*
G01*
X79868001Y-52240000D01*
G75*
G02*
X80118000Y-52489999I0J-249999D01*
G01*
X80118000Y-54190001D01*
G75*
G02*
X79868001Y-54440000I-249999J0D01*
G01*
X78627999Y-54440000D01*
G75*
G02*
X78378000Y-54190001I0J249999D01*
G01*
G37*
G04 #@! TD.AperFunction*
D24*
X88392000Y-56388000D03*
X88392000Y-53848000D03*
X88392000Y-51308000D03*
D10*
X81280000Y-81788000D03*
D11*
X73660000Y-81788000D03*
D25*
X75184000Y-88900000D03*
D26*
X75184000Y-86360000D03*
X75184000Y-87630000D03*
D27*
X87376000Y-73660000D03*
X87376000Y-76200000D03*
X87376000Y-78740000D03*
G04 #@! TA.AperFunction,ComponentPad*
G36*
G01*
X88226001Y-82150000D02*
X86525999Y-82150000D01*
G75*
G02*
X86276000Y-81900001I0J249999D01*
G01*
X86276000Y-80659999D01*
G75*
G02*
X86525999Y-80410000I249999J0D01*
G01*
X88226001Y-80410000D01*
G75*
G02*
X88476000Y-80659999I0J-249999D01*
G01*
X88476000Y-81900001D01*
G75*
G02*
X88226001Y-82150000I-249999J0D01*
G01*
G37*
G04 #@! TD.AperFunction*
X57404000Y-87376000D03*
X57404000Y-89916000D03*
X57404000Y-92456000D03*
G04 #@! TA.AperFunction,ComponentPad*
G36*
G01*
X58254001Y-95866000D02*
X56553999Y-95866000D01*
G75*
G02*
X56304000Y-95616001I0J249999D01*
G01*
X56304000Y-94375999D01*
G75*
G02*
X56553999Y-94126000I249999J0D01*
G01*
X58254001Y-94126000D01*
G75*
G02*
X58504000Y-94375999I0J-249999D01*
G01*
X58504000Y-95616001D01*
G75*
G02*
X58254001Y-95866000I-249999J0D01*
G01*
G37*
G04 #@! TD.AperFunction*
D28*
X80264000Y-86868000D03*
D29*
X90424000Y-86868000D03*
D23*
X66040000Y-53340000D03*
G04 #@! TA.AperFunction,ComponentPad*
G36*
G01*
X62630000Y-54190001D02*
X62630000Y-52489999D01*
G75*
G02*
X62879999Y-52240000I249999J0D01*
G01*
X64120001Y-52240000D01*
G75*
G02*
X64370000Y-52489999I0J-249999D01*
G01*
X64370000Y-54190001D01*
G75*
G02*
X64120001Y-54440000I-249999J0D01*
G01*
X62879999Y-54440000D01*
G75*
G02*
X62630000Y-54190001I0J249999D01*
G01*
G37*
G04 #@! TD.AperFunction*
D24*
X72644000Y-56388000D03*
X72644000Y-53848000D03*
X72644000Y-51308000D03*
D10*
X133350000Y-100965000D03*
D30*
X140970000Y-100965000D03*
D10*
X133350000Y-52070000D03*
D30*
X140970000Y-52070000D03*
D10*
X105156000Y-51308000D03*
D11*
X105156000Y-58928000D03*
D24*
X67056000Y-81280000D03*
X67056000Y-78740000D03*
X67056000Y-76200000D03*
D10*
X67056000Y-71628000D03*
D11*
X67056000Y-64008000D03*
D18*
X60325000Y-78486000D03*
X57785000Y-78486000D03*
X60325000Y-75946000D03*
X57785000Y-75946000D03*
X60325000Y-73406000D03*
X57785000Y-73406000D03*
X60325000Y-70866000D03*
X57785000Y-70866000D03*
X60325000Y-68326000D03*
D19*
X57785000Y-68326000D03*
D11*
X104775000Y-72350000D03*
X104775000Y-69850000D03*
X90805000Y-69810000D03*
X90805000Y-67310000D03*
D10*
X101600000Y-52070000D03*
X93980000Y-85090000D03*
X101600000Y-54610000D03*
X93980000Y-82550000D03*
X101600000Y-57150000D03*
X93980000Y-80010000D03*
X101600000Y-59690000D03*
X93980000Y-77470000D03*
X101600000Y-62230000D03*
X93980000Y-74930000D03*
X101600000Y-64770000D03*
X93980000Y-72390000D03*
X101600000Y-67310000D03*
X93980000Y-69850000D03*
X101600000Y-69850000D03*
X93980000Y-67310000D03*
X101600000Y-72390000D03*
X93980000Y-64770000D03*
X101600000Y-74930000D03*
X93980000Y-62230000D03*
X101600000Y-77470000D03*
X93980000Y-59690000D03*
X101600000Y-80010000D03*
X93980000Y-57150000D03*
X101600000Y-82550000D03*
X93980000Y-54610000D03*
X101600000Y-85090000D03*
D30*
X93980000Y-52070000D03*
D31*
X99060000Y-96520000D03*
X101600000Y-96520000D03*
D32*
X104140000Y-96520000D03*
D31*
X119888000Y-96520000D03*
X122428000Y-96520000D03*
D32*
X124968000Y-96520000D03*
D11*
X99060000Y-89956000D03*
X99060000Y-92456000D03*
X119888000Y-89956000D03*
X119888000Y-92456000D03*
D22*
X163800500Y-86390500D03*
D21*
X163800500Y-66390500D03*
X136300500Y-81390500D03*
X136300500Y-71390500D03*
D33*
X192405000Y-73660000D03*
D34*
X192405000Y-78740000D03*
D33*
X192405000Y-86360000D03*
D34*
X192405000Y-91440000D03*
D21*
X146210000Y-99695000D03*
X149990000Y-99695000D03*
D33*
X161330000Y-99695000D03*
X166370000Y-99695000D03*
X171410000Y-99695000D03*
D21*
X146210000Y-50165000D03*
X149990000Y-50165000D03*
D33*
X161330000Y-50165000D03*
X166370000Y-50165000D03*
X171410000Y-50165000D03*
D35*
X177165000Y-95250000D03*
X177165000Y-57750000D03*
D33*
X192405000Y-60960000D03*
D34*
X192405000Y-66040000D03*
D36*
X128270000Y-66040000D03*
D37*
X128270000Y-71120000D03*
X128270000Y-76200000D03*
X128270000Y-81280000D03*
D16*
X115316000Y-81160000D03*
D17*
X115316000Y-73660000D03*
D38*
X95795000Y-71543264D03*
X97028000Y-74168000D03*
X73664653Y-99563347D03*
X96520000Y-68580000D03*
X96520000Y-73152000D03*
X94996000Y-87884000D03*
X99568000Y-82804000D03*
X97526694Y-82794694D03*
X98547347Y-82799347D03*
X71628000Y-77724000D03*
X65024000Y-77216000D03*
X86360000Y-58928000D03*
X103632000Y-56388000D03*
X97245000Y-55372000D03*
X90932000Y-58928000D03*
X97245000Y-60960000D03*
X90932000Y-62992000D03*
X70612000Y-62992000D03*
X62987347Y-62479347D03*
X92964000Y-86143000D03*
X86360000Y-83312000D03*
X91948000Y-83820000D03*
D39*
X124968000Y-92456000D02*
X124968000Y-96520000D01*
X116840000Y-54356000D02*
X121412000Y-54356000D01*
X128270000Y-61214000D02*
X128270000Y-66040000D01*
X121412000Y-54356000D02*
X128270000Y-61214000D01*
X115316000Y-73660000D02*
X116840000Y-73660000D01*
X124460000Y-66040000D02*
X128270000Y-66040000D01*
X116840000Y-73660000D02*
X124460000Y-66040000D01*
X115316000Y-73660000D02*
X122428000Y-80772000D01*
X122428000Y-89916000D02*
X124968000Y-92456000D01*
X122428000Y-80772000D02*
X122428000Y-89916000D01*
D40*
X128540500Y-71390500D02*
X128270000Y-71120000D01*
X136300500Y-71390500D02*
X128540500Y-71390500D01*
X128380500Y-81390500D02*
X128270000Y-81280000D01*
X136300500Y-81390500D02*
X128380500Y-81390500D01*
D41*
X189155000Y-78740000D02*
X184150000Y-73735000D01*
X192405000Y-78740000D02*
X189155000Y-78740000D01*
X173177766Y-50165000D02*
X171410000Y-50165000D01*
X176435091Y-50165000D02*
X173177766Y-50165000D01*
X184150000Y-57879909D02*
X176435091Y-50165000D01*
X184150000Y-73735000D02*
X184150000Y-57879909D01*
D42*
X184150000Y-99695000D02*
X192405000Y-91440000D01*
X171410000Y-99695000D02*
X184150000Y-99695000D01*
D39*
X69596000Y-101600000D02*
X71596000Y-101600000D01*
X95673264Y-71543264D02*
X95795000Y-71543264D01*
X93980000Y-69850000D02*
X95673264Y-71543264D01*
D42*
X166370000Y-52955000D02*
X166370000Y-51035010D01*
X171165000Y-57750000D02*
X166370000Y-52955000D01*
X177165000Y-57750000D02*
X171165000Y-57750000D01*
X172814999Y-91482235D02*
X172814999Y-62135001D01*
X166370000Y-97927234D02*
X172814999Y-91482235D01*
X166370000Y-99695000D02*
X166370000Y-97927234D01*
X177165000Y-57785000D02*
X177165000Y-57750000D01*
X172814999Y-62135001D02*
X177165000Y-57785000D01*
X194172766Y-73660000D02*
X192405000Y-73660000D01*
X194775002Y-73660000D02*
X194172766Y-73660000D01*
X196405001Y-75289999D02*
X194775002Y-73660000D01*
X196405001Y-82359999D02*
X196405001Y-75289999D01*
X192405000Y-86360000D02*
X196405001Y-82359999D01*
X192405000Y-73660000D02*
X192405000Y-66040000D01*
D39*
X144795787Y-50165000D02*
X146210000Y-50165000D01*
X134123630Y-50165000D02*
X144795787Y-50165000D01*
X133350000Y-50938630D02*
X134123630Y-50165000D01*
X133350000Y-52070000D02*
X133350000Y-50938630D01*
X93980000Y-80010000D02*
X93980000Y-82550000D01*
X131687370Y-49276000D02*
X133350000Y-50938630D01*
X111760000Y-49276000D02*
X131687370Y-49276000D01*
X105664000Y-55372000D02*
X111760000Y-49276000D01*
X105664000Y-55429002D02*
X105664000Y-55372000D01*
X102725001Y-70390001D02*
X102725001Y-58368001D01*
X101850003Y-71264999D02*
X102725001Y-70390001D01*
X102725001Y-58368001D02*
X105664000Y-55429002D01*
X101059999Y-71264999D02*
X101850003Y-71264999D01*
X95105001Y-78884999D02*
X95105001Y-77219997D01*
X95105001Y-77219997D02*
X101059999Y-71264999D01*
X93980000Y-80010000D02*
X95105001Y-78884999D01*
D43*
X145210001Y-100694999D02*
X146210000Y-99695000D01*
X134525001Y-102140001D02*
X143764999Y-102140001D01*
X143764999Y-102140001D02*
X145210001Y-100694999D01*
X133350000Y-100965000D02*
X134525001Y-102140001D01*
D39*
X93980000Y-72390000D02*
X93980000Y-74930000D01*
X96266000Y-74930000D02*
X97028000Y-74168000D01*
X93980000Y-74930000D02*
X96266000Y-74930000D01*
X65024000Y-101600000D02*
X67024000Y-101600000D01*
X90424000Y-85518000D02*
X90424000Y-86868000D01*
X90424000Y-81558000D02*
X90424000Y-85518000D01*
X87606000Y-78740000D02*
X90424000Y-81558000D01*
X87376000Y-78740000D02*
X87606000Y-78740000D01*
X119888000Y-92456000D02*
X119888000Y-96520000D01*
X104140000Y-92456000D02*
X119888000Y-92456000D01*
X104140000Y-92456000D02*
X104140000Y-96520000D01*
X90424000Y-86868000D02*
X100584000Y-86868000D01*
X100584000Y-86868000D02*
X102616000Y-88900000D01*
X102616000Y-90932000D02*
X104140000Y-92456000D01*
X102616000Y-88900000D02*
X102616000Y-90932000D01*
X90424000Y-86868000D02*
X86360000Y-86868000D01*
X86360000Y-86868000D02*
X73660000Y-99568000D01*
X73660000Y-99568000D02*
X73664653Y-99563347D01*
D43*
X148990001Y-98695001D02*
X149990000Y-99695000D01*
X148614999Y-98319999D02*
X148990001Y-98695001D01*
X144765001Y-98319999D02*
X148614999Y-98319999D01*
X142120000Y-100965000D02*
X144765001Y-98319999D01*
X140970000Y-100965000D02*
X142120000Y-100965000D01*
D39*
X148085000Y-52070000D02*
X149990000Y-50165000D01*
X140970000Y-52070000D02*
X148085000Y-52070000D01*
X60452000Y-101600000D02*
X62452000Y-101600000D01*
X101640000Y-72350000D02*
X101600000Y-72390000D01*
X104775000Y-72350000D02*
X101640000Y-72350000D01*
X91936370Y-67310000D02*
X93980000Y-67310000D01*
X90805000Y-67310000D02*
X91936370Y-67310000D01*
X67056000Y-71628000D02*
X67056000Y-76200000D01*
X66256001Y-70828001D02*
X67056000Y-71628000D01*
X65024000Y-69596000D02*
X66256001Y-70828001D01*
X59835870Y-69596000D02*
X65024000Y-69596000D01*
X58565870Y-68326000D02*
X59835870Y-69596000D01*
X57785000Y-68326000D02*
X58565870Y-68326000D01*
X87672001Y-54567999D02*
X88392000Y-53848000D01*
X87474990Y-54765010D02*
X87672001Y-54567999D01*
X73561010Y-54765010D02*
X87474990Y-54765010D01*
X72644000Y-53848000D02*
X73561010Y-54765010D01*
X89111999Y-54567999D02*
X88392000Y-53848000D01*
X90005001Y-55461001D02*
X89111999Y-54567999D01*
X90005001Y-66510001D02*
X90005001Y-55461001D01*
X90805000Y-67310000D02*
X90005001Y-66510001D01*
X105574999Y-71550001D02*
X104775000Y-72350000D01*
X105955999Y-71169001D02*
X105574999Y-71550001D01*
X105955999Y-59727999D02*
X105955999Y-71169001D01*
X105156000Y-58928000D02*
X105955999Y-59727999D01*
X99060000Y-67310000D02*
X101600000Y-69850000D01*
X93980000Y-67310000D02*
X99060000Y-67310000D01*
X89673630Y-67310000D02*
X90805000Y-67310000D01*
X139844999Y-53195001D02*
X125839001Y-53195001D01*
X140970000Y-52070000D02*
X139844999Y-53195001D01*
X125839001Y-53195001D02*
X122428000Y-49784000D01*
X114300000Y-49784000D02*
X105156000Y-58928000D01*
X122428000Y-49784000D02*
X114300000Y-49784000D01*
X99060000Y-92456000D02*
X99060000Y-96520000D01*
X139844999Y-99839999D02*
X132316001Y-99839999D01*
X140970000Y-100965000D02*
X139844999Y-99839999D01*
X132316001Y-99839999D02*
X131064000Y-101092000D01*
X131064000Y-101092000D02*
X101092000Y-101092000D01*
X99060000Y-99060000D02*
X99060000Y-96520000D01*
X101092000Y-101092000D02*
X99060000Y-99060000D01*
X97028000Y-98552000D02*
X99060000Y-96520000D01*
X85344000Y-98552000D02*
X97028000Y-98552000D01*
X73660000Y-100584000D02*
X69949002Y-96873002D01*
X84328000Y-100584000D02*
X73660000Y-100584000D01*
X85344000Y-99568000D02*
X84328000Y-100584000D01*
X85344000Y-98552000D02*
X85344000Y-99568000D01*
X67024000Y-97028000D02*
X62452000Y-101600000D01*
X70104000Y-97028000D02*
X67024000Y-97028000D01*
X68101001Y-82774999D02*
X61976000Y-88900000D01*
X68101001Y-77245001D02*
X68101001Y-82774999D01*
X67056000Y-76200000D02*
X68101001Y-77245001D01*
X61976000Y-101124000D02*
X62452000Y-101600000D01*
X61976000Y-88900000D02*
X61976000Y-101124000D01*
X81280000Y-73914000D02*
X81280000Y-76200000D01*
X78994000Y-71628000D02*
X81280000Y-73914000D01*
X67056000Y-71628000D02*
X78994000Y-71628000D01*
X78994000Y-71628000D02*
X80518000Y-71628000D01*
X80518000Y-71628000D02*
X82804000Y-69342000D01*
X82804000Y-69342000D02*
X86614000Y-69342000D01*
X88646000Y-67310000D02*
X89673630Y-67310000D01*
X86614000Y-69342000D02*
X88646000Y-67310000D01*
X104356001Y-50508001D02*
X105156000Y-51308000D01*
X96591999Y-50508001D02*
X104356001Y-50508001D01*
X95030000Y-52070000D02*
X96591999Y-50508001D01*
X93980000Y-52070000D02*
X95030000Y-52070000D01*
X96520000Y-68580000D02*
X96520000Y-73152000D01*
X93980000Y-88900000D02*
X94996000Y-87884000D01*
X87376000Y-88900000D02*
X93980000Y-88900000D01*
X80264000Y-96012000D02*
X87376000Y-88900000D01*
X99568000Y-82042000D02*
X99568000Y-82804000D01*
X101600000Y-80010000D02*
X99568000Y-82042000D01*
X97526694Y-79003306D02*
X97526694Y-82794694D01*
X101600000Y-74930000D02*
X97526694Y-79003306D01*
X98547347Y-80522653D02*
X98547347Y-82799347D01*
X101600000Y-77470000D02*
X98547347Y-80522653D01*
X63500000Y-92964000D02*
X63500000Y-94488000D01*
X67056000Y-89408000D02*
X63500000Y-92964000D01*
X70104000Y-89408000D02*
X67056000Y-89408000D01*
X66802000Y-78486000D02*
X67056000Y-78740000D01*
X60325000Y-78486000D02*
X66802000Y-78486000D01*
X71882000Y-77470000D02*
X71628000Y-77724000D01*
X93980000Y-77470000D02*
X71882000Y-77470000D01*
X59055000Y-77216000D02*
X57785000Y-75946000D01*
X65024000Y-77216000D02*
X59055000Y-77216000D01*
X56921401Y-70002401D02*
X57785000Y-70866000D01*
X56596399Y-67202399D02*
X56596399Y-69677399D01*
X64870798Y-58928000D02*
X56596399Y-67202399D01*
X56596399Y-69677399D02*
X56921401Y-70002401D01*
X86360000Y-58928000D02*
X64870798Y-58928000D01*
X70612000Y-53340000D02*
X72644000Y-51308000D01*
X66040000Y-53340000D02*
X70612000Y-53340000D01*
X106281001Y-53738999D02*
X103632000Y-56388000D01*
X106281001Y-50767999D02*
X106281001Y-53738999D01*
X105570994Y-50057992D02*
X106281001Y-50767999D01*
X73894008Y-50057992D02*
X105570994Y-50057992D01*
X72644000Y-51308000D02*
X73894008Y-50057992D01*
X78232000Y-88900000D02*
X80264000Y-86868000D01*
X75184000Y-88900000D02*
X78232000Y-88900000D01*
X80264000Y-86868000D02*
X85344000Y-86868000D01*
X87376000Y-84836000D02*
X87376000Y-81280000D01*
X85344000Y-86868000D02*
X87376000Y-84836000D01*
X91584999Y-58275001D02*
X90932000Y-58928000D01*
X94907684Y-58275001D02*
X91584999Y-58275001D01*
X97245000Y-55937685D02*
X94907684Y-58275001D01*
X97245000Y-55372000D02*
X97245000Y-55937685D01*
X92964000Y-60960000D02*
X90932000Y-62992000D01*
X97245000Y-60960000D02*
X92964000Y-60960000D01*
X70612000Y-62992000D02*
X69596000Y-62992000D01*
X69083347Y-62479347D02*
X62987347Y-62479347D01*
X69596000Y-62992000D02*
X69083347Y-62479347D01*
X92964000Y-86143000D02*
X93181000Y-86360000D01*
X100330000Y-86360000D02*
X101600000Y-85090000D01*
X93181000Y-86360000D02*
X100330000Y-86360000D01*
X74184000Y-87630000D02*
X75184000Y-87630000D01*
X73660000Y-87106000D02*
X74184000Y-87630000D01*
X73660000Y-81788000D02*
X73660000Y-87106000D01*
X84836000Y-81788000D02*
X86360000Y-83312000D01*
X81280000Y-81788000D02*
X84836000Y-81788000D01*
X100330000Y-83820000D02*
X101600000Y-82550000D01*
X91948000Y-83820000D02*
X100330000Y-83820000D01*
X81788000Y-51990000D02*
X81788000Y-53340000D01*
X82470000Y-51308000D02*
X81788000Y-51990000D01*
X88392000Y-51308000D02*
X82470000Y-51308000D01*
X88392000Y-51308000D02*
X90424000Y-53340000D01*
X90424000Y-53340000D02*
X98044000Y-53340000D01*
X98044000Y-53340000D02*
X99568000Y-54864000D01*
X99568000Y-60198000D02*
X101600000Y-62230000D01*
X99568000Y-54864000D02*
X99568000Y-60198000D01*
D44*
X107041001Y-52920198D02*
X107041001Y-50805332D01*
X107044678Y-50767999D01*
X107030004Y-50619013D01*
X106986547Y-50475752D01*
X106915975Y-50343723D01*
X106844800Y-50256996D01*
X106821002Y-50227998D01*
X106792005Y-50204201D01*
X106134797Y-49546994D01*
X106110995Y-49517991D01*
X105995270Y-49423018D01*
X105863241Y-49352446D01*
X105719980Y-49308989D01*
X105608327Y-49297992D01*
X105608316Y-49297992D01*
X105570994Y-49294316D01*
X105533672Y-49297992D01*
X73931330Y-49297992D01*
X73894007Y-49294316D01*
X73856684Y-49297992D01*
X73856675Y-49297992D01*
X73745022Y-49308989D01*
X73601761Y-49352446D01*
X73469732Y-49423018D01*
X73354007Y-49517991D01*
X73330209Y-49546989D01*
X72899852Y-49977346D01*
X72777456Y-49953000D01*
X72510544Y-49953000D01*
X72248761Y-50005072D01*
X72002167Y-50107215D01*
X71780238Y-50255503D01*
X71591503Y-50444238D01*
X71443215Y-50666167D01*
X71341072Y-50912761D01*
X71289000Y-51174544D01*
X71289000Y-51441456D01*
X71313346Y-51563852D01*
X70297199Y-52580000D01*
X67451947Y-52580000D01*
X67437166Y-52531275D01*
X67297417Y-52269821D01*
X67109345Y-52040655D01*
X66880178Y-51852583D01*
X66618724Y-51712834D01*
X66335031Y-51626776D01*
X66040000Y-51597718D01*
X65744968Y-51626776D01*
X65461275Y-51712834D01*
X65199821Y-51852583D01*
X64972615Y-52039047D01*
X64959502Y-51995820D01*
X64900537Y-51885506D01*
X64821185Y-51788815D01*
X64724494Y-51709463D01*
X64614180Y-51650498D01*
X64494482Y-51614188D01*
X64370000Y-51601928D01*
X63785750Y-51605000D01*
X63627000Y-51763750D01*
X63627000Y-53213000D01*
X63647000Y-53213000D01*
X63647000Y-53467000D01*
X63627000Y-53467000D01*
X63627000Y-54916250D01*
X63785750Y-55075000D01*
X64370000Y-55078072D01*
X64494482Y-55065812D01*
X64614180Y-55029502D01*
X64724494Y-54970537D01*
X64821185Y-54891185D01*
X64900537Y-54794494D01*
X64959502Y-54684180D01*
X64972615Y-54640953D01*
X65199822Y-54827417D01*
X65461276Y-54967166D01*
X65744969Y-55053224D01*
X66040000Y-55082282D01*
X66335032Y-55053224D01*
X66618725Y-54967166D01*
X66880179Y-54827417D01*
X67109345Y-54639345D01*
X67297417Y-54410179D01*
X67437166Y-54148724D01*
X67451946Y-54100000D01*
X70574678Y-54100000D01*
X70612000Y-54103676D01*
X70649322Y-54100000D01*
X70649333Y-54100000D01*
X70760986Y-54089003D01*
X70904247Y-54045546D01*
X71036276Y-53974974D01*
X71152001Y-53880001D01*
X71175804Y-53850997D01*
X71289000Y-53737801D01*
X71289000Y-53981456D01*
X71341072Y-54243239D01*
X71443215Y-54489833D01*
X71591503Y-54711762D01*
X71780238Y-54900497D01*
X72002167Y-55048785D01*
X72169266Y-55118000D01*
X72002167Y-55187215D01*
X71780238Y-55335503D01*
X71591503Y-55524238D01*
X71443215Y-55746167D01*
X71341072Y-55992761D01*
X71289000Y-56254544D01*
X71289000Y-56521456D01*
X71341072Y-56783239D01*
X71443215Y-57029833D01*
X71591503Y-57251762D01*
X71780238Y-57440497D01*
X72002167Y-57588785D01*
X72248761Y-57690928D01*
X72510544Y-57743000D01*
X72777456Y-57743000D01*
X73039239Y-57690928D01*
X73285833Y-57588785D01*
X73507762Y-57440497D01*
X73696497Y-57251762D01*
X73844785Y-57029833D01*
X73946928Y-56783239D01*
X73999000Y-56521456D01*
X73999000Y-56254544D01*
X73946928Y-55992761D01*
X73844785Y-55746167D01*
X73697013Y-55525010D01*
X87338987Y-55525010D01*
X87191215Y-55746167D01*
X87089072Y-55992761D01*
X87037000Y-56254544D01*
X87037000Y-56521456D01*
X87089072Y-56783239D01*
X87191215Y-57029833D01*
X87339503Y-57251762D01*
X87528238Y-57440497D01*
X87750167Y-57588785D01*
X87996761Y-57690928D01*
X88258544Y-57743000D01*
X88525456Y-57743000D01*
X88787239Y-57690928D01*
X89033833Y-57588785D01*
X89245002Y-57447687D01*
X89245001Y-66472679D01*
X89241325Y-66510001D01*
X89245001Y-66547323D01*
X89245001Y-66547333D01*
X89245264Y-66550000D01*
X88683323Y-66550000D01*
X88646000Y-66546324D01*
X88608677Y-66550000D01*
X88608667Y-66550000D01*
X88497014Y-66560997D01*
X88353753Y-66604454D01*
X88221723Y-66675026D01*
X88138083Y-66743668D01*
X88105999Y-66769999D01*
X88082202Y-66798996D01*
X86299199Y-68582000D01*
X82841322Y-68582000D01*
X82803999Y-68578324D01*
X82766676Y-68582000D01*
X82766667Y-68582000D01*
X82655014Y-68592997D01*
X82511753Y-68636454D01*
X82379724Y-68707026D01*
X82263999Y-68801999D01*
X82240201Y-68830997D01*
X80203199Y-70868000D01*
X79031322Y-70868000D01*
X78994000Y-70864324D01*
X78956678Y-70868000D01*
X68274043Y-70868000D01*
X68170637Y-70713241D01*
X67970759Y-70513363D01*
X67735727Y-70356320D01*
X67474574Y-70248147D01*
X67197335Y-70193000D01*
X66914665Y-70193000D01*
X66732114Y-70229312D01*
X65587804Y-69085003D01*
X65564001Y-69055999D01*
X65448276Y-68961026D01*
X65316247Y-68890454D01*
X65172986Y-68846997D01*
X65061333Y-68836000D01*
X65061322Y-68836000D01*
X65024000Y-68832324D01*
X64986678Y-68836000D01*
X61734133Y-68836000D01*
X61734222Y-68835814D01*
X61779958Y-68685026D01*
X61658817Y-68453000D01*
X60452000Y-68453000D01*
X60452000Y-68473000D01*
X60198000Y-68473000D01*
X60198000Y-68453000D01*
X60178000Y-68453000D01*
X60178000Y-68199000D01*
X60198000Y-68199000D01*
X60198000Y-66991536D01*
X60452000Y-66991536D01*
X60452000Y-68199000D01*
X61658817Y-68199000D01*
X61779958Y-67966974D01*
X61734222Y-67816186D01*
X61607684Y-67551056D01*
X61431854Y-67315707D01*
X61213488Y-67119183D01*
X60960978Y-66969036D01*
X60684027Y-66871037D01*
X60452000Y-66991536D01*
X60198000Y-66991536D01*
X59965973Y-66871037D01*
X59689022Y-66969036D01*
X59436512Y-67119183D01*
X59257053Y-67280692D01*
X59238102Y-67218220D01*
X59179137Y-67107906D01*
X59099785Y-67011215D01*
X59003094Y-66931863D01*
X58892780Y-66872898D01*
X58773082Y-66836588D01*
X58648600Y-66824328D01*
X58049271Y-66824328D01*
X58309599Y-66564000D01*
X74053928Y-66564000D01*
X74053928Y-68564000D01*
X74066188Y-68688482D01*
X74102498Y-68808180D01*
X74161463Y-68918494D01*
X74240815Y-69015185D01*
X74337506Y-69094537D01*
X74447820Y-69153502D01*
X74567518Y-69189812D01*
X74692000Y-69202072D01*
X76692000Y-69202072D01*
X76816482Y-69189812D01*
X76936180Y-69153502D01*
X77046494Y-69094537D01*
X77143185Y-69015185D01*
X77222537Y-68918494D01*
X77281502Y-68808180D01*
X77317812Y-68688482D01*
X77330072Y-68564000D01*
X77330072Y-67402967D01*
X79057000Y-67402967D01*
X79057000Y-67725033D01*
X79119832Y-68040912D01*
X79243082Y-68338463D01*
X79422013Y-68606252D01*
X79649748Y-68833987D01*
X79917537Y-69012918D01*
X80215088Y-69136168D01*
X80530967Y-69199000D01*
X80853033Y-69199000D01*
X81168912Y-69136168D01*
X81466463Y-69012918D01*
X81734252Y-68833987D01*
X81961987Y-68606252D01*
X82140918Y-68338463D01*
X82264168Y-68040912D01*
X82327000Y-67725033D01*
X82327000Y-67402967D01*
X82264168Y-67087088D01*
X82140918Y-66789537D01*
X81961987Y-66521748D01*
X81734252Y-66294013D01*
X81466463Y-66115082D01*
X81168912Y-65991832D01*
X80853033Y-65929000D01*
X80530967Y-65929000D01*
X80215088Y-65991832D01*
X79917537Y-66115082D01*
X79649748Y-66294013D01*
X79422013Y-66521748D01*
X79243082Y-66789537D01*
X79119832Y-67087088D01*
X79057000Y-67402967D01*
X77330072Y-67402967D01*
X77330072Y-66564000D01*
X77317812Y-66439518D01*
X77281502Y-66319820D01*
X77222537Y-66209506D01*
X77143185Y-66112815D01*
X77046494Y-66033463D01*
X76936180Y-65974498D01*
X76816482Y-65938188D01*
X76692000Y-65925928D01*
X74692000Y-65925928D01*
X74567518Y-65938188D01*
X74447820Y-65974498D01*
X74337506Y-66033463D01*
X74240815Y-66112815D01*
X74161463Y-66209506D01*
X74102498Y-66319820D01*
X74066188Y-66439518D01*
X74053928Y-66564000D01*
X58309599Y-66564000D01*
X62021479Y-62852121D01*
X62070142Y-62969603D01*
X62183410Y-63139121D01*
X62327573Y-63283284D01*
X62497091Y-63396552D01*
X62685449Y-63474573D01*
X62885408Y-63514347D01*
X63089286Y-63514347D01*
X63289245Y-63474573D01*
X63477603Y-63396552D01*
X63647121Y-63283284D01*
X63691058Y-63239347D01*
X65843738Y-63239347D01*
X65784320Y-63328273D01*
X65676147Y-63589426D01*
X65621000Y-63866665D01*
X65621000Y-64149335D01*
X65676147Y-64426574D01*
X65784320Y-64687727D01*
X65941363Y-64922759D01*
X66141241Y-65122637D01*
X66376273Y-65279680D01*
X66637426Y-65387853D01*
X66914665Y-65443000D01*
X67197335Y-65443000D01*
X67474574Y-65387853D01*
X67735727Y-65279680D01*
X67970759Y-65122637D01*
X68170637Y-64922759D01*
X68327680Y-64687727D01*
X68435853Y-64426574D01*
X68491000Y-64149335D01*
X68491000Y-63866665D01*
X68435853Y-63589426D01*
X68327680Y-63328273D01*
X68268262Y-63239347D01*
X68768546Y-63239347D01*
X69032200Y-63503002D01*
X69055999Y-63532001D01*
X69171724Y-63626974D01*
X69303753Y-63697546D01*
X69447014Y-63741003D01*
X69558667Y-63752000D01*
X69558677Y-63752000D01*
X69596000Y-63755676D01*
X69633323Y-63752000D01*
X69908289Y-63752000D01*
X69952226Y-63795937D01*
X70121744Y-63909205D01*
X70310102Y-63987226D01*
X70510061Y-64027000D01*
X70713939Y-64027000D01*
X70913898Y-63987226D01*
X71102256Y-63909205D01*
X71271774Y-63795937D01*
X71415937Y-63651774D01*
X71529205Y-63482256D01*
X71607226Y-63293898D01*
X71647000Y-63093939D01*
X71647000Y-62890061D01*
X71607226Y-62690102D01*
X71529205Y-62501744D01*
X71415937Y-62332226D01*
X71271774Y-62188063D01*
X71102256Y-62074795D01*
X70913898Y-61996774D01*
X70713939Y-61957000D01*
X70510061Y-61957000D01*
X70310102Y-61996774D01*
X70121744Y-62074795D01*
X69952226Y-62188063D01*
X69909545Y-62230744D01*
X69647150Y-61968349D01*
X69623348Y-61939346D01*
X69507623Y-61844373D01*
X69375594Y-61773801D01*
X69232333Y-61730344D01*
X69120680Y-61719347D01*
X69120669Y-61719347D01*
X69083347Y-61715671D01*
X69046025Y-61719347D01*
X63691058Y-61719347D01*
X63647121Y-61675410D01*
X63477603Y-61562142D01*
X63360121Y-61513479D01*
X65185600Y-59688000D01*
X85656289Y-59688000D01*
X85700226Y-59731937D01*
X85869744Y-59845205D01*
X86058102Y-59923226D01*
X86258061Y-59963000D01*
X86461939Y-59963000D01*
X86661898Y-59923226D01*
X86850256Y-59845205D01*
X87019774Y-59731937D01*
X87163937Y-59587774D01*
X87277205Y-59418256D01*
X87355226Y-59229898D01*
X87395000Y-59029939D01*
X87395000Y-58826061D01*
X87355226Y-58626102D01*
X87277205Y-58437744D01*
X87163937Y-58268226D01*
X87019774Y-58124063D01*
X86850256Y-58010795D01*
X86661898Y-57932774D01*
X86461939Y-57893000D01*
X86258061Y-57893000D01*
X86058102Y-57932774D01*
X85869744Y-58010795D01*
X85700226Y-58124063D01*
X85656289Y-58168000D01*
X64908120Y-58168000D01*
X64870797Y-58164324D01*
X64833474Y-58168000D01*
X64833465Y-58168000D01*
X64721812Y-58178997D01*
X64578551Y-58222454D01*
X64446522Y-58293026D01*
X64330797Y-58387999D01*
X64306999Y-58416997D01*
X56085402Y-66638595D01*
X56056398Y-66662398D01*
X56001270Y-66729573D01*
X55961425Y-66778123D01*
X55903911Y-66885723D01*
X55890853Y-66910153D01*
X55847396Y-67053414D01*
X55836399Y-67165067D01*
X55836399Y-67165077D01*
X55832723Y-67202399D01*
X55836399Y-67239722D01*
X55836400Y-69640067D01*
X55832723Y-69677399D01*
X55836400Y-69714732D01*
X55847397Y-69826385D01*
X55855471Y-69853003D01*
X55890853Y-69969645D01*
X55961425Y-70101675D01*
X56018908Y-70171717D01*
X56056399Y-70217400D01*
X56085397Y-70241198D01*
X56332224Y-70488025D01*
X56286400Y-70718401D01*
X56286400Y-71013599D01*
X56343990Y-71303125D01*
X56456958Y-71575853D01*
X56620961Y-71821302D01*
X56829698Y-72030039D01*
X56988281Y-72136000D01*
X56829698Y-72241961D01*
X56620961Y-72450698D01*
X56456958Y-72696147D01*
X56343990Y-72968875D01*
X56286400Y-73258401D01*
X56286400Y-73553599D01*
X56343990Y-73843125D01*
X56456958Y-74115853D01*
X56620961Y-74361302D01*
X56829698Y-74570039D01*
X56988281Y-74676000D01*
X56829698Y-74781961D01*
X56620961Y-74990698D01*
X56456958Y-75236147D01*
X56343990Y-75508875D01*
X56286400Y-75798401D01*
X56286400Y-76093599D01*
X56343990Y-76383125D01*
X56456958Y-76655853D01*
X56620961Y-76901302D01*
X56829698Y-77110039D01*
X56988281Y-77216000D01*
X56829698Y-77321961D01*
X56620961Y-77530698D01*
X56456958Y-77776147D01*
X56343990Y-78048875D01*
X56286400Y-78338401D01*
X56286400Y-78633599D01*
X56343990Y-78923125D01*
X56456958Y-79195853D01*
X56620961Y-79441302D01*
X56829698Y-79650039D01*
X57075147Y-79814042D01*
X57347875Y-79927010D01*
X57637401Y-79984600D01*
X57932599Y-79984600D01*
X58222125Y-79927010D01*
X58494853Y-79814042D01*
X58740302Y-79650039D01*
X58949039Y-79441302D01*
X59055000Y-79282719D01*
X59160961Y-79441302D01*
X59369698Y-79650039D01*
X59615147Y-79814042D01*
X59887875Y-79927010D01*
X60177401Y-79984600D01*
X60472599Y-79984600D01*
X60762125Y-79927010D01*
X61034853Y-79814042D01*
X61280302Y-79650039D01*
X61489039Y-79441302D01*
X61619535Y-79246000D01*
X65798951Y-79246000D01*
X65855215Y-79381833D01*
X66003503Y-79603762D01*
X66192238Y-79792497D01*
X66414167Y-79940785D01*
X66582324Y-80010438D01*
X66467647Y-80052125D01*
X66361932Y-80108632D01*
X66300045Y-80344440D01*
X67056000Y-81100395D01*
X67070143Y-81086253D01*
X67249748Y-81265858D01*
X67235605Y-81280000D01*
X67249748Y-81294143D01*
X67070143Y-81473748D01*
X67056000Y-81459605D01*
X66300045Y-82215560D01*
X66361932Y-82451368D01*
X66603790Y-82564266D01*
X66863027Y-82627811D01*
X67129680Y-82639561D01*
X67167431Y-82633766D01*
X61465003Y-88336196D01*
X61435999Y-88359999D01*
X61394144Y-88411000D01*
X61341026Y-88475724D01*
X61277906Y-88593812D01*
X61270454Y-88607754D01*
X61226997Y-88751015D01*
X61216000Y-88862668D01*
X61216000Y-88862678D01*
X61212324Y-88900000D01*
X61216000Y-88937322D01*
X61216001Y-100504899D01*
X61084359Y-100416939D01*
X60841405Y-100316304D01*
X60583486Y-100265000D01*
X60320514Y-100265000D01*
X60062595Y-100316304D01*
X59819641Y-100416939D01*
X59600987Y-100563038D01*
X59415038Y-100748987D01*
X59268939Y-100967641D01*
X59168304Y-101210595D01*
X59117000Y-101468514D01*
X59117000Y-101731486D01*
X59168304Y-101989405D01*
X59268939Y-102232359D01*
X59415038Y-102451013D01*
X59600987Y-102636962D01*
X59819641Y-102783061D01*
X60062595Y-102883696D01*
X60320514Y-102935000D01*
X60583486Y-102935000D01*
X60841405Y-102883696D01*
X61084359Y-102783061D01*
X61303013Y-102636962D01*
X61452000Y-102487975D01*
X61600987Y-102636962D01*
X61819641Y-102783061D01*
X62062595Y-102883696D01*
X62320514Y-102935000D01*
X62583486Y-102935000D01*
X62841405Y-102883696D01*
X63084359Y-102783061D01*
X63303013Y-102636962D01*
X63488962Y-102451013D01*
X63635061Y-102232359D01*
X63735696Y-101989405D01*
X63738000Y-101977822D01*
X63740304Y-101989405D01*
X63840939Y-102232359D01*
X63987038Y-102451013D01*
X64172987Y-102636962D01*
X64391641Y-102783061D01*
X64634595Y-102883696D01*
X64892514Y-102935000D01*
X65155486Y-102935000D01*
X65413405Y-102883696D01*
X65656359Y-102783061D01*
X65875013Y-102636962D01*
X66024000Y-102487975D01*
X66172987Y-102636962D01*
X66391641Y-102783061D01*
X66634595Y-102883696D01*
X66892514Y-102935000D01*
X67155486Y-102935000D01*
X67413405Y-102883696D01*
X67656359Y-102783061D01*
X67875013Y-102636962D01*
X67990706Y-102521269D01*
X68854336Y-102521269D01*
X68913797Y-102755037D01*
X69152242Y-102865934D01*
X69407740Y-102928183D01*
X69670473Y-102939390D01*
X69930344Y-102899125D01*
X70177366Y-102808935D01*
X70278203Y-102755037D01*
X70337664Y-102521269D01*
X70854336Y-102521269D01*
X70913797Y-102755037D01*
X71152242Y-102865934D01*
X71407740Y-102928183D01*
X71670473Y-102939390D01*
X71930344Y-102899125D01*
X72177366Y-102808935D01*
X72278203Y-102755037D01*
X72337664Y-102521269D01*
X71596000Y-101779605D01*
X70854336Y-102521269D01*
X70337664Y-102521269D01*
X69596000Y-101779605D01*
X68854336Y-102521269D01*
X67990706Y-102521269D01*
X68060962Y-102451013D01*
X68207061Y-102232359D01*
X68307696Y-101989405D01*
X68310970Y-101972948D01*
X68387065Y-102181366D01*
X68440963Y-102282203D01*
X68674731Y-102341664D01*
X69416395Y-101600000D01*
X69775605Y-101600000D01*
X70421621Y-102246016D01*
X70440963Y-102282203D01*
X70463554Y-102287949D01*
X70517269Y-102341664D01*
X70596000Y-102321638D01*
X70674731Y-102341664D01*
X70728446Y-102287949D01*
X70751037Y-102282203D01*
X70765683Y-102250712D01*
X71416395Y-101600000D01*
X71775605Y-101600000D01*
X72517269Y-102341664D01*
X72751037Y-102282203D01*
X72861934Y-102043758D01*
X72924183Y-101788260D01*
X72935390Y-101525527D01*
X72895125Y-101265656D01*
X72804935Y-101018634D01*
X72751037Y-100917797D01*
X72517269Y-100858336D01*
X71775605Y-101600000D01*
X71416395Y-101600000D01*
X70770379Y-100953984D01*
X70751037Y-100917797D01*
X70728446Y-100912051D01*
X70674731Y-100858336D01*
X70596000Y-100878362D01*
X70517269Y-100858336D01*
X70463554Y-100912051D01*
X70440963Y-100917797D01*
X70426317Y-100949288D01*
X69775605Y-101600000D01*
X69416395Y-101600000D01*
X68674731Y-100858336D01*
X68440963Y-100917797D01*
X68330066Y-101156242D01*
X68311799Y-101231220D01*
X68307696Y-101210595D01*
X68207061Y-100967641D01*
X68060962Y-100748987D01*
X67990706Y-100678731D01*
X68854336Y-100678731D01*
X69596000Y-101420395D01*
X70337664Y-100678731D01*
X70854336Y-100678731D01*
X71596000Y-101420395D01*
X72337664Y-100678731D01*
X72278203Y-100444963D01*
X72039758Y-100334066D01*
X71784260Y-100271817D01*
X71521527Y-100260610D01*
X71261656Y-100300875D01*
X71014634Y-100391065D01*
X70913797Y-100444963D01*
X70854336Y-100678731D01*
X70337664Y-100678731D01*
X70278203Y-100444963D01*
X70039758Y-100334066D01*
X69784260Y-100271817D01*
X69521527Y-100260610D01*
X69261656Y-100300875D01*
X69014634Y-100391065D01*
X68913797Y-100444963D01*
X68854336Y-100678731D01*
X67990706Y-100678731D01*
X67875013Y-100563038D01*
X67656359Y-100416939D01*
X67413405Y-100316304D01*
X67155486Y-100265000D01*
X66892514Y-100265000D01*
X66634595Y-100316304D01*
X66391641Y-100416939D01*
X66172987Y-100563038D01*
X66024000Y-100712025D01*
X65875013Y-100563038D01*
X65656359Y-100416939D01*
X65413405Y-100316304D01*
X65155486Y-100265000D01*
X64892514Y-100265000D01*
X64854176Y-100272626D01*
X67338803Y-97788000D01*
X68885957Y-97788000D01*
X68989363Y-97942759D01*
X69189241Y-98142637D01*
X69424273Y-98299680D01*
X69685426Y-98407853D01*
X69962665Y-98463000D01*
X70245335Y-98463000D01*
X70427886Y-98426688D01*
X73096201Y-101095003D01*
X73119999Y-101124001D01*
X73235724Y-101218974D01*
X73367753Y-101289546D01*
X73511014Y-101333003D01*
X73622667Y-101344000D01*
X73622675Y-101344000D01*
X73660000Y-101347676D01*
X73697325Y-101344000D01*
X84290678Y-101344000D01*
X84328000Y-101347676D01*
X84365322Y-101344000D01*
X84365333Y-101344000D01*
X84476986Y-101333003D01*
X84620247Y-101289546D01*
X84752276Y-101218974D01*
X84868001Y-101124001D01*
X84891804Y-101094998D01*
X85855003Y-100131799D01*
X85884001Y-100108001D01*
X85931109Y-100050600D01*
X85978974Y-99992277D01*
X86034732Y-99887962D01*
X86053853Y-99880042D01*
X86299302Y-99716039D01*
X86508039Y-99507302D01*
X86638535Y-99312000D01*
X96990678Y-99312000D01*
X97028000Y-99315676D01*
X97065322Y-99312000D01*
X97065333Y-99312000D01*
X97176986Y-99301003D01*
X97320247Y-99257546D01*
X97452276Y-99186974D01*
X97568001Y-99092001D01*
X97591804Y-99062997D01*
X98300000Y-98354801D01*
X98300000Y-99022677D01*
X98296324Y-99060000D01*
X98300000Y-99097322D01*
X98300000Y-99097332D01*
X98310997Y-99208985D01*
X98337360Y-99295894D01*
X98354454Y-99352246D01*
X98425026Y-99484276D01*
X98445251Y-99508920D01*
X98519999Y-99600001D01*
X98549003Y-99623804D01*
X100528201Y-101603003D01*
X100551999Y-101632001D01*
X100580997Y-101655799D01*
X100667723Y-101726974D01*
X100757573Y-101775000D01*
X100799753Y-101797546D01*
X100943014Y-101841003D01*
X101054667Y-101852000D01*
X101054677Y-101852000D01*
X101092000Y-101855676D01*
X101129323Y-101852000D01*
X131026678Y-101852000D01*
X131064000Y-101855676D01*
X131101322Y-101852000D01*
X131101333Y-101852000D01*
X131212986Y-101841003D01*
X131356247Y-101797546D01*
X131488276Y-101726974D01*
X131604001Y-101632001D01*
X131627804Y-101602997D01*
X131949753Y-101281048D01*
X131970147Y-101383574D01*
X132078320Y-101644727D01*
X132235363Y-101879759D01*
X132435241Y-102079637D01*
X132670273Y-102236680D01*
X132931426Y-102344853D01*
X133208665Y-102400000D01*
X133491335Y-102400000D01*
X133614907Y-102375420D01*
X133924106Y-102684619D01*
X133949473Y-102715529D01*
X133997614Y-102755037D01*
X134072811Y-102816750D01*
X134148025Y-102856952D01*
X134213528Y-102891964D01*
X134366213Y-102938281D01*
X134485210Y-102950001D01*
X134485212Y-102950001D01*
X134525000Y-102953920D01*
X134564788Y-102950001D01*
X143725211Y-102950001D01*
X143764999Y-102953920D01*
X143804787Y-102950001D01*
X143804790Y-102950001D01*
X143923787Y-102938281D01*
X144076472Y-102891964D01*
X144217188Y-102816750D01*
X144340527Y-102715529D01*
X144365898Y-102684614D01*
X145775007Y-101275506D01*
X146048967Y-101330000D01*
X146371033Y-101330000D01*
X146686912Y-101267168D01*
X146984463Y-101143918D01*
X147252252Y-100964987D01*
X147479987Y-100737252D01*
X147658918Y-100469463D01*
X147782168Y-100171912D01*
X147845000Y-99856033D01*
X147845000Y-99533967D01*
X147782168Y-99218088D01*
X147745680Y-99129999D01*
X148279487Y-99129999D01*
X148409494Y-99260006D01*
X148355000Y-99533967D01*
X148355000Y-99856033D01*
X148417832Y-100171912D01*
X148541082Y-100469463D01*
X148720013Y-100737252D01*
X148947748Y-100964987D01*
X149215537Y-101143918D01*
X149513088Y-101267168D01*
X149828967Y-101330000D01*
X150151033Y-101330000D01*
X150466912Y-101267168D01*
X150764463Y-101143918D01*
X151032252Y-100964987D01*
X151259987Y-100737252D01*
X151438918Y-100469463D01*
X151562168Y-100171912D01*
X151625000Y-99856033D01*
X151625000Y-99533967D01*
X151562168Y-99218088D01*
X151438918Y-98920537D01*
X151259987Y-98652748D01*
X151032252Y-98425013D01*
X150764463Y-98246082D01*
X150466912Y-98122832D01*
X150151033Y-98060000D01*
X149828967Y-98060000D01*
X149555006Y-98114494D01*
X149215899Y-97775387D01*
X149190527Y-97744471D01*
X149067188Y-97643250D01*
X148926472Y-97568036D01*
X148773787Y-97521719D01*
X148654790Y-97509999D01*
X148654787Y-97509999D01*
X148614999Y-97506080D01*
X148575211Y-97509999D01*
X144804788Y-97509999D01*
X144765000Y-97506080D01*
X144725212Y-97509999D01*
X144725210Y-97509999D01*
X144606213Y-97521719D01*
X144453528Y-97568036D01*
X144399905Y-97596698D01*
X144312811Y-97643250D01*
X144257211Y-97688880D01*
X144189473Y-97744471D01*
X144164106Y-97775381D01*
X142223208Y-99716280D01*
X142221185Y-99713815D01*
X142124494Y-99634463D01*
X142014180Y-99575498D01*
X141894482Y-99539188D01*
X141770000Y-99526928D01*
X140606729Y-99526928D01*
X140408803Y-99329001D01*
X140385000Y-99299998D01*
X140269275Y-99205025D01*
X140137246Y-99134453D01*
X139993985Y-99090996D01*
X139882332Y-99079999D01*
X139882321Y-99079999D01*
X139844999Y-99076323D01*
X139807677Y-99079999D01*
X132353326Y-99079999D01*
X132316001Y-99076323D01*
X132278676Y-99079999D01*
X132278668Y-99079999D01*
X132167015Y-99090996D01*
X132023754Y-99134453D01*
X131891725Y-99205025D01*
X131776000Y-99299998D01*
X131752202Y-99328996D01*
X130749199Y-100332000D01*
X101406802Y-100332000D01*
X99820000Y-98745199D01*
X99820000Y-97961318D01*
X99946234Y-97893845D01*
X100187963Y-97695463D01*
X100335163Y-97516101D01*
X100490563Y-97701315D01*
X100733077Y-97895969D01*
X101008906Y-98039571D01*
X101227020Y-98110563D01*
X101473000Y-97990594D01*
X101473000Y-96647000D01*
X101453000Y-96647000D01*
X101453000Y-96393000D01*
X101473000Y-96393000D01*
X101473000Y-95049406D01*
X101227020Y-94929437D01*
X101008906Y-95000429D01*
X100733077Y-95144031D01*
X100490563Y-95338685D01*
X100335162Y-95523900D01*
X100187963Y-95344537D01*
X99946235Y-95146155D01*
X99820000Y-95078681D01*
X99820000Y-93674043D01*
X99974759Y-93570637D01*
X100174637Y-93370759D01*
X100331680Y-93135727D01*
X100439853Y-92874574D01*
X100495000Y-92597335D01*
X100495000Y-92534438D01*
X101401505Y-92534438D01*
X101440605Y-92774549D01*
X101525798Y-93002418D01*
X101566652Y-93078852D01*
X101790236Y-93126159D01*
X102460395Y-92456000D01*
X101790236Y-91785841D01*
X101566652Y-91833148D01*
X101465763Y-92054516D01*
X101410000Y-92291313D01*
X101401505Y-92534438D01*
X100495000Y-92534438D01*
X100495000Y-92314665D01*
X100439853Y-92037426D01*
X100331680Y-91776273D01*
X100174637Y-91541241D01*
X99974759Y-91341363D01*
X99774131Y-91207308D01*
X99801514Y-91192671D01*
X99873097Y-90948702D01*
X99060000Y-90135605D01*
X98246903Y-90948702D01*
X98318486Y-91192671D01*
X98347341Y-91206324D01*
X98145241Y-91341363D01*
X97945363Y-91541241D01*
X97788320Y-91776273D01*
X97680147Y-92037426D01*
X97625000Y-92314665D01*
X97625000Y-92597335D01*
X97680147Y-92874574D01*
X97788320Y-93135727D01*
X97945363Y-93370759D01*
X98145241Y-93570637D01*
X98300000Y-93674044D01*
X98300001Y-95078681D01*
X98173766Y-95146155D01*
X97932037Y-95344537D01*
X97733655Y-95586265D01*
X97586245Y-95862051D01*
X97495470Y-96161296D01*
X97472500Y-96394514D01*
X97472500Y-96645485D01*
X97495470Y-96878703D01*
X97525965Y-96979233D01*
X96713199Y-97792000D01*
X86638535Y-97792000D01*
X86508039Y-97596698D01*
X86393977Y-97482636D01*
X86451780Y-97465102D01*
X86562094Y-97406137D01*
X86658785Y-97326785D01*
X86738137Y-97230094D01*
X86797102Y-97119780D01*
X86833412Y-97000082D01*
X86845672Y-96875600D01*
X86845672Y-95148400D01*
X86833412Y-95023918D01*
X86797102Y-94904220D01*
X86738137Y-94793906D01*
X86658785Y-94697215D01*
X86562094Y-94617863D01*
X86451780Y-94558898D01*
X86332082Y-94522588D01*
X86207600Y-94510328D01*
X84480400Y-94510328D01*
X84355918Y-94522588D01*
X84236220Y-94558898D01*
X84125906Y-94617863D01*
X84029215Y-94697215D01*
X83949863Y-94793906D01*
X83890898Y-94904220D01*
X83873364Y-94962023D01*
X83759302Y-94847961D01*
X83513853Y-94683958D01*
X83241125Y-94570990D01*
X82951599Y-94513400D01*
X82837401Y-94513400D01*
X87324289Y-90026512D01*
X97619783Y-90026512D01*
X97661213Y-90306130D01*
X97756397Y-90572292D01*
X97823329Y-90697514D01*
X98067298Y-90769097D01*
X98880395Y-89956000D01*
X99239605Y-89956000D01*
X100052702Y-90769097D01*
X100296671Y-90697514D01*
X100417571Y-90442004D01*
X100486300Y-90167816D01*
X100500217Y-89885488D01*
X100458787Y-89605870D01*
X100363603Y-89339708D01*
X100296671Y-89214486D01*
X100052702Y-89142903D01*
X99239605Y-89956000D01*
X98880395Y-89956000D01*
X98067298Y-89142903D01*
X97823329Y-89214486D01*
X97702429Y-89469996D01*
X97633700Y-89744184D01*
X97619783Y-90026512D01*
X87324289Y-90026512D01*
X87690802Y-89660000D01*
X93942678Y-89660000D01*
X93980000Y-89663676D01*
X94017322Y-89660000D01*
X94017333Y-89660000D01*
X94128986Y-89649003D01*
X94272247Y-89605546D01*
X94404276Y-89534974D01*
X94520001Y-89440001D01*
X94543804Y-89410998D01*
X94991504Y-88963298D01*
X98246903Y-88963298D01*
X99060000Y-89776395D01*
X99873097Y-88963298D01*
X99801514Y-88719329D01*
X99546004Y-88598429D01*
X99271816Y-88529700D01*
X98989488Y-88515783D01*
X98709870Y-88557213D01*
X98443708Y-88652397D01*
X98318486Y-88719329D01*
X98246903Y-88963298D01*
X94991504Y-88963298D01*
X95035802Y-88919000D01*
X95097939Y-88919000D01*
X95297898Y-88879226D01*
X95486256Y-88801205D01*
X95655774Y-88687937D01*
X95799937Y-88543774D01*
X95913205Y-88374256D01*
X95991226Y-88185898D01*
X96031000Y-87985939D01*
X96031000Y-87782061D01*
X96000356Y-87628000D01*
X100269199Y-87628000D01*
X101856000Y-89214802D01*
X101856001Y-90894668D01*
X101852324Y-90932000D01*
X101866998Y-91080985D01*
X101910454Y-91224246D01*
X101981026Y-91356276D01*
X102014181Y-91396675D01*
X101969841Y-91606236D01*
X102640000Y-92276395D01*
X102654143Y-92262253D01*
X102833748Y-92441858D01*
X102819605Y-92456000D01*
X102833748Y-92470143D01*
X102654143Y-92649748D01*
X102640000Y-92635605D01*
X101969841Y-93305764D01*
X102017148Y-93529348D01*
X102238516Y-93630237D01*
X102475313Y-93686000D01*
X102718438Y-93694495D01*
X102958549Y-93655395D01*
X103172117Y-93575549D01*
X103185506Y-93586537D01*
X103295820Y-93645502D01*
X103380000Y-93671038D01*
X103380001Y-94881928D01*
X103187500Y-94881928D01*
X103063018Y-94894188D01*
X102943320Y-94930498D01*
X102833006Y-94989463D01*
X102736315Y-95068815D01*
X102656963Y-95165506D01*
X102607941Y-95257219D01*
X102466923Y-95144031D01*
X102191094Y-95000429D01*
X101972980Y-94929437D01*
X101727000Y-95049406D01*
X101727000Y-96393000D01*
X101747000Y-96393000D01*
X101747000Y-96647000D01*
X101727000Y-96647000D01*
X101727000Y-97990594D01*
X101972980Y-98110563D01*
X102191094Y-98039571D01*
X102466923Y-97895969D01*
X102607941Y-97782781D01*
X102656963Y-97874494D01*
X102736315Y-97971185D01*
X102833006Y-98050537D01*
X102943320Y-98109502D01*
X103063018Y-98145812D01*
X103187500Y-98158072D01*
X105092500Y-98158072D01*
X105216982Y-98145812D01*
X105336680Y-98109502D01*
X105446994Y-98050537D01*
X105543685Y-97971185D01*
X105623037Y-97874494D01*
X105682002Y-97764180D01*
X105718312Y-97644482D01*
X105730572Y-97520000D01*
X105730572Y-95520000D01*
X105718312Y-95395518D01*
X105682002Y-95275820D01*
X105623037Y-95165506D01*
X105543685Y-95068815D01*
X105446994Y-94989463D01*
X105336680Y-94930498D01*
X105216982Y-94894188D01*
X105092500Y-94881928D01*
X104900000Y-94881928D01*
X104900000Y-93671038D01*
X104984180Y-93645502D01*
X105094494Y-93586537D01*
X105191185Y-93507185D01*
X105270537Y-93410494D01*
X105329502Y-93300180D01*
X105355038Y-93216000D01*
X118669957Y-93216000D01*
X118773363Y-93370759D01*
X118973241Y-93570637D01*
X119128000Y-93674044D01*
X119128001Y-95078681D01*
X119001766Y-95146155D01*
X118760037Y-95344537D01*
X118561655Y-95586265D01*
X118414245Y-95862051D01*
X118323470Y-96161296D01*
X118300500Y-96394514D01*
X118300500Y-96645485D01*
X118323470Y-96878703D01*
X118414245Y-97177948D01*
X118561655Y-97453734D01*
X118760037Y-97695463D01*
X119001765Y-97893845D01*
X119277551Y-98041255D01*
X119576796Y-98132030D01*
X119888000Y-98162681D01*
X120199203Y-98132030D01*
X120498448Y-98041255D01*
X120774234Y-97893845D01*
X121015963Y-97695463D01*
X121163163Y-97516101D01*
X121318563Y-97701315D01*
X121561077Y-97895969D01*
X121836906Y-98039571D01*
X122055020Y-98110563D01*
X122301000Y-97990594D01*
X122301000Y-96647000D01*
X122281000Y-96647000D01*
X122281000Y-96393000D01*
X122301000Y-96393000D01*
X122301000Y-95049406D01*
X122055020Y-94929437D01*
X121836906Y-95000429D01*
X121561077Y-95144031D01*
X121318563Y-95338685D01*
X121163162Y-95523900D01*
X121015963Y-95344537D01*
X120774235Y-95146155D01*
X120648000Y-95078681D01*
X120648000Y-93674043D01*
X120802759Y-93570637D01*
X121002637Y-93370759D01*
X121159680Y-93135727D01*
X121267853Y-92874574D01*
X121323000Y-92597335D01*
X121323000Y-92534438D01*
X122229505Y-92534438D01*
X122268605Y-92774549D01*
X122353798Y-93002418D01*
X122394652Y-93078852D01*
X122618236Y-93126159D01*
X123288395Y-92456000D01*
X122618236Y-91785841D01*
X122394652Y-91833148D01*
X122293763Y-92054516D01*
X122238000Y-92291313D01*
X122229505Y-92534438D01*
X121323000Y-92534438D01*
X121323000Y-92314665D01*
X121267853Y-92037426D01*
X121159680Y-91776273D01*
X121002637Y-91541241D01*
X120802759Y-91341363D01*
X120602131Y-91207308D01*
X120629514Y-91192671D01*
X120701097Y-90948702D01*
X119888000Y-90135605D01*
X119074903Y-90948702D01*
X119146486Y-91192671D01*
X119175341Y-91206324D01*
X118973241Y-91341363D01*
X118773363Y-91541241D01*
X118669957Y-91696000D01*
X105355038Y-91696000D01*
X105329502Y-91611820D01*
X105270537Y-91501506D01*
X105191185Y-91404815D01*
X105094494Y-91325463D01*
X104984180Y-91266498D01*
X104864482Y-91230188D01*
X104740000Y-91217928D01*
X103976730Y-91217928D01*
X103376000Y-90617199D01*
X103376000Y-90026512D01*
X118447783Y-90026512D01*
X118489213Y-90306130D01*
X118584397Y-90572292D01*
X118651329Y-90697514D01*
X118895298Y-90769097D01*
X119708395Y-89956000D01*
X120067605Y-89956000D01*
X120880702Y-90769097D01*
X121124671Y-90697514D01*
X121245571Y-90442004D01*
X121314300Y-90167816D01*
X121328217Y-89885488D01*
X121286787Y-89605870D01*
X121191603Y-89339708D01*
X121124671Y-89214486D01*
X120880702Y-89142903D01*
X120067605Y-89956000D01*
X119708395Y-89956000D01*
X118895298Y-89142903D01*
X118651329Y-89214486D01*
X118530429Y-89469996D01*
X118461700Y-89744184D01*
X118447783Y-90026512D01*
X103376000Y-90026512D01*
X103376000Y-88963298D01*
X119074903Y-88963298D01*
X119888000Y-89776395D01*
X120701097Y-88963298D01*
X120629514Y-88719329D01*
X120374004Y-88598429D01*
X120099816Y-88529700D01*
X119817488Y-88515783D01*
X119537870Y-88557213D01*
X119271708Y-88652397D01*
X119146486Y-88719329D01*
X119074903Y-88963298D01*
X103376000Y-88963298D01*
X103376000Y-88937323D01*
X103379676Y-88900000D01*
X103376000Y-88862677D01*
X103376000Y-88862667D01*
X103365003Y-88751014D01*
X103321546Y-88607753D01*
X103294686Y-88557502D01*
X103250974Y-88475723D01*
X103179799Y-88388997D01*
X103156001Y-88359999D01*
X103127003Y-88336201D01*
X101280327Y-86489526D01*
X101458665Y-86525000D01*
X101741335Y-86525000D01*
X102018574Y-86469853D01*
X102279727Y-86361680D01*
X102514759Y-86204637D01*
X102714637Y-86004759D01*
X102871680Y-85769727D01*
X102979853Y-85508574D01*
X103035000Y-85231335D01*
X103035000Y-84948665D01*
X102979853Y-84671426D01*
X102871680Y-84410273D01*
X102714637Y-84175241D01*
X102514759Y-83975363D01*
X102282241Y-83820000D01*
X102514759Y-83664637D01*
X102714637Y-83464759D01*
X102871680Y-83229727D01*
X102979853Y-82968574D01*
X103035000Y-82691335D01*
X103035000Y-82437980D01*
X114217626Y-82437980D01*
X114337514Y-82722836D01*
X114661210Y-82883699D01*
X115010069Y-82978322D01*
X115370684Y-83003067D01*
X115729198Y-82956985D01*
X116071833Y-82841846D01*
X116294486Y-82722836D01*
X116414374Y-82437980D01*
X115316000Y-81339605D01*
X114217626Y-82437980D01*
X103035000Y-82437980D01*
X103035000Y-82408665D01*
X102979853Y-82131426D01*
X102871680Y-81870273D01*
X102714637Y-81635241D01*
X102514759Y-81435363D01*
X102282241Y-81280000D01*
X102379993Y-81214684D01*
X113472933Y-81214684D01*
X113519015Y-81573198D01*
X113634154Y-81915833D01*
X113753164Y-82138486D01*
X114038020Y-82258374D01*
X115136395Y-81160000D01*
X115495605Y-81160000D01*
X116593980Y-82258374D01*
X116878836Y-82138486D01*
X117039699Y-81814790D01*
X117134322Y-81465931D01*
X117159067Y-81105316D01*
X117112985Y-80746802D01*
X116997846Y-80404167D01*
X116878836Y-80181514D01*
X116593980Y-80061626D01*
X115495605Y-81160000D01*
X115136395Y-81160000D01*
X114038020Y-80061626D01*
X113753164Y-80181514D01*
X113592301Y-80505210D01*
X113497678Y-80854069D01*
X113472933Y-81214684D01*
X102379993Y-81214684D01*
X102514759Y-81124637D01*
X102714637Y-80924759D01*
X102871680Y-80689727D01*
X102979853Y-80428574D01*
X103035000Y-80151335D01*
X103035000Y-79882020D01*
X114217626Y-79882020D01*
X115316000Y-80980395D01*
X116414374Y-79882020D01*
X116294486Y-79597164D01*
X115970790Y-79436301D01*
X115621931Y-79341678D01*
X115261316Y-79316933D01*
X114902802Y-79363015D01*
X114560167Y-79478154D01*
X114337514Y-79597164D01*
X114217626Y-79882020D01*
X103035000Y-79882020D01*
X103035000Y-79868665D01*
X102979853Y-79591426D01*
X102871680Y-79330273D01*
X102714637Y-79095241D01*
X102514759Y-78895363D01*
X102282241Y-78740000D01*
X102514759Y-78584637D01*
X102714637Y-78384759D01*
X102871680Y-78149727D01*
X102979853Y-77888574D01*
X103035000Y-77611335D01*
X103035000Y-77328665D01*
X102979853Y-77051426D01*
X102871680Y-76790273D01*
X102714637Y-76555241D01*
X102514759Y-76355363D01*
X102282241Y-76200000D01*
X102514759Y-76044637D01*
X102714637Y-75844759D01*
X102871680Y-75609727D01*
X102979853Y-75348574D01*
X103035000Y-75071335D01*
X103035000Y-74788665D01*
X102979853Y-74511426D01*
X102871680Y-74250273D01*
X102714637Y-74015241D01*
X102514759Y-73815363D01*
X102282241Y-73660000D01*
X102514759Y-73504637D01*
X102714637Y-73304759D01*
X102844771Y-73110000D01*
X103556957Y-73110000D01*
X103660363Y-73264759D01*
X103860241Y-73464637D01*
X104095273Y-73621680D01*
X104356426Y-73729853D01*
X104633665Y-73785000D01*
X104916335Y-73785000D01*
X105193574Y-73729853D01*
X105454727Y-73621680D01*
X105689759Y-73464637D01*
X105889637Y-73264759D01*
X106046680Y-73029727D01*
X106154853Y-72768574D01*
X106210000Y-72491335D01*
X106210000Y-72460000D01*
X113477928Y-72460000D01*
X113477928Y-74860000D01*
X113490188Y-74984482D01*
X113526498Y-75104180D01*
X113585463Y-75214494D01*
X113664815Y-75311185D01*
X113761506Y-75390537D01*
X113871820Y-75449502D01*
X113991518Y-75485812D01*
X114116000Y-75498072D01*
X116079271Y-75498072D01*
X121668000Y-81086802D01*
X121668001Y-89878668D01*
X121664324Y-89916000D01*
X121668001Y-89953333D01*
X121678810Y-90063072D01*
X121678998Y-90064985D01*
X121722454Y-90208246D01*
X121793026Y-90340276D01*
X121864201Y-90427002D01*
X121888000Y-90456001D01*
X121916998Y-90479799D01*
X122840730Y-91403532D01*
X122797841Y-91606236D01*
X123468000Y-92276395D01*
X123482143Y-92262253D01*
X123661748Y-92441858D01*
X123647605Y-92456000D01*
X123661748Y-92470143D01*
X123482143Y-92649748D01*
X123468000Y-92635605D01*
X122797841Y-93305764D01*
X122845148Y-93529348D01*
X123066516Y-93630237D01*
X123303313Y-93686000D01*
X123546438Y-93694495D01*
X123786549Y-93655395D01*
X124000117Y-93575549D01*
X124013506Y-93586537D01*
X124123820Y-93645502D01*
X124208000Y-93671038D01*
X124208001Y-94881928D01*
X124015500Y-94881928D01*
X123891018Y-94894188D01*
X123771320Y-94930498D01*
X123661006Y-94989463D01*
X123564315Y-95068815D01*
X123484963Y-95165506D01*
X123435941Y-95257219D01*
X123294923Y-95144031D01*
X123019094Y-95000429D01*
X122800980Y-94929437D01*
X122555000Y-95049406D01*
X122555000Y-96393000D01*
X122575000Y-96393000D01*
X122575000Y-96647000D01*
X122555000Y-96647000D01*
X122555000Y-97990594D01*
X122800980Y-98110563D01*
X123019094Y-98039571D01*
X123294923Y-97895969D01*
X123435941Y-97782781D01*
X123484963Y-97874494D01*
X123564315Y-97971185D01*
X123661006Y-98050537D01*
X123771320Y-98109502D01*
X123891018Y-98145812D01*
X124015500Y-98158072D01*
X125920500Y-98158072D01*
X126044982Y-98145812D01*
X126164680Y-98109502D01*
X126274994Y-98050537D01*
X126371685Y-97971185D01*
X126451037Y-97874494D01*
X126510002Y-97764180D01*
X126546312Y-97644482D01*
X126558572Y-97520000D01*
X126558572Y-95520000D01*
X126546312Y-95395518D01*
X126510002Y-95275820D01*
X126451037Y-95165506D01*
X126371685Y-95068815D01*
X126274994Y-94989463D01*
X126164680Y-94930498D01*
X126044982Y-94894188D01*
X125920500Y-94881928D01*
X125728000Y-94881928D01*
X125728000Y-93671038D01*
X125812180Y-93645502D01*
X125922494Y-93586537D01*
X126019185Y-93507185D01*
X126098537Y-93410494D01*
X126157502Y-93300180D01*
X126193812Y-93180482D01*
X126206072Y-93056000D01*
X126206072Y-91856000D01*
X126193812Y-91731518D01*
X126157502Y-91611820D01*
X126098537Y-91501506D01*
X126019185Y-91404815D01*
X125922494Y-91325463D01*
X125812180Y-91266498D01*
X125692482Y-91230188D01*
X125568000Y-91217928D01*
X124804730Y-91217928D01*
X123188000Y-89601199D01*
X123188000Y-81059872D01*
X126035000Y-81059872D01*
X126035000Y-81500128D01*
X126120890Y-81931925D01*
X126289369Y-82338669D01*
X126533962Y-82704729D01*
X126845271Y-83016038D01*
X127211331Y-83260631D01*
X127618075Y-83429110D01*
X128049872Y-83515000D01*
X128490128Y-83515000D01*
X128921925Y-83429110D01*
X129328669Y-83260631D01*
X129694729Y-83016038D01*
X130006038Y-82704729D01*
X130125795Y-82525500D01*
X135123261Y-82525500D01*
X135258248Y-82660487D01*
X135526037Y-82839418D01*
X135823588Y-82962668D01*
X136139467Y-83025500D01*
X136461533Y-83025500D01*
X136777412Y-82962668D01*
X137074963Y-82839418D01*
X137342752Y-82660487D01*
X137570487Y-82432752D01*
X137749418Y-82164963D01*
X137872668Y-81867412D01*
X137935500Y-81551533D01*
X137935500Y-81229467D01*
X137872668Y-80913588D01*
X137749418Y-80616037D01*
X137570487Y-80348248D01*
X137342752Y-80120513D01*
X137074963Y-79941582D01*
X136777412Y-79818332D01*
X136461533Y-79755500D01*
X136139467Y-79755500D01*
X135823588Y-79818332D01*
X135526037Y-79941582D01*
X135258248Y-80120513D01*
X135123261Y-80255500D01*
X130264784Y-80255500D01*
X130250631Y-80221331D01*
X130006038Y-79855271D01*
X129694729Y-79543962D01*
X129328669Y-79299369D01*
X128921925Y-79130890D01*
X128490128Y-79045000D01*
X128049872Y-79045000D01*
X127618075Y-79130890D01*
X127211331Y-79299369D01*
X126845271Y-79543962D01*
X126533962Y-79855271D01*
X126289369Y-80221331D01*
X126120890Y-80628075D01*
X126035000Y-81059872D01*
X123188000Y-81059872D01*
X123188000Y-80809323D01*
X123191676Y-80772000D01*
X123188000Y-80734677D01*
X123188000Y-80734667D01*
X123177003Y-80623014D01*
X123133546Y-80479753D01*
X123062974Y-80347724D01*
X122968001Y-80231999D01*
X122939004Y-80208202D01*
X120493647Y-77762845D01*
X126886761Y-77762845D01*
X127054802Y-78088643D01*
X127446607Y-78289426D01*
X127870055Y-78409914D01*
X128308873Y-78445476D01*
X128746197Y-78394746D01*
X129165221Y-78259674D01*
X129485198Y-78088643D01*
X129653239Y-77762845D01*
X128270000Y-76379605D01*
X126886761Y-77762845D01*
X120493647Y-77762845D01*
X118969675Y-76238873D01*
X126024524Y-76238873D01*
X126075254Y-76676197D01*
X126210326Y-77095221D01*
X126381357Y-77415198D01*
X126707155Y-77583239D01*
X128090395Y-76200000D01*
X128449605Y-76200000D01*
X129832845Y-77583239D01*
X130158643Y-77415198D01*
X130359426Y-77023393D01*
X130479914Y-76599945D01*
X130515476Y-76161127D01*
X130464746Y-75723803D01*
X130329674Y-75304779D01*
X130158643Y-74984802D01*
X129832845Y-74816761D01*
X128449605Y-76200000D01*
X128090395Y-76200000D01*
X126707155Y-74816761D01*
X126381357Y-74984802D01*
X126180574Y-75376607D01*
X126060086Y-75800055D01*
X126024524Y-76238873D01*
X118969675Y-76238873D01*
X117367957Y-74637155D01*
X126886761Y-74637155D01*
X128270000Y-76020395D01*
X129653239Y-74637155D01*
X129485198Y-74311357D01*
X129093393Y-74110574D01*
X128669945Y-73990086D01*
X128231127Y-73954524D01*
X127793803Y-74005254D01*
X127374779Y-74140326D01*
X127054802Y-74311357D01*
X126886761Y-74637155D01*
X117367957Y-74637155D01*
X117154072Y-74423271D01*
X117154072Y-74353880D01*
X117264276Y-74294974D01*
X117380001Y-74200001D01*
X117403804Y-74170997D01*
X120674929Y-70899872D01*
X126035000Y-70899872D01*
X126035000Y-71340128D01*
X126120890Y-71771925D01*
X126289369Y-72178669D01*
X126533962Y-72544729D01*
X126845271Y-72856038D01*
X127211331Y-73100631D01*
X127618075Y-73269110D01*
X128049872Y-73355000D01*
X128490128Y-73355000D01*
X128921925Y-73269110D01*
X129328669Y-73100631D01*
X129694729Y-72856038D01*
X130006038Y-72544729D01*
X130018886Y-72525500D01*
X135123261Y-72525500D01*
X135258248Y-72660487D01*
X135526037Y-72839418D01*
X135823588Y-72962668D01*
X136139467Y-73025500D01*
X136461533Y-73025500D01*
X136777412Y-72962668D01*
X137074963Y-72839418D01*
X137342752Y-72660487D01*
X137570487Y-72432752D01*
X137749418Y-72164963D01*
X137872668Y-71867412D01*
X137935500Y-71551533D01*
X137935500Y-71229467D01*
X137872668Y-70913588D01*
X137749418Y-70616037D01*
X137570487Y-70348248D01*
X137342752Y-70120513D01*
X137074963Y-69941582D01*
X136777412Y-69818332D01*
X136461533Y-69755500D01*
X136139467Y-69755500D01*
X135823588Y-69818332D01*
X135526037Y-69941582D01*
X135258248Y-70120513D01*
X135123261Y-70255500D01*
X130331058Y-70255500D01*
X130250631Y-70061331D01*
X130006038Y-69695271D01*
X129694729Y-69383962D01*
X129328669Y-69139369D01*
X128921925Y-68970890D01*
X128490128Y-68885000D01*
X128049872Y-68885000D01*
X127618075Y-68970890D01*
X127211331Y-69139369D01*
X126845271Y-69383962D01*
X126533962Y-69695271D01*
X126289369Y-70061331D01*
X126120890Y-70468075D01*
X126035000Y-70899872D01*
X120674929Y-70899872D01*
X124774802Y-66800000D01*
X126031928Y-66800000D01*
X126031928Y-67640000D01*
X126044188Y-67764482D01*
X126080498Y-67884180D01*
X126139463Y-67994494D01*
X126218815Y-68091185D01*
X126315506Y-68170537D01*
X126425820Y-68229502D01*
X126545518Y-68265812D01*
X126670000Y-68278072D01*
X129870000Y-68278072D01*
X129994482Y-68265812D01*
X130114180Y-68229502D01*
X130224494Y-68170537D01*
X130321185Y-68091185D01*
X130400537Y-67994494D01*
X130459502Y-67884180D01*
X130495812Y-67764482D01*
X130508072Y-67640000D01*
X130508072Y-64440000D01*
X130495812Y-64315518D01*
X130459502Y-64195820D01*
X130400537Y-64085506D01*
X130321185Y-63988815D01*
X130224494Y-63909463D01*
X130114180Y-63850498D01*
X129994482Y-63814188D01*
X129870000Y-63801928D01*
X129030000Y-63801928D01*
X129030000Y-61251333D01*
X129033677Y-61214000D01*
X129019003Y-61065014D01*
X128975546Y-60921753D01*
X128904974Y-60789724D01*
X128833799Y-60702997D01*
X128810001Y-60673999D01*
X128781004Y-60650202D01*
X121975804Y-53845003D01*
X121952001Y-53815999D01*
X121836276Y-53721026D01*
X121704247Y-53650454D01*
X121560986Y-53606997D01*
X121449333Y-53596000D01*
X121449322Y-53596000D01*
X121412000Y-53592324D01*
X121374678Y-53596000D01*
X118678072Y-53596000D01*
X118678072Y-53156000D01*
X118665812Y-53031518D01*
X118629502Y-52911820D01*
X118570537Y-52801506D01*
X118491185Y-52704815D01*
X118394494Y-52625463D01*
X118284180Y-52566498D01*
X118164482Y-52530188D01*
X118040000Y-52517928D01*
X115640000Y-52517928D01*
X115515518Y-52530188D01*
X115395820Y-52566498D01*
X115285506Y-52625463D01*
X115188815Y-52704815D01*
X115109463Y-52801506D01*
X115050498Y-52911820D01*
X115014188Y-53031518D01*
X115001928Y-53156000D01*
X115001928Y-55556000D01*
X115014188Y-55680482D01*
X115050498Y-55800180D01*
X115109463Y-55910494D01*
X115188815Y-56007185D01*
X115285506Y-56086537D01*
X115395820Y-56145502D01*
X115515518Y-56181812D01*
X115640000Y-56194072D01*
X118040000Y-56194072D01*
X118164482Y-56181812D01*
X118284180Y-56145502D01*
X118394494Y-56086537D01*
X118491185Y-56007185D01*
X118570537Y-55910494D01*
X118629502Y-55800180D01*
X118665812Y-55680482D01*
X118678072Y-55556000D01*
X118678072Y-55116000D01*
X121097199Y-55116000D01*
X127510000Y-61528802D01*
X127510001Y-63801928D01*
X126670000Y-63801928D01*
X126545518Y-63814188D01*
X126425820Y-63850498D01*
X126315506Y-63909463D01*
X126218815Y-63988815D01*
X126139463Y-64085506D01*
X126080498Y-64195820D01*
X126044188Y-64315518D01*
X126031928Y-64440000D01*
X126031928Y-65280000D01*
X124497322Y-65280000D01*
X124459999Y-65276324D01*
X124422676Y-65280000D01*
X124422667Y-65280000D01*
X124311014Y-65290997D01*
X124167753Y-65334454D01*
X124035724Y-65405026D01*
X123919999Y-65499999D01*
X123896201Y-65528997D01*
X117129679Y-72295520D01*
X117105502Y-72215820D01*
X117046537Y-72105506D01*
X116967185Y-72008815D01*
X116870494Y-71929463D01*
X116760180Y-71870498D01*
X116640482Y-71834188D01*
X116516000Y-71821928D01*
X114116000Y-71821928D01*
X113991518Y-71834188D01*
X113871820Y-71870498D01*
X113761506Y-71929463D01*
X113664815Y-72008815D01*
X113585463Y-72105506D01*
X113526498Y-72215820D01*
X113490188Y-72335518D01*
X113477928Y-72460000D01*
X106210000Y-72460000D01*
X106210000Y-72208665D01*
X106173688Y-72026113D01*
X106466996Y-71732805D01*
X106496000Y-71709002D01*
X106590973Y-71593277D01*
X106661545Y-71461248D01*
X106705002Y-71317987D01*
X106715999Y-71206334D01*
X106715999Y-71206325D01*
X106719675Y-71169002D01*
X106715999Y-71131679D01*
X106715999Y-63133980D01*
X115741626Y-63133980D01*
X115861514Y-63418836D01*
X116185210Y-63579699D01*
X116534069Y-63674322D01*
X116894684Y-63699067D01*
X117253198Y-63652985D01*
X117595833Y-63537846D01*
X117818486Y-63418836D01*
X117938374Y-63133980D01*
X116840000Y-62035605D01*
X115741626Y-63133980D01*
X106715999Y-63133980D01*
X106715999Y-61910684D01*
X114996933Y-61910684D01*
X115043015Y-62269198D01*
X115158154Y-62611833D01*
X115277164Y-62834486D01*
X115562020Y-62954374D01*
X116660395Y-61856000D01*
X117019605Y-61856000D01*
X118117980Y-62954374D01*
X118402836Y-62834486D01*
X118563699Y-62510790D01*
X118658322Y-62161931D01*
X118683067Y-61801316D01*
X118636985Y-61442802D01*
X118521846Y-61100167D01*
X118402836Y-60877514D01*
X118117980Y-60757626D01*
X117019605Y-61856000D01*
X116660395Y-61856000D01*
X115562020Y-60757626D01*
X115277164Y-60877514D01*
X115116301Y-61201210D01*
X115021678Y-61550069D01*
X114996933Y-61910684D01*
X106715999Y-61910684D01*
X106715999Y-60578020D01*
X115741626Y-60578020D01*
X116840000Y-61676395D01*
X117938374Y-60578020D01*
X117818486Y-60293164D01*
X117494790Y-60132301D01*
X117145931Y-60037678D01*
X116785316Y-60012933D01*
X116426802Y-60059015D01*
X116084167Y-60174154D01*
X115861514Y-60293164D01*
X115741626Y-60578020D01*
X106715999Y-60578020D01*
X106715999Y-59765321D01*
X106719675Y-59727998D01*
X106715999Y-59690675D01*
X106715999Y-59690666D01*
X106705002Y-59579013D01*
X106661545Y-59435752D01*
X106590973Y-59303723D01*
X106564468Y-59271426D01*
X106553467Y-59258022D01*
X106591000Y-59069335D01*
X106591000Y-58786665D01*
X106554688Y-58604113D01*
X114614802Y-50544000D01*
X122113199Y-50544000D01*
X125275202Y-53706004D01*
X125299000Y-53735002D01*
X125327998Y-53758800D01*
X125414724Y-53829975D01*
X125523252Y-53887985D01*
X125546754Y-53900547D01*
X125690015Y-53944004D01*
X125801668Y-53955001D01*
X125801678Y-53955001D01*
X125839001Y-53958677D01*
X125876324Y-53955001D01*
X139807677Y-53955001D01*
X139844999Y-53958677D01*
X139882321Y-53955001D01*
X139882332Y-53955001D01*
X139993985Y-53944004D01*
X140137246Y-53900547D01*
X140269275Y-53829975D01*
X140385000Y-53735002D01*
X140408803Y-53705999D01*
X140606729Y-53508072D01*
X141770000Y-53508072D01*
X141894482Y-53495812D01*
X142014180Y-53459502D01*
X142124494Y-53400537D01*
X142221185Y-53321185D01*
X142300537Y-53224494D01*
X142359502Y-53114180D01*
X142395812Y-52994482D01*
X142408072Y-52870000D01*
X142408072Y-52830000D01*
X148047678Y-52830000D01*
X148085000Y-52833676D01*
X148122322Y-52830000D01*
X148122333Y-52830000D01*
X148233986Y-52819003D01*
X148377247Y-52775546D01*
X148509276Y-52704974D01*
X148625001Y-52610001D01*
X148648804Y-52580997D01*
X149498624Y-51731177D01*
X149513088Y-51737168D01*
X149828967Y-51800000D01*
X150151033Y-51800000D01*
X150466912Y-51737168D01*
X150764463Y-51613918D01*
X151032252Y-51434987D01*
X151259987Y-51207252D01*
X151438918Y-50939463D01*
X151562168Y-50641912D01*
X151625000Y-50326033D01*
X151625000Y-50003967D01*
X151562168Y-49688088D01*
X151438918Y-49390537D01*
X151259987Y-49122748D01*
X151057239Y-48920000D01*
X155448000Y-48920000D01*
X155448000Y-62103000D01*
X149860000Y-62103000D01*
X149835224Y-62105440D01*
X149811399Y-62112667D01*
X149789443Y-62124403D01*
X149770197Y-62140197D01*
X149754403Y-62159443D01*
X149742667Y-62181399D01*
X149735440Y-62205224D01*
X149733000Y-62230000D01*
X149733000Y-90805000D01*
X149735440Y-90829776D01*
X149742667Y-90853601D01*
X149754403Y-90875557D01*
X149770197Y-90894803D01*
X149789443Y-90910597D01*
X149811399Y-90922333D01*
X149835224Y-90929560D01*
X149860000Y-90932000D01*
X155448000Y-90932000D01*
X155448000Y-103480000D01*
X52984000Y-103480000D01*
X52984000Y-100744872D01*
X53137000Y-100744872D01*
X53137000Y-101185128D01*
X53222890Y-101616925D01*
X53391369Y-102023669D01*
X53635962Y-102389729D01*
X53947271Y-102701038D01*
X54313331Y-102945631D01*
X54720075Y-103114110D01*
X55151872Y-103200000D01*
X55592128Y-103200000D01*
X56023925Y-103114110D01*
X56430669Y-102945631D01*
X56796729Y-102701038D01*
X57108038Y-102389729D01*
X57352631Y-102023669D01*
X57521110Y-101616925D01*
X57607000Y-101185128D01*
X57607000Y-100744872D01*
X57521110Y-100313075D01*
X57352631Y-99906331D01*
X57108038Y-99540271D01*
X56796729Y-99228962D01*
X56430669Y-98984369D01*
X56023925Y-98815890D01*
X55592128Y-98730000D01*
X55151872Y-98730000D01*
X54720075Y-98815890D01*
X54313331Y-98984369D01*
X53947271Y-99228962D01*
X53635962Y-99540271D01*
X53391369Y-99906331D01*
X53222890Y-100313075D01*
X53137000Y-100744872D01*
X52984000Y-100744872D01*
X52984000Y-95866000D01*
X55665928Y-95866000D01*
X55678188Y-95990482D01*
X55714498Y-96110180D01*
X55773463Y-96220494D01*
X55852815Y-96317185D01*
X55949506Y-96396537D01*
X56059820Y-96455502D01*
X56179518Y-96491812D01*
X56304000Y-96504072D01*
X57118250Y-96501000D01*
X57277000Y-96342250D01*
X57277000Y-95123000D01*
X57531000Y-95123000D01*
X57531000Y-96342250D01*
X57689750Y-96501000D01*
X58504000Y-96504072D01*
X58628482Y-96491812D01*
X58748180Y-96455502D01*
X58858494Y-96396537D01*
X58955185Y-96317185D01*
X59034537Y-96220494D01*
X59093502Y-96110180D01*
X59129812Y-95990482D01*
X59142072Y-95866000D01*
X59139000Y-95281750D01*
X58980250Y-95123000D01*
X57531000Y-95123000D01*
X57277000Y-95123000D01*
X55827750Y-95123000D01*
X55669000Y-95281750D01*
X55665928Y-95866000D01*
X52984000Y-95866000D01*
X52984000Y-87376000D01*
X55661718Y-87376000D01*
X55690776Y-87671032D01*
X55776834Y-87954725D01*
X55916583Y-88216179D01*
X56104655Y-88445345D01*
X56333821Y-88633417D01*
X56357362Y-88646000D01*
X56333821Y-88658583D01*
X56104655Y-88846655D01*
X55916583Y-89075821D01*
X55776834Y-89337275D01*
X55690776Y-89620968D01*
X55661718Y-89916000D01*
X55690776Y-90211032D01*
X55776834Y-90494725D01*
X55916583Y-90756179D01*
X56104655Y-90985345D01*
X56333821Y-91173417D01*
X56357362Y-91186000D01*
X56333821Y-91198583D01*
X56104655Y-91386655D01*
X55916583Y-91615821D01*
X55776834Y-91877275D01*
X55690776Y-92160968D01*
X55661718Y-92456000D01*
X55690776Y-92751032D01*
X55776834Y-93034725D01*
X55916583Y-93296179D01*
X56103047Y-93523385D01*
X56059820Y-93536498D01*
X55949506Y-93595463D01*
X55852815Y-93674815D01*
X55773463Y-93771506D01*
X55714498Y-93881820D01*
X55678188Y-94001518D01*
X55665928Y-94126000D01*
X55669000Y-94710250D01*
X55827750Y-94869000D01*
X57277000Y-94869000D01*
X57277000Y-94849000D01*
X57531000Y-94849000D01*
X57531000Y-94869000D01*
X58980250Y-94869000D01*
X59139000Y-94710250D01*
X59142072Y-94126000D01*
X59129812Y-94001518D01*
X59093502Y-93881820D01*
X59034537Y-93771506D01*
X58955185Y-93674815D01*
X58858494Y-93595463D01*
X58748180Y-93536498D01*
X58704953Y-93523385D01*
X58891417Y-93296179D01*
X59031166Y-93034725D01*
X59117224Y-92751032D01*
X59146282Y-92456000D01*
X59117224Y-92160968D01*
X59031166Y-91877275D01*
X58891417Y-91615821D01*
X58703345Y-91386655D01*
X58474179Y-91198583D01*
X58450638Y-91186000D01*
X58474179Y-91173417D01*
X58703345Y-90985345D01*
X58891417Y-90756179D01*
X59031166Y-90494725D01*
X59117224Y-90211032D01*
X59146282Y-89916000D01*
X59117224Y-89620968D01*
X59031166Y-89337275D01*
X58891417Y-89075821D01*
X58703345Y-88846655D01*
X58474179Y-88658583D01*
X58450638Y-88646000D01*
X58474179Y-88633417D01*
X58703345Y-88445345D01*
X58891417Y-88216179D01*
X59031166Y-87954725D01*
X59117224Y-87671032D01*
X59146282Y-87376000D01*
X59117224Y-87080968D01*
X59031166Y-86797275D01*
X58891417Y-86535821D01*
X58703345Y-86306655D01*
X58474179Y-86118583D01*
X58212725Y-85978834D01*
X57929032Y-85892776D01*
X57707936Y-85871000D01*
X57100064Y-85871000D01*
X56878968Y-85892776D01*
X56595275Y-85978834D01*
X56333821Y-86118583D01*
X56104655Y-86306655D01*
X55916583Y-86535821D01*
X55776834Y-86797275D01*
X55690776Y-87080968D01*
X55661718Y-87376000D01*
X52984000Y-87376000D01*
X52984000Y-81353680D01*
X65696439Y-81353680D01*
X65736937Y-81617501D01*
X65828125Y-81868353D01*
X65884632Y-81974068D01*
X66120440Y-82035955D01*
X66876395Y-81280000D01*
X66120440Y-80524045D01*
X65884632Y-80585932D01*
X65771734Y-80827790D01*
X65708189Y-81087027D01*
X65696439Y-81353680D01*
X52984000Y-81353680D01*
X52984000Y-54440000D01*
X61991928Y-54440000D01*
X62004188Y-54564482D01*
X62040498Y-54684180D01*
X62099463Y-54794494D01*
X62178815Y-54891185D01*
X62275506Y-54970537D01*
X62385820Y-55029502D01*
X62505518Y-55065812D01*
X62630000Y-55078072D01*
X63214250Y-55075000D01*
X63373000Y-54916250D01*
X63373000Y-53467000D01*
X62153750Y-53467000D01*
X61995000Y-53625750D01*
X61991928Y-54440000D01*
X52984000Y-54440000D01*
X52984000Y-51214872D01*
X53137000Y-51214872D01*
X53137000Y-51655128D01*
X53222890Y-52086925D01*
X53391369Y-52493669D01*
X53635962Y-52859729D01*
X53947271Y-53171038D01*
X54313331Y-53415631D01*
X54720075Y-53584110D01*
X55151872Y-53670000D01*
X55592128Y-53670000D01*
X56023925Y-53584110D01*
X56430669Y-53415631D01*
X56796729Y-53171038D01*
X57108038Y-52859729D01*
X57352631Y-52493669D01*
X57457704Y-52240000D01*
X61991928Y-52240000D01*
X61995000Y-53054250D01*
X62153750Y-53213000D01*
X63373000Y-53213000D01*
X63373000Y-51763750D01*
X63214250Y-51605000D01*
X62630000Y-51601928D01*
X62505518Y-51614188D01*
X62385820Y-51650498D01*
X62275506Y-51709463D01*
X62178815Y-51788815D01*
X62099463Y-51885506D01*
X62040498Y-51995820D01*
X62004188Y-52115518D01*
X61991928Y-52240000D01*
X57457704Y-52240000D01*
X57521110Y-52086925D01*
X57607000Y-51655128D01*
X57607000Y-51214872D01*
X57521110Y-50783075D01*
X57352631Y-50376331D01*
X57108038Y-50010271D01*
X56796729Y-49698962D01*
X56430669Y-49454369D01*
X56023925Y-49285890D01*
X55592128Y-49200000D01*
X55151872Y-49200000D01*
X54720075Y-49285890D01*
X54313331Y-49454369D01*
X53947271Y-49698962D01*
X53635962Y-50010271D01*
X53391369Y-50376331D01*
X53222890Y-50783075D01*
X53137000Y-51214872D01*
X52984000Y-51214872D01*
X52984000Y-48920000D01*
X111041198Y-48920000D01*
X107041001Y-52920198D01*
G04 #@! TA.AperFunction,Conductor*
D45*
G36*
X107041001Y-52920198D02*
G01*
X107041001Y-50805332D01*
X107044678Y-50767999D01*
X107030004Y-50619013D01*
X106986547Y-50475752D01*
X106915975Y-50343723D01*
X106844800Y-50256996D01*
X106821002Y-50227998D01*
X106792005Y-50204201D01*
X106134797Y-49546994D01*
X106110995Y-49517991D01*
X105995270Y-49423018D01*
X105863241Y-49352446D01*
X105719980Y-49308989D01*
X105608327Y-49297992D01*
X105608316Y-49297992D01*
X105570994Y-49294316D01*
X105533672Y-49297992D01*
X73931330Y-49297992D01*
X73894007Y-49294316D01*
X73856684Y-49297992D01*
X73856675Y-49297992D01*
X73745022Y-49308989D01*
X73601761Y-49352446D01*
X73469732Y-49423018D01*
X73354007Y-49517991D01*
X73330209Y-49546989D01*
X72899852Y-49977346D01*
X72777456Y-49953000D01*
X72510544Y-49953000D01*
X72248761Y-50005072D01*
X72002167Y-50107215D01*
X71780238Y-50255503D01*
X71591503Y-50444238D01*
X71443215Y-50666167D01*
X71341072Y-50912761D01*
X71289000Y-51174544D01*
X71289000Y-51441456D01*
X71313346Y-51563852D01*
X70297199Y-52580000D01*
X67451947Y-52580000D01*
X67437166Y-52531275D01*
X67297417Y-52269821D01*
X67109345Y-52040655D01*
X66880178Y-51852583D01*
X66618724Y-51712834D01*
X66335031Y-51626776D01*
X66040000Y-51597718D01*
X65744968Y-51626776D01*
X65461275Y-51712834D01*
X65199821Y-51852583D01*
X64972615Y-52039047D01*
X64959502Y-51995820D01*
X64900537Y-51885506D01*
X64821185Y-51788815D01*
X64724494Y-51709463D01*
X64614180Y-51650498D01*
X64494482Y-51614188D01*
X64370000Y-51601928D01*
X63785750Y-51605000D01*
X63627000Y-51763750D01*
X63627000Y-53213000D01*
X63647000Y-53213000D01*
X63647000Y-53467000D01*
X63627000Y-53467000D01*
X63627000Y-54916250D01*
X63785750Y-55075000D01*
X64370000Y-55078072D01*
X64494482Y-55065812D01*
X64614180Y-55029502D01*
X64724494Y-54970537D01*
X64821185Y-54891185D01*
X64900537Y-54794494D01*
X64959502Y-54684180D01*
X64972615Y-54640953D01*
X65199822Y-54827417D01*
X65461276Y-54967166D01*
X65744969Y-55053224D01*
X66040000Y-55082282D01*
X66335032Y-55053224D01*
X66618725Y-54967166D01*
X66880179Y-54827417D01*
X67109345Y-54639345D01*
X67297417Y-54410179D01*
X67437166Y-54148724D01*
X67451946Y-54100000D01*
X70574678Y-54100000D01*
X70612000Y-54103676D01*
X70649322Y-54100000D01*
X70649333Y-54100000D01*
X70760986Y-54089003D01*
X70904247Y-54045546D01*
X71036276Y-53974974D01*
X71152001Y-53880001D01*
X71175804Y-53850997D01*
X71289000Y-53737801D01*
X71289000Y-53981456D01*
X71341072Y-54243239D01*
X71443215Y-54489833D01*
X71591503Y-54711762D01*
X71780238Y-54900497D01*
X72002167Y-55048785D01*
X72169266Y-55118000D01*
X72002167Y-55187215D01*
X71780238Y-55335503D01*
X71591503Y-55524238D01*
X71443215Y-55746167D01*
X71341072Y-55992761D01*
X71289000Y-56254544D01*
X71289000Y-56521456D01*
X71341072Y-56783239D01*
X71443215Y-57029833D01*
X71591503Y-57251762D01*
X71780238Y-57440497D01*
X72002167Y-57588785D01*
X72248761Y-57690928D01*
X72510544Y-57743000D01*
X72777456Y-57743000D01*
X73039239Y-57690928D01*
X73285833Y-57588785D01*
X73507762Y-57440497D01*
X73696497Y-57251762D01*
X73844785Y-57029833D01*
X73946928Y-56783239D01*
X73999000Y-56521456D01*
X73999000Y-56254544D01*
X73946928Y-55992761D01*
X73844785Y-55746167D01*
X73697013Y-55525010D01*
X87338987Y-55525010D01*
X87191215Y-55746167D01*
X87089072Y-55992761D01*
X87037000Y-56254544D01*
X87037000Y-56521456D01*
X87089072Y-56783239D01*
X87191215Y-57029833D01*
X87339503Y-57251762D01*
X87528238Y-57440497D01*
X87750167Y-57588785D01*
X87996761Y-57690928D01*
X88258544Y-57743000D01*
X88525456Y-57743000D01*
X88787239Y-57690928D01*
X89033833Y-57588785D01*
X89245002Y-57447687D01*
X89245001Y-66472679D01*
X89241325Y-66510001D01*
X89245001Y-66547323D01*
X89245001Y-66547333D01*
X89245264Y-66550000D01*
X88683323Y-66550000D01*
X88646000Y-66546324D01*
X88608677Y-66550000D01*
X88608667Y-66550000D01*
X88497014Y-66560997D01*
X88353753Y-66604454D01*
X88221723Y-66675026D01*
X88138083Y-66743668D01*
X88105999Y-66769999D01*
X88082202Y-66798996D01*
X86299199Y-68582000D01*
X82841322Y-68582000D01*
X82803999Y-68578324D01*
X82766676Y-68582000D01*
X82766667Y-68582000D01*
X82655014Y-68592997D01*
X82511753Y-68636454D01*
X82379724Y-68707026D01*
X82263999Y-68801999D01*
X82240201Y-68830997D01*
X80203199Y-70868000D01*
X79031322Y-70868000D01*
X78994000Y-70864324D01*
X78956678Y-70868000D01*
X68274043Y-70868000D01*
X68170637Y-70713241D01*
X67970759Y-70513363D01*
X67735727Y-70356320D01*
X67474574Y-70248147D01*
X67197335Y-70193000D01*
X66914665Y-70193000D01*
X66732114Y-70229312D01*
X65587804Y-69085003D01*
X65564001Y-69055999D01*
X65448276Y-68961026D01*
X65316247Y-68890454D01*
X65172986Y-68846997D01*
X65061333Y-68836000D01*
X65061322Y-68836000D01*
X65024000Y-68832324D01*
X64986678Y-68836000D01*
X61734133Y-68836000D01*
X61734222Y-68835814D01*
X61779958Y-68685026D01*
X61658817Y-68453000D01*
X60452000Y-68453000D01*
X60452000Y-68473000D01*
X60198000Y-68473000D01*
X60198000Y-68453000D01*
X60178000Y-68453000D01*
X60178000Y-68199000D01*
X60198000Y-68199000D01*
X60198000Y-66991536D01*
X60452000Y-66991536D01*
X60452000Y-68199000D01*
X61658817Y-68199000D01*
X61779958Y-67966974D01*
X61734222Y-67816186D01*
X61607684Y-67551056D01*
X61431854Y-67315707D01*
X61213488Y-67119183D01*
X60960978Y-66969036D01*
X60684027Y-66871037D01*
X60452000Y-66991536D01*
X60198000Y-66991536D01*
X59965973Y-66871037D01*
X59689022Y-66969036D01*
X59436512Y-67119183D01*
X59257053Y-67280692D01*
X59238102Y-67218220D01*
X59179137Y-67107906D01*
X59099785Y-67011215D01*
X59003094Y-66931863D01*
X58892780Y-66872898D01*
X58773082Y-66836588D01*
X58648600Y-66824328D01*
X58049271Y-66824328D01*
X58309599Y-66564000D01*
X74053928Y-66564000D01*
X74053928Y-68564000D01*
X74066188Y-68688482D01*
X74102498Y-68808180D01*
X74161463Y-68918494D01*
X74240815Y-69015185D01*
X74337506Y-69094537D01*
X74447820Y-69153502D01*
X74567518Y-69189812D01*
X74692000Y-69202072D01*
X76692000Y-69202072D01*
X76816482Y-69189812D01*
X76936180Y-69153502D01*
X77046494Y-69094537D01*
X77143185Y-69015185D01*
X77222537Y-68918494D01*
X77281502Y-68808180D01*
X77317812Y-68688482D01*
X77330072Y-68564000D01*
X77330072Y-67402967D01*
X79057000Y-67402967D01*
X79057000Y-67725033D01*
X79119832Y-68040912D01*
X79243082Y-68338463D01*
X79422013Y-68606252D01*
X79649748Y-68833987D01*
X79917537Y-69012918D01*
X80215088Y-69136168D01*
X80530967Y-69199000D01*
X80853033Y-69199000D01*
X81168912Y-69136168D01*
X81466463Y-69012918D01*
X81734252Y-68833987D01*
X81961987Y-68606252D01*
X82140918Y-68338463D01*
X82264168Y-68040912D01*
X82327000Y-67725033D01*
X82327000Y-67402967D01*
X82264168Y-67087088D01*
X82140918Y-66789537D01*
X81961987Y-66521748D01*
X81734252Y-66294013D01*
X81466463Y-66115082D01*
X81168912Y-65991832D01*
X80853033Y-65929000D01*
X80530967Y-65929000D01*
X80215088Y-65991832D01*
X79917537Y-66115082D01*
X79649748Y-66294013D01*
X79422013Y-66521748D01*
X79243082Y-66789537D01*
X79119832Y-67087088D01*
X79057000Y-67402967D01*
X77330072Y-67402967D01*
X77330072Y-66564000D01*
X77317812Y-66439518D01*
X77281502Y-66319820D01*
X77222537Y-66209506D01*
X77143185Y-66112815D01*
X77046494Y-66033463D01*
X76936180Y-65974498D01*
X76816482Y-65938188D01*
X76692000Y-65925928D01*
X74692000Y-65925928D01*
X74567518Y-65938188D01*
X74447820Y-65974498D01*
X74337506Y-66033463D01*
X74240815Y-66112815D01*
X74161463Y-66209506D01*
X74102498Y-66319820D01*
X74066188Y-66439518D01*
X74053928Y-66564000D01*
X58309599Y-66564000D01*
X62021479Y-62852121D01*
X62070142Y-62969603D01*
X62183410Y-63139121D01*
X62327573Y-63283284D01*
X62497091Y-63396552D01*
X62685449Y-63474573D01*
X62885408Y-63514347D01*
X63089286Y-63514347D01*
X63289245Y-63474573D01*
X63477603Y-63396552D01*
X63647121Y-63283284D01*
X63691058Y-63239347D01*
X65843738Y-63239347D01*
X65784320Y-63328273D01*
X65676147Y-63589426D01*
X65621000Y-63866665D01*
X65621000Y-64149335D01*
X65676147Y-64426574D01*
X65784320Y-64687727D01*
X65941363Y-64922759D01*
X66141241Y-65122637D01*
X66376273Y-65279680D01*
X66637426Y-65387853D01*
X66914665Y-65443000D01*
X67197335Y-65443000D01*
X67474574Y-65387853D01*
X67735727Y-65279680D01*
X67970759Y-65122637D01*
X68170637Y-64922759D01*
X68327680Y-64687727D01*
X68435853Y-64426574D01*
X68491000Y-64149335D01*
X68491000Y-63866665D01*
X68435853Y-63589426D01*
X68327680Y-63328273D01*
X68268262Y-63239347D01*
X68768546Y-63239347D01*
X69032200Y-63503002D01*
X69055999Y-63532001D01*
X69171724Y-63626974D01*
X69303753Y-63697546D01*
X69447014Y-63741003D01*
X69558667Y-63752000D01*
X69558677Y-63752000D01*
X69596000Y-63755676D01*
X69633323Y-63752000D01*
X69908289Y-63752000D01*
X69952226Y-63795937D01*
X70121744Y-63909205D01*
X70310102Y-63987226D01*
X70510061Y-64027000D01*
X70713939Y-64027000D01*
X70913898Y-63987226D01*
X71102256Y-63909205D01*
X71271774Y-63795937D01*
X71415937Y-63651774D01*
X71529205Y-63482256D01*
X71607226Y-63293898D01*
X71647000Y-63093939D01*
X71647000Y-62890061D01*
X71607226Y-62690102D01*
X71529205Y-62501744D01*
X71415937Y-62332226D01*
X71271774Y-62188063D01*
X71102256Y-62074795D01*
X70913898Y-61996774D01*
X70713939Y-61957000D01*
X70510061Y-61957000D01*
X70310102Y-61996774D01*
X70121744Y-62074795D01*
X69952226Y-62188063D01*
X69909545Y-62230744D01*
X69647150Y-61968349D01*
X69623348Y-61939346D01*
X69507623Y-61844373D01*
X69375594Y-61773801D01*
X69232333Y-61730344D01*
X69120680Y-61719347D01*
X69120669Y-61719347D01*
X69083347Y-61715671D01*
X69046025Y-61719347D01*
X63691058Y-61719347D01*
X63647121Y-61675410D01*
X63477603Y-61562142D01*
X63360121Y-61513479D01*
X65185600Y-59688000D01*
X85656289Y-59688000D01*
X85700226Y-59731937D01*
X85869744Y-59845205D01*
X86058102Y-59923226D01*
X86258061Y-59963000D01*
X86461939Y-59963000D01*
X86661898Y-59923226D01*
X86850256Y-59845205D01*
X87019774Y-59731937D01*
X87163937Y-59587774D01*
X87277205Y-59418256D01*
X87355226Y-59229898D01*
X87395000Y-59029939D01*
X87395000Y-58826061D01*
X87355226Y-58626102D01*
X87277205Y-58437744D01*
X87163937Y-58268226D01*
X87019774Y-58124063D01*
X86850256Y-58010795D01*
X86661898Y-57932774D01*
X86461939Y-57893000D01*
X86258061Y-57893000D01*
X86058102Y-57932774D01*
X85869744Y-58010795D01*
X85700226Y-58124063D01*
X85656289Y-58168000D01*
X64908120Y-58168000D01*
X64870797Y-58164324D01*
X64833474Y-58168000D01*
X64833465Y-58168000D01*
X64721812Y-58178997D01*
X64578551Y-58222454D01*
X64446522Y-58293026D01*
X64330797Y-58387999D01*
X64306999Y-58416997D01*
X56085402Y-66638595D01*
X56056398Y-66662398D01*
X56001270Y-66729573D01*
X55961425Y-66778123D01*
X55903911Y-66885723D01*
X55890853Y-66910153D01*
X55847396Y-67053414D01*
X55836399Y-67165067D01*
X55836399Y-67165077D01*
X55832723Y-67202399D01*
X55836399Y-67239722D01*
X55836400Y-69640067D01*
X55832723Y-69677399D01*
X55836400Y-69714732D01*
X55847397Y-69826385D01*
X55855471Y-69853003D01*
X55890853Y-69969645D01*
X55961425Y-70101675D01*
X56018908Y-70171717D01*
X56056399Y-70217400D01*
X56085397Y-70241198D01*
X56332224Y-70488025D01*
X56286400Y-70718401D01*
X56286400Y-71013599D01*
X56343990Y-71303125D01*
X56456958Y-71575853D01*
X56620961Y-71821302D01*
X56829698Y-72030039D01*
X56988281Y-72136000D01*
X56829698Y-72241961D01*
X56620961Y-72450698D01*
X56456958Y-72696147D01*
X56343990Y-72968875D01*
X56286400Y-73258401D01*
X56286400Y-73553599D01*
X56343990Y-73843125D01*
X56456958Y-74115853D01*
X56620961Y-74361302D01*
X56829698Y-74570039D01*
X56988281Y-74676000D01*
X56829698Y-74781961D01*
X56620961Y-74990698D01*
X56456958Y-75236147D01*
X56343990Y-75508875D01*
X56286400Y-75798401D01*
X56286400Y-76093599D01*
X56343990Y-76383125D01*
X56456958Y-76655853D01*
X56620961Y-76901302D01*
X56829698Y-77110039D01*
X56988281Y-77216000D01*
X56829698Y-77321961D01*
X56620961Y-77530698D01*
X56456958Y-77776147D01*
X56343990Y-78048875D01*
X56286400Y-78338401D01*
X56286400Y-78633599D01*
X56343990Y-78923125D01*
X56456958Y-79195853D01*
X56620961Y-79441302D01*
X56829698Y-79650039D01*
X57075147Y-79814042D01*
X57347875Y-79927010D01*
X57637401Y-79984600D01*
X57932599Y-79984600D01*
X58222125Y-79927010D01*
X58494853Y-79814042D01*
X58740302Y-79650039D01*
X58949039Y-79441302D01*
X59055000Y-79282719D01*
X59160961Y-79441302D01*
X59369698Y-79650039D01*
X59615147Y-79814042D01*
X59887875Y-79927010D01*
X60177401Y-79984600D01*
X60472599Y-79984600D01*
X60762125Y-79927010D01*
X61034853Y-79814042D01*
X61280302Y-79650039D01*
X61489039Y-79441302D01*
X61619535Y-79246000D01*
X65798951Y-79246000D01*
X65855215Y-79381833D01*
X66003503Y-79603762D01*
X66192238Y-79792497D01*
X66414167Y-79940785D01*
X66582324Y-80010438D01*
X66467647Y-80052125D01*
X66361932Y-80108632D01*
X66300045Y-80344440D01*
X67056000Y-81100395D01*
X67070143Y-81086253D01*
X67249748Y-81265858D01*
X67235605Y-81280000D01*
X67249748Y-81294143D01*
X67070143Y-81473748D01*
X67056000Y-81459605D01*
X66300045Y-82215560D01*
X66361932Y-82451368D01*
X66603790Y-82564266D01*
X66863027Y-82627811D01*
X67129680Y-82639561D01*
X67167431Y-82633766D01*
X61465003Y-88336196D01*
X61435999Y-88359999D01*
X61394144Y-88411000D01*
X61341026Y-88475724D01*
X61277906Y-88593812D01*
X61270454Y-88607754D01*
X61226997Y-88751015D01*
X61216000Y-88862668D01*
X61216000Y-88862678D01*
X61212324Y-88900000D01*
X61216000Y-88937322D01*
X61216001Y-100504899D01*
X61084359Y-100416939D01*
X60841405Y-100316304D01*
X60583486Y-100265000D01*
X60320514Y-100265000D01*
X60062595Y-100316304D01*
X59819641Y-100416939D01*
X59600987Y-100563038D01*
X59415038Y-100748987D01*
X59268939Y-100967641D01*
X59168304Y-101210595D01*
X59117000Y-101468514D01*
X59117000Y-101731486D01*
X59168304Y-101989405D01*
X59268939Y-102232359D01*
X59415038Y-102451013D01*
X59600987Y-102636962D01*
X59819641Y-102783061D01*
X60062595Y-102883696D01*
X60320514Y-102935000D01*
X60583486Y-102935000D01*
X60841405Y-102883696D01*
X61084359Y-102783061D01*
X61303013Y-102636962D01*
X61452000Y-102487975D01*
X61600987Y-102636962D01*
X61819641Y-102783061D01*
X62062595Y-102883696D01*
X62320514Y-102935000D01*
X62583486Y-102935000D01*
X62841405Y-102883696D01*
X63084359Y-102783061D01*
X63303013Y-102636962D01*
X63488962Y-102451013D01*
X63635061Y-102232359D01*
X63735696Y-101989405D01*
X63738000Y-101977822D01*
X63740304Y-101989405D01*
X63840939Y-102232359D01*
X63987038Y-102451013D01*
X64172987Y-102636962D01*
X64391641Y-102783061D01*
X64634595Y-102883696D01*
X64892514Y-102935000D01*
X65155486Y-102935000D01*
X65413405Y-102883696D01*
X65656359Y-102783061D01*
X65875013Y-102636962D01*
X66024000Y-102487975D01*
X66172987Y-102636962D01*
X66391641Y-102783061D01*
X66634595Y-102883696D01*
X66892514Y-102935000D01*
X67155486Y-102935000D01*
X67413405Y-102883696D01*
X67656359Y-102783061D01*
X67875013Y-102636962D01*
X67990706Y-102521269D01*
X68854336Y-102521269D01*
X68913797Y-102755037D01*
X69152242Y-102865934D01*
X69407740Y-102928183D01*
X69670473Y-102939390D01*
X69930344Y-102899125D01*
X70177366Y-102808935D01*
X70278203Y-102755037D01*
X70337664Y-102521269D01*
X70854336Y-102521269D01*
X70913797Y-102755037D01*
X71152242Y-102865934D01*
X71407740Y-102928183D01*
X71670473Y-102939390D01*
X71930344Y-102899125D01*
X72177366Y-102808935D01*
X72278203Y-102755037D01*
X72337664Y-102521269D01*
X71596000Y-101779605D01*
X70854336Y-102521269D01*
X70337664Y-102521269D01*
X69596000Y-101779605D01*
X68854336Y-102521269D01*
X67990706Y-102521269D01*
X68060962Y-102451013D01*
X68207061Y-102232359D01*
X68307696Y-101989405D01*
X68310970Y-101972948D01*
X68387065Y-102181366D01*
X68440963Y-102282203D01*
X68674731Y-102341664D01*
X69416395Y-101600000D01*
X69775605Y-101600000D01*
X70421621Y-102246016D01*
X70440963Y-102282203D01*
X70463554Y-102287949D01*
X70517269Y-102341664D01*
X70596000Y-102321638D01*
X70674731Y-102341664D01*
X70728446Y-102287949D01*
X70751037Y-102282203D01*
X70765683Y-102250712D01*
X71416395Y-101600000D01*
X71775605Y-101600000D01*
X72517269Y-102341664D01*
X72751037Y-102282203D01*
X72861934Y-102043758D01*
X72924183Y-101788260D01*
X72935390Y-101525527D01*
X72895125Y-101265656D01*
X72804935Y-101018634D01*
X72751037Y-100917797D01*
X72517269Y-100858336D01*
X71775605Y-101600000D01*
X71416395Y-101600000D01*
X70770379Y-100953984D01*
X70751037Y-100917797D01*
X70728446Y-100912051D01*
X70674731Y-100858336D01*
X70596000Y-100878362D01*
X70517269Y-100858336D01*
X70463554Y-100912051D01*
X70440963Y-100917797D01*
X70426317Y-100949288D01*
X69775605Y-101600000D01*
X69416395Y-101600000D01*
X68674731Y-100858336D01*
X68440963Y-100917797D01*
X68330066Y-101156242D01*
X68311799Y-101231220D01*
X68307696Y-101210595D01*
X68207061Y-100967641D01*
X68060962Y-100748987D01*
X67990706Y-100678731D01*
X68854336Y-100678731D01*
X69596000Y-101420395D01*
X70337664Y-100678731D01*
X70854336Y-100678731D01*
X71596000Y-101420395D01*
X72337664Y-100678731D01*
X72278203Y-100444963D01*
X72039758Y-100334066D01*
X71784260Y-100271817D01*
X71521527Y-100260610D01*
X71261656Y-100300875D01*
X71014634Y-100391065D01*
X70913797Y-100444963D01*
X70854336Y-100678731D01*
X70337664Y-100678731D01*
X70278203Y-100444963D01*
X70039758Y-100334066D01*
X69784260Y-100271817D01*
X69521527Y-100260610D01*
X69261656Y-100300875D01*
X69014634Y-100391065D01*
X68913797Y-100444963D01*
X68854336Y-100678731D01*
X67990706Y-100678731D01*
X67875013Y-100563038D01*
X67656359Y-100416939D01*
X67413405Y-100316304D01*
X67155486Y-100265000D01*
X66892514Y-100265000D01*
X66634595Y-100316304D01*
X66391641Y-100416939D01*
X66172987Y-100563038D01*
X66024000Y-100712025D01*
X65875013Y-100563038D01*
X65656359Y-100416939D01*
X65413405Y-100316304D01*
X65155486Y-100265000D01*
X64892514Y-100265000D01*
X64854176Y-100272626D01*
X67338803Y-97788000D01*
X68885957Y-97788000D01*
X68989363Y-97942759D01*
X69189241Y-98142637D01*
X69424273Y-98299680D01*
X69685426Y-98407853D01*
X69962665Y-98463000D01*
X70245335Y-98463000D01*
X70427886Y-98426688D01*
X73096201Y-101095003D01*
X73119999Y-101124001D01*
X73235724Y-101218974D01*
X73367753Y-101289546D01*
X73511014Y-101333003D01*
X73622667Y-101344000D01*
X73622675Y-101344000D01*
X73660000Y-101347676D01*
X73697325Y-101344000D01*
X84290678Y-101344000D01*
X84328000Y-101347676D01*
X84365322Y-101344000D01*
X84365333Y-101344000D01*
X84476986Y-101333003D01*
X84620247Y-101289546D01*
X84752276Y-101218974D01*
X84868001Y-101124001D01*
X84891804Y-101094998D01*
X85855003Y-100131799D01*
X85884001Y-100108001D01*
X85931109Y-100050600D01*
X85978974Y-99992277D01*
X86034732Y-99887962D01*
X86053853Y-99880042D01*
X86299302Y-99716039D01*
X86508039Y-99507302D01*
X86638535Y-99312000D01*
X96990678Y-99312000D01*
X97028000Y-99315676D01*
X97065322Y-99312000D01*
X97065333Y-99312000D01*
X97176986Y-99301003D01*
X97320247Y-99257546D01*
X97452276Y-99186974D01*
X97568001Y-99092001D01*
X97591804Y-99062997D01*
X98300000Y-98354801D01*
X98300000Y-99022677D01*
X98296324Y-99060000D01*
X98300000Y-99097322D01*
X98300000Y-99097332D01*
X98310997Y-99208985D01*
X98337360Y-99295894D01*
X98354454Y-99352246D01*
X98425026Y-99484276D01*
X98445251Y-99508920D01*
X98519999Y-99600001D01*
X98549003Y-99623804D01*
X100528201Y-101603003D01*
X100551999Y-101632001D01*
X100580997Y-101655799D01*
X100667723Y-101726974D01*
X100757573Y-101775000D01*
X100799753Y-101797546D01*
X100943014Y-101841003D01*
X101054667Y-101852000D01*
X101054677Y-101852000D01*
X101092000Y-101855676D01*
X101129323Y-101852000D01*
X131026678Y-101852000D01*
X131064000Y-101855676D01*
X131101322Y-101852000D01*
X131101333Y-101852000D01*
X131212986Y-101841003D01*
X131356247Y-101797546D01*
X131488276Y-101726974D01*
X131604001Y-101632001D01*
X131627804Y-101602997D01*
X131949753Y-101281048D01*
X131970147Y-101383574D01*
X132078320Y-101644727D01*
X132235363Y-101879759D01*
X132435241Y-102079637D01*
X132670273Y-102236680D01*
X132931426Y-102344853D01*
X133208665Y-102400000D01*
X133491335Y-102400000D01*
X133614907Y-102375420D01*
X133924106Y-102684619D01*
X133949473Y-102715529D01*
X133997614Y-102755037D01*
X134072811Y-102816750D01*
X134148025Y-102856952D01*
X134213528Y-102891964D01*
X134366213Y-102938281D01*
X134485210Y-102950001D01*
X134485212Y-102950001D01*
X134525000Y-102953920D01*
X134564788Y-102950001D01*
X143725211Y-102950001D01*
X143764999Y-102953920D01*
X143804787Y-102950001D01*
X143804790Y-102950001D01*
X143923787Y-102938281D01*
X144076472Y-102891964D01*
X144217188Y-102816750D01*
X144340527Y-102715529D01*
X144365898Y-102684614D01*
X145775007Y-101275506D01*
X146048967Y-101330000D01*
X146371033Y-101330000D01*
X146686912Y-101267168D01*
X146984463Y-101143918D01*
X147252252Y-100964987D01*
X147479987Y-100737252D01*
X147658918Y-100469463D01*
X147782168Y-100171912D01*
X147845000Y-99856033D01*
X147845000Y-99533967D01*
X147782168Y-99218088D01*
X147745680Y-99129999D01*
X148279487Y-99129999D01*
X148409494Y-99260006D01*
X148355000Y-99533967D01*
X148355000Y-99856033D01*
X148417832Y-100171912D01*
X148541082Y-100469463D01*
X148720013Y-100737252D01*
X148947748Y-100964987D01*
X149215537Y-101143918D01*
X149513088Y-101267168D01*
X149828967Y-101330000D01*
X150151033Y-101330000D01*
X150466912Y-101267168D01*
X150764463Y-101143918D01*
X151032252Y-100964987D01*
X151259987Y-100737252D01*
X151438918Y-100469463D01*
X151562168Y-100171912D01*
X151625000Y-99856033D01*
X151625000Y-99533967D01*
X151562168Y-99218088D01*
X151438918Y-98920537D01*
X151259987Y-98652748D01*
X151032252Y-98425013D01*
X150764463Y-98246082D01*
X150466912Y-98122832D01*
X150151033Y-98060000D01*
X149828967Y-98060000D01*
X149555006Y-98114494D01*
X149215899Y-97775387D01*
X149190527Y-97744471D01*
X149067188Y-97643250D01*
X148926472Y-97568036D01*
X148773787Y-97521719D01*
X148654790Y-97509999D01*
X148654787Y-97509999D01*
X148614999Y-97506080D01*
X148575211Y-97509999D01*
X144804788Y-97509999D01*
X144765000Y-97506080D01*
X144725212Y-97509999D01*
X144725210Y-97509999D01*
X144606213Y-97521719D01*
X144453528Y-97568036D01*
X144399905Y-97596698D01*
X144312811Y-97643250D01*
X144257211Y-97688880D01*
X144189473Y-97744471D01*
X144164106Y-97775381D01*
X142223208Y-99716280D01*
X142221185Y-99713815D01*
X142124494Y-99634463D01*
X142014180Y-99575498D01*
X141894482Y-99539188D01*
X141770000Y-99526928D01*
X140606729Y-99526928D01*
X140408803Y-99329001D01*
X140385000Y-99299998D01*
X140269275Y-99205025D01*
X140137246Y-99134453D01*
X139993985Y-99090996D01*
X139882332Y-99079999D01*
X139882321Y-99079999D01*
X139844999Y-99076323D01*
X139807677Y-99079999D01*
X132353326Y-99079999D01*
X132316001Y-99076323D01*
X132278676Y-99079999D01*
X132278668Y-99079999D01*
X132167015Y-99090996D01*
X132023754Y-99134453D01*
X131891725Y-99205025D01*
X131776000Y-99299998D01*
X131752202Y-99328996D01*
X130749199Y-100332000D01*
X101406802Y-100332000D01*
X99820000Y-98745199D01*
X99820000Y-97961318D01*
X99946234Y-97893845D01*
X100187963Y-97695463D01*
X100335163Y-97516101D01*
X100490563Y-97701315D01*
X100733077Y-97895969D01*
X101008906Y-98039571D01*
X101227020Y-98110563D01*
X101473000Y-97990594D01*
X101473000Y-96647000D01*
X101453000Y-96647000D01*
X101453000Y-96393000D01*
X101473000Y-96393000D01*
X101473000Y-95049406D01*
X101227020Y-94929437D01*
X101008906Y-95000429D01*
X100733077Y-95144031D01*
X100490563Y-95338685D01*
X100335162Y-95523900D01*
X100187963Y-95344537D01*
X99946235Y-95146155D01*
X99820000Y-95078681D01*
X99820000Y-93674043D01*
X99974759Y-93570637D01*
X100174637Y-93370759D01*
X100331680Y-93135727D01*
X100439853Y-92874574D01*
X100495000Y-92597335D01*
X100495000Y-92534438D01*
X101401505Y-92534438D01*
X101440605Y-92774549D01*
X101525798Y-93002418D01*
X101566652Y-93078852D01*
X101790236Y-93126159D01*
X102460395Y-92456000D01*
X101790236Y-91785841D01*
X101566652Y-91833148D01*
X101465763Y-92054516D01*
X101410000Y-92291313D01*
X101401505Y-92534438D01*
X100495000Y-92534438D01*
X100495000Y-92314665D01*
X100439853Y-92037426D01*
X100331680Y-91776273D01*
X100174637Y-91541241D01*
X99974759Y-91341363D01*
X99774131Y-91207308D01*
X99801514Y-91192671D01*
X99873097Y-90948702D01*
X99060000Y-90135605D01*
X98246903Y-90948702D01*
X98318486Y-91192671D01*
X98347341Y-91206324D01*
X98145241Y-91341363D01*
X97945363Y-91541241D01*
X97788320Y-91776273D01*
X97680147Y-92037426D01*
X97625000Y-92314665D01*
X97625000Y-92597335D01*
X97680147Y-92874574D01*
X97788320Y-93135727D01*
X97945363Y-93370759D01*
X98145241Y-93570637D01*
X98300000Y-93674044D01*
X98300001Y-95078681D01*
X98173766Y-95146155D01*
X97932037Y-95344537D01*
X97733655Y-95586265D01*
X97586245Y-95862051D01*
X97495470Y-96161296D01*
X97472500Y-96394514D01*
X97472500Y-96645485D01*
X97495470Y-96878703D01*
X97525965Y-96979233D01*
X96713199Y-97792000D01*
X86638535Y-97792000D01*
X86508039Y-97596698D01*
X86393977Y-97482636D01*
X86451780Y-97465102D01*
X86562094Y-97406137D01*
X86658785Y-97326785D01*
X86738137Y-97230094D01*
X86797102Y-97119780D01*
X86833412Y-97000082D01*
X86845672Y-96875600D01*
X86845672Y-95148400D01*
X86833412Y-95023918D01*
X86797102Y-94904220D01*
X86738137Y-94793906D01*
X86658785Y-94697215D01*
X86562094Y-94617863D01*
X86451780Y-94558898D01*
X86332082Y-94522588D01*
X86207600Y-94510328D01*
X84480400Y-94510328D01*
X84355918Y-94522588D01*
X84236220Y-94558898D01*
X84125906Y-94617863D01*
X84029215Y-94697215D01*
X83949863Y-94793906D01*
X83890898Y-94904220D01*
X83873364Y-94962023D01*
X83759302Y-94847961D01*
X83513853Y-94683958D01*
X83241125Y-94570990D01*
X82951599Y-94513400D01*
X82837401Y-94513400D01*
X87324289Y-90026512D01*
X97619783Y-90026512D01*
X97661213Y-90306130D01*
X97756397Y-90572292D01*
X97823329Y-90697514D01*
X98067298Y-90769097D01*
X98880395Y-89956000D01*
X99239605Y-89956000D01*
X100052702Y-90769097D01*
X100296671Y-90697514D01*
X100417571Y-90442004D01*
X100486300Y-90167816D01*
X100500217Y-89885488D01*
X100458787Y-89605870D01*
X100363603Y-89339708D01*
X100296671Y-89214486D01*
X100052702Y-89142903D01*
X99239605Y-89956000D01*
X98880395Y-89956000D01*
X98067298Y-89142903D01*
X97823329Y-89214486D01*
X97702429Y-89469996D01*
X97633700Y-89744184D01*
X97619783Y-90026512D01*
X87324289Y-90026512D01*
X87690802Y-89660000D01*
X93942678Y-89660000D01*
X93980000Y-89663676D01*
X94017322Y-89660000D01*
X94017333Y-89660000D01*
X94128986Y-89649003D01*
X94272247Y-89605546D01*
X94404276Y-89534974D01*
X94520001Y-89440001D01*
X94543804Y-89410998D01*
X94991504Y-88963298D01*
X98246903Y-88963298D01*
X99060000Y-89776395D01*
X99873097Y-88963298D01*
X99801514Y-88719329D01*
X99546004Y-88598429D01*
X99271816Y-88529700D01*
X98989488Y-88515783D01*
X98709870Y-88557213D01*
X98443708Y-88652397D01*
X98318486Y-88719329D01*
X98246903Y-88963298D01*
X94991504Y-88963298D01*
X95035802Y-88919000D01*
X95097939Y-88919000D01*
X95297898Y-88879226D01*
X95486256Y-88801205D01*
X95655774Y-88687937D01*
X95799937Y-88543774D01*
X95913205Y-88374256D01*
X95991226Y-88185898D01*
X96031000Y-87985939D01*
X96031000Y-87782061D01*
X96000356Y-87628000D01*
X100269199Y-87628000D01*
X101856000Y-89214802D01*
X101856001Y-90894668D01*
X101852324Y-90932000D01*
X101866998Y-91080985D01*
X101910454Y-91224246D01*
X101981026Y-91356276D01*
X102014181Y-91396675D01*
X101969841Y-91606236D01*
X102640000Y-92276395D01*
X102654143Y-92262253D01*
X102833748Y-92441858D01*
X102819605Y-92456000D01*
X102833748Y-92470143D01*
X102654143Y-92649748D01*
X102640000Y-92635605D01*
X101969841Y-93305764D01*
X102017148Y-93529348D01*
X102238516Y-93630237D01*
X102475313Y-93686000D01*
X102718438Y-93694495D01*
X102958549Y-93655395D01*
X103172117Y-93575549D01*
X103185506Y-93586537D01*
X103295820Y-93645502D01*
X103380000Y-93671038D01*
X103380001Y-94881928D01*
X103187500Y-94881928D01*
X103063018Y-94894188D01*
X102943320Y-94930498D01*
X102833006Y-94989463D01*
X102736315Y-95068815D01*
X102656963Y-95165506D01*
X102607941Y-95257219D01*
X102466923Y-95144031D01*
X102191094Y-95000429D01*
X101972980Y-94929437D01*
X101727000Y-95049406D01*
X101727000Y-96393000D01*
X101747000Y-96393000D01*
X101747000Y-96647000D01*
X101727000Y-96647000D01*
X101727000Y-97990594D01*
X101972980Y-98110563D01*
X102191094Y-98039571D01*
X102466923Y-97895969D01*
X102607941Y-97782781D01*
X102656963Y-97874494D01*
X102736315Y-97971185D01*
X102833006Y-98050537D01*
X102943320Y-98109502D01*
X103063018Y-98145812D01*
X103187500Y-98158072D01*
X105092500Y-98158072D01*
X105216982Y-98145812D01*
X105336680Y-98109502D01*
X105446994Y-98050537D01*
X105543685Y-97971185D01*
X105623037Y-97874494D01*
X105682002Y-97764180D01*
X105718312Y-97644482D01*
X105730572Y-97520000D01*
X105730572Y-95520000D01*
X105718312Y-95395518D01*
X105682002Y-95275820D01*
X105623037Y-95165506D01*
X105543685Y-95068815D01*
X105446994Y-94989463D01*
X105336680Y-94930498D01*
X105216982Y-94894188D01*
X105092500Y-94881928D01*
X104900000Y-94881928D01*
X104900000Y-93671038D01*
X104984180Y-93645502D01*
X105094494Y-93586537D01*
X105191185Y-93507185D01*
X105270537Y-93410494D01*
X105329502Y-93300180D01*
X105355038Y-93216000D01*
X118669957Y-93216000D01*
X118773363Y-93370759D01*
X118973241Y-93570637D01*
X119128000Y-93674044D01*
X119128001Y-95078681D01*
X119001766Y-95146155D01*
X118760037Y-95344537D01*
X118561655Y-95586265D01*
X118414245Y-95862051D01*
X118323470Y-96161296D01*
X118300500Y-96394514D01*
X118300500Y-96645485D01*
X118323470Y-96878703D01*
X118414245Y-97177948D01*
X118561655Y-97453734D01*
X118760037Y-97695463D01*
X119001765Y-97893845D01*
X119277551Y-98041255D01*
X119576796Y-98132030D01*
X119888000Y-98162681D01*
X120199203Y-98132030D01*
X120498448Y-98041255D01*
X120774234Y-97893845D01*
X121015963Y-97695463D01*
X121163163Y-97516101D01*
X121318563Y-97701315D01*
X121561077Y-97895969D01*
X121836906Y-98039571D01*
X122055020Y-98110563D01*
X122301000Y-97990594D01*
X122301000Y-96647000D01*
X122281000Y-96647000D01*
X122281000Y-96393000D01*
X122301000Y-96393000D01*
X122301000Y-95049406D01*
X122055020Y-94929437D01*
X121836906Y-95000429D01*
X121561077Y-95144031D01*
X121318563Y-95338685D01*
X121163162Y-95523900D01*
X121015963Y-95344537D01*
X120774235Y-95146155D01*
X120648000Y-95078681D01*
X120648000Y-93674043D01*
X120802759Y-93570637D01*
X121002637Y-93370759D01*
X121159680Y-93135727D01*
X121267853Y-92874574D01*
X121323000Y-92597335D01*
X121323000Y-92534438D01*
X122229505Y-92534438D01*
X122268605Y-92774549D01*
X122353798Y-93002418D01*
X122394652Y-93078852D01*
X122618236Y-93126159D01*
X123288395Y-92456000D01*
X122618236Y-91785841D01*
X122394652Y-91833148D01*
X122293763Y-92054516D01*
X122238000Y-92291313D01*
X122229505Y-92534438D01*
X121323000Y-92534438D01*
X121323000Y-92314665D01*
X121267853Y-92037426D01*
X121159680Y-91776273D01*
X121002637Y-91541241D01*
X120802759Y-91341363D01*
X120602131Y-91207308D01*
X120629514Y-91192671D01*
X120701097Y-90948702D01*
X119888000Y-90135605D01*
X119074903Y-90948702D01*
X119146486Y-91192671D01*
X119175341Y-91206324D01*
X118973241Y-91341363D01*
X118773363Y-91541241D01*
X118669957Y-91696000D01*
X105355038Y-91696000D01*
X105329502Y-91611820D01*
X105270537Y-91501506D01*
X105191185Y-91404815D01*
X105094494Y-91325463D01*
X104984180Y-91266498D01*
X104864482Y-91230188D01*
X104740000Y-91217928D01*
X103976730Y-91217928D01*
X103376000Y-90617199D01*
X103376000Y-90026512D01*
X118447783Y-90026512D01*
X118489213Y-90306130D01*
X118584397Y-90572292D01*
X118651329Y-90697514D01*
X118895298Y-90769097D01*
X119708395Y-89956000D01*
X120067605Y-89956000D01*
X120880702Y-90769097D01*
X121124671Y-90697514D01*
X121245571Y-90442004D01*
X121314300Y-90167816D01*
X121328217Y-89885488D01*
X121286787Y-89605870D01*
X121191603Y-89339708D01*
X121124671Y-89214486D01*
X120880702Y-89142903D01*
X120067605Y-89956000D01*
X119708395Y-89956000D01*
X118895298Y-89142903D01*
X118651329Y-89214486D01*
X118530429Y-89469996D01*
X118461700Y-89744184D01*
X118447783Y-90026512D01*
X103376000Y-90026512D01*
X103376000Y-88963298D01*
X119074903Y-88963298D01*
X119888000Y-89776395D01*
X120701097Y-88963298D01*
X120629514Y-88719329D01*
X120374004Y-88598429D01*
X120099816Y-88529700D01*
X119817488Y-88515783D01*
X119537870Y-88557213D01*
X119271708Y-88652397D01*
X119146486Y-88719329D01*
X119074903Y-88963298D01*
X103376000Y-88963298D01*
X103376000Y-88937323D01*
X103379676Y-88900000D01*
X103376000Y-88862677D01*
X103376000Y-88862667D01*
X103365003Y-88751014D01*
X103321546Y-88607753D01*
X103294686Y-88557502D01*
X103250974Y-88475723D01*
X103179799Y-88388997D01*
X103156001Y-88359999D01*
X103127003Y-88336201D01*
X101280327Y-86489526D01*
X101458665Y-86525000D01*
X101741335Y-86525000D01*
X102018574Y-86469853D01*
X102279727Y-86361680D01*
X102514759Y-86204637D01*
X102714637Y-86004759D01*
X102871680Y-85769727D01*
X102979853Y-85508574D01*
X103035000Y-85231335D01*
X103035000Y-84948665D01*
X102979853Y-84671426D01*
X102871680Y-84410273D01*
X102714637Y-84175241D01*
X102514759Y-83975363D01*
X102282241Y-83820000D01*
X102514759Y-83664637D01*
X102714637Y-83464759D01*
X102871680Y-83229727D01*
X102979853Y-82968574D01*
X103035000Y-82691335D01*
X103035000Y-82437980D01*
X114217626Y-82437980D01*
X114337514Y-82722836D01*
X114661210Y-82883699D01*
X115010069Y-82978322D01*
X115370684Y-83003067D01*
X115729198Y-82956985D01*
X116071833Y-82841846D01*
X116294486Y-82722836D01*
X116414374Y-82437980D01*
X115316000Y-81339605D01*
X114217626Y-82437980D01*
X103035000Y-82437980D01*
X103035000Y-82408665D01*
X102979853Y-82131426D01*
X102871680Y-81870273D01*
X102714637Y-81635241D01*
X102514759Y-81435363D01*
X102282241Y-81280000D01*
X102379993Y-81214684D01*
X113472933Y-81214684D01*
X113519015Y-81573198D01*
X113634154Y-81915833D01*
X113753164Y-82138486D01*
X114038020Y-82258374D01*
X115136395Y-81160000D01*
X115495605Y-81160000D01*
X116593980Y-82258374D01*
X116878836Y-82138486D01*
X117039699Y-81814790D01*
X117134322Y-81465931D01*
X117159067Y-81105316D01*
X117112985Y-80746802D01*
X116997846Y-80404167D01*
X116878836Y-80181514D01*
X116593980Y-80061626D01*
X115495605Y-81160000D01*
X115136395Y-81160000D01*
X114038020Y-80061626D01*
X113753164Y-80181514D01*
X113592301Y-80505210D01*
X113497678Y-80854069D01*
X113472933Y-81214684D01*
X102379993Y-81214684D01*
X102514759Y-81124637D01*
X102714637Y-80924759D01*
X102871680Y-80689727D01*
X102979853Y-80428574D01*
X103035000Y-80151335D01*
X103035000Y-79882020D01*
X114217626Y-79882020D01*
X115316000Y-80980395D01*
X116414374Y-79882020D01*
X116294486Y-79597164D01*
X115970790Y-79436301D01*
X115621931Y-79341678D01*
X115261316Y-79316933D01*
X114902802Y-79363015D01*
X114560167Y-79478154D01*
X114337514Y-79597164D01*
X114217626Y-79882020D01*
X103035000Y-79882020D01*
X103035000Y-79868665D01*
X102979853Y-79591426D01*
X102871680Y-79330273D01*
X102714637Y-79095241D01*
X102514759Y-78895363D01*
X102282241Y-78740000D01*
X102514759Y-78584637D01*
X102714637Y-78384759D01*
X102871680Y-78149727D01*
X102979853Y-77888574D01*
X103035000Y-77611335D01*
X103035000Y-77328665D01*
X102979853Y-77051426D01*
X102871680Y-76790273D01*
X102714637Y-76555241D01*
X102514759Y-76355363D01*
X102282241Y-76200000D01*
X102514759Y-76044637D01*
X102714637Y-75844759D01*
X102871680Y-75609727D01*
X102979853Y-75348574D01*
X103035000Y-75071335D01*
X103035000Y-74788665D01*
X102979853Y-74511426D01*
X102871680Y-74250273D01*
X102714637Y-74015241D01*
X102514759Y-73815363D01*
X102282241Y-73660000D01*
X102514759Y-73504637D01*
X102714637Y-73304759D01*
X102844771Y-73110000D01*
X103556957Y-73110000D01*
X103660363Y-73264759D01*
X103860241Y-73464637D01*
X104095273Y-73621680D01*
X104356426Y-73729853D01*
X104633665Y-73785000D01*
X104916335Y-73785000D01*
X105193574Y-73729853D01*
X105454727Y-73621680D01*
X105689759Y-73464637D01*
X105889637Y-73264759D01*
X106046680Y-73029727D01*
X106154853Y-72768574D01*
X106210000Y-72491335D01*
X106210000Y-72460000D01*
X113477928Y-72460000D01*
X113477928Y-74860000D01*
X113490188Y-74984482D01*
X113526498Y-75104180D01*
X113585463Y-75214494D01*
X113664815Y-75311185D01*
X113761506Y-75390537D01*
X113871820Y-75449502D01*
X113991518Y-75485812D01*
X114116000Y-75498072D01*
X116079271Y-75498072D01*
X121668000Y-81086802D01*
X121668001Y-89878668D01*
X121664324Y-89916000D01*
X121668001Y-89953333D01*
X121678810Y-90063072D01*
X121678998Y-90064985D01*
X121722454Y-90208246D01*
X121793026Y-90340276D01*
X121864201Y-90427002D01*
X121888000Y-90456001D01*
X121916998Y-90479799D01*
X122840730Y-91403532D01*
X122797841Y-91606236D01*
X123468000Y-92276395D01*
X123482143Y-92262253D01*
X123661748Y-92441858D01*
X123647605Y-92456000D01*
X123661748Y-92470143D01*
X123482143Y-92649748D01*
X123468000Y-92635605D01*
X122797841Y-93305764D01*
X122845148Y-93529348D01*
X123066516Y-93630237D01*
X123303313Y-93686000D01*
X123546438Y-93694495D01*
X123786549Y-93655395D01*
X124000117Y-93575549D01*
X124013506Y-93586537D01*
X124123820Y-93645502D01*
X124208000Y-93671038D01*
X124208001Y-94881928D01*
X124015500Y-94881928D01*
X123891018Y-94894188D01*
X123771320Y-94930498D01*
X123661006Y-94989463D01*
X123564315Y-95068815D01*
X123484963Y-95165506D01*
X123435941Y-95257219D01*
X123294923Y-95144031D01*
X123019094Y-95000429D01*
X122800980Y-94929437D01*
X122555000Y-95049406D01*
X122555000Y-96393000D01*
X122575000Y-96393000D01*
X122575000Y-96647000D01*
X122555000Y-96647000D01*
X122555000Y-97990594D01*
X122800980Y-98110563D01*
X123019094Y-98039571D01*
X123294923Y-97895969D01*
X123435941Y-97782781D01*
X123484963Y-97874494D01*
X123564315Y-97971185D01*
X123661006Y-98050537D01*
X123771320Y-98109502D01*
X123891018Y-98145812D01*
X124015500Y-98158072D01*
X125920500Y-98158072D01*
X126044982Y-98145812D01*
X126164680Y-98109502D01*
X126274994Y-98050537D01*
X126371685Y-97971185D01*
X126451037Y-97874494D01*
X126510002Y-97764180D01*
X126546312Y-97644482D01*
X126558572Y-97520000D01*
X126558572Y-95520000D01*
X126546312Y-95395518D01*
X126510002Y-95275820D01*
X126451037Y-95165506D01*
X126371685Y-95068815D01*
X126274994Y-94989463D01*
X126164680Y-94930498D01*
X126044982Y-94894188D01*
X125920500Y-94881928D01*
X125728000Y-94881928D01*
X125728000Y-93671038D01*
X125812180Y-93645502D01*
X125922494Y-93586537D01*
X126019185Y-93507185D01*
X126098537Y-93410494D01*
X126157502Y-93300180D01*
X126193812Y-93180482D01*
X126206072Y-93056000D01*
X126206072Y-91856000D01*
X126193812Y-91731518D01*
X126157502Y-91611820D01*
X126098537Y-91501506D01*
X126019185Y-91404815D01*
X125922494Y-91325463D01*
X125812180Y-91266498D01*
X125692482Y-91230188D01*
X125568000Y-91217928D01*
X124804730Y-91217928D01*
X123188000Y-89601199D01*
X123188000Y-81059872D01*
X126035000Y-81059872D01*
X126035000Y-81500128D01*
X126120890Y-81931925D01*
X126289369Y-82338669D01*
X126533962Y-82704729D01*
X126845271Y-83016038D01*
X127211331Y-83260631D01*
X127618075Y-83429110D01*
X128049872Y-83515000D01*
X128490128Y-83515000D01*
X128921925Y-83429110D01*
X129328669Y-83260631D01*
X129694729Y-83016038D01*
X130006038Y-82704729D01*
X130125795Y-82525500D01*
X135123261Y-82525500D01*
X135258248Y-82660487D01*
X135526037Y-82839418D01*
X135823588Y-82962668D01*
X136139467Y-83025500D01*
X136461533Y-83025500D01*
X136777412Y-82962668D01*
X137074963Y-82839418D01*
X137342752Y-82660487D01*
X137570487Y-82432752D01*
X137749418Y-82164963D01*
X137872668Y-81867412D01*
X137935500Y-81551533D01*
X137935500Y-81229467D01*
X137872668Y-80913588D01*
X137749418Y-80616037D01*
X137570487Y-80348248D01*
X137342752Y-80120513D01*
X137074963Y-79941582D01*
X136777412Y-79818332D01*
X136461533Y-79755500D01*
X136139467Y-79755500D01*
X135823588Y-79818332D01*
X135526037Y-79941582D01*
X135258248Y-80120513D01*
X135123261Y-80255500D01*
X130264784Y-80255500D01*
X130250631Y-80221331D01*
X130006038Y-79855271D01*
X129694729Y-79543962D01*
X129328669Y-79299369D01*
X128921925Y-79130890D01*
X128490128Y-79045000D01*
X128049872Y-79045000D01*
X127618075Y-79130890D01*
X127211331Y-79299369D01*
X126845271Y-79543962D01*
X126533962Y-79855271D01*
X126289369Y-80221331D01*
X126120890Y-80628075D01*
X126035000Y-81059872D01*
X123188000Y-81059872D01*
X123188000Y-80809323D01*
X123191676Y-80772000D01*
X123188000Y-80734677D01*
X123188000Y-80734667D01*
X123177003Y-80623014D01*
X123133546Y-80479753D01*
X123062974Y-80347724D01*
X122968001Y-80231999D01*
X122939004Y-80208202D01*
X120493647Y-77762845D01*
X126886761Y-77762845D01*
X127054802Y-78088643D01*
X127446607Y-78289426D01*
X127870055Y-78409914D01*
X128308873Y-78445476D01*
X128746197Y-78394746D01*
X129165221Y-78259674D01*
X129485198Y-78088643D01*
X129653239Y-77762845D01*
X128270000Y-76379605D01*
X126886761Y-77762845D01*
X120493647Y-77762845D01*
X118969675Y-76238873D01*
X126024524Y-76238873D01*
X126075254Y-76676197D01*
X126210326Y-77095221D01*
X126381357Y-77415198D01*
X126707155Y-77583239D01*
X128090395Y-76200000D01*
X128449605Y-76200000D01*
X129832845Y-77583239D01*
X130158643Y-77415198D01*
X130359426Y-77023393D01*
X130479914Y-76599945D01*
X130515476Y-76161127D01*
X130464746Y-75723803D01*
X130329674Y-75304779D01*
X130158643Y-74984802D01*
X129832845Y-74816761D01*
X128449605Y-76200000D01*
X128090395Y-76200000D01*
X126707155Y-74816761D01*
X126381357Y-74984802D01*
X126180574Y-75376607D01*
X126060086Y-75800055D01*
X126024524Y-76238873D01*
X118969675Y-76238873D01*
X117367957Y-74637155D01*
X126886761Y-74637155D01*
X128270000Y-76020395D01*
X129653239Y-74637155D01*
X129485198Y-74311357D01*
X129093393Y-74110574D01*
X128669945Y-73990086D01*
X128231127Y-73954524D01*
X127793803Y-74005254D01*
X127374779Y-74140326D01*
X127054802Y-74311357D01*
X126886761Y-74637155D01*
X117367957Y-74637155D01*
X117154072Y-74423271D01*
X117154072Y-74353880D01*
X117264276Y-74294974D01*
X117380001Y-74200001D01*
X117403804Y-74170997D01*
X120674929Y-70899872D01*
X126035000Y-70899872D01*
X126035000Y-71340128D01*
X126120890Y-71771925D01*
X126289369Y-72178669D01*
X126533962Y-72544729D01*
X126845271Y-72856038D01*
X127211331Y-73100631D01*
X127618075Y-73269110D01*
X128049872Y-73355000D01*
X128490128Y-73355000D01*
X128921925Y-73269110D01*
X129328669Y-73100631D01*
X129694729Y-72856038D01*
X130006038Y-72544729D01*
X130018886Y-72525500D01*
X135123261Y-72525500D01*
X135258248Y-72660487D01*
X135526037Y-72839418D01*
X135823588Y-72962668D01*
X136139467Y-73025500D01*
X136461533Y-73025500D01*
X136777412Y-72962668D01*
X137074963Y-72839418D01*
X137342752Y-72660487D01*
X137570487Y-72432752D01*
X137749418Y-72164963D01*
X137872668Y-71867412D01*
X137935500Y-71551533D01*
X137935500Y-71229467D01*
X137872668Y-70913588D01*
X137749418Y-70616037D01*
X137570487Y-70348248D01*
X137342752Y-70120513D01*
X137074963Y-69941582D01*
X136777412Y-69818332D01*
X136461533Y-69755500D01*
X136139467Y-69755500D01*
X135823588Y-69818332D01*
X135526037Y-69941582D01*
X135258248Y-70120513D01*
X135123261Y-70255500D01*
X130331058Y-70255500D01*
X130250631Y-70061331D01*
X130006038Y-69695271D01*
X129694729Y-69383962D01*
X129328669Y-69139369D01*
X128921925Y-68970890D01*
X128490128Y-68885000D01*
X128049872Y-68885000D01*
X127618075Y-68970890D01*
X127211331Y-69139369D01*
X126845271Y-69383962D01*
X126533962Y-69695271D01*
X126289369Y-70061331D01*
X126120890Y-70468075D01*
X126035000Y-70899872D01*
X120674929Y-70899872D01*
X124774802Y-66800000D01*
X126031928Y-66800000D01*
X126031928Y-67640000D01*
X126044188Y-67764482D01*
X126080498Y-67884180D01*
X126139463Y-67994494D01*
X126218815Y-68091185D01*
X126315506Y-68170537D01*
X126425820Y-68229502D01*
X126545518Y-68265812D01*
X126670000Y-68278072D01*
X129870000Y-68278072D01*
X129994482Y-68265812D01*
X130114180Y-68229502D01*
X130224494Y-68170537D01*
X130321185Y-68091185D01*
X130400537Y-67994494D01*
X130459502Y-67884180D01*
X130495812Y-67764482D01*
X130508072Y-67640000D01*
X130508072Y-64440000D01*
X130495812Y-64315518D01*
X130459502Y-64195820D01*
X130400537Y-64085506D01*
X130321185Y-63988815D01*
X130224494Y-63909463D01*
X130114180Y-63850498D01*
X129994482Y-63814188D01*
X129870000Y-63801928D01*
X129030000Y-63801928D01*
X129030000Y-61251333D01*
X129033677Y-61214000D01*
X129019003Y-61065014D01*
X128975546Y-60921753D01*
X128904974Y-60789724D01*
X128833799Y-60702997D01*
X128810001Y-60673999D01*
X128781004Y-60650202D01*
X121975804Y-53845003D01*
X121952001Y-53815999D01*
X121836276Y-53721026D01*
X121704247Y-53650454D01*
X121560986Y-53606997D01*
X121449333Y-53596000D01*
X121449322Y-53596000D01*
X121412000Y-53592324D01*
X121374678Y-53596000D01*
X118678072Y-53596000D01*
X118678072Y-53156000D01*
X118665812Y-53031518D01*
X118629502Y-52911820D01*
X118570537Y-52801506D01*
X118491185Y-52704815D01*
X118394494Y-52625463D01*
X118284180Y-52566498D01*
X118164482Y-52530188D01*
X118040000Y-52517928D01*
X115640000Y-52517928D01*
X115515518Y-52530188D01*
X115395820Y-52566498D01*
X115285506Y-52625463D01*
X115188815Y-52704815D01*
X115109463Y-52801506D01*
X115050498Y-52911820D01*
X115014188Y-53031518D01*
X115001928Y-53156000D01*
X115001928Y-55556000D01*
X115014188Y-55680482D01*
X115050498Y-55800180D01*
X115109463Y-55910494D01*
X115188815Y-56007185D01*
X115285506Y-56086537D01*
X115395820Y-56145502D01*
X115515518Y-56181812D01*
X115640000Y-56194072D01*
X118040000Y-56194072D01*
X118164482Y-56181812D01*
X118284180Y-56145502D01*
X118394494Y-56086537D01*
X118491185Y-56007185D01*
X118570537Y-55910494D01*
X118629502Y-55800180D01*
X118665812Y-55680482D01*
X118678072Y-55556000D01*
X118678072Y-55116000D01*
X121097199Y-55116000D01*
X127510000Y-61528802D01*
X127510001Y-63801928D01*
X126670000Y-63801928D01*
X126545518Y-63814188D01*
X126425820Y-63850498D01*
X126315506Y-63909463D01*
X126218815Y-63988815D01*
X126139463Y-64085506D01*
X126080498Y-64195820D01*
X126044188Y-64315518D01*
X126031928Y-64440000D01*
X126031928Y-65280000D01*
X124497322Y-65280000D01*
X124459999Y-65276324D01*
X124422676Y-65280000D01*
X124422667Y-65280000D01*
X124311014Y-65290997D01*
X124167753Y-65334454D01*
X124035724Y-65405026D01*
X123919999Y-65499999D01*
X123896201Y-65528997D01*
X117129679Y-72295520D01*
X117105502Y-72215820D01*
X117046537Y-72105506D01*
X116967185Y-72008815D01*
X116870494Y-71929463D01*
X116760180Y-71870498D01*
X116640482Y-71834188D01*
X116516000Y-71821928D01*
X114116000Y-71821928D01*
X113991518Y-71834188D01*
X113871820Y-71870498D01*
X113761506Y-71929463D01*
X113664815Y-72008815D01*
X113585463Y-72105506D01*
X113526498Y-72215820D01*
X113490188Y-72335518D01*
X113477928Y-72460000D01*
X106210000Y-72460000D01*
X106210000Y-72208665D01*
X106173688Y-72026113D01*
X106466996Y-71732805D01*
X106496000Y-71709002D01*
X106590973Y-71593277D01*
X106661545Y-71461248D01*
X106705002Y-71317987D01*
X106715999Y-71206334D01*
X106715999Y-71206325D01*
X106719675Y-71169002D01*
X106715999Y-71131679D01*
X106715999Y-63133980D01*
X115741626Y-63133980D01*
X115861514Y-63418836D01*
X116185210Y-63579699D01*
X116534069Y-63674322D01*
X116894684Y-63699067D01*
X117253198Y-63652985D01*
X117595833Y-63537846D01*
X117818486Y-63418836D01*
X117938374Y-63133980D01*
X116840000Y-62035605D01*
X115741626Y-63133980D01*
X106715999Y-63133980D01*
X106715999Y-61910684D01*
X114996933Y-61910684D01*
X115043015Y-62269198D01*
X115158154Y-62611833D01*
X115277164Y-62834486D01*
X115562020Y-62954374D01*
X116660395Y-61856000D01*
X117019605Y-61856000D01*
X118117980Y-62954374D01*
X118402836Y-62834486D01*
X118563699Y-62510790D01*
X118658322Y-62161931D01*
X118683067Y-61801316D01*
X118636985Y-61442802D01*
X118521846Y-61100167D01*
X118402836Y-60877514D01*
X118117980Y-60757626D01*
X117019605Y-61856000D01*
X116660395Y-61856000D01*
X115562020Y-60757626D01*
X115277164Y-60877514D01*
X115116301Y-61201210D01*
X115021678Y-61550069D01*
X114996933Y-61910684D01*
X106715999Y-61910684D01*
X106715999Y-60578020D01*
X115741626Y-60578020D01*
X116840000Y-61676395D01*
X117938374Y-60578020D01*
X117818486Y-60293164D01*
X117494790Y-60132301D01*
X117145931Y-60037678D01*
X116785316Y-60012933D01*
X116426802Y-60059015D01*
X116084167Y-60174154D01*
X115861514Y-60293164D01*
X115741626Y-60578020D01*
X106715999Y-60578020D01*
X106715999Y-59765321D01*
X106719675Y-59727998D01*
X106715999Y-59690675D01*
X106715999Y-59690666D01*
X106705002Y-59579013D01*
X106661545Y-59435752D01*
X106590973Y-59303723D01*
X106564468Y-59271426D01*
X106553467Y-59258022D01*
X106591000Y-59069335D01*
X106591000Y-58786665D01*
X106554688Y-58604113D01*
X114614802Y-50544000D01*
X122113199Y-50544000D01*
X125275202Y-53706004D01*
X125299000Y-53735002D01*
X125327998Y-53758800D01*
X125414724Y-53829975D01*
X125523252Y-53887985D01*
X125546754Y-53900547D01*
X125690015Y-53944004D01*
X125801668Y-53955001D01*
X125801678Y-53955001D01*
X125839001Y-53958677D01*
X125876324Y-53955001D01*
X139807677Y-53955001D01*
X139844999Y-53958677D01*
X139882321Y-53955001D01*
X139882332Y-53955001D01*
X139993985Y-53944004D01*
X140137246Y-53900547D01*
X140269275Y-53829975D01*
X140385000Y-53735002D01*
X140408803Y-53705999D01*
X140606729Y-53508072D01*
X141770000Y-53508072D01*
X141894482Y-53495812D01*
X142014180Y-53459502D01*
X142124494Y-53400537D01*
X142221185Y-53321185D01*
X142300537Y-53224494D01*
X142359502Y-53114180D01*
X142395812Y-52994482D01*
X142408072Y-52870000D01*
X142408072Y-52830000D01*
X148047678Y-52830000D01*
X148085000Y-52833676D01*
X148122322Y-52830000D01*
X148122333Y-52830000D01*
X148233986Y-52819003D01*
X148377247Y-52775546D01*
X148509276Y-52704974D01*
X148625001Y-52610001D01*
X148648804Y-52580997D01*
X149498624Y-51731177D01*
X149513088Y-51737168D01*
X149828967Y-51800000D01*
X150151033Y-51800000D01*
X150466912Y-51737168D01*
X150764463Y-51613918D01*
X151032252Y-51434987D01*
X151259987Y-51207252D01*
X151438918Y-50939463D01*
X151562168Y-50641912D01*
X151625000Y-50326033D01*
X151625000Y-50003967D01*
X151562168Y-49688088D01*
X151438918Y-49390537D01*
X151259987Y-49122748D01*
X151057239Y-48920000D01*
X155448000Y-48920000D01*
X155448000Y-62103000D01*
X149860000Y-62103000D01*
X149835224Y-62105440D01*
X149811399Y-62112667D01*
X149789443Y-62124403D01*
X149770197Y-62140197D01*
X149754403Y-62159443D01*
X149742667Y-62181399D01*
X149735440Y-62205224D01*
X149733000Y-62230000D01*
X149733000Y-90805000D01*
X149735440Y-90829776D01*
X149742667Y-90853601D01*
X149754403Y-90875557D01*
X149770197Y-90894803D01*
X149789443Y-90910597D01*
X149811399Y-90922333D01*
X149835224Y-90929560D01*
X149860000Y-90932000D01*
X155448000Y-90932000D01*
X155448000Y-103480000D01*
X52984000Y-103480000D01*
X52984000Y-100744872D01*
X53137000Y-100744872D01*
X53137000Y-101185128D01*
X53222890Y-101616925D01*
X53391369Y-102023669D01*
X53635962Y-102389729D01*
X53947271Y-102701038D01*
X54313331Y-102945631D01*
X54720075Y-103114110D01*
X55151872Y-103200000D01*
X55592128Y-103200000D01*
X56023925Y-103114110D01*
X56430669Y-102945631D01*
X56796729Y-102701038D01*
X57108038Y-102389729D01*
X57352631Y-102023669D01*
X57521110Y-101616925D01*
X57607000Y-101185128D01*
X57607000Y-100744872D01*
X57521110Y-100313075D01*
X57352631Y-99906331D01*
X57108038Y-99540271D01*
X56796729Y-99228962D01*
X56430669Y-98984369D01*
X56023925Y-98815890D01*
X55592128Y-98730000D01*
X55151872Y-98730000D01*
X54720075Y-98815890D01*
X54313331Y-98984369D01*
X53947271Y-99228962D01*
X53635962Y-99540271D01*
X53391369Y-99906331D01*
X53222890Y-100313075D01*
X53137000Y-100744872D01*
X52984000Y-100744872D01*
X52984000Y-95866000D01*
X55665928Y-95866000D01*
X55678188Y-95990482D01*
X55714498Y-96110180D01*
X55773463Y-96220494D01*
X55852815Y-96317185D01*
X55949506Y-96396537D01*
X56059820Y-96455502D01*
X56179518Y-96491812D01*
X56304000Y-96504072D01*
X57118250Y-96501000D01*
X57277000Y-96342250D01*
X57277000Y-95123000D01*
X57531000Y-95123000D01*
X57531000Y-96342250D01*
X57689750Y-96501000D01*
X58504000Y-96504072D01*
X58628482Y-96491812D01*
X58748180Y-96455502D01*
X58858494Y-96396537D01*
X58955185Y-96317185D01*
X59034537Y-96220494D01*
X59093502Y-96110180D01*
X59129812Y-95990482D01*
X59142072Y-95866000D01*
X59139000Y-95281750D01*
X58980250Y-95123000D01*
X57531000Y-95123000D01*
X57277000Y-95123000D01*
X55827750Y-95123000D01*
X55669000Y-95281750D01*
X55665928Y-95866000D01*
X52984000Y-95866000D01*
X52984000Y-87376000D01*
X55661718Y-87376000D01*
X55690776Y-87671032D01*
X55776834Y-87954725D01*
X55916583Y-88216179D01*
X56104655Y-88445345D01*
X56333821Y-88633417D01*
X56357362Y-88646000D01*
X56333821Y-88658583D01*
X56104655Y-88846655D01*
X55916583Y-89075821D01*
X55776834Y-89337275D01*
X55690776Y-89620968D01*
X55661718Y-89916000D01*
X55690776Y-90211032D01*
X55776834Y-90494725D01*
X55916583Y-90756179D01*
X56104655Y-90985345D01*
X56333821Y-91173417D01*
X56357362Y-91186000D01*
X56333821Y-91198583D01*
X56104655Y-91386655D01*
X55916583Y-91615821D01*
X55776834Y-91877275D01*
X55690776Y-92160968D01*
X55661718Y-92456000D01*
X55690776Y-92751032D01*
X55776834Y-93034725D01*
X55916583Y-93296179D01*
X56103047Y-93523385D01*
X56059820Y-93536498D01*
X55949506Y-93595463D01*
X55852815Y-93674815D01*
X55773463Y-93771506D01*
X55714498Y-93881820D01*
X55678188Y-94001518D01*
X55665928Y-94126000D01*
X55669000Y-94710250D01*
X55827750Y-94869000D01*
X57277000Y-94869000D01*
X57277000Y-94849000D01*
X57531000Y-94849000D01*
X57531000Y-94869000D01*
X58980250Y-94869000D01*
X59139000Y-94710250D01*
X59142072Y-94126000D01*
X59129812Y-94001518D01*
X59093502Y-93881820D01*
X59034537Y-93771506D01*
X58955185Y-93674815D01*
X58858494Y-93595463D01*
X58748180Y-93536498D01*
X58704953Y-93523385D01*
X58891417Y-93296179D01*
X59031166Y-93034725D01*
X59117224Y-92751032D01*
X59146282Y-92456000D01*
X59117224Y-92160968D01*
X59031166Y-91877275D01*
X58891417Y-91615821D01*
X58703345Y-91386655D01*
X58474179Y-91198583D01*
X58450638Y-91186000D01*
X58474179Y-91173417D01*
X58703345Y-90985345D01*
X58891417Y-90756179D01*
X59031166Y-90494725D01*
X59117224Y-90211032D01*
X59146282Y-89916000D01*
X59117224Y-89620968D01*
X59031166Y-89337275D01*
X58891417Y-89075821D01*
X58703345Y-88846655D01*
X58474179Y-88658583D01*
X58450638Y-88646000D01*
X58474179Y-88633417D01*
X58703345Y-88445345D01*
X58891417Y-88216179D01*
X59031166Y-87954725D01*
X59117224Y-87671032D01*
X59146282Y-87376000D01*
X59117224Y-87080968D01*
X59031166Y-86797275D01*
X58891417Y-86535821D01*
X58703345Y-86306655D01*
X58474179Y-86118583D01*
X58212725Y-85978834D01*
X57929032Y-85892776D01*
X57707936Y-85871000D01*
X57100064Y-85871000D01*
X56878968Y-85892776D01*
X56595275Y-85978834D01*
X56333821Y-86118583D01*
X56104655Y-86306655D01*
X55916583Y-86535821D01*
X55776834Y-86797275D01*
X55690776Y-87080968D01*
X55661718Y-87376000D01*
X52984000Y-87376000D01*
X52984000Y-81353680D01*
X65696439Y-81353680D01*
X65736937Y-81617501D01*
X65828125Y-81868353D01*
X65884632Y-81974068D01*
X66120440Y-82035955D01*
X66876395Y-81280000D01*
X66120440Y-80524045D01*
X65884632Y-80585932D01*
X65771734Y-80827790D01*
X65708189Y-81087027D01*
X65696439Y-81353680D01*
X52984000Y-81353680D01*
X52984000Y-54440000D01*
X61991928Y-54440000D01*
X62004188Y-54564482D01*
X62040498Y-54684180D01*
X62099463Y-54794494D01*
X62178815Y-54891185D01*
X62275506Y-54970537D01*
X62385820Y-55029502D01*
X62505518Y-55065812D01*
X62630000Y-55078072D01*
X63214250Y-55075000D01*
X63373000Y-54916250D01*
X63373000Y-53467000D01*
X62153750Y-53467000D01*
X61995000Y-53625750D01*
X61991928Y-54440000D01*
X52984000Y-54440000D01*
X52984000Y-51214872D01*
X53137000Y-51214872D01*
X53137000Y-51655128D01*
X53222890Y-52086925D01*
X53391369Y-52493669D01*
X53635962Y-52859729D01*
X53947271Y-53171038D01*
X54313331Y-53415631D01*
X54720075Y-53584110D01*
X55151872Y-53670000D01*
X55592128Y-53670000D01*
X56023925Y-53584110D01*
X56430669Y-53415631D01*
X56796729Y-53171038D01*
X57108038Y-52859729D01*
X57352631Y-52493669D01*
X57457704Y-52240000D01*
X61991928Y-52240000D01*
X61995000Y-53054250D01*
X62153750Y-53213000D01*
X63373000Y-53213000D01*
X63373000Y-51763750D01*
X63214250Y-51605000D01*
X62630000Y-51601928D01*
X62505518Y-51614188D01*
X62385820Y-51650498D01*
X62275506Y-51709463D01*
X62178815Y-51788815D01*
X62099463Y-51885506D01*
X62040498Y-51995820D01*
X62004188Y-52115518D01*
X61991928Y-52240000D01*
X57457704Y-52240000D01*
X57521110Y-52086925D01*
X57607000Y-51655128D01*
X57607000Y-51214872D01*
X57521110Y-50783075D01*
X57352631Y-50376331D01*
X57108038Y-50010271D01*
X56796729Y-49698962D01*
X56430669Y-49454369D01*
X56023925Y-49285890D01*
X55592128Y-49200000D01*
X55151872Y-49200000D01*
X54720075Y-49285890D01*
X54313331Y-49454369D01*
X53947271Y-49698962D01*
X53635962Y-50010271D01*
X53391369Y-50376331D01*
X53222890Y-50783075D01*
X53137000Y-51214872D01*
X52984000Y-51214872D01*
X52984000Y-48920000D01*
X111041198Y-48920000D01*
X107041001Y-52920198D01*
G37*
G04 #@! TD.AperFunction*
D44*
X80520000Y-74228802D02*
X80520000Y-74981956D01*
X80365241Y-75085363D01*
X80165363Y-75285241D01*
X80008320Y-75520273D01*
X79900147Y-75781426D01*
X79845000Y-76058665D01*
X79845000Y-76341335D01*
X79900147Y-76618574D01*
X79938017Y-76710000D01*
X75001983Y-76710000D01*
X75039853Y-76618574D01*
X75095000Y-76341335D01*
X75095000Y-76058665D01*
X75039853Y-75781426D01*
X74931680Y-75520273D01*
X74774637Y-75285241D01*
X74574759Y-75085363D01*
X74339727Y-74928320D01*
X74078574Y-74820147D01*
X73801335Y-74765000D01*
X73518665Y-74765000D01*
X73241426Y-74820147D01*
X72980273Y-74928320D01*
X72745241Y-75085363D01*
X72545363Y-75285241D01*
X72388320Y-75520273D01*
X72280147Y-75781426D01*
X72225000Y-76058665D01*
X72225000Y-76341335D01*
X72280147Y-76618574D01*
X72318017Y-76710000D01*
X71919322Y-76710000D01*
X71881999Y-76706324D01*
X71844676Y-76710000D01*
X71844667Y-76710000D01*
X71838545Y-76710603D01*
X71729939Y-76689000D01*
X71526061Y-76689000D01*
X71326102Y-76728774D01*
X71137744Y-76806795D01*
X70968226Y-76920063D01*
X70824063Y-77064226D01*
X70710795Y-77233744D01*
X70632774Y-77422102D01*
X70593000Y-77622061D01*
X70593000Y-77825939D01*
X70632774Y-78025898D01*
X70710795Y-78214256D01*
X70824063Y-78383774D01*
X70968226Y-78527937D01*
X71137744Y-78641205D01*
X71326102Y-78719226D01*
X71526061Y-78759000D01*
X71729939Y-78759000D01*
X71929898Y-78719226D01*
X72118256Y-78641205D01*
X72287774Y-78527937D01*
X72431937Y-78383774D01*
X72534685Y-78230000D01*
X85727986Y-78230000D01*
X85662776Y-78444968D01*
X85633718Y-78740000D01*
X85662776Y-79035032D01*
X85748834Y-79318725D01*
X85888583Y-79580179D01*
X86076655Y-79809345D01*
X86142114Y-79863066D01*
X86032613Y-79921595D01*
X85898038Y-80032038D01*
X85787595Y-80166613D01*
X85705528Y-80320149D01*
X85654992Y-80486745D01*
X85637928Y-80659999D01*
X85637928Y-81515127D01*
X85399803Y-81277002D01*
X85376001Y-81247999D01*
X85260276Y-81153026D01*
X85128247Y-81082454D01*
X84984986Y-81038997D01*
X84873333Y-81028000D01*
X84873322Y-81028000D01*
X84836000Y-81024324D01*
X84798678Y-81028000D01*
X82498043Y-81028000D01*
X82394637Y-80873241D01*
X82194759Y-80673363D01*
X81959727Y-80516320D01*
X81698574Y-80408147D01*
X81421335Y-80353000D01*
X81138665Y-80353000D01*
X80861426Y-80408147D01*
X80600273Y-80516320D01*
X80365241Y-80673363D01*
X80165363Y-80873241D01*
X80008320Y-81108273D01*
X79900147Y-81369426D01*
X79845000Y-81646665D01*
X79845000Y-81929335D01*
X79900147Y-82206574D01*
X80008320Y-82467727D01*
X80165363Y-82702759D01*
X80365241Y-82902637D01*
X80600273Y-83059680D01*
X80861426Y-83167853D01*
X81138665Y-83223000D01*
X81421335Y-83223000D01*
X81698574Y-83167853D01*
X81959727Y-83059680D01*
X82194759Y-82902637D01*
X82394637Y-82702759D01*
X82498043Y-82548000D01*
X84521199Y-82548000D01*
X85325000Y-83351802D01*
X85325000Y-83413939D01*
X85364774Y-83613898D01*
X85442795Y-83802256D01*
X85556063Y-83971774D01*
X85700226Y-84115937D01*
X85869744Y-84229205D01*
X86058102Y-84307226D01*
X86258061Y-84347000D01*
X86461939Y-84347000D01*
X86616000Y-84316356D01*
X86616000Y-84521198D01*
X85029199Y-86108000D01*
X81827148Y-86108000D01*
X81801537Y-86046169D01*
X81611663Y-85762002D01*
X81369998Y-85520337D01*
X81085831Y-85330463D01*
X80770081Y-85199675D01*
X80434883Y-85133000D01*
X80093117Y-85133000D01*
X79757919Y-85199675D01*
X79442169Y-85330463D01*
X79158002Y-85520337D01*
X78916337Y-85762002D01*
X78726463Y-86046169D01*
X78595675Y-86361919D01*
X78529000Y-86697117D01*
X78529000Y-87038883D01*
X78595675Y-87374081D01*
X78621286Y-87435912D01*
X77917199Y-88140000D01*
X76526287Y-88140000D01*
X76523502Y-88130820D01*
X76488907Y-88066098D01*
X76552215Y-87857400D01*
X76574612Y-87630000D01*
X76552215Y-87402600D01*
X76485885Y-87183940D01*
X76385071Y-86995331D01*
X76426275Y-86936882D01*
X76519272Y-86727337D01*
X76527964Y-86665810D01*
X76402163Y-86487000D01*
X75637109Y-86487000D01*
X75636400Y-86486785D01*
X75465979Y-86470000D01*
X75037000Y-86470000D01*
X75037000Y-86233000D01*
X75057000Y-86233000D01*
X75057000Y-85353402D01*
X75311000Y-85353402D01*
X75311000Y-86233000D01*
X76402163Y-86233000D01*
X76527964Y-86054190D01*
X76519272Y-85992663D01*
X76426275Y-85783118D01*
X76294184Y-85595742D01*
X76128076Y-85437736D01*
X75934334Y-85315172D01*
X75720404Y-85232761D01*
X75494507Y-85193669D01*
X75311000Y-85353402D01*
X75057000Y-85353402D01*
X74873493Y-85193669D01*
X74647596Y-85232761D01*
X74433666Y-85315172D01*
X74420000Y-85323817D01*
X74420000Y-83006043D01*
X74574759Y-82902637D01*
X74774637Y-82702759D01*
X74931680Y-82467727D01*
X75039853Y-82206574D01*
X75095000Y-81929335D01*
X75095000Y-81646665D01*
X75039853Y-81369426D01*
X74931680Y-81108273D01*
X74774637Y-80873241D01*
X74574759Y-80673363D01*
X74339727Y-80516320D01*
X74078574Y-80408147D01*
X73801335Y-80353000D01*
X73518665Y-80353000D01*
X73241426Y-80408147D01*
X72980273Y-80516320D01*
X72745241Y-80673363D01*
X72545363Y-80873241D01*
X72388320Y-81108273D01*
X72280147Y-81369426D01*
X72225000Y-81646665D01*
X72225000Y-81929335D01*
X72280147Y-82206574D01*
X72388320Y-82467727D01*
X72545363Y-82702759D01*
X72745241Y-82902637D01*
X72900000Y-83006044D01*
X72900001Y-87068668D01*
X72896324Y-87106000D01*
X72900001Y-87143333D01*
X72904001Y-87183940D01*
X72910998Y-87254985D01*
X72954454Y-87398246D01*
X73025026Y-87530276D01*
X73096201Y-87617002D01*
X73120000Y-87646001D01*
X73148998Y-87669799D01*
X73620200Y-88141002D01*
X73643999Y-88170001D01*
X73672997Y-88193799D01*
X73759723Y-88264974D01*
X73804412Y-88288861D01*
X73795928Y-88375000D01*
X73795928Y-89425000D01*
X73808188Y-89549482D01*
X73844498Y-89669180D01*
X73903463Y-89779494D01*
X73982815Y-89876185D01*
X74079506Y-89955537D01*
X74189820Y-90014502D01*
X74309518Y-90050812D01*
X74434000Y-90063072D01*
X75934000Y-90063072D01*
X76058482Y-90050812D01*
X76178180Y-90014502D01*
X76288494Y-89955537D01*
X76385185Y-89876185D01*
X76464537Y-89779494D01*
X76523502Y-89669180D01*
X76526287Y-89660000D01*
X78194678Y-89660000D01*
X78232000Y-89663676D01*
X78269322Y-89660000D01*
X78269333Y-89660000D01*
X78380986Y-89649003D01*
X78524247Y-89605546D01*
X78656276Y-89534974D01*
X78772001Y-89440001D01*
X78795804Y-89410997D01*
X79696088Y-88510714D01*
X79757919Y-88536325D01*
X80093117Y-88603000D01*
X80434883Y-88603000D01*
X80770081Y-88536325D01*
X81085831Y-88405537D01*
X81369998Y-88215663D01*
X81611663Y-87973998D01*
X81801537Y-87689831D01*
X81827148Y-87628000D01*
X84525198Y-87628000D01*
X73624852Y-98528347D01*
X73562714Y-98528347D01*
X73362755Y-98568121D01*
X73174397Y-98646142D01*
X73004879Y-98759410D01*
X72957545Y-98806744D01*
X71502688Y-97351886D01*
X71539000Y-97169335D01*
X71539000Y-96886665D01*
X71483853Y-96609426D01*
X71375680Y-96348273D01*
X71218637Y-96113241D01*
X71018759Y-95913363D01*
X70783727Y-95756320D01*
X70522574Y-95648147D01*
X70245335Y-95593000D01*
X69962665Y-95593000D01*
X69685426Y-95648147D01*
X69424273Y-95756320D01*
X69189241Y-95913363D01*
X68989363Y-96113241D01*
X68885957Y-96268000D01*
X67061322Y-96268000D01*
X67023999Y-96264324D01*
X66986676Y-96268000D01*
X66986667Y-96268000D01*
X66875014Y-96278997D01*
X66731753Y-96322454D01*
X66599724Y-96393026D01*
X66599722Y-96393027D01*
X66599723Y-96393027D01*
X66512996Y-96464201D01*
X66512992Y-96464205D01*
X66483999Y-96487999D01*
X66460205Y-96516992D01*
X62736000Y-100241199D01*
X62736000Y-95823640D01*
X62772905Y-95848299D01*
X63052257Y-95964011D01*
X63348816Y-96023000D01*
X63651184Y-96023000D01*
X63947743Y-95964011D01*
X64227095Y-95848299D01*
X64478505Y-95680312D01*
X64544944Y-95613873D01*
X64550498Y-95632180D01*
X64609463Y-95742494D01*
X64688815Y-95839185D01*
X64785506Y-95918537D01*
X64895820Y-95977502D01*
X65015518Y-96013812D01*
X65140000Y-96026072D01*
X66940000Y-96026072D01*
X67064482Y-96013812D01*
X67184180Y-95977502D01*
X67294494Y-95918537D01*
X67391185Y-95839185D01*
X67470537Y-95742494D01*
X67529502Y-95632180D01*
X67565812Y-95512482D01*
X67578072Y-95388000D01*
X67578072Y-93588000D01*
X67565812Y-93463518D01*
X67529502Y-93343820D01*
X67470537Y-93233506D01*
X67391185Y-93136815D01*
X67294494Y-93057463D01*
X67184180Y-92998498D01*
X67064482Y-92962188D01*
X66940000Y-92949928D01*
X65140000Y-92949928D01*
X65015518Y-92962188D01*
X64895820Y-92998498D01*
X64785506Y-93057463D01*
X64688815Y-93136815D01*
X64609463Y-93233506D01*
X64550498Y-93343820D01*
X64544944Y-93362127D01*
X64478505Y-93295688D01*
X64337398Y-93201403D01*
X67370803Y-90168000D01*
X68885957Y-90168000D01*
X68989363Y-90322759D01*
X69189241Y-90522637D01*
X69424273Y-90679680D01*
X69685426Y-90787853D01*
X69962665Y-90843000D01*
X70245335Y-90843000D01*
X70522574Y-90787853D01*
X70783727Y-90679680D01*
X71018759Y-90522637D01*
X71218637Y-90322759D01*
X71375680Y-90087727D01*
X71483853Y-89826574D01*
X71539000Y-89549335D01*
X71539000Y-89266665D01*
X71483853Y-88989426D01*
X71375680Y-88728273D01*
X71218637Y-88493241D01*
X71018759Y-88293363D01*
X70783727Y-88136320D01*
X70522574Y-88028147D01*
X70245335Y-87973000D01*
X69962665Y-87973000D01*
X69685426Y-88028147D01*
X69424273Y-88136320D01*
X69189241Y-88293363D01*
X68989363Y-88493241D01*
X68885957Y-88648000D01*
X67093322Y-88648000D01*
X67055999Y-88644324D01*
X67018676Y-88648000D01*
X67018667Y-88648000D01*
X66907014Y-88658997D01*
X66763753Y-88702454D01*
X66631724Y-88773026D01*
X66631494Y-88773215D01*
X66544996Y-88844201D01*
X66544992Y-88844205D01*
X66515999Y-88867999D01*
X66492205Y-88896992D01*
X62989003Y-92400196D01*
X62959999Y-92423999D01*
X62933738Y-92455999D01*
X62865026Y-92539724D01*
X62821750Y-92620687D01*
X62794454Y-92671754D01*
X62750997Y-92815015D01*
X62740000Y-92926668D01*
X62740000Y-92926678D01*
X62736324Y-92964000D01*
X62740000Y-93001323D01*
X62740000Y-93149687D01*
X62736000Y-93152360D01*
X62736000Y-89214801D01*
X68612009Y-83338794D01*
X68641002Y-83315000D01*
X68664796Y-83286007D01*
X68664800Y-83286003D01*
X68735974Y-83199276D01*
X68743619Y-83184974D01*
X68806547Y-83067246D01*
X68850004Y-82923985D01*
X68861001Y-82812332D01*
X68861001Y-82812323D01*
X68864677Y-82775000D01*
X68861001Y-82737677D01*
X68861001Y-77282334D01*
X68864678Y-77245001D01*
X68850004Y-77096015D01*
X68806547Y-76952754D01*
X68735975Y-76820725D01*
X68715455Y-76795721D01*
X68641002Y-76705000D01*
X68612005Y-76681203D01*
X68386654Y-76455852D01*
X68411000Y-76333456D01*
X68411000Y-76066544D01*
X68358928Y-75804761D01*
X68256785Y-75558167D01*
X68108497Y-75336238D01*
X67919762Y-75147503D01*
X67816000Y-75078172D01*
X67816000Y-72846043D01*
X67970759Y-72742637D01*
X68170637Y-72542759D01*
X68274043Y-72388000D01*
X78679199Y-72388000D01*
X80520000Y-74228802D01*
G04 #@! TA.AperFunction,Conductor*
D45*
G36*
X80520000Y-74228802D02*
G01*
X80520000Y-74981956D01*
X80365241Y-75085363D01*
X80165363Y-75285241D01*
X80008320Y-75520273D01*
X79900147Y-75781426D01*
X79845000Y-76058665D01*
X79845000Y-76341335D01*
X79900147Y-76618574D01*
X79938017Y-76710000D01*
X75001983Y-76710000D01*
X75039853Y-76618574D01*
X75095000Y-76341335D01*
X75095000Y-76058665D01*
X75039853Y-75781426D01*
X74931680Y-75520273D01*
X74774637Y-75285241D01*
X74574759Y-75085363D01*
X74339727Y-74928320D01*
X74078574Y-74820147D01*
X73801335Y-74765000D01*
X73518665Y-74765000D01*
X73241426Y-74820147D01*
X72980273Y-74928320D01*
X72745241Y-75085363D01*
X72545363Y-75285241D01*
X72388320Y-75520273D01*
X72280147Y-75781426D01*
X72225000Y-76058665D01*
X72225000Y-76341335D01*
X72280147Y-76618574D01*
X72318017Y-76710000D01*
X71919322Y-76710000D01*
X71881999Y-76706324D01*
X71844676Y-76710000D01*
X71844667Y-76710000D01*
X71838545Y-76710603D01*
X71729939Y-76689000D01*
X71526061Y-76689000D01*
X71326102Y-76728774D01*
X71137744Y-76806795D01*
X70968226Y-76920063D01*
X70824063Y-77064226D01*
X70710795Y-77233744D01*
X70632774Y-77422102D01*
X70593000Y-77622061D01*
X70593000Y-77825939D01*
X70632774Y-78025898D01*
X70710795Y-78214256D01*
X70824063Y-78383774D01*
X70968226Y-78527937D01*
X71137744Y-78641205D01*
X71326102Y-78719226D01*
X71526061Y-78759000D01*
X71729939Y-78759000D01*
X71929898Y-78719226D01*
X72118256Y-78641205D01*
X72287774Y-78527937D01*
X72431937Y-78383774D01*
X72534685Y-78230000D01*
X85727986Y-78230000D01*
X85662776Y-78444968D01*
X85633718Y-78740000D01*
X85662776Y-79035032D01*
X85748834Y-79318725D01*
X85888583Y-79580179D01*
X86076655Y-79809345D01*
X86142114Y-79863066D01*
X86032613Y-79921595D01*
X85898038Y-80032038D01*
X85787595Y-80166613D01*
X85705528Y-80320149D01*
X85654992Y-80486745D01*
X85637928Y-80659999D01*
X85637928Y-81515127D01*
X85399803Y-81277002D01*
X85376001Y-81247999D01*
X85260276Y-81153026D01*
X85128247Y-81082454D01*
X84984986Y-81038997D01*
X84873333Y-81028000D01*
X84873322Y-81028000D01*
X84836000Y-81024324D01*
X84798678Y-81028000D01*
X82498043Y-81028000D01*
X82394637Y-80873241D01*
X82194759Y-80673363D01*
X81959727Y-80516320D01*
X81698574Y-80408147D01*
X81421335Y-80353000D01*
X81138665Y-80353000D01*
X80861426Y-80408147D01*
X80600273Y-80516320D01*
X80365241Y-80673363D01*
X80165363Y-80873241D01*
X80008320Y-81108273D01*
X79900147Y-81369426D01*
X79845000Y-81646665D01*
X79845000Y-81929335D01*
X79900147Y-82206574D01*
X80008320Y-82467727D01*
X80165363Y-82702759D01*
X80365241Y-82902637D01*
X80600273Y-83059680D01*
X80861426Y-83167853D01*
X81138665Y-83223000D01*
X81421335Y-83223000D01*
X81698574Y-83167853D01*
X81959727Y-83059680D01*
X82194759Y-82902637D01*
X82394637Y-82702759D01*
X82498043Y-82548000D01*
X84521199Y-82548000D01*
X85325000Y-83351802D01*
X85325000Y-83413939D01*
X85364774Y-83613898D01*
X85442795Y-83802256D01*
X85556063Y-83971774D01*
X85700226Y-84115937D01*
X85869744Y-84229205D01*
X86058102Y-84307226D01*
X86258061Y-84347000D01*
X86461939Y-84347000D01*
X86616000Y-84316356D01*
X86616000Y-84521198D01*
X85029199Y-86108000D01*
X81827148Y-86108000D01*
X81801537Y-86046169D01*
X81611663Y-85762002D01*
X81369998Y-85520337D01*
X81085831Y-85330463D01*
X80770081Y-85199675D01*
X80434883Y-85133000D01*
X80093117Y-85133000D01*
X79757919Y-85199675D01*
X79442169Y-85330463D01*
X79158002Y-85520337D01*
X78916337Y-85762002D01*
X78726463Y-86046169D01*
X78595675Y-86361919D01*
X78529000Y-86697117D01*
X78529000Y-87038883D01*
X78595675Y-87374081D01*
X78621286Y-87435912D01*
X77917199Y-88140000D01*
X76526287Y-88140000D01*
X76523502Y-88130820D01*
X76488907Y-88066098D01*
X76552215Y-87857400D01*
X76574612Y-87630000D01*
X76552215Y-87402600D01*
X76485885Y-87183940D01*
X76385071Y-86995331D01*
X76426275Y-86936882D01*
X76519272Y-86727337D01*
X76527964Y-86665810D01*
X76402163Y-86487000D01*
X75637109Y-86487000D01*
X75636400Y-86486785D01*
X75465979Y-86470000D01*
X75037000Y-86470000D01*
X75037000Y-86233000D01*
X75057000Y-86233000D01*
X75057000Y-85353402D01*
X75311000Y-85353402D01*
X75311000Y-86233000D01*
X76402163Y-86233000D01*
X76527964Y-86054190D01*
X76519272Y-85992663D01*
X76426275Y-85783118D01*
X76294184Y-85595742D01*
X76128076Y-85437736D01*
X75934334Y-85315172D01*
X75720404Y-85232761D01*
X75494507Y-85193669D01*
X75311000Y-85353402D01*
X75057000Y-85353402D01*
X74873493Y-85193669D01*
X74647596Y-85232761D01*
X74433666Y-85315172D01*
X74420000Y-85323817D01*
X74420000Y-83006043D01*
X74574759Y-82902637D01*
X74774637Y-82702759D01*
X74931680Y-82467727D01*
X75039853Y-82206574D01*
X75095000Y-81929335D01*
X75095000Y-81646665D01*
X75039853Y-81369426D01*
X74931680Y-81108273D01*
X74774637Y-80873241D01*
X74574759Y-80673363D01*
X74339727Y-80516320D01*
X74078574Y-80408147D01*
X73801335Y-80353000D01*
X73518665Y-80353000D01*
X73241426Y-80408147D01*
X72980273Y-80516320D01*
X72745241Y-80673363D01*
X72545363Y-80873241D01*
X72388320Y-81108273D01*
X72280147Y-81369426D01*
X72225000Y-81646665D01*
X72225000Y-81929335D01*
X72280147Y-82206574D01*
X72388320Y-82467727D01*
X72545363Y-82702759D01*
X72745241Y-82902637D01*
X72900000Y-83006044D01*
X72900001Y-87068668D01*
X72896324Y-87106000D01*
X72900001Y-87143333D01*
X72904001Y-87183940D01*
X72910998Y-87254985D01*
X72954454Y-87398246D01*
X73025026Y-87530276D01*
X73096201Y-87617002D01*
X73120000Y-87646001D01*
X73148998Y-87669799D01*
X73620200Y-88141002D01*
X73643999Y-88170001D01*
X73672997Y-88193799D01*
X73759723Y-88264974D01*
X73804412Y-88288861D01*
X73795928Y-88375000D01*
X73795928Y-89425000D01*
X73808188Y-89549482D01*
X73844498Y-89669180D01*
X73903463Y-89779494D01*
X73982815Y-89876185D01*
X74079506Y-89955537D01*
X74189820Y-90014502D01*
X74309518Y-90050812D01*
X74434000Y-90063072D01*
X75934000Y-90063072D01*
X76058482Y-90050812D01*
X76178180Y-90014502D01*
X76288494Y-89955537D01*
X76385185Y-89876185D01*
X76464537Y-89779494D01*
X76523502Y-89669180D01*
X76526287Y-89660000D01*
X78194678Y-89660000D01*
X78232000Y-89663676D01*
X78269322Y-89660000D01*
X78269333Y-89660000D01*
X78380986Y-89649003D01*
X78524247Y-89605546D01*
X78656276Y-89534974D01*
X78772001Y-89440001D01*
X78795804Y-89410997D01*
X79696088Y-88510714D01*
X79757919Y-88536325D01*
X80093117Y-88603000D01*
X80434883Y-88603000D01*
X80770081Y-88536325D01*
X81085831Y-88405537D01*
X81369998Y-88215663D01*
X81611663Y-87973998D01*
X81801537Y-87689831D01*
X81827148Y-87628000D01*
X84525198Y-87628000D01*
X73624852Y-98528347D01*
X73562714Y-98528347D01*
X73362755Y-98568121D01*
X73174397Y-98646142D01*
X73004879Y-98759410D01*
X72957545Y-98806744D01*
X71502688Y-97351886D01*
X71539000Y-97169335D01*
X71539000Y-96886665D01*
X71483853Y-96609426D01*
X71375680Y-96348273D01*
X71218637Y-96113241D01*
X71018759Y-95913363D01*
X70783727Y-95756320D01*
X70522574Y-95648147D01*
X70245335Y-95593000D01*
X69962665Y-95593000D01*
X69685426Y-95648147D01*
X69424273Y-95756320D01*
X69189241Y-95913363D01*
X68989363Y-96113241D01*
X68885957Y-96268000D01*
X67061322Y-96268000D01*
X67023999Y-96264324D01*
X66986676Y-96268000D01*
X66986667Y-96268000D01*
X66875014Y-96278997D01*
X66731753Y-96322454D01*
X66599724Y-96393026D01*
X66599722Y-96393027D01*
X66599723Y-96393027D01*
X66512996Y-96464201D01*
X66512992Y-96464205D01*
X66483999Y-96487999D01*
X66460205Y-96516992D01*
X62736000Y-100241199D01*
X62736000Y-95823640D01*
X62772905Y-95848299D01*
X63052257Y-95964011D01*
X63348816Y-96023000D01*
X63651184Y-96023000D01*
X63947743Y-95964011D01*
X64227095Y-95848299D01*
X64478505Y-95680312D01*
X64544944Y-95613873D01*
X64550498Y-95632180D01*
X64609463Y-95742494D01*
X64688815Y-95839185D01*
X64785506Y-95918537D01*
X64895820Y-95977502D01*
X65015518Y-96013812D01*
X65140000Y-96026072D01*
X66940000Y-96026072D01*
X67064482Y-96013812D01*
X67184180Y-95977502D01*
X67294494Y-95918537D01*
X67391185Y-95839185D01*
X67470537Y-95742494D01*
X67529502Y-95632180D01*
X67565812Y-95512482D01*
X67578072Y-95388000D01*
X67578072Y-93588000D01*
X67565812Y-93463518D01*
X67529502Y-93343820D01*
X67470537Y-93233506D01*
X67391185Y-93136815D01*
X67294494Y-93057463D01*
X67184180Y-92998498D01*
X67064482Y-92962188D01*
X66940000Y-92949928D01*
X65140000Y-92949928D01*
X65015518Y-92962188D01*
X64895820Y-92998498D01*
X64785506Y-93057463D01*
X64688815Y-93136815D01*
X64609463Y-93233506D01*
X64550498Y-93343820D01*
X64544944Y-93362127D01*
X64478505Y-93295688D01*
X64337398Y-93201403D01*
X67370803Y-90168000D01*
X68885957Y-90168000D01*
X68989363Y-90322759D01*
X69189241Y-90522637D01*
X69424273Y-90679680D01*
X69685426Y-90787853D01*
X69962665Y-90843000D01*
X70245335Y-90843000D01*
X70522574Y-90787853D01*
X70783727Y-90679680D01*
X71018759Y-90522637D01*
X71218637Y-90322759D01*
X71375680Y-90087727D01*
X71483853Y-89826574D01*
X71539000Y-89549335D01*
X71539000Y-89266665D01*
X71483853Y-88989426D01*
X71375680Y-88728273D01*
X71218637Y-88493241D01*
X71018759Y-88293363D01*
X70783727Y-88136320D01*
X70522574Y-88028147D01*
X70245335Y-87973000D01*
X69962665Y-87973000D01*
X69685426Y-88028147D01*
X69424273Y-88136320D01*
X69189241Y-88293363D01*
X68989363Y-88493241D01*
X68885957Y-88648000D01*
X67093322Y-88648000D01*
X67055999Y-88644324D01*
X67018676Y-88648000D01*
X67018667Y-88648000D01*
X66907014Y-88658997D01*
X66763753Y-88702454D01*
X66631724Y-88773026D01*
X66631494Y-88773215D01*
X66544996Y-88844201D01*
X66544992Y-88844205D01*
X66515999Y-88867999D01*
X66492205Y-88896992D01*
X62989003Y-92400196D01*
X62959999Y-92423999D01*
X62933738Y-92455999D01*
X62865026Y-92539724D01*
X62821750Y-92620687D01*
X62794454Y-92671754D01*
X62750997Y-92815015D01*
X62740000Y-92926668D01*
X62740000Y-92926678D01*
X62736324Y-92964000D01*
X62740000Y-93001323D01*
X62740000Y-93149687D01*
X62736000Y-93152360D01*
X62736000Y-89214801D01*
X68612009Y-83338794D01*
X68641002Y-83315000D01*
X68664796Y-83286007D01*
X68664800Y-83286003D01*
X68735974Y-83199276D01*
X68743619Y-83184974D01*
X68806547Y-83067246D01*
X68850004Y-82923985D01*
X68861001Y-82812332D01*
X68861001Y-82812323D01*
X68864677Y-82775000D01*
X68861001Y-82737677D01*
X68861001Y-77282334D01*
X68864678Y-77245001D01*
X68850004Y-77096015D01*
X68806547Y-76952754D01*
X68735975Y-76820725D01*
X68715455Y-76795721D01*
X68641002Y-76705000D01*
X68612005Y-76681203D01*
X68386654Y-76455852D01*
X68411000Y-76333456D01*
X68411000Y-76066544D01*
X68358928Y-75804761D01*
X68256785Y-75558167D01*
X68108497Y-75336238D01*
X67919762Y-75147503D01*
X67816000Y-75078172D01*
X67816000Y-72846043D01*
X67970759Y-72742637D01*
X68170637Y-72542759D01*
X68274043Y-72388000D01*
X78679199Y-72388000D01*
X80520000Y-74228802D01*
G37*
G04 #@! TD.AperFunction*
D44*
X78822990Y-95574875D02*
X78765400Y-95864401D01*
X78765400Y-96159599D01*
X78822990Y-96449125D01*
X78935958Y-96721853D01*
X79099961Y-96967302D01*
X79308698Y-97176039D01*
X79469813Y-97283692D01*
X79253707Y-97445146D01*
X79057183Y-97663512D01*
X78907036Y-97916022D01*
X78809037Y-98192973D01*
X78929536Y-98425000D01*
X80137000Y-98425000D01*
X80137000Y-98405000D01*
X80391000Y-98405000D01*
X80391000Y-98425000D01*
X80411000Y-98425000D01*
X80411000Y-98679000D01*
X80391000Y-98679000D01*
X80391000Y-98699000D01*
X80137000Y-98699000D01*
X80137000Y-98679000D01*
X78929536Y-98679000D01*
X78809037Y-98911027D01*
X78907036Y-99187978D01*
X79057183Y-99440488D01*
X79253707Y-99658854D01*
X79474755Y-99824000D01*
X74668083Y-99824000D01*
X74699653Y-99665286D01*
X74699653Y-99603148D01*
X78890211Y-95412591D01*
X78822990Y-95574875D01*
G04 #@! TA.AperFunction,Conductor*
D45*
G36*
X78822990Y-95574875D02*
G01*
X78765400Y-95864401D01*
X78765400Y-96159599D01*
X78822990Y-96449125D01*
X78935958Y-96721853D01*
X79099961Y-96967302D01*
X79308698Y-97176039D01*
X79469813Y-97283692D01*
X79253707Y-97445146D01*
X79057183Y-97663512D01*
X78907036Y-97916022D01*
X78809037Y-98192973D01*
X78929536Y-98425000D01*
X80137000Y-98425000D01*
X80137000Y-98405000D01*
X80391000Y-98405000D01*
X80391000Y-98425000D01*
X80411000Y-98425000D01*
X80411000Y-98679000D01*
X80391000Y-98679000D01*
X80391000Y-98699000D01*
X80137000Y-98699000D01*
X80137000Y-98679000D01*
X78929536Y-98679000D01*
X78809037Y-98911027D01*
X78907036Y-99187978D01*
X79057183Y-99440488D01*
X79253707Y-99658854D01*
X79474755Y-99824000D01*
X74668083Y-99824000D01*
X74699653Y-99665286D01*
X74699653Y-99603148D01*
X78890211Y-95412591D01*
X78822990Y-95574875D01*
G37*
G04 #@! TD.AperFunction*
D44*
X89690363Y-68224759D02*
X89890241Y-68424637D01*
X90090869Y-68558692D01*
X90063486Y-68573329D01*
X89991903Y-68817298D01*
X90805000Y-69630395D01*
X91618097Y-68817298D01*
X91546514Y-68573329D01*
X91517659Y-68559676D01*
X91719759Y-68424637D01*
X91919637Y-68224759D01*
X92023043Y-68070000D01*
X92761957Y-68070000D01*
X92865363Y-68224759D01*
X93065241Y-68424637D01*
X93300273Y-68581680D01*
X93310865Y-68586067D01*
X93124869Y-68697615D01*
X92916481Y-68886586D01*
X92748963Y-69112580D01*
X92628754Y-69366913D01*
X92588096Y-69500961D01*
X92710085Y-69723000D01*
X93853000Y-69723000D01*
X93853000Y-69703000D01*
X94107000Y-69703000D01*
X94107000Y-69723000D01*
X95249915Y-69723000D01*
X95371904Y-69500961D01*
X95331246Y-69366913D01*
X95211037Y-69112580D01*
X95043519Y-68886586D01*
X94835131Y-68697615D01*
X94649135Y-68586067D01*
X94659727Y-68581680D01*
X94894759Y-68424637D01*
X95094637Y-68224759D01*
X95198043Y-68070000D01*
X95615987Y-68070000D01*
X95602795Y-68089744D01*
X95524774Y-68278102D01*
X95485000Y-68478061D01*
X95485000Y-68681939D01*
X95524774Y-68881898D01*
X95602795Y-69070256D01*
X95716063Y-69239774D01*
X95760000Y-69283711D01*
X95760001Y-72448288D01*
X95716063Y-72492226D01*
X95602795Y-72661744D01*
X95524774Y-72850102D01*
X95485000Y-73050061D01*
X95485000Y-73253939D01*
X95524774Y-73453898D01*
X95602795Y-73642256D01*
X95716063Y-73811774D01*
X95860226Y-73955937D01*
X95996759Y-74047165D01*
X95993000Y-74066061D01*
X95993000Y-74128199D01*
X95951199Y-74170000D01*
X95198043Y-74170000D01*
X95094637Y-74015241D01*
X94894759Y-73815363D01*
X94740000Y-73711957D01*
X94740000Y-73608043D01*
X94894759Y-73504637D01*
X95094637Y-73304759D01*
X95251680Y-73069727D01*
X95359853Y-72808574D01*
X95415000Y-72531335D01*
X95415000Y-72248665D01*
X95359853Y-71971426D01*
X95251680Y-71710273D01*
X95094637Y-71475241D01*
X94894759Y-71275363D01*
X94659727Y-71118320D01*
X94649135Y-71113933D01*
X94835131Y-71002385D01*
X95043519Y-70813414D01*
X95211037Y-70587420D01*
X95331246Y-70333087D01*
X95371904Y-70199039D01*
X95249915Y-69977000D01*
X94107000Y-69977000D01*
X94107000Y-69997000D01*
X93853000Y-69997000D01*
X93853000Y-69977000D01*
X92710085Y-69977000D01*
X92588096Y-70199039D01*
X92628754Y-70333087D01*
X92748963Y-70587420D01*
X92916481Y-70813414D01*
X93124869Y-71002385D01*
X93310865Y-71113933D01*
X93300273Y-71118320D01*
X93065241Y-71275363D01*
X92865363Y-71475241D01*
X92708320Y-71710273D01*
X92600147Y-71971426D01*
X92545000Y-72248665D01*
X92545000Y-72531335D01*
X92600147Y-72808574D01*
X92708320Y-73069727D01*
X92865363Y-73304759D01*
X93065241Y-73504637D01*
X93220000Y-73608044D01*
X93220001Y-73711956D01*
X93065241Y-73815363D01*
X92865363Y-74015241D01*
X92708320Y-74250273D01*
X92600147Y-74511426D01*
X92545000Y-74788665D01*
X92545000Y-75071335D01*
X92600147Y-75348574D01*
X92708320Y-75609727D01*
X92865363Y-75844759D01*
X93065241Y-76044637D01*
X93297759Y-76200000D01*
X93065241Y-76355363D01*
X92865363Y-76555241D01*
X92761957Y-76710000D01*
X89024014Y-76710000D01*
X89089224Y-76495032D01*
X89118282Y-76200000D01*
X89089224Y-75904968D01*
X89003166Y-75621275D01*
X88863417Y-75359821D01*
X88675345Y-75130655D01*
X88446179Y-74942583D01*
X88422638Y-74930000D01*
X88446179Y-74917417D01*
X88675345Y-74729345D01*
X88863417Y-74500179D01*
X89003166Y-74238725D01*
X89089224Y-73955032D01*
X89118282Y-73660000D01*
X89089224Y-73364968D01*
X89003166Y-73081275D01*
X88863417Y-72819821D01*
X88675345Y-72590655D01*
X88446179Y-72402583D01*
X88184725Y-72262834D01*
X87901032Y-72176776D01*
X87679936Y-72155000D01*
X87072064Y-72155000D01*
X86850968Y-72176776D01*
X86567275Y-72262834D01*
X86305821Y-72402583D01*
X86076655Y-72590655D01*
X85888583Y-72819821D01*
X85748834Y-73081275D01*
X85662776Y-73364968D01*
X85633718Y-73660000D01*
X85662776Y-73955032D01*
X85748834Y-74238725D01*
X85888583Y-74500179D01*
X86076655Y-74729345D01*
X86305821Y-74917417D01*
X86329362Y-74930000D01*
X86305821Y-74942583D01*
X86076655Y-75130655D01*
X85888583Y-75359821D01*
X85748834Y-75621275D01*
X85662776Y-75904968D01*
X85633718Y-76200000D01*
X85662776Y-76495032D01*
X85727986Y-76710000D01*
X82621983Y-76710000D01*
X82659853Y-76618574D01*
X82715000Y-76341335D01*
X82715000Y-76058665D01*
X82659853Y-75781426D01*
X82551680Y-75520273D01*
X82394637Y-75285241D01*
X82194759Y-75085363D01*
X82040000Y-74981957D01*
X82040000Y-73951322D01*
X82043676Y-73913999D01*
X82040000Y-73876676D01*
X82040000Y-73876667D01*
X82029003Y-73765014D01*
X81985546Y-73621753D01*
X81914974Y-73489724D01*
X81820001Y-73373999D01*
X81791004Y-73350202D01*
X80782703Y-72341901D01*
X80810247Y-72333546D01*
X80942276Y-72262974D01*
X81058001Y-72168001D01*
X81081804Y-72138997D01*
X82418099Y-70802702D01*
X89991903Y-70802702D01*
X90063486Y-71046671D01*
X90318996Y-71167571D01*
X90593184Y-71236300D01*
X90875512Y-71250217D01*
X91155130Y-71208787D01*
X91421292Y-71113603D01*
X91546514Y-71046671D01*
X91618097Y-70802702D01*
X90805000Y-69989605D01*
X89991903Y-70802702D01*
X82418099Y-70802702D01*
X83118802Y-70102000D01*
X86576678Y-70102000D01*
X86614000Y-70105676D01*
X86651322Y-70102000D01*
X86651333Y-70102000D01*
X86762986Y-70091003D01*
X86906247Y-70047546D01*
X87038276Y-69976974D01*
X87154001Y-69882001D01*
X87155222Y-69880512D01*
X89364783Y-69880512D01*
X89406213Y-70160130D01*
X89501397Y-70426292D01*
X89568329Y-70551514D01*
X89812298Y-70623097D01*
X90625395Y-69810000D01*
X90984605Y-69810000D01*
X91797702Y-70623097D01*
X92041671Y-70551514D01*
X92162571Y-70296004D01*
X92231300Y-70021816D01*
X92245217Y-69739488D01*
X92203787Y-69459870D01*
X92108603Y-69193708D01*
X92041671Y-69068486D01*
X91797702Y-68996903D01*
X90984605Y-69810000D01*
X90625395Y-69810000D01*
X89812298Y-68996903D01*
X89568329Y-69068486D01*
X89447429Y-69323996D01*
X89378700Y-69598184D01*
X89364783Y-69880512D01*
X87155222Y-69880512D01*
X87177804Y-69852997D01*
X88960802Y-68070000D01*
X89586957Y-68070000D01*
X89690363Y-68224759D01*
G04 #@! TA.AperFunction,Conductor*
D45*
G36*
X89690363Y-68224759D02*
G01*
X89890241Y-68424637D01*
X90090869Y-68558692D01*
X90063486Y-68573329D01*
X89991903Y-68817298D01*
X90805000Y-69630395D01*
X91618097Y-68817298D01*
X91546514Y-68573329D01*
X91517659Y-68559676D01*
X91719759Y-68424637D01*
X91919637Y-68224759D01*
X92023043Y-68070000D01*
X92761957Y-68070000D01*
X92865363Y-68224759D01*
X93065241Y-68424637D01*
X93300273Y-68581680D01*
X93310865Y-68586067D01*
X93124869Y-68697615D01*
X92916481Y-68886586D01*
X92748963Y-69112580D01*
X92628754Y-69366913D01*
X92588096Y-69500961D01*
X92710085Y-69723000D01*
X93853000Y-69723000D01*
X93853000Y-69703000D01*
X94107000Y-69703000D01*
X94107000Y-69723000D01*
X95249915Y-69723000D01*
X95371904Y-69500961D01*
X95331246Y-69366913D01*
X95211037Y-69112580D01*
X95043519Y-68886586D01*
X94835131Y-68697615D01*
X94649135Y-68586067D01*
X94659727Y-68581680D01*
X94894759Y-68424637D01*
X95094637Y-68224759D01*
X95198043Y-68070000D01*
X95615987Y-68070000D01*
X95602795Y-68089744D01*
X95524774Y-68278102D01*
X95485000Y-68478061D01*
X95485000Y-68681939D01*
X95524774Y-68881898D01*
X95602795Y-69070256D01*
X95716063Y-69239774D01*
X95760000Y-69283711D01*
X95760001Y-72448288D01*
X95716063Y-72492226D01*
X95602795Y-72661744D01*
X95524774Y-72850102D01*
X95485000Y-73050061D01*
X95485000Y-73253939D01*
X95524774Y-73453898D01*
X95602795Y-73642256D01*
X95716063Y-73811774D01*
X95860226Y-73955937D01*
X95996759Y-74047165D01*
X95993000Y-74066061D01*
X95993000Y-74128199D01*
X95951199Y-74170000D01*
X95198043Y-74170000D01*
X95094637Y-74015241D01*
X94894759Y-73815363D01*
X94740000Y-73711957D01*
X94740000Y-73608043D01*
X94894759Y-73504637D01*
X95094637Y-73304759D01*
X95251680Y-73069727D01*
X95359853Y-72808574D01*
X95415000Y-72531335D01*
X95415000Y-72248665D01*
X95359853Y-71971426D01*
X95251680Y-71710273D01*
X95094637Y-71475241D01*
X94894759Y-71275363D01*
X94659727Y-71118320D01*
X94649135Y-71113933D01*
X94835131Y-71002385D01*
X95043519Y-70813414D01*
X95211037Y-70587420D01*
X95331246Y-70333087D01*
X95371904Y-70199039D01*
X95249915Y-69977000D01*
X94107000Y-69977000D01*
X94107000Y-69997000D01*
X93853000Y-69997000D01*
X93853000Y-69977000D01*
X92710085Y-69977000D01*
X92588096Y-70199039D01*
X92628754Y-70333087D01*
X92748963Y-70587420D01*
X92916481Y-70813414D01*
X93124869Y-71002385D01*
X93310865Y-71113933D01*
X93300273Y-71118320D01*
X93065241Y-71275363D01*
X92865363Y-71475241D01*
X92708320Y-71710273D01*
X92600147Y-71971426D01*
X92545000Y-72248665D01*
X92545000Y-72531335D01*
X92600147Y-72808574D01*
X92708320Y-73069727D01*
X92865363Y-73304759D01*
X93065241Y-73504637D01*
X93220000Y-73608044D01*
X93220001Y-73711956D01*
X93065241Y-73815363D01*
X92865363Y-74015241D01*
X92708320Y-74250273D01*
X92600147Y-74511426D01*
X92545000Y-74788665D01*
X92545000Y-75071335D01*
X92600147Y-75348574D01*
X92708320Y-75609727D01*
X92865363Y-75844759D01*
X93065241Y-76044637D01*
X93297759Y-76200000D01*
X93065241Y-76355363D01*
X92865363Y-76555241D01*
X92761957Y-76710000D01*
X89024014Y-76710000D01*
X89089224Y-76495032D01*
X89118282Y-76200000D01*
X89089224Y-75904968D01*
X89003166Y-75621275D01*
X88863417Y-75359821D01*
X88675345Y-75130655D01*
X88446179Y-74942583D01*
X88422638Y-74930000D01*
X88446179Y-74917417D01*
X88675345Y-74729345D01*
X88863417Y-74500179D01*
X89003166Y-74238725D01*
X89089224Y-73955032D01*
X89118282Y-73660000D01*
X89089224Y-73364968D01*
X89003166Y-73081275D01*
X88863417Y-72819821D01*
X88675345Y-72590655D01*
X88446179Y-72402583D01*
X88184725Y-72262834D01*
X87901032Y-72176776D01*
X87679936Y-72155000D01*
X87072064Y-72155000D01*
X86850968Y-72176776D01*
X86567275Y-72262834D01*
X86305821Y-72402583D01*
X86076655Y-72590655D01*
X85888583Y-72819821D01*
X85748834Y-73081275D01*
X85662776Y-73364968D01*
X85633718Y-73660000D01*
X85662776Y-73955032D01*
X85748834Y-74238725D01*
X85888583Y-74500179D01*
X86076655Y-74729345D01*
X86305821Y-74917417D01*
X86329362Y-74930000D01*
X86305821Y-74942583D01*
X86076655Y-75130655D01*
X85888583Y-75359821D01*
X85748834Y-75621275D01*
X85662776Y-75904968D01*
X85633718Y-76200000D01*
X85662776Y-76495032D01*
X85727986Y-76710000D01*
X82621983Y-76710000D01*
X82659853Y-76618574D01*
X82715000Y-76341335D01*
X82715000Y-76058665D01*
X82659853Y-75781426D01*
X82551680Y-75520273D01*
X82394637Y-75285241D01*
X82194759Y-75085363D01*
X82040000Y-74981957D01*
X82040000Y-73951322D01*
X82043676Y-73913999D01*
X82040000Y-73876676D01*
X82040000Y-73876667D01*
X82029003Y-73765014D01*
X81985546Y-73621753D01*
X81914974Y-73489724D01*
X81820001Y-73373999D01*
X81791004Y-73350202D01*
X80782703Y-72341901D01*
X80810247Y-72333546D01*
X80942276Y-72262974D01*
X81058001Y-72168001D01*
X81081804Y-72138997D01*
X82418099Y-70802702D01*
X89991903Y-70802702D01*
X90063486Y-71046671D01*
X90318996Y-71167571D01*
X90593184Y-71236300D01*
X90875512Y-71250217D01*
X91155130Y-71208787D01*
X91421292Y-71113603D01*
X91546514Y-71046671D01*
X91618097Y-70802702D01*
X90805000Y-69989605D01*
X89991903Y-70802702D01*
X82418099Y-70802702D01*
X83118802Y-70102000D01*
X86576678Y-70102000D01*
X86614000Y-70105676D01*
X86651322Y-70102000D01*
X86651333Y-70102000D01*
X86762986Y-70091003D01*
X86906247Y-70047546D01*
X87038276Y-69976974D01*
X87154001Y-69882001D01*
X87155222Y-69880512D01*
X89364783Y-69880512D01*
X89406213Y-70160130D01*
X89501397Y-70426292D01*
X89568329Y-70551514D01*
X89812298Y-70623097D01*
X90625395Y-69810000D01*
X90984605Y-69810000D01*
X91797702Y-70623097D01*
X92041671Y-70551514D01*
X92162571Y-70296004D01*
X92231300Y-70021816D01*
X92245217Y-69739488D01*
X92203787Y-69459870D01*
X92108603Y-69193708D01*
X92041671Y-69068486D01*
X91797702Y-68996903D01*
X90984605Y-69810000D01*
X90625395Y-69810000D01*
X89812298Y-68996903D01*
X89568329Y-69068486D01*
X89447429Y-69323996D01*
X89378700Y-69598184D01*
X89364783Y-69880512D01*
X87155222Y-69880512D01*
X87177804Y-69852997D01*
X88960802Y-68070000D01*
X89586957Y-68070000D01*
X89690363Y-68224759D01*
G37*
G04 #@! TD.AperFunction*
D44*
X103776147Y-58509426D02*
X103721000Y-58786665D01*
X103721000Y-59069335D01*
X103776147Y-59346574D01*
X103884320Y-59607727D01*
X104041363Y-59842759D01*
X104241241Y-60042637D01*
X104476273Y-60199680D01*
X104737426Y-60307853D01*
X105014665Y-60363000D01*
X105195999Y-60363000D01*
X105196000Y-68476135D01*
X104986816Y-68423700D01*
X104704488Y-68409783D01*
X104424870Y-68451213D01*
X104158708Y-68546397D01*
X104033486Y-68613329D01*
X103961903Y-68857298D01*
X104775000Y-69670395D01*
X104789143Y-69656253D01*
X104968748Y-69835858D01*
X104954605Y-69850000D01*
X104968748Y-69864143D01*
X104789143Y-70043748D01*
X104775000Y-70029605D01*
X103961903Y-70842702D01*
X104033486Y-71086671D01*
X104062341Y-71100324D01*
X103860241Y-71235363D01*
X103660363Y-71435241D01*
X103556957Y-71590000D01*
X102791316Y-71590000D01*
X102714637Y-71475241D01*
X102714600Y-71475204D01*
X103236005Y-70953799D01*
X103265002Y-70930002D01*
X103318903Y-70864324D01*
X103359975Y-70814278D01*
X103430547Y-70682248D01*
X103446699Y-70629001D01*
X103474004Y-70538987D01*
X103479644Y-70481722D01*
X103538329Y-70591514D01*
X103782298Y-70663097D01*
X104595395Y-69850000D01*
X103782298Y-69036903D01*
X103538329Y-69108486D01*
X103485001Y-69221189D01*
X103485001Y-58682802D01*
X103859423Y-58308381D01*
X103776147Y-58509426D01*
G04 #@! TA.AperFunction,Conductor*
D45*
G36*
X103776147Y-58509426D02*
G01*
X103721000Y-58786665D01*
X103721000Y-59069335D01*
X103776147Y-59346574D01*
X103884320Y-59607727D01*
X104041363Y-59842759D01*
X104241241Y-60042637D01*
X104476273Y-60199680D01*
X104737426Y-60307853D01*
X105014665Y-60363000D01*
X105195999Y-60363000D01*
X105196000Y-68476135D01*
X104986816Y-68423700D01*
X104704488Y-68409783D01*
X104424870Y-68451213D01*
X104158708Y-68546397D01*
X104033486Y-68613329D01*
X103961903Y-68857298D01*
X104775000Y-69670395D01*
X104789143Y-69656253D01*
X104968748Y-69835858D01*
X104954605Y-69850000D01*
X104968748Y-69864143D01*
X104789143Y-70043748D01*
X104775000Y-70029605D01*
X103961903Y-70842702D01*
X104033486Y-71086671D01*
X104062341Y-71100324D01*
X103860241Y-71235363D01*
X103660363Y-71435241D01*
X103556957Y-71590000D01*
X102791316Y-71590000D01*
X102714637Y-71475241D01*
X102714600Y-71475204D01*
X103236005Y-70953799D01*
X103265002Y-70930002D01*
X103318903Y-70864324D01*
X103359975Y-70814278D01*
X103430547Y-70682248D01*
X103446699Y-70629001D01*
X103474004Y-70538987D01*
X103479644Y-70481722D01*
X103538329Y-70591514D01*
X103782298Y-70663097D01*
X104595395Y-69850000D01*
X103782298Y-69036903D01*
X103538329Y-69108486D01*
X103485001Y-69221189D01*
X103485001Y-58682802D01*
X103859423Y-58308381D01*
X103776147Y-58509426D01*
G37*
G04 #@! TD.AperFunction*
D44*
X98808000Y-55178803D02*
X98808001Y-60160668D01*
X98804324Y-60198000D01*
X98808001Y-60235333D01*
X98814393Y-60300226D01*
X98818998Y-60346985D01*
X98862454Y-60490246D01*
X98933026Y-60622276D01*
X98999273Y-60702997D01*
X99028000Y-60738001D01*
X99056998Y-60761799D01*
X100201312Y-61906114D01*
X100165000Y-62088665D01*
X100165000Y-62371335D01*
X100220147Y-62648574D01*
X100328320Y-62909727D01*
X100485363Y-63144759D01*
X100685241Y-63344637D01*
X100917759Y-63500000D01*
X100685241Y-63655363D01*
X100485363Y-63855241D01*
X100328320Y-64090273D01*
X100220147Y-64351426D01*
X100165000Y-64628665D01*
X100165000Y-64911335D01*
X100220147Y-65188574D01*
X100328320Y-65449727D01*
X100485363Y-65684759D01*
X100685241Y-65884637D01*
X100920273Y-66041680D01*
X100930865Y-66046067D01*
X100744869Y-66157615D01*
X100536481Y-66346586D01*
X100368963Y-66572580D01*
X100248754Y-66826913D01*
X100208096Y-66960961D01*
X100330085Y-67183000D01*
X101473000Y-67183000D01*
X101473000Y-67163000D01*
X101727000Y-67163000D01*
X101727000Y-67183000D01*
X101747000Y-67183000D01*
X101747000Y-67437000D01*
X101727000Y-67437000D01*
X101727000Y-67457000D01*
X101473000Y-67457000D01*
X101473000Y-67437000D01*
X100330085Y-67437000D01*
X100305872Y-67481071D01*
X99623804Y-66799003D01*
X99600001Y-66769999D01*
X99484276Y-66675026D01*
X99352247Y-66604454D01*
X99208986Y-66560997D01*
X99097333Y-66550000D01*
X99097322Y-66550000D01*
X99060000Y-66546324D01*
X99022678Y-66550000D01*
X95198043Y-66550000D01*
X95094637Y-66395241D01*
X94894759Y-66195363D01*
X94662241Y-66040000D01*
X94894759Y-65884637D01*
X95094637Y-65684759D01*
X95251680Y-65449727D01*
X95359853Y-65188574D01*
X95415000Y-64911335D01*
X95415000Y-64628665D01*
X95359853Y-64351426D01*
X95251680Y-64090273D01*
X95094637Y-63855241D01*
X94894759Y-63655363D01*
X94662241Y-63500000D01*
X94894759Y-63344637D01*
X95094637Y-63144759D01*
X95251680Y-62909727D01*
X95359853Y-62648574D01*
X95415000Y-62371335D01*
X95415000Y-62088665D01*
X95359853Y-61811426D01*
X95321983Y-61720000D01*
X96541289Y-61720000D01*
X96585226Y-61763937D01*
X96754744Y-61877205D01*
X96943102Y-61955226D01*
X97143061Y-61995000D01*
X97346939Y-61995000D01*
X97546898Y-61955226D01*
X97735256Y-61877205D01*
X97904774Y-61763937D01*
X98048937Y-61619774D01*
X98162205Y-61450256D01*
X98240226Y-61261898D01*
X98280000Y-61061939D01*
X98280000Y-60858061D01*
X98240226Y-60658102D01*
X98162205Y-60469744D01*
X98048937Y-60300226D01*
X97904774Y-60156063D01*
X97735256Y-60042795D01*
X97546898Y-59964774D01*
X97346939Y-59925000D01*
X97143061Y-59925000D01*
X96943102Y-59964774D01*
X96754744Y-60042795D01*
X96585226Y-60156063D01*
X96541289Y-60200000D01*
X95321983Y-60200000D01*
X95359853Y-60108574D01*
X95415000Y-59831335D01*
X95415000Y-59548665D01*
X95359853Y-59271426D01*
X95251680Y-59010273D01*
X95223426Y-58967988D01*
X95331960Y-58909975D01*
X95447685Y-58815002D01*
X95471488Y-58785998D01*
X97756003Y-56501484D01*
X97785001Y-56477686D01*
X97811332Y-56445602D01*
X97879974Y-56361962D01*
X97950546Y-56229932D01*
X97961846Y-56192679D01*
X97993987Y-56086724D01*
X98048937Y-56031774D01*
X98162205Y-55862256D01*
X98240226Y-55673898D01*
X98280000Y-55473939D01*
X98280000Y-55270061D01*
X98240226Y-55070102D01*
X98162205Y-54881744D01*
X98048937Y-54712226D01*
X97904774Y-54568063D01*
X97735256Y-54454795D01*
X97546898Y-54376774D01*
X97346939Y-54337000D01*
X97143061Y-54337000D01*
X96943102Y-54376774D01*
X96754744Y-54454795D01*
X96585226Y-54568063D01*
X96441063Y-54712226D01*
X96327795Y-54881744D01*
X96249774Y-55070102D01*
X96210000Y-55270061D01*
X96210000Y-55473939D01*
X96249774Y-55673898D01*
X96303728Y-55804155D01*
X95362608Y-56745276D01*
X95359853Y-56731426D01*
X95251680Y-56470273D01*
X95094637Y-56235241D01*
X94894759Y-56035363D01*
X94662241Y-55880000D01*
X94894759Y-55724637D01*
X95094637Y-55524759D01*
X95251680Y-55289727D01*
X95359853Y-55028574D01*
X95415000Y-54751335D01*
X95415000Y-54468665D01*
X95359853Y-54191426D01*
X95321983Y-54100000D01*
X97729199Y-54100000D01*
X98808000Y-55178803D01*
G04 #@! TA.AperFunction,Conductor*
D45*
G36*
X98808000Y-55178803D02*
G01*
X98808001Y-60160668D01*
X98804324Y-60198000D01*
X98808001Y-60235333D01*
X98814393Y-60300226D01*
X98818998Y-60346985D01*
X98862454Y-60490246D01*
X98933026Y-60622276D01*
X98999273Y-60702997D01*
X99028000Y-60738001D01*
X99056998Y-60761799D01*
X100201312Y-61906114D01*
X100165000Y-62088665D01*
X100165000Y-62371335D01*
X100220147Y-62648574D01*
X100328320Y-62909727D01*
X100485363Y-63144759D01*
X100685241Y-63344637D01*
X100917759Y-63500000D01*
X100685241Y-63655363D01*
X100485363Y-63855241D01*
X100328320Y-64090273D01*
X100220147Y-64351426D01*
X100165000Y-64628665D01*
X100165000Y-64911335D01*
X100220147Y-65188574D01*
X100328320Y-65449727D01*
X100485363Y-65684759D01*
X100685241Y-65884637D01*
X100920273Y-66041680D01*
X100930865Y-66046067D01*
X100744869Y-66157615D01*
X100536481Y-66346586D01*
X100368963Y-66572580D01*
X100248754Y-66826913D01*
X100208096Y-66960961D01*
X100330085Y-67183000D01*
X101473000Y-67183000D01*
X101473000Y-67163000D01*
X101727000Y-67163000D01*
X101727000Y-67183000D01*
X101747000Y-67183000D01*
X101747000Y-67437000D01*
X101727000Y-67437000D01*
X101727000Y-67457000D01*
X101473000Y-67457000D01*
X101473000Y-67437000D01*
X100330085Y-67437000D01*
X100305872Y-67481071D01*
X99623804Y-66799003D01*
X99600001Y-66769999D01*
X99484276Y-66675026D01*
X99352247Y-66604454D01*
X99208986Y-66560997D01*
X99097333Y-66550000D01*
X99097322Y-66550000D01*
X99060000Y-66546324D01*
X99022678Y-66550000D01*
X95198043Y-66550000D01*
X95094637Y-66395241D01*
X94894759Y-66195363D01*
X94662241Y-66040000D01*
X94894759Y-65884637D01*
X95094637Y-65684759D01*
X95251680Y-65449727D01*
X95359853Y-65188574D01*
X95415000Y-64911335D01*
X95415000Y-64628665D01*
X95359853Y-64351426D01*
X95251680Y-64090273D01*
X95094637Y-63855241D01*
X94894759Y-63655363D01*
X94662241Y-63500000D01*
X94894759Y-63344637D01*
X95094637Y-63144759D01*
X95251680Y-62909727D01*
X95359853Y-62648574D01*
X95415000Y-62371335D01*
X95415000Y-62088665D01*
X95359853Y-61811426D01*
X95321983Y-61720000D01*
X96541289Y-61720000D01*
X96585226Y-61763937D01*
X96754744Y-61877205D01*
X96943102Y-61955226D01*
X97143061Y-61995000D01*
X97346939Y-61995000D01*
X97546898Y-61955226D01*
X97735256Y-61877205D01*
X97904774Y-61763937D01*
X98048937Y-61619774D01*
X98162205Y-61450256D01*
X98240226Y-61261898D01*
X98280000Y-61061939D01*
X98280000Y-60858061D01*
X98240226Y-60658102D01*
X98162205Y-60469744D01*
X98048937Y-60300226D01*
X97904774Y-60156063D01*
X97735256Y-60042795D01*
X97546898Y-59964774D01*
X97346939Y-59925000D01*
X97143061Y-59925000D01*
X96943102Y-59964774D01*
X96754744Y-60042795D01*
X96585226Y-60156063D01*
X96541289Y-60200000D01*
X95321983Y-60200000D01*
X95359853Y-60108574D01*
X95415000Y-59831335D01*
X95415000Y-59548665D01*
X95359853Y-59271426D01*
X95251680Y-59010273D01*
X95223426Y-58967988D01*
X95331960Y-58909975D01*
X95447685Y-58815002D01*
X95471488Y-58785998D01*
X97756003Y-56501484D01*
X97785001Y-56477686D01*
X97811332Y-56445602D01*
X97879974Y-56361962D01*
X97950546Y-56229932D01*
X97961846Y-56192679D01*
X97993987Y-56086724D01*
X98048937Y-56031774D01*
X98162205Y-55862256D01*
X98240226Y-55673898D01*
X98280000Y-55473939D01*
X98280000Y-55270061D01*
X98240226Y-55070102D01*
X98162205Y-54881744D01*
X98048937Y-54712226D01*
X97904774Y-54568063D01*
X97735256Y-54454795D01*
X97546898Y-54376774D01*
X97346939Y-54337000D01*
X97143061Y-54337000D01*
X96943102Y-54376774D01*
X96754744Y-54454795D01*
X96585226Y-54568063D01*
X96441063Y-54712226D01*
X96327795Y-54881744D01*
X96249774Y-55070102D01*
X96210000Y-55270061D01*
X96210000Y-55473939D01*
X96249774Y-55673898D01*
X96303728Y-55804155D01*
X95362608Y-56745276D01*
X95359853Y-56731426D01*
X95251680Y-56470273D01*
X95094637Y-56235241D01*
X94894759Y-56035363D01*
X94662241Y-55880000D01*
X94894759Y-55724637D01*
X95094637Y-55524759D01*
X95251680Y-55289727D01*
X95359853Y-55028574D01*
X95415000Y-54751335D01*
X95415000Y-54468665D01*
X95359853Y-54191426D01*
X95321983Y-54100000D01*
X97729199Y-54100000D01*
X98808000Y-55178803D01*
G37*
G04 #@! TD.AperFunction*
D44*
X81277002Y-51426197D02*
X81247999Y-51449999D01*
X81204971Y-51502429D01*
X81153026Y-51565724D01*
X81120393Y-51626776D01*
X81082454Y-51697754D01*
X81052453Y-51796657D01*
X80947821Y-51852583D01*
X80720615Y-52039047D01*
X80707502Y-51995820D01*
X80648537Y-51885506D01*
X80569185Y-51788815D01*
X80472494Y-51709463D01*
X80362180Y-51650498D01*
X80242482Y-51614188D01*
X80118000Y-51601928D01*
X79533750Y-51605000D01*
X79375000Y-51763750D01*
X79375000Y-53213000D01*
X79395000Y-53213000D01*
X79395000Y-53467000D01*
X79375000Y-53467000D01*
X79375000Y-53487000D01*
X79121000Y-53487000D01*
X79121000Y-53467000D01*
X77901750Y-53467000D01*
X77743000Y-53625750D01*
X77741569Y-54005010D01*
X73994315Y-54005010D01*
X73999000Y-53981456D01*
X73999000Y-53714544D01*
X73946928Y-53452761D01*
X73844785Y-53206167D01*
X73696497Y-52984238D01*
X73507762Y-52795503D01*
X73285833Y-52647215D01*
X73118734Y-52578000D01*
X73285833Y-52508785D01*
X73507762Y-52360497D01*
X73628259Y-52240000D01*
X77739928Y-52240000D01*
X77743000Y-53054250D01*
X77901750Y-53213000D01*
X79121000Y-53213000D01*
X79121000Y-51763750D01*
X78962250Y-51605000D01*
X78378000Y-51601928D01*
X78253518Y-51614188D01*
X78133820Y-51650498D01*
X78023506Y-51709463D01*
X77926815Y-51788815D01*
X77847463Y-51885506D01*
X77788498Y-51995820D01*
X77752188Y-52115518D01*
X77739928Y-52240000D01*
X73628259Y-52240000D01*
X73696497Y-52171762D01*
X73844785Y-51949833D01*
X73946928Y-51703239D01*
X73999000Y-51441456D01*
X73999000Y-51174544D01*
X73974654Y-51052148D01*
X74208810Y-50817992D01*
X81885206Y-50817992D01*
X81277002Y-51426197D01*
G04 #@! TA.AperFunction,Conductor*
D45*
G36*
X81277002Y-51426197D02*
G01*
X81247999Y-51449999D01*
X81204971Y-51502429D01*
X81153026Y-51565724D01*
X81120393Y-51626776D01*
X81082454Y-51697754D01*
X81052453Y-51796657D01*
X80947821Y-51852583D01*
X80720615Y-52039047D01*
X80707502Y-51995820D01*
X80648537Y-51885506D01*
X80569185Y-51788815D01*
X80472494Y-51709463D01*
X80362180Y-51650498D01*
X80242482Y-51614188D01*
X80118000Y-51601928D01*
X79533750Y-51605000D01*
X79375000Y-51763750D01*
X79375000Y-53213000D01*
X79395000Y-53213000D01*
X79395000Y-53467000D01*
X79375000Y-53467000D01*
X79375000Y-53487000D01*
X79121000Y-53487000D01*
X79121000Y-53467000D01*
X77901750Y-53467000D01*
X77743000Y-53625750D01*
X77741569Y-54005010D01*
X73994315Y-54005010D01*
X73999000Y-53981456D01*
X73999000Y-53714544D01*
X73946928Y-53452761D01*
X73844785Y-53206167D01*
X73696497Y-52984238D01*
X73507762Y-52795503D01*
X73285833Y-52647215D01*
X73118734Y-52578000D01*
X73285833Y-52508785D01*
X73507762Y-52360497D01*
X73628259Y-52240000D01*
X77739928Y-52240000D01*
X77743000Y-53054250D01*
X77901750Y-53213000D01*
X79121000Y-53213000D01*
X79121000Y-51763750D01*
X78962250Y-51605000D01*
X78378000Y-51601928D01*
X78253518Y-51614188D01*
X78133820Y-51650498D01*
X78023506Y-51709463D01*
X77926815Y-51788815D01*
X77847463Y-51885506D01*
X77788498Y-51995820D01*
X77752188Y-52115518D01*
X77739928Y-52240000D01*
X73628259Y-52240000D01*
X73696497Y-52171762D01*
X73844785Y-51949833D01*
X73946928Y-51703239D01*
X73999000Y-51441456D01*
X73999000Y-51174544D01*
X73974654Y-51052148D01*
X74208810Y-50817992D01*
X81885206Y-50817992D01*
X81277002Y-51426197D01*
G37*
G04 #@! TD.AperFunction*
M02*
