G04 #@! TF.GenerationSoftware,KiCad,Pcbnew,5.1.7-a382d34a8~87~ubuntu20.04.1*
G04 #@! TF.CreationDate,2020-10-24T07:52:54+02:00*
G04 #@! TF.ProjectId,reflow_ofen_steuerung,7265666c-6f77-45f6-9f66-656e5f737465,1.0.0*
G04 #@! TF.SameCoordinates,Original*
G04 #@! TF.FileFunction,Soldermask,Bot*
G04 #@! TF.FilePolarity,Negative*
%FSLAX46Y46*%
G04 Gerber Fmt 4.6, Leading zero omitted, Abs format (unit mm)*
G04 Created by KiCad (PCBNEW 5.1.7-a382d34a8~87~ubuntu20.04.1) date 2020-10-24 07:52:54*
%MOMM*%
%LPD*%
G01*
G04 APERTURE LIST*
%ADD10O,1.702000X1.702000*%
%ADD11C,1.702000*%
%ADD12C,1.302000*%
%ADD13C,1.902000*%
%ADD14C,2.502000*%
%ADD15O,1.829200X1.829200*%
%ADD16C,1.502000*%
%ADD17C,2.102000*%
%ADD18O,1.842000X2.302000*%
%ADD19C,1.542000*%
%ADD20O,1.602000X1.152000*%
%ADD21O,2.302000X1.842000*%
%ADD22O,2.302000X2.302000*%
%ADD23C,3.302000*%
%ADD24O,2.007000X2.102000*%
%ADD25C,2.602000*%
%ADD26O,6.102000X3.352000*%
%ADD27C,0.100000*%
G04 APERTURE END LIST*
D10*
X97282000Y-96774000D03*
D11*
X89662000Y-96774000D03*
D12*
X118642000Y-113030000D03*
G36*
G01*
X120793000Y-112429999D02*
X120793000Y-113630001D01*
G75*
G02*
X120742001Y-113681000I-50999J0D01*
G01*
X119541999Y-113681000D01*
G75*
G02*
X119491000Y-113630001I0J50999D01*
G01*
X119491000Y-112429999D01*
G75*
G02*
X119541999Y-112379000I50999J0D01*
G01*
X120742001Y-112379000D01*
G75*
G02*
X120793000Y-112429999I0J-50999D01*
G01*
G37*
X139470000Y-113030000D03*
G36*
G01*
X141621000Y-112429999D02*
X141621000Y-113630001D01*
G75*
G02*
X141570001Y-113681000I-50999J0D01*
G01*
X140369999Y-113681000D01*
G75*
G02*
X140319000Y-113630001I0J50999D01*
G01*
X140319000Y-112429999D01*
G75*
G02*
X140369999Y-112379000I50999J0D01*
G01*
X141570001Y-112379000D01*
G75*
G02*
X141621000Y-112429999I0J-50999D01*
G01*
G37*
D13*
X79502000Y-115062000D03*
G36*
G01*
X82993000Y-114162000D02*
X82993000Y-115962000D01*
G75*
G02*
X82942000Y-116013000I-51000J0D01*
G01*
X81142000Y-116013000D01*
G75*
G02*
X81091000Y-115962000I0J51000D01*
G01*
X81091000Y-114162000D01*
G75*
G02*
X81142000Y-114111000I51000J0D01*
G01*
X82942000Y-114111000D01*
G75*
G02*
X82993000Y-114162000I0J-51000D01*
G01*
G37*
D10*
X86106000Y-109982000D03*
D11*
X86106000Y-117602000D03*
D14*
X132842000Y-82430000D03*
G36*
G01*
X131642000Y-73679000D02*
X134042000Y-73679000D01*
G75*
G02*
X134093000Y-73730000I0J-51000D01*
G01*
X134093000Y-76130000D01*
G75*
G02*
X134042000Y-76181000I-51000J0D01*
G01*
X131642000Y-76181000D01*
G75*
G02*
X131591000Y-76130000I0J51000D01*
G01*
X131591000Y-73730000D01*
G75*
G02*
X131642000Y-73679000I51000J0D01*
G01*
G37*
D15*
X96266000Y-119126000D03*
X96266000Y-116586000D03*
X98806000Y-119126000D03*
X98806000Y-116586000D03*
X101346000Y-119126000D03*
G36*
G01*
X100482400Y-115671400D02*
X102209600Y-115671400D01*
G75*
G02*
X102260600Y-115722400I0J-51000D01*
G01*
X102260600Y-117449600D01*
G75*
G02*
X102209600Y-117500600I-51000J0D01*
G01*
X100482400Y-117500600D01*
G75*
G02*
X100431400Y-117449600I0J51000D01*
G01*
X100431400Y-115722400D01*
G75*
G02*
X100482400Y-115671400I51000J0D01*
G01*
G37*
D16*
X87598000Y-122174000D03*
X85598000Y-122174000D03*
X83026000Y-122174000D03*
X81026000Y-122174000D03*
X78454000Y-122174000D03*
X76454000Y-122174000D03*
D17*
X96694000Y-88138000D03*
G36*
G01*
X90643000Y-89138000D02*
X90643000Y-87138000D01*
G75*
G02*
X90694000Y-87087000I51000J0D01*
G01*
X92694000Y-87087000D01*
G75*
G02*
X92745000Y-87138000I0J-51000D01*
G01*
X92745000Y-89138000D01*
G75*
G02*
X92694000Y-89189000I-51000J0D01*
G01*
X90694000Y-89189000D01*
G75*
G02*
X90643000Y-89138000I0J51000D01*
G01*
G37*
D18*
X97790000Y-73914000D03*
G36*
G01*
X94329000Y-74800346D02*
X94329000Y-73027654D01*
G75*
G02*
X94593654Y-72763000I264654J0D01*
G01*
X95906346Y-72763000D01*
G75*
G02*
X96171000Y-73027654I0J-264654D01*
G01*
X96171000Y-74800346D01*
G75*
G02*
X95906346Y-75065000I-264654J0D01*
G01*
X94593654Y-75065000D01*
G75*
G02*
X94329000Y-74800346I0J264654D01*
G01*
G37*
D19*
X104394000Y-76962000D03*
X104394000Y-74422000D03*
X104394000Y-71882000D03*
D10*
X97282000Y-102362000D03*
D11*
X89662000Y-102362000D03*
G36*
G01*
X91936000Y-110050000D02*
X90436000Y-110050000D01*
G75*
G02*
X90385000Y-109999000I0J51000D01*
G01*
X90385000Y-108949000D01*
G75*
G02*
X90436000Y-108898000I51000J0D01*
G01*
X91936000Y-108898000D01*
G75*
G02*
X91987000Y-108949000I0J-51000D01*
G01*
X91987000Y-109999000D01*
G75*
G02*
X91936000Y-110050000I-51000J0D01*
G01*
G37*
D20*
X91186000Y-106934000D03*
X91186000Y-108204000D03*
D21*
X103378000Y-94234000D03*
X103378000Y-96774000D03*
X103378000Y-99314000D03*
G36*
G01*
X104264346Y-102775000D02*
X102491654Y-102775000D01*
G75*
G02*
X102227000Y-102510346I0J264654D01*
G01*
X102227000Y-101197654D01*
G75*
G02*
X102491654Y-100933000I264654J0D01*
G01*
X104264346Y-100933000D01*
G75*
G02*
X104529000Y-101197654I0J-264654D01*
G01*
X104529000Y-102510346D01*
G75*
G02*
X104264346Y-102775000I-264654J0D01*
G01*
G37*
X73406000Y-107950000D03*
X73406000Y-110490000D03*
X73406000Y-113030000D03*
G36*
G01*
X74292346Y-116491000D02*
X72519654Y-116491000D01*
G75*
G02*
X72255000Y-116226346I0J264654D01*
G01*
X72255000Y-114913654D01*
G75*
G02*
X72519654Y-114649000I264654J0D01*
G01*
X74292346Y-114649000D01*
G75*
G02*
X74557000Y-114913654I0J-264654D01*
G01*
X74557000Y-116226346D01*
G75*
G02*
X74292346Y-116491000I-264654J0D01*
G01*
G37*
D22*
X96266000Y-107442000D03*
G36*
G01*
X107577000Y-106342000D02*
X107577000Y-108542000D01*
G75*
G02*
X107526000Y-108593000I-51000J0D01*
G01*
X105326000Y-108593000D01*
G75*
G02*
X105275000Y-108542000I0J51000D01*
G01*
X105275000Y-106342000D01*
G75*
G02*
X105326000Y-106291000I51000J0D01*
G01*
X107526000Y-106291000D01*
G75*
G02*
X107577000Y-106342000I0J-51000D01*
G01*
G37*
D18*
X82042000Y-73914000D03*
G36*
G01*
X78581000Y-74800346D02*
X78581000Y-73027654D01*
G75*
G02*
X78845654Y-72763000I264654J0D01*
G01*
X80158346Y-72763000D01*
G75*
G02*
X80423000Y-73027654I0J-264654D01*
G01*
X80423000Y-74800346D01*
G75*
G02*
X80158346Y-75065000I-264654J0D01*
G01*
X78845654Y-75065000D01*
G75*
G02*
X78581000Y-74800346I0J264654D01*
G01*
G37*
D19*
X88646000Y-76962000D03*
X88646000Y-74422000D03*
X88646000Y-71882000D03*
D10*
X149352000Y-121539000D03*
G36*
G01*
X157823000Y-120739000D02*
X157823000Y-122339000D01*
G75*
G02*
X157772000Y-122390000I-51000J0D01*
G01*
X156172000Y-122390000D01*
G75*
G02*
X156121000Y-122339000I0J51000D01*
G01*
X156121000Y-120739000D01*
G75*
G02*
X156172000Y-120688000I51000J0D01*
G01*
X157772000Y-120688000D01*
G75*
G02*
X157823000Y-120739000I0J-51000D01*
G01*
G37*
X149352000Y-72644000D03*
G36*
G01*
X157823000Y-71844000D02*
X157823000Y-73444000D01*
G75*
G02*
X157772000Y-73495000I-51000J0D01*
G01*
X156172000Y-73495000D01*
G75*
G02*
X156121000Y-73444000I0J51000D01*
G01*
X156121000Y-71844000D01*
G75*
G02*
X156172000Y-71793000I51000J0D01*
G01*
X157772000Y-71793000D01*
G75*
G02*
X157823000Y-71844000I0J-51000D01*
G01*
G37*
X121158000Y-71882000D03*
D11*
X121158000Y-79502000D03*
D23*
X216027000Y-121539000D03*
X216027000Y-72009000D03*
X71374000Y-121539000D03*
X71374000Y-72009000D03*
D19*
X83058000Y-101854000D03*
X83058000Y-99314000D03*
X83058000Y-96774000D03*
D10*
X83058000Y-92202000D03*
D11*
X83058000Y-84582000D03*
D15*
X76327000Y-99060000D03*
X73787000Y-99060000D03*
X76327000Y-96520000D03*
X73787000Y-96520000D03*
X76327000Y-93980000D03*
X73787000Y-93980000D03*
X76327000Y-91440000D03*
X73787000Y-91440000D03*
X76327000Y-88900000D03*
G36*
G01*
X72872400Y-89763600D02*
X72872400Y-88036400D01*
G75*
G02*
X72923400Y-87985400I51000J0D01*
G01*
X74650600Y-87985400D01*
G75*
G02*
X74701600Y-88036400I0J-51000D01*
G01*
X74701600Y-89763600D01*
G75*
G02*
X74650600Y-89814600I-51000J0D01*
G01*
X72923400Y-89814600D01*
G75*
G02*
X72872400Y-89763600I0J51000D01*
G01*
G37*
D11*
X120777000Y-92924000D03*
X120777000Y-90424000D03*
X106807000Y-90384000D03*
X106807000Y-87884000D03*
D10*
X117602000Y-72644000D03*
X109982000Y-105664000D03*
X117602000Y-75184000D03*
X109982000Y-103124000D03*
X117602000Y-77724000D03*
X109982000Y-100584000D03*
X117602000Y-80264000D03*
X109982000Y-98044000D03*
X117602000Y-82804000D03*
X109982000Y-95504000D03*
X117602000Y-85344000D03*
X109982000Y-92964000D03*
X117602000Y-87884000D03*
X109982000Y-90424000D03*
X117602000Y-90424000D03*
X109982000Y-87884000D03*
X117602000Y-92964000D03*
X109982000Y-85344000D03*
X117602000Y-95504000D03*
X109982000Y-82804000D03*
X117602000Y-98044000D03*
X109982000Y-80264000D03*
X117602000Y-100584000D03*
X109982000Y-77724000D03*
X117602000Y-103124000D03*
X109982000Y-75184000D03*
X117602000Y-105664000D03*
G36*
G01*
X109131000Y-73444000D02*
X109131000Y-71844000D01*
G75*
G02*
X109182000Y-71793000I51000J0D01*
G01*
X110782000Y-71793000D01*
G75*
G02*
X110833000Y-71844000I0J-51000D01*
G01*
X110833000Y-73444000D01*
G75*
G02*
X110782000Y-73495000I-51000J0D01*
G01*
X109182000Y-73495000D01*
G75*
G02*
X109131000Y-73444000I0J51000D01*
G01*
G37*
D24*
X115062000Y-117094000D03*
X117602000Y-117094000D03*
G36*
G01*
X121145500Y-116094000D02*
X121145500Y-118094000D01*
G75*
G02*
X121094500Y-118145000I-51000J0D01*
G01*
X119189500Y-118145000D01*
G75*
G02*
X119138500Y-118094000I0J51000D01*
G01*
X119138500Y-116094000D01*
G75*
G02*
X119189500Y-116043000I51000J0D01*
G01*
X121094500Y-116043000D01*
G75*
G02*
X121145500Y-116094000I0J-51000D01*
G01*
G37*
X135890000Y-117094000D03*
X138430000Y-117094000D03*
G36*
G01*
X141973500Y-116094000D02*
X141973500Y-118094000D01*
G75*
G02*
X141922500Y-118145000I-51000J0D01*
G01*
X140017500Y-118145000D01*
G75*
G02*
X139966500Y-118094000I0J51000D01*
G01*
X139966500Y-116094000D01*
G75*
G02*
X140017500Y-116043000I51000J0D01*
G01*
X141922500Y-116043000D01*
G75*
G02*
X141973500Y-116094000I0J-51000D01*
G01*
G37*
D11*
X115062000Y-110530000D03*
X115062000Y-113030000D03*
X135890000Y-110530000D03*
X135890000Y-113030000D03*
G36*
G01*
X178751500Y-107964500D02*
X178751500Y-105964500D01*
G75*
G02*
X178802500Y-105913500I51000J0D01*
G01*
X180802500Y-105913500D01*
G75*
G02*
X180853500Y-105964500I0J-51000D01*
G01*
X180853500Y-107964500D01*
G75*
G02*
X180802500Y-108015500I-51000J0D01*
G01*
X178802500Y-108015500D01*
G75*
G02*
X178751500Y-107964500I0J51000D01*
G01*
G37*
D17*
X179802500Y-86964500D03*
X152302500Y-101964500D03*
X152302500Y-91964500D03*
D25*
X208407000Y-94234000D03*
G36*
G01*
X209657000Y-100615000D02*
X207157000Y-100615000D01*
G75*
G02*
X207106000Y-100564000I0J51000D01*
G01*
X207106000Y-98064000D01*
G75*
G02*
X207157000Y-98013000I51000J0D01*
G01*
X209657000Y-98013000D01*
G75*
G02*
X209708000Y-98064000I0J-51000D01*
G01*
X209708000Y-100564000D01*
G75*
G02*
X209657000Y-100615000I-51000J0D01*
G01*
G37*
X208407000Y-106934000D03*
G36*
G01*
X209657000Y-113315000D02*
X207157000Y-113315000D01*
G75*
G02*
X207106000Y-113264000I0J51000D01*
G01*
X207106000Y-110764000D01*
G75*
G02*
X207157000Y-110713000I51000J0D01*
G01*
X209657000Y-110713000D01*
G75*
G02*
X209708000Y-110764000I0J-51000D01*
G01*
X209708000Y-113264000D01*
G75*
G02*
X209657000Y-113315000I-51000J0D01*
G01*
G37*
D17*
X162212000Y-120269000D03*
X165992000Y-120269000D03*
D25*
X177332000Y-120269000D03*
X182372000Y-120269000D03*
X187412000Y-120269000D03*
D17*
X162212000Y-70739000D03*
X165992000Y-70739000D03*
D25*
X177332000Y-70739000D03*
X182372000Y-70739000D03*
X187412000Y-70739000D03*
D26*
X193167000Y-115824000D03*
X193167000Y-78324000D03*
D23*
X193167000Y-97074000D03*
D25*
X208407000Y-81534000D03*
G36*
G01*
X209657000Y-87915000D02*
X207157000Y-87915000D01*
G75*
G02*
X207106000Y-87864000I0J51000D01*
G01*
X207106000Y-85364000D01*
G75*
G02*
X207157000Y-85313000I51000J0D01*
G01*
X209657000Y-85313000D01*
G75*
G02*
X209708000Y-85364000I0J-51000D01*
G01*
X209708000Y-87864000D01*
G75*
G02*
X209657000Y-87915000I-51000J0D01*
G01*
G37*
G36*
G01*
X145872000Y-88265000D02*
X142672000Y-88265000D01*
G75*
G02*
X142621000Y-88214000I0J51000D01*
G01*
X142621000Y-85014000D01*
G75*
G02*
X142672000Y-84963000I51000J0D01*
G01*
X145872000Y-84963000D01*
G75*
G02*
X145923000Y-85014000I0J-51000D01*
G01*
X145923000Y-88214000D01*
G75*
G02*
X145872000Y-88265000I-51000J0D01*
G01*
G37*
D23*
X144272000Y-91694000D03*
X144272000Y-96774000D03*
X144272000Y-101854000D03*
D14*
X131318000Y-101734000D03*
G36*
G01*
X130118000Y-92983000D02*
X132518000Y-92983000D01*
G75*
G02*
X132569000Y-93034000I0J-51000D01*
G01*
X132569000Y-95434000D01*
G75*
G02*
X132518000Y-95485000I-51000J0D01*
G01*
X130118000Y-95485000D01*
G75*
G02*
X130067000Y-95434000I0J51000D01*
G01*
X130067000Y-93034000D01*
G75*
G02*
X130118000Y-92983000I51000J0D01*
G01*
G37*
D27*
G36*
X74558165Y-116224720D02*
G01*
X74559000Y-116226346D01*
X74559000Y-116309288D01*
X74558990Y-116309484D01*
X74555024Y-116349756D01*
X74554948Y-116350141D01*
X74544990Y-116382965D01*
X74544840Y-116383327D01*
X74528672Y-116413575D01*
X74528454Y-116413901D01*
X74506694Y-116440417D01*
X74506417Y-116440694D01*
X74479901Y-116462454D01*
X74479575Y-116462672D01*
X74449327Y-116478840D01*
X74448965Y-116478990D01*
X74416141Y-116488948D01*
X74415756Y-116489024D01*
X74375484Y-116492990D01*
X74375288Y-116493000D01*
X74292346Y-116493000D01*
X74290614Y-116492000D01*
X74290614Y-116490000D01*
X74292150Y-116489010D01*
X74343582Y-116483945D01*
X74392856Y-116468997D01*
X74438264Y-116444727D01*
X74478064Y-116412064D01*
X74510727Y-116372264D01*
X74534997Y-116326856D01*
X74549945Y-116277582D01*
X74555010Y-116226150D01*
X74556175Y-116224524D01*
X74558165Y-116224720D01*
G37*
G36*
X72256990Y-116226150D02*
G01*
X72262055Y-116277582D01*
X72277003Y-116326856D01*
X72301273Y-116372264D01*
X72333936Y-116412064D01*
X72373736Y-116444727D01*
X72419144Y-116468997D01*
X72468418Y-116483945D01*
X72519850Y-116489010D01*
X72521476Y-116490175D01*
X72521280Y-116492165D01*
X72519654Y-116493000D01*
X72436712Y-116493000D01*
X72436516Y-116492990D01*
X72396244Y-116489024D01*
X72395859Y-116488948D01*
X72363035Y-116478990D01*
X72362673Y-116478840D01*
X72332425Y-116462672D01*
X72332099Y-116462454D01*
X72305583Y-116440694D01*
X72305306Y-116440417D01*
X72283546Y-116413901D01*
X72283328Y-116413575D01*
X72267160Y-116383327D01*
X72267010Y-116382965D01*
X72257052Y-116350141D01*
X72256976Y-116349756D01*
X72253010Y-116309484D01*
X72253000Y-116309288D01*
X72253000Y-116226346D01*
X72254000Y-116224614D01*
X72256000Y-116224614D01*
X72256990Y-116226150D01*
G37*
G36*
X72521386Y-114648000D02*
G01*
X72521386Y-114650000D01*
X72519850Y-114650990D01*
X72468418Y-114656055D01*
X72419144Y-114671003D01*
X72373736Y-114695273D01*
X72333936Y-114727936D01*
X72301273Y-114767736D01*
X72277003Y-114813144D01*
X72262055Y-114862418D01*
X72256990Y-114913850D01*
X72255825Y-114915476D01*
X72253835Y-114915280D01*
X72253000Y-114913654D01*
X72253000Y-114830712D01*
X72253010Y-114830516D01*
X72256976Y-114790244D01*
X72257052Y-114789859D01*
X72267010Y-114757035D01*
X72267160Y-114756673D01*
X72283328Y-114726425D01*
X72283546Y-114726099D01*
X72305306Y-114699583D01*
X72305583Y-114699306D01*
X72332099Y-114677546D01*
X72332425Y-114677328D01*
X72362673Y-114661160D01*
X72363035Y-114661010D01*
X72395859Y-114651052D01*
X72396244Y-114650976D01*
X72436516Y-114647010D01*
X72436712Y-114647000D01*
X72519654Y-114647000D01*
X72521386Y-114648000D01*
G37*
G36*
X74375484Y-114647010D02*
G01*
X74415756Y-114650976D01*
X74416141Y-114651052D01*
X74448965Y-114661010D01*
X74449327Y-114661160D01*
X74479575Y-114677328D01*
X74479901Y-114677546D01*
X74506417Y-114699306D01*
X74506694Y-114699583D01*
X74528454Y-114726099D01*
X74528672Y-114726425D01*
X74544840Y-114756673D01*
X74544990Y-114757035D01*
X74554948Y-114789859D01*
X74555024Y-114790244D01*
X74558990Y-114830516D01*
X74559000Y-114830712D01*
X74559000Y-114913654D01*
X74558000Y-114915386D01*
X74556000Y-114915386D01*
X74555010Y-114913850D01*
X74549945Y-114862418D01*
X74534997Y-114813144D01*
X74510727Y-114767736D01*
X74478064Y-114727936D01*
X74438264Y-114695273D01*
X74392856Y-114671003D01*
X74343582Y-114656055D01*
X74292150Y-114650990D01*
X74290524Y-114649825D01*
X74290720Y-114647835D01*
X74292346Y-114647000D01*
X74375288Y-114647000D01*
X74375484Y-114647010D01*
G37*
G36*
X119492165Y-112758248D02*
G01*
X119493000Y-112759874D01*
X119493000Y-113300126D01*
X119492000Y-113301858D01*
X119490000Y-113301858D01*
X119489010Y-113300322D01*
X119486628Y-113276135D01*
X119479628Y-113253060D01*
X119468263Y-113231796D01*
X119452968Y-113213159D01*
X119434331Y-113197864D01*
X119413067Y-113186499D01*
X119389992Y-113179499D01*
X119366001Y-113177136D01*
X119342010Y-113179499D01*
X119318935Y-113186499D01*
X119297671Y-113197864D01*
X119279034Y-113213159D01*
X119263739Y-113231796D01*
X119255175Y-113247820D01*
X119253476Y-113248876D01*
X119251713Y-113247933D01*
X119251563Y-113246112D01*
X119263044Y-113218393D01*
X119287865Y-113093610D01*
X119287865Y-112966390D01*
X119263044Y-112841607D01*
X119251563Y-112813888D01*
X119251824Y-112811905D01*
X119253672Y-112811140D01*
X119255175Y-112812180D01*
X119263739Y-112828204D01*
X119279035Y-112846841D01*
X119297672Y-112862136D01*
X119318935Y-112873501D01*
X119342010Y-112880501D01*
X119366001Y-112882864D01*
X119389992Y-112880501D01*
X119413067Y-112873501D01*
X119434331Y-112862136D01*
X119452968Y-112846840D01*
X119468263Y-112828203D01*
X119479628Y-112806940D01*
X119486628Y-112783865D01*
X119489010Y-112759678D01*
X119490175Y-112758052D01*
X119492165Y-112758248D01*
G37*
G36*
X140320165Y-112758248D02*
G01*
X140321000Y-112759874D01*
X140321000Y-113300126D01*
X140320000Y-113301858D01*
X140318000Y-113301858D01*
X140317010Y-113300322D01*
X140314628Y-113276135D01*
X140307628Y-113253060D01*
X140296263Y-113231796D01*
X140280968Y-113213159D01*
X140262331Y-113197864D01*
X140241067Y-113186499D01*
X140217992Y-113179499D01*
X140194001Y-113177136D01*
X140170010Y-113179499D01*
X140146935Y-113186499D01*
X140125671Y-113197864D01*
X140107034Y-113213159D01*
X140091739Y-113231796D01*
X140083175Y-113247820D01*
X140081476Y-113248876D01*
X140079713Y-113247933D01*
X140079563Y-113246112D01*
X140091044Y-113218393D01*
X140115865Y-113093610D01*
X140115865Y-112966390D01*
X140091044Y-112841607D01*
X140079563Y-112813888D01*
X140079824Y-112811905D01*
X140081672Y-112811140D01*
X140083175Y-112812180D01*
X140091739Y-112828204D01*
X140107035Y-112846841D01*
X140125672Y-112862136D01*
X140146935Y-112873501D01*
X140170010Y-112880501D01*
X140194001Y-112882864D01*
X140217992Y-112880501D01*
X140241067Y-112873501D01*
X140262331Y-112862136D01*
X140280968Y-112846840D01*
X140296263Y-112828203D01*
X140307628Y-112806940D01*
X140314628Y-112783865D01*
X140317010Y-112759678D01*
X140318175Y-112758052D01*
X140320165Y-112758248D01*
G37*
G36*
X91735674Y-108680390D02*
G01*
X91735115Y-108682130D01*
X91722269Y-108694976D01*
X91708874Y-108715024D01*
X91699647Y-108737297D01*
X91694943Y-108760948D01*
X91694943Y-108785054D01*
X91699647Y-108808704D01*
X91708874Y-108830978D01*
X91722268Y-108851025D01*
X91739315Y-108868072D01*
X91759363Y-108881467D01*
X91781636Y-108890694D01*
X91805333Y-108895407D01*
X91817438Y-108896002D01*
X91819119Y-108897086D01*
X91819021Y-108899084D01*
X91817340Y-108900000D01*
X90554660Y-108900000D01*
X90552928Y-108899000D01*
X90552928Y-108897000D01*
X90554464Y-108896010D01*
X90578651Y-108893628D01*
X90601726Y-108886628D01*
X90622990Y-108875263D01*
X90641627Y-108859968D01*
X90656922Y-108841331D01*
X90668287Y-108820067D01*
X90675287Y-108796992D01*
X90677650Y-108773001D01*
X90675287Y-108749010D01*
X90668287Y-108725935D01*
X90656922Y-108704671D01*
X90641595Y-108685995D01*
X90640123Y-108684661D01*
X90639511Y-108682757D01*
X90640854Y-108681275D01*
X90642409Y-108681415D01*
X90741343Y-108734298D01*
X90849023Y-108766962D01*
X90961094Y-108778000D01*
X91410906Y-108778000D01*
X91522977Y-108766962D01*
X91630657Y-108734298D01*
X91729892Y-108681255D01*
X91732432Y-108679170D01*
X91734406Y-108678844D01*
X91735674Y-108680390D01*
G37*
G36*
X90734067Y-107460409D02*
G01*
X90741343Y-107464298D01*
X90849023Y-107496962D01*
X90961094Y-107508000D01*
X91410906Y-107508000D01*
X91522977Y-107496962D01*
X91630657Y-107464298D01*
X91637933Y-107460409D01*
X91639932Y-107460475D01*
X91640875Y-107462238D01*
X91639987Y-107463836D01*
X91624882Y-107473929D01*
X91607835Y-107490976D01*
X91594440Y-107511024D01*
X91585214Y-107533298D01*
X91580510Y-107556948D01*
X91580510Y-107581054D01*
X91585215Y-107604704D01*
X91594441Y-107626978D01*
X91607836Y-107647025D01*
X91624883Y-107664072D01*
X91639987Y-107674164D01*
X91640872Y-107675958D01*
X91639761Y-107677621D01*
X91637933Y-107677591D01*
X91630657Y-107673702D01*
X91522977Y-107641038D01*
X91410906Y-107630000D01*
X90961094Y-107630000D01*
X90849023Y-107641038D01*
X90741343Y-107673702D01*
X90734067Y-107677591D01*
X90732068Y-107677525D01*
X90731125Y-107675762D01*
X90732013Y-107674164D01*
X90747118Y-107664071D01*
X90764165Y-107647024D01*
X90777560Y-107626976D01*
X90786786Y-107604702D01*
X90791490Y-107581052D01*
X90791490Y-107556946D01*
X90786785Y-107533296D01*
X90777559Y-107511022D01*
X90764164Y-107490975D01*
X90747117Y-107473928D01*
X90732013Y-107463836D01*
X90731128Y-107462042D01*
X90732239Y-107460379D01*
X90734067Y-107460409D01*
G37*
G36*
X104530165Y-102508720D02*
G01*
X104531000Y-102510346D01*
X104531000Y-102593288D01*
X104530990Y-102593484D01*
X104527024Y-102633756D01*
X104526948Y-102634141D01*
X104516990Y-102666965D01*
X104516840Y-102667327D01*
X104500672Y-102697575D01*
X104500454Y-102697901D01*
X104478694Y-102724417D01*
X104478417Y-102724694D01*
X104451901Y-102746454D01*
X104451575Y-102746672D01*
X104421327Y-102762840D01*
X104420965Y-102762990D01*
X104388141Y-102772948D01*
X104387756Y-102773024D01*
X104347484Y-102776990D01*
X104347288Y-102777000D01*
X104264346Y-102777000D01*
X104262614Y-102776000D01*
X104262614Y-102774000D01*
X104264150Y-102773010D01*
X104315582Y-102767945D01*
X104364856Y-102752997D01*
X104410264Y-102728727D01*
X104450064Y-102696064D01*
X104482727Y-102656264D01*
X104506997Y-102610856D01*
X104521945Y-102561582D01*
X104527010Y-102510150D01*
X104528175Y-102508524D01*
X104530165Y-102508720D01*
G37*
G36*
X102228990Y-102510150D02*
G01*
X102234055Y-102561582D01*
X102249003Y-102610856D01*
X102273273Y-102656264D01*
X102305936Y-102696064D01*
X102345736Y-102728727D01*
X102391144Y-102752997D01*
X102440418Y-102767945D01*
X102491850Y-102773010D01*
X102493476Y-102774175D01*
X102493280Y-102776165D01*
X102491654Y-102777000D01*
X102408712Y-102777000D01*
X102408516Y-102776990D01*
X102368244Y-102773024D01*
X102367859Y-102772948D01*
X102335035Y-102762990D01*
X102334673Y-102762840D01*
X102304425Y-102746672D01*
X102304099Y-102746454D01*
X102277583Y-102724694D01*
X102277306Y-102724417D01*
X102255546Y-102697901D01*
X102255328Y-102697575D01*
X102239160Y-102667327D01*
X102239010Y-102666965D01*
X102229052Y-102634141D01*
X102228976Y-102633756D01*
X102225010Y-102593484D01*
X102225000Y-102593288D01*
X102225000Y-102510346D01*
X102226000Y-102508614D01*
X102228000Y-102508614D01*
X102228990Y-102510150D01*
G37*
G36*
X102493386Y-100932000D02*
G01*
X102493386Y-100934000D01*
X102491850Y-100934990D01*
X102440418Y-100940055D01*
X102391144Y-100955003D01*
X102345736Y-100979273D01*
X102305936Y-101011936D01*
X102273273Y-101051736D01*
X102249003Y-101097144D01*
X102234055Y-101146418D01*
X102228990Y-101197850D01*
X102227825Y-101199476D01*
X102225835Y-101199280D01*
X102225000Y-101197654D01*
X102225000Y-101114712D01*
X102225010Y-101114516D01*
X102228976Y-101074244D01*
X102229052Y-101073859D01*
X102239010Y-101041035D01*
X102239160Y-101040673D01*
X102255328Y-101010425D01*
X102255546Y-101010099D01*
X102277306Y-100983583D01*
X102277583Y-100983306D01*
X102304099Y-100961546D01*
X102304425Y-100961328D01*
X102334673Y-100945160D01*
X102335035Y-100945010D01*
X102367859Y-100935052D01*
X102368244Y-100934976D01*
X102408516Y-100931010D01*
X102408712Y-100931000D01*
X102491654Y-100931000D01*
X102493386Y-100932000D01*
G37*
G36*
X104347484Y-100931010D02*
G01*
X104387756Y-100934976D01*
X104388141Y-100935052D01*
X104420965Y-100945010D01*
X104421327Y-100945160D01*
X104451575Y-100961328D01*
X104451901Y-100961546D01*
X104478417Y-100983306D01*
X104478694Y-100983583D01*
X104500454Y-101010099D01*
X104500672Y-101010425D01*
X104516840Y-101040673D01*
X104516990Y-101041035D01*
X104526948Y-101073859D01*
X104527024Y-101074244D01*
X104530990Y-101114516D01*
X104531000Y-101114712D01*
X104531000Y-101197654D01*
X104530000Y-101199386D01*
X104528000Y-101199386D01*
X104527010Y-101197850D01*
X104521945Y-101146418D01*
X104506997Y-101097144D01*
X104482727Y-101051736D01*
X104450064Y-101011936D01*
X104410264Y-100979273D01*
X104364856Y-100955003D01*
X104315582Y-100940055D01*
X104264150Y-100934990D01*
X104262524Y-100933825D01*
X104262720Y-100931835D01*
X104264346Y-100931000D01*
X104347288Y-100931000D01*
X104347484Y-100931010D01*
G37*
G36*
X80424165Y-74798720D02*
G01*
X80425000Y-74800346D01*
X80425000Y-74883288D01*
X80424990Y-74883484D01*
X80421024Y-74923756D01*
X80420948Y-74924141D01*
X80410990Y-74956965D01*
X80410840Y-74957327D01*
X80394672Y-74987575D01*
X80394454Y-74987901D01*
X80372694Y-75014417D01*
X80372417Y-75014694D01*
X80345901Y-75036454D01*
X80345575Y-75036672D01*
X80315327Y-75052840D01*
X80314965Y-75052990D01*
X80282141Y-75062948D01*
X80281756Y-75063024D01*
X80241484Y-75066990D01*
X80241288Y-75067000D01*
X80158346Y-75067000D01*
X80156614Y-75066000D01*
X80156614Y-75064000D01*
X80158150Y-75063010D01*
X80209582Y-75057945D01*
X80258856Y-75042997D01*
X80304264Y-75018727D01*
X80344064Y-74986064D01*
X80376727Y-74946264D01*
X80400997Y-74900856D01*
X80415945Y-74851582D01*
X80421010Y-74800150D01*
X80422175Y-74798524D01*
X80424165Y-74798720D01*
G37*
G36*
X78582990Y-74800150D02*
G01*
X78588055Y-74851582D01*
X78603003Y-74900856D01*
X78627273Y-74946264D01*
X78659936Y-74986064D01*
X78699736Y-75018727D01*
X78745144Y-75042997D01*
X78794418Y-75057945D01*
X78845850Y-75063010D01*
X78847476Y-75064175D01*
X78847280Y-75066165D01*
X78845654Y-75067000D01*
X78762712Y-75067000D01*
X78762516Y-75066990D01*
X78722244Y-75063024D01*
X78721859Y-75062948D01*
X78689035Y-75052990D01*
X78688673Y-75052840D01*
X78658425Y-75036672D01*
X78658099Y-75036454D01*
X78631583Y-75014694D01*
X78631306Y-75014417D01*
X78609546Y-74987901D01*
X78609328Y-74987575D01*
X78593160Y-74957327D01*
X78593010Y-74956965D01*
X78583052Y-74924141D01*
X78582976Y-74923756D01*
X78579010Y-74883484D01*
X78579000Y-74883288D01*
X78579000Y-74800346D01*
X78580000Y-74798614D01*
X78582000Y-74798614D01*
X78582990Y-74800150D01*
G37*
G36*
X96172165Y-74798720D02*
G01*
X96173000Y-74800346D01*
X96173000Y-74883288D01*
X96172990Y-74883484D01*
X96169024Y-74923756D01*
X96168948Y-74924141D01*
X96158990Y-74956965D01*
X96158840Y-74957327D01*
X96142672Y-74987575D01*
X96142454Y-74987901D01*
X96120694Y-75014417D01*
X96120417Y-75014694D01*
X96093901Y-75036454D01*
X96093575Y-75036672D01*
X96063327Y-75052840D01*
X96062965Y-75052990D01*
X96030141Y-75062948D01*
X96029756Y-75063024D01*
X95989484Y-75066990D01*
X95989288Y-75067000D01*
X95906346Y-75067000D01*
X95904614Y-75066000D01*
X95904614Y-75064000D01*
X95906150Y-75063010D01*
X95957582Y-75057945D01*
X96006856Y-75042997D01*
X96052264Y-75018727D01*
X96092064Y-74986064D01*
X96124727Y-74946264D01*
X96148997Y-74900856D01*
X96163945Y-74851582D01*
X96169010Y-74800150D01*
X96170175Y-74798524D01*
X96172165Y-74798720D01*
G37*
G36*
X94330990Y-74800150D02*
G01*
X94336055Y-74851582D01*
X94351003Y-74900856D01*
X94375273Y-74946264D01*
X94407936Y-74986064D01*
X94447736Y-75018727D01*
X94493144Y-75042997D01*
X94542418Y-75057945D01*
X94593850Y-75063010D01*
X94595476Y-75064175D01*
X94595280Y-75066165D01*
X94593654Y-75067000D01*
X94510712Y-75067000D01*
X94510516Y-75066990D01*
X94470244Y-75063024D01*
X94469859Y-75062948D01*
X94437035Y-75052990D01*
X94436673Y-75052840D01*
X94406425Y-75036672D01*
X94406099Y-75036454D01*
X94379583Y-75014694D01*
X94379306Y-75014417D01*
X94357546Y-74987901D01*
X94357328Y-74987575D01*
X94341160Y-74957327D01*
X94341010Y-74956965D01*
X94331052Y-74924141D01*
X94330976Y-74923756D01*
X94327010Y-74883484D01*
X94327000Y-74883288D01*
X94327000Y-74800346D01*
X94328000Y-74798614D01*
X94330000Y-74798614D01*
X94330990Y-74800150D01*
G37*
G36*
X78847386Y-72762000D02*
G01*
X78847386Y-72764000D01*
X78845850Y-72764990D01*
X78794418Y-72770055D01*
X78745144Y-72785003D01*
X78699736Y-72809273D01*
X78659936Y-72841936D01*
X78627273Y-72881736D01*
X78603003Y-72927144D01*
X78588055Y-72976418D01*
X78582990Y-73027850D01*
X78581825Y-73029476D01*
X78579835Y-73029280D01*
X78579000Y-73027654D01*
X78579000Y-72944712D01*
X78579010Y-72944516D01*
X78582976Y-72904244D01*
X78583052Y-72903859D01*
X78593010Y-72871035D01*
X78593160Y-72870673D01*
X78609328Y-72840425D01*
X78609546Y-72840099D01*
X78631306Y-72813583D01*
X78631583Y-72813306D01*
X78658099Y-72791546D01*
X78658425Y-72791328D01*
X78688673Y-72775160D01*
X78689035Y-72775010D01*
X78721859Y-72765052D01*
X78722244Y-72764976D01*
X78762516Y-72761010D01*
X78762712Y-72761000D01*
X78845654Y-72761000D01*
X78847386Y-72762000D01*
G37*
G36*
X94595386Y-72762000D02*
G01*
X94595386Y-72764000D01*
X94593850Y-72764990D01*
X94542418Y-72770055D01*
X94493144Y-72785003D01*
X94447736Y-72809273D01*
X94407936Y-72841936D01*
X94375273Y-72881736D01*
X94351003Y-72927144D01*
X94336055Y-72976418D01*
X94330990Y-73027850D01*
X94329825Y-73029476D01*
X94327835Y-73029280D01*
X94327000Y-73027654D01*
X94327000Y-72944712D01*
X94327010Y-72944516D01*
X94330976Y-72904244D01*
X94331052Y-72903859D01*
X94341010Y-72871035D01*
X94341160Y-72870673D01*
X94357328Y-72840425D01*
X94357546Y-72840099D01*
X94379306Y-72813583D01*
X94379583Y-72813306D01*
X94406099Y-72791546D01*
X94406425Y-72791328D01*
X94436673Y-72775160D01*
X94437035Y-72775010D01*
X94469859Y-72765052D01*
X94470244Y-72764976D01*
X94510516Y-72761010D01*
X94510712Y-72761000D01*
X94593654Y-72761000D01*
X94595386Y-72762000D01*
G37*
G36*
X80241484Y-72761010D02*
G01*
X80281756Y-72764976D01*
X80282141Y-72765052D01*
X80314965Y-72775010D01*
X80315327Y-72775160D01*
X80345575Y-72791328D01*
X80345901Y-72791546D01*
X80372417Y-72813306D01*
X80372694Y-72813583D01*
X80394454Y-72840099D01*
X80394672Y-72840425D01*
X80410840Y-72870673D01*
X80410990Y-72871035D01*
X80420948Y-72903859D01*
X80421024Y-72904244D01*
X80424990Y-72944516D01*
X80425000Y-72944712D01*
X80425000Y-73027654D01*
X80424000Y-73029386D01*
X80422000Y-73029386D01*
X80421010Y-73027850D01*
X80415945Y-72976418D01*
X80400997Y-72927144D01*
X80376727Y-72881736D01*
X80344064Y-72841936D01*
X80304264Y-72809273D01*
X80258856Y-72785003D01*
X80209582Y-72770055D01*
X80158150Y-72764990D01*
X80156524Y-72763825D01*
X80156720Y-72761835D01*
X80158346Y-72761000D01*
X80241288Y-72761000D01*
X80241484Y-72761010D01*
G37*
G36*
X95989484Y-72761010D02*
G01*
X96029756Y-72764976D01*
X96030141Y-72765052D01*
X96062965Y-72775010D01*
X96063327Y-72775160D01*
X96093575Y-72791328D01*
X96093901Y-72791546D01*
X96120417Y-72813306D01*
X96120694Y-72813583D01*
X96142454Y-72840099D01*
X96142672Y-72840425D01*
X96158840Y-72870673D01*
X96158990Y-72871035D01*
X96168948Y-72903859D01*
X96169024Y-72904244D01*
X96172990Y-72944516D01*
X96173000Y-72944712D01*
X96173000Y-73027654D01*
X96172000Y-73029386D01*
X96170000Y-73029386D01*
X96169010Y-73027850D01*
X96163945Y-72976418D01*
X96148997Y-72927144D01*
X96124727Y-72881736D01*
X96092064Y-72841936D01*
X96052264Y-72809273D01*
X96006856Y-72785003D01*
X95957582Y-72770055D01*
X95906150Y-72764990D01*
X95904524Y-72763825D01*
X95904720Y-72761835D01*
X95906346Y-72761000D01*
X95989288Y-72761000D01*
X95989484Y-72761010D01*
G37*
M02*
