G04 #@! TF.GenerationSoftware,KiCad,Pcbnew,5.1.8-db9833491~87~ubuntu20.04.1*
G04 #@! TF.CreationDate,2020-11-20T22:45:01+01:00*
G04 #@! TF.ProjectId,reflow_ofen_steuerung,7265666c-6f77-45f6-9f66-656e5f737465,1.0.1*
G04 #@! TF.SameCoordinates,Original*
G04 #@! TF.FileFunction,Copper,L1,Top*
G04 #@! TF.FilePolarity,Positive*
%FSLAX46Y46*%
G04 Gerber Fmt 4.6, Leading zero omitted, Abs format (unit mm)*
G04 Created by KiCad (PCBNEW 5.1.8-db9833491~87~ubuntu20.04.1) date 2020-11-20 22:45:01*
%MOMM*%
%LPD*%
G01*
G04 APERTURE LIST*
G04 #@! TA.AperFunction,ComponentPad*
%ADD10R,2.000000X2.000000*%
G04 #@! TD*
G04 #@! TA.AperFunction,ComponentPad*
%ADD11C,2.000000*%
G04 #@! TD*
G04 #@! TA.AperFunction,ComponentPad*
%ADD12O,1.600000X1.600000*%
G04 #@! TD*
G04 #@! TA.AperFunction,ComponentPad*
%ADD13C,1.600000*%
G04 #@! TD*
G04 #@! TA.AperFunction,ComponentPad*
%ADD14C,1.200000*%
G04 #@! TD*
G04 #@! TA.AperFunction,ComponentPad*
%ADD15R,1.200000X1.200000*%
G04 #@! TD*
G04 #@! TA.AperFunction,ComponentPad*
%ADD16C,1.800000*%
G04 #@! TD*
G04 #@! TA.AperFunction,ComponentPad*
%ADD17R,1.800000X1.800000*%
G04 #@! TD*
G04 #@! TA.AperFunction,ComponentPad*
%ADD18C,2.400000*%
G04 #@! TD*
G04 #@! TA.AperFunction,ComponentPad*
%ADD19R,2.400000X2.400000*%
G04 #@! TD*
G04 #@! TA.AperFunction,ComponentPad*
%ADD20O,1.727200X1.727200*%
G04 #@! TD*
G04 #@! TA.AperFunction,ComponentPad*
%ADD21R,1.727200X1.727200*%
G04 #@! TD*
G04 #@! TA.AperFunction,ComponentPad*
%ADD22C,1.400000*%
G04 #@! TD*
G04 #@! TA.AperFunction,ComponentPad*
%ADD23O,1.740000X2.200000*%
G04 #@! TD*
G04 #@! TA.AperFunction,ComponentPad*
%ADD24C,1.440000*%
G04 #@! TD*
G04 #@! TA.AperFunction,ComponentPad*
%ADD25R,1.500000X1.050000*%
G04 #@! TD*
G04 #@! TA.AperFunction,ComponentPad*
%ADD26O,1.500000X1.050000*%
G04 #@! TD*
G04 #@! TA.AperFunction,ComponentPad*
%ADD27O,2.200000X1.740000*%
G04 #@! TD*
G04 #@! TA.AperFunction,ComponentPad*
%ADD28O,2.200000X2.200000*%
G04 #@! TD*
G04 #@! TA.AperFunction,ComponentPad*
%ADD29R,2.200000X2.200000*%
G04 #@! TD*
G04 #@! TA.AperFunction,ComponentPad*
%ADD30R,1.600000X1.600000*%
G04 #@! TD*
G04 #@! TA.AperFunction,ComponentPad*
%ADD31O,1.905000X2.000000*%
G04 #@! TD*
G04 #@! TA.AperFunction,ComponentPad*
%ADD32R,1.905000X2.000000*%
G04 #@! TD*
G04 #@! TA.AperFunction,ComponentPad*
%ADD33C,2.500000*%
G04 #@! TD*
G04 #@! TA.AperFunction,ComponentPad*
%ADD34R,2.500000X2.500000*%
G04 #@! TD*
G04 #@! TA.AperFunction,ComponentPad*
%ADD35O,6.000000X3.250000*%
G04 #@! TD*
G04 #@! TA.AperFunction,ViaPad*
%ADD36C,0.800000*%
G04 #@! TD*
G04 #@! TA.AperFunction,Conductor*
%ADD37C,3.000000*%
G04 #@! TD*
G04 #@! TA.AperFunction,Conductor*
%ADD38C,0.250000*%
G04 #@! TD*
G04 #@! TA.AperFunction,Conductor*
%ADD39C,0.254000*%
G04 #@! TD*
G04 #@! TA.AperFunction,Conductor*
%ADD40C,0.100000*%
G04 #@! TD*
G04 APERTURE END LIST*
D10*
X144780000Y-104140000D03*
D11*
X144780000Y-99140000D03*
X144780000Y-94140000D03*
X144780000Y-89140000D03*
D12*
X97282000Y-96774000D03*
D13*
X89662000Y-96774000D03*
D14*
X118642000Y-113030000D03*
D15*
X120142000Y-113030000D03*
D14*
X139470000Y-113030000D03*
D15*
X140970000Y-113030000D03*
D16*
X79502000Y-115062000D03*
D17*
X82042000Y-115062000D03*
D12*
X86106000Y-109982000D03*
D13*
X86106000Y-117602000D03*
D18*
X132842000Y-82430000D03*
D19*
X132842000Y-74930000D03*
D20*
X96266000Y-119126000D03*
X96266000Y-116586000D03*
X98806000Y-119126000D03*
X98806000Y-116586000D03*
X101346000Y-119126000D03*
D21*
X101346000Y-116586000D03*
D22*
X87598000Y-122174000D03*
X85598000Y-122174000D03*
X83026000Y-122174000D03*
X81026000Y-122174000D03*
X78454000Y-122174000D03*
X76454000Y-122174000D03*
D11*
X96694000Y-88138000D03*
D10*
X91694000Y-88138000D03*
D23*
X97790000Y-73914000D03*
G04 #@! TA.AperFunction,ComponentPad*
G36*
G01*
X94380000Y-74764001D02*
X94380000Y-73063999D01*
G75*
G02*
X94629999Y-72814000I249999J0D01*
G01*
X95870001Y-72814000D01*
G75*
G02*
X96120000Y-73063999I0J-249999D01*
G01*
X96120000Y-74764001D01*
G75*
G02*
X95870001Y-75014000I-249999J0D01*
G01*
X94629999Y-75014000D01*
G75*
G02*
X94380000Y-74764001I0J249999D01*
G01*
G37*
G04 #@! TD.AperFunction*
D24*
X104394000Y-76962000D03*
X104394000Y-74422000D03*
X104394000Y-71882000D03*
D12*
X97282000Y-102362000D03*
D13*
X89662000Y-102362000D03*
D25*
X91186000Y-109474000D03*
D26*
X91186000Y-106934000D03*
X91186000Y-108204000D03*
D27*
X103378000Y-94234000D03*
X103378000Y-96774000D03*
X103378000Y-99314000D03*
G04 #@! TA.AperFunction,ComponentPad*
G36*
G01*
X104228001Y-102724000D02*
X102527999Y-102724000D01*
G75*
G02*
X102278000Y-102474001I0J249999D01*
G01*
X102278000Y-101233999D01*
G75*
G02*
X102527999Y-100984000I249999J0D01*
G01*
X104228001Y-100984000D01*
G75*
G02*
X104478000Y-101233999I0J-249999D01*
G01*
X104478000Y-102474001D01*
G75*
G02*
X104228001Y-102724000I-249999J0D01*
G01*
G37*
G04 #@! TD.AperFunction*
X73406000Y-107950000D03*
X73406000Y-110490000D03*
X73406000Y-113030000D03*
G04 #@! TA.AperFunction,ComponentPad*
G36*
G01*
X74256001Y-116440000D02*
X72555999Y-116440000D01*
G75*
G02*
X72306000Y-116190001I0J249999D01*
G01*
X72306000Y-114949999D01*
G75*
G02*
X72555999Y-114700000I249999J0D01*
G01*
X74256001Y-114700000D01*
G75*
G02*
X74506000Y-114949999I0J-249999D01*
G01*
X74506000Y-116190001D01*
G75*
G02*
X74256001Y-116440000I-249999J0D01*
G01*
G37*
G04 #@! TD.AperFunction*
D28*
X96266000Y-107442000D03*
D29*
X106426000Y-107442000D03*
D23*
X82042000Y-73914000D03*
G04 #@! TA.AperFunction,ComponentPad*
G36*
G01*
X78632000Y-74764001D02*
X78632000Y-73063999D01*
G75*
G02*
X78881999Y-72814000I249999J0D01*
G01*
X80122001Y-72814000D01*
G75*
G02*
X80372000Y-73063999I0J-249999D01*
G01*
X80372000Y-74764001D01*
G75*
G02*
X80122001Y-75014000I-249999J0D01*
G01*
X78881999Y-75014000D01*
G75*
G02*
X78632000Y-74764001I0J249999D01*
G01*
G37*
G04 #@! TD.AperFunction*
D24*
X88646000Y-76962000D03*
X88646000Y-74422000D03*
X88646000Y-71882000D03*
D12*
X149352000Y-121539000D03*
D30*
X156972000Y-121539000D03*
D12*
X149352000Y-72644000D03*
D30*
X156972000Y-72644000D03*
D12*
X121158000Y-71882000D03*
D13*
X121158000Y-79502000D03*
D24*
X83058000Y-101854000D03*
X83058000Y-99314000D03*
X83058000Y-96774000D03*
D12*
X83058000Y-92202000D03*
D13*
X83058000Y-84582000D03*
D20*
X76327000Y-99060000D03*
X73787000Y-99060000D03*
X76327000Y-96520000D03*
X73787000Y-96520000D03*
X76327000Y-93980000D03*
X73787000Y-93980000D03*
X76327000Y-91440000D03*
X73787000Y-91440000D03*
X76327000Y-88900000D03*
D21*
X73787000Y-88900000D03*
D13*
X120777000Y-92924000D03*
X120777000Y-90424000D03*
X106807000Y-90384000D03*
X106807000Y-87884000D03*
D12*
X117602000Y-72644000D03*
X109982000Y-105664000D03*
X117602000Y-75184000D03*
X109982000Y-103124000D03*
X117602000Y-77724000D03*
X109982000Y-100584000D03*
X117602000Y-80264000D03*
X109982000Y-98044000D03*
X117602000Y-82804000D03*
X109982000Y-95504000D03*
X117602000Y-85344000D03*
X109982000Y-92964000D03*
X117602000Y-87884000D03*
X109982000Y-90424000D03*
X117602000Y-90424000D03*
X109982000Y-87884000D03*
X117602000Y-92964000D03*
X109982000Y-85344000D03*
X117602000Y-95504000D03*
X109982000Y-82804000D03*
X117602000Y-98044000D03*
X109982000Y-80264000D03*
X117602000Y-100584000D03*
X109982000Y-77724000D03*
X117602000Y-103124000D03*
X109982000Y-75184000D03*
X117602000Y-105664000D03*
D30*
X109982000Y-72644000D03*
D31*
X115062000Y-117094000D03*
X117602000Y-117094000D03*
D32*
X120142000Y-117094000D03*
D31*
X135890000Y-117094000D03*
X138430000Y-117094000D03*
D32*
X140970000Y-117094000D03*
D13*
X115062000Y-110530000D03*
X115062000Y-113030000D03*
X135890000Y-110530000D03*
X135890000Y-113030000D03*
D10*
X179802500Y-106964500D03*
D11*
X179802500Y-86964500D03*
X152302500Y-101964500D03*
X152302500Y-91964500D03*
D33*
X208407000Y-94234000D03*
D34*
X208407000Y-99314000D03*
D33*
X208407000Y-106934000D03*
D34*
X208407000Y-112014000D03*
D11*
X162212000Y-120269000D03*
X165992000Y-120269000D03*
D33*
X177332000Y-120269000D03*
X182372000Y-120269000D03*
X187412000Y-120269000D03*
D11*
X162212000Y-70739000D03*
X165992000Y-70739000D03*
D33*
X177332000Y-70739000D03*
X182372000Y-70739000D03*
X187412000Y-70739000D03*
D35*
X193167000Y-115824000D03*
X193167000Y-78324000D03*
D33*
X208407000Y-81534000D03*
D34*
X208407000Y-86614000D03*
D18*
X131318000Y-101734000D03*
D19*
X131318000Y-94234000D03*
D36*
X111797000Y-92117264D03*
X113030000Y-94742000D03*
X89666653Y-120137347D03*
X112522000Y-89154000D03*
X112522000Y-93726000D03*
X110998000Y-108458000D03*
X115570000Y-103378000D03*
X113528694Y-103368694D03*
X114549347Y-103373347D03*
X87630000Y-98298000D03*
X81026000Y-97790000D03*
X102362000Y-79502000D03*
X113247000Y-75946000D03*
X106934000Y-79502000D03*
X113247000Y-81534000D03*
X106934000Y-83566000D03*
X86614000Y-83566000D03*
X78989347Y-83053347D03*
X108966000Y-106717000D03*
X102362000Y-103886000D03*
X107950000Y-104394000D03*
X119634000Y-76962000D03*
D37*
X179802500Y-106964500D02*
X190657500Y-106964500D01*
X193167000Y-109474000D02*
X193167000Y-115824000D01*
X190657500Y-106964500D02*
X193167000Y-109474000D01*
D38*
X113368736Y-92117264D02*
X117602000Y-87884000D01*
X111797000Y-92117264D02*
X113368736Y-92117264D01*
D37*
X205197000Y-78324000D02*
X208407000Y-81534000D01*
X193167000Y-78324000D02*
X205197000Y-78324000D01*
X208056500Y-86964500D02*
X208407000Y-86614000D01*
X179802500Y-86964500D02*
X208056500Y-86964500D01*
D38*
X149352000Y-117246998D02*
X149352000Y-121539000D01*
X126447003Y-94342001D02*
X149352000Y-117246998D01*
X113429999Y-94342001D02*
X126447003Y-94342001D01*
X113030000Y-94742000D02*
X113429999Y-94342001D01*
X85062653Y-120137347D02*
X83026000Y-122174000D01*
X89666653Y-120137347D02*
X85062653Y-120137347D01*
X116802001Y-92164001D02*
X117602000Y-92964000D01*
X116802001Y-91223999D02*
X116802001Y-92164001D01*
X117602000Y-90424000D02*
X116802001Y-91223999D01*
X112522000Y-74134000D02*
X112522000Y-89154000D01*
X111032000Y-72644000D02*
X112522000Y-74134000D01*
X109982000Y-72644000D02*
X111032000Y-72644000D01*
X111288999Y-108167001D02*
X110998000Y-108458000D01*
X111288999Y-94959001D02*
X111288999Y-108167001D01*
X112522000Y-93726000D02*
X111288999Y-94959001D01*
X99994601Y-120314601D02*
X98806000Y-119126000D01*
X101916529Y-120314601D02*
X99994601Y-120314601D01*
X113936999Y-105011001D02*
X113936999Y-108294131D01*
X113936999Y-108294131D02*
X101916529Y-120314601D01*
X115570000Y-103378000D02*
X113936999Y-105011001D01*
X113528694Y-103368694D02*
X112965795Y-103931593D01*
X99994601Y-115397399D02*
X98806000Y-116586000D01*
X112965795Y-107563207D02*
X105131603Y-115397399D01*
X105131603Y-115397399D02*
X99994601Y-115397399D01*
X112965795Y-103931593D02*
X112965795Y-107563207D01*
X114549347Y-103373347D02*
X113486989Y-104435705D01*
X113486989Y-104435705D02*
X113486989Y-108001011D01*
X104902000Y-116586000D02*
X101346000Y-116586000D01*
X113486989Y-108001011D02*
X104902000Y-116586000D01*
X101829981Y-114947389D02*
X91300611Y-114947389D01*
X109982000Y-106795370D02*
X101829981Y-114947389D01*
X109982000Y-105664000D02*
X109982000Y-106795370D01*
X82659001Y-115679001D02*
X82042000Y-115062000D01*
X90568999Y-115679001D02*
X82659001Y-115679001D01*
X91300611Y-114947389D02*
X90568999Y-115679001D01*
X72598399Y-95949471D02*
X72598399Y-97871399D01*
X73216471Y-95331399D02*
X72598399Y-95949471D01*
X78263599Y-95331399D02*
X73216471Y-95331399D01*
X82258001Y-91336997D02*
X78263599Y-95331399D01*
X72923401Y-98196401D02*
X73787000Y-99060000D01*
X82258001Y-85381999D02*
X82258001Y-91336997D01*
X72598399Y-97871399D02*
X72923401Y-98196401D01*
X83058000Y-84582000D02*
X82258001Y-85381999D01*
X77548314Y-96520000D02*
X76327000Y-96520000D01*
X80405002Y-96520000D02*
X77548314Y-96520000D01*
X91581002Y-85344000D02*
X80405002Y-96520000D01*
X109982000Y-85344000D02*
X91581002Y-85344000D01*
X81134001Y-97898001D02*
X81026000Y-97790000D01*
X87230001Y-97898001D02*
X81134001Y-97898001D01*
X87630000Y-98298000D02*
X87230001Y-97898001D01*
X77190599Y-93116401D02*
X76327000Y-93980000D01*
X79894020Y-90412980D02*
X77190599Y-93116401D01*
X79894020Y-86080978D02*
X79894020Y-90412980D01*
X83170998Y-82804000D02*
X79894020Y-86080978D01*
X109982000Y-82804000D02*
X83170998Y-82804000D01*
X109982000Y-80264000D02*
X108204000Y-82042000D01*
X108204000Y-82042000D02*
X82550000Y-82042000D01*
X74650599Y-93116401D02*
X73787000Y-93980000D01*
X74975601Y-92791399D02*
X74650599Y-93116401D01*
X79444010Y-90082120D02*
X76734731Y-92791399D01*
X76734731Y-92791399D02*
X74975601Y-92791399D01*
X79444010Y-85147990D02*
X79444010Y-90082120D01*
X82550000Y-82042000D02*
X79444010Y-85147990D01*
X109982000Y-77724000D02*
X106680000Y-81026000D01*
X106680000Y-81026000D02*
X82042000Y-81026000D01*
X82042000Y-81026000D02*
X78994000Y-84074000D01*
X78994000Y-88773000D02*
X76327000Y-91440000D01*
X78994000Y-84074000D02*
X78994000Y-88773000D01*
X105664000Y-79502000D02*
X102362000Y-79502000D01*
X109982000Y-75184000D02*
X105664000Y-79502000D01*
X114009000Y-75184000D02*
X113247000Y-75946000D01*
X117602000Y-75184000D02*
X114009000Y-75184000D01*
X106208999Y-80227001D02*
X71156999Y-80227001D01*
X106934000Y-79502000D02*
X106208999Y-80227001D01*
X71156999Y-80227001D02*
X69342000Y-82042000D01*
X72056000Y-107950000D02*
X73406000Y-107950000D01*
X69342000Y-105236000D02*
X72056000Y-107950000D01*
X69342000Y-82042000D02*
X69342000Y-105236000D01*
X113792000Y-81534000D02*
X113247000Y-81534000D01*
X117602000Y-77724000D02*
X113792000Y-81534000D01*
X106934000Y-83566000D02*
X86614000Y-83566000D01*
X74756000Y-110490000D02*
X73406000Y-110490000D01*
X74930000Y-110316000D02*
X74756000Y-110490000D01*
X74930000Y-107554001D02*
X74930000Y-110316000D01*
X69850000Y-102474001D02*
X74930000Y-107554001D01*
X69850000Y-84074000D02*
X69850000Y-102474001D01*
X70870653Y-83053347D02*
X69850000Y-84074000D01*
X78989347Y-83053347D02*
X70870653Y-83053347D01*
X74756000Y-113030000D02*
X73406000Y-113030000D01*
X76811002Y-113030000D02*
X74756000Y-113030000D01*
X98002003Y-91838999D02*
X76811002Y-113030000D01*
X110910003Y-91838999D02*
X98002003Y-91838999D01*
X113247001Y-89502001D02*
X110910003Y-91838999D01*
X113247001Y-84618999D02*
X113247001Y-89502001D01*
X117602000Y-80264000D02*
X113247001Y-84618999D01*
X108675001Y-106426001D02*
X108966000Y-106717000D01*
X108675001Y-98181001D02*
X108675001Y-106426001D01*
X104728000Y-94234000D02*
X108675001Y-98181001D01*
X103378000Y-94234000D02*
X104728000Y-94234000D01*
X102870000Y-104394000D02*
X107950000Y-104394000D01*
X102362000Y-103886000D02*
X102870000Y-104394000D01*
X116476999Y-71518999D02*
X108821001Y-71518999D01*
X117602000Y-72644000D02*
X116476999Y-71518999D01*
X108821001Y-71518999D02*
X108458000Y-71882000D01*
X109211997Y-74058999D02*
X111142999Y-74058999D01*
X108458000Y-73305002D02*
X109211997Y-74058999D01*
X108458000Y-71882000D02*
X108458000Y-73305002D01*
X111142999Y-74058999D02*
X111506000Y-74422000D01*
X111506000Y-88025002D02*
X110272003Y-89258999D01*
X111506000Y-74422000D02*
X111506000Y-88025002D01*
X97814999Y-89258999D02*
X98656999Y-89258999D01*
X96694000Y-88138000D02*
X97814999Y-89258999D01*
X98656999Y-89258999D02*
X98621001Y-89258999D01*
X110272003Y-89258999D02*
X98656999Y-89258999D01*
X89662000Y-96774000D02*
X89662000Y-92456000D01*
X91694000Y-90424000D02*
X91694000Y-88138000D01*
X89662000Y-92456000D02*
X91694000Y-90424000D01*
X119634000Y-83312000D02*
X117602000Y-85344000D01*
X119634000Y-76962000D02*
X119634000Y-83312000D01*
D39*
X160942013Y-69696748D02*
X160763082Y-69964537D01*
X160639832Y-70262088D01*
X160577000Y-70577967D01*
X160577000Y-70900033D01*
X160639832Y-71215912D01*
X160763082Y-71513463D01*
X160942013Y-71781252D01*
X161169748Y-72008987D01*
X161437537Y-72187918D01*
X161735088Y-72311168D01*
X162050967Y-72374000D01*
X162373033Y-72374000D01*
X162688912Y-72311168D01*
X162986463Y-72187918D01*
X163254252Y-72008987D01*
X163481987Y-71781252D01*
X163660918Y-71513463D01*
X163784168Y-71215912D01*
X163847000Y-70900033D01*
X163847000Y-70577967D01*
X163784168Y-70262088D01*
X163660918Y-69964537D01*
X163481987Y-69696748D01*
X163279239Y-69494000D01*
X164924761Y-69494000D01*
X164722013Y-69696748D01*
X164543082Y-69964537D01*
X164419832Y-70262088D01*
X164357000Y-70577967D01*
X164357000Y-70900033D01*
X164419832Y-71215912D01*
X164543082Y-71513463D01*
X164722013Y-71781252D01*
X164949748Y-72008987D01*
X165217537Y-72187918D01*
X165515088Y-72311168D01*
X165830967Y-72374000D01*
X166153033Y-72374000D01*
X166468912Y-72311168D01*
X166766463Y-72187918D01*
X167034252Y-72008987D01*
X167261987Y-71781252D01*
X167440918Y-71513463D01*
X167564168Y-71215912D01*
X167627000Y-70900033D01*
X167627000Y-70577967D01*
X167564168Y-70262088D01*
X167440918Y-69964537D01*
X167261987Y-69696748D01*
X167059239Y-69494000D01*
X171450000Y-69494000D01*
X171450000Y-82677000D01*
X165862000Y-82677000D01*
X165837224Y-82679440D01*
X165813399Y-82686667D01*
X165791443Y-82698403D01*
X165772197Y-82714197D01*
X165756403Y-82733443D01*
X165744667Y-82755399D01*
X165737440Y-82779224D01*
X165735000Y-82804000D01*
X165735000Y-111379000D01*
X165737440Y-111403776D01*
X165744667Y-111427601D01*
X165756403Y-111449557D01*
X165772197Y-111468803D01*
X165791443Y-111484597D01*
X165813399Y-111496333D01*
X165837224Y-111503560D01*
X165862000Y-111506000D01*
X171450000Y-111506000D01*
X171450000Y-124054000D01*
X68986000Y-124054000D01*
X68986000Y-121318872D01*
X69139000Y-121318872D01*
X69139000Y-121759128D01*
X69224890Y-122190925D01*
X69393369Y-122597669D01*
X69637962Y-122963729D01*
X69949271Y-123275038D01*
X70315331Y-123519631D01*
X70722075Y-123688110D01*
X71153872Y-123774000D01*
X71594128Y-123774000D01*
X72025925Y-123688110D01*
X72432669Y-123519631D01*
X72798729Y-123275038D01*
X73110038Y-122963729D01*
X73354631Y-122597669D01*
X73523110Y-122190925D01*
X73552630Y-122042514D01*
X75119000Y-122042514D01*
X75119000Y-122305486D01*
X75170304Y-122563405D01*
X75270939Y-122806359D01*
X75417038Y-123025013D01*
X75602987Y-123210962D01*
X75821641Y-123357061D01*
X76064595Y-123457696D01*
X76322514Y-123509000D01*
X76585486Y-123509000D01*
X76843405Y-123457696D01*
X77086359Y-123357061D01*
X77305013Y-123210962D01*
X77454000Y-123061975D01*
X77602987Y-123210962D01*
X77821641Y-123357061D01*
X78064595Y-123457696D01*
X78322514Y-123509000D01*
X78585486Y-123509000D01*
X78843405Y-123457696D01*
X79086359Y-123357061D01*
X79305013Y-123210962D01*
X79490962Y-123025013D01*
X79637061Y-122806359D01*
X79737696Y-122563405D01*
X79740000Y-122551822D01*
X79742304Y-122563405D01*
X79842939Y-122806359D01*
X79989038Y-123025013D01*
X80174987Y-123210962D01*
X80393641Y-123357061D01*
X80636595Y-123457696D01*
X80894514Y-123509000D01*
X81157486Y-123509000D01*
X81415405Y-123457696D01*
X81658359Y-123357061D01*
X81877013Y-123210962D01*
X82026000Y-123061975D01*
X82174987Y-123210962D01*
X82393641Y-123357061D01*
X82636595Y-123457696D01*
X82894514Y-123509000D01*
X83157486Y-123509000D01*
X83415405Y-123457696D01*
X83658359Y-123357061D01*
X83877013Y-123210962D01*
X83992706Y-123095269D01*
X84856336Y-123095269D01*
X84915797Y-123329037D01*
X85154242Y-123439934D01*
X85409740Y-123502183D01*
X85672473Y-123513390D01*
X85932344Y-123473125D01*
X86179366Y-123382935D01*
X86280203Y-123329037D01*
X86339664Y-123095269D01*
X86856336Y-123095269D01*
X86915797Y-123329037D01*
X87154242Y-123439934D01*
X87409740Y-123502183D01*
X87672473Y-123513390D01*
X87932344Y-123473125D01*
X88179366Y-123382935D01*
X88280203Y-123329037D01*
X88339664Y-123095269D01*
X87598000Y-122353605D01*
X86856336Y-123095269D01*
X86339664Y-123095269D01*
X85598000Y-122353605D01*
X84856336Y-123095269D01*
X83992706Y-123095269D01*
X84062962Y-123025013D01*
X84209061Y-122806359D01*
X84309696Y-122563405D01*
X84312970Y-122546948D01*
X84389065Y-122755366D01*
X84442963Y-122856203D01*
X84676731Y-122915664D01*
X85418395Y-122174000D01*
X85777605Y-122174000D01*
X86423621Y-122820016D01*
X86442963Y-122856203D01*
X86465554Y-122861949D01*
X86519269Y-122915664D01*
X86598000Y-122895638D01*
X86676731Y-122915664D01*
X86730446Y-122861949D01*
X86753037Y-122856203D01*
X86767683Y-122824712D01*
X87418395Y-122174000D01*
X87777605Y-122174000D01*
X88519269Y-122915664D01*
X88753037Y-122856203D01*
X88863934Y-122617758D01*
X88926183Y-122362260D01*
X88937390Y-122099527D01*
X88897125Y-121839656D01*
X88806935Y-121592634D01*
X88753037Y-121491797D01*
X88519269Y-121432336D01*
X87777605Y-122174000D01*
X87418395Y-122174000D01*
X86772379Y-121527984D01*
X86753037Y-121491797D01*
X86730446Y-121486051D01*
X86676731Y-121432336D01*
X86598000Y-121452362D01*
X86519269Y-121432336D01*
X86465554Y-121486051D01*
X86442963Y-121491797D01*
X86428317Y-121523288D01*
X85777605Y-122174000D01*
X85418395Y-122174000D01*
X85404253Y-122159858D01*
X85583858Y-121980253D01*
X85598000Y-121994395D01*
X86339664Y-121252731D01*
X86280203Y-121018963D01*
X86041758Y-120908066D01*
X85997762Y-120897347D01*
X87202107Y-120897347D01*
X87016634Y-120965065D01*
X86915797Y-121018963D01*
X86856336Y-121252731D01*
X87598000Y-121994395D01*
X88339664Y-121252731D01*
X88280203Y-121018963D01*
X88041758Y-120908066D01*
X87997762Y-120897347D01*
X88962942Y-120897347D01*
X89006879Y-120941284D01*
X89176397Y-121054552D01*
X89364755Y-121132573D01*
X89564714Y-121172347D01*
X89768592Y-121172347D01*
X89968551Y-121132573D01*
X90156909Y-121054552D01*
X90326427Y-120941284D01*
X90470590Y-120797121D01*
X90583858Y-120627603D01*
X90661879Y-120439245D01*
X90701653Y-120239286D01*
X90701653Y-120035408D01*
X90661879Y-119835449D01*
X90583858Y-119647091D01*
X90475571Y-119485027D01*
X94811037Y-119485027D01*
X94909036Y-119761978D01*
X95059183Y-120014488D01*
X95255707Y-120232854D01*
X95491056Y-120408684D01*
X95756186Y-120535222D01*
X95906974Y-120580958D01*
X96139000Y-120459817D01*
X96139000Y-119253000D01*
X94931536Y-119253000D01*
X94811037Y-119485027D01*
X90475571Y-119485027D01*
X90470590Y-119477573D01*
X90326427Y-119333410D01*
X90156909Y-119220142D01*
X89968551Y-119142121D01*
X89768592Y-119102347D01*
X89564714Y-119102347D01*
X89364755Y-119142121D01*
X89176397Y-119220142D01*
X89006879Y-119333410D01*
X88962942Y-119377347D01*
X85099975Y-119377347D01*
X85062652Y-119373671D01*
X85025329Y-119377347D01*
X85025320Y-119377347D01*
X84913667Y-119388344D01*
X84770406Y-119431801D01*
X84638377Y-119502373D01*
X84522652Y-119597346D01*
X84498854Y-119626344D01*
X83264844Y-120860355D01*
X83157486Y-120839000D01*
X82894514Y-120839000D01*
X82636595Y-120890304D01*
X82393641Y-120990939D01*
X82174987Y-121137038D01*
X82026000Y-121286025D01*
X81877013Y-121137038D01*
X81658359Y-120990939D01*
X81415405Y-120890304D01*
X81157486Y-120839000D01*
X80894514Y-120839000D01*
X80636595Y-120890304D01*
X80393641Y-120990939D01*
X80174987Y-121137038D01*
X79989038Y-121322987D01*
X79842939Y-121541641D01*
X79742304Y-121784595D01*
X79740000Y-121796178D01*
X79737696Y-121784595D01*
X79637061Y-121541641D01*
X79490962Y-121322987D01*
X79305013Y-121137038D01*
X79086359Y-120990939D01*
X78843405Y-120890304D01*
X78585486Y-120839000D01*
X78322514Y-120839000D01*
X78064595Y-120890304D01*
X77821641Y-120990939D01*
X77602987Y-121137038D01*
X77454000Y-121286025D01*
X77305013Y-121137038D01*
X77086359Y-120990939D01*
X76843405Y-120890304D01*
X76585486Y-120839000D01*
X76322514Y-120839000D01*
X76064595Y-120890304D01*
X75821641Y-120990939D01*
X75602987Y-121137038D01*
X75417038Y-121322987D01*
X75270939Y-121541641D01*
X75170304Y-121784595D01*
X75119000Y-122042514D01*
X73552630Y-122042514D01*
X73609000Y-121759128D01*
X73609000Y-121318872D01*
X73523110Y-120887075D01*
X73354631Y-120480331D01*
X73110038Y-120114271D01*
X72798729Y-119802962D01*
X72432669Y-119558369D01*
X72025925Y-119389890D01*
X71594128Y-119304000D01*
X71153872Y-119304000D01*
X70722075Y-119389890D01*
X70315331Y-119558369D01*
X69949271Y-119802962D01*
X69637962Y-120114271D01*
X69393369Y-120480331D01*
X69224890Y-120887075D01*
X69139000Y-121318872D01*
X68986000Y-121318872D01*
X68986000Y-116440000D01*
X71667928Y-116440000D01*
X71680188Y-116564482D01*
X71716498Y-116684180D01*
X71775463Y-116794494D01*
X71854815Y-116891185D01*
X71951506Y-116970537D01*
X72061820Y-117029502D01*
X72181518Y-117065812D01*
X72306000Y-117078072D01*
X73120250Y-117075000D01*
X73279000Y-116916250D01*
X73279000Y-115697000D01*
X73533000Y-115697000D01*
X73533000Y-116916250D01*
X73691750Y-117075000D01*
X74506000Y-117078072D01*
X74630482Y-117065812D01*
X74750180Y-117029502D01*
X74860494Y-116970537D01*
X74957185Y-116891185D01*
X75036537Y-116794494D01*
X75095502Y-116684180D01*
X75131812Y-116564482D01*
X75144072Y-116440000D01*
X75141000Y-115855750D01*
X74982250Y-115697000D01*
X73533000Y-115697000D01*
X73279000Y-115697000D01*
X71829750Y-115697000D01*
X71671000Y-115855750D01*
X71667928Y-116440000D01*
X68986000Y-116440000D01*
X68986000Y-105954801D01*
X71492201Y-108461003D01*
X71515999Y-108490001D01*
X71544997Y-108513799D01*
X71631724Y-108584974D01*
X71763753Y-108655546D01*
X71862657Y-108685548D01*
X71918583Y-108790179D01*
X72106655Y-109019345D01*
X72335821Y-109207417D01*
X72359362Y-109220000D01*
X72335821Y-109232583D01*
X72106655Y-109420655D01*
X71918583Y-109649821D01*
X71778834Y-109911275D01*
X71692776Y-110194968D01*
X71663718Y-110490000D01*
X71692776Y-110785032D01*
X71778834Y-111068725D01*
X71918583Y-111330179D01*
X72106655Y-111559345D01*
X72335821Y-111747417D01*
X72359362Y-111760000D01*
X72335821Y-111772583D01*
X72106655Y-111960655D01*
X71918583Y-112189821D01*
X71778834Y-112451275D01*
X71692776Y-112734968D01*
X71663718Y-113030000D01*
X71692776Y-113325032D01*
X71778834Y-113608725D01*
X71918583Y-113870179D01*
X72105047Y-114097385D01*
X72061820Y-114110498D01*
X71951506Y-114169463D01*
X71854815Y-114248815D01*
X71775463Y-114345506D01*
X71716498Y-114455820D01*
X71680188Y-114575518D01*
X71667928Y-114700000D01*
X71671000Y-115284250D01*
X71829750Y-115443000D01*
X73279000Y-115443000D01*
X73279000Y-115423000D01*
X73533000Y-115423000D01*
X73533000Y-115443000D01*
X74982250Y-115443000D01*
X75141000Y-115284250D01*
X75144072Y-114700000D01*
X75131812Y-114575518D01*
X75095502Y-114455820D01*
X75036537Y-114345506D01*
X74957185Y-114248815D01*
X74860494Y-114169463D01*
X74750180Y-114110498D01*
X74706953Y-114097385D01*
X74893417Y-113870179D01*
X74936273Y-113790000D01*
X76773680Y-113790000D01*
X76811002Y-113793676D01*
X76848324Y-113790000D01*
X76848335Y-113790000D01*
X76959988Y-113779003D01*
X77103249Y-113735546D01*
X77235278Y-113664974D01*
X77351003Y-113570001D01*
X77374806Y-113540997D01*
X81075138Y-109840665D01*
X84671000Y-109840665D01*
X84671000Y-110123335D01*
X84726147Y-110400574D01*
X84834320Y-110661727D01*
X84991363Y-110896759D01*
X85191241Y-111096637D01*
X85426273Y-111253680D01*
X85687426Y-111361853D01*
X85964665Y-111417000D01*
X86247335Y-111417000D01*
X86524574Y-111361853D01*
X86785727Y-111253680D01*
X87020759Y-111096637D01*
X87220637Y-110896759D01*
X87377680Y-110661727D01*
X87485853Y-110400574D01*
X87541000Y-110123335D01*
X87541000Y-109840665D01*
X87485853Y-109563426D01*
X87377680Y-109302273D01*
X87220637Y-109067241D01*
X87020759Y-108867363D01*
X86785727Y-108710320D01*
X86524574Y-108602147D01*
X86247335Y-108547000D01*
X85964665Y-108547000D01*
X85687426Y-108602147D01*
X85426273Y-108710320D01*
X85191241Y-108867363D01*
X84991363Y-109067241D01*
X84834320Y-109302273D01*
X84726147Y-109563426D01*
X84671000Y-109840665D01*
X81075138Y-109840665D01*
X82711803Y-108204000D01*
X89795388Y-108204000D01*
X89817785Y-108431400D01*
X89881093Y-108640098D01*
X89846498Y-108704820D01*
X89810188Y-108824518D01*
X89797928Y-108949000D01*
X89797928Y-109999000D01*
X89810188Y-110123482D01*
X89846498Y-110243180D01*
X89905463Y-110353494D01*
X89984815Y-110450185D01*
X90081506Y-110529537D01*
X90191820Y-110588502D01*
X90311518Y-110624812D01*
X90436000Y-110637072D01*
X91936000Y-110637072D01*
X92060482Y-110624812D01*
X92180180Y-110588502D01*
X92290494Y-110529537D01*
X92387185Y-110450185D01*
X92466537Y-110353494D01*
X92525502Y-110243180D01*
X92561812Y-110123482D01*
X92574072Y-109999000D01*
X92574072Y-108949000D01*
X92561812Y-108824518D01*
X92525502Y-108704820D01*
X92490907Y-108640098D01*
X92554215Y-108431400D01*
X92576612Y-108204000D01*
X92554215Y-107976600D01*
X92487885Y-107757940D01*
X92387071Y-107569331D01*
X92428275Y-107510882D01*
X92521272Y-107301337D01*
X92525541Y-107271117D01*
X94531000Y-107271117D01*
X94531000Y-107612883D01*
X94597675Y-107948081D01*
X94728463Y-108263831D01*
X94918337Y-108547998D01*
X95160002Y-108789663D01*
X95444169Y-108979537D01*
X95759919Y-109110325D01*
X96095117Y-109177000D01*
X96436883Y-109177000D01*
X96772081Y-109110325D01*
X97087831Y-108979537D01*
X97371998Y-108789663D01*
X97613663Y-108547998D01*
X97803537Y-108263831D01*
X97934325Y-107948081D01*
X98001000Y-107612883D01*
X98001000Y-107271117D01*
X97934325Y-106935919D01*
X97803537Y-106620169D01*
X97613663Y-106336002D01*
X97371998Y-106094337D01*
X97087831Y-105904463D01*
X96772081Y-105773675D01*
X96436883Y-105707000D01*
X96095117Y-105707000D01*
X95759919Y-105773675D01*
X95444169Y-105904463D01*
X95160002Y-106094337D01*
X94918337Y-106336002D01*
X94728463Y-106620169D01*
X94597675Y-106935919D01*
X94531000Y-107271117D01*
X92525541Y-107271117D01*
X92529964Y-107239810D01*
X92404163Y-107061000D01*
X91639109Y-107061000D01*
X91638400Y-107060785D01*
X91467979Y-107044000D01*
X90904021Y-107044000D01*
X90733600Y-107060785D01*
X90732891Y-107061000D01*
X89967837Y-107061000D01*
X89842036Y-107239810D01*
X89850728Y-107301337D01*
X89943725Y-107510882D01*
X89984929Y-107569331D01*
X89884115Y-107757940D01*
X89817785Y-107976600D01*
X89795388Y-108204000D01*
X82711803Y-108204000D01*
X84287613Y-106628190D01*
X89842036Y-106628190D01*
X89967837Y-106807000D01*
X91059000Y-106807000D01*
X91059000Y-105927402D01*
X91313000Y-105927402D01*
X91313000Y-106807000D01*
X92404163Y-106807000D01*
X92529964Y-106628190D01*
X92521272Y-106566663D01*
X92428275Y-106357118D01*
X92296184Y-106169742D01*
X92130076Y-106011736D01*
X91936334Y-105889172D01*
X91722404Y-105806761D01*
X91496507Y-105767669D01*
X91313000Y-105927402D01*
X91059000Y-105927402D01*
X90875493Y-105767669D01*
X90649596Y-105806761D01*
X90435666Y-105889172D01*
X90241924Y-106011736D01*
X90075816Y-106169742D01*
X89943725Y-106357118D01*
X89850728Y-106566663D01*
X89842036Y-106628190D01*
X84287613Y-106628190D01*
X88257772Y-102658032D01*
X88282147Y-102780574D01*
X88390320Y-103041727D01*
X88547363Y-103276759D01*
X88747241Y-103476637D01*
X88982273Y-103633680D01*
X89243426Y-103741853D01*
X89520665Y-103797000D01*
X89803335Y-103797000D01*
X90080574Y-103741853D01*
X90341727Y-103633680D01*
X90576759Y-103476637D01*
X90776637Y-103276759D01*
X90933680Y-103041727D01*
X91041853Y-102780574D01*
X91097000Y-102503335D01*
X91097000Y-102220665D01*
X95847000Y-102220665D01*
X95847000Y-102503335D01*
X95902147Y-102780574D01*
X96010320Y-103041727D01*
X96167363Y-103276759D01*
X96367241Y-103476637D01*
X96602273Y-103633680D01*
X96863426Y-103741853D01*
X97140665Y-103797000D01*
X97423335Y-103797000D01*
X97700574Y-103741853D01*
X97961727Y-103633680D01*
X98196759Y-103476637D01*
X98396637Y-103276759D01*
X98553680Y-103041727D01*
X98661853Y-102780574D01*
X98717000Y-102503335D01*
X98717000Y-102220665D01*
X98661853Y-101943426D01*
X98553680Y-101682273D01*
X98396637Y-101447241D01*
X98196759Y-101247363D01*
X97961727Y-101090320D01*
X97700574Y-100982147D01*
X97423335Y-100927000D01*
X97140665Y-100927000D01*
X96863426Y-100982147D01*
X96602273Y-101090320D01*
X96367241Y-101247363D01*
X96167363Y-101447241D01*
X96010320Y-101682273D01*
X95902147Y-101943426D01*
X95847000Y-102220665D01*
X91097000Y-102220665D01*
X91041853Y-101943426D01*
X90933680Y-101682273D01*
X90776637Y-101447241D01*
X90576759Y-101247363D01*
X90341727Y-101090320D01*
X90080574Y-100982147D01*
X89958032Y-100957772D01*
X94283139Y-96632665D01*
X95847000Y-96632665D01*
X95847000Y-96915335D01*
X95902147Y-97192574D01*
X96010320Y-97453727D01*
X96167363Y-97688759D01*
X96367241Y-97888637D01*
X96602273Y-98045680D01*
X96863426Y-98153853D01*
X97140665Y-98209000D01*
X97423335Y-98209000D01*
X97700574Y-98153853D01*
X97961727Y-98045680D01*
X98196759Y-97888637D01*
X98396637Y-97688759D01*
X98553680Y-97453727D01*
X98661853Y-97192574D01*
X98717000Y-96915335D01*
X98717000Y-96632665D01*
X98661853Y-96355426D01*
X98553680Y-96094273D01*
X98396637Y-95859241D01*
X98196759Y-95659363D01*
X97961727Y-95502320D01*
X97700574Y-95394147D01*
X97423335Y-95339000D01*
X97140665Y-95339000D01*
X96863426Y-95394147D01*
X96602273Y-95502320D01*
X96367241Y-95659363D01*
X96167363Y-95859241D01*
X96010320Y-96094273D01*
X95902147Y-96355426D01*
X95847000Y-96632665D01*
X94283139Y-96632665D01*
X98316805Y-92598999D01*
X108591491Y-92598999D01*
X108547000Y-92822665D01*
X108547000Y-93105335D01*
X108602147Y-93382574D01*
X108710320Y-93643727D01*
X108867363Y-93878759D01*
X109067241Y-94078637D01*
X109299759Y-94234000D01*
X109067241Y-94389363D01*
X108867363Y-94589241D01*
X108710320Y-94824273D01*
X108602147Y-95085426D01*
X108547000Y-95362665D01*
X108547000Y-95645335D01*
X108602147Y-95922574D01*
X108710320Y-96183727D01*
X108867363Y-96418759D01*
X109067241Y-96618637D01*
X109299759Y-96774000D01*
X109067241Y-96929363D01*
X108867363Y-97129241D01*
X108799543Y-97230741D01*
X105291804Y-93723003D01*
X105268001Y-93693999D01*
X105152276Y-93599026D01*
X105020247Y-93528454D01*
X104921343Y-93498452D01*
X104865417Y-93393821D01*
X104677345Y-93164655D01*
X104448179Y-92976583D01*
X104186725Y-92836834D01*
X103903032Y-92750776D01*
X103681936Y-92729000D01*
X103074064Y-92729000D01*
X102852968Y-92750776D01*
X102569275Y-92836834D01*
X102307821Y-92976583D01*
X102078655Y-93164655D01*
X101890583Y-93393821D01*
X101750834Y-93655275D01*
X101664776Y-93938968D01*
X101635718Y-94234000D01*
X101664776Y-94529032D01*
X101750834Y-94812725D01*
X101890583Y-95074179D01*
X102078655Y-95303345D01*
X102307821Y-95491417D01*
X102331362Y-95504000D01*
X102307821Y-95516583D01*
X102078655Y-95704655D01*
X101890583Y-95933821D01*
X101750834Y-96195275D01*
X101664776Y-96478968D01*
X101635718Y-96774000D01*
X101664776Y-97069032D01*
X101750834Y-97352725D01*
X101890583Y-97614179D01*
X102078655Y-97843345D01*
X102307821Y-98031417D01*
X102331362Y-98044000D01*
X102307821Y-98056583D01*
X102078655Y-98244655D01*
X101890583Y-98473821D01*
X101750834Y-98735275D01*
X101664776Y-99018968D01*
X101635718Y-99314000D01*
X101664776Y-99609032D01*
X101750834Y-99892725D01*
X101890583Y-100154179D01*
X102078655Y-100383345D01*
X102144114Y-100437066D01*
X102034613Y-100495595D01*
X101900038Y-100606038D01*
X101789595Y-100740613D01*
X101707528Y-100894149D01*
X101656992Y-101060745D01*
X101639928Y-101233999D01*
X101639928Y-102474001D01*
X101656992Y-102647255D01*
X101707528Y-102813851D01*
X101789595Y-102967387D01*
X101819435Y-103003747D01*
X101702226Y-103082063D01*
X101558063Y-103226226D01*
X101444795Y-103395744D01*
X101366774Y-103584102D01*
X101327000Y-103784061D01*
X101327000Y-103987939D01*
X101366774Y-104187898D01*
X101444795Y-104376256D01*
X101558063Y-104545774D01*
X101702226Y-104689937D01*
X101871744Y-104803205D01*
X102060102Y-104881226D01*
X102260061Y-104921000D01*
X102319329Y-104921000D01*
X102329999Y-104934001D01*
X102445724Y-105028974D01*
X102577753Y-105099546D01*
X102721014Y-105143003D01*
X102832667Y-105154000D01*
X102832676Y-105154000D01*
X102869999Y-105157676D01*
X102907322Y-105154000D01*
X107246289Y-105154000D01*
X107290226Y-105197937D01*
X107459744Y-105311205D01*
X107648102Y-105389226D01*
X107848061Y-105429000D01*
X107915002Y-105429000D01*
X107915002Y-105839783D01*
X107880494Y-105811463D01*
X107770180Y-105752498D01*
X107650482Y-105716188D01*
X107526000Y-105703928D01*
X105326000Y-105703928D01*
X105201518Y-105716188D01*
X105081820Y-105752498D01*
X104971506Y-105811463D01*
X104874815Y-105890815D01*
X104795463Y-105987506D01*
X104736498Y-106097820D01*
X104700188Y-106217518D01*
X104687928Y-106342000D01*
X104687928Y-108542000D01*
X104700188Y-108666482D01*
X104736498Y-108786180D01*
X104795463Y-108896494D01*
X104874815Y-108993185D01*
X104971506Y-109072537D01*
X105081820Y-109131502D01*
X105201518Y-109167812D01*
X105326000Y-109180072D01*
X106522496Y-109180072D01*
X101515180Y-114187389D01*
X91337944Y-114187389D01*
X91300611Y-114183712D01*
X91263278Y-114187389D01*
X91151625Y-114198386D01*
X91008364Y-114241843D01*
X90876335Y-114312415D01*
X90760610Y-114407388D01*
X90736812Y-114436387D01*
X90254198Y-114919001D01*
X83580072Y-114919001D01*
X83580072Y-114162000D01*
X83567812Y-114037518D01*
X83531502Y-113917820D01*
X83472537Y-113807506D01*
X83393185Y-113710815D01*
X83296494Y-113631463D01*
X83186180Y-113572498D01*
X83066482Y-113536188D01*
X82942000Y-113523928D01*
X81142000Y-113523928D01*
X81017518Y-113536188D01*
X80897820Y-113572498D01*
X80787506Y-113631463D01*
X80690815Y-113710815D01*
X80611463Y-113807506D01*
X80552498Y-113917820D01*
X80546944Y-113936127D01*
X80480505Y-113869688D01*
X80229095Y-113701701D01*
X79949743Y-113585989D01*
X79653184Y-113527000D01*
X79350816Y-113527000D01*
X79054257Y-113585989D01*
X78774905Y-113701701D01*
X78523495Y-113869688D01*
X78309688Y-114083495D01*
X78141701Y-114334905D01*
X78025989Y-114614257D01*
X77967000Y-114910816D01*
X77967000Y-115213184D01*
X78025989Y-115509743D01*
X78141701Y-115789095D01*
X78309688Y-116040505D01*
X78523495Y-116254312D01*
X78774905Y-116422299D01*
X79054257Y-116538011D01*
X79350816Y-116597000D01*
X79653184Y-116597000D01*
X79949743Y-116538011D01*
X80229095Y-116422299D01*
X80480505Y-116254312D01*
X80546944Y-116187873D01*
X80552498Y-116206180D01*
X80611463Y-116316494D01*
X80690815Y-116413185D01*
X80787506Y-116492537D01*
X80897820Y-116551502D01*
X81017518Y-116587812D01*
X81142000Y-116600072D01*
X82942000Y-116600072D01*
X83066482Y-116587812D01*
X83186180Y-116551502D01*
X83296494Y-116492537D01*
X83361728Y-116439001D01*
X85263620Y-116439001D01*
X85191241Y-116487363D01*
X84991363Y-116687241D01*
X84834320Y-116922273D01*
X84726147Y-117183426D01*
X84671000Y-117460665D01*
X84671000Y-117743335D01*
X84726147Y-118020574D01*
X84834320Y-118281727D01*
X84991363Y-118516759D01*
X85191241Y-118716637D01*
X85426273Y-118873680D01*
X85687426Y-118981853D01*
X85964665Y-119037000D01*
X86247335Y-119037000D01*
X86524574Y-118981853D01*
X86785727Y-118873680D01*
X87020759Y-118716637D01*
X87220637Y-118516759D01*
X87377680Y-118281727D01*
X87485853Y-118020574D01*
X87541000Y-117743335D01*
X87541000Y-117460665D01*
X87485853Y-117183426D01*
X87377680Y-116922273D01*
X87220637Y-116687241D01*
X87020759Y-116487363D01*
X86948380Y-116439001D01*
X90531677Y-116439001D01*
X90568999Y-116442677D01*
X90606321Y-116439001D01*
X90606332Y-116439001D01*
X90717985Y-116428004D01*
X90861246Y-116384547D01*
X90993275Y-116313975D01*
X91109000Y-116219002D01*
X91132802Y-116189999D01*
X91615413Y-115707389D01*
X95050718Y-115707389D01*
X94937958Y-115876147D01*
X94824990Y-116148875D01*
X94767400Y-116438401D01*
X94767400Y-116733599D01*
X94824990Y-117023125D01*
X94937958Y-117295853D01*
X95101961Y-117541302D01*
X95310698Y-117750039D01*
X95471813Y-117857692D01*
X95255707Y-118019146D01*
X95059183Y-118237512D01*
X94909036Y-118490022D01*
X94811037Y-118766973D01*
X94931536Y-118999000D01*
X96139000Y-118999000D01*
X96139000Y-118979000D01*
X96393000Y-118979000D01*
X96393000Y-118999000D01*
X96413000Y-118999000D01*
X96413000Y-119253000D01*
X96393000Y-119253000D01*
X96393000Y-120459817D01*
X96625026Y-120580958D01*
X96775814Y-120535222D01*
X97040944Y-120408684D01*
X97276293Y-120232854D01*
X97472817Y-120014488D01*
X97531441Y-119915897D01*
X97641961Y-120081302D01*
X97850698Y-120290039D01*
X98096147Y-120454042D01*
X98368875Y-120567010D01*
X98658401Y-120624600D01*
X98953599Y-120624600D01*
X99183974Y-120578776D01*
X99430802Y-120825604D01*
X99454600Y-120854602D01*
X99570325Y-120949575D01*
X99702354Y-121020147D01*
X99845615Y-121063604D01*
X99957268Y-121074601D01*
X99957276Y-121074601D01*
X99994601Y-121078277D01*
X100031926Y-121074601D01*
X101879207Y-121074601D01*
X101916529Y-121078277D01*
X101953851Y-121074601D01*
X101953862Y-121074601D01*
X102065515Y-121063604D01*
X102208776Y-121020147D01*
X102340805Y-120949575D01*
X102456530Y-120854602D01*
X102480333Y-120825598D01*
X106337417Y-116968514D01*
X113474500Y-116968514D01*
X113474500Y-117219485D01*
X113497470Y-117452703D01*
X113588245Y-117751948D01*
X113735655Y-118027734D01*
X113934037Y-118269463D01*
X114175765Y-118467845D01*
X114451551Y-118615255D01*
X114750796Y-118706030D01*
X115062000Y-118736681D01*
X115373203Y-118706030D01*
X115672448Y-118615255D01*
X115948234Y-118467845D01*
X116189963Y-118269463D01*
X116337163Y-118090101D01*
X116492563Y-118275315D01*
X116735077Y-118469969D01*
X117010906Y-118613571D01*
X117229020Y-118684563D01*
X117475000Y-118564594D01*
X117475000Y-117221000D01*
X117455000Y-117221000D01*
X117455000Y-116967000D01*
X117475000Y-116967000D01*
X117475000Y-115623406D01*
X117729000Y-115623406D01*
X117729000Y-116967000D01*
X117749000Y-116967000D01*
X117749000Y-117221000D01*
X117729000Y-117221000D01*
X117729000Y-118564594D01*
X117974980Y-118684563D01*
X118193094Y-118613571D01*
X118468923Y-118469969D01*
X118609941Y-118356781D01*
X118658963Y-118448494D01*
X118738315Y-118545185D01*
X118835006Y-118624537D01*
X118945320Y-118683502D01*
X119065018Y-118719812D01*
X119189500Y-118732072D01*
X121094500Y-118732072D01*
X121218982Y-118719812D01*
X121338680Y-118683502D01*
X121448994Y-118624537D01*
X121545685Y-118545185D01*
X121625037Y-118448494D01*
X121684002Y-118338180D01*
X121720312Y-118218482D01*
X121732572Y-118094000D01*
X121732572Y-116968514D01*
X134302500Y-116968514D01*
X134302500Y-117219485D01*
X134325470Y-117452703D01*
X134416245Y-117751948D01*
X134563655Y-118027734D01*
X134762037Y-118269463D01*
X135003765Y-118467845D01*
X135279551Y-118615255D01*
X135578796Y-118706030D01*
X135890000Y-118736681D01*
X136201203Y-118706030D01*
X136500448Y-118615255D01*
X136776234Y-118467845D01*
X137017963Y-118269463D01*
X137165163Y-118090101D01*
X137320563Y-118275315D01*
X137563077Y-118469969D01*
X137838906Y-118613571D01*
X138057020Y-118684563D01*
X138303000Y-118564594D01*
X138303000Y-117221000D01*
X138283000Y-117221000D01*
X138283000Y-116967000D01*
X138303000Y-116967000D01*
X138303000Y-115623406D01*
X138557000Y-115623406D01*
X138557000Y-116967000D01*
X138577000Y-116967000D01*
X138577000Y-117221000D01*
X138557000Y-117221000D01*
X138557000Y-118564594D01*
X138802980Y-118684563D01*
X139021094Y-118613571D01*
X139296923Y-118469969D01*
X139437941Y-118356781D01*
X139486963Y-118448494D01*
X139566315Y-118545185D01*
X139663006Y-118624537D01*
X139773320Y-118683502D01*
X139893018Y-118719812D01*
X140017500Y-118732072D01*
X141922500Y-118732072D01*
X142046982Y-118719812D01*
X142166680Y-118683502D01*
X142276994Y-118624537D01*
X142373685Y-118545185D01*
X142453037Y-118448494D01*
X142512002Y-118338180D01*
X142548312Y-118218482D01*
X142560572Y-118094000D01*
X142560572Y-116094000D01*
X142548312Y-115969518D01*
X142512002Y-115849820D01*
X142453037Y-115739506D01*
X142373685Y-115642815D01*
X142276994Y-115563463D01*
X142166680Y-115504498D01*
X142046982Y-115468188D01*
X141922500Y-115455928D01*
X140017500Y-115455928D01*
X139893018Y-115468188D01*
X139773320Y-115504498D01*
X139663006Y-115563463D01*
X139566315Y-115642815D01*
X139486963Y-115739506D01*
X139437941Y-115831219D01*
X139296923Y-115718031D01*
X139021094Y-115574429D01*
X138802980Y-115503437D01*
X138557000Y-115623406D01*
X138303000Y-115623406D01*
X138057020Y-115503437D01*
X137838906Y-115574429D01*
X137563077Y-115718031D01*
X137320563Y-115912685D01*
X137165162Y-116097900D01*
X137017963Y-115918537D01*
X136776235Y-115720155D01*
X136500449Y-115572745D01*
X136201204Y-115481970D01*
X135890000Y-115451319D01*
X135578797Y-115481970D01*
X135279552Y-115572745D01*
X135003766Y-115720155D01*
X134762037Y-115918537D01*
X134563655Y-116160265D01*
X134416245Y-116436051D01*
X134325470Y-116735296D01*
X134302500Y-116968514D01*
X121732572Y-116968514D01*
X121732572Y-116094000D01*
X121720312Y-115969518D01*
X121684002Y-115849820D01*
X121625037Y-115739506D01*
X121545685Y-115642815D01*
X121448994Y-115563463D01*
X121338680Y-115504498D01*
X121218982Y-115468188D01*
X121094500Y-115455928D01*
X119189500Y-115455928D01*
X119065018Y-115468188D01*
X118945320Y-115504498D01*
X118835006Y-115563463D01*
X118738315Y-115642815D01*
X118658963Y-115739506D01*
X118609941Y-115831219D01*
X118468923Y-115718031D01*
X118193094Y-115574429D01*
X117974980Y-115503437D01*
X117729000Y-115623406D01*
X117475000Y-115623406D01*
X117229020Y-115503437D01*
X117010906Y-115574429D01*
X116735077Y-115718031D01*
X116492563Y-115912685D01*
X116337162Y-116097900D01*
X116189963Y-115918537D01*
X115948235Y-115720155D01*
X115672449Y-115572745D01*
X115373204Y-115481970D01*
X115062000Y-115451319D01*
X114750797Y-115481970D01*
X114451552Y-115572745D01*
X114175766Y-115720155D01*
X113934037Y-115918537D01*
X113735655Y-116160265D01*
X113588245Y-116436051D01*
X113497470Y-116735296D01*
X113474500Y-116968514D01*
X106337417Y-116968514D01*
X110417266Y-112888665D01*
X113627000Y-112888665D01*
X113627000Y-113171335D01*
X113682147Y-113448574D01*
X113790320Y-113709727D01*
X113947363Y-113944759D01*
X114147241Y-114144637D01*
X114382273Y-114301680D01*
X114643426Y-114409853D01*
X114920665Y-114465000D01*
X115203335Y-114465000D01*
X115480574Y-114409853D01*
X115741727Y-114301680D01*
X115976759Y-114144637D01*
X116176637Y-113944759D01*
X116333680Y-113709727D01*
X116441853Y-113448574D01*
X116497000Y-113171335D01*
X116497000Y-113108438D01*
X117403505Y-113108438D01*
X117442605Y-113348549D01*
X117527798Y-113576418D01*
X117568652Y-113652852D01*
X117792236Y-113700159D01*
X118462395Y-113030000D01*
X117792236Y-112359841D01*
X117568652Y-112407148D01*
X117467763Y-112628516D01*
X117412000Y-112865313D01*
X117403505Y-113108438D01*
X116497000Y-113108438D01*
X116497000Y-112888665D01*
X116441853Y-112611426D01*
X116333680Y-112350273D01*
X116220066Y-112180236D01*
X117971841Y-112180236D01*
X118642000Y-112850395D01*
X118656143Y-112836253D01*
X118835748Y-113015858D01*
X118821605Y-113030000D01*
X118835748Y-113044143D01*
X118656143Y-113223748D01*
X118642000Y-113209605D01*
X117971841Y-113879764D01*
X118019148Y-114103348D01*
X118240516Y-114204237D01*
X118477313Y-114260000D01*
X118720438Y-114268495D01*
X118960549Y-114229395D01*
X119174117Y-114149549D01*
X119187506Y-114160537D01*
X119297820Y-114219502D01*
X119417518Y-114255812D01*
X119542000Y-114268072D01*
X120742000Y-114268072D01*
X120866482Y-114255812D01*
X120986180Y-114219502D01*
X121096494Y-114160537D01*
X121193185Y-114081185D01*
X121272537Y-113984494D01*
X121331502Y-113874180D01*
X121367812Y-113754482D01*
X121380072Y-113630000D01*
X121380072Y-112888665D01*
X134455000Y-112888665D01*
X134455000Y-113171335D01*
X134510147Y-113448574D01*
X134618320Y-113709727D01*
X134775363Y-113944759D01*
X134975241Y-114144637D01*
X135210273Y-114301680D01*
X135471426Y-114409853D01*
X135748665Y-114465000D01*
X136031335Y-114465000D01*
X136308574Y-114409853D01*
X136569727Y-114301680D01*
X136804759Y-114144637D01*
X137004637Y-113944759D01*
X137161680Y-113709727D01*
X137269853Y-113448574D01*
X137325000Y-113171335D01*
X137325000Y-113108438D01*
X138231505Y-113108438D01*
X138270605Y-113348549D01*
X138355798Y-113576418D01*
X138396652Y-113652852D01*
X138620236Y-113700159D01*
X139290395Y-113030000D01*
X138620236Y-112359841D01*
X138396652Y-112407148D01*
X138295763Y-112628516D01*
X138240000Y-112865313D01*
X138231505Y-113108438D01*
X137325000Y-113108438D01*
X137325000Y-112888665D01*
X137269853Y-112611426D01*
X137161680Y-112350273D01*
X137048066Y-112180236D01*
X138799841Y-112180236D01*
X139470000Y-112850395D01*
X139484143Y-112836253D01*
X139663748Y-113015858D01*
X139649605Y-113030000D01*
X139663748Y-113044143D01*
X139484143Y-113223748D01*
X139470000Y-113209605D01*
X138799841Y-113879764D01*
X138847148Y-114103348D01*
X139068516Y-114204237D01*
X139305313Y-114260000D01*
X139548438Y-114268495D01*
X139788549Y-114229395D01*
X140002117Y-114149549D01*
X140015506Y-114160537D01*
X140125820Y-114219502D01*
X140245518Y-114255812D01*
X140370000Y-114268072D01*
X141570000Y-114268072D01*
X141694482Y-114255812D01*
X141814180Y-114219502D01*
X141924494Y-114160537D01*
X142021185Y-114081185D01*
X142100537Y-113984494D01*
X142159502Y-113874180D01*
X142195812Y-113754482D01*
X142208072Y-113630000D01*
X142208072Y-112430000D01*
X142195812Y-112305518D01*
X142159502Y-112185820D01*
X142100537Y-112075506D01*
X142021185Y-111978815D01*
X141924494Y-111899463D01*
X141814180Y-111840498D01*
X141694482Y-111804188D01*
X141570000Y-111791928D01*
X140370000Y-111791928D01*
X140245518Y-111804188D01*
X140125820Y-111840498D01*
X140015506Y-111899463D01*
X139998319Y-111913568D01*
X139871484Y-111855763D01*
X139634687Y-111800000D01*
X139391562Y-111791505D01*
X139151451Y-111830605D01*
X138923582Y-111915798D01*
X138847148Y-111956652D01*
X138799841Y-112180236D01*
X137048066Y-112180236D01*
X137004637Y-112115241D01*
X136804759Y-111915363D01*
X136604131Y-111781308D01*
X136631514Y-111766671D01*
X136703097Y-111522702D01*
X135890000Y-110709605D01*
X135076903Y-111522702D01*
X135148486Y-111766671D01*
X135177341Y-111780324D01*
X134975241Y-111915363D01*
X134775363Y-112115241D01*
X134618320Y-112350273D01*
X134510147Y-112611426D01*
X134455000Y-112888665D01*
X121380072Y-112888665D01*
X121380072Y-112430000D01*
X121367812Y-112305518D01*
X121331502Y-112185820D01*
X121272537Y-112075506D01*
X121193185Y-111978815D01*
X121096494Y-111899463D01*
X120986180Y-111840498D01*
X120866482Y-111804188D01*
X120742000Y-111791928D01*
X119542000Y-111791928D01*
X119417518Y-111804188D01*
X119297820Y-111840498D01*
X119187506Y-111899463D01*
X119170319Y-111913568D01*
X119043484Y-111855763D01*
X118806687Y-111800000D01*
X118563562Y-111791505D01*
X118323451Y-111830605D01*
X118095582Y-111915798D01*
X118019148Y-111956652D01*
X117971841Y-112180236D01*
X116220066Y-112180236D01*
X116176637Y-112115241D01*
X115976759Y-111915363D01*
X115776131Y-111781308D01*
X115803514Y-111766671D01*
X115875097Y-111522702D01*
X115062000Y-110709605D01*
X114248903Y-111522702D01*
X114320486Y-111766671D01*
X114349341Y-111780324D01*
X114147241Y-111915363D01*
X113947363Y-112115241D01*
X113790320Y-112350273D01*
X113682147Y-112611426D01*
X113627000Y-112888665D01*
X110417266Y-112888665D01*
X112705419Y-110600512D01*
X113621783Y-110600512D01*
X113663213Y-110880130D01*
X113758397Y-111146292D01*
X113825329Y-111271514D01*
X114069298Y-111343097D01*
X114882395Y-110530000D01*
X115241605Y-110530000D01*
X116054702Y-111343097D01*
X116298671Y-111271514D01*
X116419571Y-111016004D01*
X116488300Y-110741816D01*
X116495265Y-110600512D01*
X134449783Y-110600512D01*
X134491213Y-110880130D01*
X134586397Y-111146292D01*
X134653329Y-111271514D01*
X134897298Y-111343097D01*
X135710395Y-110530000D01*
X136069605Y-110530000D01*
X136882702Y-111343097D01*
X137126671Y-111271514D01*
X137247571Y-111016004D01*
X137316300Y-110741816D01*
X137330217Y-110459488D01*
X137288787Y-110179870D01*
X137193603Y-109913708D01*
X137126671Y-109788486D01*
X136882702Y-109716903D01*
X136069605Y-110530000D01*
X135710395Y-110530000D01*
X134897298Y-109716903D01*
X134653329Y-109788486D01*
X134532429Y-110043996D01*
X134463700Y-110318184D01*
X134449783Y-110600512D01*
X116495265Y-110600512D01*
X116502217Y-110459488D01*
X116460787Y-110179870D01*
X116365603Y-109913708D01*
X116298671Y-109788486D01*
X116054702Y-109716903D01*
X115241605Y-110530000D01*
X114882395Y-110530000D01*
X114069298Y-109716903D01*
X113825329Y-109788486D01*
X113704429Y-110043996D01*
X113635700Y-110318184D01*
X113621783Y-110600512D01*
X112705419Y-110600512D01*
X113768633Y-109537298D01*
X114248903Y-109537298D01*
X115062000Y-110350395D01*
X115875097Y-109537298D01*
X135076903Y-109537298D01*
X135890000Y-110350395D01*
X136703097Y-109537298D01*
X136631514Y-109293329D01*
X136376004Y-109172429D01*
X136101816Y-109103700D01*
X135819488Y-109089783D01*
X135539870Y-109131213D01*
X135273708Y-109226397D01*
X135148486Y-109293329D01*
X135076903Y-109537298D01*
X115875097Y-109537298D01*
X115803514Y-109293329D01*
X115548004Y-109172429D01*
X115273816Y-109103700D01*
X114991488Y-109089783D01*
X114711870Y-109131213D01*
X114445708Y-109226397D01*
X114320486Y-109293329D01*
X114248903Y-109537298D01*
X113768633Y-109537298D01*
X114448002Y-108857930D01*
X114477000Y-108834132D01*
X114571973Y-108718407D01*
X114642545Y-108586378D01*
X114686002Y-108443117D01*
X114696999Y-108331464D01*
X114696999Y-108331456D01*
X114700675Y-108294131D01*
X114696999Y-108256806D01*
X114696999Y-105325802D01*
X115609802Y-104413000D01*
X115671939Y-104413000D01*
X115871898Y-104373226D01*
X116060256Y-104295205D01*
X116229774Y-104181937D01*
X116373937Y-104037774D01*
X116430321Y-103953389D01*
X116487363Y-104038759D01*
X116687241Y-104238637D01*
X116919759Y-104394000D01*
X116687241Y-104549363D01*
X116487363Y-104749241D01*
X116330320Y-104984273D01*
X116222147Y-105245426D01*
X116167000Y-105522665D01*
X116167000Y-105805335D01*
X116222147Y-106082574D01*
X116330320Y-106343727D01*
X116487363Y-106578759D01*
X116687241Y-106778637D01*
X116922273Y-106935680D01*
X117183426Y-107043853D01*
X117460665Y-107099000D01*
X117743335Y-107099000D01*
X118020574Y-107043853D01*
X118281727Y-106935680D01*
X118516759Y-106778637D01*
X118716637Y-106578759D01*
X118873680Y-106343727D01*
X118981853Y-106082574D01*
X119037000Y-105805335D01*
X119037000Y-105522665D01*
X118981853Y-105245426D01*
X118873680Y-104984273D01*
X118716637Y-104749241D01*
X118516759Y-104549363D01*
X118284241Y-104394000D01*
X118516759Y-104238637D01*
X118716637Y-104038759D01*
X118873680Y-103803727D01*
X118981853Y-103542574D01*
X119037000Y-103265335D01*
X119037000Y-103011980D01*
X130219626Y-103011980D01*
X130339514Y-103296836D01*
X130663210Y-103457699D01*
X131012069Y-103552322D01*
X131372684Y-103577067D01*
X131731198Y-103530985D01*
X132073833Y-103415846D01*
X132296486Y-103296836D01*
X132416374Y-103011980D01*
X131318000Y-101913605D01*
X130219626Y-103011980D01*
X119037000Y-103011980D01*
X119037000Y-102982665D01*
X118981853Y-102705426D01*
X118873680Y-102444273D01*
X118716637Y-102209241D01*
X118516759Y-102009363D01*
X118284241Y-101854000D01*
X118381993Y-101788684D01*
X129474933Y-101788684D01*
X129521015Y-102147198D01*
X129636154Y-102489833D01*
X129755164Y-102712486D01*
X130040020Y-102832374D01*
X131138395Y-101734000D01*
X130040020Y-100635626D01*
X129755164Y-100755514D01*
X129594301Y-101079210D01*
X129499678Y-101428069D01*
X129474933Y-101788684D01*
X118381993Y-101788684D01*
X118516759Y-101698637D01*
X118716637Y-101498759D01*
X118873680Y-101263727D01*
X118981853Y-101002574D01*
X119037000Y-100725335D01*
X119037000Y-100442665D01*
X118981853Y-100165426D01*
X118873680Y-99904273D01*
X118716637Y-99669241D01*
X118516759Y-99469363D01*
X118284241Y-99314000D01*
X118516759Y-99158637D01*
X118716637Y-98958759D01*
X118873680Y-98723727D01*
X118981853Y-98462574D01*
X119037000Y-98185335D01*
X119037000Y-97902665D01*
X118981853Y-97625426D01*
X118873680Y-97364273D01*
X118716637Y-97129241D01*
X118516759Y-96929363D01*
X118284241Y-96774000D01*
X118516759Y-96618637D01*
X118716637Y-96418759D01*
X118873680Y-96183727D01*
X118981853Y-95922574D01*
X119037000Y-95645335D01*
X119037000Y-95362665D01*
X118985150Y-95102001D01*
X126132202Y-95102001D01*
X130960107Y-99929906D01*
X130904802Y-99937015D01*
X130562167Y-100052154D01*
X130339514Y-100171164D01*
X130219626Y-100456020D01*
X131318000Y-101554395D01*
X131332142Y-101540252D01*
X131511748Y-101719858D01*
X131497605Y-101734000D01*
X132595980Y-102832374D01*
X132880836Y-102712486D01*
X133041699Y-102388790D01*
X133122199Y-102091999D01*
X148592000Y-117561801D01*
X148592001Y-120320956D01*
X148437241Y-120424363D01*
X148237363Y-120624241D01*
X148080320Y-120859273D01*
X147972147Y-121120426D01*
X147917000Y-121397665D01*
X147917000Y-121680335D01*
X147972147Y-121957574D01*
X148080320Y-122218727D01*
X148237363Y-122453759D01*
X148437241Y-122653637D01*
X148672273Y-122810680D01*
X148933426Y-122918853D01*
X149210665Y-122974000D01*
X149493335Y-122974000D01*
X149770574Y-122918853D01*
X150031727Y-122810680D01*
X150266759Y-122653637D01*
X150466637Y-122453759D01*
X150623680Y-122218727D01*
X150731853Y-121957574D01*
X150787000Y-121680335D01*
X150787000Y-121397665D01*
X150731853Y-121120426D01*
X150623680Y-120859273D01*
X150543317Y-120739000D01*
X155533928Y-120739000D01*
X155533928Y-122339000D01*
X155546188Y-122463482D01*
X155582498Y-122583180D01*
X155641463Y-122693494D01*
X155720815Y-122790185D01*
X155817506Y-122869537D01*
X155927820Y-122928502D01*
X156047518Y-122964812D01*
X156172000Y-122977072D01*
X157772000Y-122977072D01*
X157896482Y-122964812D01*
X158016180Y-122928502D01*
X158126494Y-122869537D01*
X158223185Y-122790185D01*
X158302537Y-122693494D01*
X158361502Y-122583180D01*
X158397812Y-122463482D01*
X158410072Y-122339000D01*
X158410072Y-120739000D01*
X158397812Y-120614518D01*
X158361502Y-120494820D01*
X158302537Y-120384506D01*
X158223185Y-120287815D01*
X158126494Y-120208463D01*
X158016180Y-120149498D01*
X157896482Y-120113188D01*
X157843471Y-120107967D01*
X160577000Y-120107967D01*
X160577000Y-120430033D01*
X160639832Y-120745912D01*
X160763082Y-121043463D01*
X160942013Y-121311252D01*
X161169748Y-121538987D01*
X161437537Y-121717918D01*
X161735088Y-121841168D01*
X162050967Y-121904000D01*
X162373033Y-121904000D01*
X162688912Y-121841168D01*
X162986463Y-121717918D01*
X163254252Y-121538987D01*
X163481987Y-121311252D01*
X163660918Y-121043463D01*
X163784168Y-120745912D01*
X163847000Y-120430033D01*
X163847000Y-120107967D01*
X164357000Y-120107967D01*
X164357000Y-120430033D01*
X164419832Y-120745912D01*
X164543082Y-121043463D01*
X164722013Y-121311252D01*
X164949748Y-121538987D01*
X165217537Y-121717918D01*
X165515088Y-121841168D01*
X165830967Y-121904000D01*
X166153033Y-121904000D01*
X166468912Y-121841168D01*
X166766463Y-121717918D01*
X167034252Y-121538987D01*
X167261987Y-121311252D01*
X167440918Y-121043463D01*
X167564168Y-120745912D01*
X167627000Y-120430033D01*
X167627000Y-120107967D01*
X167564168Y-119792088D01*
X167440918Y-119494537D01*
X167261987Y-119226748D01*
X167034252Y-118999013D01*
X166766463Y-118820082D01*
X166468912Y-118696832D01*
X166153033Y-118634000D01*
X165830967Y-118634000D01*
X165515088Y-118696832D01*
X165217537Y-118820082D01*
X164949748Y-118999013D01*
X164722013Y-119226748D01*
X164543082Y-119494537D01*
X164419832Y-119792088D01*
X164357000Y-120107967D01*
X163847000Y-120107967D01*
X163784168Y-119792088D01*
X163660918Y-119494537D01*
X163481987Y-119226748D01*
X163254252Y-118999013D01*
X162986463Y-118820082D01*
X162688912Y-118696832D01*
X162373033Y-118634000D01*
X162050967Y-118634000D01*
X161735088Y-118696832D01*
X161437537Y-118820082D01*
X161169748Y-118999013D01*
X160942013Y-119226748D01*
X160763082Y-119494537D01*
X160639832Y-119792088D01*
X160577000Y-120107967D01*
X157843471Y-120107967D01*
X157772000Y-120100928D01*
X156172000Y-120100928D01*
X156047518Y-120113188D01*
X155927820Y-120149498D01*
X155817506Y-120208463D01*
X155720815Y-120287815D01*
X155641463Y-120384506D01*
X155582498Y-120494820D01*
X155546188Y-120614518D01*
X155533928Y-120739000D01*
X150543317Y-120739000D01*
X150466637Y-120624241D01*
X150266759Y-120424363D01*
X150112000Y-120320957D01*
X150112000Y-117284320D01*
X150115676Y-117246997D01*
X150112000Y-117209674D01*
X150112000Y-117209665D01*
X150101003Y-117098012D01*
X150057546Y-116954751D01*
X149986974Y-116822722D01*
X149963808Y-116794494D01*
X149915799Y-116735994D01*
X149915795Y-116735990D01*
X149892001Y-116706997D01*
X149863010Y-116683205D01*
X138319804Y-105140000D01*
X143141928Y-105140000D01*
X143154188Y-105264482D01*
X143190498Y-105384180D01*
X143249463Y-105494494D01*
X143328815Y-105591185D01*
X143425506Y-105670537D01*
X143535820Y-105729502D01*
X143655518Y-105765812D01*
X143780000Y-105778072D01*
X144494250Y-105775000D01*
X144653000Y-105616250D01*
X144653000Y-104267000D01*
X144907000Y-104267000D01*
X144907000Y-105616250D01*
X145065750Y-105775000D01*
X145780000Y-105778072D01*
X145904482Y-105765812D01*
X146024180Y-105729502D01*
X146134494Y-105670537D01*
X146231185Y-105591185D01*
X146310537Y-105494494D01*
X146369502Y-105384180D01*
X146405812Y-105264482D01*
X146418072Y-105140000D01*
X146415000Y-104425750D01*
X146256250Y-104267000D01*
X144907000Y-104267000D01*
X144653000Y-104267000D01*
X143303750Y-104267000D01*
X143145000Y-104425750D01*
X143141928Y-105140000D01*
X138319804Y-105140000D01*
X136319804Y-103140000D01*
X143141928Y-103140000D01*
X143145000Y-103854250D01*
X143303750Y-104013000D01*
X144653000Y-104013000D01*
X144653000Y-102663750D01*
X144907000Y-102663750D01*
X144907000Y-104013000D01*
X146256250Y-104013000D01*
X146415000Y-103854250D01*
X146418072Y-103140000D01*
X146405812Y-103015518D01*
X146369502Y-102895820D01*
X146310537Y-102785506D01*
X146231185Y-102688815D01*
X146134494Y-102609463D01*
X146024180Y-102550498D01*
X145904482Y-102514188D01*
X145780000Y-102501928D01*
X145065750Y-102505000D01*
X144907000Y-102663750D01*
X144653000Y-102663750D01*
X144494250Y-102505000D01*
X143780000Y-102501928D01*
X143655518Y-102514188D01*
X143535820Y-102550498D01*
X143425506Y-102609463D01*
X143328815Y-102688815D01*
X143249463Y-102785506D01*
X143190498Y-102895820D01*
X143154188Y-103015518D01*
X143141928Y-103140000D01*
X136319804Y-103140000D01*
X134983271Y-101803467D01*
X150667500Y-101803467D01*
X150667500Y-102125533D01*
X150730332Y-102441412D01*
X150853582Y-102738963D01*
X151032513Y-103006752D01*
X151260248Y-103234487D01*
X151528037Y-103413418D01*
X151825588Y-103536668D01*
X152141467Y-103599500D01*
X152463533Y-103599500D01*
X152779412Y-103536668D01*
X153076963Y-103413418D01*
X153344752Y-103234487D01*
X153572487Y-103006752D01*
X153751418Y-102738963D01*
X153874668Y-102441412D01*
X153937500Y-102125533D01*
X153937500Y-101803467D01*
X153874668Y-101487588D01*
X153751418Y-101190037D01*
X153572487Y-100922248D01*
X153344752Y-100694513D01*
X153076963Y-100515582D01*
X152779412Y-100392332D01*
X152463533Y-100329500D01*
X152141467Y-100329500D01*
X151825588Y-100392332D01*
X151528037Y-100515582D01*
X151260248Y-100694513D01*
X151032513Y-100922248D01*
X150853582Y-101190037D01*
X150730332Y-101487588D01*
X150667500Y-101803467D01*
X134983271Y-101803467D01*
X132158771Y-98978967D01*
X143145000Y-98978967D01*
X143145000Y-99301033D01*
X143207832Y-99616912D01*
X143331082Y-99914463D01*
X143510013Y-100182252D01*
X143737748Y-100409987D01*
X144005537Y-100588918D01*
X144303088Y-100712168D01*
X144618967Y-100775000D01*
X144941033Y-100775000D01*
X145256912Y-100712168D01*
X145554463Y-100588918D01*
X145822252Y-100409987D01*
X146049987Y-100182252D01*
X146228918Y-99914463D01*
X146352168Y-99616912D01*
X146415000Y-99301033D01*
X146415000Y-98978967D01*
X146352168Y-98663088D01*
X146228918Y-98365537D01*
X146049987Y-98097748D01*
X145822252Y-97870013D01*
X145554463Y-97691082D01*
X145256912Y-97567832D01*
X144941033Y-97505000D01*
X144618967Y-97505000D01*
X144303088Y-97567832D01*
X144005537Y-97691082D01*
X143737748Y-97870013D01*
X143510013Y-98097748D01*
X143331082Y-98365537D01*
X143207832Y-98663088D01*
X143145000Y-98978967D01*
X132158771Y-98978967D01*
X127010807Y-93831004D01*
X126987004Y-93802000D01*
X126871279Y-93707027D01*
X126739250Y-93636455D01*
X126595989Y-93592998D01*
X126484336Y-93582001D01*
X126484325Y-93582001D01*
X126447003Y-93578325D01*
X126409681Y-93582001D01*
X122057679Y-93582001D01*
X122156853Y-93342574D01*
X122212000Y-93065335D01*
X122212000Y-93034000D01*
X129479928Y-93034000D01*
X129479928Y-95434000D01*
X129492188Y-95558482D01*
X129528498Y-95678180D01*
X129587463Y-95788494D01*
X129666815Y-95885185D01*
X129763506Y-95964537D01*
X129873820Y-96023502D01*
X129993518Y-96059812D01*
X130118000Y-96072072D01*
X132518000Y-96072072D01*
X132642482Y-96059812D01*
X132762180Y-96023502D01*
X132872494Y-95964537D01*
X132969185Y-95885185D01*
X133048537Y-95788494D01*
X133107502Y-95678180D01*
X133143812Y-95558482D01*
X133156072Y-95434000D01*
X133156072Y-93978967D01*
X143145000Y-93978967D01*
X143145000Y-94301033D01*
X143207832Y-94616912D01*
X143331082Y-94914463D01*
X143510013Y-95182252D01*
X143737748Y-95409987D01*
X144005537Y-95588918D01*
X144303088Y-95712168D01*
X144618967Y-95775000D01*
X144941033Y-95775000D01*
X145256912Y-95712168D01*
X145554463Y-95588918D01*
X145822252Y-95409987D01*
X146049987Y-95182252D01*
X146228918Y-94914463D01*
X146352168Y-94616912D01*
X146415000Y-94301033D01*
X146415000Y-93978967D01*
X146352168Y-93663088D01*
X146228918Y-93365537D01*
X146049987Y-93097748D01*
X145822252Y-92870013D01*
X145554463Y-92691082D01*
X145256912Y-92567832D01*
X144941033Y-92505000D01*
X144618967Y-92505000D01*
X144303088Y-92567832D01*
X144005537Y-92691082D01*
X143737748Y-92870013D01*
X143510013Y-93097748D01*
X143331082Y-93365537D01*
X143207832Y-93663088D01*
X143145000Y-93978967D01*
X133156072Y-93978967D01*
X133156072Y-93034000D01*
X133143812Y-92909518D01*
X133107502Y-92789820D01*
X133048537Y-92679506D01*
X132969185Y-92582815D01*
X132872494Y-92503463D01*
X132762180Y-92444498D01*
X132642482Y-92408188D01*
X132518000Y-92395928D01*
X130118000Y-92395928D01*
X129993518Y-92408188D01*
X129873820Y-92444498D01*
X129763506Y-92503463D01*
X129666815Y-92582815D01*
X129587463Y-92679506D01*
X129528498Y-92789820D01*
X129492188Y-92909518D01*
X129479928Y-93034000D01*
X122212000Y-93034000D01*
X122212000Y-92782665D01*
X122156853Y-92505426D01*
X122048680Y-92244273D01*
X121891637Y-92009241D01*
X121691759Y-91809363D01*
X121682935Y-91803467D01*
X150667500Y-91803467D01*
X150667500Y-92125533D01*
X150730332Y-92441412D01*
X150853582Y-92738963D01*
X151032513Y-93006752D01*
X151260248Y-93234487D01*
X151528037Y-93413418D01*
X151825588Y-93536668D01*
X152141467Y-93599500D01*
X152463533Y-93599500D01*
X152779412Y-93536668D01*
X153076963Y-93413418D01*
X153344752Y-93234487D01*
X153572487Y-93006752D01*
X153751418Y-92738963D01*
X153874668Y-92441412D01*
X153937500Y-92125533D01*
X153937500Y-91803467D01*
X153874668Y-91487588D01*
X153751418Y-91190037D01*
X153572487Y-90922248D01*
X153344752Y-90694513D01*
X153076963Y-90515582D01*
X152779412Y-90392332D01*
X152463533Y-90329500D01*
X152141467Y-90329500D01*
X151825588Y-90392332D01*
X151528037Y-90515582D01*
X151260248Y-90694513D01*
X151032513Y-90922248D01*
X150853582Y-91190037D01*
X150730332Y-91487588D01*
X150667500Y-91803467D01*
X121682935Y-91803467D01*
X121491131Y-91675308D01*
X121518514Y-91660671D01*
X121590097Y-91416702D01*
X120777000Y-90603605D01*
X119963903Y-91416702D01*
X120035486Y-91660671D01*
X120064341Y-91674324D01*
X119862241Y-91809363D01*
X119662363Y-92009241D01*
X119505320Y-92244273D01*
X119397147Y-92505426D01*
X119342000Y-92782665D01*
X119342000Y-93065335D01*
X119397147Y-93342574D01*
X119496321Y-93582001D01*
X118899248Y-93582001D01*
X118981853Y-93382574D01*
X119037000Y-93105335D01*
X119037000Y-92822665D01*
X118981853Y-92545426D01*
X118873680Y-92284273D01*
X118716637Y-92049241D01*
X118516759Y-91849363D01*
X118284241Y-91694000D01*
X118516759Y-91538637D01*
X118716637Y-91338759D01*
X118873680Y-91103727D01*
X118981853Y-90842574D01*
X119037000Y-90565335D01*
X119037000Y-90494512D01*
X119336783Y-90494512D01*
X119378213Y-90774130D01*
X119473397Y-91040292D01*
X119540329Y-91165514D01*
X119784298Y-91237097D01*
X120597395Y-90424000D01*
X120956605Y-90424000D01*
X121769702Y-91237097D01*
X122013671Y-91165514D01*
X122134571Y-90910004D01*
X122203300Y-90635816D01*
X122217217Y-90353488D01*
X122175787Y-90073870D01*
X122080603Y-89807708D01*
X122013671Y-89682486D01*
X121769702Y-89610903D01*
X120956605Y-90424000D01*
X120597395Y-90424000D01*
X119784298Y-89610903D01*
X119540329Y-89682486D01*
X119419429Y-89937996D01*
X119350700Y-90212184D01*
X119336783Y-90494512D01*
X119037000Y-90494512D01*
X119037000Y-90282665D01*
X118981853Y-90005426D01*
X118873680Y-89744273D01*
X118716637Y-89509241D01*
X118638694Y-89431298D01*
X119963903Y-89431298D01*
X120777000Y-90244395D01*
X121590097Y-89431298D01*
X121518514Y-89187329D01*
X121263004Y-89066429D01*
X120988816Y-88997700D01*
X120706488Y-88983783D01*
X120426870Y-89025213D01*
X120160708Y-89120397D01*
X120035486Y-89187329D01*
X119963903Y-89431298D01*
X118638694Y-89431298D01*
X118516759Y-89309363D01*
X118281727Y-89152320D01*
X118271135Y-89147933D01*
X118457131Y-89036385D01*
X118520448Y-88978967D01*
X143145000Y-88978967D01*
X143145000Y-89301033D01*
X143207832Y-89616912D01*
X143331082Y-89914463D01*
X143510013Y-90182252D01*
X143737748Y-90409987D01*
X144005537Y-90588918D01*
X144303088Y-90712168D01*
X144618967Y-90775000D01*
X144941033Y-90775000D01*
X145256912Y-90712168D01*
X145554463Y-90588918D01*
X145822252Y-90409987D01*
X146049987Y-90182252D01*
X146228918Y-89914463D01*
X146352168Y-89616912D01*
X146415000Y-89301033D01*
X146415000Y-88978967D01*
X146352168Y-88663088D01*
X146228918Y-88365537D01*
X146049987Y-88097748D01*
X145822252Y-87870013D01*
X145554463Y-87691082D01*
X145256912Y-87567832D01*
X144941033Y-87505000D01*
X144618967Y-87505000D01*
X144303088Y-87567832D01*
X144005537Y-87691082D01*
X143737748Y-87870013D01*
X143510013Y-88097748D01*
X143331082Y-88365537D01*
X143207832Y-88663088D01*
X143145000Y-88978967D01*
X118520448Y-88978967D01*
X118665519Y-88847414D01*
X118833037Y-88621420D01*
X118953246Y-88367087D01*
X118993904Y-88233039D01*
X118871915Y-88011000D01*
X117729000Y-88011000D01*
X117729000Y-88031000D01*
X117475000Y-88031000D01*
X117475000Y-88011000D01*
X116332085Y-88011000D01*
X116210096Y-88233039D01*
X116250754Y-88367087D01*
X116370963Y-88621420D01*
X116538481Y-88847414D01*
X116746869Y-89036385D01*
X116932865Y-89147933D01*
X116922273Y-89152320D01*
X116687241Y-89309363D01*
X116487363Y-89509241D01*
X116330320Y-89744273D01*
X116222147Y-90005426D01*
X116167000Y-90282665D01*
X116167000Y-90565335D01*
X116204533Y-90754023D01*
X116167027Y-90799723D01*
X116129461Y-90870004D01*
X116096455Y-90931753D01*
X116052998Y-91075014D01*
X116042001Y-91186667D01*
X116042001Y-91186677D01*
X116038325Y-91223999D01*
X116042001Y-91261322D01*
X116042002Y-92126669D01*
X116038325Y-92164001D01*
X116052999Y-92312986D01*
X116096455Y-92456247D01*
X116167027Y-92588277D01*
X116204533Y-92633977D01*
X116167000Y-92822665D01*
X116167000Y-93105335D01*
X116222147Y-93382574D01*
X116304752Y-93582001D01*
X113548634Y-93582001D01*
X113517226Y-93424102D01*
X113439205Y-93235744D01*
X113325937Y-93066226D01*
X113181774Y-92922063D01*
X113012256Y-92808795D01*
X112823898Y-92730774D01*
X112623939Y-92691000D01*
X112420061Y-92691000D01*
X112220102Y-92730774D01*
X112031744Y-92808795D01*
X111862226Y-92922063D01*
X111718063Y-93066226D01*
X111604795Y-93235744D01*
X111526774Y-93424102D01*
X111487000Y-93624061D01*
X111487000Y-93686198D01*
X110829066Y-94344132D01*
X110664241Y-94234000D01*
X110896759Y-94078637D01*
X111096637Y-93878759D01*
X111253680Y-93643727D01*
X111361853Y-93382574D01*
X111417000Y-93105335D01*
X111417000Y-92822665D01*
X111361853Y-92545426D01*
X111332623Y-92474858D01*
X111334279Y-92473973D01*
X111450004Y-92379000D01*
X111473807Y-92349996D01*
X113758004Y-90065800D01*
X113787002Y-90042002D01*
X113881975Y-89926277D01*
X113952547Y-89794248D01*
X113996004Y-89650987D01*
X114007001Y-89539334D01*
X114007001Y-89539325D01*
X114010677Y-89502002D01*
X114007001Y-89464679D01*
X114007001Y-84933800D01*
X116167000Y-82773802D01*
X116167000Y-82945335D01*
X116222147Y-83222574D01*
X116330320Y-83483727D01*
X116487363Y-83718759D01*
X116687241Y-83918637D01*
X116919759Y-84074000D01*
X116687241Y-84229363D01*
X116487363Y-84429241D01*
X116330320Y-84664273D01*
X116222147Y-84925426D01*
X116167000Y-85202665D01*
X116167000Y-85485335D01*
X116222147Y-85762574D01*
X116330320Y-86023727D01*
X116487363Y-86258759D01*
X116687241Y-86458637D01*
X116922273Y-86615680D01*
X116932865Y-86620067D01*
X116746869Y-86731615D01*
X116538481Y-86920586D01*
X116370963Y-87146580D01*
X116250754Y-87400913D01*
X116210096Y-87534961D01*
X116332085Y-87757000D01*
X117475000Y-87757000D01*
X117475000Y-87737000D01*
X117729000Y-87737000D01*
X117729000Y-87757000D01*
X118871915Y-87757000D01*
X118993904Y-87534961D01*
X118953246Y-87400913D01*
X118833037Y-87146580D01*
X118665519Y-86920586D01*
X118457131Y-86731615D01*
X118271135Y-86620067D01*
X118281727Y-86615680D01*
X118516759Y-86458637D01*
X118716637Y-86258759D01*
X118873680Y-86023727D01*
X118981853Y-85762574D01*
X119037000Y-85485335D01*
X119037000Y-85202665D01*
X119000688Y-85020114D01*
X120145003Y-83875799D01*
X120174001Y-83852001D01*
X120205724Y-83813347D01*
X120268974Y-83736277D01*
X120284099Y-83707980D01*
X131743626Y-83707980D01*
X131863514Y-83992836D01*
X132187210Y-84153699D01*
X132536069Y-84248322D01*
X132896684Y-84273067D01*
X133255198Y-84226985D01*
X133597833Y-84111846D01*
X133820486Y-83992836D01*
X133940374Y-83707980D01*
X132842000Y-82609605D01*
X131743626Y-83707980D01*
X120284099Y-83707980D01*
X120339546Y-83604247D01*
X120351648Y-83564350D01*
X120383003Y-83460986D01*
X120394000Y-83349333D01*
X120394000Y-83349323D01*
X120397676Y-83312000D01*
X120394000Y-83274677D01*
X120394000Y-82484684D01*
X130998933Y-82484684D01*
X131045015Y-82843198D01*
X131160154Y-83185833D01*
X131279164Y-83408486D01*
X131564020Y-83528374D01*
X132662395Y-82430000D01*
X133021605Y-82430000D01*
X134119980Y-83528374D01*
X134404836Y-83408486D01*
X134565699Y-83084790D01*
X134660322Y-82735931D01*
X134685067Y-82375316D01*
X134638985Y-82016802D01*
X134523846Y-81674167D01*
X134404836Y-81451514D01*
X134119980Y-81331626D01*
X133021605Y-82430000D01*
X132662395Y-82430000D01*
X131564020Y-81331626D01*
X131279164Y-81451514D01*
X131118301Y-81775210D01*
X131023678Y-82124069D01*
X130998933Y-82484684D01*
X120394000Y-82484684D01*
X120394000Y-81152020D01*
X131743626Y-81152020D01*
X132842000Y-82250395D01*
X133940374Y-81152020D01*
X133820486Y-80867164D01*
X133496790Y-80706301D01*
X133147931Y-80611678D01*
X132787316Y-80586933D01*
X132428802Y-80633015D01*
X132086167Y-80748154D01*
X131863514Y-80867164D01*
X131743626Y-81152020D01*
X120394000Y-81152020D01*
X120394000Y-80717371D01*
X120478273Y-80773680D01*
X120739426Y-80881853D01*
X121016665Y-80937000D01*
X121299335Y-80937000D01*
X121576574Y-80881853D01*
X121837727Y-80773680D01*
X122072759Y-80616637D01*
X122272637Y-80416759D01*
X122429680Y-80181727D01*
X122537853Y-79920574D01*
X122593000Y-79643335D01*
X122593000Y-79360665D01*
X122537853Y-79083426D01*
X122429680Y-78822273D01*
X122272637Y-78587241D01*
X122072759Y-78387363D01*
X121837727Y-78230320D01*
X121576574Y-78122147D01*
X121299335Y-78067000D01*
X121016665Y-78067000D01*
X120739426Y-78122147D01*
X120478273Y-78230320D01*
X120394000Y-78286629D01*
X120394000Y-77665711D01*
X120437937Y-77621774D01*
X120551205Y-77452256D01*
X120629226Y-77263898D01*
X120669000Y-77063939D01*
X120669000Y-76860061D01*
X120629226Y-76660102D01*
X120551205Y-76471744D01*
X120437937Y-76302226D01*
X120293774Y-76158063D01*
X120124256Y-76044795D01*
X119935898Y-75966774D01*
X119735939Y-75927000D01*
X119532061Y-75927000D01*
X119332102Y-75966774D01*
X119143744Y-76044795D01*
X118974226Y-76158063D01*
X118830063Y-76302226D01*
X118716795Y-76471744D01*
X118638774Y-76660102D01*
X118626949Y-76719553D01*
X118516759Y-76609363D01*
X118284241Y-76454000D01*
X118516759Y-76298637D01*
X118716637Y-76098759D01*
X118873680Y-75863727D01*
X118981853Y-75602574D01*
X119037000Y-75325335D01*
X119037000Y-75042665D01*
X118981853Y-74765426D01*
X118873680Y-74504273D01*
X118716637Y-74269241D01*
X118516759Y-74069363D01*
X118284241Y-73914000D01*
X118516759Y-73758637D01*
X118545396Y-73730000D01*
X131003928Y-73730000D01*
X131003928Y-76130000D01*
X131016188Y-76254482D01*
X131052498Y-76374180D01*
X131111463Y-76484494D01*
X131190815Y-76581185D01*
X131287506Y-76660537D01*
X131397820Y-76719502D01*
X131517518Y-76755812D01*
X131642000Y-76768072D01*
X134042000Y-76768072D01*
X134166482Y-76755812D01*
X134286180Y-76719502D01*
X134396494Y-76660537D01*
X134493185Y-76581185D01*
X134572537Y-76484494D01*
X134631502Y-76374180D01*
X134667812Y-76254482D01*
X134680072Y-76130000D01*
X134680072Y-73730000D01*
X134667812Y-73605518D01*
X134631502Y-73485820D01*
X134572537Y-73375506D01*
X134493185Y-73278815D01*
X134396494Y-73199463D01*
X134286180Y-73140498D01*
X134166482Y-73104188D01*
X134042000Y-73091928D01*
X131642000Y-73091928D01*
X131517518Y-73104188D01*
X131397820Y-73140498D01*
X131287506Y-73199463D01*
X131190815Y-73278815D01*
X131111463Y-73375506D01*
X131052498Y-73485820D01*
X131016188Y-73605518D01*
X131003928Y-73730000D01*
X118545396Y-73730000D01*
X118716637Y-73558759D01*
X118873680Y-73323727D01*
X118981853Y-73062574D01*
X119037000Y-72785335D01*
X119037000Y-72502665D01*
X118981853Y-72225426D01*
X118873680Y-71964273D01*
X118724271Y-71740665D01*
X119723000Y-71740665D01*
X119723000Y-72023335D01*
X119778147Y-72300574D01*
X119886320Y-72561727D01*
X120043363Y-72796759D01*
X120243241Y-72996637D01*
X120478273Y-73153680D01*
X120739426Y-73261853D01*
X121016665Y-73317000D01*
X121299335Y-73317000D01*
X121576574Y-73261853D01*
X121837727Y-73153680D01*
X122072759Y-72996637D01*
X122272637Y-72796759D01*
X122429680Y-72561727D01*
X122454144Y-72502665D01*
X147917000Y-72502665D01*
X147917000Y-72785335D01*
X147972147Y-73062574D01*
X148080320Y-73323727D01*
X148237363Y-73558759D01*
X148437241Y-73758637D01*
X148672273Y-73915680D01*
X148933426Y-74023853D01*
X149210665Y-74079000D01*
X149493335Y-74079000D01*
X149770574Y-74023853D01*
X150031727Y-73915680D01*
X150266759Y-73758637D01*
X150466637Y-73558759D01*
X150623680Y-73323727D01*
X150731853Y-73062574D01*
X150787000Y-72785335D01*
X150787000Y-72502665D01*
X150731853Y-72225426D01*
X150623680Y-71964273D01*
X150543317Y-71844000D01*
X155533928Y-71844000D01*
X155533928Y-73444000D01*
X155546188Y-73568482D01*
X155582498Y-73688180D01*
X155641463Y-73798494D01*
X155720815Y-73895185D01*
X155817506Y-73974537D01*
X155927820Y-74033502D01*
X156047518Y-74069812D01*
X156172000Y-74082072D01*
X157772000Y-74082072D01*
X157896482Y-74069812D01*
X158016180Y-74033502D01*
X158126494Y-73974537D01*
X158223185Y-73895185D01*
X158302537Y-73798494D01*
X158361502Y-73688180D01*
X158397812Y-73568482D01*
X158410072Y-73444000D01*
X158410072Y-71844000D01*
X158397812Y-71719518D01*
X158361502Y-71599820D01*
X158302537Y-71489506D01*
X158223185Y-71392815D01*
X158126494Y-71313463D01*
X158016180Y-71254498D01*
X157896482Y-71218188D01*
X157772000Y-71205928D01*
X156172000Y-71205928D01*
X156047518Y-71218188D01*
X155927820Y-71254498D01*
X155817506Y-71313463D01*
X155720815Y-71392815D01*
X155641463Y-71489506D01*
X155582498Y-71599820D01*
X155546188Y-71719518D01*
X155533928Y-71844000D01*
X150543317Y-71844000D01*
X150466637Y-71729241D01*
X150266759Y-71529363D01*
X150031727Y-71372320D01*
X149770574Y-71264147D01*
X149493335Y-71209000D01*
X149210665Y-71209000D01*
X148933426Y-71264147D01*
X148672273Y-71372320D01*
X148437241Y-71529363D01*
X148237363Y-71729241D01*
X148080320Y-71964273D01*
X147972147Y-72225426D01*
X147917000Y-72502665D01*
X122454144Y-72502665D01*
X122537853Y-72300574D01*
X122593000Y-72023335D01*
X122593000Y-71740665D01*
X122537853Y-71463426D01*
X122429680Y-71202273D01*
X122272637Y-70967241D01*
X122072759Y-70767363D01*
X121837727Y-70610320D01*
X121576574Y-70502147D01*
X121299335Y-70447000D01*
X121016665Y-70447000D01*
X120739426Y-70502147D01*
X120478273Y-70610320D01*
X120243241Y-70767363D01*
X120043363Y-70967241D01*
X119886320Y-71202273D01*
X119778147Y-71463426D01*
X119723000Y-71740665D01*
X118724271Y-71740665D01*
X118716637Y-71729241D01*
X118516759Y-71529363D01*
X118281727Y-71372320D01*
X118020574Y-71264147D01*
X117743335Y-71209000D01*
X117460665Y-71209000D01*
X117278113Y-71245312D01*
X117040803Y-71008001D01*
X117017000Y-70978998D01*
X116901275Y-70884025D01*
X116769246Y-70813453D01*
X116625985Y-70769996D01*
X116514332Y-70758999D01*
X116514321Y-70758999D01*
X116476999Y-70755323D01*
X116439677Y-70758999D01*
X108858324Y-70758999D01*
X108821001Y-70755323D01*
X108783678Y-70758999D01*
X108783668Y-70758999D01*
X108672015Y-70769996D01*
X108528754Y-70813453D01*
X108396725Y-70884025D01*
X108281000Y-70978998D01*
X108257197Y-71008002D01*
X107947003Y-71318196D01*
X107917999Y-71341999D01*
X107876296Y-71392815D01*
X107823026Y-71457724D01*
X107806038Y-71489506D01*
X107752454Y-71589754D01*
X107708997Y-71733015D01*
X107698000Y-71844668D01*
X107698000Y-71844678D01*
X107694324Y-71882000D01*
X107698000Y-71919323D01*
X107698001Y-73267670D01*
X107694324Y-73305002D01*
X107708998Y-73453987D01*
X107752454Y-73597248D01*
X107823026Y-73729278D01*
X107879831Y-73798494D01*
X107918000Y-73845003D01*
X107946998Y-73868801D01*
X108648198Y-74570001D01*
X108671389Y-74598261D01*
X108602147Y-74765426D01*
X108547000Y-75042665D01*
X108547000Y-75325335D01*
X108583312Y-75507886D01*
X105349199Y-78742000D01*
X103065711Y-78742000D01*
X103021774Y-78698063D01*
X102852256Y-78584795D01*
X102663898Y-78506774D01*
X102463939Y-78467000D01*
X102260061Y-78467000D01*
X102060102Y-78506774D01*
X101871744Y-78584795D01*
X101702226Y-78698063D01*
X101558063Y-78842226D01*
X101444795Y-79011744D01*
X101366774Y-79200102D01*
X101327000Y-79400061D01*
X101327000Y-79467001D01*
X71194321Y-79467001D01*
X71156998Y-79463325D01*
X71119675Y-79467001D01*
X71119666Y-79467001D01*
X71008013Y-79477998D01*
X70864752Y-79521455D01*
X70732723Y-79592027D01*
X70616998Y-79687000D01*
X70593200Y-79715998D01*
X68986000Y-81323199D01*
X68986000Y-75014000D01*
X77993928Y-75014000D01*
X78006188Y-75138482D01*
X78042498Y-75258180D01*
X78101463Y-75368494D01*
X78180815Y-75465185D01*
X78277506Y-75544537D01*
X78387820Y-75603502D01*
X78507518Y-75639812D01*
X78632000Y-75652072D01*
X79216250Y-75649000D01*
X79375000Y-75490250D01*
X79375000Y-74041000D01*
X78155750Y-74041000D01*
X77997000Y-74199750D01*
X77993928Y-75014000D01*
X68986000Y-75014000D01*
X68986000Y-71788872D01*
X69139000Y-71788872D01*
X69139000Y-72229128D01*
X69224890Y-72660925D01*
X69393369Y-73067669D01*
X69637962Y-73433729D01*
X69949271Y-73745038D01*
X70315331Y-73989631D01*
X70722075Y-74158110D01*
X71153872Y-74244000D01*
X71594128Y-74244000D01*
X72025925Y-74158110D01*
X72432669Y-73989631D01*
X72798729Y-73745038D01*
X73110038Y-73433729D01*
X73354631Y-73067669D01*
X73459704Y-72814000D01*
X77993928Y-72814000D01*
X77997000Y-73628250D01*
X78155750Y-73787000D01*
X79375000Y-73787000D01*
X79375000Y-72337750D01*
X79629000Y-72337750D01*
X79629000Y-73787000D01*
X79649000Y-73787000D01*
X79649000Y-74041000D01*
X79629000Y-74041000D01*
X79629000Y-75490250D01*
X79787750Y-75649000D01*
X80372000Y-75652072D01*
X80496482Y-75639812D01*
X80616180Y-75603502D01*
X80726494Y-75544537D01*
X80823185Y-75465185D01*
X80902537Y-75368494D01*
X80961502Y-75258180D01*
X80974615Y-75214953D01*
X81201822Y-75401417D01*
X81463276Y-75541166D01*
X81746969Y-75627224D01*
X82042000Y-75656282D01*
X82337032Y-75627224D01*
X82620725Y-75541166D01*
X82882179Y-75401417D01*
X83111345Y-75213345D01*
X83299417Y-74984179D01*
X83439166Y-74722724D01*
X83525224Y-74439031D01*
X83547000Y-74217935D01*
X83547000Y-73610064D01*
X83525224Y-73388968D01*
X83439166Y-73105275D01*
X83299417Y-72843821D01*
X83111345Y-72614655D01*
X82882178Y-72426583D01*
X82620724Y-72286834D01*
X82337031Y-72200776D01*
X82042000Y-72171718D01*
X81746968Y-72200776D01*
X81463275Y-72286834D01*
X81201821Y-72426583D01*
X80974615Y-72613047D01*
X80961502Y-72569820D01*
X80902537Y-72459506D01*
X80823185Y-72362815D01*
X80726494Y-72283463D01*
X80616180Y-72224498D01*
X80496482Y-72188188D01*
X80372000Y-72175928D01*
X79787750Y-72179000D01*
X79629000Y-72337750D01*
X79375000Y-72337750D01*
X79216250Y-72179000D01*
X78632000Y-72175928D01*
X78507518Y-72188188D01*
X78387820Y-72224498D01*
X78277506Y-72283463D01*
X78180815Y-72362815D01*
X78101463Y-72459506D01*
X78042498Y-72569820D01*
X78006188Y-72689518D01*
X77993928Y-72814000D01*
X73459704Y-72814000D01*
X73523110Y-72660925D01*
X73609000Y-72229128D01*
X73609000Y-71788872D01*
X73600979Y-71748544D01*
X87291000Y-71748544D01*
X87291000Y-72015456D01*
X87343072Y-72277239D01*
X87445215Y-72523833D01*
X87593503Y-72745762D01*
X87782238Y-72934497D01*
X88004167Y-73082785D01*
X88171266Y-73152000D01*
X88004167Y-73221215D01*
X87782238Y-73369503D01*
X87593503Y-73558238D01*
X87445215Y-73780167D01*
X87343072Y-74026761D01*
X87291000Y-74288544D01*
X87291000Y-74555456D01*
X87343072Y-74817239D01*
X87445215Y-75063833D01*
X87593503Y-75285762D01*
X87782238Y-75474497D01*
X88004167Y-75622785D01*
X88171266Y-75692000D01*
X88004167Y-75761215D01*
X87782238Y-75909503D01*
X87593503Y-76098238D01*
X87445215Y-76320167D01*
X87343072Y-76566761D01*
X87291000Y-76828544D01*
X87291000Y-77095456D01*
X87343072Y-77357239D01*
X87445215Y-77603833D01*
X87593503Y-77825762D01*
X87782238Y-78014497D01*
X88004167Y-78162785D01*
X88250761Y-78264928D01*
X88512544Y-78317000D01*
X88779456Y-78317000D01*
X89041239Y-78264928D01*
X89287833Y-78162785D01*
X89509762Y-78014497D01*
X89698497Y-77825762D01*
X89846785Y-77603833D01*
X89948928Y-77357239D01*
X90001000Y-77095456D01*
X90001000Y-76828544D01*
X89948928Y-76566761D01*
X89846785Y-76320167D01*
X89698497Y-76098238D01*
X89509762Y-75909503D01*
X89287833Y-75761215D01*
X89120734Y-75692000D01*
X89287833Y-75622785D01*
X89509762Y-75474497D01*
X89698497Y-75285762D01*
X89846785Y-75063833D01*
X89867426Y-75014000D01*
X93741928Y-75014000D01*
X93754188Y-75138482D01*
X93790498Y-75258180D01*
X93849463Y-75368494D01*
X93928815Y-75465185D01*
X94025506Y-75544537D01*
X94135820Y-75603502D01*
X94255518Y-75639812D01*
X94380000Y-75652072D01*
X94964250Y-75649000D01*
X95123000Y-75490250D01*
X95123000Y-74041000D01*
X93903750Y-74041000D01*
X93745000Y-74199750D01*
X93741928Y-75014000D01*
X89867426Y-75014000D01*
X89948928Y-74817239D01*
X90001000Y-74555456D01*
X90001000Y-74288544D01*
X89948928Y-74026761D01*
X89846785Y-73780167D01*
X89698497Y-73558238D01*
X89509762Y-73369503D01*
X89287833Y-73221215D01*
X89120734Y-73152000D01*
X89287833Y-73082785D01*
X89509762Y-72934497D01*
X89630259Y-72814000D01*
X93741928Y-72814000D01*
X93745000Y-73628250D01*
X93903750Y-73787000D01*
X95123000Y-73787000D01*
X95123000Y-72337750D01*
X95377000Y-72337750D01*
X95377000Y-73787000D01*
X95397000Y-73787000D01*
X95397000Y-74041000D01*
X95377000Y-74041000D01*
X95377000Y-75490250D01*
X95535750Y-75649000D01*
X96120000Y-75652072D01*
X96244482Y-75639812D01*
X96364180Y-75603502D01*
X96474494Y-75544537D01*
X96571185Y-75465185D01*
X96650537Y-75368494D01*
X96709502Y-75258180D01*
X96722615Y-75214953D01*
X96949822Y-75401417D01*
X97211276Y-75541166D01*
X97494969Y-75627224D01*
X97790000Y-75656282D01*
X98085032Y-75627224D01*
X98368725Y-75541166D01*
X98630179Y-75401417D01*
X98859345Y-75213345D01*
X99047417Y-74984179D01*
X99187166Y-74722724D01*
X99273224Y-74439031D01*
X99295000Y-74217935D01*
X99295000Y-73610064D01*
X99273224Y-73388968D01*
X99187166Y-73105275D01*
X99047417Y-72843821D01*
X98859345Y-72614655D01*
X98630178Y-72426583D01*
X98368724Y-72286834D01*
X98085031Y-72200776D01*
X97790000Y-72171718D01*
X97494968Y-72200776D01*
X97211275Y-72286834D01*
X96949821Y-72426583D01*
X96722615Y-72613047D01*
X96709502Y-72569820D01*
X96650537Y-72459506D01*
X96571185Y-72362815D01*
X96474494Y-72283463D01*
X96364180Y-72224498D01*
X96244482Y-72188188D01*
X96120000Y-72175928D01*
X95535750Y-72179000D01*
X95377000Y-72337750D01*
X95123000Y-72337750D01*
X94964250Y-72179000D01*
X94380000Y-72175928D01*
X94255518Y-72188188D01*
X94135820Y-72224498D01*
X94025506Y-72283463D01*
X93928815Y-72362815D01*
X93849463Y-72459506D01*
X93790498Y-72569820D01*
X93754188Y-72689518D01*
X93741928Y-72814000D01*
X89630259Y-72814000D01*
X89698497Y-72745762D01*
X89846785Y-72523833D01*
X89948928Y-72277239D01*
X90001000Y-72015456D01*
X90001000Y-71748544D01*
X103039000Y-71748544D01*
X103039000Y-72015456D01*
X103091072Y-72277239D01*
X103193215Y-72523833D01*
X103341503Y-72745762D01*
X103530238Y-72934497D01*
X103752167Y-73082785D01*
X103919266Y-73152000D01*
X103752167Y-73221215D01*
X103530238Y-73369503D01*
X103341503Y-73558238D01*
X103193215Y-73780167D01*
X103091072Y-74026761D01*
X103039000Y-74288544D01*
X103039000Y-74555456D01*
X103091072Y-74817239D01*
X103193215Y-75063833D01*
X103341503Y-75285762D01*
X103530238Y-75474497D01*
X103752167Y-75622785D01*
X103919266Y-75692000D01*
X103752167Y-75761215D01*
X103530238Y-75909503D01*
X103341503Y-76098238D01*
X103193215Y-76320167D01*
X103091072Y-76566761D01*
X103039000Y-76828544D01*
X103039000Y-77095456D01*
X103091072Y-77357239D01*
X103193215Y-77603833D01*
X103341503Y-77825762D01*
X103530238Y-78014497D01*
X103752167Y-78162785D01*
X103998761Y-78264928D01*
X104260544Y-78317000D01*
X104527456Y-78317000D01*
X104789239Y-78264928D01*
X105035833Y-78162785D01*
X105257762Y-78014497D01*
X105446497Y-77825762D01*
X105594785Y-77603833D01*
X105696928Y-77357239D01*
X105749000Y-77095456D01*
X105749000Y-76828544D01*
X105696928Y-76566761D01*
X105594785Y-76320167D01*
X105446497Y-76098238D01*
X105257762Y-75909503D01*
X105035833Y-75761215D01*
X104868734Y-75692000D01*
X105035833Y-75622785D01*
X105257762Y-75474497D01*
X105446497Y-75285762D01*
X105594785Y-75063833D01*
X105696928Y-74817239D01*
X105749000Y-74555456D01*
X105749000Y-74288544D01*
X105696928Y-74026761D01*
X105594785Y-73780167D01*
X105446497Y-73558238D01*
X105257762Y-73369503D01*
X105035833Y-73221215D01*
X104868734Y-73152000D01*
X105035833Y-73082785D01*
X105257762Y-72934497D01*
X105446497Y-72745762D01*
X105594785Y-72523833D01*
X105696928Y-72277239D01*
X105749000Y-72015456D01*
X105749000Y-71748544D01*
X105696928Y-71486761D01*
X105594785Y-71240167D01*
X105446497Y-71018238D01*
X105257762Y-70829503D01*
X105035833Y-70681215D01*
X104789239Y-70579072D01*
X104527456Y-70527000D01*
X104260544Y-70527000D01*
X103998761Y-70579072D01*
X103752167Y-70681215D01*
X103530238Y-70829503D01*
X103341503Y-71018238D01*
X103193215Y-71240167D01*
X103091072Y-71486761D01*
X103039000Y-71748544D01*
X90001000Y-71748544D01*
X89948928Y-71486761D01*
X89846785Y-71240167D01*
X89698497Y-71018238D01*
X89509762Y-70829503D01*
X89287833Y-70681215D01*
X89041239Y-70579072D01*
X88779456Y-70527000D01*
X88512544Y-70527000D01*
X88250761Y-70579072D01*
X88004167Y-70681215D01*
X87782238Y-70829503D01*
X87593503Y-71018238D01*
X87445215Y-71240167D01*
X87343072Y-71486761D01*
X87291000Y-71748544D01*
X73600979Y-71748544D01*
X73523110Y-71357075D01*
X73354631Y-70950331D01*
X73110038Y-70584271D01*
X72798729Y-70272962D01*
X72432669Y-70028369D01*
X72025925Y-69859890D01*
X71594128Y-69774000D01*
X71153872Y-69774000D01*
X70722075Y-69859890D01*
X70315331Y-70028369D01*
X69949271Y-70272962D01*
X69637962Y-70584271D01*
X69393369Y-70950331D01*
X69224890Y-71357075D01*
X69139000Y-71788872D01*
X68986000Y-71788872D01*
X68986000Y-69494000D01*
X161144761Y-69494000D01*
X160942013Y-69696748D01*
G04 #@! TA.AperFunction,Conductor*
D40*
G36*
X160942013Y-69696748D02*
G01*
X160763082Y-69964537D01*
X160639832Y-70262088D01*
X160577000Y-70577967D01*
X160577000Y-70900033D01*
X160639832Y-71215912D01*
X160763082Y-71513463D01*
X160942013Y-71781252D01*
X161169748Y-72008987D01*
X161437537Y-72187918D01*
X161735088Y-72311168D01*
X162050967Y-72374000D01*
X162373033Y-72374000D01*
X162688912Y-72311168D01*
X162986463Y-72187918D01*
X163254252Y-72008987D01*
X163481987Y-71781252D01*
X163660918Y-71513463D01*
X163784168Y-71215912D01*
X163847000Y-70900033D01*
X163847000Y-70577967D01*
X163784168Y-70262088D01*
X163660918Y-69964537D01*
X163481987Y-69696748D01*
X163279239Y-69494000D01*
X164924761Y-69494000D01*
X164722013Y-69696748D01*
X164543082Y-69964537D01*
X164419832Y-70262088D01*
X164357000Y-70577967D01*
X164357000Y-70900033D01*
X164419832Y-71215912D01*
X164543082Y-71513463D01*
X164722013Y-71781252D01*
X164949748Y-72008987D01*
X165217537Y-72187918D01*
X165515088Y-72311168D01*
X165830967Y-72374000D01*
X166153033Y-72374000D01*
X166468912Y-72311168D01*
X166766463Y-72187918D01*
X167034252Y-72008987D01*
X167261987Y-71781252D01*
X167440918Y-71513463D01*
X167564168Y-71215912D01*
X167627000Y-70900033D01*
X167627000Y-70577967D01*
X167564168Y-70262088D01*
X167440918Y-69964537D01*
X167261987Y-69696748D01*
X167059239Y-69494000D01*
X171450000Y-69494000D01*
X171450000Y-82677000D01*
X165862000Y-82677000D01*
X165837224Y-82679440D01*
X165813399Y-82686667D01*
X165791443Y-82698403D01*
X165772197Y-82714197D01*
X165756403Y-82733443D01*
X165744667Y-82755399D01*
X165737440Y-82779224D01*
X165735000Y-82804000D01*
X165735000Y-111379000D01*
X165737440Y-111403776D01*
X165744667Y-111427601D01*
X165756403Y-111449557D01*
X165772197Y-111468803D01*
X165791443Y-111484597D01*
X165813399Y-111496333D01*
X165837224Y-111503560D01*
X165862000Y-111506000D01*
X171450000Y-111506000D01*
X171450000Y-124054000D01*
X68986000Y-124054000D01*
X68986000Y-121318872D01*
X69139000Y-121318872D01*
X69139000Y-121759128D01*
X69224890Y-122190925D01*
X69393369Y-122597669D01*
X69637962Y-122963729D01*
X69949271Y-123275038D01*
X70315331Y-123519631D01*
X70722075Y-123688110D01*
X71153872Y-123774000D01*
X71594128Y-123774000D01*
X72025925Y-123688110D01*
X72432669Y-123519631D01*
X72798729Y-123275038D01*
X73110038Y-122963729D01*
X73354631Y-122597669D01*
X73523110Y-122190925D01*
X73552630Y-122042514D01*
X75119000Y-122042514D01*
X75119000Y-122305486D01*
X75170304Y-122563405D01*
X75270939Y-122806359D01*
X75417038Y-123025013D01*
X75602987Y-123210962D01*
X75821641Y-123357061D01*
X76064595Y-123457696D01*
X76322514Y-123509000D01*
X76585486Y-123509000D01*
X76843405Y-123457696D01*
X77086359Y-123357061D01*
X77305013Y-123210962D01*
X77454000Y-123061975D01*
X77602987Y-123210962D01*
X77821641Y-123357061D01*
X78064595Y-123457696D01*
X78322514Y-123509000D01*
X78585486Y-123509000D01*
X78843405Y-123457696D01*
X79086359Y-123357061D01*
X79305013Y-123210962D01*
X79490962Y-123025013D01*
X79637061Y-122806359D01*
X79737696Y-122563405D01*
X79740000Y-122551822D01*
X79742304Y-122563405D01*
X79842939Y-122806359D01*
X79989038Y-123025013D01*
X80174987Y-123210962D01*
X80393641Y-123357061D01*
X80636595Y-123457696D01*
X80894514Y-123509000D01*
X81157486Y-123509000D01*
X81415405Y-123457696D01*
X81658359Y-123357061D01*
X81877013Y-123210962D01*
X82026000Y-123061975D01*
X82174987Y-123210962D01*
X82393641Y-123357061D01*
X82636595Y-123457696D01*
X82894514Y-123509000D01*
X83157486Y-123509000D01*
X83415405Y-123457696D01*
X83658359Y-123357061D01*
X83877013Y-123210962D01*
X83992706Y-123095269D01*
X84856336Y-123095269D01*
X84915797Y-123329037D01*
X85154242Y-123439934D01*
X85409740Y-123502183D01*
X85672473Y-123513390D01*
X85932344Y-123473125D01*
X86179366Y-123382935D01*
X86280203Y-123329037D01*
X86339664Y-123095269D01*
X86856336Y-123095269D01*
X86915797Y-123329037D01*
X87154242Y-123439934D01*
X87409740Y-123502183D01*
X87672473Y-123513390D01*
X87932344Y-123473125D01*
X88179366Y-123382935D01*
X88280203Y-123329037D01*
X88339664Y-123095269D01*
X87598000Y-122353605D01*
X86856336Y-123095269D01*
X86339664Y-123095269D01*
X85598000Y-122353605D01*
X84856336Y-123095269D01*
X83992706Y-123095269D01*
X84062962Y-123025013D01*
X84209061Y-122806359D01*
X84309696Y-122563405D01*
X84312970Y-122546948D01*
X84389065Y-122755366D01*
X84442963Y-122856203D01*
X84676731Y-122915664D01*
X85418395Y-122174000D01*
X85777605Y-122174000D01*
X86423621Y-122820016D01*
X86442963Y-122856203D01*
X86465554Y-122861949D01*
X86519269Y-122915664D01*
X86598000Y-122895638D01*
X86676731Y-122915664D01*
X86730446Y-122861949D01*
X86753037Y-122856203D01*
X86767683Y-122824712D01*
X87418395Y-122174000D01*
X87777605Y-122174000D01*
X88519269Y-122915664D01*
X88753037Y-122856203D01*
X88863934Y-122617758D01*
X88926183Y-122362260D01*
X88937390Y-122099527D01*
X88897125Y-121839656D01*
X88806935Y-121592634D01*
X88753037Y-121491797D01*
X88519269Y-121432336D01*
X87777605Y-122174000D01*
X87418395Y-122174000D01*
X86772379Y-121527984D01*
X86753037Y-121491797D01*
X86730446Y-121486051D01*
X86676731Y-121432336D01*
X86598000Y-121452362D01*
X86519269Y-121432336D01*
X86465554Y-121486051D01*
X86442963Y-121491797D01*
X86428317Y-121523288D01*
X85777605Y-122174000D01*
X85418395Y-122174000D01*
X85404253Y-122159858D01*
X85583858Y-121980253D01*
X85598000Y-121994395D01*
X86339664Y-121252731D01*
X86280203Y-121018963D01*
X86041758Y-120908066D01*
X85997762Y-120897347D01*
X87202107Y-120897347D01*
X87016634Y-120965065D01*
X86915797Y-121018963D01*
X86856336Y-121252731D01*
X87598000Y-121994395D01*
X88339664Y-121252731D01*
X88280203Y-121018963D01*
X88041758Y-120908066D01*
X87997762Y-120897347D01*
X88962942Y-120897347D01*
X89006879Y-120941284D01*
X89176397Y-121054552D01*
X89364755Y-121132573D01*
X89564714Y-121172347D01*
X89768592Y-121172347D01*
X89968551Y-121132573D01*
X90156909Y-121054552D01*
X90326427Y-120941284D01*
X90470590Y-120797121D01*
X90583858Y-120627603D01*
X90661879Y-120439245D01*
X90701653Y-120239286D01*
X90701653Y-120035408D01*
X90661879Y-119835449D01*
X90583858Y-119647091D01*
X90475571Y-119485027D01*
X94811037Y-119485027D01*
X94909036Y-119761978D01*
X95059183Y-120014488D01*
X95255707Y-120232854D01*
X95491056Y-120408684D01*
X95756186Y-120535222D01*
X95906974Y-120580958D01*
X96139000Y-120459817D01*
X96139000Y-119253000D01*
X94931536Y-119253000D01*
X94811037Y-119485027D01*
X90475571Y-119485027D01*
X90470590Y-119477573D01*
X90326427Y-119333410D01*
X90156909Y-119220142D01*
X89968551Y-119142121D01*
X89768592Y-119102347D01*
X89564714Y-119102347D01*
X89364755Y-119142121D01*
X89176397Y-119220142D01*
X89006879Y-119333410D01*
X88962942Y-119377347D01*
X85099975Y-119377347D01*
X85062652Y-119373671D01*
X85025329Y-119377347D01*
X85025320Y-119377347D01*
X84913667Y-119388344D01*
X84770406Y-119431801D01*
X84638377Y-119502373D01*
X84522652Y-119597346D01*
X84498854Y-119626344D01*
X83264844Y-120860355D01*
X83157486Y-120839000D01*
X82894514Y-120839000D01*
X82636595Y-120890304D01*
X82393641Y-120990939D01*
X82174987Y-121137038D01*
X82026000Y-121286025D01*
X81877013Y-121137038D01*
X81658359Y-120990939D01*
X81415405Y-120890304D01*
X81157486Y-120839000D01*
X80894514Y-120839000D01*
X80636595Y-120890304D01*
X80393641Y-120990939D01*
X80174987Y-121137038D01*
X79989038Y-121322987D01*
X79842939Y-121541641D01*
X79742304Y-121784595D01*
X79740000Y-121796178D01*
X79737696Y-121784595D01*
X79637061Y-121541641D01*
X79490962Y-121322987D01*
X79305013Y-121137038D01*
X79086359Y-120990939D01*
X78843405Y-120890304D01*
X78585486Y-120839000D01*
X78322514Y-120839000D01*
X78064595Y-120890304D01*
X77821641Y-120990939D01*
X77602987Y-121137038D01*
X77454000Y-121286025D01*
X77305013Y-121137038D01*
X77086359Y-120990939D01*
X76843405Y-120890304D01*
X76585486Y-120839000D01*
X76322514Y-120839000D01*
X76064595Y-120890304D01*
X75821641Y-120990939D01*
X75602987Y-121137038D01*
X75417038Y-121322987D01*
X75270939Y-121541641D01*
X75170304Y-121784595D01*
X75119000Y-122042514D01*
X73552630Y-122042514D01*
X73609000Y-121759128D01*
X73609000Y-121318872D01*
X73523110Y-120887075D01*
X73354631Y-120480331D01*
X73110038Y-120114271D01*
X72798729Y-119802962D01*
X72432669Y-119558369D01*
X72025925Y-119389890D01*
X71594128Y-119304000D01*
X71153872Y-119304000D01*
X70722075Y-119389890D01*
X70315331Y-119558369D01*
X69949271Y-119802962D01*
X69637962Y-120114271D01*
X69393369Y-120480331D01*
X69224890Y-120887075D01*
X69139000Y-121318872D01*
X68986000Y-121318872D01*
X68986000Y-116440000D01*
X71667928Y-116440000D01*
X71680188Y-116564482D01*
X71716498Y-116684180D01*
X71775463Y-116794494D01*
X71854815Y-116891185D01*
X71951506Y-116970537D01*
X72061820Y-117029502D01*
X72181518Y-117065812D01*
X72306000Y-117078072D01*
X73120250Y-117075000D01*
X73279000Y-116916250D01*
X73279000Y-115697000D01*
X73533000Y-115697000D01*
X73533000Y-116916250D01*
X73691750Y-117075000D01*
X74506000Y-117078072D01*
X74630482Y-117065812D01*
X74750180Y-117029502D01*
X74860494Y-116970537D01*
X74957185Y-116891185D01*
X75036537Y-116794494D01*
X75095502Y-116684180D01*
X75131812Y-116564482D01*
X75144072Y-116440000D01*
X75141000Y-115855750D01*
X74982250Y-115697000D01*
X73533000Y-115697000D01*
X73279000Y-115697000D01*
X71829750Y-115697000D01*
X71671000Y-115855750D01*
X71667928Y-116440000D01*
X68986000Y-116440000D01*
X68986000Y-105954801D01*
X71492201Y-108461003D01*
X71515999Y-108490001D01*
X71544997Y-108513799D01*
X71631724Y-108584974D01*
X71763753Y-108655546D01*
X71862657Y-108685548D01*
X71918583Y-108790179D01*
X72106655Y-109019345D01*
X72335821Y-109207417D01*
X72359362Y-109220000D01*
X72335821Y-109232583D01*
X72106655Y-109420655D01*
X71918583Y-109649821D01*
X71778834Y-109911275D01*
X71692776Y-110194968D01*
X71663718Y-110490000D01*
X71692776Y-110785032D01*
X71778834Y-111068725D01*
X71918583Y-111330179D01*
X72106655Y-111559345D01*
X72335821Y-111747417D01*
X72359362Y-111760000D01*
X72335821Y-111772583D01*
X72106655Y-111960655D01*
X71918583Y-112189821D01*
X71778834Y-112451275D01*
X71692776Y-112734968D01*
X71663718Y-113030000D01*
X71692776Y-113325032D01*
X71778834Y-113608725D01*
X71918583Y-113870179D01*
X72105047Y-114097385D01*
X72061820Y-114110498D01*
X71951506Y-114169463D01*
X71854815Y-114248815D01*
X71775463Y-114345506D01*
X71716498Y-114455820D01*
X71680188Y-114575518D01*
X71667928Y-114700000D01*
X71671000Y-115284250D01*
X71829750Y-115443000D01*
X73279000Y-115443000D01*
X73279000Y-115423000D01*
X73533000Y-115423000D01*
X73533000Y-115443000D01*
X74982250Y-115443000D01*
X75141000Y-115284250D01*
X75144072Y-114700000D01*
X75131812Y-114575518D01*
X75095502Y-114455820D01*
X75036537Y-114345506D01*
X74957185Y-114248815D01*
X74860494Y-114169463D01*
X74750180Y-114110498D01*
X74706953Y-114097385D01*
X74893417Y-113870179D01*
X74936273Y-113790000D01*
X76773680Y-113790000D01*
X76811002Y-113793676D01*
X76848324Y-113790000D01*
X76848335Y-113790000D01*
X76959988Y-113779003D01*
X77103249Y-113735546D01*
X77235278Y-113664974D01*
X77351003Y-113570001D01*
X77374806Y-113540997D01*
X81075138Y-109840665D01*
X84671000Y-109840665D01*
X84671000Y-110123335D01*
X84726147Y-110400574D01*
X84834320Y-110661727D01*
X84991363Y-110896759D01*
X85191241Y-111096637D01*
X85426273Y-111253680D01*
X85687426Y-111361853D01*
X85964665Y-111417000D01*
X86247335Y-111417000D01*
X86524574Y-111361853D01*
X86785727Y-111253680D01*
X87020759Y-111096637D01*
X87220637Y-110896759D01*
X87377680Y-110661727D01*
X87485853Y-110400574D01*
X87541000Y-110123335D01*
X87541000Y-109840665D01*
X87485853Y-109563426D01*
X87377680Y-109302273D01*
X87220637Y-109067241D01*
X87020759Y-108867363D01*
X86785727Y-108710320D01*
X86524574Y-108602147D01*
X86247335Y-108547000D01*
X85964665Y-108547000D01*
X85687426Y-108602147D01*
X85426273Y-108710320D01*
X85191241Y-108867363D01*
X84991363Y-109067241D01*
X84834320Y-109302273D01*
X84726147Y-109563426D01*
X84671000Y-109840665D01*
X81075138Y-109840665D01*
X82711803Y-108204000D01*
X89795388Y-108204000D01*
X89817785Y-108431400D01*
X89881093Y-108640098D01*
X89846498Y-108704820D01*
X89810188Y-108824518D01*
X89797928Y-108949000D01*
X89797928Y-109999000D01*
X89810188Y-110123482D01*
X89846498Y-110243180D01*
X89905463Y-110353494D01*
X89984815Y-110450185D01*
X90081506Y-110529537D01*
X90191820Y-110588502D01*
X90311518Y-110624812D01*
X90436000Y-110637072D01*
X91936000Y-110637072D01*
X92060482Y-110624812D01*
X92180180Y-110588502D01*
X92290494Y-110529537D01*
X92387185Y-110450185D01*
X92466537Y-110353494D01*
X92525502Y-110243180D01*
X92561812Y-110123482D01*
X92574072Y-109999000D01*
X92574072Y-108949000D01*
X92561812Y-108824518D01*
X92525502Y-108704820D01*
X92490907Y-108640098D01*
X92554215Y-108431400D01*
X92576612Y-108204000D01*
X92554215Y-107976600D01*
X92487885Y-107757940D01*
X92387071Y-107569331D01*
X92428275Y-107510882D01*
X92521272Y-107301337D01*
X92525541Y-107271117D01*
X94531000Y-107271117D01*
X94531000Y-107612883D01*
X94597675Y-107948081D01*
X94728463Y-108263831D01*
X94918337Y-108547998D01*
X95160002Y-108789663D01*
X95444169Y-108979537D01*
X95759919Y-109110325D01*
X96095117Y-109177000D01*
X96436883Y-109177000D01*
X96772081Y-109110325D01*
X97087831Y-108979537D01*
X97371998Y-108789663D01*
X97613663Y-108547998D01*
X97803537Y-108263831D01*
X97934325Y-107948081D01*
X98001000Y-107612883D01*
X98001000Y-107271117D01*
X97934325Y-106935919D01*
X97803537Y-106620169D01*
X97613663Y-106336002D01*
X97371998Y-106094337D01*
X97087831Y-105904463D01*
X96772081Y-105773675D01*
X96436883Y-105707000D01*
X96095117Y-105707000D01*
X95759919Y-105773675D01*
X95444169Y-105904463D01*
X95160002Y-106094337D01*
X94918337Y-106336002D01*
X94728463Y-106620169D01*
X94597675Y-106935919D01*
X94531000Y-107271117D01*
X92525541Y-107271117D01*
X92529964Y-107239810D01*
X92404163Y-107061000D01*
X91639109Y-107061000D01*
X91638400Y-107060785D01*
X91467979Y-107044000D01*
X90904021Y-107044000D01*
X90733600Y-107060785D01*
X90732891Y-107061000D01*
X89967837Y-107061000D01*
X89842036Y-107239810D01*
X89850728Y-107301337D01*
X89943725Y-107510882D01*
X89984929Y-107569331D01*
X89884115Y-107757940D01*
X89817785Y-107976600D01*
X89795388Y-108204000D01*
X82711803Y-108204000D01*
X84287613Y-106628190D01*
X89842036Y-106628190D01*
X89967837Y-106807000D01*
X91059000Y-106807000D01*
X91059000Y-105927402D01*
X91313000Y-105927402D01*
X91313000Y-106807000D01*
X92404163Y-106807000D01*
X92529964Y-106628190D01*
X92521272Y-106566663D01*
X92428275Y-106357118D01*
X92296184Y-106169742D01*
X92130076Y-106011736D01*
X91936334Y-105889172D01*
X91722404Y-105806761D01*
X91496507Y-105767669D01*
X91313000Y-105927402D01*
X91059000Y-105927402D01*
X90875493Y-105767669D01*
X90649596Y-105806761D01*
X90435666Y-105889172D01*
X90241924Y-106011736D01*
X90075816Y-106169742D01*
X89943725Y-106357118D01*
X89850728Y-106566663D01*
X89842036Y-106628190D01*
X84287613Y-106628190D01*
X88257772Y-102658032D01*
X88282147Y-102780574D01*
X88390320Y-103041727D01*
X88547363Y-103276759D01*
X88747241Y-103476637D01*
X88982273Y-103633680D01*
X89243426Y-103741853D01*
X89520665Y-103797000D01*
X89803335Y-103797000D01*
X90080574Y-103741853D01*
X90341727Y-103633680D01*
X90576759Y-103476637D01*
X90776637Y-103276759D01*
X90933680Y-103041727D01*
X91041853Y-102780574D01*
X91097000Y-102503335D01*
X91097000Y-102220665D01*
X95847000Y-102220665D01*
X95847000Y-102503335D01*
X95902147Y-102780574D01*
X96010320Y-103041727D01*
X96167363Y-103276759D01*
X96367241Y-103476637D01*
X96602273Y-103633680D01*
X96863426Y-103741853D01*
X97140665Y-103797000D01*
X97423335Y-103797000D01*
X97700574Y-103741853D01*
X97961727Y-103633680D01*
X98196759Y-103476637D01*
X98396637Y-103276759D01*
X98553680Y-103041727D01*
X98661853Y-102780574D01*
X98717000Y-102503335D01*
X98717000Y-102220665D01*
X98661853Y-101943426D01*
X98553680Y-101682273D01*
X98396637Y-101447241D01*
X98196759Y-101247363D01*
X97961727Y-101090320D01*
X97700574Y-100982147D01*
X97423335Y-100927000D01*
X97140665Y-100927000D01*
X96863426Y-100982147D01*
X96602273Y-101090320D01*
X96367241Y-101247363D01*
X96167363Y-101447241D01*
X96010320Y-101682273D01*
X95902147Y-101943426D01*
X95847000Y-102220665D01*
X91097000Y-102220665D01*
X91041853Y-101943426D01*
X90933680Y-101682273D01*
X90776637Y-101447241D01*
X90576759Y-101247363D01*
X90341727Y-101090320D01*
X90080574Y-100982147D01*
X89958032Y-100957772D01*
X94283139Y-96632665D01*
X95847000Y-96632665D01*
X95847000Y-96915335D01*
X95902147Y-97192574D01*
X96010320Y-97453727D01*
X96167363Y-97688759D01*
X96367241Y-97888637D01*
X96602273Y-98045680D01*
X96863426Y-98153853D01*
X97140665Y-98209000D01*
X97423335Y-98209000D01*
X97700574Y-98153853D01*
X97961727Y-98045680D01*
X98196759Y-97888637D01*
X98396637Y-97688759D01*
X98553680Y-97453727D01*
X98661853Y-97192574D01*
X98717000Y-96915335D01*
X98717000Y-96632665D01*
X98661853Y-96355426D01*
X98553680Y-96094273D01*
X98396637Y-95859241D01*
X98196759Y-95659363D01*
X97961727Y-95502320D01*
X97700574Y-95394147D01*
X97423335Y-95339000D01*
X97140665Y-95339000D01*
X96863426Y-95394147D01*
X96602273Y-95502320D01*
X96367241Y-95659363D01*
X96167363Y-95859241D01*
X96010320Y-96094273D01*
X95902147Y-96355426D01*
X95847000Y-96632665D01*
X94283139Y-96632665D01*
X98316805Y-92598999D01*
X108591491Y-92598999D01*
X108547000Y-92822665D01*
X108547000Y-93105335D01*
X108602147Y-93382574D01*
X108710320Y-93643727D01*
X108867363Y-93878759D01*
X109067241Y-94078637D01*
X109299759Y-94234000D01*
X109067241Y-94389363D01*
X108867363Y-94589241D01*
X108710320Y-94824273D01*
X108602147Y-95085426D01*
X108547000Y-95362665D01*
X108547000Y-95645335D01*
X108602147Y-95922574D01*
X108710320Y-96183727D01*
X108867363Y-96418759D01*
X109067241Y-96618637D01*
X109299759Y-96774000D01*
X109067241Y-96929363D01*
X108867363Y-97129241D01*
X108799543Y-97230741D01*
X105291804Y-93723003D01*
X105268001Y-93693999D01*
X105152276Y-93599026D01*
X105020247Y-93528454D01*
X104921343Y-93498452D01*
X104865417Y-93393821D01*
X104677345Y-93164655D01*
X104448179Y-92976583D01*
X104186725Y-92836834D01*
X103903032Y-92750776D01*
X103681936Y-92729000D01*
X103074064Y-92729000D01*
X102852968Y-92750776D01*
X102569275Y-92836834D01*
X102307821Y-92976583D01*
X102078655Y-93164655D01*
X101890583Y-93393821D01*
X101750834Y-93655275D01*
X101664776Y-93938968D01*
X101635718Y-94234000D01*
X101664776Y-94529032D01*
X101750834Y-94812725D01*
X101890583Y-95074179D01*
X102078655Y-95303345D01*
X102307821Y-95491417D01*
X102331362Y-95504000D01*
X102307821Y-95516583D01*
X102078655Y-95704655D01*
X101890583Y-95933821D01*
X101750834Y-96195275D01*
X101664776Y-96478968D01*
X101635718Y-96774000D01*
X101664776Y-97069032D01*
X101750834Y-97352725D01*
X101890583Y-97614179D01*
X102078655Y-97843345D01*
X102307821Y-98031417D01*
X102331362Y-98044000D01*
X102307821Y-98056583D01*
X102078655Y-98244655D01*
X101890583Y-98473821D01*
X101750834Y-98735275D01*
X101664776Y-99018968D01*
X101635718Y-99314000D01*
X101664776Y-99609032D01*
X101750834Y-99892725D01*
X101890583Y-100154179D01*
X102078655Y-100383345D01*
X102144114Y-100437066D01*
X102034613Y-100495595D01*
X101900038Y-100606038D01*
X101789595Y-100740613D01*
X101707528Y-100894149D01*
X101656992Y-101060745D01*
X101639928Y-101233999D01*
X101639928Y-102474001D01*
X101656992Y-102647255D01*
X101707528Y-102813851D01*
X101789595Y-102967387D01*
X101819435Y-103003747D01*
X101702226Y-103082063D01*
X101558063Y-103226226D01*
X101444795Y-103395744D01*
X101366774Y-103584102D01*
X101327000Y-103784061D01*
X101327000Y-103987939D01*
X101366774Y-104187898D01*
X101444795Y-104376256D01*
X101558063Y-104545774D01*
X101702226Y-104689937D01*
X101871744Y-104803205D01*
X102060102Y-104881226D01*
X102260061Y-104921000D01*
X102319329Y-104921000D01*
X102329999Y-104934001D01*
X102445724Y-105028974D01*
X102577753Y-105099546D01*
X102721014Y-105143003D01*
X102832667Y-105154000D01*
X102832676Y-105154000D01*
X102869999Y-105157676D01*
X102907322Y-105154000D01*
X107246289Y-105154000D01*
X107290226Y-105197937D01*
X107459744Y-105311205D01*
X107648102Y-105389226D01*
X107848061Y-105429000D01*
X107915002Y-105429000D01*
X107915002Y-105839783D01*
X107880494Y-105811463D01*
X107770180Y-105752498D01*
X107650482Y-105716188D01*
X107526000Y-105703928D01*
X105326000Y-105703928D01*
X105201518Y-105716188D01*
X105081820Y-105752498D01*
X104971506Y-105811463D01*
X104874815Y-105890815D01*
X104795463Y-105987506D01*
X104736498Y-106097820D01*
X104700188Y-106217518D01*
X104687928Y-106342000D01*
X104687928Y-108542000D01*
X104700188Y-108666482D01*
X104736498Y-108786180D01*
X104795463Y-108896494D01*
X104874815Y-108993185D01*
X104971506Y-109072537D01*
X105081820Y-109131502D01*
X105201518Y-109167812D01*
X105326000Y-109180072D01*
X106522496Y-109180072D01*
X101515180Y-114187389D01*
X91337944Y-114187389D01*
X91300611Y-114183712D01*
X91263278Y-114187389D01*
X91151625Y-114198386D01*
X91008364Y-114241843D01*
X90876335Y-114312415D01*
X90760610Y-114407388D01*
X90736812Y-114436387D01*
X90254198Y-114919001D01*
X83580072Y-114919001D01*
X83580072Y-114162000D01*
X83567812Y-114037518D01*
X83531502Y-113917820D01*
X83472537Y-113807506D01*
X83393185Y-113710815D01*
X83296494Y-113631463D01*
X83186180Y-113572498D01*
X83066482Y-113536188D01*
X82942000Y-113523928D01*
X81142000Y-113523928D01*
X81017518Y-113536188D01*
X80897820Y-113572498D01*
X80787506Y-113631463D01*
X80690815Y-113710815D01*
X80611463Y-113807506D01*
X80552498Y-113917820D01*
X80546944Y-113936127D01*
X80480505Y-113869688D01*
X80229095Y-113701701D01*
X79949743Y-113585989D01*
X79653184Y-113527000D01*
X79350816Y-113527000D01*
X79054257Y-113585989D01*
X78774905Y-113701701D01*
X78523495Y-113869688D01*
X78309688Y-114083495D01*
X78141701Y-114334905D01*
X78025989Y-114614257D01*
X77967000Y-114910816D01*
X77967000Y-115213184D01*
X78025989Y-115509743D01*
X78141701Y-115789095D01*
X78309688Y-116040505D01*
X78523495Y-116254312D01*
X78774905Y-116422299D01*
X79054257Y-116538011D01*
X79350816Y-116597000D01*
X79653184Y-116597000D01*
X79949743Y-116538011D01*
X80229095Y-116422299D01*
X80480505Y-116254312D01*
X80546944Y-116187873D01*
X80552498Y-116206180D01*
X80611463Y-116316494D01*
X80690815Y-116413185D01*
X80787506Y-116492537D01*
X80897820Y-116551502D01*
X81017518Y-116587812D01*
X81142000Y-116600072D01*
X82942000Y-116600072D01*
X83066482Y-116587812D01*
X83186180Y-116551502D01*
X83296494Y-116492537D01*
X83361728Y-116439001D01*
X85263620Y-116439001D01*
X85191241Y-116487363D01*
X84991363Y-116687241D01*
X84834320Y-116922273D01*
X84726147Y-117183426D01*
X84671000Y-117460665D01*
X84671000Y-117743335D01*
X84726147Y-118020574D01*
X84834320Y-118281727D01*
X84991363Y-118516759D01*
X85191241Y-118716637D01*
X85426273Y-118873680D01*
X85687426Y-118981853D01*
X85964665Y-119037000D01*
X86247335Y-119037000D01*
X86524574Y-118981853D01*
X86785727Y-118873680D01*
X87020759Y-118716637D01*
X87220637Y-118516759D01*
X87377680Y-118281727D01*
X87485853Y-118020574D01*
X87541000Y-117743335D01*
X87541000Y-117460665D01*
X87485853Y-117183426D01*
X87377680Y-116922273D01*
X87220637Y-116687241D01*
X87020759Y-116487363D01*
X86948380Y-116439001D01*
X90531677Y-116439001D01*
X90568999Y-116442677D01*
X90606321Y-116439001D01*
X90606332Y-116439001D01*
X90717985Y-116428004D01*
X90861246Y-116384547D01*
X90993275Y-116313975D01*
X91109000Y-116219002D01*
X91132802Y-116189999D01*
X91615413Y-115707389D01*
X95050718Y-115707389D01*
X94937958Y-115876147D01*
X94824990Y-116148875D01*
X94767400Y-116438401D01*
X94767400Y-116733599D01*
X94824990Y-117023125D01*
X94937958Y-117295853D01*
X95101961Y-117541302D01*
X95310698Y-117750039D01*
X95471813Y-117857692D01*
X95255707Y-118019146D01*
X95059183Y-118237512D01*
X94909036Y-118490022D01*
X94811037Y-118766973D01*
X94931536Y-118999000D01*
X96139000Y-118999000D01*
X96139000Y-118979000D01*
X96393000Y-118979000D01*
X96393000Y-118999000D01*
X96413000Y-118999000D01*
X96413000Y-119253000D01*
X96393000Y-119253000D01*
X96393000Y-120459817D01*
X96625026Y-120580958D01*
X96775814Y-120535222D01*
X97040944Y-120408684D01*
X97276293Y-120232854D01*
X97472817Y-120014488D01*
X97531441Y-119915897D01*
X97641961Y-120081302D01*
X97850698Y-120290039D01*
X98096147Y-120454042D01*
X98368875Y-120567010D01*
X98658401Y-120624600D01*
X98953599Y-120624600D01*
X99183974Y-120578776D01*
X99430802Y-120825604D01*
X99454600Y-120854602D01*
X99570325Y-120949575D01*
X99702354Y-121020147D01*
X99845615Y-121063604D01*
X99957268Y-121074601D01*
X99957276Y-121074601D01*
X99994601Y-121078277D01*
X100031926Y-121074601D01*
X101879207Y-121074601D01*
X101916529Y-121078277D01*
X101953851Y-121074601D01*
X101953862Y-121074601D01*
X102065515Y-121063604D01*
X102208776Y-121020147D01*
X102340805Y-120949575D01*
X102456530Y-120854602D01*
X102480333Y-120825598D01*
X106337417Y-116968514D01*
X113474500Y-116968514D01*
X113474500Y-117219485D01*
X113497470Y-117452703D01*
X113588245Y-117751948D01*
X113735655Y-118027734D01*
X113934037Y-118269463D01*
X114175765Y-118467845D01*
X114451551Y-118615255D01*
X114750796Y-118706030D01*
X115062000Y-118736681D01*
X115373203Y-118706030D01*
X115672448Y-118615255D01*
X115948234Y-118467845D01*
X116189963Y-118269463D01*
X116337163Y-118090101D01*
X116492563Y-118275315D01*
X116735077Y-118469969D01*
X117010906Y-118613571D01*
X117229020Y-118684563D01*
X117475000Y-118564594D01*
X117475000Y-117221000D01*
X117455000Y-117221000D01*
X117455000Y-116967000D01*
X117475000Y-116967000D01*
X117475000Y-115623406D01*
X117729000Y-115623406D01*
X117729000Y-116967000D01*
X117749000Y-116967000D01*
X117749000Y-117221000D01*
X117729000Y-117221000D01*
X117729000Y-118564594D01*
X117974980Y-118684563D01*
X118193094Y-118613571D01*
X118468923Y-118469969D01*
X118609941Y-118356781D01*
X118658963Y-118448494D01*
X118738315Y-118545185D01*
X118835006Y-118624537D01*
X118945320Y-118683502D01*
X119065018Y-118719812D01*
X119189500Y-118732072D01*
X121094500Y-118732072D01*
X121218982Y-118719812D01*
X121338680Y-118683502D01*
X121448994Y-118624537D01*
X121545685Y-118545185D01*
X121625037Y-118448494D01*
X121684002Y-118338180D01*
X121720312Y-118218482D01*
X121732572Y-118094000D01*
X121732572Y-116968514D01*
X134302500Y-116968514D01*
X134302500Y-117219485D01*
X134325470Y-117452703D01*
X134416245Y-117751948D01*
X134563655Y-118027734D01*
X134762037Y-118269463D01*
X135003765Y-118467845D01*
X135279551Y-118615255D01*
X135578796Y-118706030D01*
X135890000Y-118736681D01*
X136201203Y-118706030D01*
X136500448Y-118615255D01*
X136776234Y-118467845D01*
X137017963Y-118269463D01*
X137165163Y-118090101D01*
X137320563Y-118275315D01*
X137563077Y-118469969D01*
X137838906Y-118613571D01*
X138057020Y-118684563D01*
X138303000Y-118564594D01*
X138303000Y-117221000D01*
X138283000Y-117221000D01*
X138283000Y-116967000D01*
X138303000Y-116967000D01*
X138303000Y-115623406D01*
X138557000Y-115623406D01*
X138557000Y-116967000D01*
X138577000Y-116967000D01*
X138577000Y-117221000D01*
X138557000Y-117221000D01*
X138557000Y-118564594D01*
X138802980Y-118684563D01*
X139021094Y-118613571D01*
X139296923Y-118469969D01*
X139437941Y-118356781D01*
X139486963Y-118448494D01*
X139566315Y-118545185D01*
X139663006Y-118624537D01*
X139773320Y-118683502D01*
X139893018Y-118719812D01*
X140017500Y-118732072D01*
X141922500Y-118732072D01*
X142046982Y-118719812D01*
X142166680Y-118683502D01*
X142276994Y-118624537D01*
X142373685Y-118545185D01*
X142453037Y-118448494D01*
X142512002Y-118338180D01*
X142548312Y-118218482D01*
X142560572Y-118094000D01*
X142560572Y-116094000D01*
X142548312Y-115969518D01*
X142512002Y-115849820D01*
X142453037Y-115739506D01*
X142373685Y-115642815D01*
X142276994Y-115563463D01*
X142166680Y-115504498D01*
X142046982Y-115468188D01*
X141922500Y-115455928D01*
X140017500Y-115455928D01*
X139893018Y-115468188D01*
X139773320Y-115504498D01*
X139663006Y-115563463D01*
X139566315Y-115642815D01*
X139486963Y-115739506D01*
X139437941Y-115831219D01*
X139296923Y-115718031D01*
X139021094Y-115574429D01*
X138802980Y-115503437D01*
X138557000Y-115623406D01*
X138303000Y-115623406D01*
X138057020Y-115503437D01*
X137838906Y-115574429D01*
X137563077Y-115718031D01*
X137320563Y-115912685D01*
X137165162Y-116097900D01*
X137017963Y-115918537D01*
X136776235Y-115720155D01*
X136500449Y-115572745D01*
X136201204Y-115481970D01*
X135890000Y-115451319D01*
X135578797Y-115481970D01*
X135279552Y-115572745D01*
X135003766Y-115720155D01*
X134762037Y-115918537D01*
X134563655Y-116160265D01*
X134416245Y-116436051D01*
X134325470Y-116735296D01*
X134302500Y-116968514D01*
X121732572Y-116968514D01*
X121732572Y-116094000D01*
X121720312Y-115969518D01*
X121684002Y-115849820D01*
X121625037Y-115739506D01*
X121545685Y-115642815D01*
X121448994Y-115563463D01*
X121338680Y-115504498D01*
X121218982Y-115468188D01*
X121094500Y-115455928D01*
X119189500Y-115455928D01*
X119065018Y-115468188D01*
X118945320Y-115504498D01*
X118835006Y-115563463D01*
X118738315Y-115642815D01*
X118658963Y-115739506D01*
X118609941Y-115831219D01*
X118468923Y-115718031D01*
X118193094Y-115574429D01*
X117974980Y-115503437D01*
X117729000Y-115623406D01*
X117475000Y-115623406D01*
X117229020Y-115503437D01*
X117010906Y-115574429D01*
X116735077Y-115718031D01*
X116492563Y-115912685D01*
X116337162Y-116097900D01*
X116189963Y-115918537D01*
X115948235Y-115720155D01*
X115672449Y-115572745D01*
X115373204Y-115481970D01*
X115062000Y-115451319D01*
X114750797Y-115481970D01*
X114451552Y-115572745D01*
X114175766Y-115720155D01*
X113934037Y-115918537D01*
X113735655Y-116160265D01*
X113588245Y-116436051D01*
X113497470Y-116735296D01*
X113474500Y-116968514D01*
X106337417Y-116968514D01*
X110417266Y-112888665D01*
X113627000Y-112888665D01*
X113627000Y-113171335D01*
X113682147Y-113448574D01*
X113790320Y-113709727D01*
X113947363Y-113944759D01*
X114147241Y-114144637D01*
X114382273Y-114301680D01*
X114643426Y-114409853D01*
X114920665Y-114465000D01*
X115203335Y-114465000D01*
X115480574Y-114409853D01*
X115741727Y-114301680D01*
X115976759Y-114144637D01*
X116176637Y-113944759D01*
X116333680Y-113709727D01*
X116441853Y-113448574D01*
X116497000Y-113171335D01*
X116497000Y-113108438D01*
X117403505Y-113108438D01*
X117442605Y-113348549D01*
X117527798Y-113576418D01*
X117568652Y-113652852D01*
X117792236Y-113700159D01*
X118462395Y-113030000D01*
X117792236Y-112359841D01*
X117568652Y-112407148D01*
X117467763Y-112628516D01*
X117412000Y-112865313D01*
X117403505Y-113108438D01*
X116497000Y-113108438D01*
X116497000Y-112888665D01*
X116441853Y-112611426D01*
X116333680Y-112350273D01*
X116220066Y-112180236D01*
X117971841Y-112180236D01*
X118642000Y-112850395D01*
X118656143Y-112836253D01*
X118835748Y-113015858D01*
X118821605Y-113030000D01*
X118835748Y-113044143D01*
X118656143Y-113223748D01*
X118642000Y-113209605D01*
X117971841Y-113879764D01*
X118019148Y-114103348D01*
X118240516Y-114204237D01*
X118477313Y-114260000D01*
X118720438Y-114268495D01*
X118960549Y-114229395D01*
X119174117Y-114149549D01*
X119187506Y-114160537D01*
X119297820Y-114219502D01*
X119417518Y-114255812D01*
X119542000Y-114268072D01*
X120742000Y-114268072D01*
X120866482Y-114255812D01*
X120986180Y-114219502D01*
X121096494Y-114160537D01*
X121193185Y-114081185D01*
X121272537Y-113984494D01*
X121331502Y-113874180D01*
X121367812Y-113754482D01*
X121380072Y-113630000D01*
X121380072Y-112888665D01*
X134455000Y-112888665D01*
X134455000Y-113171335D01*
X134510147Y-113448574D01*
X134618320Y-113709727D01*
X134775363Y-113944759D01*
X134975241Y-114144637D01*
X135210273Y-114301680D01*
X135471426Y-114409853D01*
X135748665Y-114465000D01*
X136031335Y-114465000D01*
X136308574Y-114409853D01*
X136569727Y-114301680D01*
X136804759Y-114144637D01*
X137004637Y-113944759D01*
X137161680Y-113709727D01*
X137269853Y-113448574D01*
X137325000Y-113171335D01*
X137325000Y-113108438D01*
X138231505Y-113108438D01*
X138270605Y-113348549D01*
X138355798Y-113576418D01*
X138396652Y-113652852D01*
X138620236Y-113700159D01*
X139290395Y-113030000D01*
X138620236Y-112359841D01*
X138396652Y-112407148D01*
X138295763Y-112628516D01*
X138240000Y-112865313D01*
X138231505Y-113108438D01*
X137325000Y-113108438D01*
X137325000Y-112888665D01*
X137269853Y-112611426D01*
X137161680Y-112350273D01*
X137048066Y-112180236D01*
X138799841Y-112180236D01*
X139470000Y-112850395D01*
X139484143Y-112836253D01*
X139663748Y-113015858D01*
X139649605Y-113030000D01*
X139663748Y-113044143D01*
X139484143Y-113223748D01*
X139470000Y-113209605D01*
X138799841Y-113879764D01*
X138847148Y-114103348D01*
X139068516Y-114204237D01*
X139305313Y-114260000D01*
X139548438Y-114268495D01*
X139788549Y-114229395D01*
X140002117Y-114149549D01*
X140015506Y-114160537D01*
X140125820Y-114219502D01*
X140245518Y-114255812D01*
X140370000Y-114268072D01*
X141570000Y-114268072D01*
X141694482Y-114255812D01*
X141814180Y-114219502D01*
X141924494Y-114160537D01*
X142021185Y-114081185D01*
X142100537Y-113984494D01*
X142159502Y-113874180D01*
X142195812Y-113754482D01*
X142208072Y-113630000D01*
X142208072Y-112430000D01*
X142195812Y-112305518D01*
X142159502Y-112185820D01*
X142100537Y-112075506D01*
X142021185Y-111978815D01*
X141924494Y-111899463D01*
X141814180Y-111840498D01*
X141694482Y-111804188D01*
X141570000Y-111791928D01*
X140370000Y-111791928D01*
X140245518Y-111804188D01*
X140125820Y-111840498D01*
X140015506Y-111899463D01*
X139998319Y-111913568D01*
X139871484Y-111855763D01*
X139634687Y-111800000D01*
X139391562Y-111791505D01*
X139151451Y-111830605D01*
X138923582Y-111915798D01*
X138847148Y-111956652D01*
X138799841Y-112180236D01*
X137048066Y-112180236D01*
X137004637Y-112115241D01*
X136804759Y-111915363D01*
X136604131Y-111781308D01*
X136631514Y-111766671D01*
X136703097Y-111522702D01*
X135890000Y-110709605D01*
X135076903Y-111522702D01*
X135148486Y-111766671D01*
X135177341Y-111780324D01*
X134975241Y-111915363D01*
X134775363Y-112115241D01*
X134618320Y-112350273D01*
X134510147Y-112611426D01*
X134455000Y-112888665D01*
X121380072Y-112888665D01*
X121380072Y-112430000D01*
X121367812Y-112305518D01*
X121331502Y-112185820D01*
X121272537Y-112075506D01*
X121193185Y-111978815D01*
X121096494Y-111899463D01*
X120986180Y-111840498D01*
X120866482Y-111804188D01*
X120742000Y-111791928D01*
X119542000Y-111791928D01*
X119417518Y-111804188D01*
X119297820Y-111840498D01*
X119187506Y-111899463D01*
X119170319Y-111913568D01*
X119043484Y-111855763D01*
X118806687Y-111800000D01*
X118563562Y-111791505D01*
X118323451Y-111830605D01*
X118095582Y-111915798D01*
X118019148Y-111956652D01*
X117971841Y-112180236D01*
X116220066Y-112180236D01*
X116176637Y-112115241D01*
X115976759Y-111915363D01*
X115776131Y-111781308D01*
X115803514Y-111766671D01*
X115875097Y-111522702D01*
X115062000Y-110709605D01*
X114248903Y-111522702D01*
X114320486Y-111766671D01*
X114349341Y-111780324D01*
X114147241Y-111915363D01*
X113947363Y-112115241D01*
X113790320Y-112350273D01*
X113682147Y-112611426D01*
X113627000Y-112888665D01*
X110417266Y-112888665D01*
X112705419Y-110600512D01*
X113621783Y-110600512D01*
X113663213Y-110880130D01*
X113758397Y-111146292D01*
X113825329Y-111271514D01*
X114069298Y-111343097D01*
X114882395Y-110530000D01*
X115241605Y-110530000D01*
X116054702Y-111343097D01*
X116298671Y-111271514D01*
X116419571Y-111016004D01*
X116488300Y-110741816D01*
X116495265Y-110600512D01*
X134449783Y-110600512D01*
X134491213Y-110880130D01*
X134586397Y-111146292D01*
X134653329Y-111271514D01*
X134897298Y-111343097D01*
X135710395Y-110530000D01*
X136069605Y-110530000D01*
X136882702Y-111343097D01*
X137126671Y-111271514D01*
X137247571Y-111016004D01*
X137316300Y-110741816D01*
X137330217Y-110459488D01*
X137288787Y-110179870D01*
X137193603Y-109913708D01*
X137126671Y-109788486D01*
X136882702Y-109716903D01*
X136069605Y-110530000D01*
X135710395Y-110530000D01*
X134897298Y-109716903D01*
X134653329Y-109788486D01*
X134532429Y-110043996D01*
X134463700Y-110318184D01*
X134449783Y-110600512D01*
X116495265Y-110600512D01*
X116502217Y-110459488D01*
X116460787Y-110179870D01*
X116365603Y-109913708D01*
X116298671Y-109788486D01*
X116054702Y-109716903D01*
X115241605Y-110530000D01*
X114882395Y-110530000D01*
X114069298Y-109716903D01*
X113825329Y-109788486D01*
X113704429Y-110043996D01*
X113635700Y-110318184D01*
X113621783Y-110600512D01*
X112705419Y-110600512D01*
X113768633Y-109537298D01*
X114248903Y-109537298D01*
X115062000Y-110350395D01*
X115875097Y-109537298D01*
X135076903Y-109537298D01*
X135890000Y-110350395D01*
X136703097Y-109537298D01*
X136631514Y-109293329D01*
X136376004Y-109172429D01*
X136101816Y-109103700D01*
X135819488Y-109089783D01*
X135539870Y-109131213D01*
X135273708Y-109226397D01*
X135148486Y-109293329D01*
X135076903Y-109537298D01*
X115875097Y-109537298D01*
X115803514Y-109293329D01*
X115548004Y-109172429D01*
X115273816Y-109103700D01*
X114991488Y-109089783D01*
X114711870Y-109131213D01*
X114445708Y-109226397D01*
X114320486Y-109293329D01*
X114248903Y-109537298D01*
X113768633Y-109537298D01*
X114448002Y-108857930D01*
X114477000Y-108834132D01*
X114571973Y-108718407D01*
X114642545Y-108586378D01*
X114686002Y-108443117D01*
X114696999Y-108331464D01*
X114696999Y-108331456D01*
X114700675Y-108294131D01*
X114696999Y-108256806D01*
X114696999Y-105325802D01*
X115609802Y-104413000D01*
X115671939Y-104413000D01*
X115871898Y-104373226D01*
X116060256Y-104295205D01*
X116229774Y-104181937D01*
X116373937Y-104037774D01*
X116430321Y-103953389D01*
X116487363Y-104038759D01*
X116687241Y-104238637D01*
X116919759Y-104394000D01*
X116687241Y-104549363D01*
X116487363Y-104749241D01*
X116330320Y-104984273D01*
X116222147Y-105245426D01*
X116167000Y-105522665D01*
X116167000Y-105805335D01*
X116222147Y-106082574D01*
X116330320Y-106343727D01*
X116487363Y-106578759D01*
X116687241Y-106778637D01*
X116922273Y-106935680D01*
X117183426Y-107043853D01*
X117460665Y-107099000D01*
X117743335Y-107099000D01*
X118020574Y-107043853D01*
X118281727Y-106935680D01*
X118516759Y-106778637D01*
X118716637Y-106578759D01*
X118873680Y-106343727D01*
X118981853Y-106082574D01*
X119037000Y-105805335D01*
X119037000Y-105522665D01*
X118981853Y-105245426D01*
X118873680Y-104984273D01*
X118716637Y-104749241D01*
X118516759Y-104549363D01*
X118284241Y-104394000D01*
X118516759Y-104238637D01*
X118716637Y-104038759D01*
X118873680Y-103803727D01*
X118981853Y-103542574D01*
X119037000Y-103265335D01*
X119037000Y-103011980D01*
X130219626Y-103011980D01*
X130339514Y-103296836D01*
X130663210Y-103457699D01*
X131012069Y-103552322D01*
X131372684Y-103577067D01*
X131731198Y-103530985D01*
X132073833Y-103415846D01*
X132296486Y-103296836D01*
X132416374Y-103011980D01*
X131318000Y-101913605D01*
X130219626Y-103011980D01*
X119037000Y-103011980D01*
X119037000Y-102982665D01*
X118981853Y-102705426D01*
X118873680Y-102444273D01*
X118716637Y-102209241D01*
X118516759Y-102009363D01*
X118284241Y-101854000D01*
X118381993Y-101788684D01*
X129474933Y-101788684D01*
X129521015Y-102147198D01*
X129636154Y-102489833D01*
X129755164Y-102712486D01*
X130040020Y-102832374D01*
X131138395Y-101734000D01*
X130040020Y-100635626D01*
X129755164Y-100755514D01*
X129594301Y-101079210D01*
X129499678Y-101428069D01*
X129474933Y-101788684D01*
X118381993Y-101788684D01*
X118516759Y-101698637D01*
X118716637Y-101498759D01*
X118873680Y-101263727D01*
X118981853Y-101002574D01*
X119037000Y-100725335D01*
X119037000Y-100442665D01*
X118981853Y-100165426D01*
X118873680Y-99904273D01*
X118716637Y-99669241D01*
X118516759Y-99469363D01*
X118284241Y-99314000D01*
X118516759Y-99158637D01*
X118716637Y-98958759D01*
X118873680Y-98723727D01*
X118981853Y-98462574D01*
X119037000Y-98185335D01*
X119037000Y-97902665D01*
X118981853Y-97625426D01*
X118873680Y-97364273D01*
X118716637Y-97129241D01*
X118516759Y-96929363D01*
X118284241Y-96774000D01*
X118516759Y-96618637D01*
X118716637Y-96418759D01*
X118873680Y-96183727D01*
X118981853Y-95922574D01*
X119037000Y-95645335D01*
X119037000Y-95362665D01*
X118985150Y-95102001D01*
X126132202Y-95102001D01*
X130960107Y-99929906D01*
X130904802Y-99937015D01*
X130562167Y-100052154D01*
X130339514Y-100171164D01*
X130219626Y-100456020D01*
X131318000Y-101554395D01*
X131332142Y-101540252D01*
X131511748Y-101719858D01*
X131497605Y-101734000D01*
X132595980Y-102832374D01*
X132880836Y-102712486D01*
X133041699Y-102388790D01*
X133122199Y-102091999D01*
X148592000Y-117561801D01*
X148592001Y-120320956D01*
X148437241Y-120424363D01*
X148237363Y-120624241D01*
X148080320Y-120859273D01*
X147972147Y-121120426D01*
X147917000Y-121397665D01*
X147917000Y-121680335D01*
X147972147Y-121957574D01*
X148080320Y-122218727D01*
X148237363Y-122453759D01*
X148437241Y-122653637D01*
X148672273Y-122810680D01*
X148933426Y-122918853D01*
X149210665Y-122974000D01*
X149493335Y-122974000D01*
X149770574Y-122918853D01*
X150031727Y-122810680D01*
X150266759Y-122653637D01*
X150466637Y-122453759D01*
X150623680Y-122218727D01*
X150731853Y-121957574D01*
X150787000Y-121680335D01*
X150787000Y-121397665D01*
X150731853Y-121120426D01*
X150623680Y-120859273D01*
X150543317Y-120739000D01*
X155533928Y-120739000D01*
X155533928Y-122339000D01*
X155546188Y-122463482D01*
X155582498Y-122583180D01*
X155641463Y-122693494D01*
X155720815Y-122790185D01*
X155817506Y-122869537D01*
X155927820Y-122928502D01*
X156047518Y-122964812D01*
X156172000Y-122977072D01*
X157772000Y-122977072D01*
X157896482Y-122964812D01*
X158016180Y-122928502D01*
X158126494Y-122869537D01*
X158223185Y-122790185D01*
X158302537Y-122693494D01*
X158361502Y-122583180D01*
X158397812Y-122463482D01*
X158410072Y-122339000D01*
X158410072Y-120739000D01*
X158397812Y-120614518D01*
X158361502Y-120494820D01*
X158302537Y-120384506D01*
X158223185Y-120287815D01*
X158126494Y-120208463D01*
X158016180Y-120149498D01*
X157896482Y-120113188D01*
X157843471Y-120107967D01*
X160577000Y-120107967D01*
X160577000Y-120430033D01*
X160639832Y-120745912D01*
X160763082Y-121043463D01*
X160942013Y-121311252D01*
X161169748Y-121538987D01*
X161437537Y-121717918D01*
X161735088Y-121841168D01*
X162050967Y-121904000D01*
X162373033Y-121904000D01*
X162688912Y-121841168D01*
X162986463Y-121717918D01*
X163254252Y-121538987D01*
X163481987Y-121311252D01*
X163660918Y-121043463D01*
X163784168Y-120745912D01*
X163847000Y-120430033D01*
X163847000Y-120107967D01*
X164357000Y-120107967D01*
X164357000Y-120430033D01*
X164419832Y-120745912D01*
X164543082Y-121043463D01*
X164722013Y-121311252D01*
X164949748Y-121538987D01*
X165217537Y-121717918D01*
X165515088Y-121841168D01*
X165830967Y-121904000D01*
X166153033Y-121904000D01*
X166468912Y-121841168D01*
X166766463Y-121717918D01*
X167034252Y-121538987D01*
X167261987Y-121311252D01*
X167440918Y-121043463D01*
X167564168Y-120745912D01*
X167627000Y-120430033D01*
X167627000Y-120107967D01*
X167564168Y-119792088D01*
X167440918Y-119494537D01*
X167261987Y-119226748D01*
X167034252Y-118999013D01*
X166766463Y-118820082D01*
X166468912Y-118696832D01*
X166153033Y-118634000D01*
X165830967Y-118634000D01*
X165515088Y-118696832D01*
X165217537Y-118820082D01*
X164949748Y-118999013D01*
X164722013Y-119226748D01*
X164543082Y-119494537D01*
X164419832Y-119792088D01*
X164357000Y-120107967D01*
X163847000Y-120107967D01*
X163784168Y-119792088D01*
X163660918Y-119494537D01*
X163481987Y-119226748D01*
X163254252Y-118999013D01*
X162986463Y-118820082D01*
X162688912Y-118696832D01*
X162373033Y-118634000D01*
X162050967Y-118634000D01*
X161735088Y-118696832D01*
X161437537Y-118820082D01*
X161169748Y-118999013D01*
X160942013Y-119226748D01*
X160763082Y-119494537D01*
X160639832Y-119792088D01*
X160577000Y-120107967D01*
X157843471Y-120107967D01*
X157772000Y-120100928D01*
X156172000Y-120100928D01*
X156047518Y-120113188D01*
X155927820Y-120149498D01*
X155817506Y-120208463D01*
X155720815Y-120287815D01*
X155641463Y-120384506D01*
X155582498Y-120494820D01*
X155546188Y-120614518D01*
X155533928Y-120739000D01*
X150543317Y-120739000D01*
X150466637Y-120624241D01*
X150266759Y-120424363D01*
X150112000Y-120320957D01*
X150112000Y-117284320D01*
X150115676Y-117246997D01*
X150112000Y-117209674D01*
X150112000Y-117209665D01*
X150101003Y-117098012D01*
X150057546Y-116954751D01*
X149986974Y-116822722D01*
X149963808Y-116794494D01*
X149915799Y-116735994D01*
X149915795Y-116735990D01*
X149892001Y-116706997D01*
X149863010Y-116683205D01*
X138319804Y-105140000D01*
X143141928Y-105140000D01*
X143154188Y-105264482D01*
X143190498Y-105384180D01*
X143249463Y-105494494D01*
X143328815Y-105591185D01*
X143425506Y-105670537D01*
X143535820Y-105729502D01*
X143655518Y-105765812D01*
X143780000Y-105778072D01*
X144494250Y-105775000D01*
X144653000Y-105616250D01*
X144653000Y-104267000D01*
X144907000Y-104267000D01*
X144907000Y-105616250D01*
X145065750Y-105775000D01*
X145780000Y-105778072D01*
X145904482Y-105765812D01*
X146024180Y-105729502D01*
X146134494Y-105670537D01*
X146231185Y-105591185D01*
X146310537Y-105494494D01*
X146369502Y-105384180D01*
X146405812Y-105264482D01*
X146418072Y-105140000D01*
X146415000Y-104425750D01*
X146256250Y-104267000D01*
X144907000Y-104267000D01*
X144653000Y-104267000D01*
X143303750Y-104267000D01*
X143145000Y-104425750D01*
X143141928Y-105140000D01*
X138319804Y-105140000D01*
X136319804Y-103140000D01*
X143141928Y-103140000D01*
X143145000Y-103854250D01*
X143303750Y-104013000D01*
X144653000Y-104013000D01*
X144653000Y-102663750D01*
X144907000Y-102663750D01*
X144907000Y-104013000D01*
X146256250Y-104013000D01*
X146415000Y-103854250D01*
X146418072Y-103140000D01*
X146405812Y-103015518D01*
X146369502Y-102895820D01*
X146310537Y-102785506D01*
X146231185Y-102688815D01*
X146134494Y-102609463D01*
X146024180Y-102550498D01*
X145904482Y-102514188D01*
X145780000Y-102501928D01*
X145065750Y-102505000D01*
X144907000Y-102663750D01*
X144653000Y-102663750D01*
X144494250Y-102505000D01*
X143780000Y-102501928D01*
X143655518Y-102514188D01*
X143535820Y-102550498D01*
X143425506Y-102609463D01*
X143328815Y-102688815D01*
X143249463Y-102785506D01*
X143190498Y-102895820D01*
X143154188Y-103015518D01*
X143141928Y-103140000D01*
X136319804Y-103140000D01*
X134983271Y-101803467D01*
X150667500Y-101803467D01*
X150667500Y-102125533D01*
X150730332Y-102441412D01*
X150853582Y-102738963D01*
X151032513Y-103006752D01*
X151260248Y-103234487D01*
X151528037Y-103413418D01*
X151825588Y-103536668D01*
X152141467Y-103599500D01*
X152463533Y-103599500D01*
X152779412Y-103536668D01*
X153076963Y-103413418D01*
X153344752Y-103234487D01*
X153572487Y-103006752D01*
X153751418Y-102738963D01*
X153874668Y-102441412D01*
X153937500Y-102125533D01*
X153937500Y-101803467D01*
X153874668Y-101487588D01*
X153751418Y-101190037D01*
X153572487Y-100922248D01*
X153344752Y-100694513D01*
X153076963Y-100515582D01*
X152779412Y-100392332D01*
X152463533Y-100329500D01*
X152141467Y-100329500D01*
X151825588Y-100392332D01*
X151528037Y-100515582D01*
X151260248Y-100694513D01*
X151032513Y-100922248D01*
X150853582Y-101190037D01*
X150730332Y-101487588D01*
X150667500Y-101803467D01*
X134983271Y-101803467D01*
X132158771Y-98978967D01*
X143145000Y-98978967D01*
X143145000Y-99301033D01*
X143207832Y-99616912D01*
X143331082Y-99914463D01*
X143510013Y-100182252D01*
X143737748Y-100409987D01*
X144005537Y-100588918D01*
X144303088Y-100712168D01*
X144618967Y-100775000D01*
X144941033Y-100775000D01*
X145256912Y-100712168D01*
X145554463Y-100588918D01*
X145822252Y-100409987D01*
X146049987Y-100182252D01*
X146228918Y-99914463D01*
X146352168Y-99616912D01*
X146415000Y-99301033D01*
X146415000Y-98978967D01*
X146352168Y-98663088D01*
X146228918Y-98365537D01*
X146049987Y-98097748D01*
X145822252Y-97870013D01*
X145554463Y-97691082D01*
X145256912Y-97567832D01*
X144941033Y-97505000D01*
X144618967Y-97505000D01*
X144303088Y-97567832D01*
X144005537Y-97691082D01*
X143737748Y-97870013D01*
X143510013Y-98097748D01*
X143331082Y-98365537D01*
X143207832Y-98663088D01*
X143145000Y-98978967D01*
X132158771Y-98978967D01*
X127010807Y-93831004D01*
X126987004Y-93802000D01*
X126871279Y-93707027D01*
X126739250Y-93636455D01*
X126595989Y-93592998D01*
X126484336Y-93582001D01*
X126484325Y-93582001D01*
X126447003Y-93578325D01*
X126409681Y-93582001D01*
X122057679Y-93582001D01*
X122156853Y-93342574D01*
X122212000Y-93065335D01*
X122212000Y-93034000D01*
X129479928Y-93034000D01*
X129479928Y-95434000D01*
X129492188Y-95558482D01*
X129528498Y-95678180D01*
X129587463Y-95788494D01*
X129666815Y-95885185D01*
X129763506Y-95964537D01*
X129873820Y-96023502D01*
X129993518Y-96059812D01*
X130118000Y-96072072D01*
X132518000Y-96072072D01*
X132642482Y-96059812D01*
X132762180Y-96023502D01*
X132872494Y-95964537D01*
X132969185Y-95885185D01*
X133048537Y-95788494D01*
X133107502Y-95678180D01*
X133143812Y-95558482D01*
X133156072Y-95434000D01*
X133156072Y-93978967D01*
X143145000Y-93978967D01*
X143145000Y-94301033D01*
X143207832Y-94616912D01*
X143331082Y-94914463D01*
X143510013Y-95182252D01*
X143737748Y-95409987D01*
X144005537Y-95588918D01*
X144303088Y-95712168D01*
X144618967Y-95775000D01*
X144941033Y-95775000D01*
X145256912Y-95712168D01*
X145554463Y-95588918D01*
X145822252Y-95409987D01*
X146049987Y-95182252D01*
X146228918Y-94914463D01*
X146352168Y-94616912D01*
X146415000Y-94301033D01*
X146415000Y-93978967D01*
X146352168Y-93663088D01*
X146228918Y-93365537D01*
X146049987Y-93097748D01*
X145822252Y-92870013D01*
X145554463Y-92691082D01*
X145256912Y-92567832D01*
X144941033Y-92505000D01*
X144618967Y-92505000D01*
X144303088Y-92567832D01*
X144005537Y-92691082D01*
X143737748Y-92870013D01*
X143510013Y-93097748D01*
X143331082Y-93365537D01*
X143207832Y-93663088D01*
X143145000Y-93978967D01*
X133156072Y-93978967D01*
X133156072Y-93034000D01*
X133143812Y-92909518D01*
X133107502Y-92789820D01*
X133048537Y-92679506D01*
X132969185Y-92582815D01*
X132872494Y-92503463D01*
X132762180Y-92444498D01*
X132642482Y-92408188D01*
X132518000Y-92395928D01*
X130118000Y-92395928D01*
X129993518Y-92408188D01*
X129873820Y-92444498D01*
X129763506Y-92503463D01*
X129666815Y-92582815D01*
X129587463Y-92679506D01*
X129528498Y-92789820D01*
X129492188Y-92909518D01*
X129479928Y-93034000D01*
X122212000Y-93034000D01*
X122212000Y-92782665D01*
X122156853Y-92505426D01*
X122048680Y-92244273D01*
X121891637Y-92009241D01*
X121691759Y-91809363D01*
X121682935Y-91803467D01*
X150667500Y-91803467D01*
X150667500Y-92125533D01*
X150730332Y-92441412D01*
X150853582Y-92738963D01*
X151032513Y-93006752D01*
X151260248Y-93234487D01*
X151528037Y-93413418D01*
X151825588Y-93536668D01*
X152141467Y-93599500D01*
X152463533Y-93599500D01*
X152779412Y-93536668D01*
X153076963Y-93413418D01*
X153344752Y-93234487D01*
X153572487Y-93006752D01*
X153751418Y-92738963D01*
X153874668Y-92441412D01*
X153937500Y-92125533D01*
X153937500Y-91803467D01*
X153874668Y-91487588D01*
X153751418Y-91190037D01*
X153572487Y-90922248D01*
X153344752Y-90694513D01*
X153076963Y-90515582D01*
X152779412Y-90392332D01*
X152463533Y-90329500D01*
X152141467Y-90329500D01*
X151825588Y-90392332D01*
X151528037Y-90515582D01*
X151260248Y-90694513D01*
X151032513Y-90922248D01*
X150853582Y-91190037D01*
X150730332Y-91487588D01*
X150667500Y-91803467D01*
X121682935Y-91803467D01*
X121491131Y-91675308D01*
X121518514Y-91660671D01*
X121590097Y-91416702D01*
X120777000Y-90603605D01*
X119963903Y-91416702D01*
X120035486Y-91660671D01*
X120064341Y-91674324D01*
X119862241Y-91809363D01*
X119662363Y-92009241D01*
X119505320Y-92244273D01*
X119397147Y-92505426D01*
X119342000Y-92782665D01*
X119342000Y-93065335D01*
X119397147Y-93342574D01*
X119496321Y-93582001D01*
X118899248Y-93582001D01*
X118981853Y-93382574D01*
X119037000Y-93105335D01*
X119037000Y-92822665D01*
X118981853Y-92545426D01*
X118873680Y-92284273D01*
X118716637Y-92049241D01*
X118516759Y-91849363D01*
X118284241Y-91694000D01*
X118516759Y-91538637D01*
X118716637Y-91338759D01*
X118873680Y-91103727D01*
X118981853Y-90842574D01*
X119037000Y-90565335D01*
X119037000Y-90494512D01*
X119336783Y-90494512D01*
X119378213Y-90774130D01*
X119473397Y-91040292D01*
X119540329Y-91165514D01*
X119784298Y-91237097D01*
X120597395Y-90424000D01*
X120956605Y-90424000D01*
X121769702Y-91237097D01*
X122013671Y-91165514D01*
X122134571Y-90910004D01*
X122203300Y-90635816D01*
X122217217Y-90353488D01*
X122175787Y-90073870D01*
X122080603Y-89807708D01*
X122013671Y-89682486D01*
X121769702Y-89610903D01*
X120956605Y-90424000D01*
X120597395Y-90424000D01*
X119784298Y-89610903D01*
X119540329Y-89682486D01*
X119419429Y-89937996D01*
X119350700Y-90212184D01*
X119336783Y-90494512D01*
X119037000Y-90494512D01*
X119037000Y-90282665D01*
X118981853Y-90005426D01*
X118873680Y-89744273D01*
X118716637Y-89509241D01*
X118638694Y-89431298D01*
X119963903Y-89431298D01*
X120777000Y-90244395D01*
X121590097Y-89431298D01*
X121518514Y-89187329D01*
X121263004Y-89066429D01*
X120988816Y-88997700D01*
X120706488Y-88983783D01*
X120426870Y-89025213D01*
X120160708Y-89120397D01*
X120035486Y-89187329D01*
X119963903Y-89431298D01*
X118638694Y-89431298D01*
X118516759Y-89309363D01*
X118281727Y-89152320D01*
X118271135Y-89147933D01*
X118457131Y-89036385D01*
X118520448Y-88978967D01*
X143145000Y-88978967D01*
X143145000Y-89301033D01*
X143207832Y-89616912D01*
X143331082Y-89914463D01*
X143510013Y-90182252D01*
X143737748Y-90409987D01*
X144005537Y-90588918D01*
X144303088Y-90712168D01*
X144618967Y-90775000D01*
X144941033Y-90775000D01*
X145256912Y-90712168D01*
X145554463Y-90588918D01*
X145822252Y-90409987D01*
X146049987Y-90182252D01*
X146228918Y-89914463D01*
X146352168Y-89616912D01*
X146415000Y-89301033D01*
X146415000Y-88978967D01*
X146352168Y-88663088D01*
X146228918Y-88365537D01*
X146049987Y-88097748D01*
X145822252Y-87870013D01*
X145554463Y-87691082D01*
X145256912Y-87567832D01*
X144941033Y-87505000D01*
X144618967Y-87505000D01*
X144303088Y-87567832D01*
X144005537Y-87691082D01*
X143737748Y-87870013D01*
X143510013Y-88097748D01*
X143331082Y-88365537D01*
X143207832Y-88663088D01*
X143145000Y-88978967D01*
X118520448Y-88978967D01*
X118665519Y-88847414D01*
X118833037Y-88621420D01*
X118953246Y-88367087D01*
X118993904Y-88233039D01*
X118871915Y-88011000D01*
X117729000Y-88011000D01*
X117729000Y-88031000D01*
X117475000Y-88031000D01*
X117475000Y-88011000D01*
X116332085Y-88011000D01*
X116210096Y-88233039D01*
X116250754Y-88367087D01*
X116370963Y-88621420D01*
X116538481Y-88847414D01*
X116746869Y-89036385D01*
X116932865Y-89147933D01*
X116922273Y-89152320D01*
X116687241Y-89309363D01*
X116487363Y-89509241D01*
X116330320Y-89744273D01*
X116222147Y-90005426D01*
X116167000Y-90282665D01*
X116167000Y-90565335D01*
X116204533Y-90754023D01*
X116167027Y-90799723D01*
X116129461Y-90870004D01*
X116096455Y-90931753D01*
X116052998Y-91075014D01*
X116042001Y-91186667D01*
X116042001Y-91186677D01*
X116038325Y-91223999D01*
X116042001Y-91261322D01*
X116042002Y-92126669D01*
X116038325Y-92164001D01*
X116052999Y-92312986D01*
X116096455Y-92456247D01*
X116167027Y-92588277D01*
X116204533Y-92633977D01*
X116167000Y-92822665D01*
X116167000Y-93105335D01*
X116222147Y-93382574D01*
X116304752Y-93582001D01*
X113548634Y-93582001D01*
X113517226Y-93424102D01*
X113439205Y-93235744D01*
X113325937Y-93066226D01*
X113181774Y-92922063D01*
X113012256Y-92808795D01*
X112823898Y-92730774D01*
X112623939Y-92691000D01*
X112420061Y-92691000D01*
X112220102Y-92730774D01*
X112031744Y-92808795D01*
X111862226Y-92922063D01*
X111718063Y-93066226D01*
X111604795Y-93235744D01*
X111526774Y-93424102D01*
X111487000Y-93624061D01*
X111487000Y-93686198D01*
X110829066Y-94344132D01*
X110664241Y-94234000D01*
X110896759Y-94078637D01*
X111096637Y-93878759D01*
X111253680Y-93643727D01*
X111361853Y-93382574D01*
X111417000Y-93105335D01*
X111417000Y-92822665D01*
X111361853Y-92545426D01*
X111332623Y-92474858D01*
X111334279Y-92473973D01*
X111450004Y-92379000D01*
X111473807Y-92349996D01*
X113758004Y-90065800D01*
X113787002Y-90042002D01*
X113881975Y-89926277D01*
X113952547Y-89794248D01*
X113996004Y-89650987D01*
X114007001Y-89539334D01*
X114007001Y-89539325D01*
X114010677Y-89502002D01*
X114007001Y-89464679D01*
X114007001Y-84933800D01*
X116167000Y-82773802D01*
X116167000Y-82945335D01*
X116222147Y-83222574D01*
X116330320Y-83483727D01*
X116487363Y-83718759D01*
X116687241Y-83918637D01*
X116919759Y-84074000D01*
X116687241Y-84229363D01*
X116487363Y-84429241D01*
X116330320Y-84664273D01*
X116222147Y-84925426D01*
X116167000Y-85202665D01*
X116167000Y-85485335D01*
X116222147Y-85762574D01*
X116330320Y-86023727D01*
X116487363Y-86258759D01*
X116687241Y-86458637D01*
X116922273Y-86615680D01*
X116932865Y-86620067D01*
X116746869Y-86731615D01*
X116538481Y-86920586D01*
X116370963Y-87146580D01*
X116250754Y-87400913D01*
X116210096Y-87534961D01*
X116332085Y-87757000D01*
X117475000Y-87757000D01*
X117475000Y-87737000D01*
X117729000Y-87737000D01*
X117729000Y-87757000D01*
X118871915Y-87757000D01*
X118993904Y-87534961D01*
X118953246Y-87400913D01*
X118833037Y-87146580D01*
X118665519Y-86920586D01*
X118457131Y-86731615D01*
X118271135Y-86620067D01*
X118281727Y-86615680D01*
X118516759Y-86458637D01*
X118716637Y-86258759D01*
X118873680Y-86023727D01*
X118981853Y-85762574D01*
X119037000Y-85485335D01*
X119037000Y-85202665D01*
X119000688Y-85020114D01*
X120145003Y-83875799D01*
X120174001Y-83852001D01*
X120205724Y-83813347D01*
X120268974Y-83736277D01*
X120284099Y-83707980D01*
X131743626Y-83707980D01*
X131863514Y-83992836D01*
X132187210Y-84153699D01*
X132536069Y-84248322D01*
X132896684Y-84273067D01*
X133255198Y-84226985D01*
X133597833Y-84111846D01*
X133820486Y-83992836D01*
X133940374Y-83707980D01*
X132842000Y-82609605D01*
X131743626Y-83707980D01*
X120284099Y-83707980D01*
X120339546Y-83604247D01*
X120351648Y-83564350D01*
X120383003Y-83460986D01*
X120394000Y-83349333D01*
X120394000Y-83349323D01*
X120397676Y-83312000D01*
X120394000Y-83274677D01*
X120394000Y-82484684D01*
X130998933Y-82484684D01*
X131045015Y-82843198D01*
X131160154Y-83185833D01*
X131279164Y-83408486D01*
X131564020Y-83528374D01*
X132662395Y-82430000D01*
X133021605Y-82430000D01*
X134119980Y-83528374D01*
X134404836Y-83408486D01*
X134565699Y-83084790D01*
X134660322Y-82735931D01*
X134685067Y-82375316D01*
X134638985Y-82016802D01*
X134523846Y-81674167D01*
X134404836Y-81451514D01*
X134119980Y-81331626D01*
X133021605Y-82430000D01*
X132662395Y-82430000D01*
X131564020Y-81331626D01*
X131279164Y-81451514D01*
X131118301Y-81775210D01*
X131023678Y-82124069D01*
X130998933Y-82484684D01*
X120394000Y-82484684D01*
X120394000Y-81152020D01*
X131743626Y-81152020D01*
X132842000Y-82250395D01*
X133940374Y-81152020D01*
X133820486Y-80867164D01*
X133496790Y-80706301D01*
X133147931Y-80611678D01*
X132787316Y-80586933D01*
X132428802Y-80633015D01*
X132086167Y-80748154D01*
X131863514Y-80867164D01*
X131743626Y-81152020D01*
X120394000Y-81152020D01*
X120394000Y-80717371D01*
X120478273Y-80773680D01*
X120739426Y-80881853D01*
X121016665Y-80937000D01*
X121299335Y-80937000D01*
X121576574Y-80881853D01*
X121837727Y-80773680D01*
X122072759Y-80616637D01*
X122272637Y-80416759D01*
X122429680Y-80181727D01*
X122537853Y-79920574D01*
X122593000Y-79643335D01*
X122593000Y-79360665D01*
X122537853Y-79083426D01*
X122429680Y-78822273D01*
X122272637Y-78587241D01*
X122072759Y-78387363D01*
X121837727Y-78230320D01*
X121576574Y-78122147D01*
X121299335Y-78067000D01*
X121016665Y-78067000D01*
X120739426Y-78122147D01*
X120478273Y-78230320D01*
X120394000Y-78286629D01*
X120394000Y-77665711D01*
X120437937Y-77621774D01*
X120551205Y-77452256D01*
X120629226Y-77263898D01*
X120669000Y-77063939D01*
X120669000Y-76860061D01*
X120629226Y-76660102D01*
X120551205Y-76471744D01*
X120437937Y-76302226D01*
X120293774Y-76158063D01*
X120124256Y-76044795D01*
X119935898Y-75966774D01*
X119735939Y-75927000D01*
X119532061Y-75927000D01*
X119332102Y-75966774D01*
X119143744Y-76044795D01*
X118974226Y-76158063D01*
X118830063Y-76302226D01*
X118716795Y-76471744D01*
X118638774Y-76660102D01*
X118626949Y-76719553D01*
X118516759Y-76609363D01*
X118284241Y-76454000D01*
X118516759Y-76298637D01*
X118716637Y-76098759D01*
X118873680Y-75863727D01*
X118981853Y-75602574D01*
X119037000Y-75325335D01*
X119037000Y-75042665D01*
X118981853Y-74765426D01*
X118873680Y-74504273D01*
X118716637Y-74269241D01*
X118516759Y-74069363D01*
X118284241Y-73914000D01*
X118516759Y-73758637D01*
X118545396Y-73730000D01*
X131003928Y-73730000D01*
X131003928Y-76130000D01*
X131016188Y-76254482D01*
X131052498Y-76374180D01*
X131111463Y-76484494D01*
X131190815Y-76581185D01*
X131287506Y-76660537D01*
X131397820Y-76719502D01*
X131517518Y-76755812D01*
X131642000Y-76768072D01*
X134042000Y-76768072D01*
X134166482Y-76755812D01*
X134286180Y-76719502D01*
X134396494Y-76660537D01*
X134493185Y-76581185D01*
X134572537Y-76484494D01*
X134631502Y-76374180D01*
X134667812Y-76254482D01*
X134680072Y-76130000D01*
X134680072Y-73730000D01*
X134667812Y-73605518D01*
X134631502Y-73485820D01*
X134572537Y-73375506D01*
X134493185Y-73278815D01*
X134396494Y-73199463D01*
X134286180Y-73140498D01*
X134166482Y-73104188D01*
X134042000Y-73091928D01*
X131642000Y-73091928D01*
X131517518Y-73104188D01*
X131397820Y-73140498D01*
X131287506Y-73199463D01*
X131190815Y-73278815D01*
X131111463Y-73375506D01*
X131052498Y-73485820D01*
X131016188Y-73605518D01*
X131003928Y-73730000D01*
X118545396Y-73730000D01*
X118716637Y-73558759D01*
X118873680Y-73323727D01*
X118981853Y-73062574D01*
X119037000Y-72785335D01*
X119037000Y-72502665D01*
X118981853Y-72225426D01*
X118873680Y-71964273D01*
X118724271Y-71740665D01*
X119723000Y-71740665D01*
X119723000Y-72023335D01*
X119778147Y-72300574D01*
X119886320Y-72561727D01*
X120043363Y-72796759D01*
X120243241Y-72996637D01*
X120478273Y-73153680D01*
X120739426Y-73261853D01*
X121016665Y-73317000D01*
X121299335Y-73317000D01*
X121576574Y-73261853D01*
X121837727Y-73153680D01*
X122072759Y-72996637D01*
X122272637Y-72796759D01*
X122429680Y-72561727D01*
X122454144Y-72502665D01*
X147917000Y-72502665D01*
X147917000Y-72785335D01*
X147972147Y-73062574D01*
X148080320Y-73323727D01*
X148237363Y-73558759D01*
X148437241Y-73758637D01*
X148672273Y-73915680D01*
X148933426Y-74023853D01*
X149210665Y-74079000D01*
X149493335Y-74079000D01*
X149770574Y-74023853D01*
X150031727Y-73915680D01*
X150266759Y-73758637D01*
X150466637Y-73558759D01*
X150623680Y-73323727D01*
X150731853Y-73062574D01*
X150787000Y-72785335D01*
X150787000Y-72502665D01*
X150731853Y-72225426D01*
X150623680Y-71964273D01*
X150543317Y-71844000D01*
X155533928Y-71844000D01*
X155533928Y-73444000D01*
X155546188Y-73568482D01*
X155582498Y-73688180D01*
X155641463Y-73798494D01*
X155720815Y-73895185D01*
X155817506Y-73974537D01*
X155927820Y-74033502D01*
X156047518Y-74069812D01*
X156172000Y-74082072D01*
X157772000Y-74082072D01*
X157896482Y-74069812D01*
X158016180Y-74033502D01*
X158126494Y-73974537D01*
X158223185Y-73895185D01*
X158302537Y-73798494D01*
X158361502Y-73688180D01*
X158397812Y-73568482D01*
X158410072Y-73444000D01*
X158410072Y-71844000D01*
X158397812Y-71719518D01*
X158361502Y-71599820D01*
X158302537Y-71489506D01*
X158223185Y-71392815D01*
X158126494Y-71313463D01*
X158016180Y-71254498D01*
X157896482Y-71218188D01*
X157772000Y-71205928D01*
X156172000Y-71205928D01*
X156047518Y-71218188D01*
X155927820Y-71254498D01*
X155817506Y-71313463D01*
X155720815Y-71392815D01*
X155641463Y-71489506D01*
X155582498Y-71599820D01*
X155546188Y-71719518D01*
X155533928Y-71844000D01*
X150543317Y-71844000D01*
X150466637Y-71729241D01*
X150266759Y-71529363D01*
X150031727Y-71372320D01*
X149770574Y-71264147D01*
X149493335Y-71209000D01*
X149210665Y-71209000D01*
X148933426Y-71264147D01*
X148672273Y-71372320D01*
X148437241Y-71529363D01*
X148237363Y-71729241D01*
X148080320Y-71964273D01*
X147972147Y-72225426D01*
X147917000Y-72502665D01*
X122454144Y-72502665D01*
X122537853Y-72300574D01*
X122593000Y-72023335D01*
X122593000Y-71740665D01*
X122537853Y-71463426D01*
X122429680Y-71202273D01*
X122272637Y-70967241D01*
X122072759Y-70767363D01*
X121837727Y-70610320D01*
X121576574Y-70502147D01*
X121299335Y-70447000D01*
X121016665Y-70447000D01*
X120739426Y-70502147D01*
X120478273Y-70610320D01*
X120243241Y-70767363D01*
X120043363Y-70967241D01*
X119886320Y-71202273D01*
X119778147Y-71463426D01*
X119723000Y-71740665D01*
X118724271Y-71740665D01*
X118716637Y-71729241D01*
X118516759Y-71529363D01*
X118281727Y-71372320D01*
X118020574Y-71264147D01*
X117743335Y-71209000D01*
X117460665Y-71209000D01*
X117278113Y-71245312D01*
X117040803Y-71008001D01*
X117017000Y-70978998D01*
X116901275Y-70884025D01*
X116769246Y-70813453D01*
X116625985Y-70769996D01*
X116514332Y-70758999D01*
X116514321Y-70758999D01*
X116476999Y-70755323D01*
X116439677Y-70758999D01*
X108858324Y-70758999D01*
X108821001Y-70755323D01*
X108783678Y-70758999D01*
X108783668Y-70758999D01*
X108672015Y-70769996D01*
X108528754Y-70813453D01*
X108396725Y-70884025D01*
X108281000Y-70978998D01*
X108257197Y-71008002D01*
X107947003Y-71318196D01*
X107917999Y-71341999D01*
X107876296Y-71392815D01*
X107823026Y-71457724D01*
X107806038Y-71489506D01*
X107752454Y-71589754D01*
X107708997Y-71733015D01*
X107698000Y-71844668D01*
X107698000Y-71844678D01*
X107694324Y-71882000D01*
X107698000Y-71919323D01*
X107698001Y-73267670D01*
X107694324Y-73305002D01*
X107708998Y-73453987D01*
X107752454Y-73597248D01*
X107823026Y-73729278D01*
X107879831Y-73798494D01*
X107918000Y-73845003D01*
X107946998Y-73868801D01*
X108648198Y-74570001D01*
X108671389Y-74598261D01*
X108602147Y-74765426D01*
X108547000Y-75042665D01*
X108547000Y-75325335D01*
X108583312Y-75507886D01*
X105349199Y-78742000D01*
X103065711Y-78742000D01*
X103021774Y-78698063D01*
X102852256Y-78584795D01*
X102663898Y-78506774D01*
X102463939Y-78467000D01*
X102260061Y-78467000D01*
X102060102Y-78506774D01*
X101871744Y-78584795D01*
X101702226Y-78698063D01*
X101558063Y-78842226D01*
X101444795Y-79011744D01*
X101366774Y-79200102D01*
X101327000Y-79400061D01*
X101327000Y-79467001D01*
X71194321Y-79467001D01*
X71156998Y-79463325D01*
X71119675Y-79467001D01*
X71119666Y-79467001D01*
X71008013Y-79477998D01*
X70864752Y-79521455D01*
X70732723Y-79592027D01*
X70616998Y-79687000D01*
X70593200Y-79715998D01*
X68986000Y-81323199D01*
X68986000Y-75014000D01*
X77993928Y-75014000D01*
X78006188Y-75138482D01*
X78042498Y-75258180D01*
X78101463Y-75368494D01*
X78180815Y-75465185D01*
X78277506Y-75544537D01*
X78387820Y-75603502D01*
X78507518Y-75639812D01*
X78632000Y-75652072D01*
X79216250Y-75649000D01*
X79375000Y-75490250D01*
X79375000Y-74041000D01*
X78155750Y-74041000D01*
X77997000Y-74199750D01*
X77993928Y-75014000D01*
X68986000Y-75014000D01*
X68986000Y-71788872D01*
X69139000Y-71788872D01*
X69139000Y-72229128D01*
X69224890Y-72660925D01*
X69393369Y-73067669D01*
X69637962Y-73433729D01*
X69949271Y-73745038D01*
X70315331Y-73989631D01*
X70722075Y-74158110D01*
X71153872Y-74244000D01*
X71594128Y-74244000D01*
X72025925Y-74158110D01*
X72432669Y-73989631D01*
X72798729Y-73745038D01*
X73110038Y-73433729D01*
X73354631Y-73067669D01*
X73459704Y-72814000D01*
X77993928Y-72814000D01*
X77997000Y-73628250D01*
X78155750Y-73787000D01*
X79375000Y-73787000D01*
X79375000Y-72337750D01*
X79629000Y-72337750D01*
X79629000Y-73787000D01*
X79649000Y-73787000D01*
X79649000Y-74041000D01*
X79629000Y-74041000D01*
X79629000Y-75490250D01*
X79787750Y-75649000D01*
X80372000Y-75652072D01*
X80496482Y-75639812D01*
X80616180Y-75603502D01*
X80726494Y-75544537D01*
X80823185Y-75465185D01*
X80902537Y-75368494D01*
X80961502Y-75258180D01*
X80974615Y-75214953D01*
X81201822Y-75401417D01*
X81463276Y-75541166D01*
X81746969Y-75627224D01*
X82042000Y-75656282D01*
X82337032Y-75627224D01*
X82620725Y-75541166D01*
X82882179Y-75401417D01*
X83111345Y-75213345D01*
X83299417Y-74984179D01*
X83439166Y-74722724D01*
X83525224Y-74439031D01*
X83547000Y-74217935D01*
X83547000Y-73610064D01*
X83525224Y-73388968D01*
X83439166Y-73105275D01*
X83299417Y-72843821D01*
X83111345Y-72614655D01*
X82882178Y-72426583D01*
X82620724Y-72286834D01*
X82337031Y-72200776D01*
X82042000Y-72171718D01*
X81746968Y-72200776D01*
X81463275Y-72286834D01*
X81201821Y-72426583D01*
X80974615Y-72613047D01*
X80961502Y-72569820D01*
X80902537Y-72459506D01*
X80823185Y-72362815D01*
X80726494Y-72283463D01*
X80616180Y-72224498D01*
X80496482Y-72188188D01*
X80372000Y-72175928D01*
X79787750Y-72179000D01*
X79629000Y-72337750D01*
X79375000Y-72337750D01*
X79216250Y-72179000D01*
X78632000Y-72175928D01*
X78507518Y-72188188D01*
X78387820Y-72224498D01*
X78277506Y-72283463D01*
X78180815Y-72362815D01*
X78101463Y-72459506D01*
X78042498Y-72569820D01*
X78006188Y-72689518D01*
X77993928Y-72814000D01*
X73459704Y-72814000D01*
X73523110Y-72660925D01*
X73609000Y-72229128D01*
X73609000Y-71788872D01*
X73600979Y-71748544D01*
X87291000Y-71748544D01*
X87291000Y-72015456D01*
X87343072Y-72277239D01*
X87445215Y-72523833D01*
X87593503Y-72745762D01*
X87782238Y-72934497D01*
X88004167Y-73082785D01*
X88171266Y-73152000D01*
X88004167Y-73221215D01*
X87782238Y-73369503D01*
X87593503Y-73558238D01*
X87445215Y-73780167D01*
X87343072Y-74026761D01*
X87291000Y-74288544D01*
X87291000Y-74555456D01*
X87343072Y-74817239D01*
X87445215Y-75063833D01*
X87593503Y-75285762D01*
X87782238Y-75474497D01*
X88004167Y-75622785D01*
X88171266Y-75692000D01*
X88004167Y-75761215D01*
X87782238Y-75909503D01*
X87593503Y-76098238D01*
X87445215Y-76320167D01*
X87343072Y-76566761D01*
X87291000Y-76828544D01*
X87291000Y-77095456D01*
X87343072Y-77357239D01*
X87445215Y-77603833D01*
X87593503Y-77825762D01*
X87782238Y-78014497D01*
X88004167Y-78162785D01*
X88250761Y-78264928D01*
X88512544Y-78317000D01*
X88779456Y-78317000D01*
X89041239Y-78264928D01*
X89287833Y-78162785D01*
X89509762Y-78014497D01*
X89698497Y-77825762D01*
X89846785Y-77603833D01*
X89948928Y-77357239D01*
X90001000Y-77095456D01*
X90001000Y-76828544D01*
X89948928Y-76566761D01*
X89846785Y-76320167D01*
X89698497Y-76098238D01*
X89509762Y-75909503D01*
X89287833Y-75761215D01*
X89120734Y-75692000D01*
X89287833Y-75622785D01*
X89509762Y-75474497D01*
X89698497Y-75285762D01*
X89846785Y-75063833D01*
X89867426Y-75014000D01*
X93741928Y-75014000D01*
X93754188Y-75138482D01*
X93790498Y-75258180D01*
X93849463Y-75368494D01*
X93928815Y-75465185D01*
X94025506Y-75544537D01*
X94135820Y-75603502D01*
X94255518Y-75639812D01*
X94380000Y-75652072D01*
X94964250Y-75649000D01*
X95123000Y-75490250D01*
X95123000Y-74041000D01*
X93903750Y-74041000D01*
X93745000Y-74199750D01*
X93741928Y-75014000D01*
X89867426Y-75014000D01*
X89948928Y-74817239D01*
X90001000Y-74555456D01*
X90001000Y-74288544D01*
X89948928Y-74026761D01*
X89846785Y-73780167D01*
X89698497Y-73558238D01*
X89509762Y-73369503D01*
X89287833Y-73221215D01*
X89120734Y-73152000D01*
X89287833Y-73082785D01*
X89509762Y-72934497D01*
X89630259Y-72814000D01*
X93741928Y-72814000D01*
X93745000Y-73628250D01*
X93903750Y-73787000D01*
X95123000Y-73787000D01*
X95123000Y-72337750D01*
X95377000Y-72337750D01*
X95377000Y-73787000D01*
X95397000Y-73787000D01*
X95397000Y-74041000D01*
X95377000Y-74041000D01*
X95377000Y-75490250D01*
X95535750Y-75649000D01*
X96120000Y-75652072D01*
X96244482Y-75639812D01*
X96364180Y-75603502D01*
X96474494Y-75544537D01*
X96571185Y-75465185D01*
X96650537Y-75368494D01*
X96709502Y-75258180D01*
X96722615Y-75214953D01*
X96949822Y-75401417D01*
X97211276Y-75541166D01*
X97494969Y-75627224D01*
X97790000Y-75656282D01*
X98085032Y-75627224D01*
X98368725Y-75541166D01*
X98630179Y-75401417D01*
X98859345Y-75213345D01*
X99047417Y-74984179D01*
X99187166Y-74722724D01*
X99273224Y-74439031D01*
X99295000Y-74217935D01*
X99295000Y-73610064D01*
X99273224Y-73388968D01*
X99187166Y-73105275D01*
X99047417Y-72843821D01*
X98859345Y-72614655D01*
X98630178Y-72426583D01*
X98368724Y-72286834D01*
X98085031Y-72200776D01*
X97790000Y-72171718D01*
X97494968Y-72200776D01*
X97211275Y-72286834D01*
X96949821Y-72426583D01*
X96722615Y-72613047D01*
X96709502Y-72569820D01*
X96650537Y-72459506D01*
X96571185Y-72362815D01*
X96474494Y-72283463D01*
X96364180Y-72224498D01*
X96244482Y-72188188D01*
X96120000Y-72175928D01*
X95535750Y-72179000D01*
X95377000Y-72337750D01*
X95123000Y-72337750D01*
X94964250Y-72179000D01*
X94380000Y-72175928D01*
X94255518Y-72188188D01*
X94135820Y-72224498D01*
X94025506Y-72283463D01*
X93928815Y-72362815D01*
X93849463Y-72459506D01*
X93790498Y-72569820D01*
X93754188Y-72689518D01*
X93741928Y-72814000D01*
X89630259Y-72814000D01*
X89698497Y-72745762D01*
X89846785Y-72523833D01*
X89948928Y-72277239D01*
X90001000Y-72015456D01*
X90001000Y-71748544D01*
X103039000Y-71748544D01*
X103039000Y-72015456D01*
X103091072Y-72277239D01*
X103193215Y-72523833D01*
X103341503Y-72745762D01*
X103530238Y-72934497D01*
X103752167Y-73082785D01*
X103919266Y-73152000D01*
X103752167Y-73221215D01*
X103530238Y-73369503D01*
X103341503Y-73558238D01*
X103193215Y-73780167D01*
X103091072Y-74026761D01*
X103039000Y-74288544D01*
X103039000Y-74555456D01*
X103091072Y-74817239D01*
X103193215Y-75063833D01*
X103341503Y-75285762D01*
X103530238Y-75474497D01*
X103752167Y-75622785D01*
X103919266Y-75692000D01*
X103752167Y-75761215D01*
X103530238Y-75909503D01*
X103341503Y-76098238D01*
X103193215Y-76320167D01*
X103091072Y-76566761D01*
X103039000Y-76828544D01*
X103039000Y-77095456D01*
X103091072Y-77357239D01*
X103193215Y-77603833D01*
X103341503Y-77825762D01*
X103530238Y-78014497D01*
X103752167Y-78162785D01*
X103998761Y-78264928D01*
X104260544Y-78317000D01*
X104527456Y-78317000D01*
X104789239Y-78264928D01*
X105035833Y-78162785D01*
X105257762Y-78014497D01*
X105446497Y-77825762D01*
X105594785Y-77603833D01*
X105696928Y-77357239D01*
X105749000Y-77095456D01*
X105749000Y-76828544D01*
X105696928Y-76566761D01*
X105594785Y-76320167D01*
X105446497Y-76098238D01*
X105257762Y-75909503D01*
X105035833Y-75761215D01*
X104868734Y-75692000D01*
X105035833Y-75622785D01*
X105257762Y-75474497D01*
X105446497Y-75285762D01*
X105594785Y-75063833D01*
X105696928Y-74817239D01*
X105749000Y-74555456D01*
X105749000Y-74288544D01*
X105696928Y-74026761D01*
X105594785Y-73780167D01*
X105446497Y-73558238D01*
X105257762Y-73369503D01*
X105035833Y-73221215D01*
X104868734Y-73152000D01*
X105035833Y-73082785D01*
X105257762Y-72934497D01*
X105446497Y-72745762D01*
X105594785Y-72523833D01*
X105696928Y-72277239D01*
X105749000Y-72015456D01*
X105749000Y-71748544D01*
X105696928Y-71486761D01*
X105594785Y-71240167D01*
X105446497Y-71018238D01*
X105257762Y-70829503D01*
X105035833Y-70681215D01*
X104789239Y-70579072D01*
X104527456Y-70527000D01*
X104260544Y-70527000D01*
X103998761Y-70579072D01*
X103752167Y-70681215D01*
X103530238Y-70829503D01*
X103341503Y-71018238D01*
X103193215Y-71240167D01*
X103091072Y-71486761D01*
X103039000Y-71748544D01*
X90001000Y-71748544D01*
X89948928Y-71486761D01*
X89846785Y-71240167D01*
X89698497Y-71018238D01*
X89509762Y-70829503D01*
X89287833Y-70681215D01*
X89041239Y-70579072D01*
X88779456Y-70527000D01*
X88512544Y-70527000D01*
X88250761Y-70579072D01*
X88004167Y-70681215D01*
X87782238Y-70829503D01*
X87593503Y-71018238D01*
X87445215Y-71240167D01*
X87343072Y-71486761D01*
X87291000Y-71748544D01*
X73600979Y-71748544D01*
X73523110Y-71357075D01*
X73354631Y-70950331D01*
X73110038Y-70584271D01*
X72798729Y-70272962D01*
X72432669Y-70028369D01*
X72025925Y-69859890D01*
X71594128Y-69774000D01*
X71153872Y-69774000D01*
X70722075Y-69859890D01*
X70315331Y-70028369D01*
X69949271Y-70272962D01*
X69637962Y-70584271D01*
X69393369Y-70950331D01*
X69224890Y-71357075D01*
X69139000Y-71788872D01*
X68986000Y-71788872D01*
X68986000Y-69494000D01*
X161144761Y-69494000D01*
X160942013Y-69696748D01*
G37*
G04 #@! TD.AperFunction*
D39*
X78244997Y-83925015D02*
X78234000Y-84036668D01*
X78234000Y-84036678D01*
X78230324Y-84074000D01*
X78234000Y-84111323D01*
X78234001Y-88458197D01*
X77825600Y-88866598D01*
X77825600Y-88772998D01*
X77660818Y-88772998D01*
X77781958Y-88540974D01*
X77736222Y-88390186D01*
X77609684Y-88125056D01*
X77433854Y-87889707D01*
X77215488Y-87693183D01*
X76962978Y-87543036D01*
X76686027Y-87445037D01*
X76454000Y-87565536D01*
X76454000Y-88773000D01*
X76474000Y-88773000D01*
X76474000Y-89027000D01*
X76454000Y-89027000D01*
X76454000Y-89047000D01*
X76200000Y-89047000D01*
X76200000Y-89027000D01*
X76180000Y-89027000D01*
X76180000Y-88773000D01*
X76200000Y-88773000D01*
X76200000Y-87565536D01*
X75967973Y-87445037D01*
X75691022Y-87543036D01*
X75438512Y-87693183D01*
X75259053Y-87854692D01*
X75240102Y-87792220D01*
X75181137Y-87681906D01*
X75101785Y-87585215D01*
X75005094Y-87505863D01*
X74894780Y-87446898D01*
X74775082Y-87410588D01*
X74650600Y-87398328D01*
X72923400Y-87398328D01*
X72798918Y-87410588D01*
X72679220Y-87446898D01*
X72568906Y-87505863D01*
X72472215Y-87585215D01*
X72392863Y-87681906D01*
X72333898Y-87792220D01*
X72297588Y-87911918D01*
X72285328Y-88036400D01*
X72285328Y-89763600D01*
X72297588Y-89888082D01*
X72333898Y-90007780D01*
X72392863Y-90118094D01*
X72472215Y-90214785D01*
X72568906Y-90294137D01*
X72679220Y-90353102D01*
X72737023Y-90370636D01*
X72622961Y-90484698D01*
X72458958Y-90730147D01*
X72345990Y-91002875D01*
X72288400Y-91292401D01*
X72288400Y-91587599D01*
X72345990Y-91877125D01*
X72458958Y-92149853D01*
X72622961Y-92395302D01*
X72831698Y-92604039D01*
X72990281Y-92710000D01*
X72831698Y-92815961D01*
X72622961Y-93024698D01*
X72458958Y-93270147D01*
X72345990Y-93542875D01*
X72288400Y-93832401D01*
X72288400Y-94127599D01*
X72345990Y-94417125D01*
X72458958Y-94689853D01*
X72588837Y-94884231D01*
X72087401Y-95385668D01*
X72058398Y-95409470D01*
X72007843Y-95471072D01*
X71963425Y-95525195D01*
X71906782Y-95631166D01*
X71892853Y-95657225D01*
X71849396Y-95800486D01*
X71838399Y-95912139D01*
X71838399Y-95912149D01*
X71834723Y-95949471D01*
X71838399Y-95986794D01*
X71838400Y-97834067D01*
X71834723Y-97871399D01*
X71838400Y-97908732D01*
X71849397Y-98020385D01*
X71857596Y-98047414D01*
X71892853Y-98163645D01*
X71963425Y-98295675D01*
X72008130Y-98350147D01*
X72058399Y-98411400D01*
X72087397Y-98435198D01*
X72334224Y-98682025D01*
X72288400Y-98912401D01*
X72288400Y-99207599D01*
X72345990Y-99497125D01*
X72458958Y-99769853D01*
X72622961Y-100015302D01*
X72831698Y-100224039D01*
X73077147Y-100388042D01*
X73349875Y-100501010D01*
X73639401Y-100558600D01*
X73934599Y-100558600D01*
X74224125Y-100501010D01*
X74496853Y-100388042D01*
X74742302Y-100224039D01*
X74951039Y-100015302D01*
X75057000Y-99856719D01*
X75162961Y-100015302D01*
X75371698Y-100224039D01*
X75617147Y-100388042D01*
X75889875Y-100501010D01*
X76179401Y-100558600D01*
X76474599Y-100558600D01*
X76764125Y-100501010D01*
X77036853Y-100388042D01*
X77282302Y-100224039D01*
X77491039Y-100015302D01*
X77655042Y-99769853D01*
X77768010Y-99497125D01*
X77825600Y-99207599D01*
X77825600Y-98912401D01*
X77768010Y-98622875D01*
X77655042Y-98350147D01*
X77491039Y-98104698D01*
X77282302Y-97895961D01*
X77123719Y-97790000D01*
X77282302Y-97684039D01*
X77491039Y-97475302D01*
X77621535Y-97280000D01*
X80121987Y-97280000D01*
X80108795Y-97299744D01*
X80030774Y-97488102D01*
X79991000Y-97688061D01*
X79991000Y-97891939D01*
X80030774Y-98091898D01*
X80108795Y-98280256D01*
X80222063Y-98449774D01*
X80366226Y-98593937D01*
X80535744Y-98707205D01*
X80724102Y-98785226D01*
X80924061Y-98825000D01*
X81127939Y-98825000D01*
X81327898Y-98785226D01*
X81516256Y-98707205D01*
X81589895Y-98658001D01*
X81866680Y-98658001D01*
X81857215Y-98672167D01*
X81755072Y-98918761D01*
X81703000Y-99180544D01*
X81703000Y-99447456D01*
X81755072Y-99709239D01*
X81857215Y-99955833D01*
X82005503Y-100177762D01*
X82194238Y-100366497D01*
X82416167Y-100514785D01*
X82584324Y-100584438D01*
X82469647Y-100626125D01*
X82363932Y-100682632D01*
X82302045Y-100918440D01*
X83058000Y-101674395D01*
X83813955Y-100918440D01*
X83752068Y-100682632D01*
X83536993Y-100582236D01*
X83699833Y-100514785D01*
X83921762Y-100366497D01*
X84110497Y-100177762D01*
X84258785Y-99955833D01*
X84360928Y-99709239D01*
X84413000Y-99447456D01*
X84413000Y-99180544D01*
X84360928Y-98918761D01*
X84258785Y-98672167D01*
X84249320Y-98658001D01*
X86658841Y-98658001D01*
X86712795Y-98788256D01*
X86826063Y-98957774D01*
X86970226Y-99101937D01*
X87139744Y-99215205D01*
X87328102Y-99293226D01*
X87528061Y-99333000D01*
X87731939Y-99333000D01*
X87931898Y-99293226D01*
X88120256Y-99215205D01*
X88289774Y-99101937D01*
X88433937Y-98957774D01*
X88547205Y-98788256D01*
X88625226Y-98599898D01*
X88665000Y-98399939D01*
X88665000Y-98196061D01*
X88625226Y-97996102D01*
X88547205Y-97807744D01*
X88433937Y-97638226D01*
X88289774Y-97494063D01*
X88120256Y-97380795D01*
X87931898Y-97302774D01*
X87731939Y-97263000D01*
X87654226Y-97263000D01*
X87522248Y-97192455D01*
X87378987Y-97148998D01*
X87267334Y-97138001D01*
X87267323Y-97138001D01*
X87230001Y-97134325D01*
X87192679Y-97138001D01*
X84367142Y-97138001D01*
X84413000Y-96907456D01*
X84413000Y-96640544D01*
X84360928Y-96378761D01*
X84258785Y-96132167D01*
X84110497Y-95910238D01*
X83921762Y-95721503D01*
X83699833Y-95573215D01*
X83453239Y-95471072D01*
X83191456Y-95419000D01*
X82924544Y-95419000D01*
X82662761Y-95471072D01*
X82433957Y-95565846D01*
X90055928Y-87943876D01*
X90055928Y-89138000D01*
X90068188Y-89262482D01*
X90104498Y-89382180D01*
X90163463Y-89492494D01*
X90242815Y-89589185D01*
X90339506Y-89668537D01*
X90449820Y-89727502D01*
X90569518Y-89763812D01*
X90694000Y-89776072D01*
X90934000Y-89776072D01*
X90934000Y-90109198D01*
X89150998Y-91892201D01*
X89122000Y-91915999D01*
X89098202Y-91944997D01*
X89098201Y-91944998D01*
X89027026Y-92031724D01*
X88956454Y-92163754D01*
X88912998Y-92307015D01*
X88898324Y-92456000D01*
X88902001Y-92493332D01*
X88902000Y-95555956D01*
X88747241Y-95659363D01*
X88547363Y-95859241D01*
X88390320Y-96094273D01*
X88282147Y-96355426D01*
X88227000Y-96632665D01*
X88227000Y-96915335D01*
X88282147Y-97192574D01*
X88390320Y-97453727D01*
X88547363Y-97688759D01*
X88747241Y-97888637D01*
X88982273Y-98045680D01*
X89243426Y-98153853D01*
X89520665Y-98209000D01*
X89803335Y-98209000D01*
X90080574Y-98153853D01*
X90341727Y-98045680D01*
X90576759Y-97888637D01*
X90776637Y-97688759D01*
X90933680Y-97453727D01*
X91041853Y-97192574D01*
X91097000Y-96915335D01*
X91097000Y-96632665D01*
X91041853Y-96355426D01*
X90933680Y-96094273D01*
X90776637Y-95859241D01*
X90576759Y-95659363D01*
X90422000Y-95555957D01*
X90422000Y-92770801D01*
X92205004Y-90987798D01*
X92234001Y-90964001D01*
X92280709Y-90907087D01*
X92328974Y-90848277D01*
X92399546Y-90716247D01*
X92409328Y-90683998D01*
X92443003Y-90572986D01*
X92454000Y-90461333D01*
X92454000Y-90461323D01*
X92457676Y-90424000D01*
X92454000Y-90386677D01*
X92454000Y-89776072D01*
X92694000Y-89776072D01*
X92818482Y-89763812D01*
X92938180Y-89727502D01*
X93048494Y-89668537D01*
X93145185Y-89589185D01*
X93224537Y-89492494D01*
X93283502Y-89382180D01*
X93319812Y-89262482D01*
X93332072Y-89138000D01*
X93332072Y-87138000D01*
X93319812Y-87013518D01*
X93283502Y-86893820D01*
X93224537Y-86783506D01*
X93145185Y-86686815D01*
X93048494Y-86607463D01*
X92938180Y-86548498D01*
X92818482Y-86512188D01*
X92694000Y-86499928D01*
X91499876Y-86499928D01*
X91895804Y-86104000D01*
X108763957Y-86104000D01*
X108867363Y-86258759D01*
X109067241Y-86458637D01*
X109299759Y-86614000D01*
X109067241Y-86769363D01*
X108867363Y-86969241D01*
X108710320Y-87204273D01*
X108602147Y-87465426D01*
X108547000Y-87742665D01*
X108547000Y-88025335D01*
X108602147Y-88302574D01*
X108683509Y-88498999D01*
X108105491Y-88498999D01*
X108186853Y-88302574D01*
X108242000Y-88025335D01*
X108242000Y-87742665D01*
X108186853Y-87465426D01*
X108078680Y-87204273D01*
X107921637Y-86969241D01*
X107721759Y-86769363D01*
X107486727Y-86612320D01*
X107225574Y-86504147D01*
X106948335Y-86449000D01*
X106665665Y-86449000D01*
X106388426Y-86504147D01*
X106127273Y-86612320D01*
X105892241Y-86769363D01*
X105692363Y-86969241D01*
X105535320Y-87204273D01*
X105427147Y-87465426D01*
X105372000Y-87742665D01*
X105372000Y-88025335D01*
X105427147Y-88302574D01*
X105508509Y-88498999D01*
X98289224Y-88498999D01*
X98329000Y-88299033D01*
X98329000Y-87976967D01*
X98266168Y-87661088D01*
X98142918Y-87363537D01*
X97963987Y-87095748D01*
X97736252Y-86868013D01*
X97468463Y-86689082D01*
X97170912Y-86565832D01*
X96855033Y-86503000D01*
X96532967Y-86503000D01*
X96217088Y-86565832D01*
X95919537Y-86689082D01*
X95651748Y-86868013D01*
X95424013Y-87095748D01*
X95245082Y-87363537D01*
X95121832Y-87661088D01*
X95059000Y-87976967D01*
X95059000Y-88299033D01*
X95121832Y-88614912D01*
X95245082Y-88912463D01*
X95424013Y-89180252D01*
X95651748Y-89407987D01*
X95919537Y-89586918D01*
X96217088Y-89710168D01*
X96532967Y-89773000D01*
X96855033Y-89773000D01*
X97170912Y-89710168D01*
X97185375Y-89704177D01*
X97251200Y-89770002D01*
X97274998Y-89799000D01*
X97303996Y-89822798D01*
X97390722Y-89893973D01*
X97473083Y-89937996D01*
X97522752Y-89964545D01*
X97666013Y-90008002D01*
X97777666Y-90018999D01*
X97777676Y-90018999D01*
X97814999Y-90022675D01*
X97852321Y-90018999D01*
X105419098Y-90018999D01*
X105380700Y-90172184D01*
X105366783Y-90454512D01*
X105408213Y-90734130D01*
X105503397Y-91000292D01*
X105545466Y-91078999D01*
X98039325Y-91078999D01*
X98002002Y-91075323D01*
X97964680Y-91078999D01*
X97964670Y-91078999D01*
X97853017Y-91089996D01*
X97735928Y-91125514D01*
X97709756Y-91133453D01*
X97577726Y-91204025D01*
X97494086Y-91272667D01*
X97462002Y-91298998D01*
X97438204Y-91327996D01*
X76496201Y-112270000D01*
X74936273Y-112270000D01*
X74893417Y-112189821D01*
X74705345Y-111960655D01*
X74476179Y-111772583D01*
X74452638Y-111760000D01*
X74476179Y-111747417D01*
X74705345Y-111559345D01*
X74893417Y-111330179D01*
X74949343Y-111225548D01*
X75048247Y-111195546D01*
X75180276Y-111124974D01*
X75296001Y-111030001D01*
X75319804Y-111000997D01*
X75440997Y-110879804D01*
X75470001Y-110856001D01*
X75564974Y-110740276D01*
X75635546Y-110608247D01*
X75679003Y-110464986D01*
X75690000Y-110353333D01*
X75690000Y-110353324D01*
X75693676Y-110316001D01*
X75690000Y-110278678D01*
X75690000Y-107591324D01*
X75693676Y-107554001D01*
X75690000Y-107516678D01*
X75690000Y-107516668D01*
X75679003Y-107405015D01*
X75635546Y-107261754D01*
X75621154Y-107234829D01*
X75564974Y-107129724D01*
X75493799Y-107042998D01*
X75470001Y-107014000D01*
X75441004Y-106990203D01*
X71240361Y-102789560D01*
X82302045Y-102789560D01*
X82363932Y-103025368D01*
X82605790Y-103138266D01*
X82865027Y-103201811D01*
X83131680Y-103213561D01*
X83395501Y-103173063D01*
X83646353Y-103081875D01*
X83752068Y-103025368D01*
X83813955Y-102789560D01*
X83058000Y-102033605D01*
X82302045Y-102789560D01*
X71240361Y-102789560D01*
X70610000Y-102159200D01*
X70610000Y-101927680D01*
X81698439Y-101927680D01*
X81738937Y-102191501D01*
X81830125Y-102442353D01*
X81886632Y-102548068D01*
X82122440Y-102609955D01*
X82878395Y-101854000D01*
X83237605Y-101854000D01*
X83993560Y-102609955D01*
X84229368Y-102548068D01*
X84342266Y-102306210D01*
X84405811Y-102046973D01*
X84417561Y-101780320D01*
X84377063Y-101516499D01*
X84285875Y-101265647D01*
X84229368Y-101159932D01*
X83993560Y-101098045D01*
X83237605Y-101854000D01*
X82878395Y-101854000D01*
X82122440Y-101098045D01*
X81886632Y-101159932D01*
X81773734Y-101401790D01*
X81710189Y-101661027D01*
X81698439Y-101927680D01*
X70610000Y-101927680D01*
X70610000Y-84388801D01*
X71185455Y-83813347D01*
X78278871Y-83813347D01*
X78244997Y-83925015D01*
G04 #@! TA.AperFunction,Conductor*
D40*
G36*
X78244997Y-83925015D02*
G01*
X78234000Y-84036668D01*
X78234000Y-84036678D01*
X78230324Y-84074000D01*
X78234000Y-84111323D01*
X78234001Y-88458197D01*
X77825600Y-88866598D01*
X77825600Y-88772998D01*
X77660818Y-88772998D01*
X77781958Y-88540974D01*
X77736222Y-88390186D01*
X77609684Y-88125056D01*
X77433854Y-87889707D01*
X77215488Y-87693183D01*
X76962978Y-87543036D01*
X76686027Y-87445037D01*
X76454000Y-87565536D01*
X76454000Y-88773000D01*
X76474000Y-88773000D01*
X76474000Y-89027000D01*
X76454000Y-89027000D01*
X76454000Y-89047000D01*
X76200000Y-89047000D01*
X76200000Y-89027000D01*
X76180000Y-89027000D01*
X76180000Y-88773000D01*
X76200000Y-88773000D01*
X76200000Y-87565536D01*
X75967973Y-87445037D01*
X75691022Y-87543036D01*
X75438512Y-87693183D01*
X75259053Y-87854692D01*
X75240102Y-87792220D01*
X75181137Y-87681906D01*
X75101785Y-87585215D01*
X75005094Y-87505863D01*
X74894780Y-87446898D01*
X74775082Y-87410588D01*
X74650600Y-87398328D01*
X72923400Y-87398328D01*
X72798918Y-87410588D01*
X72679220Y-87446898D01*
X72568906Y-87505863D01*
X72472215Y-87585215D01*
X72392863Y-87681906D01*
X72333898Y-87792220D01*
X72297588Y-87911918D01*
X72285328Y-88036400D01*
X72285328Y-89763600D01*
X72297588Y-89888082D01*
X72333898Y-90007780D01*
X72392863Y-90118094D01*
X72472215Y-90214785D01*
X72568906Y-90294137D01*
X72679220Y-90353102D01*
X72737023Y-90370636D01*
X72622961Y-90484698D01*
X72458958Y-90730147D01*
X72345990Y-91002875D01*
X72288400Y-91292401D01*
X72288400Y-91587599D01*
X72345990Y-91877125D01*
X72458958Y-92149853D01*
X72622961Y-92395302D01*
X72831698Y-92604039D01*
X72990281Y-92710000D01*
X72831698Y-92815961D01*
X72622961Y-93024698D01*
X72458958Y-93270147D01*
X72345990Y-93542875D01*
X72288400Y-93832401D01*
X72288400Y-94127599D01*
X72345990Y-94417125D01*
X72458958Y-94689853D01*
X72588837Y-94884231D01*
X72087401Y-95385668D01*
X72058398Y-95409470D01*
X72007843Y-95471072D01*
X71963425Y-95525195D01*
X71906782Y-95631166D01*
X71892853Y-95657225D01*
X71849396Y-95800486D01*
X71838399Y-95912139D01*
X71838399Y-95912149D01*
X71834723Y-95949471D01*
X71838399Y-95986794D01*
X71838400Y-97834067D01*
X71834723Y-97871399D01*
X71838400Y-97908732D01*
X71849397Y-98020385D01*
X71857596Y-98047414D01*
X71892853Y-98163645D01*
X71963425Y-98295675D01*
X72008130Y-98350147D01*
X72058399Y-98411400D01*
X72087397Y-98435198D01*
X72334224Y-98682025D01*
X72288400Y-98912401D01*
X72288400Y-99207599D01*
X72345990Y-99497125D01*
X72458958Y-99769853D01*
X72622961Y-100015302D01*
X72831698Y-100224039D01*
X73077147Y-100388042D01*
X73349875Y-100501010D01*
X73639401Y-100558600D01*
X73934599Y-100558600D01*
X74224125Y-100501010D01*
X74496853Y-100388042D01*
X74742302Y-100224039D01*
X74951039Y-100015302D01*
X75057000Y-99856719D01*
X75162961Y-100015302D01*
X75371698Y-100224039D01*
X75617147Y-100388042D01*
X75889875Y-100501010D01*
X76179401Y-100558600D01*
X76474599Y-100558600D01*
X76764125Y-100501010D01*
X77036853Y-100388042D01*
X77282302Y-100224039D01*
X77491039Y-100015302D01*
X77655042Y-99769853D01*
X77768010Y-99497125D01*
X77825600Y-99207599D01*
X77825600Y-98912401D01*
X77768010Y-98622875D01*
X77655042Y-98350147D01*
X77491039Y-98104698D01*
X77282302Y-97895961D01*
X77123719Y-97790000D01*
X77282302Y-97684039D01*
X77491039Y-97475302D01*
X77621535Y-97280000D01*
X80121987Y-97280000D01*
X80108795Y-97299744D01*
X80030774Y-97488102D01*
X79991000Y-97688061D01*
X79991000Y-97891939D01*
X80030774Y-98091898D01*
X80108795Y-98280256D01*
X80222063Y-98449774D01*
X80366226Y-98593937D01*
X80535744Y-98707205D01*
X80724102Y-98785226D01*
X80924061Y-98825000D01*
X81127939Y-98825000D01*
X81327898Y-98785226D01*
X81516256Y-98707205D01*
X81589895Y-98658001D01*
X81866680Y-98658001D01*
X81857215Y-98672167D01*
X81755072Y-98918761D01*
X81703000Y-99180544D01*
X81703000Y-99447456D01*
X81755072Y-99709239D01*
X81857215Y-99955833D01*
X82005503Y-100177762D01*
X82194238Y-100366497D01*
X82416167Y-100514785D01*
X82584324Y-100584438D01*
X82469647Y-100626125D01*
X82363932Y-100682632D01*
X82302045Y-100918440D01*
X83058000Y-101674395D01*
X83813955Y-100918440D01*
X83752068Y-100682632D01*
X83536993Y-100582236D01*
X83699833Y-100514785D01*
X83921762Y-100366497D01*
X84110497Y-100177762D01*
X84258785Y-99955833D01*
X84360928Y-99709239D01*
X84413000Y-99447456D01*
X84413000Y-99180544D01*
X84360928Y-98918761D01*
X84258785Y-98672167D01*
X84249320Y-98658001D01*
X86658841Y-98658001D01*
X86712795Y-98788256D01*
X86826063Y-98957774D01*
X86970226Y-99101937D01*
X87139744Y-99215205D01*
X87328102Y-99293226D01*
X87528061Y-99333000D01*
X87731939Y-99333000D01*
X87931898Y-99293226D01*
X88120256Y-99215205D01*
X88289774Y-99101937D01*
X88433937Y-98957774D01*
X88547205Y-98788256D01*
X88625226Y-98599898D01*
X88665000Y-98399939D01*
X88665000Y-98196061D01*
X88625226Y-97996102D01*
X88547205Y-97807744D01*
X88433937Y-97638226D01*
X88289774Y-97494063D01*
X88120256Y-97380795D01*
X87931898Y-97302774D01*
X87731939Y-97263000D01*
X87654226Y-97263000D01*
X87522248Y-97192455D01*
X87378987Y-97148998D01*
X87267334Y-97138001D01*
X87267323Y-97138001D01*
X87230001Y-97134325D01*
X87192679Y-97138001D01*
X84367142Y-97138001D01*
X84413000Y-96907456D01*
X84413000Y-96640544D01*
X84360928Y-96378761D01*
X84258785Y-96132167D01*
X84110497Y-95910238D01*
X83921762Y-95721503D01*
X83699833Y-95573215D01*
X83453239Y-95471072D01*
X83191456Y-95419000D01*
X82924544Y-95419000D01*
X82662761Y-95471072D01*
X82433957Y-95565846D01*
X90055928Y-87943876D01*
X90055928Y-89138000D01*
X90068188Y-89262482D01*
X90104498Y-89382180D01*
X90163463Y-89492494D01*
X90242815Y-89589185D01*
X90339506Y-89668537D01*
X90449820Y-89727502D01*
X90569518Y-89763812D01*
X90694000Y-89776072D01*
X90934000Y-89776072D01*
X90934000Y-90109198D01*
X89150998Y-91892201D01*
X89122000Y-91915999D01*
X89098202Y-91944997D01*
X89098201Y-91944998D01*
X89027026Y-92031724D01*
X88956454Y-92163754D01*
X88912998Y-92307015D01*
X88898324Y-92456000D01*
X88902001Y-92493332D01*
X88902000Y-95555956D01*
X88747241Y-95659363D01*
X88547363Y-95859241D01*
X88390320Y-96094273D01*
X88282147Y-96355426D01*
X88227000Y-96632665D01*
X88227000Y-96915335D01*
X88282147Y-97192574D01*
X88390320Y-97453727D01*
X88547363Y-97688759D01*
X88747241Y-97888637D01*
X88982273Y-98045680D01*
X89243426Y-98153853D01*
X89520665Y-98209000D01*
X89803335Y-98209000D01*
X90080574Y-98153853D01*
X90341727Y-98045680D01*
X90576759Y-97888637D01*
X90776637Y-97688759D01*
X90933680Y-97453727D01*
X91041853Y-97192574D01*
X91097000Y-96915335D01*
X91097000Y-96632665D01*
X91041853Y-96355426D01*
X90933680Y-96094273D01*
X90776637Y-95859241D01*
X90576759Y-95659363D01*
X90422000Y-95555957D01*
X90422000Y-92770801D01*
X92205004Y-90987798D01*
X92234001Y-90964001D01*
X92280709Y-90907087D01*
X92328974Y-90848277D01*
X92399546Y-90716247D01*
X92409328Y-90683998D01*
X92443003Y-90572986D01*
X92454000Y-90461333D01*
X92454000Y-90461323D01*
X92457676Y-90424000D01*
X92454000Y-90386677D01*
X92454000Y-89776072D01*
X92694000Y-89776072D01*
X92818482Y-89763812D01*
X92938180Y-89727502D01*
X93048494Y-89668537D01*
X93145185Y-89589185D01*
X93224537Y-89492494D01*
X93283502Y-89382180D01*
X93319812Y-89262482D01*
X93332072Y-89138000D01*
X93332072Y-87138000D01*
X93319812Y-87013518D01*
X93283502Y-86893820D01*
X93224537Y-86783506D01*
X93145185Y-86686815D01*
X93048494Y-86607463D01*
X92938180Y-86548498D01*
X92818482Y-86512188D01*
X92694000Y-86499928D01*
X91499876Y-86499928D01*
X91895804Y-86104000D01*
X108763957Y-86104000D01*
X108867363Y-86258759D01*
X109067241Y-86458637D01*
X109299759Y-86614000D01*
X109067241Y-86769363D01*
X108867363Y-86969241D01*
X108710320Y-87204273D01*
X108602147Y-87465426D01*
X108547000Y-87742665D01*
X108547000Y-88025335D01*
X108602147Y-88302574D01*
X108683509Y-88498999D01*
X108105491Y-88498999D01*
X108186853Y-88302574D01*
X108242000Y-88025335D01*
X108242000Y-87742665D01*
X108186853Y-87465426D01*
X108078680Y-87204273D01*
X107921637Y-86969241D01*
X107721759Y-86769363D01*
X107486727Y-86612320D01*
X107225574Y-86504147D01*
X106948335Y-86449000D01*
X106665665Y-86449000D01*
X106388426Y-86504147D01*
X106127273Y-86612320D01*
X105892241Y-86769363D01*
X105692363Y-86969241D01*
X105535320Y-87204273D01*
X105427147Y-87465426D01*
X105372000Y-87742665D01*
X105372000Y-88025335D01*
X105427147Y-88302574D01*
X105508509Y-88498999D01*
X98289224Y-88498999D01*
X98329000Y-88299033D01*
X98329000Y-87976967D01*
X98266168Y-87661088D01*
X98142918Y-87363537D01*
X97963987Y-87095748D01*
X97736252Y-86868013D01*
X97468463Y-86689082D01*
X97170912Y-86565832D01*
X96855033Y-86503000D01*
X96532967Y-86503000D01*
X96217088Y-86565832D01*
X95919537Y-86689082D01*
X95651748Y-86868013D01*
X95424013Y-87095748D01*
X95245082Y-87363537D01*
X95121832Y-87661088D01*
X95059000Y-87976967D01*
X95059000Y-88299033D01*
X95121832Y-88614912D01*
X95245082Y-88912463D01*
X95424013Y-89180252D01*
X95651748Y-89407987D01*
X95919537Y-89586918D01*
X96217088Y-89710168D01*
X96532967Y-89773000D01*
X96855033Y-89773000D01*
X97170912Y-89710168D01*
X97185375Y-89704177D01*
X97251200Y-89770002D01*
X97274998Y-89799000D01*
X97303996Y-89822798D01*
X97390722Y-89893973D01*
X97473083Y-89937996D01*
X97522752Y-89964545D01*
X97666013Y-90008002D01*
X97777666Y-90018999D01*
X97777676Y-90018999D01*
X97814999Y-90022675D01*
X97852321Y-90018999D01*
X105419098Y-90018999D01*
X105380700Y-90172184D01*
X105366783Y-90454512D01*
X105408213Y-90734130D01*
X105503397Y-91000292D01*
X105545466Y-91078999D01*
X98039325Y-91078999D01*
X98002002Y-91075323D01*
X97964680Y-91078999D01*
X97964670Y-91078999D01*
X97853017Y-91089996D01*
X97735928Y-91125514D01*
X97709756Y-91133453D01*
X97577726Y-91204025D01*
X97494086Y-91272667D01*
X97462002Y-91298998D01*
X97438204Y-91327996D01*
X76496201Y-112270000D01*
X74936273Y-112270000D01*
X74893417Y-112189821D01*
X74705345Y-111960655D01*
X74476179Y-111772583D01*
X74452638Y-111760000D01*
X74476179Y-111747417D01*
X74705345Y-111559345D01*
X74893417Y-111330179D01*
X74949343Y-111225548D01*
X75048247Y-111195546D01*
X75180276Y-111124974D01*
X75296001Y-111030001D01*
X75319804Y-111000997D01*
X75440997Y-110879804D01*
X75470001Y-110856001D01*
X75564974Y-110740276D01*
X75635546Y-110608247D01*
X75679003Y-110464986D01*
X75690000Y-110353333D01*
X75690000Y-110353324D01*
X75693676Y-110316001D01*
X75690000Y-110278678D01*
X75690000Y-107591324D01*
X75693676Y-107554001D01*
X75690000Y-107516678D01*
X75690000Y-107516668D01*
X75679003Y-107405015D01*
X75635546Y-107261754D01*
X75621154Y-107234829D01*
X75564974Y-107129724D01*
X75493799Y-107042998D01*
X75470001Y-107014000D01*
X75441004Y-106990203D01*
X71240361Y-102789560D01*
X82302045Y-102789560D01*
X82363932Y-103025368D01*
X82605790Y-103138266D01*
X82865027Y-103201811D01*
X83131680Y-103213561D01*
X83395501Y-103173063D01*
X83646353Y-103081875D01*
X83752068Y-103025368D01*
X83813955Y-102789560D01*
X83058000Y-102033605D01*
X82302045Y-102789560D01*
X71240361Y-102789560D01*
X70610000Y-102159200D01*
X70610000Y-101927680D01*
X81698439Y-101927680D01*
X81738937Y-102191501D01*
X81830125Y-102442353D01*
X81886632Y-102548068D01*
X82122440Y-102609955D01*
X82878395Y-101854000D01*
X83237605Y-101854000D01*
X83993560Y-102609955D01*
X84229368Y-102548068D01*
X84342266Y-102306210D01*
X84405811Y-102046973D01*
X84417561Y-101780320D01*
X84377063Y-101516499D01*
X84285875Y-101265647D01*
X84229368Y-101159932D01*
X83993560Y-101098045D01*
X83237605Y-101854000D01*
X82878395Y-101854000D01*
X82122440Y-101098045D01*
X81886632Y-101159932D01*
X81773734Y-101401790D01*
X81710189Y-101661027D01*
X81698439Y-101927680D01*
X70610000Y-101927680D01*
X70610000Y-84388801D01*
X71185455Y-83813347D01*
X78278871Y-83813347D01*
X78244997Y-83925015D01*
G37*
G04 #@! TD.AperFunction*
D39*
X108590096Y-90074961D02*
X108712085Y-90297000D01*
X109855000Y-90297000D01*
X109855000Y-90277000D01*
X110109000Y-90277000D01*
X110109000Y-90297000D01*
X110129000Y-90297000D01*
X110129000Y-90551000D01*
X110109000Y-90551000D01*
X110109000Y-90571000D01*
X109855000Y-90571000D01*
X109855000Y-90551000D01*
X108712085Y-90551000D01*
X108590096Y-90773039D01*
X108630754Y-90907087D01*
X108712007Y-91078999D01*
X108065681Y-91078999D01*
X108164571Y-90870004D01*
X108233300Y-90595816D01*
X108247217Y-90313488D01*
X108205787Y-90033870D01*
X108200469Y-90018999D01*
X108607070Y-90018999D01*
X108590096Y-90074961D01*
G04 #@! TA.AperFunction,Conductor*
D40*
G36*
X108590096Y-90074961D02*
G01*
X108712085Y-90297000D01*
X109855000Y-90297000D01*
X109855000Y-90277000D01*
X110109000Y-90277000D01*
X110109000Y-90297000D01*
X110129000Y-90297000D01*
X110129000Y-90551000D01*
X110109000Y-90551000D01*
X110109000Y-90571000D01*
X109855000Y-90571000D01*
X109855000Y-90551000D01*
X108712085Y-90551000D01*
X108590096Y-90773039D01*
X108630754Y-90907087D01*
X108712007Y-91078999D01*
X108065681Y-91078999D01*
X108164571Y-90870004D01*
X108233300Y-90595816D01*
X108247217Y-90313488D01*
X108205787Y-90033870D01*
X108200469Y-90018999D01*
X108607070Y-90018999D01*
X108590096Y-90074961D01*
G37*
G04 #@! TD.AperFunction*
D39*
X107000748Y-90369858D02*
X106986605Y-90384000D01*
X107000748Y-90398143D01*
X106821143Y-90577748D01*
X106807000Y-90563605D01*
X106792858Y-90577748D01*
X106613253Y-90398143D01*
X106627395Y-90384000D01*
X106613253Y-90369858D01*
X106792858Y-90190253D01*
X106807000Y-90204395D01*
X106821143Y-90190253D01*
X107000748Y-90369858D01*
G04 #@! TA.AperFunction,Conductor*
D40*
G36*
X107000748Y-90369858D02*
G01*
X106986605Y-90384000D01*
X107000748Y-90398143D01*
X106821143Y-90577748D01*
X106807000Y-90563605D01*
X106792858Y-90577748D01*
X106613253Y-90398143D01*
X106627395Y-90384000D01*
X106613253Y-90369858D01*
X106792858Y-90190253D01*
X106807000Y-90204395D01*
X106821143Y-90190253D01*
X107000748Y-90369858D01*
G37*
G04 #@! TD.AperFunction*
M02*
