G04 #@! TF.GenerationSoftware,KiCad,Pcbnew,5.1.7-a382d34a8~87~ubuntu20.04.1*
G04 #@! TF.CreationDate,2020-10-22T20:00:58+02:00*
G04 #@! TF.ProjectId,reflow_ofen_steuerung,7265666c-6f77-45f6-9f66-656e5f737465,rev?*
G04 #@! TF.SameCoordinates,Original*
G04 #@! TF.FileFunction,Soldermask,Top*
G04 #@! TF.FilePolarity,Negative*
%FSLAX46Y46*%
G04 Gerber Fmt 4.6, Leading zero omitted, Abs format (unit mm)*
G04 Created by KiCad (PCBNEW 5.1.7-a382d34a8~87~ubuntu20.04.1) date 2020-10-22 20:00:58*
%MOMM*%
%LPD*%
G01*
G04 APERTURE LIST*
%ADD10O,1.702000X1.702000*%
%ADD11C,1.702000*%
%ADD12C,1.302000*%
%ADD13C,1.902000*%
%ADD14C,2.502000*%
%ADD15O,1.829200X1.829200*%
%ADD16C,1.502000*%
%ADD17C,2.102000*%
%ADD18O,1.842000X2.302000*%
%ADD19C,1.542000*%
%ADD20O,1.602000X1.152000*%
%ADD21O,2.302000X1.842000*%
%ADD22O,2.302000X2.302000*%
%ADD23C,3.302000*%
%ADD24O,2.007000X2.102000*%
%ADD25C,2.602000*%
%ADD26O,6.102000X3.352000*%
%ADD27C,0.100000*%
G04 APERTURE END LIST*
D10*
X81280000Y-76200000D03*
D11*
X73660000Y-76200000D03*
D12*
X102640000Y-92456000D03*
G36*
G01*
X104791000Y-91855999D02*
X104791000Y-93056001D01*
G75*
G02*
X104740001Y-93107000I-50999J0D01*
G01*
X103539999Y-93107000D01*
G75*
G02*
X103489000Y-93056001I0J50999D01*
G01*
X103489000Y-91855999D01*
G75*
G02*
X103539999Y-91805000I50999J0D01*
G01*
X104740001Y-91805000D01*
G75*
G02*
X104791000Y-91855999I0J-50999D01*
G01*
G37*
X123468000Y-92456000D03*
G36*
G01*
X125619000Y-91855999D02*
X125619000Y-93056001D01*
G75*
G02*
X125568001Y-93107000I-50999J0D01*
G01*
X124367999Y-93107000D01*
G75*
G02*
X124317000Y-93056001I0J50999D01*
G01*
X124317000Y-91855999D01*
G75*
G02*
X124367999Y-91805000I50999J0D01*
G01*
X125568001Y-91805000D01*
G75*
G02*
X125619000Y-91855999I0J-50999D01*
G01*
G37*
D13*
X63500000Y-94488000D03*
G36*
G01*
X66991000Y-93588000D02*
X66991000Y-95388000D01*
G75*
G02*
X66940000Y-95439000I-51000J0D01*
G01*
X65140000Y-95439000D01*
G75*
G02*
X65089000Y-95388000I0J51000D01*
G01*
X65089000Y-93588000D01*
G75*
G02*
X65140000Y-93537000I51000J0D01*
G01*
X66940000Y-93537000D01*
G75*
G02*
X66991000Y-93588000I0J-51000D01*
G01*
G37*
D10*
X70104000Y-89408000D03*
D11*
X70104000Y-97028000D03*
D14*
X116840000Y-61856000D03*
G36*
G01*
X115640000Y-53105000D02*
X118040000Y-53105000D01*
G75*
G02*
X118091000Y-53156000I0J-51000D01*
G01*
X118091000Y-55556000D01*
G75*
G02*
X118040000Y-55607000I-51000J0D01*
G01*
X115640000Y-55607000D01*
G75*
G02*
X115589000Y-55556000I0J51000D01*
G01*
X115589000Y-53156000D01*
G75*
G02*
X115640000Y-53105000I51000J0D01*
G01*
G37*
D15*
X80264000Y-98552000D03*
X80264000Y-96012000D03*
X82804000Y-98552000D03*
X82804000Y-96012000D03*
X85344000Y-98552000D03*
G36*
G01*
X84480400Y-95097400D02*
X86207600Y-95097400D01*
G75*
G02*
X86258600Y-95148400I0J-51000D01*
G01*
X86258600Y-96875600D01*
G75*
G02*
X86207600Y-96926600I-51000J0D01*
G01*
X84480400Y-96926600D01*
G75*
G02*
X84429400Y-96875600I0J51000D01*
G01*
X84429400Y-95148400D01*
G75*
G02*
X84480400Y-95097400I51000J0D01*
G01*
G37*
D16*
X71596000Y-101600000D03*
X69596000Y-101600000D03*
X67024000Y-101600000D03*
X65024000Y-101600000D03*
X62452000Y-101600000D03*
X60452000Y-101600000D03*
D17*
X80692000Y-67564000D03*
G36*
G01*
X74641000Y-68564000D02*
X74641000Y-66564000D01*
G75*
G02*
X74692000Y-66513000I51000J0D01*
G01*
X76692000Y-66513000D01*
G75*
G02*
X76743000Y-66564000I0J-51000D01*
G01*
X76743000Y-68564000D01*
G75*
G02*
X76692000Y-68615000I-51000J0D01*
G01*
X74692000Y-68615000D01*
G75*
G02*
X74641000Y-68564000I0J51000D01*
G01*
G37*
D18*
X81788000Y-53340000D03*
G36*
G01*
X78327000Y-54226346D02*
X78327000Y-52453654D01*
G75*
G02*
X78591654Y-52189000I264654J0D01*
G01*
X79904346Y-52189000D01*
G75*
G02*
X80169000Y-52453654I0J-264654D01*
G01*
X80169000Y-54226346D01*
G75*
G02*
X79904346Y-54491000I-264654J0D01*
G01*
X78591654Y-54491000D01*
G75*
G02*
X78327000Y-54226346I0J264654D01*
G01*
G37*
D19*
X88392000Y-56388000D03*
X88392000Y-53848000D03*
X88392000Y-51308000D03*
D10*
X81280000Y-81788000D03*
D11*
X73660000Y-81788000D03*
G36*
G01*
X75934000Y-89476000D02*
X74434000Y-89476000D01*
G75*
G02*
X74383000Y-89425000I0J51000D01*
G01*
X74383000Y-88375000D01*
G75*
G02*
X74434000Y-88324000I51000J0D01*
G01*
X75934000Y-88324000D01*
G75*
G02*
X75985000Y-88375000I0J-51000D01*
G01*
X75985000Y-89425000D01*
G75*
G02*
X75934000Y-89476000I-51000J0D01*
G01*
G37*
D20*
X75184000Y-86360000D03*
X75184000Y-87630000D03*
D21*
X87376000Y-73660000D03*
X87376000Y-76200000D03*
X87376000Y-78740000D03*
G36*
G01*
X88262346Y-82201000D02*
X86489654Y-82201000D01*
G75*
G02*
X86225000Y-81936346I0J264654D01*
G01*
X86225000Y-80623654D01*
G75*
G02*
X86489654Y-80359000I264654J0D01*
G01*
X88262346Y-80359000D01*
G75*
G02*
X88527000Y-80623654I0J-264654D01*
G01*
X88527000Y-81936346D01*
G75*
G02*
X88262346Y-82201000I-264654J0D01*
G01*
G37*
X57404000Y-87376000D03*
X57404000Y-89916000D03*
X57404000Y-92456000D03*
G36*
G01*
X58290346Y-95917000D02*
X56517654Y-95917000D01*
G75*
G02*
X56253000Y-95652346I0J264654D01*
G01*
X56253000Y-94339654D01*
G75*
G02*
X56517654Y-94075000I264654J0D01*
G01*
X58290346Y-94075000D01*
G75*
G02*
X58555000Y-94339654I0J-264654D01*
G01*
X58555000Y-95652346D01*
G75*
G02*
X58290346Y-95917000I-264654J0D01*
G01*
G37*
D22*
X80264000Y-86868000D03*
G36*
G01*
X91575000Y-85768000D02*
X91575000Y-87968000D01*
G75*
G02*
X91524000Y-88019000I-51000J0D01*
G01*
X89324000Y-88019000D01*
G75*
G02*
X89273000Y-87968000I0J51000D01*
G01*
X89273000Y-85768000D01*
G75*
G02*
X89324000Y-85717000I51000J0D01*
G01*
X91524000Y-85717000D01*
G75*
G02*
X91575000Y-85768000I0J-51000D01*
G01*
G37*
D18*
X66040000Y-53340000D03*
G36*
G01*
X62579000Y-54226346D02*
X62579000Y-52453654D01*
G75*
G02*
X62843654Y-52189000I264654J0D01*
G01*
X64156346Y-52189000D01*
G75*
G02*
X64421000Y-52453654I0J-264654D01*
G01*
X64421000Y-54226346D01*
G75*
G02*
X64156346Y-54491000I-264654J0D01*
G01*
X62843654Y-54491000D01*
G75*
G02*
X62579000Y-54226346I0J264654D01*
G01*
G37*
D19*
X72644000Y-56388000D03*
X72644000Y-53848000D03*
X72644000Y-51308000D03*
D10*
X133350000Y-100965000D03*
G36*
G01*
X141821000Y-100165000D02*
X141821000Y-101765000D01*
G75*
G02*
X141770000Y-101816000I-51000J0D01*
G01*
X140170000Y-101816000D01*
G75*
G02*
X140119000Y-101765000I0J51000D01*
G01*
X140119000Y-100165000D01*
G75*
G02*
X140170000Y-100114000I51000J0D01*
G01*
X141770000Y-100114000D01*
G75*
G02*
X141821000Y-100165000I0J-51000D01*
G01*
G37*
X133350000Y-52070000D03*
G36*
G01*
X141821000Y-51270000D02*
X141821000Y-52870000D01*
G75*
G02*
X141770000Y-52921000I-51000J0D01*
G01*
X140170000Y-52921000D01*
G75*
G02*
X140119000Y-52870000I0J51000D01*
G01*
X140119000Y-51270000D01*
G75*
G02*
X140170000Y-51219000I51000J0D01*
G01*
X141770000Y-51219000D01*
G75*
G02*
X141821000Y-51270000I0J-51000D01*
G01*
G37*
X105156000Y-51308000D03*
D11*
X105156000Y-58928000D03*
D23*
X200025000Y-100965000D03*
X200025000Y-51435000D03*
X55372000Y-100965000D03*
X55372000Y-51435000D03*
D19*
X67056000Y-81280000D03*
X67056000Y-78740000D03*
X67056000Y-76200000D03*
D10*
X67056000Y-71628000D03*
D11*
X67056000Y-64008000D03*
D15*
X60325000Y-78486000D03*
X57785000Y-78486000D03*
X60325000Y-75946000D03*
X57785000Y-75946000D03*
X60325000Y-73406000D03*
X57785000Y-73406000D03*
X60325000Y-70866000D03*
X57785000Y-70866000D03*
X60325000Y-68326000D03*
G36*
G01*
X56870400Y-69189600D02*
X56870400Y-67462400D01*
G75*
G02*
X56921400Y-67411400I51000J0D01*
G01*
X58648600Y-67411400D01*
G75*
G02*
X58699600Y-67462400I0J-51000D01*
G01*
X58699600Y-69189600D01*
G75*
G02*
X58648600Y-69240600I-51000J0D01*
G01*
X56921400Y-69240600D01*
G75*
G02*
X56870400Y-69189600I0J51000D01*
G01*
G37*
D11*
X104775000Y-72350000D03*
X104775000Y-69850000D03*
X90805000Y-69810000D03*
X90805000Y-67310000D03*
D10*
X101600000Y-52070000D03*
X93980000Y-85090000D03*
X101600000Y-54610000D03*
X93980000Y-82550000D03*
X101600000Y-57150000D03*
X93980000Y-80010000D03*
X101600000Y-59690000D03*
X93980000Y-77470000D03*
X101600000Y-62230000D03*
X93980000Y-74930000D03*
X101600000Y-64770000D03*
X93980000Y-72390000D03*
X101600000Y-67310000D03*
X93980000Y-69850000D03*
X101600000Y-69850000D03*
X93980000Y-67310000D03*
X101600000Y-72390000D03*
X93980000Y-64770000D03*
X101600000Y-74930000D03*
X93980000Y-62230000D03*
X101600000Y-77470000D03*
X93980000Y-59690000D03*
X101600000Y-80010000D03*
X93980000Y-57150000D03*
X101600000Y-82550000D03*
X93980000Y-54610000D03*
X101600000Y-85090000D03*
G36*
G01*
X93129000Y-52870000D02*
X93129000Y-51270000D01*
G75*
G02*
X93180000Y-51219000I51000J0D01*
G01*
X94780000Y-51219000D01*
G75*
G02*
X94831000Y-51270000I0J-51000D01*
G01*
X94831000Y-52870000D01*
G75*
G02*
X94780000Y-52921000I-51000J0D01*
G01*
X93180000Y-52921000D01*
G75*
G02*
X93129000Y-52870000I0J51000D01*
G01*
G37*
D24*
X99060000Y-96520000D03*
X101600000Y-96520000D03*
G36*
G01*
X105143500Y-95520000D02*
X105143500Y-97520000D01*
G75*
G02*
X105092500Y-97571000I-51000J0D01*
G01*
X103187500Y-97571000D01*
G75*
G02*
X103136500Y-97520000I0J51000D01*
G01*
X103136500Y-95520000D01*
G75*
G02*
X103187500Y-95469000I51000J0D01*
G01*
X105092500Y-95469000D01*
G75*
G02*
X105143500Y-95520000I0J-51000D01*
G01*
G37*
X119888000Y-96520000D03*
X122428000Y-96520000D03*
G36*
G01*
X125971500Y-95520000D02*
X125971500Y-97520000D01*
G75*
G02*
X125920500Y-97571000I-51000J0D01*
G01*
X124015500Y-97571000D01*
G75*
G02*
X123964500Y-97520000I0J51000D01*
G01*
X123964500Y-95520000D01*
G75*
G02*
X124015500Y-95469000I51000J0D01*
G01*
X125920500Y-95469000D01*
G75*
G02*
X125971500Y-95520000I0J-51000D01*
G01*
G37*
D11*
X99060000Y-89956000D03*
X99060000Y-92456000D03*
X119888000Y-89956000D03*
X119888000Y-92456000D03*
G36*
G01*
X162749500Y-87390500D02*
X162749500Y-85390500D01*
G75*
G02*
X162800500Y-85339500I51000J0D01*
G01*
X164800500Y-85339500D01*
G75*
G02*
X164851500Y-85390500I0J-51000D01*
G01*
X164851500Y-87390500D01*
G75*
G02*
X164800500Y-87441500I-51000J0D01*
G01*
X162800500Y-87441500D01*
G75*
G02*
X162749500Y-87390500I0J51000D01*
G01*
G37*
D17*
X163800500Y-66390500D03*
X136300500Y-81390500D03*
X136300500Y-71390500D03*
D25*
X192405000Y-73660000D03*
G36*
G01*
X193655000Y-80041000D02*
X191155000Y-80041000D01*
G75*
G02*
X191104000Y-79990000I0J51000D01*
G01*
X191104000Y-77490000D01*
G75*
G02*
X191155000Y-77439000I51000J0D01*
G01*
X193655000Y-77439000D01*
G75*
G02*
X193706000Y-77490000I0J-51000D01*
G01*
X193706000Y-79990000D01*
G75*
G02*
X193655000Y-80041000I-51000J0D01*
G01*
G37*
X192405000Y-86360000D03*
G36*
G01*
X193655000Y-92741000D02*
X191155000Y-92741000D01*
G75*
G02*
X191104000Y-92690000I0J51000D01*
G01*
X191104000Y-90190000D01*
G75*
G02*
X191155000Y-90139000I51000J0D01*
G01*
X193655000Y-90139000D01*
G75*
G02*
X193706000Y-90190000I0J-51000D01*
G01*
X193706000Y-92690000D01*
G75*
G02*
X193655000Y-92741000I-51000J0D01*
G01*
G37*
D17*
X146210000Y-99695000D03*
X149990000Y-99695000D03*
D25*
X161330000Y-99695000D03*
X166370000Y-99695000D03*
X171410000Y-99695000D03*
D17*
X146210000Y-50165000D03*
X149990000Y-50165000D03*
D25*
X161330000Y-50165000D03*
X166370000Y-50165000D03*
X171410000Y-50165000D03*
D26*
X177165000Y-95250000D03*
X177165000Y-57750000D03*
D23*
X177165000Y-76500000D03*
D25*
X192405000Y-60960000D03*
G36*
G01*
X193655000Y-67341000D02*
X191155000Y-67341000D01*
G75*
G02*
X191104000Y-67290000I0J51000D01*
G01*
X191104000Y-64790000D01*
G75*
G02*
X191155000Y-64739000I51000J0D01*
G01*
X193655000Y-64739000D01*
G75*
G02*
X193706000Y-64790000I0J-51000D01*
G01*
X193706000Y-67290000D01*
G75*
G02*
X193655000Y-67341000I-51000J0D01*
G01*
G37*
G36*
G01*
X129870000Y-67691000D02*
X126670000Y-67691000D01*
G75*
G02*
X126619000Y-67640000I0J51000D01*
G01*
X126619000Y-64440000D01*
G75*
G02*
X126670000Y-64389000I51000J0D01*
G01*
X129870000Y-64389000D01*
G75*
G02*
X129921000Y-64440000I0J-51000D01*
G01*
X129921000Y-67640000D01*
G75*
G02*
X129870000Y-67691000I-51000J0D01*
G01*
G37*
D23*
X128270000Y-71120000D03*
X128270000Y-76200000D03*
X128270000Y-81280000D03*
D14*
X115316000Y-81160000D03*
G36*
G01*
X114116000Y-72409000D02*
X116516000Y-72409000D01*
G75*
G02*
X116567000Y-72460000I0J-51000D01*
G01*
X116567000Y-74860000D01*
G75*
G02*
X116516000Y-74911000I-51000J0D01*
G01*
X114116000Y-74911000D01*
G75*
G02*
X114065000Y-74860000I0J51000D01*
G01*
X114065000Y-72460000D01*
G75*
G02*
X114116000Y-72409000I51000J0D01*
G01*
G37*
D27*
G36*
X58556165Y-95650720D02*
G01*
X58557000Y-95652346D01*
X58557000Y-95735288D01*
X58556990Y-95735484D01*
X58553024Y-95775756D01*
X58552948Y-95776141D01*
X58542990Y-95808965D01*
X58542840Y-95809327D01*
X58526672Y-95839575D01*
X58526454Y-95839901D01*
X58504694Y-95866417D01*
X58504417Y-95866694D01*
X58477901Y-95888454D01*
X58477575Y-95888672D01*
X58447327Y-95904840D01*
X58446965Y-95904990D01*
X58414141Y-95914948D01*
X58413756Y-95915024D01*
X58373484Y-95918990D01*
X58373288Y-95919000D01*
X58290346Y-95919000D01*
X58288614Y-95918000D01*
X58288614Y-95916000D01*
X58290150Y-95915010D01*
X58341582Y-95909945D01*
X58390856Y-95894997D01*
X58436264Y-95870727D01*
X58476064Y-95838064D01*
X58508727Y-95798264D01*
X58532997Y-95752856D01*
X58547945Y-95703582D01*
X58553010Y-95652150D01*
X58554175Y-95650524D01*
X58556165Y-95650720D01*
G37*
G36*
X56254990Y-95652150D02*
G01*
X56260055Y-95703582D01*
X56275003Y-95752856D01*
X56299273Y-95798264D01*
X56331936Y-95838064D01*
X56371736Y-95870727D01*
X56417144Y-95894997D01*
X56466418Y-95909945D01*
X56517850Y-95915010D01*
X56519476Y-95916175D01*
X56519280Y-95918165D01*
X56517654Y-95919000D01*
X56434712Y-95919000D01*
X56434516Y-95918990D01*
X56394244Y-95915024D01*
X56393859Y-95914948D01*
X56361035Y-95904990D01*
X56360673Y-95904840D01*
X56330425Y-95888672D01*
X56330099Y-95888454D01*
X56303583Y-95866694D01*
X56303306Y-95866417D01*
X56281546Y-95839901D01*
X56281328Y-95839575D01*
X56265160Y-95809327D01*
X56265010Y-95808965D01*
X56255052Y-95776141D01*
X56254976Y-95775756D01*
X56251010Y-95735484D01*
X56251000Y-95735288D01*
X56251000Y-95652346D01*
X56252000Y-95650614D01*
X56254000Y-95650614D01*
X56254990Y-95652150D01*
G37*
G36*
X56519386Y-94074000D02*
G01*
X56519386Y-94076000D01*
X56517850Y-94076990D01*
X56466418Y-94082055D01*
X56417144Y-94097003D01*
X56371736Y-94121273D01*
X56331936Y-94153936D01*
X56299273Y-94193736D01*
X56275003Y-94239144D01*
X56260055Y-94288418D01*
X56254990Y-94339850D01*
X56253825Y-94341476D01*
X56251835Y-94341280D01*
X56251000Y-94339654D01*
X56251000Y-94256712D01*
X56251010Y-94256516D01*
X56254976Y-94216244D01*
X56255052Y-94215859D01*
X56265010Y-94183035D01*
X56265160Y-94182673D01*
X56281328Y-94152425D01*
X56281546Y-94152099D01*
X56303306Y-94125583D01*
X56303583Y-94125306D01*
X56330099Y-94103546D01*
X56330425Y-94103328D01*
X56360673Y-94087160D01*
X56361035Y-94087010D01*
X56393859Y-94077052D01*
X56394244Y-94076976D01*
X56434516Y-94073010D01*
X56434712Y-94073000D01*
X56517654Y-94073000D01*
X56519386Y-94074000D01*
G37*
G36*
X58373484Y-94073010D02*
G01*
X58413756Y-94076976D01*
X58414141Y-94077052D01*
X58446965Y-94087010D01*
X58447327Y-94087160D01*
X58477575Y-94103328D01*
X58477901Y-94103546D01*
X58504417Y-94125306D01*
X58504694Y-94125583D01*
X58526454Y-94152099D01*
X58526672Y-94152425D01*
X58542840Y-94182673D01*
X58542990Y-94183035D01*
X58552948Y-94215859D01*
X58553024Y-94216244D01*
X58556990Y-94256516D01*
X58557000Y-94256712D01*
X58557000Y-94339654D01*
X58556000Y-94341386D01*
X58554000Y-94341386D01*
X58553010Y-94339850D01*
X58547945Y-94288418D01*
X58532997Y-94239144D01*
X58508727Y-94193736D01*
X58476064Y-94153936D01*
X58436264Y-94121273D01*
X58390856Y-94097003D01*
X58341582Y-94082055D01*
X58290150Y-94076990D01*
X58288524Y-94075825D01*
X58288720Y-94073835D01*
X58290346Y-94073000D01*
X58373288Y-94073000D01*
X58373484Y-94073010D01*
G37*
G36*
X103490165Y-92184248D02*
G01*
X103491000Y-92185874D01*
X103491000Y-92726126D01*
X103490000Y-92727858D01*
X103488000Y-92727858D01*
X103487010Y-92726322D01*
X103484628Y-92702135D01*
X103477628Y-92679060D01*
X103466263Y-92657796D01*
X103450968Y-92639159D01*
X103432331Y-92623864D01*
X103411067Y-92612499D01*
X103387992Y-92605499D01*
X103364001Y-92603136D01*
X103340010Y-92605499D01*
X103316935Y-92612499D01*
X103295671Y-92623864D01*
X103277034Y-92639159D01*
X103261739Y-92657796D01*
X103253175Y-92673820D01*
X103251476Y-92674876D01*
X103249713Y-92673933D01*
X103249563Y-92672112D01*
X103261044Y-92644393D01*
X103285865Y-92519610D01*
X103285865Y-92392390D01*
X103261044Y-92267607D01*
X103249563Y-92239888D01*
X103249824Y-92237905D01*
X103251672Y-92237140D01*
X103253175Y-92238180D01*
X103261739Y-92254204D01*
X103277035Y-92272841D01*
X103295672Y-92288136D01*
X103316935Y-92299501D01*
X103340010Y-92306501D01*
X103364001Y-92308864D01*
X103387992Y-92306501D01*
X103411067Y-92299501D01*
X103432331Y-92288136D01*
X103450968Y-92272840D01*
X103466263Y-92254203D01*
X103477628Y-92232940D01*
X103484628Y-92209865D01*
X103487010Y-92185678D01*
X103488175Y-92184052D01*
X103490165Y-92184248D01*
G37*
G36*
X124318165Y-92184248D02*
G01*
X124319000Y-92185874D01*
X124319000Y-92726126D01*
X124318000Y-92727858D01*
X124316000Y-92727858D01*
X124315010Y-92726322D01*
X124312628Y-92702135D01*
X124305628Y-92679060D01*
X124294263Y-92657796D01*
X124278968Y-92639159D01*
X124260331Y-92623864D01*
X124239067Y-92612499D01*
X124215992Y-92605499D01*
X124192001Y-92603136D01*
X124168010Y-92605499D01*
X124144935Y-92612499D01*
X124123671Y-92623864D01*
X124105034Y-92639159D01*
X124089739Y-92657796D01*
X124081175Y-92673820D01*
X124079476Y-92674876D01*
X124077713Y-92673933D01*
X124077563Y-92672112D01*
X124089044Y-92644393D01*
X124113865Y-92519610D01*
X124113865Y-92392390D01*
X124089044Y-92267607D01*
X124077563Y-92239888D01*
X124077824Y-92237905D01*
X124079672Y-92237140D01*
X124081175Y-92238180D01*
X124089739Y-92254204D01*
X124105035Y-92272841D01*
X124123672Y-92288136D01*
X124144935Y-92299501D01*
X124168010Y-92306501D01*
X124192001Y-92308864D01*
X124215992Y-92306501D01*
X124239067Y-92299501D01*
X124260331Y-92288136D01*
X124278968Y-92272840D01*
X124294263Y-92254203D01*
X124305628Y-92232940D01*
X124312628Y-92209865D01*
X124315010Y-92185678D01*
X124316175Y-92184052D01*
X124318165Y-92184248D01*
G37*
G36*
X75733674Y-88106390D02*
G01*
X75733115Y-88108130D01*
X75720269Y-88120976D01*
X75706874Y-88141024D01*
X75697647Y-88163297D01*
X75692943Y-88186948D01*
X75692943Y-88211054D01*
X75697647Y-88234704D01*
X75706874Y-88256978D01*
X75720268Y-88277025D01*
X75737315Y-88294072D01*
X75757363Y-88307467D01*
X75779636Y-88316694D01*
X75803333Y-88321407D01*
X75815438Y-88322002D01*
X75817119Y-88323086D01*
X75817021Y-88325084D01*
X75815340Y-88326000D01*
X74552660Y-88326000D01*
X74550928Y-88325000D01*
X74550928Y-88323000D01*
X74552464Y-88322010D01*
X74576651Y-88319628D01*
X74599726Y-88312628D01*
X74620990Y-88301263D01*
X74639627Y-88285968D01*
X74654922Y-88267331D01*
X74666287Y-88246067D01*
X74673287Y-88222992D01*
X74675650Y-88199001D01*
X74673287Y-88175010D01*
X74666287Y-88151935D01*
X74654922Y-88130671D01*
X74639595Y-88111995D01*
X74638123Y-88110661D01*
X74637511Y-88108757D01*
X74638854Y-88107275D01*
X74640409Y-88107415D01*
X74739343Y-88160298D01*
X74847023Y-88192962D01*
X74959094Y-88204000D01*
X75408906Y-88204000D01*
X75520977Y-88192962D01*
X75628657Y-88160298D01*
X75727892Y-88107255D01*
X75730432Y-88105170D01*
X75732406Y-88104844D01*
X75733674Y-88106390D01*
G37*
G36*
X74732067Y-86886409D02*
G01*
X74739343Y-86890298D01*
X74847023Y-86922962D01*
X74959094Y-86934000D01*
X75408906Y-86934000D01*
X75520977Y-86922962D01*
X75628657Y-86890298D01*
X75635933Y-86886409D01*
X75637932Y-86886475D01*
X75638875Y-86888238D01*
X75637987Y-86889836D01*
X75622882Y-86899929D01*
X75605835Y-86916976D01*
X75592440Y-86937024D01*
X75583214Y-86959298D01*
X75578510Y-86982948D01*
X75578510Y-87007054D01*
X75583215Y-87030704D01*
X75592441Y-87052978D01*
X75605836Y-87073025D01*
X75622883Y-87090072D01*
X75637987Y-87100164D01*
X75638872Y-87101958D01*
X75637761Y-87103621D01*
X75635933Y-87103591D01*
X75628657Y-87099702D01*
X75520977Y-87067038D01*
X75408906Y-87056000D01*
X74959094Y-87056000D01*
X74847023Y-87067038D01*
X74739343Y-87099702D01*
X74732067Y-87103591D01*
X74730068Y-87103525D01*
X74729125Y-87101762D01*
X74730013Y-87100164D01*
X74745118Y-87090071D01*
X74762165Y-87073024D01*
X74775560Y-87052976D01*
X74784786Y-87030702D01*
X74789490Y-87007052D01*
X74789490Y-86982946D01*
X74784785Y-86959296D01*
X74775559Y-86937022D01*
X74762164Y-86916975D01*
X74745117Y-86899928D01*
X74730013Y-86889836D01*
X74729128Y-86888042D01*
X74730239Y-86886379D01*
X74732067Y-86886409D01*
G37*
G36*
X88528165Y-81934720D02*
G01*
X88529000Y-81936346D01*
X88529000Y-82019288D01*
X88528990Y-82019484D01*
X88525024Y-82059756D01*
X88524948Y-82060141D01*
X88514990Y-82092965D01*
X88514840Y-82093327D01*
X88498672Y-82123575D01*
X88498454Y-82123901D01*
X88476694Y-82150417D01*
X88476417Y-82150694D01*
X88449901Y-82172454D01*
X88449575Y-82172672D01*
X88419327Y-82188840D01*
X88418965Y-82188990D01*
X88386141Y-82198948D01*
X88385756Y-82199024D01*
X88345484Y-82202990D01*
X88345288Y-82203000D01*
X88262346Y-82203000D01*
X88260614Y-82202000D01*
X88260614Y-82200000D01*
X88262150Y-82199010D01*
X88313582Y-82193945D01*
X88362856Y-82178997D01*
X88408264Y-82154727D01*
X88448064Y-82122064D01*
X88480727Y-82082264D01*
X88504997Y-82036856D01*
X88519945Y-81987582D01*
X88525010Y-81936150D01*
X88526175Y-81934524D01*
X88528165Y-81934720D01*
G37*
G36*
X86226990Y-81936150D02*
G01*
X86232055Y-81987582D01*
X86247003Y-82036856D01*
X86271273Y-82082264D01*
X86303936Y-82122064D01*
X86343736Y-82154727D01*
X86389144Y-82178997D01*
X86438418Y-82193945D01*
X86489850Y-82199010D01*
X86491476Y-82200175D01*
X86491280Y-82202165D01*
X86489654Y-82203000D01*
X86406712Y-82203000D01*
X86406516Y-82202990D01*
X86366244Y-82199024D01*
X86365859Y-82198948D01*
X86333035Y-82188990D01*
X86332673Y-82188840D01*
X86302425Y-82172672D01*
X86302099Y-82172454D01*
X86275583Y-82150694D01*
X86275306Y-82150417D01*
X86253546Y-82123901D01*
X86253328Y-82123575D01*
X86237160Y-82093327D01*
X86237010Y-82092965D01*
X86227052Y-82060141D01*
X86226976Y-82059756D01*
X86223010Y-82019484D01*
X86223000Y-82019288D01*
X86223000Y-81936346D01*
X86224000Y-81934614D01*
X86226000Y-81934614D01*
X86226990Y-81936150D01*
G37*
G36*
X86491386Y-80358000D02*
G01*
X86491386Y-80360000D01*
X86489850Y-80360990D01*
X86438418Y-80366055D01*
X86389144Y-80381003D01*
X86343736Y-80405273D01*
X86303936Y-80437936D01*
X86271273Y-80477736D01*
X86247003Y-80523144D01*
X86232055Y-80572418D01*
X86226990Y-80623850D01*
X86225825Y-80625476D01*
X86223835Y-80625280D01*
X86223000Y-80623654D01*
X86223000Y-80540712D01*
X86223010Y-80540516D01*
X86226976Y-80500244D01*
X86227052Y-80499859D01*
X86237010Y-80467035D01*
X86237160Y-80466673D01*
X86253328Y-80436425D01*
X86253546Y-80436099D01*
X86275306Y-80409583D01*
X86275583Y-80409306D01*
X86302099Y-80387546D01*
X86302425Y-80387328D01*
X86332673Y-80371160D01*
X86333035Y-80371010D01*
X86365859Y-80361052D01*
X86366244Y-80360976D01*
X86406516Y-80357010D01*
X86406712Y-80357000D01*
X86489654Y-80357000D01*
X86491386Y-80358000D01*
G37*
G36*
X88345484Y-80357010D02*
G01*
X88385756Y-80360976D01*
X88386141Y-80361052D01*
X88418965Y-80371010D01*
X88419327Y-80371160D01*
X88449575Y-80387328D01*
X88449901Y-80387546D01*
X88476417Y-80409306D01*
X88476694Y-80409583D01*
X88498454Y-80436099D01*
X88498672Y-80436425D01*
X88514840Y-80466673D01*
X88514990Y-80467035D01*
X88524948Y-80499859D01*
X88525024Y-80500244D01*
X88528990Y-80540516D01*
X88529000Y-80540712D01*
X88529000Y-80623654D01*
X88528000Y-80625386D01*
X88526000Y-80625386D01*
X88525010Y-80623850D01*
X88519945Y-80572418D01*
X88504997Y-80523144D01*
X88480727Y-80477736D01*
X88448064Y-80437936D01*
X88408264Y-80405273D01*
X88362856Y-80381003D01*
X88313582Y-80366055D01*
X88262150Y-80360990D01*
X88260524Y-80359825D01*
X88260720Y-80357835D01*
X88262346Y-80357000D01*
X88345288Y-80357000D01*
X88345484Y-80357010D01*
G37*
G36*
X64422165Y-54224720D02*
G01*
X64423000Y-54226346D01*
X64423000Y-54309288D01*
X64422990Y-54309484D01*
X64419024Y-54349756D01*
X64418948Y-54350141D01*
X64408990Y-54382965D01*
X64408840Y-54383327D01*
X64392672Y-54413575D01*
X64392454Y-54413901D01*
X64370694Y-54440417D01*
X64370417Y-54440694D01*
X64343901Y-54462454D01*
X64343575Y-54462672D01*
X64313327Y-54478840D01*
X64312965Y-54478990D01*
X64280141Y-54488948D01*
X64279756Y-54489024D01*
X64239484Y-54492990D01*
X64239288Y-54493000D01*
X64156346Y-54493000D01*
X64154614Y-54492000D01*
X64154614Y-54490000D01*
X64156150Y-54489010D01*
X64207582Y-54483945D01*
X64256856Y-54468997D01*
X64302264Y-54444727D01*
X64342064Y-54412064D01*
X64374727Y-54372264D01*
X64398997Y-54326856D01*
X64413945Y-54277582D01*
X64419010Y-54226150D01*
X64420175Y-54224524D01*
X64422165Y-54224720D01*
G37*
G36*
X62580990Y-54226150D02*
G01*
X62586055Y-54277582D01*
X62601003Y-54326856D01*
X62625273Y-54372264D01*
X62657936Y-54412064D01*
X62697736Y-54444727D01*
X62743144Y-54468997D01*
X62792418Y-54483945D01*
X62843850Y-54489010D01*
X62845476Y-54490175D01*
X62845280Y-54492165D01*
X62843654Y-54493000D01*
X62760712Y-54493000D01*
X62760516Y-54492990D01*
X62720244Y-54489024D01*
X62719859Y-54488948D01*
X62687035Y-54478990D01*
X62686673Y-54478840D01*
X62656425Y-54462672D01*
X62656099Y-54462454D01*
X62629583Y-54440694D01*
X62629306Y-54440417D01*
X62607546Y-54413901D01*
X62607328Y-54413575D01*
X62591160Y-54383327D01*
X62591010Y-54382965D01*
X62581052Y-54350141D01*
X62580976Y-54349756D01*
X62577010Y-54309484D01*
X62577000Y-54309288D01*
X62577000Y-54226346D01*
X62578000Y-54224614D01*
X62580000Y-54224614D01*
X62580990Y-54226150D01*
G37*
G36*
X80170165Y-54224720D02*
G01*
X80171000Y-54226346D01*
X80171000Y-54309288D01*
X80170990Y-54309484D01*
X80167024Y-54349756D01*
X80166948Y-54350141D01*
X80156990Y-54382965D01*
X80156840Y-54383327D01*
X80140672Y-54413575D01*
X80140454Y-54413901D01*
X80118694Y-54440417D01*
X80118417Y-54440694D01*
X80091901Y-54462454D01*
X80091575Y-54462672D01*
X80061327Y-54478840D01*
X80060965Y-54478990D01*
X80028141Y-54488948D01*
X80027756Y-54489024D01*
X79987484Y-54492990D01*
X79987288Y-54493000D01*
X79904346Y-54493000D01*
X79902614Y-54492000D01*
X79902614Y-54490000D01*
X79904150Y-54489010D01*
X79955582Y-54483945D01*
X80004856Y-54468997D01*
X80050264Y-54444727D01*
X80090064Y-54412064D01*
X80122727Y-54372264D01*
X80146997Y-54326856D01*
X80161945Y-54277582D01*
X80167010Y-54226150D01*
X80168175Y-54224524D01*
X80170165Y-54224720D01*
G37*
G36*
X78328990Y-54226150D02*
G01*
X78334055Y-54277582D01*
X78349003Y-54326856D01*
X78373273Y-54372264D01*
X78405936Y-54412064D01*
X78445736Y-54444727D01*
X78491144Y-54468997D01*
X78540418Y-54483945D01*
X78591850Y-54489010D01*
X78593476Y-54490175D01*
X78593280Y-54492165D01*
X78591654Y-54493000D01*
X78508712Y-54493000D01*
X78508516Y-54492990D01*
X78468244Y-54489024D01*
X78467859Y-54488948D01*
X78435035Y-54478990D01*
X78434673Y-54478840D01*
X78404425Y-54462672D01*
X78404099Y-54462454D01*
X78377583Y-54440694D01*
X78377306Y-54440417D01*
X78355546Y-54413901D01*
X78355328Y-54413575D01*
X78339160Y-54383327D01*
X78339010Y-54382965D01*
X78329052Y-54350141D01*
X78328976Y-54349756D01*
X78325010Y-54309484D01*
X78325000Y-54309288D01*
X78325000Y-54226346D01*
X78326000Y-54224614D01*
X78328000Y-54224614D01*
X78328990Y-54226150D01*
G37*
G36*
X62845386Y-52188000D02*
G01*
X62845386Y-52190000D01*
X62843850Y-52190990D01*
X62792418Y-52196055D01*
X62743144Y-52211003D01*
X62697736Y-52235273D01*
X62657936Y-52267936D01*
X62625273Y-52307736D01*
X62601003Y-52353144D01*
X62586055Y-52402418D01*
X62580990Y-52453850D01*
X62579825Y-52455476D01*
X62577835Y-52455280D01*
X62577000Y-52453654D01*
X62577000Y-52370712D01*
X62577010Y-52370516D01*
X62580976Y-52330244D01*
X62581052Y-52329859D01*
X62591010Y-52297035D01*
X62591160Y-52296673D01*
X62607328Y-52266425D01*
X62607546Y-52266099D01*
X62629306Y-52239583D01*
X62629583Y-52239306D01*
X62656099Y-52217546D01*
X62656425Y-52217328D01*
X62686673Y-52201160D01*
X62687035Y-52201010D01*
X62719859Y-52191052D01*
X62720244Y-52190976D01*
X62760516Y-52187010D01*
X62760712Y-52187000D01*
X62843654Y-52187000D01*
X62845386Y-52188000D01*
G37*
G36*
X78593386Y-52188000D02*
G01*
X78593386Y-52190000D01*
X78591850Y-52190990D01*
X78540418Y-52196055D01*
X78491144Y-52211003D01*
X78445736Y-52235273D01*
X78405936Y-52267936D01*
X78373273Y-52307736D01*
X78349003Y-52353144D01*
X78334055Y-52402418D01*
X78328990Y-52453850D01*
X78327825Y-52455476D01*
X78325835Y-52455280D01*
X78325000Y-52453654D01*
X78325000Y-52370712D01*
X78325010Y-52370516D01*
X78328976Y-52330244D01*
X78329052Y-52329859D01*
X78339010Y-52297035D01*
X78339160Y-52296673D01*
X78355328Y-52266425D01*
X78355546Y-52266099D01*
X78377306Y-52239583D01*
X78377583Y-52239306D01*
X78404099Y-52217546D01*
X78404425Y-52217328D01*
X78434673Y-52201160D01*
X78435035Y-52201010D01*
X78467859Y-52191052D01*
X78468244Y-52190976D01*
X78508516Y-52187010D01*
X78508712Y-52187000D01*
X78591654Y-52187000D01*
X78593386Y-52188000D01*
G37*
G36*
X64239484Y-52187010D02*
G01*
X64279756Y-52190976D01*
X64280141Y-52191052D01*
X64312965Y-52201010D01*
X64313327Y-52201160D01*
X64343575Y-52217328D01*
X64343901Y-52217546D01*
X64370417Y-52239306D01*
X64370694Y-52239583D01*
X64392454Y-52266099D01*
X64392672Y-52266425D01*
X64408840Y-52296673D01*
X64408990Y-52297035D01*
X64418948Y-52329859D01*
X64419024Y-52330244D01*
X64422990Y-52370516D01*
X64423000Y-52370712D01*
X64423000Y-52453654D01*
X64422000Y-52455386D01*
X64420000Y-52455386D01*
X64419010Y-52453850D01*
X64413945Y-52402418D01*
X64398997Y-52353144D01*
X64374727Y-52307736D01*
X64342064Y-52267936D01*
X64302264Y-52235273D01*
X64256856Y-52211003D01*
X64207582Y-52196055D01*
X64156150Y-52190990D01*
X64154524Y-52189825D01*
X64154720Y-52187835D01*
X64156346Y-52187000D01*
X64239288Y-52187000D01*
X64239484Y-52187010D01*
G37*
G36*
X79987484Y-52187010D02*
G01*
X80027756Y-52190976D01*
X80028141Y-52191052D01*
X80060965Y-52201010D01*
X80061327Y-52201160D01*
X80091575Y-52217328D01*
X80091901Y-52217546D01*
X80118417Y-52239306D01*
X80118694Y-52239583D01*
X80140454Y-52266099D01*
X80140672Y-52266425D01*
X80156840Y-52296673D01*
X80156990Y-52297035D01*
X80166948Y-52329859D01*
X80167024Y-52330244D01*
X80170990Y-52370516D01*
X80171000Y-52370712D01*
X80171000Y-52453654D01*
X80170000Y-52455386D01*
X80168000Y-52455386D01*
X80167010Y-52453850D01*
X80161945Y-52402418D01*
X80146997Y-52353144D01*
X80122727Y-52307736D01*
X80090064Y-52267936D01*
X80050264Y-52235273D01*
X80004856Y-52211003D01*
X79955582Y-52196055D01*
X79904150Y-52190990D01*
X79902524Y-52189825D01*
X79902720Y-52187835D01*
X79904346Y-52187000D01*
X79987288Y-52187000D01*
X79987484Y-52187010D01*
G37*
M02*
