G04 #@! TF.GenerationSoftware,KiCad,Pcbnew,5.1.7-a382d34a8~87~ubuntu20.04.1*
G04 #@! TF.CreationDate,2020-10-22T20:00:58+02:00*
G04 #@! TF.ProjectId,reflow_ofen_steuerung,7265666c-6f77-45f6-9f66-656e5f737465,rev?*
G04 #@! TF.SameCoordinates,Original*
G04 #@! TF.FileFunction,Copper,L1,Top*
G04 #@! TF.FilePolarity,Positive*
%FSLAX46Y46*%
G04 Gerber Fmt 4.6, Leading zero omitted, Abs format (unit mm)*
G04 Created by KiCad (PCBNEW 5.1.7-a382d34a8~87~ubuntu20.04.1) date 2020-10-22 20:00:58*
%MOMM*%
%LPD*%
G01*
G04 APERTURE LIST*
G04 #@! TA.AperFunction,ComponentPad*
%ADD10O,1.600000X1.600000*%
G04 #@! TD*
G04 #@! TA.AperFunction,ComponentPad*
%ADD11C,1.600000*%
G04 #@! TD*
G04 #@! TA.AperFunction,ComponentPad*
%ADD12C,1.200000*%
G04 #@! TD*
G04 #@! TA.AperFunction,ComponentPad*
%ADD13R,1.200000X1.200000*%
G04 #@! TD*
G04 #@! TA.AperFunction,ComponentPad*
%ADD14C,1.800000*%
G04 #@! TD*
G04 #@! TA.AperFunction,ComponentPad*
%ADD15R,1.800000X1.800000*%
G04 #@! TD*
G04 #@! TA.AperFunction,ComponentPad*
%ADD16C,2.400000*%
G04 #@! TD*
G04 #@! TA.AperFunction,ComponentPad*
%ADD17R,2.400000X2.400000*%
G04 #@! TD*
G04 #@! TA.AperFunction,ComponentPad*
%ADD18O,1.727200X1.727200*%
G04 #@! TD*
G04 #@! TA.AperFunction,ComponentPad*
%ADD19R,1.727200X1.727200*%
G04 #@! TD*
G04 #@! TA.AperFunction,ComponentPad*
%ADD20C,1.400000*%
G04 #@! TD*
G04 #@! TA.AperFunction,ComponentPad*
%ADD21C,2.000000*%
G04 #@! TD*
G04 #@! TA.AperFunction,ComponentPad*
%ADD22R,2.000000X2.000000*%
G04 #@! TD*
G04 #@! TA.AperFunction,ComponentPad*
%ADD23O,1.740000X2.200000*%
G04 #@! TD*
G04 #@! TA.AperFunction,ComponentPad*
%ADD24C,1.440000*%
G04 #@! TD*
G04 #@! TA.AperFunction,ComponentPad*
%ADD25R,1.500000X1.050000*%
G04 #@! TD*
G04 #@! TA.AperFunction,ComponentPad*
%ADD26O,1.500000X1.050000*%
G04 #@! TD*
G04 #@! TA.AperFunction,ComponentPad*
%ADD27O,2.200000X1.740000*%
G04 #@! TD*
G04 #@! TA.AperFunction,ComponentPad*
%ADD28O,2.200000X2.200000*%
G04 #@! TD*
G04 #@! TA.AperFunction,ComponentPad*
%ADD29R,2.200000X2.200000*%
G04 #@! TD*
G04 #@! TA.AperFunction,ComponentPad*
%ADD30R,1.600000X1.600000*%
G04 #@! TD*
G04 #@! TA.AperFunction,ComponentPad*
%ADD31O,1.905000X2.000000*%
G04 #@! TD*
G04 #@! TA.AperFunction,ComponentPad*
%ADD32R,1.905000X2.000000*%
G04 #@! TD*
G04 #@! TA.AperFunction,ComponentPad*
%ADD33C,2.500000*%
G04 #@! TD*
G04 #@! TA.AperFunction,ComponentPad*
%ADD34R,2.500000X2.500000*%
G04 #@! TD*
G04 #@! TA.AperFunction,ComponentPad*
%ADD35O,6.000000X3.250000*%
G04 #@! TD*
G04 #@! TA.AperFunction,ComponentPad*
%ADD36R,3.200000X3.200000*%
G04 #@! TD*
G04 #@! TA.AperFunction,ComponentPad*
%ADD37C,3.200000*%
G04 #@! TD*
G04 #@! TA.AperFunction,ViaPad*
%ADD38C,0.800000*%
G04 #@! TD*
G04 #@! TA.AperFunction,Conductor*
%ADD39C,3.000000*%
G04 #@! TD*
G04 #@! TA.AperFunction,Conductor*
%ADD40C,0.250000*%
G04 #@! TD*
G04 #@! TA.AperFunction,Conductor*
%ADD41C,0.254000*%
G04 #@! TD*
G04 #@! TA.AperFunction,Conductor*
%ADD42C,0.100000*%
G04 #@! TD*
G04 APERTURE END LIST*
D10*
X81280000Y-76200000D03*
D11*
X73660000Y-76200000D03*
D12*
X102640000Y-92456000D03*
D13*
X104140000Y-92456000D03*
D12*
X123468000Y-92456000D03*
D13*
X124968000Y-92456000D03*
D14*
X63500000Y-94488000D03*
D15*
X66040000Y-94488000D03*
D10*
X70104000Y-89408000D03*
D11*
X70104000Y-97028000D03*
D16*
X116840000Y-61856000D03*
D17*
X116840000Y-54356000D03*
D18*
X80264000Y-98552000D03*
X80264000Y-96012000D03*
X82804000Y-98552000D03*
X82804000Y-96012000D03*
X85344000Y-98552000D03*
D19*
X85344000Y-96012000D03*
D20*
X71596000Y-101600000D03*
X69596000Y-101600000D03*
X67024000Y-101600000D03*
X65024000Y-101600000D03*
X62452000Y-101600000D03*
X60452000Y-101600000D03*
D21*
X80692000Y-67564000D03*
D22*
X75692000Y-67564000D03*
D23*
X81788000Y-53340000D03*
G04 #@! TA.AperFunction,ComponentPad*
G36*
G01*
X78378000Y-54190001D02*
X78378000Y-52489999D01*
G75*
G02*
X78627999Y-52240000I249999J0D01*
G01*
X79868001Y-52240000D01*
G75*
G02*
X80118000Y-52489999I0J-249999D01*
G01*
X80118000Y-54190001D01*
G75*
G02*
X79868001Y-54440000I-249999J0D01*
G01*
X78627999Y-54440000D01*
G75*
G02*
X78378000Y-54190001I0J249999D01*
G01*
G37*
G04 #@! TD.AperFunction*
D24*
X88392000Y-56388000D03*
X88392000Y-53848000D03*
X88392000Y-51308000D03*
D10*
X81280000Y-81788000D03*
D11*
X73660000Y-81788000D03*
D25*
X75184000Y-88900000D03*
D26*
X75184000Y-86360000D03*
X75184000Y-87630000D03*
D27*
X87376000Y-73660000D03*
X87376000Y-76200000D03*
X87376000Y-78740000D03*
G04 #@! TA.AperFunction,ComponentPad*
G36*
G01*
X88226001Y-82150000D02*
X86525999Y-82150000D01*
G75*
G02*
X86276000Y-81900001I0J249999D01*
G01*
X86276000Y-80659999D01*
G75*
G02*
X86525999Y-80410000I249999J0D01*
G01*
X88226001Y-80410000D01*
G75*
G02*
X88476000Y-80659999I0J-249999D01*
G01*
X88476000Y-81900001D01*
G75*
G02*
X88226001Y-82150000I-249999J0D01*
G01*
G37*
G04 #@! TD.AperFunction*
X57404000Y-87376000D03*
X57404000Y-89916000D03*
X57404000Y-92456000D03*
G04 #@! TA.AperFunction,ComponentPad*
G36*
G01*
X58254001Y-95866000D02*
X56553999Y-95866000D01*
G75*
G02*
X56304000Y-95616001I0J249999D01*
G01*
X56304000Y-94375999D01*
G75*
G02*
X56553999Y-94126000I249999J0D01*
G01*
X58254001Y-94126000D01*
G75*
G02*
X58504000Y-94375999I0J-249999D01*
G01*
X58504000Y-95616001D01*
G75*
G02*
X58254001Y-95866000I-249999J0D01*
G01*
G37*
G04 #@! TD.AperFunction*
D28*
X80264000Y-86868000D03*
D29*
X90424000Y-86868000D03*
D23*
X66040000Y-53340000D03*
G04 #@! TA.AperFunction,ComponentPad*
G36*
G01*
X62630000Y-54190001D02*
X62630000Y-52489999D01*
G75*
G02*
X62879999Y-52240000I249999J0D01*
G01*
X64120001Y-52240000D01*
G75*
G02*
X64370000Y-52489999I0J-249999D01*
G01*
X64370000Y-54190001D01*
G75*
G02*
X64120001Y-54440000I-249999J0D01*
G01*
X62879999Y-54440000D01*
G75*
G02*
X62630000Y-54190001I0J249999D01*
G01*
G37*
G04 #@! TD.AperFunction*
D24*
X72644000Y-56388000D03*
X72644000Y-53848000D03*
X72644000Y-51308000D03*
D10*
X133350000Y-100965000D03*
D30*
X140970000Y-100965000D03*
D10*
X133350000Y-52070000D03*
D30*
X140970000Y-52070000D03*
D10*
X105156000Y-51308000D03*
D11*
X105156000Y-58928000D03*
D24*
X67056000Y-81280000D03*
X67056000Y-78740000D03*
X67056000Y-76200000D03*
D10*
X67056000Y-71628000D03*
D11*
X67056000Y-64008000D03*
D18*
X60325000Y-78486000D03*
X57785000Y-78486000D03*
X60325000Y-75946000D03*
X57785000Y-75946000D03*
X60325000Y-73406000D03*
X57785000Y-73406000D03*
X60325000Y-70866000D03*
X57785000Y-70866000D03*
X60325000Y-68326000D03*
D19*
X57785000Y-68326000D03*
D11*
X104775000Y-72350000D03*
X104775000Y-69850000D03*
X90805000Y-69810000D03*
X90805000Y-67310000D03*
D10*
X101600000Y-52070000D03*
X93980000Y-85090000D03*
X101600000Y-54610000D03*
X93980000Y-82550000D03*
X101600000Y-57150000D03*
X93980000Y-80010000D03*
X101600000Y-59690000D03*
X93980000Y-77470000D03*
X101600000Y-62230000D03*
X93980000Y-74930000D03*
X101600000Y-64770000D03*
X93980000Y-72390000D03*
X101600000Y-67310000D03*
X93980000Y-69850000D03*
X101600000Y-69850000D03*
X93980000Y-67310000D03*
X101600000Y-72390000D03*
X93980000Y-64770000D03*
X101600000Y-74930000D03*
X93980000Y-62230000D03*
X101600000Y-77470000D03*
X93980000Y-59690000D03*
X101600000Y-80010000D03*
X93980000Y-57150000D03*
X101600000Y-82550000D03*
X93980000Y-54610000D03*
X101600000Y-85090000D03*
D30*
X93980000Y-52070000D03*
D31*
X99060000Y-96520000D03*
X101600000Y-96520000D03*
D32*
X104140000Y-96520000D03*
D31*
X119888000Y-96520000D03*
X122428000Y-96520000D03*
D32*
X124968000Y-96520000D03*
D11*
X99060000Y-89956000D03*
X99060000Y-92456000D03*
X119888000Y-89956000D03*
X119888000Y-92456000D03*
D22*
X163800500Y-86390500D03*
D21*
X163800500Y-66390500D03*
X136300500Y-81390500D03*
X136300500Y-71390500D03*
D33*
X192405000Y-73660000D03*
D34*
X192405000Y-78740000D03*
D33*
X192405000Y-86360000D03*
D34*
X192405000Y-91440000D03*
D21*
X146210000Y-99695000D03*
X149990000Y-99695000D03*
D33*
X161330000Y-99695000D03*
X166370000Y-99695000D03*
X171410000Y-99695000D03*
D21*
X146210000Y-50165000D03*
X149990000Y-50165000D03*
D33*
X161330000Y-50165000D03*
X166370000Y-50165000D03*
X171410000Y-50165000D03*
D35*
X177165000Y-95250000D03*
X177165000Y-57750000D03*
D33*
X192405000Y-60960000D03*
D34*
X192405000Y-66040000D03*
D36*
X128270000Y-66040000D03*
D37*
X128270000Y-71120000D03*
X128270000Y-76200000D03*
X128270000Y-81280000D03*
D16*
X115316000Y-81160000D03*
D17*
X115316000Y-73660000D03*
D38*
X95795000Y-71543264D03*
X97028000Y-74168000D03*
X73664653Y-99563347D03*
X96520000Y-68580000D03*
X96520000Y-73152000D03*
X94996000Y-87884000D03*
X99568000Y-82804000D03*
X97526694Y-82794694D03*
X98547347Y-82799347D03*
X71628000Y-77724000D03*
X65024000Y-77216000D03*
X86360000Y-58928000D03*
X103632000Y-56388000D03*
X97245000Y-55372000D03*
X90932000Y-58928000D03*
X97245000Y-60960000D03*
X90932000Y-62992000D03*
X70612000Y-62992000D03*
X62987347Y-62479347D03*
X92964000Y-86143000D03*
X86360000Y-83312000D03*
X91948000Y-83820000D03*
D39*
X163800500Y-86390500D02*
X174655500Y-86390500D01*
X177165000Y-88900000D02*
X177165000Y-95250000D01*
X174655500Y-86390500D02*
X177165000Y-88900000D01*
D40*
X97366736Y-71543264D02*
X101600000Y-67310000D01*
X95795000Y-71543264D02*
X97366736Y-71543264D01*
D39*
X189195000Y-57750000D02*
X192405000Y-60960000D01*
X177165000Y-57750000D02*
X189195000Y-57750000D01*
X192054500Y-66390500D02*
X192405000Y-66040000D01*
X163800500Y-66390500D02*
X192054500Y-66390500D01*
D40*
X133350000Y-96672998D02*
X133350000Y-100965000D01*
X110445003Y-73768001D02*
X133350000Y-96672998D01*
X97427999Y-73768001D02*
X110445003Y-73768001D01*
X97028000Y-74168000D02*
X97427999Y-73768001D01*
X69060653Y-99563347D02*
X67024000Y-101600000D01*
X73664653Y-99563347D02*
X69060653Y-99563347D01*
X100800001Y-71590001D02*
X101600000Y-72390000D01*
X100800001Y-70649999D02*
X100800001Y-71590001D01*
X101600000Y-69850000D02*
X100800001Y-70649999D01*
X96520000Y-53560000D02*
X96520000Y-68580000D01*
X95030000Y-52070000D02*
X96520000Y-53560000D01*
X93980000Y-52070000D02*
X95030000Y-52070000D01*
X95286999Y-87593001D02*
X94996000Y-87884000D01*
X95286999Y-74385001D02*
X95286999Y-87593001D01*
X96520000Y-73152000D02*
X95286999Y-74385001D01*
X83992601Y-99740601D02*
X82804000Y-98552000D01*
X85914529Y-99740601D02*
X83992601Y-99740601D01*
X97934999Y-84437001D02*
X97934999Y-87720131D01*
X97934999Y-87720131D02*
X85914529Y-99740601D01*
X99568000Y-82804000D02*
X97934999Y-84437001D01*
X97526694Y-82794694D02*
X96963795Y-83357593D01*
X83992601Y-94823399D02*
X82804000Y-96012000D01*
X96963795Y-86989207D02*
X89129603Y-94823399D01*
X89129603Y-94823399D02*
X83992601Y-94823399D01*
X96963795Y-83357593D02*
X96963795Y-86989207D01*
X98547347Y-82799347D02*
X97484989Y-83861705D01*
X97484989Y-83861705D02*
X97484989Y-87427011D01*
X88900000Y-96012000D02*
X85344000Y-96012000D01*
X97484989Y-87427011D02*
X88900000Y-96012000D01*
X85827981Y-94373389D02*
X75298611Y-94373389D01*
X93980000Y-86221370D02*
X85827981Y-94373389D01*
X93980000Y-85090000D02*
X93980000Y-86221370D01*
X66657001Y-95105001D02*
X66040000Y-94488000D01*
X74566999Y-95105001D02*
X66657001Y-95105001D01*
X75298611Y-94373389D02*
X74566999Y-95105001D01*
X56596399Y-75375471D02*
X56596399Y-77297399D01*
X57214471Y-74757399D02*
X56596399Y-75375471D01*
X62261599Y-74757399D02*
X57214471Y-74757399D01*
X66256001Y-70762997D02*
X62261599Y-74757399D01*
X56921401Y-77622401D02*
X57785000Y-78486000D01*
X66256001Y-64807999D02*
X66256001Y-70762997D01*
X56596399Y-77297399D02*
X56921401Y-77622401D01*
X67056000Y-64008000D02*
X66256001Y-64807999D01*
X61546314Y-75946000D02*
X60325000Y-75946000D01*
X64403002Y-75946000D02*
X61546314Y-75946000D01*
X75579002Y-64770000D02*
X64403002Y-75946000D01*
X93980000Y-64770000D02*
X75579002Y-64770000D01*
X65132001Y-77324001D02*
X65024000Y-77216000D01*
X71228001Y-77324001D02*
X65132001Y-77324001D01*
X71628000Y-77724000D02*
X71228001Y-77324001D01*
X61188599Y-72542401D02*
X60325000Y-73406000D01*
X63892020Y-69838980D02*
X61188599Y-72542401D01*
X63892020Y-65506978D02*
X63892020Y-69838980D01*
X67168998Y-62230000D02*
X63892020Y-65506978D01*
X93980000Y-62230000D02*
X67168998Y-62230000D01*
X93980000Y-59690000D02*
X92202000Y-61468000D01*
X92202000Y-61468000D02*
X66548000Y-61468000D01*
X58648599Y-72542401D02*
X57785000Y-73406000D01*
X58973601Y-72217399D02*
X58648599Y-72542401D01*
X63442010Y-69508120D02*
X60732731Y-72217399D01*
X60732731Y-72217399D02*
X58973601Y-72217399D01*
X63442010Y-64573990D02*
X63442010Y-69508120D01*
X66548000Y-61468000D02*
X63442010Y-64573990D01*
X93980000Y-57150000D02*
X90678000Y-60452000D01*
X90678000Y-60452000D02*
X66040000Y-60452000D01*
X66040000Y-60452000D02*
X62992000Y-63500000D01*
X62992000Y-68199000D02*
X60325000Y-70866000D01*
X62992000Y-63500000D02*
X62992000Y-68199000D01*
X89662000Y-58928000D02*
X86360000Y-58928000D01*
X93980000Y-54610000D02*
X89662000Y-58928000D01*
X103632000Y-62738000D02*
X101600000Y-64770000D01*
X103632000Y-56388000D02*
X103632000Y-62738000D01*
X98007000Y-54610000D02*
X97245000Y-55372000D01*
X101600000Y-54610000D02*
X98007000Y-54610000D01*
X90206999Y-59653001D02*
X55154999Y-59653001D01*
X90932000Y-58928000D02*
X90206999Y-59653001D01*
X55154999Y-59653001D02*
X53340000Y-61468000D01*
X56054000Y-87376000D02*
X57404000Y-87376000D01*
X53340000Y-84662000D02*
X56054000Y-87376000D01*
X53340000Y-61468000D02*
X53340000Y-84662000D01*
X97790000Y-60960000D02*
X97245000Y-60960000D01*
X101600000Y-57150000D02*
X97790000Y-60960000D01*
X90932000Y-62992000D02*
X70612000Y-62992000D01*
X58754000Y-89916000D02*
X57404000Y-89916000D01*
X58928000Y-89742000D02*
X58754000Y-89916000D01*
X58928000Y-86980001D02*
X58928000Y-89742000D01*
X53848000Y-81900001D02*
X58928000Y-86980001D01*
X53848000Y-63500000D02*
X53848000Y-81900001D01*
X54868653Y-62479347D02*
X53848000Y-63500000D01*
X62987347Y-62479347D02*
X54868653Y-62479347D01*
X58754000Y-92456000D02*
X57404000Y-92456000D01*
X60809002Y-92456000D02*
X58754000Y-92456000D01*
X82000003Y-71264999D02*
X60809002Y-92456000D01*
X94908003Y-71264999D02*
X82000003Y-71264999D01*
X97245001Y-68928001D02*
X94908003Y-71264999D01*
X97245001Y-64044999D02*
X97245001Y-68928001D01*
X101600000Y-59690000D02*
X97245001Y-64044999D01*
X92673001Y-85852001D02*
X92964000Y-86143000D01*
X92673001Y-77607001D02*
X92673001Y-85852001D01*
X88726000Y-73660000D02*
X92673001Y-77607001D01*
X87376000Y-73660000D02*
X88726000Y-73660000D01*
X86868000Y-83820000D02*
X91948000Y-83820000D01*
X86360000Y-83312000D02*
X86868000Y-83820000D01*
X100474999Y-50944999D02*
X92819001Y-50944999D01*
X101600000Y-52070000D02*
X100474999Y-50944999D01*
X92819001Y-50944999D02*
X92456000Y-51308000D01*
X93209997Y-53484999D02*
X95140999Y-53484999D01*
X92456000Y-52731002D02*
X93209997Y-53484999D01*
X92456000Y-51308000D02*
X92456000Y-52731002D01*
X95140999Y-53484999D02*
X95504000Y-53848000D01*
X95504000Y-67451002D02*
X94270003Y-68684999D01*
X95504000Y-53848000D02*
X95504000Y-67451002D01*
X81812999Y-68684999D02*
X82654999Y-68684999D01*
X80692000Y-67564000D02*
X81812999Y-68684999D01*
X82654999Y-68684999D02*
X82619001Y-68684999D01*
X94270003Y-68684999D02*
X82654999Y-68684999D01*
X73660000Y-76200000D02*
X73660000Y-71882000D01*
X75692000Y-69850000D02*
X75692000Y-67564000D01*
X73660000Y-71882000D02*
X75692000Y-69850000D01*
D41*
X144940013Y-49122748D02*
X144761082Y-49390537D01*
X144637832Y-49688088D01*
X144575000Y-50003967D01*
X144575000Y-50326033D01*
X144637832Y-50641912D01*
X144761082Y-50939463D01*
X144940013Y-51207252D01*
X145167748Y-51434987D01*
X145435537Y-51613918D01*
X145733088Y-51737168D01*
X146048967Y-51800000D01*
X146371033Y-51800000D01*
X146686912Y-51737168D01*
X146984463Y-51613918D01*
X147252252Y-51434987D01*
X147479987Y-51207252D01*
X147658918Y-50939463D01*
X147782168Y-50641912D01*
X147845000Y-50326033D01*
X147845000Y-50003967D01*
X147782168Y-49688088D01*
X147658918Y-49390537D01*
X147479987Y-49122748D01*
X147277239Y-48920000D01*
X148922761Y-48920000D01*
X148720013Y-49122748D01*
X148541082Y-49390537D01*
X148417832Y-49688088D01*
X148355000Y-50003967D01*
X148355000Y-50326033D01*
X148417832Y-50641912D01*
X148541082Y-50939463D01*
X148720013Y-51207252D01*
X148947748Y-51434987D01*
X149215537Y-51613918D01*
X149513088Y-51737168D01*
X149828967Y-51800000D01*
X150151033Y-51800000D01*
X150466912Y-51737168D01*
X150764463Y-51613918D01*
X151032252Y-51434987D01*
X151259987Y-51207252D01*
X151438918Y-50939463D01*
X151562168Y-50641912D01*
X151625000Y-50326033D01*
X151625000Y-50003967D01*
X151562168Y-49688088D01*
X151438918Y-49390537D01*
X151259987Y-49122748D01*
X151057239Y-48920000D01*
X155448000Y-48920000D01*
X155448000Y-62103000D01*
X149860000Y-62103000D01*
X149835224Y-62105440D01*
X149811399Y-62112667D01*
X149789443Y-62124403D01*
X149770197Y-62140197D01*
X149754403Y-62159443D01*
X149742667Y-62181399D01*
X149735440Y-62205224D01*
X149733000Y-62230000D01*
X149733000Y-90805000D01*
X149735440Y-90829776D01*
X149742667Y-90853601D01*
X149754403Y-90875557D01*
X149770197Y-90894803D01*
X149789443Y-90910597D01*
X149811399Y-90922333D01*
X149835224Y-90929560D01*
X149860000Y-90932000D01*
X155448000Y-90932000D01*
X155448000Y-103480000D01*
X52984000Y-103480000D01*
X52984000Y-100744872D01*
X53137000Y-100744872D01*
X53137000Y-101185128D01*
X53222890Y-101616925D01*
X53391369Y-102023669D01*
X53635962Y-102389729D01*
X53947271Y-102701038D01*
X54313331Y-102945631D01*
X54720075Y-103114110D01*
X55151872Y-103200000D01*
X55592128Y-103200000D01*
X56023925Y-103114110D01*
X56430669Y-102945631D01*
X56796729Y-102701038D01*
X57108038Y-102389729D01*
X57352631Y-102023669D01*
X57521110Y-101616925D01*
X57550630Y-101468514D01*
X59117000Y-101468514D01*
X59117000Y-101731486D01*
X59168304Y-101989405D01*
X59268939Y-102232359D01*
X59415038Y-102451013D01*
X59600987Y-102636962D01*
X59819641Y-102783061D01*
X60062595Y-102883696D01*
X60320514Y-102935000D01*
X60583486Y-102935000D01*
X60841405Y-102883696D01*
X61084359Y-102783061D01*
X61303013Y-102636962D01*
X61452000Y-102487975D01*
X61600987Y-102636962D01*
X61819641Y-102783061D01*
X62062595Y-102883696D01*
X62320514Y-102935000D01*
X62583486Y-102935000D01*
X62841405Y-102883696D01*
X63084359Y-102783061D01*
X63303013Y-102636962D01*
X63488962Y-102451013D01*
X63635061Y-102232359D01*
X63735696Y-101989405D01*
X63738000Y-101977822D01*
X63740304Y-101989405D01*
X63840939Y-102232359D01*
X63987038Y-102451013D01*
X64172987Y-102636962D01*
X64391641Y-102783061D01*
X64634595Y-102883696D01*
X64892514Y-102935000D01*
X65155486Y-102935000D01*
X65413405Y-102883696D01*
X65656359Y-102783061D01*
X65875013Y-102636962D01*
X66024000Y-102487975D01*
X66172987Y-102636962D01*
X66391641Y-102783061D01*
X66634595Y-102883696D01*
X66892514Y-102935000D01*
X67155486Y-102935000D01*
X67413405Y-102883696D01*
X67656359Y-102783061D01*
X67875013Y-102636962D01*
X67990706Y-102521269D01*
X68854336Y-102521269D01*
X68913797Y-102755037D01*
X69152242Y-102865934D01*
X69407740Y-102928183D01*
X69670473Y-102939390D01*
X69930344Y-102899125D01*
X70177366Y-102808935D01*
X70278203Y-102755037D01*
X70337664Y-102521269D01*
X70854336Y-102521269D01*
X70913797Y-102755037D01*
X71152242Y-102865934D01*
X71407740Y-102928183D01*
X71670473Y-102939390D01*
X71930344Y-102899125D01*
X72177366Y-102808935D01*
X72278203Y-102755037D01*
X72337664Y-102521269D01*
X71596000Y-101779605D01*
X70854336Y-102521269D01*
X70337664Y-102521269D01*
X69596000Y-101779605D01*
X68854336Y-102521269D01*
X67990706Y-102521269D01*
X68060962Y-102451013D01*
X68207061Y-102232359D01*
X68307696Y-101989405D01*
X68310970Y-101972948D01*
X68387065Y-102181366D01*
X68440963Y-102282203D01*
X68674731Y-102341664D01*
X69416395Y-101600000D01*
X69775605Y-101600000D01*
X70421621Y-102246016D01*
X70440963Y-102282203D01*
X70463554Y-102287949D01*
X70517269Y-102341664D01*
X70596000Y-102321638D01*
X70674731Y-102341664D01*
X70728446Y-102287949D01*
X70751037Y-102282203D01*
X70765683Y-102250712D01*
X71416395Y-101600000D01*
X71775605Y-101600000D01*
X72517269Y-102341664D01*
X72751037Y-102282203D01*
X72861934Y-102043758D01*
X72924183Y-101788260D01*
X72935390Y-101525527D01*
X72895125Y-101265656D01*
X72804935Y-101018634D01*
X72751037Y-100917797D01*
X72517269Y-100858336D01*
X71775605Y-101600000D01*
X71416395Y-101600000D01*
X70770379Y-100953984D01*
X70751037Y-100917797D01*
X70728446Y-100912051D01*
X70674731Y-100858336D01*
X70596000Y-100878362D01*
X70517269Y-100858336D01*
X70463554Y-100912051D01*
X70440963Y-100917797D01*
X70426317Y-100949288D01*
X69775605Y-101600000D01*
X69416395Y-101600000D01*
X69402253Y-101585858D01*
X69581858Y-101406253D01*
X69596000Y-101420395D01*
X70337664Y-100678731D01*
X70278203Y-100444963D01*
X70039758Y-100334066D01*
X69995762Y-100323347D01*
X71200107Y-100323347D01*
X71014634Y-100391065D01*
X70913797Y-100444963D01*
X70854336Y-100678731D01*
X71596000Y-101420395D01*
X72337664Y-100678731D01*
X72278203Y-100444963D01*
X72039758Y-100334066D01*
X71995762Y-100323347D01*
X72960942Y-100323347D01*
X73004879Y-100367284D01*
X73174397Y-100480552D01*
X73362755Y-100558573D01*
X73562714Y-100598347D01*
X73766592Y-100598347D01*
X73966551Y-100558573D01*
X74154909Y-100480552D01*
X74324427Y-100367284D01*
X74468590Y-100223121D01*
X74581858Y-100053603D01*
X74659879Y-99865245D01*
X74699653Y-99665286D01*
X74699653Y-99461408D01*
X74659879Y-99261449D01*
X74581858Y-99073091D01*
X74473571Y-98911027D01*
X78809037Y-98911027D01*
X78907036Y-99187978D01*
X79057183Y-99440488D01*
X79253707Y-99658854D01*
X79489056Y-99834684D01*
X79754186Y-99961222D01*
X79904974Y-100006958D01*
X80137000Y-99885817D01*
X80137000Y-98679000D01*
X78929536Y-98679000D01*
X78809037Y-98911027D01*
X74473571Y-98911027D01*
X74468590Y-98903573D01*
X74324427Y-98759410D01*
X74154909Y-98646142D01*
X73966551Y-98568121D01*
X73766592Y-98528347D01*
X73562714Y-98528347D01*
X73362755Y-98568121D01*
X73174397Y-98646142D01*
X73004879Y-98759410D01*
X72960942Y-98803347D01*
X69097975Y-98803347D01*
X69060652Y-98799671D01*
X69023329Y-98803347D01*
X69023320Y-98803347D01*
X68911667Y-98814344D01*
X68768406Y-98857801D01*
X68636377Y-98928373D01*
X68520652Y-99023346D01*
X68496854Y-99052344D01*
X67262844Y-100286355D01*
X67155486Y-100265000D01*
X66892514Y-100265000D01*
X66634595Y-100316304D01*
X66391641Y-100416939D01*
X66172987Y-100563038D01*
X66024000Y-100712025D01*
X65875013Y-100563038D01*
X65656359Y-100416939D01*
X65413405Y-100316304D01*
X65155486Y-100265000D01*
X64892514Y-100265000D01*
X64634595Y-100316304D01*
X64391641Y-100416939D01*
X64172987Y-100563038D01*
X63987038Y-100748987D01*
X63840939Y-100967641D01*
X63740304Y-101210595D01*
X63738000Y-101222178D01*
X63735696Y-101210595D01*
X63635061Y-100967641D01*
X63488962Y-100748987D01*
X63303013Y-100563038D01*
X63084359Y-100416939D01*
X62841405Y-100316304D01*
X62583486Y-100265000D01*
X62320514Y-100265000D01*
X62062595Y-100316304D01*
X61819641Y-100416939D01*
X61600987Y-100563038D01*
X61452000Y-100712025D01*
X61303013Y-100563038D01*
X61084359Y-100416939D01*
X60841405Y-100316304D01*
X60583486Y-100265000D01*
X60320514Y-100265000D01*
X60062595Y-100316304D01*
X59819641Y-100416939D01*
X59600987Y-100563038D01*
X59415038Y-100748987D01*
X59268939Y-100967641D01*
X59168304Y-101210595D01*
X59117000Y-101468514D01*
X57550630Y-101468514D01*
X57607000Y-101185128D01*
X57607000Y-100744872D01*
X57521110Y-100313075D01*
X57352631Y-99906331D01*
X57108038Y-99540271D01*
X56796729Y-99228962D01*
X56430669Y-98984369D01*
X56023925Y-98815890D01*
X55592128Y-98730000D01*
X55151872Y-98730000D01*
X54720075Y-98815890D01*
X54313331Y-98984369D01*
X53947271Y-99228962D01*
X53635962Y-99540271D01*
X53391369Y-99906331D01*
X53222890Y-100313075D01*
X53137000Y-100744872D01*
X52984000Y-100744872D01*
X52984000Y-95866000D01*
X55665928Y-95866000D01*
X55678188Y-95990482D01*
X55714498Y-96110180D01*
X55773463Y-96220494D01*
X55852815Y-96317185D01*
X55949506Y-96396537D01*
X56059820Y-96455502D01*
X56179518Y-96491812D01*
X56304000Y-96504072D01*
X57118250Y-96501000D01*
X57277000Y-96342250D01*
X57277000Y-95123000D01*
X57531000Y-95123000D01*
X57531000Y-96342250D01*
X57689750Y-96501000D01*
X58504000Y-96504072D01*
X58628482Y-96491812D01*
X58748180Y-96455502D01*
X58858494Y-96396537D01*
X58955185Y-96317185D01*
X59034537Y-96220494D01*
X59093502Y-96110180D01*
X59129812Y-95990482D01*
X59142072Y-95866000D01*
X59139000Y-95281750D01*
X58980250Y-95123000D01*
X57531000Y-95123000D01*
X57277000Y-95123000D01*
X55827750Y-95123000D01*
X55669000Y-95281750D01*
X55665928Y-95866000D01*
X52984000Y-95866000D01*
X52984000Y-85380801D01*
X55490201Y-87887003D01*
X55513999Y-87916001D01*
X55542997Y-87939799D01*
X55629724Y-88010974D01*
X55761753Y-88081546D01*
X55860657Y-88111548D01*
X55916583Y-88216179D01*
X56104655Y-88445345D01*
X56333821Y-88633417D01*
X56357362Y-88646000D01*
X56333821Y-88658583D01*
X56104655Y-88846655D01*
X55916583Y-89075821D01*
X55776834Y-89337275D01*
X55690776Y-89620968D01*
X55661718Y-89916000D01*
X55690776Y-90211032D01*
X55776834Y-90494725D01*
X55916583Y-90756179D01*
X56104655Y-90985345D01*
X56333821Y-91173417D01*
X56357362Y-91186000D01*
X56333821Y-91198583D01*
X56104655Y-91386655D01*
X55916583Y-91615821D01*
X55776834Y-91877275D01*
X55690776Y-92160968D01*
X55661718Y-92456000D01*
X55690776Y-92751032D01*
X55776834Y-93034725D01*
X55916583Y-93296179D01*
X56103047Y-93523385D01*
X56059820Y-93536498D01*
X55949506Y-93595463D01*
X55852815Y-93674815D01*
X55773463Y-93771506D01*
X55714498Y-93881820D01*
X55678188Y-94001518D01*
X55665928Y-94126000D01*
X55669000Y-94710250D01*
X55827750Y-94869000D01*
X57277000Y-94869000D01*
X57277000Y-94849000D01*
X57531000Y-94849000D01*
X57531000Y-94869000D01*
X58980250Y-94869000D01*
X59139000Y-94710250D01*
X59142072Y-94126000D01*
X59129812Y-94001518D01*
X59093502Y-93881820D01*
X59034537Y-93771506D01*
X58955185Y-93674815D01*
X58858494Y-93595463D01*
X58748180Y-93536498D01*
X58704953Y-93523385D01*
X58891417Y-93296179D01*
X58934273Y-93216000D01*
X60771680Y-93216000D01*
X60809002Y-93219676D01*
X60846324Y-93216000D01*
X60846335Y-93216000D01*
X60957988Y-93205003D01*
X61101249Y-93161546D01*
X61233278Y-93090974D01*
X61349003Y-92996001D01*
X61372806Y-92966997D01*
X65073138Y-89266665D01*
X68669000Y-89266665D01*
X68669000Y-89549335D01*
X68724147Y-89826574D01*
X68832320Y-90087727D01*
X68989363Y-90322759D01*
X69189241Y-90522637D01*
X69424273Y-90679680D01*
X69685426Y-90787853D01*
X69962665Y-90843000D01*
X70245335Y-90843000D01*
X70522574Y-90787853D01*
X70783727Y-90679680D01*
X71018759Y-90522637D01*
X71218637Y-90322759D01*
X71375680Y-90087727D01*
X71483853Y-89826574D01*
X71539000Y-89549335D01*
X71539000Y-89266665D01*
X71483853Y-88989426D01*
X71375680Y-88728273D01*
X71218637Y-88493241D01*
X71018759Y-88293363D01*
X70783727Y-88136320D01*
X70522574Y-88028147D01*
X70245335Y-87973000D01*
X69962665Y-87973000D01*
X69685426Y-88028147D01*
X69424273Y-88136320D01*
X69189241Y-88293363D01*
X68989363Y-88493241D01*
X68832320Y-88728273D01*
X68724147Y-88989426D01*
X68669000Y-89266665D01*
X65073138Y-89266665D01*
X66709803Y-87630000D01*
X73793388Y-87630000D01*
X73815785Y-87857400D01*
X73879093Y-88066098D01*
X73844498Y-88130820D01*
X73808188Y-88250518D01*
X73795928Y-88375000D01*
X73795928Y-89425000D01*
X73808188Y-89549482D01*
X73844498Y-89669180D01*
X73903463Y-89779494D01*
X73982815Y-89876185D01*
X74079506Y-89955537D01*
X74189820Y-90014502D01*
X74309518Y-90050812D01*
X74434000Y-90063072D01*
X75934000Y-90063072D01*
X76058482Y-90050812D01*
X76178180Y-90014502D01*
X76288494Y-89955537D01*
X76385185Y-89876185D01*
X76464537Y-89779494D01*
X76523502Y-89669180D01*
X76559812Y-89549482D01*
X76572072Y-89425000D01*
X76572072Y-88375000D01*
X76559812Y-88250518D01*
X76523502Y-88130820D01*
X76488907Y-88066098D01*
X76552215Y-87857400D01*
X76574612Y-87630000D01*
X76552215Y-87402600D01*
X76485885Y-87183940D01*
X76385071Y-86995331D01*
X76426275Y-86936882D01*
X76519272Y-86727337D01*
X76523541Y-86697117D01*
X78529000Y-86697117D01*
X78529000Y-87038883D01*
X78595675Y-87374081D01*
X78726463Y-87689831D01*
X78916337Y-87973998D01*
X79158002Y-88215663D01*
X79442169Y-88405537D01*
X79757919Y-88536325D01*
X80093117Y-88603000D01*
X80434883Y-88603000D01*
X80770081Y-88536325D01*
X81085831Y-88405537D01*
X81369998Y-88215663D01*
X81611663Y-87973998D01*
X81801537Y-87689831D01*
X81932325Y-87374081D01*
X81999000Y-87038883D01*
X81999000Y-86697117D01*
X81932325Y-86361919D01*
X81801537Y-86046169D01*
X81611663Y-85762002D01*
X81369998Y-85520337D01*
X81085831Y-85330463D01*
X80770081Y-85199675D01*
X80434883Y-85133000D01*
X80093117Y-85133000D01*
X79757919Y-85199675D01*
X79442169Y-85330463D01*
X79158002Y-85520337D01*
X78916337Y-85762002D01*
X78726463Y-86046169D01*
X78595675Y-86361919D01*
X78529000Y-86697117D01*
X76523541Y-86697117D01*
X76527964Y-86665810D01*
X76402163Y-86487000D01*
X75637109Y-86487000D01*
X75636400Y-86486785D01*
X75465979Y-86470000D01*
X74902021Y-86470000D01*
X74731600Y-86486785D01*
X74730891Y-86487000D01*
X73965837Y-86487000D01*
X73840036Y-86665810D01*
X73848728Y-86727337D01*
X73941725Y-86936882D01*
X73982929Y-86995331D01*
X73882115Y-87183940D01*
X73815785Y-87402600D01*
X73793388Y-87630000D01*
X66709803Y-87630000D01*
X68285613Y-86054190D01*
X73840036Y-86054190D01*
X73965837Y-86233000D01*
X75057000Y-86233000D01*
X75057000Y-85353402D01*
X75311000Y-85353402D01*
X75311000Y-86233000D01*
X76402163Y-86233000D01*
X76527964Y-86054190D01*
X76519272Y-85992663D01*
X76426275Y-85783118D01*
X76294184Y-85595742D01*
X76128076Y-85437736D01*
X75934334Y-85315172D01*
X75720404Y-85232761D01*
X75494507Y-85193669D01*
X75311000Y-85353402D01*
X75057000Y-85353402D01*
X74873493Y-85193669D01*
X74647596Y-85232761D01*
X74433666Y-85315172D01*
X74239924Y-85437736D01*
X74073816Y-85595742D01*
X73941725Y-85783118D01*
X73848728Y-85992663D01*
X73840036Y-86054190D01*
X68285613Y-86054190D01*
X72255772Y-82084032D01*
X72280147Y-82206574D01*
X72388320Y-82467727D01*
X72545363Y-82702759D01*
X72745241Y-82902637D01*
X72980273Y-83059680D01*
X73241426Y-83167853D01*
X73518665Y-83223000D01*
X73801335Y-83223000D01*
X74078574Y-83167853D01*
X74339727Y-83059680D01*
X74574759Y-82902637D01*
X74774637Y-82702759D01*
X74931680Y-82467727D01*
X75039853Y-82206574D01*
X75095000Y-81929335D01*
X75095000Y-81646665D01*
X79845000Y-81646665D01*
X79845000Y-81929335D01*
X79900147Y-82206574D01*
X80008320Y-82467727D01*
X80165363Y-82702759D01*
X80365241Y-82902637D01*
X80600273Y-83059680D01*
X80861426Y-83167853D01*
X81138665Y-83223000D01*
X81421335Y-83223000D01*
X81698574Y-83167853D01*
X81959727Y-83059680D01*
X82194759Y-82902637D01*
X82394637Y-82702759D01*
X82551680Y-82467727D01*
X82659853Y-82206574D01*
X82715000Y-81929335D01*
X82715000Y-81646665D01*
X82659853Y-81369426D01*
X82551680Y-81108273D01*
X82394637Y-80873241D01*
X82194759Y-80673363D01*
X81959727Y-80516320D01*
X81698574Y-80408147D01*
X81421335Y-80353000D01*
X81138665Y-80353000D01*
X80861426Y-80408147D01*
X80600273Y-80516320D01*
X80365241Y-80673363D01*
X80165363Y-80873241D01*
X80008320Y-81108273D01*
X79900147Y-81369426D01*
X79845000Y-81646665D01*
X75095000Y-81646665D01*
X75039853Y-81369426D01*
X74931680Y-81108273D01*
X74774637Y-80873241D01*
X74574759Y-80673363D01*
X74339727Y-80516320D01*
X74078574Y-80408147D01*
X73956032Y-80383772D01*
X78281139Y-76058665D01*
X79845000Y-76058665D01*
X79845000Y-76341335D01*
X79900147Y-76618574D01*
X80008320Y-76879727D01*
X80165363Y-77114759D01*
X80365241Y-77314637D01*
X80600273Y-77471680D01*
X80861426Y-77579853D01*
X81138665Y-77635000D01*
X81421335Y-77635000D01*
X81698574Y-77579853D01*
X81959727Y-77471680D01*
X82194759Y-77314637D01*
X82394637Y-77114759D01*
X82551680Y-76879727D01*
X82659853Y-76618574D01*
X82715000Y-76341335D01*
X82715000Y-76058665D01*
X82659853Y-75781426D01*
X82551680Y-75520273D01*
X82394637Y-75285241D01*
X82194759Y-75085363D01*
X81959727Y-74928320D01*
X81698574Y-74820147D01*
X81421335Y-74765000D01*
X81138665Y-74765000D01*
X80861426Y-74820147D01*
X80600273Y-74928320D01*
X80365241Y-75085363D01*
X80165363Y-75285241D01*
X80008320Y-75520273D01*
X79900147Y-75781426D01*
X79845000Y-76058665D01*
X78281139Y-76058665D01*
X82314805Y-72024999D01*
X92589491Y-72024999D01*
X92545000Y-72248665D01*
X92545000Y-72531335D01*
X92600147Y-72808574D01*
X92708320Y-73069727D01*
X92865363Y-73304759D01*
X93065241Y-73504637D01*
X93297759Y-73660000D01*
X93065241Y-73815363D01*
X92865363Y-74015241D01*
X92708320Y-74250273D01*
X92600147Y-74511426D01*
X92545000Y-74788665D01*
X92545000Y-75071335D01*
X92600147Y-75348574D01*
X92708320Y-75609727D01*
X92865363Y-75844759D01*
X93065241Y-76044637D01*
X93297759Y-76200000D01*
X93065241Y-76355363D01*
X92865363Y-76555241D01*
X92797543Y-76656741D01*
X89289804Y-73149003D01*
X89266001Y-73119999D01*
X89150276Y-73025026D01*
X89018247Y-72954454D01*
X88919343Y-72924452D01*
X88863417Y-72819821D01*
X88675345Y-72590655D01*
X88446179Y-72402583D01*
X88184725Y-72262834D01*
X87901032Y-72176776D01*
X87679936Y-72155000D01*
X87072064Y-72155000D01*
X86850968Y-72176776D01*
X86567275Y-72262834D01*
X86305821Y-72402583D01*
X86076655Y-72590655D01*
X85888583Y-72819821D01*
X85748834Y-73081275D01*
X85662776Y-73364968D01*
X85633718Y-73660000D01*
X85662776Y-73955032D01*
X85748834Y-74238725D01*
X85888583Y-74500179D01*
X86076655Y-74729345D01*
X86305821Y-74917417D01*
X86329362Y-74930000D01*
X86305821Y-74942583D01*
X86076655Y-75130655D01*
X85888583Y-75359821D01*
X85748834Y-75621275D01*
X85662776Y-75904968D01*
X85633718Y-76200000D01*
X85662776Y-76495032D01*
X85748834Y-76778725D01*
X85888583Y-77040179D01*
X86076655Y-77269345D01*
X86305821Y-77457417D01*
X86329362Y-77470000D01*
X86305821Y-77482583D01*
X86076655Y-77670655D01*
X85888583Y-77899821D01*
X85748834Y-78161275D01*
X85662776Y-78444968D01*
X85633718Y-78740000D01*
X85662776Y-79035032D01*
X85748834Y-79318725D01*
X85888583Y-79580179D01*
X86076655Y-79809345D01*
X86142114Y-79863066D01*
X86032613Y-79921595D01*
X85898038Y-80032038D01*
X85787595Y-80166613D01*
X85705528Y-80320149D01*
X85654992Y-80486745D01*
X85637928Y-80659999D01*
X85637928Y-81900001D01*
X85654992Y-82073255D01*
X85705528Y-82239851D01*
X85787595Y-82393387D01*
X85817435Y-82429747D01*
X85700226Y-82508063D01*
X85556063Y-82652226D01*
X85442795Y-82821744D01*
X85364774Y-83010102D01*
X85325000Y-83210061D01*
X85325000Y-83413939D01*
X85364774Y-83613898D01*
X85442795Y-83802256D01*
X85556063Y-83971774D01*
X85700226Y-84115937D01*
X85869744Y-84229205D01*
X86058102Y-84307226D01*
X86258061Y-84347000D01*
X86317329Y-84347000D01*
X86327999Y-84360001D01*
X86443724Y-84454974D01*
X86575753Y-84525546D01*
X86719014Y-84569003D01*
X86830667Y-84580000D01*
X86830676Y-84580000D01*
X86867999Y-84583676D01*
X86905322Y-84580000D01*
X91244289Y-84580000D01*
X91288226Y-84623937D01*
X91457744Y-84737205D01*
X91646102Y-84815226D01*
X91846061Y-84855000D01*
X91913002Y-84855000D01*
X91913002Y-85265783D01*
X91878494Y-85237463D01*
X91768180Y-85178498D01*
X91648482Y-85142188D01*
X91524000Y-85129928D01*
X89324000Y-85129928D01*
X89199518Y-85142188D01*
X89079820Y-85178498D01*
X88969506Y-85237463D01*
X88872815Y-85316815D01*
X88793463Y-85413506D01*
X88734498Y-85523820D01*
X88698188Y-85643518D01*
X88685928Y-85768000D01*
X88685928Y-87968000D01*
X88698188Y-88092482D01*
X88734498Y-88212180D01*
X88793463Y-88322494D01*
X88872815Y-88419185D01*
X88969506Y-88498537D01*
X89079820Y-88557502D01*
X89199518Y-88593812D01*
X89324000Y-88606072D01*
X90520496Y-88606072D01*
X85513180Y-93613389D01*
X75335944Y-93613389D01*
X75298611Y-93609712D01*
X75261278Y-93613389D01*
X75149625Y-93624386D01*
X75006364Y-93667843D01*
X74874335Y-93738415D01*
X74758610Y-93833388D01*
X74734812Y-93862387D01*
X74252198Y-94345001D01*
X67578072Y-94345001D01*
X67578072Y-93588000D01*
X67565812Y-93463518D01*
X67529502Y-93343820D01*
X67470537Y-93233506D01*
X67391185Y-93136815D01*
X67294494Y-93057463D01*
X67184180Y-92998498D01*
X67064482Y-92962188D01*
X66940000Y-92949928D01*
X65140000Y-92949928D01*
X65015518Y-92962188D01*
X64895820Y-92998498D01*
X64785506Y-93057463D01*
X64688815Y-93136815D01*
X64609463Y-93233506D01*
X64550498Y-93343820D01*
X64544944Y-93362127D01*
X64478505Y-93295688D01*
X64227095Y-93127701D01*
X63947743Y-93011989D01*
X63651184Y-92953000D01*
X63348816Y-92953000D01*
X63052257Y-93011989D01*
X62772905Y-93127701D01*
X62521495Y-93295688D01*
X62307688Y-93509495D01*
X62139701Y-93760905D01*
X62023989Y-94040257D01*
X61965000Y-94336816D01*
X61965000Y-94639184D01*
X62023989Y-94935743D01*
X62139701Y-95215095D01*
X62307688Y-95466505D01*
X62521495Y-95680312D01*
X62772905Y-95848299D01*
X63052257Y-95964011D01*
X63348816Y-96023000D01*
X63651184Y-96023000D01*
X63947743Y-95964011D01*
X64227095Y-95848299D01*
X64478505Y-95680312D01*
X64544944Y-95613873D01*
X64550498Y-95632180D01*
X64609463Y-95742494D01*
X64688815Y-95839185D01*
X64785506Y-95918537D01*
X64895820Y-95977502D01*
X65015518Y-96013812D01*
X65140000Y-96026072D01*
X66940000Y-96026072D01*
X67064482Y-96013812D01*
X67184180Y-95977502D01*
X67294494Y-95918537D01*
X67359728Y-95865001D01*
X69261620Y-95865001D01*
X69189241Y-95913363D01*
X68989363Y-96113241D01*
X68832320Y-96348273D01*
X68724147Y-96609426D01*
X68669000Y-96886665D01*
X68669000Y-97169335D01*
X68724147Y-97446574D01*
X68832320Y-97707727D01*
X68989363Y-97942759D01*
X69189241Y-98142637D01*
X69424273Y-98299680D01*
X69685426Y-98407853D01*
X69962665Y-98463000D01*
X70245335Y-98463000D01*
X70522574Y-98407853D01*
X70783727Y-98299680D01*
X71018759Y-98142637D01*
X71218637Y-97942759D01*
X71375680Y-97707727D01*
X71483853Y-97446574D01*
X71539000Y-97169335D01*
X71539000Y-96886665D01*
X71483853Y-96609426D01*
X71375680Y-96348273D01*
X71218637Y-96113241D01*
X71018759Y-95913363D01*
X70946380Y-95865001D01*
X74529677Y-95865001D01*
X74566999Y-95868677D01*
X74604321Y-95865001D01*
X74604332Y-95865001D01*
X74715985Y-95854004D01*
X74859246Y-95810547D01*
X74991275Y-95739975D01*
X75107000Y-95645002D01*
X75130802Y-95615999D01*
X75613413Y-95133389D01*
X79048718Y-95133389D01*
X78935958Y-95302147D01*
X78822990Y-95574875D01*
X78765400Y-95864401D01*
X78765400Y-96159599D01*
X78822990Y-96449125D01*
X78935958Y-96721853D01*
X79099961Y-96967302D01*
X79308698Y-97176039D01*
X79469813Y-97283692D01*
X79253707Y-97445146D01*
X79057183Y-97663512D01*
X78907036Y-97916022D01*
X78809037Y-98192973D01*
X78929536Y-98425000D01*
X80137000Y-98425000D01*
X80137000Y-98405000D01*
X80391000Y-98405000D01*
X80391000Y-98425000D01*
X80411000Y-98425000D01*
X80411000Y-98679000D01*
X80391000Y-98679000D01*
X80391000Y-99885817D01*
X80623026Y-100006958D01*
X80773814Y-99961222D01*
X81038944Y-99834684D01*
X81274293Y-99658854D01*
X81470817Y-99440488D01*
X81529441Y-99341897D01*
X81639961Y-99507302D01*
X81848698Y-99716039D01*
X82094147Y-99880042D01*
X82366875Y-99993010D01*
X82656401Y-100050600D01*
X82951599Y-100050600D01*
X83181974Y-100004776D01*
X83428802Y-100251604D01*
X83452600Y-100280602D01*
X83568325Y-100375575D01*
X83700354Y-100446147D01*
X83843615Y-100489604D01*
X83955268Y-100500601D01*
X83955276Y-100500601D01*
X83992601Y-100504277D01*
X84029926Y-100500601D01*
X85877207Y-100500601D01*
X85914529Y-100504277D01*
X85951851Y-100500601D01*
X85951862Y-100500601D01*
X86063515Y-100489604D01*
X86206776Y-100446147D01*
X86338805Y-100375575D01*
X86454530Y-100280602D01*
X86478333Y-100251598D01*
X90335417Y-96394514D01*
X97472500Y-96394514D01*
X97472500Y-96645485D01*
X97495470Y-96878703D01*
X97586245Y-97177948D01*
X97733655Y-97453734D01*
X97932037Y-97695463D01*
X98173765Y-97893845D01*
X98449551Y-98041255D01*
X98748796Y-98132030D01*
X99060000Y-98162681D01*
X99371203Y-98132030D01*
X99670448Y-98041255D01*
X99946234Y-97893845D01*
X100187963Y-97695463D01*
X100335163Y-97516101D01*
X100490563Y-97701315D01*
X100733077Y-97895969D01*
X101008906Y-98039571D01*
X101227020Y-98110563D01*
X101473000Y-97990594D01*
X101473000Y-96647000D01*
X101453000Y-96647000D01*
X101453000Y-96393000D01*
X101473000Y-96393000D01*
X101473000Y-95049406D01*
X101727000Y-95049406D01*
X101727000Y-96393000D01*
X101747000Y-96393000D01*
X101747000Y-96647000D01*
X101727000Y-96647000D01*
X101727000Y-97990594D01*
X101972980Y-98110563D01*
X102191094Y-98039571D01*
X102466923Y-97895969D01*
X102607941Y-97782781D01*
X102656963Y-97874494D01*
X102736315Y-97971185D01*
X102833006Y-98050537D01*
X102943320Y-98109502D01*
X103063018Y-98145812D01*
X103187500Y-98158072D01*
X105092500Y-98158072D01*
X105216982Y-98145812D01*
X105336680Y-98109502D01*
X105446994Y-98050537D01*
X105543685Y-97971185D01*
X105623037Y-97874494D01*
X105682002Y-97764180D01*
X105718312Y-97644482D01*
X105730572Y-97520000D01*
X105730572Y-96394514D01*
X118300500Y-96394514D01*
X118300500Y-96645485D01*
X118323470Y-96878703D01*
X118414245Y-97177948D01*
X118561655Y-97453734D01*
X118760037Y-97695463D01*
X119001765Y-97893845D01*
X119277551Y-98041255D01*
X119576796Y-98132030D01*
X119888000Y-98162681D01*
X120199203Y-98132030D01*
X120498448Y-98041255D01*
X120774234Y-97893845D01*
X121015963Y-97695463D01*
X121163163Y-97516101D01*
X121318563Y-97701315D01*
X121561077Y-97895969D01*
X121836906Y-98039571D01*
X122055020Y-98110563D01*
X122301000Y-97990594D01*
X122301000Y-96647000D01*
X122281000Y-96647000D01*
X122281000Y-96393000D01*
X122301000Y-96393000D01*
X122301000Y-95049406D01*
X122555000Y-95049406D01*
X122555000Y-96393000D01*
X122575000Y-96393000D01*
X122575000Y-96647000D01*
X122555000Y-96647000D01*
X122555000Y-97990594D01*
X122800980Y-98110563D01*
X123019094Y-98039571D01*
X123294923Y-97895969D01*
X123435941Y-97782781D01*
X123484963Y-97874494D01*
X123564315Y-97971185D01*
X123661006Y-98050537D01*
X123771320Y-98109502D01*
X123891018Y-98145812D01*
X124015500Y-98158072D01*
X125920500Y-98158072D01*
X126044982Y-98145812D01*
X126164680Y-98109502D01*
X126274994Y-98050537D01*
X126371685Y-97971185D01*
X126451037Y-97874494D01*
X126510002Y-97764180D01*
X126546312Y-97644482D01*
X126558572Y-97520000D01*
X126558572Y-95520000D01*
X126546312Y-95395518D01*
X126510002Y-95275820D01*
X126451037Y-95165506D01*
X126371685Y-95068815D01*
X126274994Y-94989463D01*
X126164680Y-94930498D01*
X126044982Y-94894188D01*
X125920500Y-94881928D01*
X124015500Y-94881928D01*
X123891018Y-94894188D01*
X123771320Y-94930498D01*
X123661006Y-94989463D01*
X123564315Y-95068815D01*
X123484963Y-95165506D01*
X123435941Y-95257219D01*
X123294923Y-95144031D01*
X123019094Y-95000429D01*
X122800980Y-94929437D01*
X122555000Y-95049406D01*
X122301000Y-95049406D01*
X122055020Y-94929437D01*
X121836906Y-95000429D01*
X121561077Y-95144031D01*
X121318563Y-95338685D01*
X121163162Y-95523900D01*
X121015963Y-95344537D01*
X120774235Y-95146155D01*
X120498449Y-94998745D01*
X120199204Y-94907970D01*
X119888000Y-94877319D01*
X119576797Y-94907970D01*
X119277552Y-94998745D01*
X119001766Y-95146155D01*
X118760037Y-95344537D01*
X118561655Y-95586265D01*
X118414245Y-95862051D01*
X118323470Y-96161296D01*
X118300500Y-96394514D01*
X105730572Y-96394514D01*
X105730572Y-95520000D01*
X105718312Y-95395518D01*
X105682002Y-95275820D01*
X105623037Y-95165506D01*
X105543685Y-95068815D01*
X105446994Y-94989463D01*
X105336680Y-94930498D01*
X105216982Y-94894188D01*
X105092500Y-94881928D01*
X103187500Y-94881928D01*
X103063018Y-94894188D01*
X102943320Y-94930498D01*
X102833006Y-94989463D01*
X102736315Y-95068815D01*
X102656963Y-95165506D01*
X102607941Y-95257219D01*
X102466923Y-95144031D01*
X102191094Y-95000429D01*
X101972980Y-94929437D01*
X101727000Y-95049406D01*
X101473000Y-95049406D01*
X101227020Y-94929437D01*
X101008906Y-95000429D01*
X100733077Y-95144031D01*
X100490563Y-95338685D01*
X100335162Y-95523900D01*
X100187963Y-95344537D01*
X99946235Y-95146155D01*
X99670449Y-94998745D01*
X99371204Y-94907970D01*
X99060000Y-94877319D01*
X98748797Y-94907970D01*
X98449552Y-94998745D01*
X98173766Y-95146155D01*
X97932037Y-95344537D01*
X97733655Y-95586265D01*
X97586245Y-95862051D01*
X97495470Y-96161296D01*
X97472500Y-96394514D01*
X90335417Y-96394514D01*
X94415266Y-92314665D01*
X97625000Y-92314665D01*
X97625000Y-92597335D01*
X97680147Y-92874574D01*
X97788320Y-93135727D01*
X97945363Y-93370759D01*
X98145241Y-93570637D01*
X98380273Y-93727680D01*
X98641426Y-93835853D01*
X98918665Y-93891000D01*
X99201335Y-93891000D01*
X99478574Y-93835853D01*
X99739727Y-93727680D01*
X99974759Y-93570637D01*
X100174637Y-93370759D01*
X100331680Y-93135727D01*
X100439853Y-92874574D01*
X100495000Y-92597335D01*
X100495000Y-92534438D01*
X101401505Y-92534438D01*
X101440605Y-92774549D01*
X101525798Y-93002418D01*
X101566652Y-93078852D01*
X101790236Y-93126159D01*
X102460395Y-92456000D01*
X101790236Y-91785841D01*
X101566652Y-91833148D01*
X101465763Y-92054516D01*
X101410000Y-92291313D01*
X101401505Y-92534438D01*
X100495000Y-92534438D01*
X100495000Y-92314665D01*
X100439853Y-92037426D01*
X100331680Y-91776273D01*
X100218066Y-91606236D01*
X101969841Y-91606236D01*
X102640000Y-92276395D01*
X102654143Y-92262253D01*
X102833748Y-92441858D01*
X102819605Y-92456000D01*
X102833748Y-92470143D01*
X102654143Y-92649748D01*
X102640000Y-92635605D01*
X101969841Y-93305764D01*
X102017148Y-93529348D01*
X102238516Y-93630237D01*
X102475313Y-93686000D01*
X102718438Y-93694495D01*
X102958549Y-93655395D01*
X103172117Y-93575549D01*
X103185506Y-93586537D01*
X103295820Y-93645502D01*
X103415518Y-93681812D01*
X103540000Y-93694072D01*
X104740000Y-93694072D01*
X104864482Y-93681812D01*
X104984180Y-93645502D01*
X105094494Y-93586537D01*
X105191185Y-93507185D01*
X105270537Y-93410494D01*
X105329502Y-93300180D01*
X105365812Y-93180482D01*
X105378072Y-93056000D01*
X105378072Y-92314665D01*
X118453000Y-92314665D01*
X118453000Y-92597335D01*
X118508147Y-92874574D01*
X118616320Y-93135727D01*
X118773363Y-93370759D01*
X118973241Y-93570637D01*
X119208273Y-93727680D01*
X119469426Y-93835853D01*
X119746665Y-93891000D01*
X120029335Y-93891000D01*
X120306574Y-93835853D01*
X120567727Y-93727680D01*
X120802759Y-93570637D01*
X121002637Y-93370759D01*
X121159680Y-93135727D01*
X121267853Y-92874574D01*
X121323000Y-92597335D01*
X121323000Y-92534438D01*
X122229505Y-92534438D01*
X122268605Y-92774549D01*
X122353798Y-93002418D01*
X122394652Y-93078852D01*
X122618236Y-93126159D01*
X123288395Y-92456000D01*
X122618236Y-91785841D01*
X122394652Y-91833148D01*
X122293763Y-92054516D01*
X122238000Y-92291313D01*
X122229505Y-92534438D01*
X121323000Y-92534438D01*
X121323000Y-92314665D01*
X121267853Y-92037426D01*
X121159680Y-91776273D01*
X121046066Y-91606236D01*
X122797841Y-91606236D01*
X123468000Y-92276395D01*
X123482143Y-92262253D01*
X123661748Y-92441858D01*
X123647605Y-92456000D01*
X123661748Y-92470143D01*
X123482143Y-92649748D01*
X123468000Y-92635605D01*
X122797841Y-93305764D01*
X122845148Y-93529348D01*
X123066516Y-93630237D01*
X123303313Y-93686000D01*
X123546438Y-93694495D01*
X123786549Y-93655395D01*
X124000117Y-93575549D01*
X124013506Y-93586537D01*
X124123820Y-93645502D01*
X124243518Y-93681812D01*
X124368000Y-93694072D01*
X125568000Y-93694072D01*
X125692482Y-93681812D01*
X125812180Y-93645502D01*
X125922494Y-93586537D01*
X126019185Y-93507185D01*
X126098537Y-93410494D01*
X126157502Y-93300180D01*
X126193812Y-93180482D01*
X126206072Y-93056000D01*
X126206072Y-91856000D01*
X126193812Y-91731518D01*
X126157502Y-91611820D01*
X126098537Y-91501506D01*
X126019185Y-91404815D01*
X125922494Y-91325463D01*
X125812180Y-91266498D01*
X125692482Y-91230188D01*
X125568000Y-91217928D01*
X124368000Y-91217928D01*
X124243518Y-91230188D01*
X124123820Y-91266498D01*
X124013506Y-91325463D01*
X123996319Y-91339568D01*
X123869484Y-91281763D01*
X123632687Y-91226000D01*
X123389562Y-91217505D01*
X123149451Y-91256605D01*
X122921582Y-91341798D01*
X122845148Y-91382652D01*
X122797841Y-91606236D01*
X121046066Y-91606236D01*
X121002637Y-91541241D01*
X120802759Y-91341363D01*
X120602131Y-91207308D01*
X120629514Y-91192671D01*
X120701097Y-90948702D01*
X119888000Y-90135605D01*
X119074903Y-90948702D01*
X119146486Y-91192671D01*
X119175341Y-91206324D01*
X118973241Y-91341363D01*
X118773363Y-91541241D01*
X118616320Y-91776273D01*
X118508147Y-92037426D01*
X118453000Y-92314665D01*
X105378072Y-92314665D01*
X105378072Y-91856000D01*
X105365812Y-91731518D01*
X105329502Y-91611820D01*
X105270537Y-91501506D01*
X105191185Y-91404815D01*
X105094494Y-91325463D01*
X104984180Y-91266498D01*
X104864482Y-91230188D01*
X104740000Y-91217928D01*
X103540000Y-91217928D01*
X103415518Y-91230188D01*
X103295820Y-91266498D01*
X103185506Y-91325463D01*
X103168319Y-91339568D01*
X103041484Y-91281763D01*
X102804687Y-91226000D01*
X102561562Y-91217505D01*
X102321451Y-91256605D01*
X102093582Y-91341798D01*
X102017148Y-91382652D01*
X101969841Y-91606236D01*
X100218066Y-91606236D01*
X100174637Y-91541241D01*
X99974759Y-91341363D01*
X99774131Y-91207308D01*
X99801514Y-91192671D01*
X99873097Y-90948702D01*
X99060000Y-90135605D01*
X98246903Y-90948702D01*
X98318486Y-91192671D01*
X98347341Y-91206324D01*
X98145241Y-91341363D01*
X97945363Y-91541241D01*
X97788320Y-91776273D01*
X97680147Y-92037426D01*
X97625000Y-92314665D01*
X94415266Y-92314665D01*
X96703419Y-90026512D01*
X97619783Y-90026512D01*
X97661213Y-90306130D01*
X97756397Y-90572292D01*
X97823329Y-90697514D01*
X98067298Y-90769097D01*
X98880395Y-89956000D01*
X99239605Y-89956000D01*
X100052702Y-90769097D01*
X100296671Y-90697514D01*
X100417571Y-90442004D01*
X100486300Y-90167816D01*
X100493265Y-90026512D01*
X118447783Y-90026512D01*
X118489213Y-90306130D01*
X118584397Y-90572292D01*
X118651329Y-90697514D01*
X118895298Y-90769097D01*
X119708395Y-89956000D01*
X120067605Y-89956000D01*
X120880702Y-90769097D01*
X121124671Y-90697514D01*
X121245571Y-90442004D01*
X121314300Y-90167816D01*
X121328217Y-89885488D01*
X121286787Y-89605870D01*
X121191603Y-89339708D01*
X121124671Y-89214486D01*
X120880702Y-89142903D01*
X120067605Y-89956000D01*
X119708395Y-89956000D01*
X118895298Y-89142903D01*
X118651329Y-89214486D01*
X118530429Y-89469996D01*
X118461700Y-89744184D01*
X118447783Y-90026512D01*
X100493265Y-90026512D01*
X100500217Y-89885488D01*
X100458787Y-89605870D01*
X100363603Y-89339708D01*
X100296671Y-89214486D01*
X100052702Y-89142903D01*
X99239605Y-89956000D01*
X98880395Y-89956000D01*
X98067298Y-89142903D01*
X97823329Y-89214486D01*
X97702429Y-89469996D01*
X97633700Y-89744184D01*
X97619783Y-90026512D01*
X96703419Y-90026512D01*
X97766633Y-88963298D01*
X98246903Y-88963298D01*
X99060000Y-89776395D01*
X99873097Y-88963298D01*
X119074903Y-88963298D01*
X119888000Y-89776395D01*
X120701097Y-88963298D01*
X120629514Y-88719329D01*
X120374004Y-88598429D01*
X120099816Y-88529700D01*
X119817488Y-88515783D01*
X119537870Y-88557213D01*
X119271708Y-88652397D01*
X119146486Y-88719329D01*
X119074903Y-88963298D01*
X99873097Y-88963298D01*
X99801514Y-88719329D01*
X99546004Y-88598429D01*
X99271816Y-88529700D01*
X98989488Y-88515783D01*
X98709870Y-88557213D01*
X98443708Y-88652397D01*
X98318486Y-88719329D01*
X98246903Y-88963298D01*
X97766633Y-88963298D01*
X98446002Y-88283930D01*
X98475000Y-88260132D01*
X98569973Y-88144407D01*
X98640545Y-88012378D01*
X98684002Y-87869117D01*
X98694999Y-87757464D01*
X98694999Y-87757456D01*
X98698675Y-87720131D01*
X98694999Y-87682806D01*
X98694999Y-84751802D01*
X99607802Y-83839000D01*
X99669939Y-83839000D01*
X99869898Y-83799226D01*
X100058256Y-83721205D01*
X100227774Y-83607937D01*
X100371937Y-83463774D01*
X100428321Y-83379389D01*
X100485363Y-83464759D01*
X100685241Y-83664637D01*
X100917759Y-83820000D01*
X100685241Y-83975363D01*
X100485363Y-84175241D01*
X100328320Y-84410273D01*
X100220147Y-84671426D01*
X100165000Y-84948665D01*
X100165000Y-85231335D01*
X100220147Y-85508574D01*
X100328320Y-85769727D01*
X100485363Y-86004759D01*
X100685241Y-86204637D01*
X100920273Y-86361680D01*
X101181426Y-86469853D01*
X101458665Y-86525000D01*
X101741335Y-86525000D01*
X102018574Y-86469853D01*
X102279727Y-86361680D01*
X102514759Y-86204637D01*
X102714637Y-86004759D01*
X102871680Y-85769727D01*
X102979853Y-85508574D01*
X103035000Y-85231335D01*
X103035000Y-84948665D01*
X102979853Y-84671426D01*
X102871680Y-84410273D01*
X102714637Y-84175241D01*
X102514759Y-83975363D01*
X102282241Y-83820000D01*
X102514759Y-83664637D01*
X102714637Y-83464759D01*
X102871680Y-83229727D01*
X102979853Y-82968574D01*
X103035000Y-82691335D01*
X103035000Y-82437980D01*
X114217626Y-82437980D01*
X114337514Y-82722836D01*
X114661210Y-82883699D01*
X115010069Y-82978322D01*
X115370684Y-83003067D01*
X115729198Y-82956985D01*
X116071833Y-82841846D01*
X116294486Y-82722836D01*
X116414374Y-82437980D01*
X115316000Y-81339605D01*
X114217626Y-82437980D01*
X103035000Y-82437980D01*
X103035000Y-82408665D01*
X102979853Y-82131426D01*
X102871680Y-81870273D01*
X102714637Y-81635241D01*
X102514759Y-81435363D01*
X102282241Y-81280000D01*
X102379993Y-81214684D01*
X113472933Y-81214684D01*
X113519015Y-81573198D01*
X113634154Y-81915833D01*
X113753164Y-82138486D01*
X114038020Y-82258374D01*
X115136395Y-81160000D01*
X114038020Y-80061626D01*
X113753164Y-80181514D01*
X113592301Y-80505210D01*
X113497678Y-80854069D01*
X113472933Y-81214684D01*
X102379993Y-81214684D01*
X102514759Y-81124637D01*
X102714637Y-80924759D01*
X102871680Y-80689727D01*
X102979853Y-80428574D01*
X103035000Y-80151335D01*
X103035000Y-79868665D01*
X102979853Y-79591426D01*
X102871680Y-79330273D01*
X102714637Y-79095241D01*
X102514759Y-78895363D01*
X102282241Y-78740000D01*
X102514759Y-78584637D01*
X102714637Y-78384759D01*
X102871680Y-78149727D01*
X102979853Y-77888574D01*
X103035000Y-77611335D01*
X103035000Y-77328665D01*
X102979853Y-77051426D01*
X102871680Y-76790273D01*
X102714637Y-76555241D01*
X102514759Y-76355363D01*
X102282241Y-76200000D01*
X102514759Y-76044637D01*
X102714637Y-75844759D01*
X102871680Y-75609727D01*
X102979853Y-75348574D01*
X103035000Y-75071335D01*
X103035000Y-74788665D01*
X102983150Y-74528001D01*
X110130202Y-74528001D01*
X114958107Y-79355906D01*
X114902802Y-79363015D01*
X114560167Y-79478154D01*
X114337514Y-79597164D01*
X114217626Y-79882020D01*
X115316000Y-80980395D01*
X115330142Y-80966252D01*
X115509748Y-81145858D01*
X115495605Y-81160000D01*
X116593980Y-82258374D01*
X116878836Y-82138486D01*
X117039699Y-81814790D01*
X117120199Y-81517999D01*
X132590000Y-96987801D01*
X132590001Y-99746956D01*
X132435241Y-99850363D01*
X132235363Y-100050241D01*
X132078320Y-100285273D01*
X131970147Y-100546426D01*
X131915000Y-100823665D01*
X131915000Y-101106335D01*
X131970147Y-101383574D01*
X132078320Y-101644727D01*
X132235363Y-101879759D01*
X132435241Y-102079637D01*
X132670273Y-102236680D01*
X132931426Y-102344853D01*
X133208665Y-102400000D01*
X133491335Y-102400000D01*
X133768574Y-102344853D01*
X134029727Y-102236680D01*
X134264759Y-102079637D01*
X134464637Y-101879759D01*
X134621680Y-101644727D01*
X134729853Y-101383574D01*
X134785000Y-101106335D01*
X134785000Y-100823665D01*
X134729853Y-100546426D01*
X134621680Y-100285273D01*
X134541317Y-100165000D01*
X139531928Y-100165000D01*
X139531928Y-101765000D01*
X139544188Y-101889482D01*
X139580498Y-102009180D01*
X139639463Y-102119494D01*
X139718815Y-102216185D01*
X139815506Y-102295537D01*
X139925820Y-102354502D01*
X140045518Y-102390812D01*
X140170000Y-102403072D01*
X141770000Y-102403072D01*
X141894482Y-102390812D01*
X142014180Y-102354502D01*
X142124494Y-102295537D01*
X142221185Y-102216185D01*
X142300537Y-102119494D01*
X142359502Y-102009180D01*
X142395812Y-101889482D01*
X142408072Y-101765000D01*
X142408072Y-100165000D01*
X142395812Y-100040518D01*
X142359502Y-99920820D01*
X142300537Y-99810506D01*
X142221185Y-99713815D01*
X142124494Y-99634463D01*
X142014180Y-99575498D01*
X141894482Y-99539188D01*
X141841471Y-99533967D01*
X144575000Y-99533967D01*
X144575000Y-99856033D01*
X144637832Y-100171912D01*
X144761082Y-100469463D01*
X144940013Y-100737252D01*
X145167748Y-100964987D01*
X145435537Y-101143918D01*
X145733088Y-101267168D01*
X146048967Y-101330000D01*
X146371033Y-101330000D01*
X146686912Y-101267168D01*
X146984463Y-101143918D01*
X147252252Y-100964987D01*
X147479987Y-100737252D01*
X147658918Y-100469463D01*
X147782168Y-100171912D01*
X147845000Y-99856033D01*
X147845000Y-99533967D01*
X148355000Y-99533967D01*
X148355000Y-99856033D01*
X148417832Y-100171912D01*
X148541082Y-100469463D01*
X148720013Y-100737252D01*
X148947748Y-100964987D01*
X149215537Y-101143918D01*
X149513088Y-101267168D01*
X149828967Y-101330000D01*
X150151033Y-101330000D01*
X150466912Y-101267168D01*
X150764463Y-101143918D01*
X151032252Y-100964987D01*
X151259987Y-100737252D01*
X151438918Y-100469463D01*
X151562168Y-100171912D01*
X151625000Y-99856033D01*
X151625000Y-99533967D01*
X151562168Y-99218088D01*
X151438918Y-98920537D01*
X151259987Y-98652748D01*
X151032252Y-98425013D01*
X150764463Y-98246082D01*
X150466912Y-98122832D01*
X150151033Y-98060000D01*
X149828967Y-98060000D01*
X149513088Y-98122832D01*
X149215537Y-98246082D01*
X148947748Y-98425013D01*
X148720013Y-98652748D01*
X148541082Y-98920537D01*
X148417832Y-99218088D01*
X148355000Y-99533967D01*
X147845000Y-99533967D01*
X147782168Y-99218088D01*
X147658918Y-98920537D01*
X147479987Y-98652748D01*
X147252252Y-98425013D01*
X146984463Y-98246082D01*
X146686912Y-98122832D01*
X146371033Y-98060000D01*
X146048967Y-98060000D01*
X145733088Y-98122832D01*
X145435537Y-98246082D01*
X145167748Y-98425013D01*
X144940013Y-98652748D01*
X144761082Y-98920537D01*
X144637832Y-99218088D01*
X144575000Y-99533967D01*
X141841471Y-99533967D01*
X141770000Y-99526928D01*
X140170000Y-99526928D01*
X140045518Y-99539188D01*
X139925820Y-99575498D01*
X139815506Y-99634463D01*
X139718815Y-99713815D01*
X139639463Y-99810506D01*
X139580498Y-99920820D01*
X139544188Y-100040518D01*
X139531928Y-100165000D01*
X134541317Y-100165000D01*
X134464637Y-100050241D01*
X134264759Y-99850363D01*
X134110000Y-99746957D01*
X134110000Y-96710320D01*
X134113676Y-96672997D01*
X134110000Y-96635674D01*
X134110000Y-96635665D01*
X134099003Y-96524012D01*
X134055546Y-96380751D01*
X133984974Y-96248722D01*
X133961808Y-96220494D01*
X133913799Y-96161994D01*
X133913795Y-96161990D01*
X133890001Y-96132997D01*
X133861010Y-96109205D01*
X118811677Y-81059872D01*
X126035000Y-81059872D01*
X126035000Y-81500128D01*
X126120890Y-81931925D01*
X126289369Y-82338669D01*
X126533962Y-82704729D01*
X126845271Y-83016038D01*
X127211331Y-83260631D01*
X127618075Y-83429110D01*
X128049872Y-83515000D01*
X128490128Y-83515000D01*
X128921925Y-83429110D01*
X129328669Y-83260631D01*
X129694729Y-83016038D01*
X130006038Y-82704729D01*
X130250631Y-82338669D01*
X130419110Y-81931925D01*
X130505000Y-81500128D01*
X130505000Y-81229467D01*
X134665500Y-81229467D01*
X134665500Y-81551533D01*
X134728332Y-81867412D01*
X134851582Y-82164963D01*
X135030513Y-82432752D01*
X135258248Y-82660487D01*
X135526037Y-82839418D01*
X135823588Y-82962668D01*
X136139467Y-83025500D01*
X136461533Y-83025500D01*
X136777412Y-82962668D01*
X137074963Y-82839418D01*
X137342752Y-82660487D01*
X137570487Y-82432752D01*
X137749418Y-82164963D01*
X137872668Y-81867412D01*
X137935500Y-81551533D01*
X137935500Y-81229467D01*
X137872668Y-80913588D01*
X137749418Y-80616037D01*
X137570487Y-80348248D01*
X137342752Y-80120513D01*
X137074963Y-79941582D01*
X136777412Y-79818332D01*
X136461533Y-79755500D01*
X136139467Y-79755500D01*
X135823588Y-79818332D01*
X135526037Y-79941582D01*
X135258248Y-80120513D01*
X135030513Y-80348248D01*
X134851582Y-80616037D01*
X134728332Y-80913588D01*
X134665500Y-81229467D01*
X130505000Y-81229467D01*
X130505000Y-81059872D01*
X130419110Y-80628075D01*
X130250631Y-80221331D01*
X130006038Y-79855271D01*
X129694729Y-79543962D01*
X129328669Y-79299369D01*
X128921925Y-79130890D01*
X128490128Y-79045000D01*
X128049872Y-79045000D01*
X127618075Y-79130890D01*
X127211331Y-79299369D01*
X126845271Y-79543962D01*
X126533962Y-79855271D01*
X126289369Y-80221331D01*
X126120890Y-80628075D01*
X126035000Y-81059872D01*
X118811677Y-81059872D01*
X115514650Y-77762845D01*
X126886761Y-77762845D01*
X127054802Y-78088643D01*
X127446607Y-78289426D01*
X127870055Y-78409914D01*
X128308873Y-78445476D01*
X128746197Y-78394746D01*
X129165221Y-78259674D01*
X129485198Y-78088643D01*
X129653239Y-77762845D01*
X128270000Y-76379605D01*
X126886761Y-77762845D01*
X115514650Y-77762845D01*
X113990677Y-76238873D01*
X126024524Y-76238873D01*
X126075254Y-76676197D01*
X126210326Y-77095221D01*
X126381357Y-77415198D01*
X126707155Y-77583239D01*
X128090395Y-76200000D01*
X128449605Y-76200000D01*
X129832845Y-77583239D01*
X130158643Y-77415198D01*
X130359426Y-77023393D01*
X130479914Y-76599945D01*
X130515476Y-76161127D01*
X130464746Y-75723803D01*
X130329674Y-75304779D01*
X130158643Y-74984802D01*
X129832845Y-74816761D01*
X128449605Y-76200000D01*
X128090395Y-76200000D01*
X126707155Y-74816761D01*
X126381357Y-74984802D01*
X126180574Y-75376607D01*
X126060086Y-75800055D01*
X126024524Y-76238873D01*
X113990677Y-76238873D01*
X111008807Y-73257004D01*
X110985004Y-73228000D01*
X110869279Y-73133027D01*
X110737250Y-73062455D01*
X110593989Y-73018998D01*
X110482336Y-73008001D01*
X110482325Y-73008001D01*
X110445003Y-73004325D01*
X110407681Y-73008001D01*
X106055679Y-73008001D01*
X106154853Y-72768574D01*
X106210000Y-72491335D01*
X106210000Y-72460000D01*
X113477928Y-72460000D01*
X113477928Y-74860000D01*
X113490188Y-74984482D01*
X113526498Y-75104180D01*
X113585463Y-75214494D01*
X113664815Y-75311185D01*
X113761506Y-75390537D01*
X113871820Y-75449502D01*
X113991518Y-75485812D01*
X114116000Y-75498072D01*
X116516000Y-75498072D01*
X116640482Y-75485812D01*
X116760180Y-75449502D01*
X116870494Y-75390537D01*
X116967185Y-75311185D01*
X117046537Y-75214494D01*
X117105502Y-75104180D01*
X117141812Y-74984482D01*
X117154072Y-74860000D01*
X117154072Y-74637155D01*
X126886761Y-74637155D01*
X128270000Y-76020395D01*
X129653239Y-74637155D01*
X129485198Y-74311357D01*
X129093393Y-74110574D01*
X128669945Y-73990086D01*
X128231127Y-73954524D01*
X127793803Y-74005254D01*
X127374779Y-74140326D01*
X127054802Y-74311357D01*
X126886761Y-74637155D01*
X117154072Y-74637155D01*
X117154072Y-72460000D01*
X117141812Y-72335518D01*
X117105502Y-72215820D01*
X117046537Y-72105506D01*
X116967185Y-72008815D01*
X116870494Y-71929463D01*
X116760180Y-71870498D01*
X116640482Y-71834188D01*
X116516000Y-71821928D01*
X114116000Y-71821928D01*
X113991518Y-71834188D01*
X113871820Y-71870498D01*
X113761506Y-71929463D01*
X113664815Y-72008815D01*
X113585463Y-72105506D01*
X113526498Y-72215820D01*
X113490188Y-72335518D01*
X113477928Y-72460000D01*
X106210000Y-72460000D01*
X106210000Y-72208665D01*
X106154853Y-71931426D01*
X106046680Y-71670273D01*
X105889637Y-71435241D01*
X105689759Y-71235363D01*
X105489131Y-71101308D01*
X105516514Y-71086671D01*
X105571322Y-70899872D01*
X126035000Y-70899872D01*
X126035000Y-71340128D01*
X126120890Y-71771925D01*
X126289369Y-72178669D01*
X126533962Y-72544729D01*
X126845271Y-72856038D01*
X127211331Y-73100631D01*
X127618075Y-73269110D01*
X128049872Y-73355000D01*
X128490128Y-73355000D01*
X128921925Y-73269110D01*
X129328669Y-73100631D01*
X129694729Y-72856038D01*
X130006038Y-72544729D01*
X130250631Y-72178669D01*
X130419110Y-71771925D01*
X130505000Y-71340128D01*
X130505000Y-71229467D01*
X134665500Y-71229467D01*
X134665500Y-71551533D01*
X134728332Y-71867412D01*
X134851582Y-72164963D01*
X135030513Y-72432752D01*
X135258248Y-72660487D01*
X135526037Y-72839418D01*
X135823588Y-72962668D01*
X136139467Y-73025500D01*
X136461533Y-73025500D01*
X136777412Y-72962668D01*
X137074963Y-72839418D01*
X137342752Y-72660487D01*
X137570487Y-72432752D01*
X137749418Y-72164963D01*
X137872668Y-71867412D01*
X137935500Y-71551533D01*
X137935500Y-71229467D01*
X137872668Y-70913588D01*
X137749418Y-70616037D01*
X137570487Y-70348248D01*
X137342752Y-70120513D01*
X137074963Y-69941582D01*
X136777412Y-69818332D01*
X136461533Y-69755500D01*
X136139467Y-69755500D01*
X135823588Y-69818332D01*
X135526037Y-69941582D01*
X135258248Y-70120513D01*
X135030513Y-70348248D01*
X134851582Y-70616037D01*
X134728332Y-70913588D01*
X134665500Y-71229467D01*
X130505000Y-71229467D01*
X130505000Y-70899872D01*
X130419110Y-70468075D01*
X130250631Y-70061331D01*
X130006038Y-69695271D01*
X129694729Y-69383962D01*
X129328669Y-69139369D01*
X128921925Y-68970890D01*
X128490128Y-68885000D01*
X128049872Y-68885000D01*
X127618075Y-68970890D01*
X127211331Y-69139369D01*
X126845271Y-69383962D01*
X126533962Y-69695271D01*
X126289369Y-70061331D01*
X126120890Y-70468075D01*
X126035000Y-70899872D01*
X105571322Y-70899872D01*
X105588097Y-70842702D01*
X104775000Y-70029605D01*
X103961903Y-70842702D01*
X104033486Y-71086671D01*
X104062341Y-71100324D01*
X103860241Y-71235363D01*
X103660363Y-71435241D01*
X103503320Y-71670273D01*
X103395147Y-71931426D01*
X103340000Y-72208665D01*
X103340000Y-72491335D01*
X103395147Y-72768574D01*
X103494321Y-73008001D01*
X102897248Y-73008001D01*
X102979853Y-72808574D01*
X103035000Y-72531335D01*
X103035000Y-72248665D01*
X102979853Y-71971426D01*
X102871680Y-71710273D01*
X102714637Y-71475241D01*
X102514759Y-71275363D01*
X102282241Y-71120000D01*
X102514759Y-70964637D01*
X102714637Y-70764759D01*
X102871680Y-70529727D01*
X102979853Y-70268574D01*
X103035000Y-69991335D01*
X103035000Y-69920512D01*
X103334783Y-69920512D01*
X103376213Y-70200130D01*
X103471397Y-70466292D01*
X103538329Y-70591514D01*
X103782298Y-70663097D01*
X104595395Y-69850000D01*
X104954605Y-69850000D01*
X105767702Y-70663097D01*
X106011671Y-70591514D01*
X106132571Y-70336004D01*
X106201300Y-70061816D01*
X106215217Y-69779488D01*
X106173787Y-69499870D01*
X106078603Y-69233708D01*
X106011671Y-69108486D01*
X105767702Y-69036903D01*
X104954605Y-69850000D01*
X104595395Y-69850000D01*
X103782298Y-69036903D01*
X103538329Y-69108486D01*
X103417429Y-69363996D01*
X103348700Y-69638184D01*
X103334783Y-69920512D01*
X103035000Y-69920512D01*
X103035000Y-69708665D01*
X102979853Y-69431426D01*
X102871680Y-69170273D01*
X102714637Y-68935241D01*
X102636694Y-68857298D01*
X103961903Y-68857298D01*
X104775000Y-69670395D01*
X105588097Y-68857298D01*
X105516514Y-68613329D01*
X105261004Y-68492429D01*
X104986816Y-68423700D01*
X104704488Y-68409783D01*
X104424870Y-68451213D01*
X104158708Y-68546397D01*
X104033486Y-68613329D01*
X103961903Y-68857298D01*
X102636694Y-68857298D01*
X102514759Y-68735363D01*
X102279727Y-68578320D01*
X102269135Y-68573933D01*
X102455131Y-68462385D01*
X102663519Y-68273414D01*
X102831037Y-68047420D01*
X102951246Y-67793087D01*
X102991904Y-67659039D01*
X102869915Y-67437000D01*
X101727000Y-67437000D01*
X101727000Y-67457000D01*
X101473000Y-67457000D01*
X101473000Y-67437000D01*
X100330085Y-67437000D01*
X100208096Y-67659039D01*
X100248754Y-67793087D01*
X100368963Y-68047420D01*
X100536481Y-68273414D01*
X100744869Y-68462385D01*
X100930865Y-68573933D01*
X100920273Y-68578320D01*
X100685241Y-68735363D01*
X100485363Y-68935241D01*
X100328320Y-69170273D01*
X100220147Y-69431426D01*
X100165000Y-69708665D01*
X100165000Y-69991335D01*
X100202533Y-70180023D01*
X100165027Y-70225723D01*
X100127461Y-70296004D01*
X100094455Y-70357753D01*
X100050998Y-70501014D01*
X100040001Y-70612667D01*
X100040001Y-70612677D01*
X100036325Y-70649999D01*
X100040001Y-70687322D01*
X100040002Y-71552669D01*
X100036325Y-71590001D01*
X100040002Y-71627334D01*
X100050999Y-71738987D01*
X100062227Y-71776002D01*
X100094455Y-71882247D01*
X100165027Y-72014277D01*
X100202533Y-72059977D01*
X100165000Y-72248665D01*
X100165000Y-72531335D01*
X100220147Y-72808574D01*
X100302752Y-73008001D01*
X97546634Y-73008001D01*
X97515226Y-72850102D01*
X97437205Y-72661744D01*
X97323937Y-72492226D01*
X97179774Y-72348063D01*
X97010256Y-72234795D01*
X96821898Y-72156774D01*
X96621939Y-72117000D01*
X96418061Y-72117000D01*
X96218102Y-72156774D01*
X96029744Y-72234795D01*
X95860226Y-72348063D01*
X95716063Y-72492226D01*
X95602795Y-72661744D01*
X95524774Y-72850102D01*
X95485000Y-73050061D01*
X95485000Y-73112198D01*
X94827066Y-73770132D01*
X94662241Y-73660000D01*
X94894759Y-73504637D01*
X95094637Y-73304759D01*
X95251680Y-73069727D01*
X95359853Y-72808574D01*
X95415000Y-72531335D01*
X95415000Y-72248665D01*
X95359853Y-71971426D01*
X95330623Y-71900858D01*
X95332279Y-71899973D01*
X95448004Y-71805000D01*
X95471807Y-71775996D01*
X97756004Y-69491800D01*
X97785002Y-69468002D01*
X97879975Y-69352277D01*
X97950547Y-69220248D01*
X97994004Y-69076987D01*
X98005001Y-68965334D01*
X98005001Y-68965325D01*
X98008677Y-68928002D01*
X98005001Y-68890679D01*
X98005001Y-64359800D01*
X100165000Y-62199802D01*
X100165000Y-62371335D01*
X100220147Y-62648574D01*
X100328320Y-62909727D01*
X100485363Y-63144759D01*
X100685241Y-63344637D01*
X100917759Y-63500000D01*
X100685241Y-63655363D01*
X100485363Y-63855241D01*
X100328320Y-64090273D01*
X100220147Y-64351426D01*
X100165000Y-64628665D01*
X100165000Y-64911335D01*
X100220147Y-65188574D01*
X100328320Y-65449727D01*
X100485363Y-65684759D01*
X100685241Y-65884637D01*
X100920273Y-66041680D01*
X100930865Y-66046067D01*
X100744869Y-66157615D01*
X100536481Y-66346586D01*
X100368963Y-66572580D01*
X100248754Y-66826913D01*
X100208096Y-66960961D01*
X100330085Y-67183000D01*
X101473000Y-67183000D01*
X101473000Y-67163000D01*
X101727000Y-67163000D01*
X101727000Y-67183000D01*
X102869915Y-67183000D01*
X102991904Y-66960961D01*
X102951246Y-66826913D01*
X102831037Y-66572580D01*
X102663519Y-66346586D01*
X102455131Y-66157615D01*
X102269135Y-66046067D01*
X102279727Y-66041680D01*
X102514759Y-65884637D01*
X102714637Y-65684759D01*
X102871680Y-65449727D01*
X102979853Y-65188574D01*
X103035000Y-64911335D01*
X103035000Y-64628665D01*
X102998688Y-64446114D01*
X103004802Y-64440000D01*
X126031928Y-64440000D01*
X126031928Y-67640000D01*
X126044188Y-67764482D01*
X126080498Y-67884180D01*
X126139463Y-67994494D01*
X126218815Y-68091185D01*
X126315506Y-68170537D01*
X126425820Y-68229502D01*
X126545518Y-68265812D01*
X126670000Y-68278072D01*
X129870000Y-68278072D01*
X129994482Y-68265812D01*
X130114180Y-68229502D01*
X130224494Y-68170537D01*
X130321185Y-68091185D01*
X130400537Y-67994494D01*
X130459502Y-67884180D01*
X130495812Y-67764482D01*
X130508072Y-67640000D01*
X130508072Y-64440000D01*
X130495812Y-64315518D01*
X130459502Y-64195820D01*
X130400537Y-64085506D01*
X130321185Y-63988815D01*
X130224494Y-63909463D01*
X130114180Y-63850498D01*
X129994482Y-63814188D01*
X129870000Y-63801928D01*
X126670000Y-63801928D01*
X126545518Y-63814188D01*
X126425820Y-63850498D01*
X126315506Y-63909463D01*
X126218815Y-63988815D01*
X126139463Y-64085506D01*
X126080498Y-64195820D01*
X126044188Y-64315518D01*
X126031928Y-64440000D01*
X103004802Y-64440000D01*
X104143003Y-63301799D01*
X104172001Y-63278001D01*
X104203724Y-63239347D01*
X104266974Y-63162277D01*
X104282099Y-63133980D01*
X115741626Y-63133980D01*
X115861514Y-63418836D01*
X116185210Y-63579699D01*
X116534069Y-63674322D01*
X116894684Y-63699067D01*
X117253198Y-63652985D01*
X117595833Y-63537846D01*
X117818486Y-63418836D01*
X117938374Y-63133980D01*
X116840000Y-62035605D01*
X115741626Y-63133980D01*
X104282099Y-63133980D01*
X104337546Y-63030247D01*
X104349648Y-62990350D01*
X104381003Y-62886986D01*
X104392000Y-62775333D01*
X104392000Y-62775323D01*
X104395676Y-62738000D01*
X104392000Y-62700677D01*
X104392000Y-61910684D01*
X114996933Y-61910684D01*
X115043015Y-62269198D01*
X115158154Y-62611833D01*
X115277164Y-62834486D01*
X115562020Y-62954374D01*
X116660395Y-61856000D01*
X117019605Y-61856000D01*
X118117980Y-62954374D01*
X118402836Y-62834486D01*
X118563699Y-62510790D01*
X118658322Y-62161931D01*
X118683067Y-61801316D01*
X118636985Y-61442802D01*
X118521846Y-61100167D01*
X118402836Y-60877514D01*
X118117980Y-60757626D01*
X117019605Y-61856000D01*
X116660395Y-61856000D01*
X115562020Y-60757626D01*
X115277164Y-60877514D01*
X115116301Y-61201210D01*
X115021678Y-61550069D01*
X114996933Y-61910684D01*
X104392000Y-61910684D01*
X104392000Y-60578020D01*
X115741626Y-60578020D01*
X116840000Y-61676395D01*
X117938374Y-60578020D01*
X117818486Y-60293164D01*
X117494790Y-60132301D01*
X117145931Y-60037678D01*
X116785316Y-60012933D01*
X116426802Y-60059015D01*
X116084167Y-60174154D01*
X115861514Y-60293164D01*
X115741626Y-60578020D01*
X104392000Y-60578020D01*
X104392000Y-60143371D01*
X104476273Y-60199680D01*
X104737426Y-60307853D01*
X105014665Y-60363000D01*
X105297335Y-60363000D01*
X105574574Y-60307853D01*
X105835727Y-60199680D01*
X106070759Y-60042637D01*
X106270637Y-59842759D01*
X106427680Y-59607727D01*
X106535853Y-59346574D01*
X106591000Y-59069335D01*
X106591000Y-58786665D01*
X106535853Y-58509426D01*
X106427680Y-58248273D01*
X106270637Y-58013241D01*
X106070759Y-57813363D01*
X105835727Y-57656320D01*
X105574574Y-57548147D01*
X105297335Y-57493000D01*
X105014665Y-57493000D01*
X104737426Y-57548147D01*
X104476273Y-57656320D01*
X104392000Y-57712629D01*
X104392000Y-57091711D01*
X104435937Y-57047774D01*
X104549205Y-56878256D01*
X104627226Y-56689898D01*
X104667000Y-56489939D01*
X104667000Y-56286061D01*
X104627226Y-56086102D01*
X104549205Y-55897744D01*
X104435937Y-55728226D01*
X104291774Y-55584063D01*
X104122256Y-55470795D01*
X103933898Y-55392774D01*
X103733939Y-55353000D01*
X103530061Y-55353000D01*
X103330102Y-55392774D01*
X103141744Y-55470795D01*
X102972226Y-55584063D01*
X102828063Y-55728226D01*
X102714795Y-55897744D01*
X102636774Y-56086102D01*
X102624949Y-56145553D01*
X102514759Y-56035363D01*
X102282241Y-55880000D01*
X102514759Y-55724637D01*
X102714637Y-55524759D01*
X102871680Y-55289727D01*
X102979853Y-55028574D01*
X103035000Y-54751335D01*
X103035000Y-54468665D01*
X102979853Y-54191426D01*
X102871680Y-53930273D01*
X102714637Y-53695241D01*
X102514759Y-53495363D01*
X102282241Y-53340000D01*
X102514759Y-53184637D01*
X102543396Y-53156000D01*
X115001928Y-53156000D01*
X115001928Y-55556000D01*
X115014188Y-55680482D01*
X115050498Y-55800180D01*
X115109463Y-55910494D01*
X115188815Y-56007185D01*
X115285506Y-56086537D01*
X115395820Y-56145502D01*
X115515518Y-56181812D01*
X115640000Y-56194072D01*
X118040000Y-56194072D01*
X118164482Y-56181812D01*
X118284180Y-56145502D01*
X118394494Y-56086537D01*
X118491185Y-56007185D01*
X118570537Y-55910494D01*
X118629502Y-55800180D01*
X118665812Y-55680482D01*
X118678072Y-55556000D01*
X118678072Y-53156000D01*
X118665812Y-53031518D01*
X118629502Y-52911820D01*
X118570537Y-52801506D01*
X118491185Y-52704815D01*
X118394494Y-52625463D01*
X118284180Y-52566498D01*
X118164482Y-52530188D01*
X118040000Y-52517928D01*
X115640000Y-52517928D01*
X115515518Y-52530188D01*
X115395820Y-52566498D01*
X115285506Y-52625463D01*
X115188815Y-52704815D01*
X115109463Y-52801506D01*
X115050498Y-52911820D01*
X115014188Y-53031518D01*
X115001928Y-53156000D01*
X102543396Y-53156000D01*
X102714637Y-52984759D01*
X102871680Y-52749727D01*
X102979853Y-52488574D01*
X103035000Y-52211335D01*
X103035000Y-51928665D01*
X102979853Y-51651426D01*
X102871680Y-51390273D01*
X102722271Y-51166665D01*
X103721000Y-51166665D01*
X103721000Y-51449335D01*
X103776147Y-51726574D01*
X103884320Y-51987727D01*
X104041363Y-52222759D01*
X104241241Y-52422637D01*
X104476273Y-52579680D01*
X104737426Y-52687853D01*
X105014665Y-52743000D01*
X105297335Y-52743000D01*
X105574574Y-52687853D01*
X105835727Y-52579680D01*
X106070759Y-52422637D01*
X106270637Y-52222759D01*
X106427680Y-51987727D01*
X106452144Y-51928665D01*
X131915000Y-51928665D01*
X131915000Y-52211335D01*
X131970147Y-52488574D01*
X132078320Y-52749727D01*
X132235363Y-52984759D01*
X132435241Y-53184637D01*
X132670273Y-53341680D01*
X132931426Y-53449853D01*
X133208665Y-53505000D01*
X133491335Y-53505000D01*
X133768574Y-53449853D01*
X134029727Y-53341680D01*
X134264759Y-53184637D01*
X134464637Y-52984759D01*
X134621680Y-52749727D01*
X134729853Y-52488574D01*
X134785000Y-52211335D01*
X134785000Y-51928665D01*
X134729853Y-51651426D01*
X134621680Y-51390273D01*
X134541317Y-51270000D01*
X139531928Y-51270000D01*
X139531928Y-52870000D01*
X139544188Y-52994482D01*
X139580498Y-53114180D01*
X139639463Y-53224494D01*
X139718815Y-53321185D01*
X139815506Y-53400537D01*
X139925820Y-53459502D01*
X140045518Y-53495812D01*
X140170000Y-53508072D01*
X141770000Y-53508072D01*
X141894482Y-53495812D01*
X142014180Y-53459502D01*
X142124494Y-53400537D01*
X142221185Y-53321185D01*
X142300537Y-53224494D01*
X142359502Y-53114180D01*
X142395812Y-52994482D01*
X142408072Y-52870000D01*
X142408072Y-51270000D01*
X142395812Y-51145518D01*
X142359502Y-51025820D01*
X142300537Y-50915506D01*
X142221185Y-50818815D01*
X142124494Y-50739463D01*
X142014180Y-50680498D01*
X141894482Y-50644188D01*
X141770000Y-50631928D01*
X140170000Y-50631928D01*
X140045518Y-50644188D01*
X139925820Y-50680498D01*
X139815506Y-50739463D01*
X139718815Y-50818815D01*
X139639463Y-50915506D01*
X139580498Y-51025820D01*
X139544188Y-51145518D01*
X139531928Y-51270000D01*
X134541317Y-51270000D01*
X134464637Y-51155241D01*
X134264759Y-50955363D01*
X134029727Y-50798320D01*
X133768574Y-50690147D01*
X133491335Y-50635000D01*
X133208665Y-50635000D01*
X132931426Y-50690147D01*
X132670273Y-50798320D01*
X132435241Y-50955363D01*
X132235363Y-51155241D01*
X132078320Y-51390273D01*
X131970147Y-51651426D01*
X131915000Y-51928665D01*
X106452144Y-51928665D01*
X106535853Y-51726574D01*
X106591000Y-51449335D01*
X106591000Y-51166665D01*
X106535853Y-50889426D01*
X106427680Y-50628273D01*
X106270637Y-50393241D01*
X106070759Y-50193363D01*
X105835727Y-50036320D01*
X105574574Y-49928147D01*
X105297335Y-49873000D01*
X105014665Y-49873000D01*
X104737426Y-49928147D01*
X104476273Y-50036320D01*
X104241241Y-50193363D01*
X104041363Y-50393241D01*
X103884320Y-50628273D01*
X103776147Y-50889426D01*
X103721000Y-51166665D01*
X102722271Y-51166665D01*
X102714637Y-51155241D01*
X102514759Y-50955363D01*
X102279727Y-50798320D01*
X102018574Y-50690147D01*
X101741335Y-50635000D01*
X101458665Y-50635000D01*
X101276113Y-50671312D01*
X101038803Y-50434001D01*
X101015000Y-50404998D01*
X100899275Y-50310025D01*
X100767246Y-50239453D01*
X100623985Y-50195996D01*
X100512332Y-50184999D01*
X100512321Y-50184999D01*
X100474999Y-50181323D01*
X100437677Y-50184999D01*
X92856324Y-50184999D01*
X92819001Y-50181323D01*
X92781678Y-50184999D01*
X92781668Y-50184999D01*
X92670015Y-50195996D01*
X92526754Y-50239453D01*
X92394725Y-50310025D01*
X92279000Y-50404998D01*
X92255197Y-50434002D01*
X91945003Y-50744196D01*
X91915999Y-50767999D01*
X91874296Y-50818815D01*
X91821026Y-50883724D01*
X91804038Y-50915506D01*
X91750454Y-51015754D01*
X91706997Y-51159015D01*
X91696000Y-51270668D01*
X91696000Y-51270678D01*
X91692324Y-51308000D01*
X91696000Y-51345323D01*
X91696001Y-52693670D01*
X91692324Y-52731002D01*
X91706998Y-52879987D01*
X91750454Y-53023248D01*
X91821026Y-53155278D01*
X91877831Y-53224494D01*
X91916000Y-53271003D01*
X91944998Y-53294801D01*
X92646198Y-53996001D01*
X92669389Y-54024261D01*
X92600147Y-54191426D01*
X92545000Y-54468665D01*
X92545000Y-54751335D01*
X92581312Y-54933886D01*
X89347199Y-58168000D01*
X87063711Y-58168000D01*
X87019774Y-58124063D01*
X86850256Y-58010795D01*
X86661898Y-57932774D01*
X86461939Y-57893000D01*
X86258061Y-57893000D01*
X86058102Y-57932774D01*
X85869744Y-58010795D01*
X85700226Y-58124063D01*
X85556063Y-58268226D01*
X85442795Y-58437744D01*
X85364774Y-58626102D01*
X85325000Y-58826061D01*
X85325000Y-58893001D01*
X55192321Y-58893001D01*
X55154998Y-58889325D01*
X55117675Y-58893001D01*
X55117666Y-58893001D01*
X55006013Y-58903998D01*
X54862752Y-58947455D01*
X54730723Y-59018027D01*
X54614998Y-59113000D01*
X54591200Y-59141998D01*
X52984000Y-60749199D01*
X52984000Y-54440000D01*
X61991928Y-54440000D01*
X62004188Y-54564482D01*
X62040498Y-54684180D01*
X62099463Y-54794494D01*
X62178815Y-54891185D01*
X62275506Y-54970537D01*
X62385820Y-55029502D01*
X62505518Y-55065812D01*
X62630000Y-55078072D01*
X63214250Y-55075000D01*
X63373000Y-54916250D01*
X63373000Y-53467000D01*
X62153750Y-53467000D01*
X61995000Y-53625750D01*
X61991928Y-54440000D01*
X52984000Y-54440000D01*
X52984000Y-51214872D01*
X53137000Y-51214872D01*
X53137000Y-51655128D01*
X53222890Y-52086925D01*
X53391369Y-52493669D01*
X53635962Y-52859729D01*
X53947271Y-53171038D01*
X54313331Y-53415631D01*
X54720075Y-53584110D01*
X55151872Y-53670000D01*
X55592128Y-53670000D01*
X56023925Y-53584110D01*
X56430669Y-53415631D01*
X56796729Y-53171038D01*
X57108038Y-52859729D01*
X57352631Y-52493669D01*
X57457704Y-52240000D01*
X61991928Y-52240000D01*
X61995000Y-53054250D01*
X62153750Y-53213000D01*
X63373000Y-53213000D01*
X63373000Y-51763750D01*
X63627000Y-51763750D01*
X63627000Y-53213000D01*
X63647000Y-53213000D01*
X63647000Y-53467000D01*
X63627000Y-53467000D01*
X63627000Y-54916250D01*
X63785750Y-55075000D01*
X64370000Y-55078072D01*
X64494482Y-55065812D01*
X64614180Y-55029502D01*
X64724494Y-54970537D01*
X64821185Y-54891185D01*
X64900537Y-54794494D01*
X64959502Y-54684180D01*
X64972615Y-54640953D01*
X65199822Y-54827417D01*
X65461276Y-54967166D01*
X65744969Y-55053224D01*
X66040000Y-55082282D01*
X66335032Y-55053224D01*
X66618725Y-54967166D01*
X66880179Y-54827417D01*
X67109345Y-54639345D01*
X67297417Y-54410179D01*
X67437166Y-54148724D01*
X67523224Y-53865031D01*
X67545000Y-53643935D01*
X67545000Y-53036064D01*
X67523224Y-52814968D01*
X67437166Y-52531275D01*
X67297417Y-52269821D01*
X67109345Y-52040655D01*
X66880178Y-51852583D01*
X66618724Y-51712834D01*
X66335031Y-51626776D01*
X66040000Y-51597718D01*
X65744968Y-51626776D01*
X65461275Y-51712834D01*
X65199821Y-51852583D01*
X64972615Y-52039047D01*
X64959502Y-51995820D01*
X64900537Y-51885506D01*
X64821185Y-51788815D01*
X64724494Y-51709463D01*
X64614180Y-51650498D01*
X64494482Y-51614188D01*
X64370000Y-51601928D01*
X63785750Y-51605000D01*
X63627000Y-51763750D01*
X63373000Y-51763750D01*
X63214250Y-51605000D01*
X62630000Y-51601928D01*
X62505518Y-51614188D01*
X62385820Y-51650498D01*
X62275506Y-51709463D01*
X62178815Y-51788815D01*
X62099463Y-51885506D01*
X62040498Y-51995820D01*
X62004188Y-52115518D01*
X61991928Y-52240000D01*
X57457704Y-52240000D01*
X57521110Y-52086925D01*
X57607000Y-51655128D01*
X57607000Y-51214872D01*
X57598979Y-51174544D01*
X71289000Y-51174544D01*
X71289000Y-51441456D01*
X71341072Y-51703239D01*
X71443215Y-51949833D01*
X71591503Y-52171762D01*
X71780238Y-52360497D01*
X72002167Y-52508785D01*
X72169266Y-52578000D01*
X72002167Y-52647215D01*
X71780238Y-52795503D01*
X71591503Y-52984238D01*
X71443215Y-53206167D01*
X71341072Y-53452761D01*
X71289000Y-53714544D01*
X71289000Y-53981456D01*
X71341072Y-54243239D01*
X71443215Y-54489833D01*
X71591503Y-54711762D01*
X71780238Y-54900497D01*
X72002167Y-55048785D01*
X72169266Y-55118000D01*
X72002167Y-55187215D01*
X71780238Y-55335503D01*
X71591503Y-55524238D01*
X71443215Y-55746167D01*
X71341072Y-55992761D01*
X71289000Y-56254544D01*
X71289000Y-56521456D01*
X71341072Y-56783239D01*
X71443215Y-57029833D01*
X71591503Y-57251762D01*
X71780238Y-57440497D01*
X72002167Y-57588785D01*
X72248761Y-57690928D01*
X72510544Y-57743000D01*
X72777456Y-57743000D01*
X73039239Y-57690928D01*
X73285833Y-57588785D01*
X73507762Y-57440497D01*
X73696497Y-57251762D01*
X73844785Y-57029833D01*
X73946928Y-56783239D01*
X73999000Y-56521456D01*
X73999000Y-56254544D01*
X73946928Y-55992761D01*
X73844785Y-55746167D01*
X73696497Y-55524238D01*
X73507762Y-55335503D01*
X73285833Y-55187215D01*
X73118734Y-55118000D01*
X73285833Y-55048785D01*
X73507762Y-54900497D01*
X73696497Y-54711762D01*
X73844785Y-54489833D01*
X73865426Y-54440000D01*
X77739928Y-54440000D01*
X77752188Y-54564482D01*
X77788498Y-54684180D01*
X77847463Y-54794494D01*
X77926815Y-54891185D01*
X78023506Y-54970537D01*
X78133820Y-55029502D01*
X78253518Y-55065812D01*
X78378000Y-55078072D01*
X78962250Y-55075000D01*
X79121000Y-54916250D01*
X79121000Y-53467000D01*
X77901750Y-53467000D01*
X77743000Y-53625750D01*
X77739928Y-54440000D01*
X73865426Y-54440000D01*
X73946928Y-54243239D01*
X73999000Y-53981456D01*
X73999000Y-53714544D01*
X73946928Y-53452761D01*
X73844785Y-53206167D01*
X73696497Y-52984238D01*
X73507762Y-52795503D01*
X73285833Y-52647215D01*
X73118734Y-52578000D01*
X73285833Y-52508785D01*
X73507762Y-52360497D01*
X73628259Y-52240000D01*
X77739928Y-52240000D01*
X77743000Y-53054250D01*
X77901750Y-53213000D01*
X79121000Y-53213000D01*
X79121000Y-51763750D01*
X79375000Y-51763750D01*
X79375000Y-53213000D01*
X79395000Y-53213000D01*
X79395000Y-53467000D01*
X79375000Y-53467000D01*
X79375000Y-54916250D01*
X79533750Y-55075000D01*
X80118000Y-55078072D01*
X80242482Y-55065812D01*
X80362180Y-55029502D01*
X80472494Y-54970537D01*
X80569185Y-54891185D01*
X80648537Y-54794494D01*
X80707502Y-54684180D01*
X80720615Y-54640953D01*
X80947822Y-54827417D01*
X81209276Y-54967166D01*
X81492969Y-55053224D01*
X81788000Y-55082282D01*
X82083032Y-55053224D01*
X82366725Y-54967166D01*
X82628179Y-54827417D01*
X82857345Y-54639345D01*
X83045417Y-54410179D01*
X83185166Y-54148724D01*
X83271224Y-53865031D01*
X83293000Y-53643935D01*
X83293000Y-53036064D01*
X83271224Y-52814968D01*
X83185166Y-52531275D01*
X83045417Y-52269821D01*
X82857345Y-52040655D01*
X82628178Y-51852583D01*
X82366724Y-51712834D01*
X82083031Y-51626776D01*
X81788000Y-51597718D01*
X81492968Y-51626776D01*
X81209275Y-51712834D01*
X80947821Y-51852583D01*
X80720615Y-52039047D01*
X80707502Y-51995820D01*
X80648537Y-51885506D01*
X80569185Y-51788815D01*
X80472494Y-51709463D01*
X80362180Y-51650498D01*
X80242482Y-51614188D01*
X80118000Y-51601928D01*
X79533750Y-51605000D01*
X79375000Y-51763750D01*
X79121000Y-51763750D01*
X78962250Y-51605000D01*
X78378000Y-51601928D01*
X78253518Y-51614188D01*
X78133820Y-51650498D01*
X78023506Y-51709463D01*
X77926815Y-51788815D01*
X77847463Y-51885506D01*
X77788498Y-51995820D01*
X77752188Y-52115518D01*
X77739928Y-52240000D01*
X73628259Y-52240000D01*
X73696497Y-52171762D01*
X73844785Y-51949833D01*
X73946928Y-51703239D01*
X73999000Y-51441456D01*
X73999000Y-51174544D01*
X87037000Y-51174544D01*
X87037000Y-51441456D01*
X87089072Y-51703239D01*
X87191215Y-51949833D01*
X87339503Y-52171762D01*
X87528238Y-52360497D01*
X87750167Y-52508785D01*
X87917266Y-52578000D01*
X87750167Y-52647215D01*
X87528238Y-52795503D01*
X87339503Y-52984238D01*
X87191215Y-53206167D01*
X87089072Y-53452761D01*
X87037000Y-53714544D01*
X87037000Y-53981456D01*
X87089072Y-54243239D01*
X87191215Y-54489833D01*
X87339503Y-54711762D01*
X87528238Y-54900497D01*
X87750167Y-55048785D01*
X87917266Y-55118000D01*
X87750167Y-55187215D01*
X87528238Y-55335503D01*
X87339503Y-55524238D01*
X87191215Y-55746167D01*
X87089072Y-55992761D01*
X87037000Y-56254544D01*
X87037000Y-56521456D01*
X87089072Y-56783239D01*
X87191215Y-57029833D01*
X87339503Y-57251762D01*
X87528238Y-57440497D01*
X87750167Y-57588785D01*
X87996761Y-57690928D01*
X88258544Y-57743000D01*
X88525456Y-57743000D01*
X88787239Y-57690928D01*
X89033833Y-57588785D01*
X89255762Y-57440497D01*
X89444497Y-57251762D01*
X89592785Y-57029833D01*
X89694928Y-56783239D01*
X89747000Y-56521456D01*
X89747000Y-56254544D01*
X89694928Y-55992761D01*
X89592785Y-55746167D01*
X89444497Y-55524238D01*
X89255762Y-55335503D01*
X89033833Y-55187215D01*
X88866734Y-55118000D01*
X89033833Y-55048785D01*
X89255762Y-54900497D01*
X89444497Y-54711762D01*
X89592785Y-54489833D01*
X89694928Y-54243239D01*
X89747000Y-53981456D01*
X89747000Y-53714544D01*
X89694928Y-53452761D01*
X89592785Y-53206167D01*
X89444497Y-52984238D01*
X89255762Y-52795503D01*
X89033833Y-52647215D01*
X88866734Y-52578000D01*
X89033833Y-52508785D01*
X89255762Y-52360497D01*
X89444497Y-52171762D01*
X89592785Y-51949833D01*
X89694928Y-51703239D01*
X89747000Y-51441456D01*
X89747000Y-51174544D01*
X89694928Y-50912761D01*
X89592785Y-50666167D01*
X89444497Y-50444238D01*
X89255762Y-50255503D01*
X89033833Y-50107215D01*
X88787239Y-50005072D01*
X88525456Y-49953000D01*
X88258544Y-49953000D01*
X87996761Y-50005072D01*
X87750167Y-50107215D01*
X87528238Y-50255503D01*
X87339503Y-50444238D01*
X87191215Y-50666167D01*
X87089072Y-50912761D01*
X87037000Y-51174544D01*
X73999000Y-51174544D01*
X73946928Y-50912761D01*
X73844785Y-50666167D01*
X73696497Y-50444238D01*
X73507762Y-50255503D01*
X73285833Y-50107215D01*
X73039239Y-50005072D01*
X72777456Y-49953000D01*
X72510544Y-49953000D01*
X72248761Y-50005072D01*
X72002167Y-50107215D01*
X71780238Y-50255503D01*
X71591503Y-50444238D01*
X71443215Y-50666167D01*
X71341072Y-50912761D01*
X71289000Y-51174544D01*
X57598979Y-51174544D01*
X57521110Y-50783075D01*
X57352631Y-50376331D01*
X57108038Y-50010271D01*
X56796729Y-49698962D01*
X56430669Y-49454369D01*
X56023925Y-49285890D01*
X55592128Y-49200000D01*
X55151872Y-49200000D01*
X54720075Y-49285890D01*
X54313331Y-49454369D01*
X53947271Y-49698962D01*
X53635962Y-50010271D01*
X53391369Y-50376331D01*
X53222890Y-50783075D01*
X53137000Y-51214872D01*
X52984000Y-51214872D01*
X52984000Y-48920000D01*
X145142761Y-48920000D01*
X144940013Y-49122748D01*
G04 #@! TA.AperFunction,Conductor*
D42*
G36*
X144940013Y-49122748D02*
G01*
X144761082Y-49390537D01*
X144637832Y-49688088D01*
X144575000Y-50003967D01*
X144575000Y-50326033D01*
X144637832Y-50641912D01*
X144761082Y-50939463D01*
X144940013Y-51207252D01*
X145167748Y-51434987D01*
X145435537Y-51613918D01*
X145733088Y-51737168D01*
X146048967Y-51800000D01*
X146371033Y-51800000D01*
X146686912Y-51737168D01*
X146984463Y-51613918D01*
X147252252Y-51434987D01*
X147479987Y-51207252D01*
X147658918Y-50939463D01*
X147782168Y-50641912D01*
X147845000Y-50326033D01*
X147845000Y-50003967D01*
X147782168Y-49688088D01*
X147658918Y-49390537D01*
X147479987Y-49122748D01*
X147277239Y-48920000D01*
X148922761Y-48920000D01*
X148720013Y-49122748D01*
X148541082Y-49390537D01*
X148417832Y-49688088D01*
X148355000Y-50003967D01*
X148355000Y-50326033D01*
X148417832Y-50641912D01*
X148541082Y-50939463D01*
X148720013Y-51207252D01*
X148947748Y-51434987D01*
X149215537Y-51613918D01*
X149513088Y-51737168D01*
X149828967Y-51800000D01*
X150151033Y-51800000D01*
X150466912Y-51737168D01*
X150764463Y-51613918D01*
X151032252Y-51434987D01*
X151259987Y-51207252D01*
X151438918Y-50939463D01*
X151562168Y-50641912D01*
X151625000Y-50326033D01*
X151625000Y-50003967D01*
X151562168Y-49688088D01*
X151438918Y-49390537D01*
X151259987Y-49122748D01*
X151057239Y-48920000D01*
X155448000Y-48920000D01*
X155448000Y-62103000D01*
X149860000Y-62103000D01*
X149835224Y-62105440D01*
X149811399Y-62112667D01*
X149789443Y-62124403D01*
X149770197Y-62140197D01*
X149754403Y-62159443D01*
X149742667Y-62181399D01*
X149735440Y-62205224D01*
X149733000Y-62230000D01*
X149733000Y-90805000D01*
X149735440Y-90829776D01*
X149742667Y-90853601D01*
X149754403Y-90875557D01*
X149770197Y-90894803D01*
X149789443Y-90910597D01*
X149811399Y-90922333D01*
X149835224Y-90929560D01*
X149860000Y-90932000D01*
X155448000Y-90932000D01*
X155448000Y-103480000D01*
X52984000Y-103480000D01*
X52984000Y-100744872D01*
X53137000Y-100744872D01*
X53137000Y-101185128D01*
X53222890Y-101616925D01*
X53391369Y-102023669D01*
X53635962Y-102389729D01*
X53947271Y-102701038D01*
X54313331Y-102945631D01*
X54720075Y-103114110D01*
X55151872Y-103200000D01*
X55592128Y-103200000D01*
X56023925Y-103114110D01*
X56430669Y-102945631D01*
X56796729Y-102701038D01*
X57108038Y-102389729D01*
X57352631Y-102023669D01*
X57521110Y-101616925D01*
X57550630Y-101468514D01*
X59117000Y-101468514D01*
X59117000Y-101731486D01*
X59168304Y-101989405D01*
X59268939Y-102232359D01*
X59415038Y-102451013D01*
X59600987Y-102636962D01*
X59819641Y-102783061D01*
X60062595Y-102883696D01*
X60320514Y-102935000D01*
X60583486Y-102935000D01*
X60841405Y-102883696D01*
X61084359Y-102783061D01*
X61303013Y-102636962D01*
X61452000Y-102487975D01*
X61600987Y-102636962D01*
X61819641Y-102783061D01*
X62062595Y-102883696D01*
X62320514Y-102935000D01*
X62583486Y-102935000D01*
X62841405Y-102883696D01*
X63084359Y-102783061D01*
X63303013Y-102636962D01*
X63488962Y-102451013D01*
X63635061Y-102232359D01*
X63735696Y-101989405D01*
X63738000Y-101977822D01*
X63740304Y-101989405D01*
X63840939Y-102232359D01*
X63987038Y-102451013D01*
X64172987Y-102636962D01*
X64391641Y-102783061D01*
X64634595Y-102883696D01*
X64892514Y-102935000D01*
X65155486Y-102935000D01*
X65413405Y-102883696D01*
X65656359Y-102783061D01*
X65875013Y-102636962D01*
X66024000Y-102487975D01*
X66172987Y-102636962D01*
X66391641Y-102783061D01*
X66634595Y-102883696D01*
X66892514Y-102935000D01*
X67155486Y-102935000D01*
X67413405Y-102883696D01*
X67656359Y-102783061D01*
X67875013Y-102636962D01*
X67990706Y-102521269D01*
X68854336Y-102521269D01*
X68913797Y-102755037D01*
X69152242Y-102865934D01*
X69407740Y-102928183D01*
X69670473Y-102939390D01*
X69930344Y-102899125D01*
X70177366Y-102808935D01*
X70278203Y-102755037D01*
X70337664Y-102521269D01*
X70854336Y-102521269D01*
X70913797Y-102755037D01*
X71152242Y-102865934D01*
X71407740Y-102928183D01*
X71670473Y-102939390D01*
X71930344Y-102899125D01*
X72177366Y-102808935D01*
X72278203Y-102755037D01*
X72337664Y-102521269D01*
X71596000Y-101779605D01*
X70854336Y-102521269D01*
X70337664Y-102521269D01*
X69596000Y-101779605D01*
X68854336Y-102521269D01*
X67990706Y-102521269D01*
X68060962Y-102451013D01*
X68207061Y-102232359D01*
X68307696Y-101989405D01*
X68310970Y-101972948D01*
X68387065Y-102181366D01*
X68440963Y-102282203D01*
X68674731Y-102341664D01*
X69416395Y-101600000D01*
X69775605Y-101600000D01*
X70421621Y-102246016D01*
X70440963Y-102282203D01*
X70463554Y-102287949D01*
X70517269Y-102341664D01*
X70596000Y-102321638D01*
X70674731Y-102341664D01*
X70728446Y-102287949D01*
X70751037Y-102282203D01*
X70765683Y-102250712D01*
X71416395Y-101600000D01*
X71775605Y-101600000D01*
X72517269Y-102341664D01*
X72751037Y-102282203D01*
X72861934Y-102043758D01*
X72924183Y-101788260D01*
X72935390Y-101525527D01*
X72895125Y-101265656D01*
X72804935Y-101018634D01*
X72751037Y-100917797D01*
X72517269Y-100858336D01*
X71775605Y-101600000D01*
X71416395Y-101600000D01*
X70770379Y-100953984D01*
X70751037Y-100917797D01*
X70728446Y-100912051D01*
X70674731Y-100858336D01*
X70596000Y-100878362D01*
X70517269Y-100858336D01*
X70463554Y-100912051D01*
X70440963Y-100917797D01*
X70426317Y-100949288D01*
X69775605Y-101600000D01*
X69416395Y-101600000D01*
X69402253Y-101585858D01*
X69581858Y-101406253D01*
X69596000Y-101420395D01*
X70337664Y-100678731D01*
X70278203Y-100444963D01*
X70039758Y-100334066D01*
X69995762Y-100323347D01*
X71200107Y-100323347D01*
X71014634Y-100391065D01*
X70913797Y-100444963D01*
X70854336Y-100678731D01*
X71596000Y-101420395D01*
X72337664Y-100678731D01*
X72278203Y-100444963D01*
X72039758Y-100334066D01*
X71995762Y-100323347D01*
X72960942Y-100323347D01*
X73004879Y-100367284D01*
X73174397Y-100480552D01*
X73362755Y-100558573D01*
X73562714Y-100598347D01*
X73766592Y-100598347D01*
X73966551Y-100558573D01*
X74154909Y-100480552D01*
X74324427Y-100367284D01*
X74468590Y-100223121D01*
X74581858Y-100053603D01*
X74659879Y-99865245D01*
X74699653Y-99665286D01*
X74699653Y-99461408D01*
X74659879Y-99261449D01*
X74581858Y-99073091D01*
X74473571Y-98911027D01*
X78809037Y-98911027D01*
X78907036Y-99187978D01*
X79057183Y-99440488D01*
X79253707Y-99658854D01*
X79489056Y-99834684D01*
X79754186Y-99961222D01*
X79904974Y-100006958D01*
X80137000Y-99885817D01*
X80137000Y-98679000D01*
X78929536Y-98679000D01*
X78809037Y-98911027D01*
X74473571Y-98911027D01*
X74468590Y-98903573D01*
X74324427Y-98759410D01*
X74154909Y-98646142D01*
X73966551Y-98568121D01*
X73766592Y-98528347D01*
X73562714Y-98528347D01*
X73362755Y-98568121D01*
X73174397Y-98646142D01*
X73004879Y-98759410D01*
X72960942Y-98803347D01*
X69097975Y-98803347D01*
X69060652Y-98799671D01*
X69023329Y-98803347D01*
X69023320Y-98803347D01*
X68911667Y-98814344D01*
X68768406Y-98857801D01*
X68636377Y-98928373D01*
X68520652Y-99023346D01*
X68496854Y-99052344D01*
X67262844Y-100286355D01*
X67155486Y-100265000D01*
X66892514Y-100265000D01*
X66634595Y-100316304D01*
X66391641Y-100416939D01*
X66172987Y-100563038D01*
X66024000Y-100712025D01*
X65875013Y-100563038D01*
X65656359Y-100416939D01*
X65413405Y-100316304D01*
X65155486Y-100265000D01*
X64892514Y-100265000D01*
X64634595Y-100316304D01*
X64391641Y-100416939D01*
X64172987Y-100563038D01*
X63987038Y-100748987D01*
X63840939Y-100967641D01*
X63740304Y-101210595D01*
X63738000Y-101222178D01*
X63735696Y-101210595D01*
X63635061Y-100967641D01*
X63488962Y-100748987D01*
X63303013Y-100563038D01*
X63084359Y-100416939D01*
X62841405Y-100316304D01*
X62583486Y-100265000D01*
X62320514Y-100265000D01*
X62062595Y-100316304D01*
X61819641Y-100416939D01*
X61600987Y-100563038D01*
X61452000Y-100712025D01*
X61303013Y-100563038D01*
X61084359Y-100416939D01*
X60841405Y-100316304D01*
X60583486Y-100265000D01*
X60320514Y-100265000D01*
X60062595Y-100316304D01*
X59819641Y-100416939D01*
X59600987Y-100563038D01*
X59415038Y-100748987D01*
X59268939Y-100967641D01*
X59168304Y-101210595D01*
X59117000Y-101468514D01*
X57550630Y-101468514D01*
X57607000Y-101185128D01*
X57607000Y-100744872D01*
X57521110Y-100313075D01*
X57352631Y-99906331D01*
X57108038Y-99540271D01*
X56796729Y-99228962D01*
X56430669Y-98984369D01*
X56023925Y-98815890D01*
X55592128Y-98730000D01*
X55151872Y-98730000D01*
X54720075Y-98815890D01*
X54313331Y-98984369D01*
X53947271Y-99228962D01*
X53635962Y-99540271D01*
X53391369Y-99906331D01*
X53222890Y-100313075D01*
X53137000Y-100744872D01*
X52984000Y-100744872D01*
X52984000Y-95866000D01*
X55665928Y-95866000D01*
X55678188Y-95990482D01*
X55714498Y-96110180D01*
X55773463Y-96220494D01*
X55852815Y-96317185D01*
X55949506Y-96396537D01*
X56059820Y-96455502D01*
X56179518Y-96491812D01*
X56304000Y-96504072D01*
X57118250Y-96501000D01*
X57277000Y-96342250D01*
X57277000Y-95123000D01*
X57531000Y-95123000D01*
X57531000Y-96342250D01*
X57689750Y-96501000D01*
X58504000Y-96504072D01*
X58628482Y-96491812D01*
X58748180Y-96455502D01*
X58858494Y-96396537D01*
X58955185Y-96317185D01*
X59034537Y-96220494D01*
X59093502Y-96110180D01*
X59129812Y-95990482D01*
X59142072Y-95866000D01*
X59139000Y-95281750D01*
X58980250Y-95123000D01*
X57531000Y-95123000D01*
X57277000Y-95123000D01*
X55827750Y-95123000D01*
X55669000Y-95281750D01*
X55665928Y-95866000D01*
X52984000Y-95866000D01*
X52984000Y-85380801D01*
X55490201Y-87887003D01*
X55513999Y-87916001D01*
X55542997Y-87939799D01*
X55629724Y-88010974D01*
X55761753Y-88081546D01*
X55860657Y-88111548D01*
X55916583Y-88216179D01*
X56104655Y-88445345D01*
X56333821Y-88633417D01*
X56357362Y-88646000D01*
X56333821Y-88658583D01*
X56104655Y-88846655D01*
X55916583Y-89075821D01*
X55776834Y-89337275D01*
X55690776Y-89620968D01*
X55661718Y-89916000D01*
X55690776Y-90211032D01*
X55776834Y-90494725D01*
X55916583Y-90756179D01*
X56104655Y-90985345D01*
X56333821Y-91173417D01*
X56357362Y-91186000D01*
X56333821Y-91198583D01*
X56104655Y-91386655D01*
X55916583Y-91615821D01*
X55776834Y-91877275D01*
X55690776Y-92160968D01*
X55661718Y-92456000D01*
X55690776Y-92751032D01*
X55776834Y-93034725D01*
X55916583Y-93296179D01*
X56103047Y-93523385D01*
X56059820Y-93536498D01*
X55949506Y-93595463D01*
X55852815Y-93674815D01*
X55773463Y-93771506D01*
X55714498Y-93881820D01*
X55678188Y-94001518D01*
X55665928Y-94126000D01*
X55669000Y-94710250D01*
X55827750Y-94869000D01*
X57277000Y-94869000D01*
X57277000Y-94849000D01*
X57531000Y-94849000D01*
X57531000Y-94869000D01*
X58980250Y-94869000D01*
X59139000Y-94710250D01*
X59142072Y-94126000D01*
X59129812Y-94001518D01*
X59093502Y-93881820D01*
X59034537Y-93771506D01*
X58955185Y-93674815D01*
X58858494Y-93595463D01*
X58748180Y-93536498D01*
X58704953Y-93523385D01*
X58891417Y-93296179D01*
X58934273Y-93216000D01*
X60771680Y-93216000D01*
X60809002Y-93219676D01*
X60846324Y-93216000D01*
X60846335Y-93216000D01*
X60957988Y-93205003D01*
X61101249Y-93161546D01*
X61233278Y-93090974D01*
X61349003Y-92996001D01*
X61372806Y-92966997D01*
X65073138Y-89266665D01*
X68669000Y-89266665D01*
X68669000Y-89549335D01*
X68724147Y-89826574D01*
X68832320Y-90087727D01*
X68989363Y-90322759D01*
X69189241Y-90522637D01*
X69424273Y-90679680D01*
X69685426Y-90787853D01*
X69962665Y-90843000D01*
X70245335Y-90843000D01*
X70522574Y-90787853D01*
X70783727Y-90679680D01*
X71018759Y-90522637D01*
X71218637Y-90322759D01*
X71375680Y-90087727D01*
X71483853Y-89826574D01*
X71539000Y-89549335D01*
X71539000Y-89266665D01*
X71483853Y-88989426D01*
X71375680Y-88728273D01*
X71218637Y-88493241D01*
X71018759Y-88293363D01*
X70783727Y-88136320D01*
X70522574Y-88028147D01*
X70245335Y-87973000D01*
X69962665Y-87973000D01*
X69685426Y-88028147D01*
X69424273Y-88136320D01*
X69189241Y-88293363D01*
X68989363Y-88493241D01*
X68832320Y-88728273D01*
X68724147Y-88989426D01*
X68669000Y-89266665D01*
X65073138Y-89266665D01*
X66709803Y-87630000D01*
X73793388Y-87630000D01*
X73815785Y-87857400D01*
X73879093Y-88066098D01*
X73844498Y-88130820D01*
X73808188Y-88250518D01*
X73795928Y-88375000D01*
X73795928Y-89425000D01*
X73808188Y-89549482D01*
X73844498Y-89669180D01*
X73903463Y-89779494D01*
X73982815Y-89876185D01*
X74079506Y-89955537D01*
X74189820Y-90014502D01*
X74309518Y-90050812D01*
X74434000Y-90063072D01*
X75934000Y-90063072D01*
X76058482Y-90050812D01*
X76178180Y-90014502D01*
X76288494Y-89955537D01*
X76385185Y-89876185D01*
X76464537Y-89779494D01*
X76523502Y-89669180D01*
X76559812Y-89549482D01*
X76572072Y-89425000D01*
X76572072Y-88375000D01*
X76559812Y-88250518D01*
X76523502Y-88130820D01*
X76488907Y-88066098D01*
X76552215Y-87857400D01*
X76574612Y-87630000D01*
X76552215Y-87402600D01*
X76485885Y-87183940D01*
X76385071Y-86995331D01*
X76426275Y-86936882D01*
X76519272Y-86727337D01*
X76523541Y-86697117D01*
X78529000Y-86697117D01*
X78529000Y-87038883D01*
X78595675Y-87374081D01*
X78726463Y-87689831D01*
X78916337Y-87973998D01*
X79158002Y-88215663D01*
X79442169Y-88405537D01*
X79757919Y-88536325D01*
X80093117Y-88603000D01*
X80434883Y-88603000D01*
X80770081Y-88536325D01*
X81085831Y-88405537D01*
X81369998Y-88215663D01*
X81611663Y-87973998D01*
X81801537Y-87689831D01*
X81932325Y-87374081D01*
X81999000Y-87038883D01*
X81999000Y-86697117D01*
X81932325Y-86361919D01*
X81801537Y-86046169D01*
X81611663Y-85762002D01*
X81369998Y-85520337D01*
X81085831Y-85330463D01*
X80770081Y-85199675D01*
X80434883Y-85133000D01*
X80093117Y-85133000D01*
X79757919Y-85199675D01*
X79442169Y-85330463D01*
X79158002Y-85520337D01*
X78916337Y-85762002D01*
X78726463Y-86046169D01*
X78595675Y-86361919D01*
X78529000Y-86697117D01*
X76523541Y-86697117D01*
X76527964Y-86665810D01*
X76402163Y-86487000D01*
X75637109Y-86487000D01*
X75636400Y-86486785D01*
X75465979Y-86470000D01*
X74902021Y-86470000D01*
X74731600Y-86486785D01*
X74730891Y-86487000D01*
X73965837Y-86487000D01*
X73840036Y-86665810D01*
X73848728Y-86727337D01*
X73941725Y-86936882D01*
X73982929Y-86995331D01*
X73882115Y-87183940D01*
X73815785Y-87402600D01*
X73793388Y-87630000D01*
X66709803Y-87630000D01*
X68285613Y-86054190D01*
X73840036Y-86054190D01*
X73965837Y-86233000D01*
X75057000Y-86233000D01*
X75057000Y-85353402D01*
X75311000Y-85353402D01*
X75311000Y-86233000D01*
X76402163Y-86233000D01*
X76527964Y-86054190D01*
X76519272Y-85992663D01*
X76426275Y-85783118D01*
X76294184Y-85595742D01*
X76128076Y-85437736D01*
X75934334Y-85315172D01*
X75720404Y-85232761D01*
X75494507Y-85193669D01*
X75311000Y-85353402D01*
X75057000Y-85353402D01*
X74873493Y-85193669D01*
X74647596Y-85232761D01*
X74433666Y-85315172D01*
X74239924Y-85437736D01*
X74073816Y-85595742D01*
X73941725Y-85783118D01*
X73848728Y-85992663D01*
X73840036Y-86054190D01*
X68285613Y-86054190D01*
X72255772Y-82084032D01*
X72280147Y-82206574D01*
X72388320Y-82467727D01*
X72545363Y-82702759D01*
X72745241Y-82902637D01*
X72980273Y-83059680D01*
X73241426Y-83167853D01*
X73518665Y-83223000D01*
X73801335Y-83223000D01*
X74078574Y-83167853D01*
X74339727Y-83059680D01*
X74574759Y-82902637D01*
X74774637Y-82702759D01*
X74931680Y-82467727D01*
X75039853Y-82206574D01*
X75095000Y-81929335D01*
X75095000Y-81646665D01*
X79845000Y-81646665D01*
X79845000Y-81929335D01*
X79900147Y-82206574D01*
X80008320Y-82467727D01*
X80165363Y-82702759D01*
X80365241Y-82902637D01*
X80600273Y-83059680D01*
X80861426Y-83167853D01*
X81138665Y-83223000D01*
X81421335Y-83223000D01*
X81698574Y-83167853D01*
X81959727Y-83059680D01*
X82194759Y-82902637D01*
X82394637Y-82702759D01*
X82551680Y-82467727D01*
X82659853Y-82206574D01*
X82715000Y-81929335D01*
X82715000Y-81646665D01*
X82659853Y-81369426D01*
X82551680Y-81108273D01*
X82394637Y-80873241D01*
X82194759Y-80673363D01*
X81959727Y-80516320D01*
X81698574Y-80408147D01*
X81421335Y-80353000D01*
X81138665Y-80353000D01*
X80861426Y-80408147D01*
X80600273Y-80516320D01*
X80365241Y-80673363D01*
X80165363Y-80873241D01*
X80008320Y-81108273D01*
X79900147Y-81369426D01*
X79845000Y-81646665D01*
X75095000Y-81646665D01*
X75039853Y-81369426D01*
X74931680Y-81108273D01*
X74774637Y-80873241D01*
X74574759Y-80673363D01*
X74339727Y-80516320D01*
X74078574Y-80408147D01*
X73956032Y-80383772D01*
X78281139Y-76058665D01*
X79845000Y-76058665D01*
X79845000Y-76341335D01*
X79900147Y-76618574D01*
X80008320Y-76879727D01*
X80165363Y-77114759D01*
X80365241Y-77314637D01*
X80600273Y-77471680D01*
X80861426Y-77579853D01*
X81138665Y-77635000D01*
X81421335Y-77635000D01*
X81698574Y-77579853D01*
X81959727Y-77471680D01*
X82194759Y-77314637D01*
X82394637Y-77114759D01*
X82551680Y-76879727D01*
X82659853Y-76618574D01*
X82715000Y-76341335D01*
X82715000Y-76058665D01*
X82659853Y-75781426D01*
X82551680Y-75520273D01*
X82394637Y-75285241D01*
X82194759Y-75085363D01*
X81959727Y-74928320D01*
X81698574Y-74820147D01*
X81421335Y-74765000D01*
X81138665Y-74765000D01*
X80861426Y-74820147D01*
X80600273Y-74928320D01*
X80365241Y-75085363D01*
X80165363Y-75285241D01*
X80008320Y-75520273D01*
X79900147Y-75781426D01*
X79845000Y-76058665D01*
X78281139Y-76058665D01*
X82314805Y-72024999D01*
X92589491Y-72024999D01*
X92545000Y-72248665D01*
X92545000Y-72531335D01*
X92600147Y-72808574D01*
X92708320Y-73069727D01*
X92865363Y-73304759D01*
X93065241Y-73504637D01*
X93297759Y-73660000D01*
X93065241Y-73815363D01*
X92865363Y-74015241D01*
X92708320Y-74250273D01*
X92600147Y-74511426D01*
X92545000Y-74788665D01*
X92545000Y-75071335D01*
X92600147Y-75348574D01*
X92708320Y-75609727D01*
X92865363Y-75844759D01*
X93065241Y-76044637D01*
X93297759Y-76200000D01*
X93065241Y-76355363D01*
X92865363Y-76555241D01*
X92797543Y-76656741D01*
X89289804Y-73149003D01*
X89266001Y-73119999D01*
X89150276Y-73025026D01*
X89018247Y-72954454D01*
X88919343Y-72924452D01*
X88863417Y-72819821D01*
X88675345Y-72590655D01*
X88446179Y-72402583D01*
X88184725Y-72262834D01*
X87901032Y-72176776D01*
X87679936Y-72155000D01*
X87072064Y-72155000D01*
X86850968Y-72176776D01*
X86567275Y-72262834D01*
X86305821Y-72402583D01*
X86076655Y-72590655D01*
X85888583Y-72819821D01*
X85748834Y-73081275D01*
X85662776Y-73364968D01*
X85633718Y-73660000D01*
X85662776Y-73955032D01*
X85748834Y-74238725D01*
X85888583Y-74500179D01*
X86076655Y-74729345D01*
X86305821Y-74917417D01*
X86329362Y-74930000D01*
X86305821Y-74942583D01*
X86076655Y-75130655D01*
X85888583Y-75359821D01*
X85748834Y-75621275D01*
X85662776Y-75904968D01*
X85633718Y-76200000D01*
X85662776Y-76495032D01*
X85748834Y-76778725D01*
X85888583Y-77040179D01*
X86076655Y-77269345D01*
X86305821Y-77457417D01*
X86329362Y-77470000D01*
X86305821Y-77482583D01*
X86076655Y-77670655D01*
X85888583Y-77899821D01*
X85748834Y-78161275D01*
X85662776Y-78444968D01*
X85633718Y-78740000D01*
X85662776Y-79035032D01*
X85748834Y-79318725D01*
X85888583Y-79580179D01*
X86076655Y-79809345D01*
X86142114Y-79863066D01*
X86032613Y-79921595D01*
X85898038Y-80032038D01*
X85787595Y-80166613D01*
X85705528Y-80320149D01*
X85654992Y-80486745D01*
X85637928Y-80659999D01*
X85637928Y-81900001D01*
X85654992Y-82073255D01*
X85705528Y-82239851D01*
X85787595Y-82393387D01*
X85817435Y-82429747D01*
X85700226Y-82508063D01*
X85556063Y-82652226D01*
X85442795Y-82821744D01*
X85364774Y-83010102D01*
X85325000Y-83210061D01*
X85325000Y-83413939D01*
X85364774Y-83613898D01*
X85442795Y-83802256D01*
X85556063Y-83971774D01*
X85700226Y-84115937D01*
X85869744Y-84229205D01*
X86058102Y-84307226D01*
X86258061Y-84347000D01*
X86317329Y-84347000D01*
X86327999Y-84360001D01*
X86443724Y-84454974D01*
X86575753Y-84525546D01*
X86719014Y-84569003D01*
X86830667Y-84580000D01*
X86830676Y-84580000D01*
X86867999Y-84583676D01*
X86905322Y-84580000D01*
X91244289Y-84580000D01*
X91288226Y-84623937D01*
X91457744Y-84737205D01*
X91646102Y-84815226D01*
X91846061Y-84855000D01*
X91913002Y-84855000D01*
X91913002Y-85265783D01*
X91878494Y-85237463D01*
X91768180Y-85178498D01*
X91648482Y-85142188D01*
X91524000Y-85129928D01*
X89324000Y-85129928D01*
X89199518Y-85142188D01*
X89079820Y-85178498D01*
X88969506Y-85237463D01*
X88872815Y-85316815D01*
X88793463Y-85413506D01*
X88734498Y-85523820D01*
X88698188Y-85643518D01*
X88685928Y-85768000D01*
X88685928Y-87968000D01*
X88698188Y-88092482D01*
X88734498Y-88212180D01*
X88793463Y-88322494D01*
X88872815Y-88419185D01*
X88969506Y-88498537D01*
X89079820Y-88557502D01*
X89199518Y-88593812D01*
X89324000Y-88606072D01*
X90520496Y-88606072D01*
X85513180Y-93613389D01*
X75335944Y-93613389D01*
X75298611Y-93609712D01*
X75261278Y-93613389D01*
X75149625Y-93624386D01*
X75006364Y-93667843D01*
X74874335Y-93738415D01*
X74758610Y-93833388D01*
X74734812Y-93862387D01*
X74252198Y-94345001D01*
X67578072Y-94345001D01*
X67578072Y-93588000D01*
X67565812Y-93463518D01*
X67529502Y-93343820D01*
X67470537Y-93233506D01*
X67391185Y-93136815D01*
X67294494Y-93057463D01*
X67184180Y-92998498D01*
X67064482Y-92962188D01*
X66940000Y-92949928D01*
X65140000Y-92949928D01*
X65015518Y-92962188D01*
X64895820Y-92998498D01*
X64785506Y-93057463D01*
X64688815Y-93136815D01*
X64609463Y-93233506D01*
X64550498Y-93343820D01*
X64544944Y-93362127D01*
X64478505Y-93295688D01*
X64227095Y-93127701D01*
X63947743Y-93011989D01*
X63651184Y-92953000D01*
X63348816Y-92953000D01*
X63052257Y-93011989D01*
X62772905Y-93127701D01*
X62521495Y-93295688D01*
X62307688Y-93509495D01*
X62139701Y-93760905D01*
X62023989Y-94040257D01*
X61965000Y-94336816D01*
X61965000Y-94639184D01*
X62023989Y-94935743D01*
X62139701Y-95215095D01*
X62307688Y-95466505D01*
X62521495Y-95680312D01*
X62772905Y-95848299D01*
X63052257Y-95964011D01*
X63348816Y-96023000D01*
X63651184Y-96023000D01*
X63947743Y-95964011D01*
X64227095Y-95848299D01*
X64478505Y-95680312D01*
X64544944Y-95613873D01*
X64550498Y-95632180D01*
X64609463Y-95742494D01*
X64688815Y-95839185D01*
X64785506Y-95918537D01*
X64895820Y-95977502D01*
X65015518Y-96013812D01*
X65140000Y-96026072D01*
X66940000Y-96026072D01*
X67064482Y-96013812D01*
X67184180Y-95977502D01*
X67294494Y-95918537D01*
X67359728Y-95865001D01*
X69261620Y-95865001D01*
X69189241Y-95913363D01*
X68989363Y-96113241D01*
X68832320Y-96348273D01*
X68724147Y-96609426D01*
X68669000Y-96886665D01*
X68669000Y-97169335D01*
X68724147Y-97446574D01*
X68832320Y-97707727D01*
X68989363Y-97942759D01*
X69189241Y-98142637D01*
X69424273Y-98299680D01*
X69685426Y-98407853D01*
X69962665Y-98463000D01*
X70245335Y-98463000D01*
X70522574Y-98407853D01*
X70783727Y-98299680D01*
X71018759Y-98142637D01*
X71218637Y-97942759D01*
X71375680Y-97707727D01*
X71483853Y-97446574D01*
X71539000Y-97169335D01*
X71539000Y-96886665D01*
X71483853Y-96609426D01*
X71375680Y-96348273D01*
X71218637Y-96113241D01*
X71018759Y-95913363D01*
X70946380Y-95865001D01*
X74529677Y-95865001D01*
X74566999Y-95868677D01*
X74604321Y-95865001D01*
X74604332Y-95865001D01*
X74715985Y-95854004D01*
X74859246Y-95810547D01*
X74991275Y-95739975D01*
X75107000Y-95645002D01*
X75130802Y-95615999D01*
X75613413Y-95133389D01*
X79048718Y-95133389D01*
X78935958Y-95302147D01*
X78822990Y-95574875D01*
X78765400Y-95864401D01*
X78765400Y-96159599D01*
X78822990Y-96449125D01*
X78935958Y-96721853D01*
X79099961Y-96967302D01*
X79308698Y-97176039D01*
X79469813Y-97283692D01*
X79253707Y-97445146D01*
X79057183Y-97663512D01*
X78907036Y-97916022D01*
X78809037Y-98192973D01*
X78929536Y-98425000D01*
X80137000Y-98425000D01*
X80137000Y-98405000D01*
X80391000Y-98405000D01*
X80391000Y-98425000D01*
X80411000Y-98425000D01*
X80411000Y-98679000D01*
X80391000Y-98679000D01*
X80391000Y-99885817D01*
X80623026Y-100006958D01*
X80773814Y-99961222D01*
X81038944Y-99834684D01*
X81274293Y-99658854D01*
X81470817Y-99440488D01*
X81529441Y-99341897D01*
X81639961Y-99507302D01*
X81848698Y-99716039D01*
X82094147Y-99880042D01*
X82366875Y-99993010D01*
X82656401Y-100050600D01*
X82951599Y-100050600D01*
X83181974Y-100004776D01*
X83428802Y-100251604D01*
X83452600Y-100280602D01*
X83568325Y-100375575D01*
X83700354Y-100446147D01*
X83843615Y-100489604D01*
X83955268Y-100500601D01*
X83955276Y-100500601D01*
X83992601Y-100504277D01*
X84029926Y-100500601D01*
X85877207Y-100500601D01*
X85914529Y-100504277D01*
X85951851Y-100500601D01*
X85951862Y-100500601D01*
X86063515Y-100489604D01*
X86206776Y-100446147D01*
X86338805Y-100375575D01*
X86454530Y-100280602D01*
X86478333Y-100251598D01*
X90335417Y-96394514D01*
X97472500Y-96394514D01*
X97472500Y-96645485D01*
X97495470Y-96878703D01*
X97586245Y-97177948D01*
X97733655Y-97453734D01*
X97932037Y-97695463D01*
X98173765Y-97893845D01*
X98449551Y-98041255D01*
X98748796Y-98132030D01*
X99060000Y-98162681D01*
X99371203Y-98132030D01*
X99670448Y-98041255D01*
X99946234Y-97893845D01*
X100187963Y-97695463D01*
X100335163Y-97516101D01*
X100490563Y-97701315D01*
X100733077Y-97895969D01*
X101008906Y-98039571D01*
X101227020Y-98110563D01*
X101473000Y-97990594D01*
X101473000Y-96647000D01*
X101453000Y-96647000D01*
X101453000Y-96393000D01*
X101473000Y-96393000D01*
X101473000Y-95049406D01*
X101727000Y-95049406D01*
X101727000Y-96393000D01*
X101747000Y-96393000D01*
X101747000Y-96647000D01*
X101727000Y-96647000D01*
X101727000Y-97990594D01*
X101972980Y-98110563D01*
X102191094Y-98039571D01*
X102466923Y-97895969D01*
X102607941Y-97782781D01*
X102656963Y-97874494D01*
X102736315Y-97971185D01*
X102833006Y-98050537D01*
X102943320Y-98109502D01*
X103063018Y-98145812D01*
X103187500Y-98158072D01*
X105092500Y-98158072D01*
X105216982Y-98145812D01*
X105336680Y-98109502D01*
X105446994Y-98050537D01*
X105543685Y-97971185D01*
X105623037Y-97874494D01*
X105682002Y-97764180D01*
X105718312Y-97644482D01*
X105730572Y-97520000D01*
X105730572Y-96394514D01*
X118300500Y-96394514D01*
X118300500Y-96645485D01*
X118323470Y-96878703D01*
X118414245Y-97177948D01*
X118561655Y-97453734D01*
X118760037Y-97695463D01*
X119001765Y-97893845D01*
X119277551Y-98041255D01*
X119576796Y-98132030D01*
X119888000Y-98162681D01*
X120199203Y-98132030D01*
X120498448Y-98041255D01*
X120774234Y-97893845D01*
X121015963Y-97695463D01*
X121163163Y-97516101D01*
X121318563Y-97701315D01*
X121561077Y-97895969D01*
X121836906Y-98039571D01*
X122055020Y-98110563D01*
X122301000Y-97990594D01*
X122301000Y-96647000D01*
X122281000Y-96647000D01*
X122281000Y-96393000D01*
X122301000Y-96393000D01*
X122301000Y-95049406D01*
X122555000Y-95049406D01*
X122555000Y-96393000D01*
X122575000Y-96393000D01*
X122575000Y-96647000D01*
X122555000Y-96647000D01*
X122555000Y-97990594D01*
X122800980Y-98110563D01*
X123019094Y-98039571D01*
X123294923Y-97895969D01*
X123435941Y-97782781D01*
X123484963Y-97874494D01*
X123564315Y-97971185D01*
X123661006Y-98050537D01*
X123771320Y-98109502D01*
X123891018Y-98145812D01*
X124015500Y-98158072D01*
X125920500Y-98158072D01*
X126044982Y-98145812D01*
X126164680Y-98109502D01*
X126274994Y-98050537D01*
X126371685Y-97971185D01*
X126451037Y-97874494D01*
X126510002Y-97764180D01*
X126546312Y-97644482D01*
X126558572Y-97520000D01*
X126558572Y-95520000D01*
X126546312Y-95395518D01*
X126510002Y-95275820D01*
X126451037Y-95165506D01*
X126371685Y-95068815D01*
X126274994Y-94989463D01*
X126164680Y-94930498D01*
X126044982Y-94894188D01*
X125920500Y-94881928D01*
X124015500Y-94881928D01*
X123891018Y-94894188D01*
X123771320Y-94930498D01*
X123661006Y-94989463D01*
X123564315Y-95068815D01*
X123484963Y-95165506D01*
X123435941Y-95257219D01*
X123294923Y-95144031D01*
X123019094Y-95000429D01*
X122800980Y-94929437D01*
X122555000Y-95049406D01*
X122301000Y-95049406D01*
X122055020Y-94929437D01*
X121836906Y-95000429D01*
X121561077Y-95144031D01*
X121318563Y-95338685D01*
X121163162Y-95523900D01*
X121015963Y-95344537D01*
X120774235Y-95146155D01*
X120498449Y-94998745D01*
X120199204Y-94907970D01*
X119888000Y-94877319D01*
X119576797Y-94907970D01*
X119277552Y-94998745D01*
X119001766Y-95146155D01*
X118760037Y-95344537D01*
X118561655Y-95586265D01*
X118414245Y-95862051D01*
X118323470Y-96161296D01*
X118300500Y-96394514D01*
X105730572Y-96394514D01*
X105730572Y-95520000D01*
X105718312Y-95395518D01*
X105682002Y-95275820D01*
X105623037Y-95165506D01*
X105543685Y-95068815D01*
X105446994Y-94989463D01*
X105336680Y-94930498D01*
X105216982Y-94894188D01*
X105092500Y-94881928D01*
X103187500Y-94881928D01*
X103063018Y-94894188D01*
X102943320Y-94930498D01*
X102833006Y-94989463D01*
X102736315Y-95068815D01*
X102656963Y-95165506D01*
X102607941Y-95257219D01*
X102466923Y-95144031D01*
X102191094Y-95000429D01*
X101972980Y-94929437D01*
X101727000Y-95049406D01*
X101473000Y-95049406D01*
X101227020Y-94929437D01*
X101008906Y-95000429D01*
X100733077Y-95144031D01*
X100490563Y-95338685D01*
X100335162Y-95523900D01*
X100187963Y-95344537D01*
X99946235Y-95146155D01*
X99670449Y-94998745D01*
X99371204Y-94907970D01*
X99060000Y-94877319D01*
X98748797Y-94907970D01*
X98449552Y-94998745D01*
X98173766Y-95146155D01*
X97932037Y-95344537D01*
X97733655Y-95586265D01*
X97586245Y-95862051D01*
X97495470Y-96161296D01*
X97472500Y-96394514D01*
X90335417Y-96394514D01*
X94415266Y-92314665D01*
X97625000Y-92314665D01*
X97625000Y-92597335D01*
X97680147Y-92874574D01*
X97788320Y-93135727D01*
X97945363Y-93370759D01*
X98145241Y-93570637D01*
X98380273Y-93727680D01*
X98641426Y-93835853D01*
X98918665Y-93891000D01*
X99201335Y-93891000D01*
X99478574Y-93835853D01*
X99739727Y-93727680D01*
X99974759Y-93570637D01*
X100174637Y-93370759D01*
X100331680Y-93135727D01*
X100439853Y-92874574D01*
X100495000Y-92597335D01*
X100495000Y-92534438D01*
X101401505Y-92534438D01*
X101440605Y-92774549D01*
X101525798Y-93002418D01*
X101566652Y-93078852D01*
X101790236Y-93126159D01*
X102460395Y-92456000D01*
X101790236Y-91785841D01*
X101566652Y-91833148D01*
X101465763Y-92054516D01*
X101410000Y-92291313D01*
X101401505Y-92534438D01*
X100495000Y-92534438D01*
X100495000Y-92314665D01*
X100439853Y-92037426D01*
X100331680Y-91776273D01*
X100218066Y-91606236D01*
X101969841Y-91606236D01*
X102640000Y-92276395D01*
X102654143Y-92262253D01*
X102833748Y-92441858D01*
X102819605Y-92456000D01*
X102833748Y-92470143D01*
X102654143Y-92649748D01*
X102640000Y-92635605D01*
X101969841Y-93305764D01*
X102017148Y-93529348D01*
X102238516Y-93630237D01*
X102475313Y-93686000D01*
X102718438Y-93694495D01*
X102958549Y-93655395D01*
X103172117Y-93575549D01*
X103185506Y-93586537D01*
X103295820Y-93645502D01*
X103415518Y-93681812D01*
X103540000Y-93694072D01*
X104740000Y-93694072D01*
X104864482Y-93681812D01*
X104984180Y-93645502D01*
X105094494Y-93586537D01*
X105191185Y-93507185D01*
X105270537Y-93410494D01*
X105329502Y-93300180D01*
X105365812Y-93180482D01*
X105378072Y-93056000D01*
X105378072Y-92314665D01*
X118453000Y-92314665D01*
X118453000Y-92597335D01*
X118508147Y-92874574D01*
X118616320Y-93135727D01*
X118773363Y-93370759D01*
X118973241Y-93570637D01*
X119208273Y-93727680D01*
X119469426Y-93835853D01*
X119746665Y-93891000D01*
X120029335Y-93891000D01*
X120306574Y-93835853D01*
X120567727Y-93727680D01*
X120802759Y-93570637D01*
X121002637Y-93370759D01*
X121159680Y-93135727D01*
X121267853Y-92874574D01*
X121323000Y-92597335D01*
X121323000Y-92534438D01*
X122229505Y-92534438D01*
X122268605Y-92774549D01*
X122353798Y-93002418D01*
X122394652Y-93078852D01*
X122618236Y-93126159D01*
X123288395Y-92456000D01*
X122618236Y-91785841D01*
X122394652Y-91833148D01*
X122293763Y-92054516D01*
X122238000Y-92291313D01*
X122229505Y-92534438D01*
X121323000Y-92534438D01*
X121323000Y-92314665D01*
X121267853Y-92037426D01*
X121159680Y-91776273D01*
X121046066Y-91606236D01*
X122797841Y-91606236D01*
X123468000Y-92276395D01*
X123482143Y-92262253D01*
X123661748Y-92441858D01*
X123647605Y-92456000D01*
X123661748Y-92470143D01*
X123482143Y-92649748D01*
X123468000Y-92635605D01*
X122797841Y-93305764D01*
X122845148Y-93529348D01*
X123066516Y-93630237D01*
X123303313Y-93686000D01*
X123546438Y-93694495D01*
X123786549Y-93655395D01*
X124000117Y-93575549D01*
X124013506Y-93586537D01*
X124123820Y-93645502D01*
X124243518Y-93681812D01*
X124368000Y-93694072D01*
X125568000Y-93694072D01*
X125692482Y-93681812D01*
X125812180Y-93645502D01*
X125922494Y-93586537D01*
X126019185Y-93507185D01*
X126098537Y-93410494D01*
X126157502Y-93300180D01*
X126193812Y-93180482D01*
X126206072Y-93056000D01*
X126206072Y-91856000D01*
X126193812Y-91731518D01*
X126157502Y-91611820D01*
X126098537Y-91501506D01*
X126019185Y-91404815D01*
X125922494Y-91325463D01*
X125812180Y-91266498D01*
X125692482Y-91230188D01*
X125568000Y-91217928D01*
X124368000Y-91217928D01*
X124243518Y-91230188D01*
X124123820Y-91266498D01*
X124013506Y-91325463D01*
X123996319Y-91339568D01*
X123869484Y-91281763D01*
X123632687Y-91226000D01*
X123389562Y-91217505D01*
X123149451Y-91256605D01*
X122921582Y-91341798D01*
X122845148Y-91382652D01*
X122797841Y-91606236D01*
X121046066Y-91606236D01*
X121002637Y-91541241D01*
X120802759Y-91341363D01*
X120602131Y-91207308D01*
X120629514Y-91192671D01*
X120701097Y-90948702D01*
X119888000Y-90135605D01*
X119074903Y-90948702D01*
X119146486Y-91192671D01*
X119175341Y-91206324D01*
X118973241Y-91341363D01*
X118773363Y-91541241D01*
X118616320Y-91776273D01*
X118508147Y-92037426D01*
X118453000Y-92314665D01*
X105378072Y-92314665D01*
X105378072Y-91856000D01*
X105365812Y-91731518D01*
X105329502Y-91611820D01*
X105270537Y-91501506D01*
X105191185Y-91404815D01*
X105094494Y-91325463D01*
X104984180Y-91266498D01*
X104864482Y-91230188D01*
X104740000Y-91217928D01*
X103540000Y-91217928D01*
X103415518Y-91230188D01*
X103295820Y-91266498D01*
X103185506Y-91325463D01*
X103168319Y-91339568D01*
X103041484Y-91281763D01*
X102804687Y-91226000D01*
X102561562Y-91217505D01*
X102321451Y-91256605D01*
X102093582Y-91341798D01*
X102017148Y-91382652D01*
X101969841Y-91606236D01*
X100218066Y-91606236D01*
X100174637Y-91541241D01*
X99974759Y-91341363D01*
X99774131Y-91207308D01*
X99801514Y-91192671D01*
X99873097Y-90948702D01*
X99060000Y-90135605D01*
X98246903Y-90948702D01*
X98318486Y-91192671D01*
X98347341Y-91206324D01*
X98145241Y-91341363D01*
X97945363Y-91541241D01*
X97788320Y-91776273D01*
X97680147Y-92037426D01*
X97625000Y-92314665D01*
X94415266Y-92314665D01*
X96703419Y-90026512D01*
X97619783Y-90026512D01*
X97661213Y-90306130D01*
X97756397Y-90572292D01*
X97823329Y-90697514D01*
X98067298Y-90769097D01*
X98880395Y-89956000D01*
X99239605Y-89956000D01*
X100052702Y-90769097D01*
X100296671Y-90697514D01*
X100417571Y-90442004D01*
X100486300Y-90167816D01*
X100493265Y-90026512D01*
X118447783Y-90026512D01*
X118489213Y-90306130D01*
X118584397Y-90572292D01*
X118651329Y-90697514D01*
X118895298Y-90769097D01*
X119708395Y-89956000D01*
X120067605Y-89956000D01*
X120880702Y-90769097D01*
X121124671Y-90697514D01*
X121245571Y-90442004D01*
X121314300Y-90167816D01*
X121328217Y-89885488D01*
X121286787Y-89605870D01*
X121191603Y-89339708D01*
X121124671Y-89214486D01*
X120880702Y-89142903D01*
X120067605Y-89956000D01*
X119708395Y-89956000D01*
X118895298Y-89142903D01*
X118651329Y-89214486D01*
X118530429Y-89469996D01*
X118461700Y-89744184D01*
X118447783Y-90026512D01*
X100493265Y-90026512D01*
X100500217Y-89885488D01*
X100458787Y-89605870D01*
X100363603Y-89339708D01*
X100296671Y-89214486D01*
X100052702Y-89142903D01*
X99239605Y-89956000D01*
X98880395Y-89956000D01*
X98067298Y-89142903D01*
X97823329Y-89214486D01*
X97702429Y-89469996D01*
X97633700Y-89744184D01*
X97619783Y-90026512D01*
X96703419Y-90026512D01*
X97766633Y-88963298D01*
X98246903Y-88963298D01*
X99060000Y-89776395D01*
X99873097Y-88963298D01*
X119074903Y-88963298D01*
X119888000Y-89776395D01*
X120701097Y-88963298D01*
X120629514Y-88719329D01*
X120374004Y-88598429D01*
X120099816Y-88529700D01*
X119817488Y-88515783D01*
X119537870Y-88557213D01*
X119271708Y-88652397D01*
X119146486Y-88719329D01*
X119074903Y-88963298D01*
X99873097Y-88963298D01*
X99801514Y-88719329D01*
X99546004Y-88598429D01*
X99271816Y-88529700D01*
X98989488Y-88515783D01*
X98709870Y-88557213D01*
X98443708Y-88652397D01*
X98318486Y-88719329D01*
X98246903Y-88963298D01*
X97766633Y-88963298D01*
X98446002Y-88283930D01*
X98475000Y-88260132D01*
X98569973Y-88144407D01*
X98640545Y-88012378D01*
X98684002Y-87869117D01*
X98694999Y-87757464D01*
X98694999Y-87757456D01*
X98698675Y-87720131D01*
X98694999Y-87682806D01*
X98694999Y-84751802D01*
X99607802Y-83839000D01*
X99669939Y-83839000D01*
X99869898Y-83799226D01*
X100058256Y-83721205D01*
X100227774Y-83607937D01*
X100371937Y-83463774D01*
X100428321Y-83379389D01*
X100485363Y-83464759D01*
X100685241Y-83664637D01*
X100917759Y-83820000D01*
X100685241Y-83975363D01*
X100485363Y-84175241D01*
X100328320Y-84410273D01*
X100220147Y-84671426D01*
X100165000Y-84948665D01*
X100165000Y-85231335D01*
X100220147Y-85508574D01*
X100328320Y-85769727D01*
X100485363Y-86004759D01*
X100685241Y-86204637D01*
X100920273Y-86361680D01*
X101181426Y-86469853D01*
X101458665Y-86525000D01*
X101741335Y-86525000D01*
X102018574Y-86469853D01*
X102279727Y-86361680D01*
X102514759Y-86204637D01*
X102714637Y-86004759D01*
X102871680Y-85769727D01*
X102979853Y-85508574D01*
X103035000Y-85231335D01*
X103035000Y-84948665D01*
X102979853Y-84671426D01*
X102871680Y-84410273D01*
X102714637Y-84175241D01*
X102514759Y-83975363D01*
X102282241Y-83820000D01*
X102514759Y-83664637D01*
X102714637Y-83464759D01*
X102871680Y-83229727D01*
X102979853Y-82968574D01*
X103035000Y-82691335D01*
X103035000Y-82437980D01*
X114217626Y-82437980D01*
X114337514Y-82722836D01*
X114661210Y-82883699D01*
X115010069Y-82978322D01*
X115370684Y-83003067D01*
X115729198Y-82956985D01*
X116071833Y-82841846D01*
X116294486Y-82722836D01*
X116414374Y-82437980D01*
X115316000Y-81339605D01*
X114217626Y-82437980D01*
X103035000Y-82437980D01*
X103035000Y-82408665D01*
X102979853Y-82131426D01*
X102871680Y-81870273D01*
X102714637Y-81635241D01*
X102514759Y-81435363D01*
X102282241Y-81280000D01*
X102379993Y-81214684D01*
X113472933Y-81214684D01*
X113519015Y-81573198D01*
X113634154Y-81915833D01*
X113753164Y-82138486D01*
X114038020Y-82258374D01*
X115136395Y-81160000D01*
X114038020Y-80061626D01*
X113753164Y-80181514D01*
X113592301Y-80505210D01*
X113497678Y-80854069D01*
X113472933Y-81214684D01*
X102379993Y-81214684D01*
X102514759Y-81124637D01*
X102714637Y-80924759D01*
X102871680Y-80689727D01*
X102979853Y-80428574D01*
X103035000Y-80151335D01*
X103035000Y-79868665D01*
X102979853Y-79591426D01*
X102871680Y-79330273D01*
X102714637Y-79095241D01*
X102514759Y-78895363D01*
X102282241Y-78740000D01*
X102514759Y-78584637D01*
X102714637Y-78384759D01*
X102871680Y-78149727D01*
X102979853Y-77888574D01*
X103035000Y-77611335D01*
X103035000Y-77328665D01*
X102979853Y-77051426D01*
X102871680Y-76790273D01*
X102714637Y-76555241D01*
X102514759Y-76355363D01*
X102282241Y-76200000D01*
X102514759Y-76044637D01*
X102714637Y-75844759D01*
X102871680Y-75609727D01*
X102979853Y-75348574D01*
X103035000Y-75071335D01*
X103035000Y-74788665D01*
X102983150Y-74528001D01*
X110130202Y-74528001D01*
X114958107Y-79355906D01*
X114902802Y-79363015D01*
X114560167Y-79478154D01*
X114337514Y-79597164D01*
X114217626Y-79882020D01*
X115316000Y-80980395D01*
X115330142Y-80966252D01*
X115509748Y-81145858D01*
X115495605Y-81160000D01*
X116593980Y-82258374D01*
X116878836Y-82138486D01*
X117039699Y-81814790D01*
X117120199Y-81517999D01*
X132590000Y-96987801D01*
X132590001Y-99746956D01*
X132435241Y-99850363D01*
X132235363Y-100050241D01*
X132078320Y-100285273D01*
X131970147Y-100546426D01*
X131915000Y-100823665D01*
X131915000Y-101106335D01*
X131970147Y-101383574D01*
X132078320Y-101644727D01*
X132235363Y-101879759D01*
X132435241Y-102079637D01*
X132670273Y-102236680D01*
X132931426Y-102344853D01*
X133208665Y-102400000D01*
X133491335Y-102400000D01*
X133768574Y-102344853D01*
X134029727Y-102236680D01*
X134264759Y-102079637D01*
X134464637Y-101879759D01*
X134621680Y-101644727D01*
X134729853Y-101383574D01*
X134785000Y-101106335D01*
X134785000Y-100823665D01*
X134729853Y-100546426D01*
X134621680Y-100285273D01*
X134541317Y-100165000D01*
X139531928Y-100165000D01*
X139531928Y-101765000D01*
X139544188Y-101889482D01*
X139580498Y-102009180D01*
X139639463Y-102119494D01*
X139718815Y-102216185D01*
X139815506Y-102295537D01*
X139925820Y-102354502D01*
X140045518Y-102390812D01*
X140170000Y-102403072D01*
X141770000Y-102403072D01*
X141894482Y-102390812D01*
X142014180Y-102354502D01*
X142124494Y-102295537D01*
X142221185Y-102216185D01*
X142300537Y-102119494D01*
X142359502Y-102009180D01*
X142395812Y-101889482D01*
X142408072Y-101765000D01*
X142408072Y-100165000D01*
X142395812Y-100040518D01*
X142359502Y-99920820D01*
X142300537Y-99810506D01*
X142221185Y-99713815D01*
X142124494Y-99634463D01*
X142014180Y-99575498D01*
X141894482Y-99539188D01*
X141841471Y-99533967D01*
X144575000Y-99533967D01*
X144575000Y-99856033D01*
X144637832Y-100171912D01*
X144761082Y-100469463D01*
X144940013Y-100737252D01*
X145167748Y-100964987D01*
X145435537Y-101143918D01*
X145733088Y-101267168D01*
X146048967Y-101330000D01*
X146371033Y-101330000D01*
X146686912Y-101267168D01*
X146984463Y-101143918D01*
X147252252Y-100964987D01*
X147479987Y-100737252D01*
X147658918Y-100469463D01*
X147782168Y-100171912D01*
X147845000Y-99856033D01*
X147845000Y-99533967D01*
X148355000Y-99533967D01*
X148355000Y-99856033D01*
X148417832Y-100171912D01*
X148541082Y-100469463D01*
X148720013Y-100737252D01*
X148947748Y-100964987D01*
X149215537Y-101143918D01*
X149513088Y-101267168D01*
X149828967Y-101330000D01*
X150151033Y-101330000D01*
X150466912Y-101267168D01*
X150764463Y-101143918D01*
X151032252Y-100964987D01*
X151259987Y-100737252D01*
X151438918Y-100469463D01*
X151562168Y-100171912D01*
X151625000Y-99856033D01*
X151625000Y-99533967D01*
X151562168Y-99218088D01*
X151438918Y-98920537D01*
X151259987Y-98652748D01*
X151032252Y-98425013D01*
X150764463Y-98246082D01*
X150466912Y-98122832D01*
X150151033Y-98060000D01*
X149828967Y-98060000D01*
X149513088Y-98122832D01*
X149215537Y-98246082D01*
X148947748Y-98425013D01*
X148720013Y-98652748D01*
X148541082Y-98920537D01*
X148417832Y-99218088D01*
X148355000Y-99533967D01*
X147845000Y-99533967D01*
X147782168Y-99218088D01*
X147658918Y-98920537D01*
X147479987Y-98652748D01*
X147252252Y-98425013D01*
X146984463Y-98246082D01*
X146686912Y-98122832D01*
X146371033Y-98060000D01*
X146048967Y-98060000D01*
X145733088Y-98122832D01*
X145435537Y-98246082D01*
X145167748Y-98425013D01*
X144940013Y-98652748D01*
X144761082Y-98920537D01*
X144637832Y-99218088D01*
X144575000Y-99533967D01*
X141841471Y-99533967D01*
X141770000Y-99526928D01*
X140170000Y-99526928D01*
X140045518Y-99539188D01*
X139925820Y-99575498D01*
X139815506Y-99634463D01*
X139718815Y-99713815D01*
X139639463Y-99810506D01*
X139580498Y-99920820D01*
X139544188Y-100040518D01*
X139531928Y-100165000D01*
X134541317Y-100165000D01*
X134464637Y-100050241D01*
X134264759Y-99850363D01*
X134110000Y-99746957D01*
X134110000Y-96710320D01*
X134113676Y-96672997D01*
X134110000Y-96635674D01*
X134110000Y-96635665D01*
X134099003Y-96524012D01*
X134055546Y-96380751D01*
X133984974Y-96248722D01*
X133961808Y-96220494D01*
X133913799Y-96161994D01*
X133913795Y-96161990D01*
X133890001Y-96132997D01*
X133861010Y-96109205D01*
X118811677Y-81059872D01*
X126035000Y-81059872D01*
X126035000Y-81500128D01*
X126120890Y-81931925D01*
X126289369Y-82338669D01*
X126533962Y-82704729D01*
X126845271Y-83016038D01*
X127211331Y-83260631D01*
X127618075Y-83429110D01*
X128049872Y-83515000D01*
X128490128Y-83515000D01*
X128921925Y-83429110D01*
X129328669Y-83260631D01*
X129694729Y-83016038D01*
X130006038Y-82704729D01*
X130250631Y-82338669D01*
X130419110Y-81931925D01*
X130505000Y-81500128D01*
X130505000Y-81229467D01*
X134665500Y-81229467D01*
X134665500Y-81551533D01*
X134728332Y-81867412D01*
X134851582Y-82164963D01*
X135030513Y-82432752D01*
X135258248Y-82660487D01*
X135526037Y-82839418D01*
X135823588Y-82962668D01*
X136139467Y-83025500D01*
X136461533Y-83025500D01*
X136777412Y-82962668D01*
X137074963Y-82839418D01*
X137342752Y-82660487D01*
X137570487Y-82432752D01*
X137749418Y-82164963D01*
X137872668Y-81867412D01*
X137935500Y-81551533D01*
X137935500Y-81229467D01*
X137872668Y-80913588D01*
X137749418Y-80616037D01*
X137570487Y-80348248D01*
X137342752Y-80120513D01*
X137074963Y-79941582D01*
X136777412Y-79818332D01*
X136461533Y-79755500D01*
X136139467Y-79755500D01*
X135823588Y-79818332D01*
X135526037Y-79941582D01*
X135258248Y-80120513D01*
X135030513Y-80348248D01*
X134851582Y-80616037D01*
X134728332Y-80913588D01*
X134665500Y-81229467D01*
X130505000Y-81229467D01*
X130505000Y-81059872D01*
X130419110Y-80628075D01*
X130250631Y-80221331D01*
X130006038Y-79855271D01*
X129694729Y-79543962D01*
X129328669Y-79299369D01*
X128921925Y-79130890D01*
X128490128Y-79045000D01*
X128049872Y-79045000D01*
X127618075Y-79130890D01*
X127211331Y-79299369D01*
X126845271Y-79543962D01*
X126533962Y-79855271D01*
X126289369Y-80221331D01*
X126120890Y-80628075D01*
X126035000Y-81059872D01*
X118811677Y-81059872D01*
X115514650Y-77762845D01*
X126886761Y-77762845D01*
X127054802Y-78088643D01*
X127446607Y-78289426D01*
X127870055Y-78409914D01*
X128308873Y-78445476D01*
X128746197Y-78394746D01*
X129165221Y-78259674D01*
X129485198Y-78088643D01*
X129653239Y-77762845D01*
X128270000Y-76379605D01*
X126886761Y-77762845D01*
X115514650Y-77762845D01*
X113990677Y-76238873D01*
X126024524Y-76238873D01*
X126075254Y-76676197D01*
X126210326Y-77095221D01*
X126381357Y-77415198D01*
X126707155Y-77583239D01*
X128090395Y-76200000D01*
X128449605Y-76200000D01*
X129832845Y-77583239D01*
X130158643Y-77415198D01*
X130359426Y-77023393D01*
X130479914Y-76599945D01*
X130515476Y-76161127D01*
X130464746Y-75723803D01*
X130329674Y-75304779D01*
X130158643Y-74984802D01*
X129832845Y-74816761D01*
X128449605Y-76200000D01*
X128090395Y-76200000D01*
X126707155Y-74816761D01*
X126381357Y-74984802D01*
X126180574Y-75376607D01*
X126060086Y-75800055D01*
X126024524Y-76238873D01*
X113990677Y-76238873D01*
X111008807Y-73257004D01*
X110985004Y-73228000D01*
X110869279Y-73133027D01*
X110737250Y-73062455D01*
X110593989Y-73018998D01*
X110482336Y-73008001D01*
X110482325Y-73008001D01*
X110445003Y-73004325D01*
X110407681Y-73008001D01*
X106055679Y-73008001D01*
X106154853Y-72768574D01*
X106210000Y-72491335D01*
X106210000Y-72460000D01*
X113477928Y-72460000D01*
X113477928Y-74860000D01*
X113490188Y-74984482D01*
X113526498Y-75104180D01*
X113585463Y-75214494D01*
X113664815Y-75311185D01*
X113761506Y-75390537D01*
X113871820Y-75449502D01*
X113991518Y-75485812D01*
X114116000Y-75498072D01*
X116516000Y-75498072D01*
X116640482Y-75485812D01*
X116760180Y-75449502D01*
X116870494Y-75390537D01*
X116967185Y-75311185D01*
X117046537Y-75214494D01*
X117105502Y-75104180D01*
X117141812Y-74984482D01*
X117154072Y-74860000D01*
X117154072Y-74637155D01*
X126886761Y-74637155D01*
X128270000Y-76020395D01*
X129653239Y-74637155D01*
X129485198Y-74311357D01*
X129093393Y-74110574D01*
X128669945Y-73990086D01*
X128231127Y-73954524D01*
X127793803Y-74005254D01*
X127374779Y-74140326D01*
X127054802Y-74311357D01*
X126886761Y-74637155D01*
X117154072Y-74637155D01*
X117154072Y-72460000D01*
X117141812Y-72335518D01*
X117105502Y-72215820D01*
X117046537Y-72105506D01*
X116967185Y-72008815D01*
X116870494Y-71929463D01*
X116760180Y-71870498D01*
X116640482Y-71834188D01*
X116516000Y-71821928D01*
X114116000Y-71821928D01*
X113991518Y-71834188D01*
X113871820Y-71870498D01*
X113761506Y-71929463D01*
X113664815Y-72008815D01*
X113585463Y-72105506D01*
X113526498Y-72215820D01*
X113490188Y-72335518D01*
X113477928Y-72460000D01*
X106210000Y-72460000D01*
X106210000Y-72208665D01*
X106154853Y-71931426D01*
X106046680Y-71670273D01*
X105889637Y-71435241D01*
X105689759Y-71235363D01*
X105489131Y-71101308D01*
X105516514Y-71086671D01*
X105571322Y-70899872D01*
X126035000Y-70899872D01*
X126035000Y-71340128D01*
X126120890Y-71771925D01*
X126289369Y-72178669D01*
X126533962Y-72544729D01*
X126845271Y-72856038D01*
X127211331Y-73100631D01*
X127618075Y-73269110D01*
X128049872Y-73355000D01*
X128490128Y-73355000D01*
X128921925Y-73269110D01*
X129328669Y-73100631D01*
X129694729Y-72856038D01*
X130006038Y-72544729D01*
X130250631Y-72178669D01*
X130419110Y-71771925D01*
X130505000Y-71340128D01*
X130505000Y-71229467D01*
X134665500Y-71229467D01*
X134665500Y-71551533D01*
X134728332Y-71867412D01*
X134851582Y-72164963D01*
X135030513Y-72432752D01*
X135258248Y-72660487D01*
X135526037Y-72839418D01*
X135823588Y-72962668D01*
X136139467Y-73025500D01*
X136461533Y-73025500D01*
X136777412Y-72962668D01*
X137074963Y-72839418D01*
X137342752Y-72660487D01*
X137570487Y-72432752D01*
X137749418Y-72164963D01*
X137872668Y-71867412D01*
X137935500Y-71551533D01*
X137935500Y-71229467D01*
X137872668Y-70913588D01*
X137749418Y-70616037D01*
X137570487Y-70348248D01*
X137342752Y-70120513D01*
X137074963Y-69941582D01*
X136777412Y-69818332D01*
X136461533Y-69755500D01*
X136139467Y-69755500D01*
X135823588Y-69818332D01*
X135526037Y-69941582D01*
X135258248Y-70120513D01*
X135030513Y-70348248D01*
X134851582Y-70616037D01*
X134728332Y-70913588D01*
X134665500Y-71229467D01*
X130505000Y-71229467D01*
X130505000Y-70899872D01*
X130419110Y-70468075D01*
X130250631Y-70061331D01*
X130006038Y-69695271D01*
X129694729Y-69383962D01*
X129328669Y-69139369D01*
X128921925Y-68970890D01*
X128490128Y-68885000D01*
X128049872Y-68885000D01*
X127618075Y-68970890D01*
X127211331Y-69139369D01*
X126845271Y-69383962D01*
X126533962Y-69695271D01*
X126289369Y-70061331D01*
X126120890Y-70468075D01*
X126035000Y-70899872D01*
X105571322Y-70899872D01*
X105588097Y-70842702D01*
X104775000Y-70029605D01*
X103961903Y-70842702D01*
X104033486Y-71086671D01*
X104062341Y-71100324D01*
X103860241Y-71235363D01*
X103660363Y-71435241D01*
X103503320Y-71670273D01*
X103395147Y-71931426D01*
X103340000Y-72208665D01*
X103340000Y-72491335D01*
X103395147Y-72768574D01*
X103494321Y-73008001D01*
X102897248Y-73008001D01*
X102979853Y-72808574D01*
X103035000Y-72531335D01*
X103035000Y-72248665D01*
X102979853Y-71971426D01*
X102871680Y-71710273D01*
X102714637Y-71475241D01*
X102514759Y-71275363D01*
X102282241Y-71120000D01*
X102514759Y-70964637D01*
X102714637Y-70764759D01*
X102871680Y-70529727D01*
X102979853Y-70268574D01*
X103035000Y-69991335D01*
X103035000Y-69920512D01*
X103334783Y-69920512D01*
X103376213Y-70200130D01*
X103471397Y-70466292D01*
X103538329Y-70591514D01*
X103782298Y-70663097D01*
X104595395Y-69850000D01*
X104954605Y-69850000D01*
X105767702Y-70663097D01*
X106011671Y-70591514D01*
X106132571Y-70336004D01*
X106201300Y-70061816D01*
X106215217Y-69779488D01*
X106173787Y-69499870D01*
X106078603Y-69233708D01*
X106011671Y-69108486D01*
X105767702Y-69036903D01*
X104954605Y-69850000D01*
X104595395Y-69850000D01*
X103782298Y-69036903D01*
X103538329Y-69108486D01*
X103417429Y-69363996D01*
X103348700Y-69638184D01*
X103334783Y-69920512D01*
X103035000Y-69920512D01*
X103035000Y-69708665D01*
X102979853Y-69431426D01*
X102871680Y-69170273D01*
X102714637Y-68935241D01*
X102636694Y-68857298D01*
X103961903Y-68857298D01*
X104775000Y-69670395D01*
X105588097Y-68857298D01*
X105516514Y-68613329D01*
X105261004Y-68492429D01*
X104986816Y-68423700D01*
X104704488Y-68409783D01*
X104424870Y-68451213D01*
X104158708Y-68546397D01*
X104033486Y-68613329D01*
X103961903Y-68857298D01*
X102636694Y-68857298D01*
X102514759Y-68735363D01*
X102279727Y-68578320D01*
X102269135Y-68573933D01*
X102455131Y-68462385D01*
X102663519Y-68273414D01*
X102831037Y-68047420D01*
X102951246Y-67793087D01*
X102991904Y-67659039D01*
X102869915Y-67437000D01*
X101727000Y-67437000D01*
X101727000Y-67457000D01*
X101473000Y-67457000D01*
X101473000Y-67437000D01*
X100330085Y-67437000D01*
X100208096Y-67659039D01*
X100248754Y-67793087D01*
X100368963Y-68047420D01*
X100536481Y-68273414D01*
X100744869Y-68462385D01*
X100930865Y-68573933D01*
X100920273Y-68578320D01*
X100685241Y-68735363D01*
X100485363Y-68935241D01*
X100328320Y-69170273D01*
X100220147Y-69431426D01*
X100165000Y-69708665D01*
X100165000Y-69991335D01*
X100202533Y-70180023D01*
X100165027Y-70225723D01*
X100127461Y-70296004D01*
X100094455Y-70357753D01*
X100050998Y-70501014D01*
X100040001Y-70612667D01*
X100040001Y-70612677D01*
X100036325Y-70649999D01*
X100040001Y-70687322D01*
X100040002Y-71552669D01*
X100036325Y-71590001D01*
X100040002Y-71627334D01*
X100050999Y-71738987D01*
X100062227Y-71776002D01*
X100094455Y-71882247D01*
X100165027Y-72014277D01*
X100202533Y-72059977D01*
X100165000Y-72248665D01*
X100165000Y-72531335D01*
X100220147Y-72808574D01*
X100302752Y-73008001D01*
X97546634Y-73008001D01*
X97515226Y-72850102D01*
X97437205Y-72661744D01*
X97323937Y-72492226D01*
X97179774Y-72348063D01*
X97010256Y-72234795D01*
X96821898Y-72156774D01*
X96621939Y-72117000D01*
X96418061Y-72117000D01*
X96218102Y-72156774D01*
X96029744Y-72234795D01*
X95860226Y-72348063D01*
X95716063Y-72492226D01*
X95602795Y-72661744D01*
X95524774Y-72850102D01*
X95485000Y-73050061D01*
X95485000Y-73112198D01*
X94827066Y-73770132D01*
X94662241Y-73660000D01*
X94894759Y-73504637D01*
X95094637Y-73304759D01*
X95251680Y-73069727D01*
X95359853Y-72808574D01*
X95415000Y-72531335D01*
X95415000Y-72248665D01*
X95359853Y-71971426D01*
X95330623Y-71900858D01*
X95332279Y-71899973D01*
X95448004Y-71805000D01*
X95471807Y-71775996D01*
X97756004Y-69491800D01*
X97785002Y-69468002D01*
X97879975Y-69352277D01*
X97950547Y-69220248D01*
X97994004Y-69076987D01*
X98005001Y-68965334D01*
X98005001Y-68965325D01*
X98008677Y-68928002D01*
X98005001Y-68890679D01*
X98005001Y-64359800D01*
X100165000Y-62199802D01*
X100165000Y-62371335D01*
X100220147Y-62648574D01*
X100328320Y-62909727D01*
X100485363Y-63144759D01*
X100685241Y-63344637D01*
X100917759Y-63500000D01*
X100685241Y-63655363D01*
X100485363Y-63855241D01*
X100328320Y-64090273D01*
X100220147Y-64351426D01*
X100165000Y-64628665D01*
X100165000Y-64911335D01*
X100220147Y-65188574D01*
X100328320Y-65449727D01*
X100485363Y-65684759D01*
X100685241Y-65884637D01*
X100920273Y-66041680D01*
X100930865Y-66046067D01*
X100744869Y-66157615D01*
X100536481Y-66346586D01*
X100368963Y-66572580D01*
X100248754Y-66826913D01*
X100208096Y-66960961D01*
X100330085Y-67183000D01*
X101473000Y-67183000D01*
X101473000Y-67163000D01*
X101727000Y-67163000D01*
X101727000Y-67183000D01*
X102869915Y-67183000D01*
X102991904Y-66960961D01*
X102951246Y-66826913D01*
X102831037Y-66572580D01*
X102663519Y-66346586D01*
X102455131Y-66157615D01*
X102269135Y-66046067D01*
X102279727Y-66041680D01*
X102514759Y-65884637D01*
X102714637Y-65684759D01*
X102871680Y-65449727D01*
X102979853Y-65188574D01*
X103035000Y-64911335D01*
X103035000Y-64628665D01*
X102998688Y-64446114D01*
X103004802Y-64440000D01*
X126031928Y-64440000D01*
X126031928Y-67640000D01*
X126044188Y-67764482D01*
X126080498Y-67884180D01*
X126139463Y-67994494D01*
X126218815Y-68091185D01*
X126315506Y-68170537D01*
X126425820Y-68229502D01*
X126545518Y-68265812D01*
X126670000Y-68278072D01*
X129870000Y-68278072D01*
X129994482Y-68265812D01*
X130114180Y-68229502D01*
X130224494Y-68170537D01*
X130321185Y-68091185D01*
X130400537Y-67994494D01*
X130459502Y-67884180D01*
X130495812Y-67764482D01*
X130508072Y-67640000D01*
X130508072Y-64440000D01*
X130495812Y-64315518D01*
X130459502Y-64195820D01*
X130400537Y-64085506D01*
X130321185Y-63988815D01*
X130224494Y-63909463D01*
X130114180Y-63850498D01*
X129994482Y-63814188D01*
X129870000Y-63801928D01*
X126670000Y-63801928D01*
X126545518Y-63814188D01*
X126425820Y-63850498D01*
X126315506Y-63909463D01*
X126218815Y-63988815D01*
X126139463Y-64085506D01*
X126080498Y-64195820D01*
X126044188Y-64315518D01*
X126031928Y-64440000D01*
X103004802Y-64440000D01*
X104143003Y-63301799D01*
X104172001Y-63278001D01*
X104203724Y-63239347D01*
X104266974Y-63162277D01*
X104282099Y-63133980D01*
X115741626Y-63133980D01*
X115861514Y-63418836D01*
X116185210Y-63579699D01*
X116534069Y-63674322D01*
X116894684Y-63699067D01*
X117253198Y-63652985D01*
X117595833Y-63537846D01*
X117818486Y-63418836D01*
X117938374Y-63133980D01*
X116840000Y-62035605D01*
X115741626Y-63133980D01*
X104282099Y-63133980D01*
X104337546Y-63030247D01*
X104349648Y-62990350D01*
X104381003Y-62886986D01*
X104392000Y-62775333D01*
X104392000Y-62775323D01*
X104395676Y-62738000D01*
X104392000Y-62700677D01*
X104392000Y-61910684D01*
X114996933Y-61910684D01*
X115043015Y-62269198D01*
X115158154Y-62611833D01*
X115277164Y-62834486D01*
X115562020Y-62954374D01*
X116660395Y-61856000D01*
X117019605Y-61856000D01*
X118117980Y-62954374D01*
X118402836Y-62834486D01*
X118563699Y-62510790D01*
X118658322Y-62161931D01*
X118683067Y-61801316D01*
X118636985Y-61442802D01*
X118521846Y-61100167D01*
X118402836Y-60877514D01*
X118117980Y-60757626D01*
X117019605Y-61856000D01*
X116660395Y-61856000D01*
X115562020Y-60757626D01*
X115277164Y-60877514D01*
X115116301Y-61201210D01*
X115021678Y-61550069D01*
X114996933Y-61910684D01*
X104392000Y-61910684D01*
X104392000Y-60578020D01*
X115741626Y-60578020D01*
X116840000Y-61676395D01*
X117938374Y-60578020D01*
X117818486Y-60293164D01*
X117494790Y-60132301D01*
X117145931Y-60037678D01*
X116785316Y-60012933D01*
X116426802Y-60059015D01*
X116084167Y-60174154D01*
X115861514Y-60293164D01*
X115741626Y-60578020D01*
X104392000Y-60578020D01*
X104392000Y-60143371D01*
X104476273Y-60199680D01*
X104737426Y-60307853D01*
X105014665Y-60363000D01*
X105297335Y-60363000D01*
X105574574Y-60307853D01*
X105835727Y-60199680D01*
X106070759Y-60042637D01*
X106270637Y-59842759D01*
X106427680Y-59607727D01*
X106535853Y-59346574D01*
X106591000Y-59069335D01*
X106591000Y-58786665D01*
X106535853Y-58509426D01*
X106427680Y-58248273D01*
X106270637Y-58013241D01*
X106070759Y-57813363D01*
X105835727Y-57656320D01*
X105574574Y-57548147D01*
X105297335Y-57493000D01*
X105014665Y-57493000D01*
X104737426Y-57548147D01*
X104476273Y-57656320D01*
X104392000Y-57712629D01*
X104392000Y-57091711D01*
X104435937Y-57047774D01*
X104549205Y-56878256D01*
X104627226Y-56689898D01*
X104667000Y-56489939D01*
X104667000Y-56286061D01*
X104627226Y-56086102D01*
X104549205Y-55897744D01*
X104435937Y-55728226D01*
X104291774Y-55584063D01*
X104122256Y-55470795D01*
X103933898Y-55392774D01*
X103733939Y-55353000D01*
X103530061Y-55353000D01*
X103330102Y-55392774D01*
X103141744Y-55470795D01*
X102972226Y-55584063D01*
X102828063Y-55728226D01*
X102714795Y-55897744D01*
X102636774Y-56086102D01*
X102624949Y-56145553D01*
X102514759Y-56035363D01*
X102282241Y-55880000D01*
X102514759Y-55724637D01*
X102714637Y-55524759D01*
X102871680Y-55289727D01*
X102979853Y-55028574D01*
X103035000Y-54751335D01*
X103035000Y-54468665D01*
X102979853Y-54191426D01*
X102871680Y-53930273D01*
X102714637Y-53695241D01*
X102514759Y-53495363D01*
X102282241Y-53340000D01*
X102514759Y-53184637D01*
X102543396Y-53156000D01*
X115001928Y-53156000D01*
X115001928Y-55556000D01*
X115014188Y-55680482D01*
X115050498Y-55800180D01*
X115109463Y-55910494D01*
X115188815Y-56007185D01*
X115285506Y-56086537D01*
X115395820Y-56145502D01*
X115515518Y-56181812D01*
X115640000Y-56194072D01*
X118040000Y-56194072D01*
X118164482Y-56181812D01*
X118284180Y-56145502D01*
X118394494Y-56086537D01*
X118491185Y-56007185D01*
X118570537Y-55910494D01*
X118629502Y-55800180D01*
X118665812Y-55680482D01*
X118678072Y-55556000D01*
X118678072Y-53156000D01*
X118665812Y-53031518D01*
X118629502Y-52911820D01*
X118570537Y-52801506D01*
X118491185Y-52704815D01*
X118394494Y-52625463D01*
X118284180Y-52566498D01*
X118164482Y-52530188D01*
X118040000Y-52517928D01*
X115640000Y-52517928D01*
X115515518Y-52530188D01*
X115395820Y-52566498D01*
X115285506Y-52625463D01*
X115188815Y-52704815D01*
X115109463Y-52801506D01*
X115050498Y-52911820D01*
X115014188Y-53031518D01*
X115001928Y-53156000D01*
X102543396Y-53156000D01*
X102714637Y-52984759D01*
X102871680Y-52749727D01*
X102979853Y-52488574D01*
X103035000Y-52211335D01*
X103035000Y-51928665D01*
X102979853Y-51651426D01*
X102871680Y-51390273D01*
X102722271Y-51166665D01*
X103721000Y-51166665D01*
X103721000Y-51449335D01*
X103776147Y-51726574D01*
X103884320Y-51987727D01*
X104041363Y-52222759D01*
X104241241Y-52422637D01*
X104476273Y-52579680D01*
X104737426Y-52687853D01*
X105014665Y-52743000D01*
X105297335Y-52743000D01*
X105574574Y-52687853D01*
X105835727Y-52579680D01*
X106070759Y-52422637D01*
X106270637Y-52222759D01*
X106427680Y-51987727D01*
X106452144Y-51928665D01*
X131915000Y-51928665D01*
X131915000Y-52211335D01*
X131970147Y-52488574D01*
X132078320Y-52749727D01*
X132235363Y-52984759D01*
X132435241Y-53184637D01*
X132670273Y-53341680D01*
X132931426Y-53449853D01*
X133208665Y-53505000D01*
X133491335Y-53505000D01*
X133768574Y-53449853D01*
X134029727Y-53341680D01*
X134264759Y-53184637D01*
X134464637Y-52984759D01*
X134621680Y-52749727D01*
X134729853Y-52488574D01*
X134785000Y-52211335D01*
X134785000Y-51928665D01*
X134729853Y-51651426D01*
X134621680Y-51390273D01*
X134541317Y-51270000D01*
X139531928Y-51270000D01*
X139531928Y-52870000D01*
X139544188Y-52994482D01*
X139580498Y-53114180D01*
X139639463Y-53224494D01*
X139718815Y-53321185D01*
X139815506Y-53400537D01*
X139925820Y-53459502D01*
X140045518Y-53495812D01*
X140170000Y-53508072D01*
X141770000Y-53508072D01*
X141894482Y-53495812D01*
X142014180Y-53459502D01*
X142124494Y-53400537D01*
X142221185Y-53321185D01*
X142300537Y-53224494D01*
X142359502Y-53114180D01*
X142395812Y-52994482D01*
X142408072Y-52870000D01*
X142408072Y-51270000D01*
X142395812Y-51145518D01*
X142359502Y-51025820D01*
X142300537Y-50915506D01*
X142221185Y-50818815D01*
X142124494Y-50739463D01*
X142014180Y-50680498D01*
X141894482Y-50644188D01*
X141770000Y-50631928D01*
X140170000Y-50631928D01*
X140045518Y-50644188D01*
X139925820Y-50680498D01*
X139815506Y-50739463D01*
X139718815Y-50818815D01*
X139639463Y-50915506D01*
X139580498Y-51025820D01*
X139544188Y-51145518D01*
X139531928Y-51270000D01*
X134541317Y-51270000D01*
X134464637Y-51155241D01*
X134264759Y-50955363D01*
X134029727Y-50798320D01*
X133768574Y-50690147D01*
X133491335Y-50635000D01*
X133208665Y-50635000D01*
X132931426Y-50690147D01*
X132670273Y-50798320D01*
X132435241Y-50955363D01*
X132235363Y-51155241D01*
X132078320Y-51390273D01*
X131970147Y-51651426D01*
X131915000Y-51928665D01*
X106452144Y-51928665D01*
X106535853Y-51726574D01*
X106591000Y-51449335D01*
X106591000Y-51166665D01*
X106535853Y-50889426D01*
X106427680Y-50628273D01*
X106270637Y-50393241D01*
X106070759Y-50193363D01*
X105835727Y-50036320D01*
X105574574Y-49928147D01*
X105297335Y-49873000D01*
X105014665Y-49873000D01*
X104737426Y-49928147D01*
X104476273Y-50036320D01*
X104241241Y-50193363D01*
X104041363Y-50393241D01*
X103884320Y-50628273D01*
X103776147Y-50889426D01*
X103721000Y-51166665D01*
X102722271Y-51166665D01*
X102714637Y-51155241D01*
X102514759Y-50955363D01*
X102279727Y-50798320D01*
X102018574Y-50690147D01*
X101741335Y-50635000D01*
X101458665Y-50635000D01*
X101276113Y-50671312D01*
X101038803Y-50434001D01*
X101015000Y-50404998D01*
X100899275Y-50310025D01*
X100767246Y-50239453D01*
X100623985Y-50195996D01*
X100512332Y-50184999D01*
X100512321Y-50184999D01*
X100474999Y-50181323D01*
X100437677Y-50184999D01*
X92856324Y-50184999D01*
X92819001Y-50181323D01*
X92781678Y-50184999D01*
X92781668Y-50184999D01*
X92670015Y-50195996D01*
X92526754Y-50239453D01*
X92394725Y-50310025D01*
X92279000Y-50404998D01*
X92255197Y-50434002D01*
X91945003Y-50744196D01*
X91915999Y-50767999D01*
X91874296Y-50818815D01*
X91821026Y-50883724D01*
X91804038Y-50915506D01*
X91750454Y-51015754D01*
X91706997Y-51159015D01*
X91696000Y-51270668D01*
X91696000Y-51270678D01*
X91692324Y-51308000D01*
X91696000Y-51345323D01*
X91696001Y-52693670D01*
X91692324Y-52731002D01*
X91706998Y-52879987D01*
X91750454Y-53023248D01*
X91821026Y-53155278D01*
X91877831Y-53224494D01*
X91916000Y-53271003D01*
X91944998Y-53294801D01*
X92646198Y-53996001D01*
X92669389Y-54024261D01*
X92600147Y-54191426D01*
X92545000Y-54468665D01*
X92545000Y-54751335D01*
X92581312Y-54933886D01*
X89347199Y-58168000D01*
X87063711Y-58168000D01*
X87019774Y-58124063D01*
X86850256Y-58010795D01*
X86661898Y-57932774D01*
X86461939Y-57893000D01*
X86258061Y-57893000D01*
X86058102Y-57932774D01*
X85869744Y-58010795D01*
X85700226Y-58124063D01*
X85556063Y-58268226D01*
X85442795Y-58437744D01*
X85364774Y-58626102D01*
X85325000Y-58826061D01*
X85325000Y-58893001D01*
X55192321Y-58893001D01*
X55154998Y-58889325D01*
X55117675Y-58893001D01*
X55117666Y-58893001D01*
X55006013Y-58903998D01*
X54862752Y-58947455D01*
X54730723Y-59018027D01*
X54614998Y-59113000D01*
X54591200Y-59141998D01*
X52984000Y-60749199D01*
X52984000Y-54440000D01*
X61991928Y-54440000D01*
X62004188Y-54564482D01*
X62040498Y-54684180D01*
X62099463Y-54794494D01*
X62178815Y-54891185D01*
X62275506Y-54970537D01*
X62385820Y-55029502D01*
X62505518Y-55065812D01*
X62630000Y-55078072D01*
X63214250Y-55075000D01*
X63373000Y-54916250D01*
X63373000Y-53467000D01*
X62153750Y-53467000D01*
X61995000Y-53625750D01*
X61991928Y-54440000D01*
X52984000Y-54440000D01*
X52984000Y-51214872D01*
X53137000Y-51214872D01*
X53137000Y-51655128D01*
X53222890Y-52086925D01*
X53391369Y-52493669D01*
X53635962Y-52859729D01*
X53947271Y-53171038D01*
X54313331Y-53415631D01*
X54720075Y-53584110D01*
X55151872Y-53670000D01*
X55592128Y-53670000D01*
X56023925Y-53584110D01*
X56430669Y-53415631D01*
X56796729Y-53171038D01*
X57108038Y-52859729D01*
X57352631Y-52493669D01*
X57457704Y-52240000D01*
X61991928Y-52240000D01*
X61995000Y-53054250D01*
X62153750Y-53213000D01*
X63373000Y-53213000D01*
X63373000Y-51763750D01*
X63627000Y-51763750D01*
X63627000Y-53213000D01*
X63647000Y-53213000D01*
X63647000Y-53467000D01*
X63627000Y-53467000D01*
X63627000Y-54916250D01*
X63785750Y-55075000D01*
X64370000Y-55078072D01*
X64494482Y-55065812D01*
X64614180Y-55029502D01*
X64724494Y-54970537D01*
X64821185Y-54891185D01*
X64900537Y-54794494D01*
X64959502Y-54684180D01*
X64972615Y-54640953D01*
X65199822Y-54827417D01*
X65461276Y-54967166D01*
X65744969Y-55053224D01*
X66040000Y-55082282D01*
X66335032Y-55053224D01*
X66618725Y-54967166D01*
X66880179Y-54827417D01*
X67109345Y-54639345D01*
X67297417Y-54410179D01*
X67437166Y-54148724D01*
X67523224Y-53865031D01*
X67545000Y-53643935D01*
X67545000Y-53036064D01*
X67523224Y-52814968D01*
X67437166Y-52531275D01*
X67297417Y-52269821D01*
X67109345Y-52040655D01*
X66880178Y-51852583D01*
X66618724Y-51712834D01*
X66335031Y-51626776D01*
X66040000Y-51597718D01*
X65744968Y-51626776D01*
X65461275Y-51712834D01*
X65199821Y-51852583D01*
X64972615Y-52039047D01*
X64959502Y-51995820D01*
X64900537Y-51885506D01*
X64821185Y-51788815D01*
X64724494Y-51709463D01*
X64614180Y-51650498D01*
X64494482Y-51614188D01*
X64370000Y-51601928D01*
X63785750Y-51605000D01*
X63627000Y-51763750D01*
X63373000Y-51763750D01*
X63214250Y-51605000D01*
X62630000Y-51601928D01*
X62505518Y-51614188D01*
X62385820Y-51650498D01*
X62275506Y-51709463D01*
X62178815Y-51788815D01*
X62099463Y-51885506D01*
X62040498Y-51995820D01*
X62004188Y-52115518D01*
X61991928Y-52240000D01*
X57457704Y-52240000D01*
X57521110Y-52086925D01*
X57607000Y-51655128D01*
X57607000Y-51214872D01*
X57598979Y-51174544D01*
X71289000Y-51174544D01*
X71289000Y-51441456D01*
X71341072Y-51703239D01*
X71443215Y-51949833D01*
X71591503Y-52171762D01*
X71780238Y-52360497D01*
X72002167Y-52508785D01*
X72169266Y-52578000D01*
X72002167Y-52647215D01*
X71780238Y-52795503D01*
X71591503Y-52984238D01*
X71443215Y-53206167D01*
X71341072Y-53452761D01*
X71289000Y-53714544D01*
X71289000Y-53981456D01*
X71341072Y-54243239D01*
X71443215Y-54489833D01*
X71591503Y-54711762D01*
X71780238Y-54900497D01*
X72002167Y-55048785D01*
X72169266Y-55118000D01*
X72002167Y-55187215D01*
X71780238Y-55335503D01*
X71591503Y-55524238D01*
X71443215Y-55746167D01*
X71341072Y-55992761D01*
X71289000Y-56254544D01*
X71289000Y-56521456D01*
X71341072Y-56783239D01*
X71443215Y-57029833D01*
X71591503Y-57251762D01*
X71780238Y-57440497D01*
X72002167Y-57588785D01*
X72248761Y-57690928D01*
X72510544Y-57743000D01*
X72777456Y-57743000D01*
X73039239Y-57690928D01*
X73285833Y-57588785D01*
X73507762Y-57440497D01*
X73696497Y-57251762D01*
X73844785Y-57029833D01*
X73946928Y-56783239D01*
X73999000Y-56521456D01*
X73999000Y-56254544D01*
X73946928Y-55992761D01*
X73844785Y-55746167D01*
X73696497Y-55524238D01*
X73507762Y-55335503D01*
X73285833Y-55187215D01*
X73118734Y-55118000D01*
X73285833Y-55048785D01*
X73507762Y-54900497D01*
X73696497Y-54711762D01*
X73844785Y-54489833D01*
X73865426Y-54440000D01*
X77739928Y-54440000D01*
X77752188Y-54564482D01*
X77788498Y-54684180D01*
X77847463Y-54794494D01*
X77926815Y-54891185D01*
X78023506Y-54970537D01*
X78133820Y-55029502D01*
X78253518Y-55065812D01*
X78378000Y-55078072D01*
X78962250Y-55075000D01*
X79121000Y-54916250D01*
X79121000Y-53467000D01*
X77901750Y-53467000D01*
X77743000Y-53625750D01*
X77739928Y-54440000D01*
X73865426Y-54440000D01*
X73946928Y-54243239D01*
X73999000Y-53981456D01*
X73999000Y-53714544D01*
X73946928Y-53452761D01*
X73844785Y-53206167D01*
X73696497Y-52984238D01*
X73507762Y-52795503D01*
X73285833Y-52647215D01*
X73118734Y-52578000D01*
X73285833Y-52508785D01*
X73507762Y-52360497D01*
X73628259Y-52240000D01*
X77739928Y-52240000D01*
X77743000Y-53054250D01*
X77901750Y-53213000D01*
X79121000Y-53213000D01*
X79121000Y-51763750D01*
X79375000Y-51763750D01*
X79375000Y-53213000D01*
X79395000Y-53213000D01*
X79395000Y-53467000D01*
X79375000Y-53467000D01*
X79375000Y-54916250D01*
X79533750Y-55075000D01*
X80118000Y-55078072D01*
X80242482Y-55065812D01*
X80362180Y-55029502D01*
X80472494Y-54970537D01*
X80569185Y-54891185D01*
X80648537Y-54794494D01*
X80707502Y-54684180D01*
X80720615Y-54640953D01*
X80947822Y-54827417D01*
X81209276Y-54967166D01*
X81492969Y-55053224D01*
X81788000Y-55082282D01*
X82083032Y-55053224D01*
X82366725Y-54967166D01*
X82628179Y-54827417D01*
X82857345Y-54639345D01*
X83045417Y-54410179D01*
X83185166Y-54148724D01*
X83271224Y-53865031D01*
X83293000Y-53643935D01*
X83293000Y-53036064D01*
X83271224Y-52814968D01*
X83185166Y-52531275D01*
X83045417Y-52269821D01*
X82857345Y-52040655D01*
X82628178Y-51852583D01*
X82366724Y-51712834D01*
X82083031Y-51626776D01*
X81788000Y-51597718D01*
X81492968Y-51626776D01*
X81209275Y-51712834D01*
X80947821Y-51852583D01*
X80720615Y-52039047D01*
X80707502Y-51995820D01*
X80648537Y-51885506D01*
X80569185Y-51788815D01*
X80472494Y-51709463D01*
X80362180Y-51650498D01*
X80242482Y-51614188D01*
X80118000Y-51601928D01*
X79533750Y-51605000D01*
X79375000Y-51763750D01*
X79121000Y-51763750D01*
X78962250Y-51605000D01*
X78378000Y-51601928D01*
X78253518Y-51614188D01*
X78133820Y-51650498D01*
X78023506Y-51709463D01*
X77926815Y-51788815D01*
X77847463Y-51885506D01*
X77788498Y-51995820D01*
X77752188Y-52115518D01*
X77739928Y-52240000D01*
X73628259Y-52240000D01*
X73696497Y-52171762D01*
X73844785Y-51949833D01*
X73946928Y-51703239D01*
X73999000Y-51441456D01*
X73999000Y-51174544D01*
X87037000Y-51174544D01*
X87037000Y-51441456D01*
X87089072Y-51703239D01*
X87191215Y-51949833D01*
X87339503Y-52171762D01*
X87528238Y-52360497D01*
X87750167Y-52508785D01*
X87917266Y-52578000D01*
X87750167Y-52647215D01*
X87528238Y-52795503D01*
X87339503Y-52984238D01*
X87191215Y-53206167D01*
X87089072Y-53452761D01*
X87037000Y-53714544D01*
X87037000Y-53981456D01*
X87089072Y-54243239D01*
X87191215Y-54489833D01*
X87339503Y-54711762D01*
X87528238Y-54900497D01*
X87750167Y-55048785D01*
X87917266Y-55118000D01*
X87750167Y-55187215D01*
X87528238Y-55335503D01*
X87339503Y-55524238D01*
X87191215Y-55746167D01*
X87089072Y-55992761D01*
X87037000Y-56254544D01*
X87037000Y-56521456D01*
X87089072Y-56783239D01*
X87191215Y-57029833D01*
X87339503Y-57251762D01*
X87528238Y-57440497D01*
X87750167Y-57588785D01*
X87996761Y-57690928D01*
X88258544Y-57743000D01*
X88525456Y-57743000D01*
X88787239Y-57690928D01*
X89033833Y-57588785D01*
X89255762Y-57440497D01*
X89444497Y-57251762D01*
X89592785Y-57029833D01*
X89694928Y-56783239D01*
X89747000Y-56521456D01*
X89747000Y-56254544D01*
X89694928Y-55992761D01*
X89592785Y-55746167D01*
X89444497Y-55524238D01*
X89255762Y-55335503D01*
X89033833Y-55187215D01*
X88866734Y-55118000D01*
X89033833Y-55048785D01*
X89255762Y-54900497D01*
X89444497Y-54711762D01*
X89592785Y-54489833D01*
X89694928Y-54243239D01*
X89747000Y-53981456D01*
X89747000Y-53714544D01*
X89694928Y-53452761D01*
X89592785Y-53206167D01*
X89444497Y-52984238D01*
X89255762Y-52795503D01*
X89033833Y-52647215D01*
X88866734Y-52578000D01*
X89033833Y-52508785D01*
X89255762Y-52360497D01*
X89444497Y-52171762D01*
X89592785Y-51949833D01*
X89694928Y-51703239D01*
X89747000Y-51441456D01*
X89747000Y-51174544D01*
X89694928Y-50912761D01*
X89592785Y-50666167D01*
X89444497Y-50444238D01*
X89255762Y-50255503D01*
X89033833Y-50107215D01*
X88787239Y-50005072D01*
X88525456Y-49953000D01*
X88258544Y-49953000D01*
X87996761Y-50005072D01*
X87750167Y-50107215D01*
X87528238Y-50255503D01*
X87339503Y-50444238D01*
X87191215Y-50666167D01*
X87089072Y-50912761D01*
X87037000Y-51174544D01*
X73999000Y-51174544D01*
X73946928Y-50912761D01*
X73844785Y-50666167D01*
X73696497Y-50444238D01*
X73507762Y-50255503D01*
X73285833Y-50107215D01*
X73039239Y-50005072D01*
X72777456Y-49953000D01*
X72510544Y-49953000D01*
X72248761Y-50005072D01*
X72002167Y-50107215D01*
X71780238Y-50255503D01*
X71591503Y-50444238D01*
X71443215Y-50666167D01*
X71341072Y-50912761D01*
X71289000Y-51174544D01*
X57598979Y-51174544D01*
X57521110Y-50783075D01*
X57352631Y-50376331D01*
X57108038Y-50010271D01*
X56796729Y-49698962D01*
X56430669Y-49454369D01*
X56023925Y-49285890D01*
X55592128Y-49200000D01*
X55151872Y-49200000D01*
X54720075Y-49285890D01*
X54313331Y-49454369D01*
X53947271Y-49698962D01*
X53635962Y-50010271D01*
X53391369Y-50376331D01*
X53222890Y-50783075D01*
X53137000Y-51214872D01*
X52984000Y-51214872D01*
X52984000Y-48920000D01*
X145142761Y-48920000D01*
X144940013Y-49122748D01*
G37*
G04 #@! TD.AperFunction*
D41*
X62242997Y-63351015D02*
X62232000Y-63462668D01*
X62232000Y-63462678D01*
X62228324Y-63500000D01*
X62232000Y-63537323D01*
X62232001Y-67884197D01*
X61823600Y-68292598D01*
X61823600Y-68198998D01*
X61658818Y-68198998D01*
X61779958Y-67966974D01*
X61734222Y-67816186D01*
X61607684Y-67551056D01*
X61431854Y-67315707D01*
X61213488Y-67119183D01*
X60960978Y-66969036D01*
X60684027Y-66871037D01*
X60452000Y-66991536D01*
X60452000Y-68199000D01*
X60472000Y-68199000D01*
X60472000Y-68453000D01*
X60452000Y-68453000D01*
X60452000Y-68473000D01*
X60198000Y-68473000D01*
X60198000Y-68453000D01*
X60178000Y-68453000D01*
X60178000Y-68199000D01*
X60198000Y-68199000D01*
X60198000Y-66991536D01*
X59965973Y-66871037D01*
X59689022Y-66969036D01*
X59436512Y-67119183D01*
X59257053Y-67280692D01*
X59238102Y-67218220D01*
X59179137Y-67107906D01*
X59099785Y-67011215D01*
X59003094Y-66931863D01*
X58892780Y-66872898D01*
X58773082Y-66836588D01*
X58648600Y-66824328D01*
X56921400Y-66824328D01*
X56796918Y-66836588D01*
X56677220Y-66872898D01*
X56566906Y-66931863D01*
X56470215Y-67011215D01*
X56390863Y-67107906D01*
X56331898Y-67218220D01*
X56295588Y-67337918D01*
X56283328Y-67462400D01*
X56283328Y-69189600D01*
X56295588Y-69314082D01*
X56331898Y-69433780D01*
X56390863Y-69544094D01*
X56470215Y-69640785D01*
X56566906Y-69720137D01*
X56677220Y-69779102D01*
X56735023Y-69796636D01*
X56620961Y-69910698D01*
X56456958Y-70156147D01*
X56343990Y-70428875D01*
X56286400Y-70718401D01*
X56286400Y-71013599D01*
X56343990Y-71303125D01*
X56456958Y-71575853D01*
X56620961Y-71821302D01*
X56829698Y-72030039D01*
X56988281Y-72136000D01*
X56829698Y-72241961D01*
X56620961Y-72450698D01*
X56456958Y-72696147D01*
X56343990Y-72968875D01*
X56286400Y-73258401D01*
X56286400Y-73553599D01*
X56343990Y-73843125D01*
X56456958Y-74115853D01*
X56586837Y-74310231D01*
X56085401Y-74811668D01*
X56056398Y-74835470D01*
X56005843Y-74897072D01*
X55961425Y-74951195D01*
X55904782Y-75057166D01*
X55890853Y-75083225D01*
X55847396Y-75226486D01*
X55836399Y-75338139D01*
X55836399Y-75338149D01*
X55832723Y-75375471D01*
X55836399Y-75412794D01*
X55836400Y-77260067D01*
X55832723Y-77297399D01*
X55836400Y-77334732D01*
X55847397Y-77446385D01*
X55855596Y-77473414D01*
X55890853Y-77589645D01*
X55961425Y-77721675D01*
X56006130Y-77776147D01*
X56056399Y-77837400D01*
X56085397Y-77861198D01*
X56332224Y-78108025D01*
X56286400Y-78338401D01*
X56286400Y-78633599D01*
X56343990Y-78923125D01*
X56456958Y-79195853D01*
X56620961Y-79441302D01*
X56829698Y-79650039D01*
X57075147Y-79814042D01*
X57347875Y-79927010D01*
X57637401Y-79984600D01*
X57932599Y-79984600D01*
X58222125Y-79927010D01*
X58494853Y-79814042D01*
X58740302Y-79650039D01*
X58949039Y-79441302D01*
X59055000Y-79282719D01*
X59160961Y-79441302D01*
X59369698Y-79650039D01*
X59615147Y-79814042D01*
X59887875Y-79927010D01*
X60177401Y-79984600D01*
X60472599Y-79984600D01*
X60762125Y-79927010D01*
X61034853Y-79814042D01*
X61280302Y-79650039D01*
X61489039Y-79441302D01*
X61653042Y-79195853D01*
X61766010Y-78923125D01*
X61823600Y-78633599D01*
X61823600Y-78338401D01*
X61766010Y-78048875D01*
X61653042Y-77776147D01*
X61489039Y-77530698D01*
X61280302Y-77321961D01*
X61121719Y-77216000D01*
X61280302Y-77110039D01*
X61489039Y-76901302D01*
X61619535Y-76706000D01*
X64119987Y-76706000D01*
X64106795Y-76725744D01*
X64028774Y-76914102D01*
X63989000Y-77114061D01*
X63989000Y-77317939D01*
X64028774Y-77517898D01*
X64106795Y-77706256D01*
X64220063Y-77875774D01*
X64364226Y-78019937D01*
X64533744Y-78133205D01*
X64722102Y-78211226D01*
X64922061Y-78251000D01*
X65125939Y-78251000D01*
X65325898Y-78211226D01*
X65514256Y-78133205D01*
X65587895Y-78084001D01*
X65864680Y-78084001D01*
X65855215Y-78098167D01*
X65753072Y-78344761D01*
X65701000Y-78606544D01*
X65701000Y-78873456D01*
X65753072Y-79135239D01*
X65855215Y-79381833D01*
X66003503Y-79603762D01*
X66192238Y-79792497D01*
X66414167Y-79940785D01*
X66582324Y-80010438D01*
X66467647Y-80052125D01*
X66361932Y-80108632D01*
X66300045Y-80344440D01*
X67056000Y-81100395D01*
X67811955Y-80344440D01*
X67750068Y-80108632D01*
X67534993Y-80008236D01*
X67697833Y-79940785D01*
X67919762Y-79792497D01*
X68108497Y-79603762D01*
X68256785Y-79381833D01*
X68358928Y-79135239D01*
X68411000Y-78873456D01*
X68411000Y-78606544D01*
X68358928Y-78344761D01*
X68256785Y-78098167D01*
X68247320Y-78084001D01*
X70656841Y-78084001D01*
X70710795Y-78214256D01*
X70824063Y-78383774D01*
X70968226Y-78527937D01*
X71137744Y-78641205D01*
X71326102Y-78719226D01*
X71526061Y-78759000D01*
X71729939Y-78759000D01*
X71929898Y-78719226D01*
X72118256Y-78641205D01*
X72287774Y-78527937D01*
X72431937Y-78383774D01*
X72545205Y-78214256D01*
X72623226Y-78025898D01*
X72663000Y-77825939D01*
X72663000Y-77622061D01*
X72623226Y-77422102D01*
X72545205Y-77233744D01*
X72431937Y-77064226D01*
X72287774Y-76920063D01*
X72118256Y-76806795D01*
X71929898Y-76728774D01*
X71729939Y-76689000D01*
X71652226Y-76689000D01*
X71520248Y-76618455D01*
X71376987Y-76574998D01*
X71265334Y-76564001D01*
X71265323Y-76564001D01*
X71228001Y-76560325D01*
X71190679Y-76564001D01*
X68365142Y-76564001D01*
X68411000Y-76333456D01*
X68411000Y-76066544D01*
X68358928Y-75804761D01*
X68256785Y-75558167D01*
X68108497Y-75336238D01*
X67919762Y-75147503D01*
X67697833Y-74999215D01*
X67451239Y-74897072D01*
X67189456Y-74845000D01*
X66922544Y-74845000D01*
X66660761Y-74897072D01*
X66431957Y-74991846D01*
X74053928Y-67369876D01*
X74053928Y-68564000D01*
X74066188Y-68688482D01*
X74102498Y-68808180D01*
X74161463Y-68918494D01*
X74240815Y-69015185D01*
X74337506Y-69094537D01*
X74447820Y-69153502D01*
X74567518Y-69189812D01*
X74692000Y-69202072D01*
X74932000Y-69202072D01*
X74932000Y-69535198D01*
X73148998Y-71318201D01*
X73120000Y-71341999D01*
X73096202Y-71370997D01*
X73096201Y-71370998D01*
X73025026Y-71457724D01*
X72954454Y-71589754D01*
X72910998Y-71733015D01*
X72896324Y-71882000D01*
X72900001Y-71919332D01*
X72900000Y-74981956D01*
X72745241Y-75085363D01*
X72545363Y-75285241D01*
X72388320Y-75520273D01*
X72280147Y-75781426D01*
X72225000Y-76058665D01*
X72225000Y-76341335D01*
X72280147Y-76618574D01*
X72388320Y-76879727D01*
X72545363Y-77114759D01*
X72745241Y-77314637D01*
X72980273Y-77471680D01*
X73241426Y-77579853D01*
X73518665Y-77635000D01*
X73801335Y-77635000D01*
X74078574Y-77579853D01*
X74339727Y-77471680D01*
X74574759Y-77314637D01*
X74774637Y-77114759D01*
X74931680Y-76879727D01*
X75039853Y-76618574D01*
X75095000Y-76341335D01*
X75095000Y-76058665D01*
X75039853Y-75781426D01*
X74931680Y-75520273D01*
X74774637Y-75285241D01*
X74574759Y-75085363D01*
X74420000Y-74981957D01*
X74420000Y-72196801D01*
X76203004Y-70413798D01*
X76232001Y-70390001D01*
X76278709Y-70333087D01*
X76326974Y-70274277D01*
X76397546Y-70142247D01*
X76407328Y-70109998D01*
X76441003Y-69998986D01*
X76452000Y-69887333D01*
X76452000Y-69887323D01*
X76455676Y-69850000D01*
X76452000Y-69812677D01*
X76452000Y-69202072D01*
X76692000Y-69202072D01*
X76816482Y-69189812D01*
X76936180Y-69153502D01*
X77046494Y-69094537D01*
X77143185Y-69015185D01*
X77222537Y-68918494D01*
X77281502Y-68808180D01*
X77317812Y-68688482D01*
X77330072Y-68564000D01*
X77330072Y-66564000D01*
X77317812Y-66439518D01*
X77281502Y-66319820D01*
X77222537Y-66209506D01*
X77143185Y-66112815D01*
X77046494Y-66033463D01*
X76936180Y-65974498D01*
X76816482Y-65938188D01*
X76692000Y-65925928D01*
X75497876Y-65925928D01*
X75893804Y-65530000D01*
X92761957Y-65530000D01*
X92865363Y-65684759D01*
X93065241Y-65884637D01*
X93297759Y-66040000D01*
X93065241Y-66195363D01*
X92865363Y-66395241D01*
X92708320Y-66630273D01*
X92600147Y-66891426D01*
X92545000Y-67168665D01*
X92545000Y-67451335D01*
X92600147Y-67728574D01*
X92681509Y-67924999D01*
X92103491Y-67924999D01*
X92184853Y-67728574D01*
X92240000Y-67451335D01*
X92240000Y-67168665D01*
X92184853Y-66891426D01*
X92076680Y-66630273D01*
X91919637Y-66395241D01*
X91719759Y-66195363D01*
X91484727Y-66038320D01*
X91223574Y-65930147D01*
X90946335Y-65875000D01*
X90663665Y-65875000D01*
X90386426Y-65930147D01*
X90125273Y-66038320D01*
X89890241Y-66195363D01*
X89690363Y-66395241D01*
X89533320Y-66630273D01*
X89425147Y-66891426D01*
X89370000Y-67168665D01*
X89370000Y-67451335D01*
X89425147Y-67728574D01*
X89506509Y-67924999D01*
X82287224Y-67924999D01*
X82327000Y-67725033D01*
X82327000Y-67402967D01*
X82264168Y-67087088D01*
X82140918Y-66789537D01*
X81961987Y-66521748D01*
X81734252Y-66294013D01*
X81466463Y-66115082D01*
X81168912Y-65991832D01*
X80853033Y-65929000D01*
X80530967Y-65929000D01*
X80215088Y-65991832D01*
X79917537Y-66115082D01*
X79649748Y-66294013D01*
X79422013Y-66521748D01*
X79243082Y-66789537D01*
X79119832Y-67087088D01*
X79057000Y-67402967D01*
X79057000Y-67725033D01*
X79119832Y-68040912D01*
X79243082Y-68338463D01*
X79422013Y-68606252D01*
X79649748Y-68833987D01*
X79917537Y-69012918D01*
X80215088Y-69136168D01*
X80530967Y-69199000D01*
X80853033Y-69199000D01*
X81168912Y-69136168D01*
X81183375Y-69130177D01*
X81249200Y-69196002D01*
X81272998Y-69225000D01*
X81301996Y-69248798D01*
X81388722Y-69319973D01*
X81471083Y-69363996D01*
X81520752Y-69390545D01*
X81664013Y-69434002D01*
X81775666Y-69444999D01*
X81775676Y-69444999D01*
X81812999Y-69448675D01*
X81850321Y-69444999D01*
X89417098Y-69444999D01*
X89378700Y-69598184D01*
X89364783Y-69880512D01*
X89406213Y-70160130D01*
X89501397Y-70426292D01*
X89543466Y-70504999D01*
X82037325Y-70504999D01*
X82000002Y-70501323D01*
X81962680Y-70504999D01*
X81962670Y-70504999D01*
X81851017Y-70515996D01*
X81733928Y-70551514D01*
X81707756Y-70559453D01*
X81575726Y-70630025D01*
X81492086Y-70698667D01*
X81460002Y-70724998D01*
X81436204Y-70753996D01*
X60494201Y-91696000D01*
X58934273Y-91696000D01*
X58891417Y-91615821D01*
X58703345Y-91386655D01*
X58474179Y-91198583D01*
X58450638Y-91186000D01*
X58474179Y-91173417D01*
X58703345Y-90985345D01*
X58891417Y-90756179D01*
X58947343Y-90651548D01*
X59046247Y-90621546D01*
X59178276Y-90550974D01*
X59294001Y-90456001D01*
X59317804Y-90426997D01*
X59438997Y-90305804D01*
X59468001Y-90282001D01*
X59562974Y-90166276D01*
X59633546Y-90034247D01*
X59677003Y-89890986D01*
X59688000Y-89779333D01*
X59688000Y-89779324D01*
X59691676Y-89742001D01*
X59688000Y-89704678D01*
X59688000Y-87017324D01*
X59691676Y-86980001D01*
X59688000Y-86942678D01*
X59688000Y-86942668D01*
X59677003Y-86831015D01*
X59633546Y-86687754D01*
X59619154Y-86660829D01*
X59562974Y-86555724D01*
X59491799Y-86468998D01*
X59468001Y-86440000D01*
X59439004Y-86416203D01*
X55238361Y-82215560D01*
X66300045Y-82215560D01*
X66361932Y-82451368D01*
X66603790Y-82564266D01*
X66863027Y-82627811D01*
X67129680Y-82639561D01*
X67393501Y-82599063D01*
X67644353Y-82507875D01*
X67750068Y-82451368D01*
X67811955Y-82215560D01*
X67056000Y-81459605D01*
X66300045Y-82215560D01*
X55238361Y-82215560D01*
X54608000Y-81585200D01*
X54608000Y-81353680D01*
X65696439Y-81353680D01*
X65736937Y-81617501D01*
X65828125Y-81868353D01*
X65884632Y-81974068D01*
X66120440Y-82035955D01*
X66876395Y-81280000D01*
X67235605Y-81280000D01*
X67991560Y-82035955D01*
X68227368Y-81974068D01*
X68340266Y-81732210D01*
X68403811Y-81472973D01*
X68415561Y-81206320D01*
X68375063Y-80942499D01*
X68283875Y-80691647D01*
X68227368Y-80585932D01*
X67991560Y-80524045D01*
X67235605Y-81280000D01*
X66876395Y-81280000D01*
X66120440Y-80524045D01*
X65884632Y-80585932D01*
X65771734Y-80827790D01*
X65708189Y-81087027D01*
X65696439Y-81353680D01*
X54608000Y-81353680D01*
X54608000Y-63814801D01*
X55183455Y-63239347D01*
X62276871Y-63239347D01*
X62242997Y-63351015D01*
G04 #@! TA.AperFunction,Conductor*
D42*
G36*
X62242997Y-63351015D02*
G01*
X62232000Y-63462668D01*
X62232000Y-63462678D01*
X62228324Y-63500000D01*
X62232000Y-63537323D01*
X62232001Y-67884197D01*
X61823600Y-68292598D01*
X61823600Y-68198998D01*
X61658818Y-68198998D01*
X61779958Y-67966974D01*
X61734222Y-67816186D01*
X61607684Y-67551056D01*
X61431854Y-67315707D01*
X61213488Y-67119183D01*
X60960978Y-66969036D01*
X60684027Y-66871037D01*
X60452000Y-66991536D01*
X60452000Y-68199000D01*
X60472000Y-68199000D01*
X60472000Y-68453000D01*
X60452000Y-68453000D01*
X60452000Y-68473000D01*
X60198000Y-68473000D01*
X60198000Y-68453000D01*
X60178000Y-68453000D01*
X60178000Y-68199000D01*
X60198000Y-68199000D01*
X60198000Y-66991536D01*
X59965973Y-66871037D01*
X59689022Y-66969036D01*
X59436512Y-67119183D01*
X59257053Y-67280692D01*
X59238102Y-67218220D01*
X59179137Y-67107906D01*
X59099785Y-67011215D01*
X59003094Y-66931863D01*
X58892780Y-66872898D01*
X58773082Y-66836588D01*
X58648600Y-66824328D01*
X56921400Y-66824328D01*
X56796918Y-66836588D01*
X56677220Y-66872898D01*
X56566906Y-66931863D01*
X56470215Y-67011215D01*
X56390863Y-67107906D01*
X56331898Y-67218220D01*
X56295588Y-67337918D01*
X56283328Y-67462400D01*
X56283328Y-69189600D01*
X56295588Y-69314082D01*
X56331898Y-69433780D01*
X56390863Y-69544094D01*
X56470215Y-69640785D01*
X56566906Y-69720137D01*
X56677220Y-69779102D01*
X56735023Y-69796636D01*
X56620961Y-69910698D01*
X56456958Y-70156147D01*
X56343990Y-70428875D01*
X56286400Y-70718401D01*
X56286400Y-71013599D01*
X56343990Y-71303125D01*
X56456958Y-71575853D01*
X56620961Y-71821302D01*
X56829698Y-72030039D01*
X56988281Y-72136000D01*
X56829698Y-72241961D01*
X56620961Y-72450698D01*
X56456958Y-72696147D01*
X56343990Y-72968875D01*
X56286400Y-73258401D01*
X56286400Y-73553599D01*
X56343990Y-73843125D01*
X56456958Y-74115853D01*
X56586837Y-74310231D01*
X56085401Y-74811668D01*
X56056398Y-74835470D01*
X56005843Y-74897072D01*
X55961425Y-74951195D01*
X55904782Y-75057166D01*
X55890853Y-75083225D01*
X55847396Y-75226486D01*
X55836399Y-75338139D01*
X55836399Y-75338149D01*
X55832723Y-75375471D01*
X55836399Y-75412794D01*
X55836400Y-77260067D01*
X55832723Y-77297399D01*
X55836400Y-77334732D01*
X55847397Y-77446385D01*
X55855596Y-77473414D01*
X55890853Y-77589645D01*
X55961425Y-77721675D01*
X56006130Y-77776147D01*
X56056399Y-77837400D01*
X56085397Y-77861198D01*
X56332224Y-78108025D01*
X56286400Y-78338401D01*
X56286400Y-78633599D01*
X56343990Y-78923125D01*
X56456958Y-79195853D01*
X56620961Y-79441302D01*
X56829698Y-79650039D01*
X57075147Y-79814042D01*
X57347875Y-79927010D01*
X57637401Y-79984600D01*
X57932599Y-79984600D01*
X58222125Y-79927010D01*
X58494853Y-79814042D01*
X58740302Y-79650039D01*
X58949039Y-79441302D01*
X59055000Y-79282719D01*
X59160961Y-79441302D01*
X59369698Y-79650039D01*
X59615147Y-79814042D01*
X59887875Y-79927010D01*
X60177401Y-79984600D01*
X60472599Y-79984600D01*
X60762125Y-79927010D01*
X61034853Y-79814042D01*
X61280302Y-79650039D01*
X61489039Y-79441302D01*
X61653042Y-79195853D01*
X61766010Y-78923125D01*
X61823600Y-78633599D01*
X61823600Y-78338401D01*
X61766010Y-78048875D01*
X61653042Y-77776147D01*
X61489039Y-77530698D01*
X61280302Y-77321961D01*
X61121719Y-77216000D01*
X61280302Y-77110039D01*
X61489039Y-76901302D01*
X61619535Y-76706000D01*
X64119987Y-76706000D01*
X64106795Y-76725744D01*
X64028774Y-76914102D01*
X63989000Y-77114061D01*
X63989000Y-77317939D01*
X64028774Y-77517898D01*
X64106795Y-77706256D01*
X64220063Y-77875774D01*
X64364226Y-78019937D01*
X64533744Y-78133205D01*
X64722102Y-78211226D01*
X64922061Y-78251000D01*
X65125939Y-78251000D01*
X65325898Y-78211226D01*
X65514256Y-78133205D01*
X65587895Y-78084001D01*
X65864680Y-78084001D01*
X65855215Y-78098167D01*
X65753072Y-78344761D01*
X65701000Y-78606544D01*
X65701000Y-78873456D01*
X65753072Y-79135239D01*
X65855215Y-79381833D01*
X66003503Y-79603762D01*
X66192238Y-79792497D01*
X66414167Y-79940785D01*
X66582324Y-80010438D01*
X66467647Y-80052125D01*
X66361932Y-80108632D01*
X66300045Y-80344440D01*
X67056000Y-81100395D01*
X67811955Y-80344440D01*
X67750068Y-80108632D01*
X67534993Y-80008236D01*
X67697833Y-79940785D01*
X67919762Y-79792497D01*
X68108497Y-79603762D01*
X68256785Y-79381833D01*
X68358928Y-79135239D01*
X68411000Y-78873456D01*
X68411000Y-78606544D01*
X68358928Y-78344761D01*
X68256785Y-78098167D01*
X68247320Y-78084001D01*
X70656841Y-78084001D01*
X70710795Y-78214256D01*
X70824063Y-78383774D01*
X70968226Y-78527937D01*
X71137744Y-78641205D01*
X71326102Y-78719226D01*
X71526061Y-78759000D01*
X71729939Y-78759000D01*
X71929898Y-78719226D01*
X72118256Y-78641205D01*
X72287774Y-78527937D01*
X72431937Y-78383774D01*
X72545205Y-78214256D01*
X72623226Y-78025898D01*
X72663000Y-77825939D01*
X72663000Y-77622061D01*
X72623226Y-77422102D01*
X72545205Y-77233744D01*
X72431937Y-77064226D01*
X72287774Y-76920063D01*
X72118256Y-76806795D01*
X71929898Y-76728774D01*
X71729939Y-76689000D01*
X71652226Y-76689000D01*
X71520248Y-76618455D01*
X71376987Y-76574998D01*
X71265334Y-76564001D01*
X71265323Y-76564001D01*
X71228001Y-76560325D01*
X71190679Y-76564001D01*
X68365142Y-76564001D01*
X68411000Y-76333456D01*
X68411000Y-76066544D01*
X68358928Y-75804761D01*
X68256785Y-75558167D01*
X68108497Y-75336238D01*
X67919762Y-75147503D01*
X67697833Y-74999215D01*
X67451239Y-74897072D01*
X67189456Y-74845000D01*
X66922544Y-74845000D01*
X66660761Y-74897072D01*
X66431957Y-74991846D01*
X74053928Y-67369876D01*
X74053928Y-68564000D01*
X74066188Y-68688482D01*
X74102498Y-68808180D01*
X74161463Y-68918494D01*
X74240815Y-69015185D01*
X74337506Y-69094537D01*
X74447820Y-69153502D01*
X74567518Y-69189812D01*
X74692000Y-69202072D01*
X74932000Y-69202072D01*
X74932000Y-69535198D01*
X73148998Y-71318201D01*
X73120000Y-71341999D01*
X73096202Y-71370997D01*
X73096201Y-71370998D01*
X73025026Y-71457724D01*
X72954454Y-71589754D01*
X72910998Y-71733015D01*
X72896324Y-71882000D01*
X72900001Y-71919332D01*
X72900000Y-74981956D01*
X72745241Y-75085363D01*
X72545363Y-75285241D01*
X72388320Y-75520273D01*
X72280147Y-75781426D01*
X72225000Y-76058665D01*
X72225000Y-76341335D01*
X72280147Y-76618574D01*
X72388320Y-76879727D01*
X72545363Y-77114759D01*
X72745241Y-77314637D01*
X72980273Y-77471680D01*
X73241426Y-77579853D01*
X73518665Y-77635000D01*
X73801335Y-77635000D01*
X74078574Y-77579853D01*
X74339727Y-77471680D01*
X74574759Y-77314637D01*
X74774637Y-77114759D01*
X74931680Y-76879727D01*
X75039853Y-76618574D01*
X75095000Y-76341335D01*
X75095000Y-76058665D01*
X75039853Y-75781426D01*
X74931680Y-75520273D01*
X74774637Y-75285241D01*
X74574759Y-75085363D01*
X74420000Y-74981957D01*
X74420000Y-72196801D01*
X76203004Y-70413798D01*
X76232001Y-70390001D01*
X76278709Y-70333087D01*
X76326974Y-70274277D01*
X76397546Y-70142247D01*
X76407328Y-70109998D01*
X76441003Y-69998986D01*
X76452000Y-69887333D01*
X76452000Y-69887323D01*
X76455676Y-69850000D01*
X76452000Y-69812677D01*
X76452000Y-69202072D01*
X76692000Y-69202072D01*
X76816482Y-69189812D01*
X76936180Y-69153502D01*
X77046494Y-69094537D01*
X77143185Y-69015185D01*
X77222537Y-68918494D01*
X77281502Y-68808180D01*
X77317812Y-68688482D01*
X77330072Y-68564000D01*
X77330072Y-66564000D01*
X77317812Y-66439518D01*
X77281502Y-66319820D01*
X77222537Y-66209506D01*
X77143185Y-66112815D01*
X77046494Y-66033463D01*
X76936180Y-65974498D01*
X76816482Y-65938188D01*
X76692000Y-65925928D01*
X75497876Y-65925928D01*
X75893804Y-65530000D01*
X92761957Y-65530000D01*
X92865363Y-65684759D01*
X93065241Y-65884637D01*
X93297759Y-66040000D01*
X93065241Y-66195363D01*
X92865363Y-66395241D01*
X92708320Y-66630273D01*
X92600147Y-66891426D01*
X92545000Y-67168665D01*
X92545000Y-67451335D01*
X92600147Y-67728574D01*
X92681509Y-67924999D01*
X92103491Y-67924999D01*
X92184853Y-67728574D01*
X92240000Y-67451335D01*
X92240000Y-67168665D01*
X92184853Y-66891426D01*
X92076680Y-66630273D01*
X91919637Y-66395241D01*
X91719759Y-66195363D01*
X91484727Y-66038320D01*
X91223574Y-65930147D01*
X90946335Y-65875000D01*
X90663665Y-65875000D01*
X90386426Y-65930147D01*
X90125273Y-66038320D01*
X89890241Y-66195363D01*
X89690363Y-66395241D01*
X89533320Y-66630273D01*
X89425147Y-66891426D01*
X89370000Y-67168665D01*
X89370000Y-67451335D01*
X89425147Y-67728574D01*
X89506509Y-67924999D01*
X82287224Y-67924999D01*
X82327000Y-67725033D01*
X82327000Y-67402967D01*
X82264168Y-67087088D01*
X82140918Y-66789537D01*
X81961987Y-66521748D01*
X81734252Y-66294013D01*
X81466463Y-66115082D01*
X81168912Y-65991832D01*
X80853033Y-65929000D01*
X80530967Y-65929000D01*
X80215088Y-65991832D01*
X79917537Y-66115082D01*
X79649748Y-66294013D01*
X79422013Y-66521748D01*
X79243082Y-66789537D01*
X79119832Y-67087088D01*
X79057000Y-67402967D01*
X79057000Y-67725033D01*
X79119832Y-68040912D01*
X79243082Y-68338463D01*
X79422013Y-68606252D01*
X79649748Y-68833987D01*
X79917537Y-69012918D01*
X80215088Y-69136168D01*
X80530967Y-69199000D01*
X80853033Y-69199000D01*
X81168912Y-69136168D01*
X81183375Y-69130177D01*
X81249200Y-69196002D01*
X81272998Y-69225000D01*
X81301996Y-69248798D01*
X81388722Y-69319973D01*
X81471083Y-69363996D01*
X81520752Y-69390545D01*
X81664013Y-69434002D01*
X81775666Y-69444999D01*
X81775676Y-69444999D01*
X81812999Y-69448675D01*
X81850321Y-69444999D01*
X89417098Y-69444999D01*
X89378700Y-69598184D01*
X89364783Y-69880512D01*
X89406213Y-70160130D01*
X89501397Y-70426292D01*
X89543466Y-70504999D01*
X82037325Y-70504999D01*
X82000002Y-70501323D01*
X81962680Y-70504999D01*
X81962670Y-70504999D01*
X81851017Y-70515996D01*
X81733928Y-70551514D01*
X81707756Y-70559453D01*
X81575726Y-70630025D01*
X81492086Y-70698667D01*
X81460002Y-70724998D01*
X81436204Y-70753996D01*
X60494201Y-91696000D01*
X58934273Y-91696000D01*
X58891417Y-91615821D01*
X58703345Y-91386655D01*
X58474179Y-91198583D01*
X58450638Y-91186000D01*
X58474179Y-91173417D01*
X58703345Y-90985345D01*
X58891417Y-90756179D01*
X58947343Y-90651548D01*
X59046247Y-90621546D01*
X59178276Y-90550974D01*
X59294001Y-90456001D01*
X59317804Y-90426997D01*
X59438997Y-90305804D01*
X59468001Y-90282001D01*
X59562974Y-90166276D01*
X59633546Y-90034247D01*
X59677003Y-89890986D01*
X59688000Y-89779333D01*
X59688000Y-89779324D01*
X59691676Y-89742001D01*
X59688000Y-89704678D01*
X59688000Y-87017324D01*
X59691676Y-86980001D01*
X59688000Y-86942678D01*
X59688000Y-86942668D01*
X59677003Y-86831015D01*
X59633546Y-86687754D01*
X59619154Y-86660829D01*
X59562974Y-86555724D01*
X59491799Y-86468998D01*
X59468001Y-86440000D01*
X59439004Y-86416203D01*
X55238361Y-82215560D01*
X66300045Y-82215560D01*
X66361932Y-82451368D01*
X66603790Y-82564266D01*
X66863027Y-82627811D01*
X67129680Y-82639561D01*
X67393501Y-82599063D01*
X67644353Y-82507875D01*
X67750068Y-82451368D01*
X67811955Y-82215560D01*
X67056000Y-81459605D01*
X66300045Y-82215560D01*
X55238361Y-82215560D01*
X54608000Y-81585200D01*
X54608000Y-81353680D01*
X65696439Y-81353680D01*
X65736937Y-81617501D01*
X65828125Y-81868353D01*
X65884632Y-81974068D01*
X66120440Y-82035955D01*
X66876395Y-81280000D01*
X67235605Y-81280000D01*
X67991560Y-82035955D01*
X68227368Y-81974068D01*
X68340266Y-81732210D01*
X68403811Y-81472973D01*
X68415561Y-81206320D01*
X68375063Y-80942499D01*
X68283875Y-80691647D01*
X68227368Y-80585932D01*
X67991560Y-80524045D01*
X67235605Y-81280000D01*
X66876395Y-81280000D01*
X66120440Y-80524045D01*
X65884632Y-80585932D01*
X65771734Y-80827790D01*
X65708189Y-81087027D01*
X65696439Y-81353680D01*
X54608000Y-81353680D01*
X54608000Y-63814801D01*
X55183455Y-63239347D01*
X62276871Y-63239347D01*
X62242997Y-63351015D01*
G37*
G04 #@! TD.AperFunction*
D41*
X92588096Y-69500961D02*
X92710085Y-69723000D01*
X93853000Y-69723000D01*
X93853000Y-69703000D01*
X94107000Y-69703000D01*
X94107000Y-69723000D01*
X94127000Y-69723000D01*
X94127000Y-69977000D01*
X94107000Y-69977000D01*
X94107000Y-69997000D01*
X93853000Y-69997000D01*
X93853000Y-69977000D01*
X92710085Y-69977000D01*
X92588096Y-70199039D01*
X92628754Y-70333087D01*
X92710007Y-70504999D01*
X92063681Y-70504999D01*
X92162571Y-70296004D01*
X92231300Y-70021816D01*
X92245217Y-69739488D01*
X92203787Y-69459870D01*
X92198469Y-69444999D01*
X92605070Y-69444999D01*
X92588096Y-69500961D01*
G04 #@! TA.AperFunction,Conductor*
D42*
G36*
X92588096Y-69500961D02*
G01*
X92710085Y-69723000D01*
X93853000Y-69723000D01*
X93853000Y-69703000D01*
X94107000Y-69703000D01*
X94107000Y-69723000D01*
X94127000Y-69723000D01*
X94127000Y-69977000D01*
X94107000Y-69977000D01*
X94107000Y-69997000D01*
X93853000Y-69997000D01*
X93853000Y-69977000D01*
X92710085Y-69977000D01*
X92588096Y-70199039D01*
X92628754Y-70333087D01*
X92710007Y-70504999D01*
X92063681Y-70504999D01*
X92162571Y-70296004D01*
X92231300Y-70021816D01*
X92245217Y-69739488D01*
X92203787Y-69459870D01*
X92198469Y-69444999D01*
X92605070Y-69444999D01*
X92588096Y-69500961D01*
G37*
G04 #@! TD.AperFunction*
D41*
X90998748Y-69795858D02*
X90984605Y-69810000D01*
X90998748Y-69824143D01*
X90819143Y-70003748D01*
X90805000Y-69989605D01*
X90790858Y-70003748D01*
X90611253Y-69824143D01*
X90625395Y-69810000D01*
X90611253Y-69795858D01*
X90790858Y-69616253D01*
X90805000Y-69630395D01*
X90819143Y-69616253D01*
X90998748Y-69795858D01*
G04 #@! TA.AperFunction,Conductor*
D42*
G36*
X90998748Y-69795858D02*
G01*
X90984605Y-69810000D01*
X90998748Y-69824143D01*
X90819143Y-70003748D01*
X90805000Y-69989605D01*
X90790858Y-70003748D01*
X90611253Y-69824143D01*
X90625395Y-69810000D01*
X90611253Y-69795858D01*
X90790858Y-69616253D01*
X90805000Y-69630395D01*
X90819143Y-69616253D01*
X90998748Y-69795858D01*
G37*
G04 #@! TD.AperFunction*
M02*
