M48
; DRILL file {KiCad 5.1.8-db9833491~87~ubuntu20.04.1} date Fri Nov 20 22:44:52 2020
; FORMAT={-:-/ absolute / inch / decimal}
; #@! TF.CreationDate,2020-11-20T22:44:52+01:00
; #@! TF.GenerationSoftware,Kicad,Pcbnew,5.1.8-db9833491~87~ubuntu20.04.1
; #@! TF.FileFunction,Plated,1,2,PTH
FMAT,2
INCH
T1C0.0157
T2C0.0236
T3C0.0276
T4C0.0295
T5C0.0315
T6C0.0354
T7C0.0394
T8C0.0400
T9C0.0433
T10C0.0472
T11C0.0512
%
G90
G05
T1
X3.1098Y-3.2698
X3.19Y-3.85
X3.41Y-3.29
X3.45Y-3.87
X3.5302Y-4.7298
X4.03Y-3.13
X4.03Y-4.09
X4.21Y-3.13
X4.21Y-3.29
X4.25Y-4.11
X4.29Y-4.2015
X4.37Y-4.27
X4.4015Y-3.6267
X4.43Y-3.51
X4.43Y-3.69
X4.45Y-3.73
X4.4585Y-2.99
X4.4585Y-3.21
X4.4696Y-4.0696
X4.5098Y-4.0698
X4.55Y-4.07
X4.71Y-3.03
T2
X5.4909Y-4.45
X5.55Y-4.45
X4.6709Y-4.45
X4.73Y-4.45
T3
X3.19Y-4.81
X3.2687Y-4.81
X3.01Y-4.81
X3.0887Y-4.81
X3.37Y-4.81
X3.4487Y-4.81
T4
X3.59Y-4.21
X3.59Y-4.26
X3.59Y-4.31
T5
X5.35Y-4.3516
X5.35Y-4.45
X3.53Y-4.03
X3.83Y-4.03
X4.33Y-2.86
X4.33Y-2.96
X4.33Y-3.06
X4.33Y-3.16
X4.33Y-3.26
X4.33Y-3.36
X4.33Y-3.46
X4.33Y-3.56
X4.33Y-3.66
X4.33Y-3.76
X4.33Y-3.86
X4.33Y-3.96
X4.33Y-4.06
X4.33Y-4.16
X4.63Y-2.86
X4.63Y-2.96
X4.63Y-3.06
X4.63Y-3.16
X4.63Y-3.26
X4.63Y-3.36
X4.63Y-3.46
X4.63Y-3.56
X4.63Y-3.66
X4.63Y-3.76
X4.63Y-3.86
X4.63Y-3.96
X4.63Y-4.06
X4.63Y-4.16
X4.11Y-2.83
X4.11Y-2.93
X4.11Y-3.03
X4.205Y-3.46
X4.205Y-3.5584
X3.49Y-2.83
X3.49Y-2.93
X3.49Y-3.03
X4.77Y-2.83
X4.77Y-3.13
X3.39Y-4.33
X3.39Y-4.63
X4.755Y-3.56
X4.755Y-3.6584
X4.53Y-4.3516
X4.53Y-4.45
X5.88Y-2.86
X6.18Y-2.86
X5.88Y-4.785
X6.18Y-4.785
X3.27Y-3.81
X3.27Y-3.91
X3.27Y-4.01
X3.27Y-3.33
X3.27Y-3.63
X3.53Y-3.81
X3.83Y-3.81
T6
X5.9962Y-3.6206
X5.9962Y-4.0144
X7.0788Y-3.4238
X7.0788Y-4.2112
X3.13Y-4.53
X3.23Y-4.53
T7
X3.61Y-3.47
X3.8069Y-3.47
X6.3863Y-4.735
X6.5351Y-4.735
X5.7Y-3.5094
X5.7Y-3.7063
X5.7Y-3.9031
X5.7Y-4.1
X6.3863Y-2.785
X6.5351Y-2.785
T8
X2.905Y-3.5
X2.905Y-3.6
X2.905Y-3.7
X2.905Y-3.8
X2.905Y-3.9
X3.005Y-3.5
X3.005Y-3.6
X3.005Y-3.7
X3.005Y-3.8
X3.005Y-3.9
X3.79Y-4.59
X3.79Y-4.69
X3.89Y-4.59
X3.89Y-4.69
X3.99Y-4.59
X3.99Y-4.69
T9
X4.53Y-4.61
X4.63Y-4.61
X4.73Y-4.61
X3.79Y-4.23
X4.19Y-4.23
X5.35Y-4.61
X5.45Y-4.61
X5.55Y-4.61
T10
X3.75Y-2.91
X3.85Y-2.91
X2.89Y-4.25
X2.89Y-4.35
X2.89Y-4.45
X2.89Y-4.55
X4.07Y-3.71
X4.07Y-3.81
X4.07Y-3.91
X4.07Y-4.01
X5.17Y-3.71
X5.17Y-4.0053
X3.13Y-2.91
X3.23Y-2.91
X5.23Y-2.95
X5.23Y-3.2453
T11
X8.205Y-3.71
X8.205Y-3.91
X6.9816Y-4.735
X7.18Y-4.735
X7.3784Y-4.735
X7.605Y-3.0836
X7.605Y-4.56
X8.205Y-3.21
X8.205Y-3.41
X6.9816Y-2.785
X7.18Y-2.785
X7.3784Y-2.785
X8.205Y-4.21
X8.205Y-4.41
T0
M30
